<svg width="112" height="169" viewBox="0 0 112 169" fill="none" xmlns="http://www.w3.org/2000/svg">
<g clip-path="url(#clip0_6_2025)">
<path d="M109.12 91.3983C107.21 86.2204 102.573 83.4402 97.0126 84.1424C95.3507 84.4306 93.7335 84.9353 92.2016 85.6422C91.5564 85.9047 90.8935 86.1745 90.2162 86.4206C87.5974 80.6245 82.4373 78.0444 74.8487 78.7447C74.8487 78.4966 74.852 78.2663 74.854 78.049C74.8592 77.4268 74.8631 76.9129 74.8441 76.4003C74.7384 73.6463 74.64 70.8923 74.5488 68.1383C74.3138 61.3649 74.0723 54.3611 73.6712 47.48C73.261 40.4349 71.4541 34.6677 68.1488 29.8482C65.5032 25.9903 61.2815 24.864 57.1328 26.9085C54.8945 27.9337 53.0816 29.7045 52.0042 31.9182C51.1628 33.7087 50.429 35.5853 49.7221 37.4C49.4872 37.9999 49.2531 38.5998 49.0142 39.1996C48.8659 38.968 48.7187 38.7337 48.5697 38.4974C47.9742 37.5033 47.3165 36.5478 46.6006 35.6365C44.1663 32.6692 41.0946 31.9872 37.4703 33.609C36.1302 34.1829 34.9368 35.0517 33.979 36.1506C33.0211 37.2496 32.3237 38.5505 31.9382 39.9565C31.4793 41.4857 31.1929 43.0615 31.0848 44.6545C31.0152 45.7392 30.9421 46.8245 30.8655 47.9106C30.5741 52.1354 30.2748 56.504 30.28 60.8069C30.2931 69.6512 30.4299 78.2991 30.5736 87.4543C30.6283 90.8535 30.6798 94.2717 30.7284 97.7103L30.5932 97.5882C30.1935 97.2141 29.7726 96.8636 29.3324 96.538C22.3752 91.6155 15.0066 89.9891 7.43638 91.6943C3.522 92.5777 1.21756 95.2208 0.587476 99.5506C-0.212599 105.058 2.98647 108.492 5.86254 110.868C11.2914 115.35 15.7309 120.91 18.9005 127.196C23.6695 136.477 28.802 145.442 32.74 152.219C34.1353 154.435 35.918 156.382 38.0026 157.967C42.1844 161.259 46.8798 163.841 51.9001 165.609C56.5275 167.349 61.4305 168.24 66.3741 168.238C72.2017 168.169 77.9735 167.089 83.431 165.045C87.4701 163.532 91.2112 161.321 94.4831 158.511C100.406 153.601 104.534 146.894 107.1 138.003C110.528 126.193 111.984 113.898 111.411 101.614C111.168 98.1126 110.396 94.6681 109.12 91.3983ZM36.9886 105.794C36.8665 98.6173 36.7109 91.0392 36.4844 81.2217C36.4405 79.3367 36.3689 77.4511 36.2967 75.5654C36.1569 71.9057 36.0125 68.1212 36.09 64.4076C36.2291 57.6723 36.6645 50.9934 37.1751 43.5867C37.412 40.156 38.0242 39.2653 41.2192 37.8903C43.3306 39.2843 44.6377 41.5606 45.2133 44.8416C46.0822 49.7947 46.6931 54.7896 47.0442 59.806C47.4794 66.0669 47.8097 72.4419 48.13 78.6069C48.3157 82.1951 48.5021 85.7833 48.7088 89.3708C48.7803 90.6034 49.0605 91.4147 49.5429 91.7822C50.3246 92.3788 51.6203 93.0174 52.6881 92.8494C53.5414 92.7182 54.5483 91.33 54.6113 90.4544C54.8341 87.749 54.8387 85.0305 54.6251 82.3244C53.468 69.3552 54.3784 56.5775 55.5914 42.419C55.8681 40.4154 56.4141 38.4585 57.2149 36.6012C57.3573 36.2238 57.4991 35.8477 57.6357 35.473C58.041 34.6067 58.6379 33.8436 59.381 33.2414C60.2132 32.4925 60.9028 32.1749 61.4279 32.2931C61.9182 32.4046 62.3547 32.9198 62.7268 33.8229L62.8338 34.0855C64.1018 37.1643 65.4126 40.347 65.9356 43.5867C66.7889 48.7746 67.2424 54.0204 67.291 59.2777C67.3284 66.3846 67.0987 73.6141 66.8762 80.6087C66.8099 82.6972 66.7456 84.785 66.6832 86.8722C66.6419 87.7595 66.5552 88.6436 66.4246 89.5224C66.292 90.4157 66.2047 91.3149 66.1621 92.2167C66.1174 93.6968 66.4948 94.7574 67.2844 95.3671C68.074 95.9769 69.2108 96.0852 70.6455 95.6697C71.5867 95.4295 72.4334 94.9116 73.0753 94.1824C73.7172 93.4532 74.1235 92.5475 74.2416 91.5834C74.4136 90.5496 74.5041 89.4916 74.5973 88.469C74.6531 87.8278 74.7096 87.1872 74.785 86.5492C75.0325 84.4647 76.143 83.5156 78.2669 83.5708C79.7739 83.6436 81.2204 84.1845 82.4064 85.1178C83.5918 86.0504 84.4575 87.3296 84.8828 88.7775C85.1617 89.9576 85.337 91.16 85.4079 92.3703C85.4368 92.707 85.4663 93.0424 85.4998 93.3765C85.5267 93.742 85.5299 94.1089 85.5089 94.4752C85.4381 95.1459 85.5076 95.8246 85.7137 96.4672C86.0379 97.2639 86.8754 98.6882 87.9577 98.9717C88.7099 99.1686 89.7653 98.7978 91.099 97.873C91.5197 97.5193 91.8419 97.0631 92.0356 96.5485C92.1491 96.2959 92.281 96.0517 92.4294 95.818C92.686 95.4387 92.9348 95.0508 93.1828 94.6622C93.7972 93.6305 94.508 92.6591 95.3054 91.7619C96.5768 90.4295 98.0201 89.7975 99.357 89.9779C100.694 90.1584 101.894 91.1364 102.752 92.7346C104.836 96.4238 105.845 100.622 105.666 104.856C105.292 111.455 104.667 118.237 103.755 125.588C102.889 131.894 100.931 138 97.9676 143.634C94.3715 150.756 88.3509 155.579 79.5619 158.37C66.888 162.396 54.4386 160.192 42.5582 151.819C41.3746 151.037 40.3404 150.05 39.5043 148.905C37.4582 145.971 35.5652 142.934 33.8335 139.805C31.1983 134.917 28.5411 129.672 25.9334 124.218C21.9298 115.846 16.8162 109.253 10.2935 104.068C9.18867 103.185 8.25811 102.104 7.54986 100.88C7.35066 100.569 7.22018 100.219 7.16688 99.8545C7.11359 99.4889 7.13886 99.1168 7.24092 98.7624C7.401 98.36 7.64325 97.9951 7.95239 97.6919C8.26146 97.388 8.63052 97.153 9.03587 97.0001C10.3232 96.4251 11.7183 96.1311 13.1281 96.1383C13.8934 96.141 14.6567 96.2151 15.4083 96.3595C21.1407 97.4313 24.9828 99.5644 27.4992 103.075C28.3827 104.465 29.0642 105.974 29.5234 107.556C29.6639 107.964 29.8036 108.369 29.9493 108.77C30.5105 110.309 31.2956 111.735 33.2252 111.747C34.9455 111.736 36.1636 110.706 36.6178 108.859C36.8725 107.857 36.9975 106.827 36.9899 105.794H36.9886Z" fill="black"/>
<path d="M86.4836 70.9067C88.5019 70.5622 90.4236 69.7916 92.1216 68.647C98.9554 64.0781 104.001 57.3501 107.546 48.0786C109.234 43.7799 110.024 39.1812 109.868 34.5655C109.712 29.9498 108.613 25.4148 106.64 21.2396C102.581 12.4663 95.1013 5.44756 86.6326 2.46319C81.2447 0.565061 75.5143 -0.0696466 68.6017 0.464612C56.1436 1.42812 48.0091 5.23097 42.2589 12.7867L41.8827 12.7177C41.4889 12.6436 41.1168 12.5753 40.744 12.53C39.751 12.4092 38.7331 12.2334 37.7473 12.0621C35.5431 11.5813 33.2861 11.3843 31.032 11.476C16.9089 12.7027 6.95183 21.0447 2.99278 34.9637C0.37924 44.1524 0.647 53.7094 3.78692 63.3739C5.32286 68.1908 8.39157 72.3736 12.5254 75.2845C14.8153 76.9254 16.9976 77.7346 19.1451 77.7346C19.7687 77.734 20.3905 77.6664 20.9994 77.5325C21.4647 77.3973 21.8894 77.1498 22.2365 76.8118C22.5835 76.4738 22.8421 76.0551 22.9893 75.5936C23.1462 74.6748 22.2502 73.5511 21.8571 73.1101C21.4113 72.7044 20.8691 72.4196 20.2819 72.2831C20.1592 72.243 20.0372 72.2037 19.9191 72.1617C17.3889 71.2638 15.2454 69.6078 12.9699 66.7928C10.2329 63.4081 9.32908 59.3289 8.63796 55.4381C6.66172 44.3165 8.21731 35.0917 13.3938 27.2353C19.1637 18.4765 31.2348 14.6107 40.8758 18.4345C44.3419 19.8089 45.2214 19.5574 47.1511 16.6321C49.3481 13.1397 52.5958 10.4335 56.4273 8.90243C65.555 5.3694 74.0172 4.6658 82.287 6.75227C89.8401 8.65565 96.439 13.9372 100.392 21.2396C104.129 28.141 104.921 36.023 102.568 42.8646C99.445 51.9438 94.6117 58.6385 87.7943 63.3333C86.3425 64.2528 85.0738 65.4336 84.0532 66.8158C83.7263 67.2457 83.5334 67.7622 83.4993 68.3011C83.4645 68.8393 83.5905 69.3768 83.8602 69.8441C84.1405 70.2642 84.5409 70.5897 85.0082 70.7787C85.4762 70.9684 85.9901 71.0131 86.4836 70.9067Z" fill="black"/>
<path d="M81.3202 45.5675C80.8496 46.4614 80.362 47.3862 79.9596 48.3359C79.6531 48.9713 79.5816 49.6949 79.7588 50.3778C79.9353 51.0607 80.3488 51.6587 80.9258 52.0652C82.2161 53.0333 83.7139 52.8962 85.0371 51.6859C85.8083 50.9812 86.462 50.1582 86.9739 49.2476C93.2583 37.9337 90.0403 26.0033 78.7749 18.8538C70.2872 13.4673 54.3352 15.4947 47.5769 22.7762C44.0045 22.047 39.3441 21.4083 34.6322 22.7105C20.7113 26.5573 13.5163 39.455 16.7271 54.8054C17.0498 56.2525 17.5485 57.6546 18.2119 58.9804C18.9595 60.5274 19.9747 61.3058 21.2394 61.3058C21.6414 61.3008 22.0404 61.2324 22.421 61.103L22.5521 61.0603L22.6178 60.9382C23.4645 59.3118 23.2593 57.6513 23.061 56.0446C22.9993 55.5451 22.9355 55.0279 22.9059 54.5245C22.8666 53.8387 22.8195 53.1515 22.7749 52.4636C22.5392 49.9353 22.4873 47.3932 22.6197 44.8573C23.1061 38.6392 26.2403 33.634 31.936 29.9887C36.6925 26.9426 41.6812 26.3289 46.7632 28.1667C49.5376 29.1702 50.0934 28.6143 51.9364 26.7759L52.0303 26.6827C53.9337 24.7859 55.6567 23.5861 57.3015 23.017C60.2461 22.0266 63.3077 21.4253 66.4082 21.2285C73.3424 20.7395 81.2894 26.2344 83.4664 32.9967C84.575 36.4398 84.1346 39.9722 82.0789 44.1124C81.8276 44.6007 81.5723 45.0844 81.3202 45.5675Z" fill="black"/>
</g>
<defs>
<clipPath id="clip0_6_2025">
<rect width="111.577" height="168.679" fill="white"/>
</clipPath>
</defs>
</svg>
