<svg width="131" height="146" viewBox="0 0 131 146" fill="none" xmlns="http://www.w3.org/2000/svg">
<g clip-path="url(#clip0_6_2029)">
<path d="M128.006 68.3905C125.938 62.6968 120.725 59.782 114.728 60.9608C113.309 61.3098 111.942 61.8459 110.663 62.555C110.143 62.8123 109.609 63.0801 109.064 63.3223C108.004 61.0343 106.22 58.0368 102.87 56.8941C100.744 56.2319 98.5688 55.7403 96.3648 55.4239C95.4702 55.2703 94.5474 55.1115 93.6266 54.9304V54.6764C93.6325 54.2018 93.639 53.6452 93.618 53.09C93.5117 50.3299 93.4126 47.5702 93.3207 44.8109C93.0864 38.0507 92.8442 31.0626 92.4432 24.196C92.0323 17.1666 90.2208 11.406 86.9044 6.58517C84.256 2.73641 80.0292 1.62785 75.8733 3.69335C73.6404 4.72587 71.8335 6.50013 70.7611 8.71433C69.9282 10.4963 69.1983 12.3636 68.4928 14.1691C68.2591 14.7677 68.0235 15.367 67.7859 15.9669C67.6546 15.7529 67.5181 15.537 67.3842 15.321C66.8329 14.3909 66.2297 13.4925 65.5774 12.63C63.0315 9.3897 59.6816 8.66313 55.8919 10.5298C54.6226 11.1223 53.4995 11.9877 52.6032 13.0643C51.7069 14.1409 51.0593 15.402 50.7066 16.7577C50.1727 18.6148 49.8517 20.5265 49.7497 22.4561L49.6186 25.7437C49.3364 32.7113 49.045 39.916 49.0436 47.009C49.0436 53.4687 49.2241 59.8076 49.4157 66.5232C49.4919 69.1695 49.5643 71.8415 49.633 74.5397L49.3625 74.2982C48.9543 73.9175 48.525 73.5598 48.0767 73.2264C41.2922 68.4036 34.1473 66.7437 26.8416 68.2907C25.2985 68.5893 23.8527 69.2634 22.6322 70.2532C21.4115 71.2429 20.4535 72.5188 19.843 73.9667C19.2265 75.4769 18.9913 77.1165 19.1585 78.7389C19.3256 80.3621 19.8898 81.9189 20.8012 83.2716C21.9658 84.9558 23.3586 86.4693 24.9396 87.7702C30.121 92.1886 34.3973 97.5693 37.5321 103.614C41.4904 111.287 45.941 119.324 51.5383 128.907C52.998 131.405 55.3975 133.491 57.0751 134.843C60.5366 137.631 64.6671 139.911 70.0745 142.017C74.875 143.908 79.9879 144.878 85.1467 144.877C90.9848 144.807 96.7665 143.726 102.235 141.681C106.275 140.169 110.015 137.954 113.284 135.14C119.199 130.229 123.32 123.523 125.886 114.64C129.304 102.838 130.759 90.5537 130.191 78.2789C129.958 74.8922 129.222 71.5593 128.006 68.3905ZM55.7663 82.4945C55.614 73.5906 55.4174 64.6973 55.2625 57.9475C55.2185 56.0402 55.1475 54.1329 55.0766 52.2256C54.9368 48.4845 54.7925 44.6121 54.8693 40.8119C54.994 34.6292 55.4139 28.3447 55.8201 22.2677L55.9515 20.3453C56.1773 16.9448 57.3883 15.2331 59.9946 14.6496C62.1061 16.0279 63.4148 18.3008 63.9923 21.5956C64.862 26.5447 65.4739 31.5357 65.8254 36.5483C66.2599 42.8019 66.5907 49.1697 66.9103 55.3281C67.0967 58.9143 67.2825 62.5006 67.4892 66.0854C67.5608 67.3167 67.841 68.1279 68.3228 68.4955C69.2042 69.226 70.3233 69.606 71.4666 69.564C72.3199 69.4327 73.328 68.0472 73.391 67.1723C73.6142 64.4696 73.6194 61.7532 73.4061 59.0495C72.2483 46.0921 73.1587 33.3263 74.3716 19.1783C74.6486 17.1752 75.1953 15.2186 75.996 13.3619C76.1378 12.9858 76.2789 12.611 76.4154 12.2382C76.8204 11.3718 77.417 10.6086 78.16 10.0067C78.9922 9.25777 79.6801 8.93617 80.2084 9.05825C80.698 9.16982 81.1352 9.68308 81.506 10.5842L81.6569 10.9492C82.9112 13.9913 84.2081 17.1365 84.7142 20.3348C85.5681 25.6314 86.0229 30.9847 86.0734 36.3494C86.1148 43.3493 85.8831 50.4719 85.6586 57.3595C85.5917 59.4322 85.5261 61.5051 85.4617 63.5783C85.4197 64.4638 85.3337 65.3466 85.2025 66.2232C85.087 67.1027 84.9669 68.0118 84.9399 68.9182C84.8953 70.3969 85.272 71.4569 86.061 72.0686C86.8499 72.6803 87.9847 72.786 89.4214 72.3725C90.3626 72.1336 91.2093 71.6164 91.8512 70.8878C92.4931 70.1593 92.9 69.2542 93.0188 68.2907C93.1914 67.257 93.2813 66.199 93.3752 65.1758C93.4316 64.5372 93.4874 63.8979 93.5629 63.2613C93.8097 61.1793 94.9058 60.2224 97.0415 60.2834C98.5478 60.3553 99.995 60.8947 101.181 61.8266C102.367 62.7586 103.233 64.0368 103.659 65.4836C103.938 66.6636 104.114 67.8661 104.184 69.077C104.213 69.4111 104.242 69.7451 104.276 70.0779C104.303 70.4435 104.306 70.8097 104.285 71.1753C104.214 71.8454 104.284 72.5234 104.49 73.1647C104.814 73.9621 105.65 75.387 106.732 75.6699C107.479 75.8668 108.537 75.4979 109.874 74.5751C110.294 74.222 110.617 73.7665 110.81 73.2526C110.924 72.9999 111.055 72.7564 111.203 72.5221C111.46 72.1434 111.709 71.7562 111.957 71.3683C112.571 70.3372 113.282 69.3664 114.08 68.4692C115.35 67.1375 116.787 66.5061 118.133 66.6853C119.463 66.8645 120.668 67.8424 121.526 69.438C123.628 73.1141 124.637 77.3134 124.435 81.5428C123.903 89.4189 122.973 97.3888 122.143 104.242C121.421 110.204 119.002 115.697 116.73 120.286C113.216 127.383 107.2 132.201 98.3397 135.014C85.6593 139.04 73.2099 136.838 61.3388 128.467C60.0757 127.606 58.9728 126.53 58.0795 125.29C56.0961 122.453 54.2695 119.509 52.6086 116.472C49.8933 111.418 47.2367 106.176 44.7104 100.896C40.7068 92.5312 35.5925 85.9475 29.0712 80.767C27.9665 79.8849 27.0359 78.8046 26.3269 77.5818C26.1277 77.2714 25.9973 76.9222 25.944 76.5573C25.8906 76.1924 25.9159 75.8202 26.018 75.4658C26.1776 75.0635 26.4195 74.6992 26.7282 74.396C27.0368 74.0934 27.4054 73.8578 27.8104 73.7055C29.098 73.1299 30.4935 72.8358 31.9038 72.8431C32.6684 72.8463 33.4312 72.9199 34.1821 73.0636C39.9139 74.1334 43.756 76.2652 46.2744 79.7714C47.1583 81.1602 47.84 82.6678 48.2992 84.2489C48.4396 84.6558 48.5794 85.0614 48.7251 85.4598C49.2862 86.9983 50.0714 88.4245 51.9991 88.4377H52.0273C53.7167 88.4377 54.9427 87.3875 55.3929 85.5563C55.6486 84.5561 55.774 83.5263 55.7663 82.4939V82.4945Z" fill="black"/>
<path d="M3.14955 16.9657C5.81494 19.6337 8.58099 22.3123 11.3698 24.9251C11.9773 25.5393 12.7731 25.9321 13.6301 26.0409H13.6353C14.6792 26.0857 15.7003 25.7252 16.4846 25.0347C16.9887 24.4539 16.7962 22.8892 16.2875 22.1889C15.6735 21.403 14.9778 20.6844 14.2121 20.0453C13.859 19.7289 13.5059 19.4125 13.1718 19.0824C12.7124 18.6269 12.1973 18.2115 11.7005 17.8098C10.6821 17.0728 9.79554 16.169 9.07836 15.1365H9.62765C10.3135 15.1404 10.9056 15.1444 11.4983 15.1299L16.9644 14.9987C23.3309 14.851 29.91 14.6974 36.3815 14.4736C37.3366 14.3918 38.2754 14.1756 39.1703 13.8317C39.6159 13.6853 40.0759 13.5344 40.5563 13.4051L40.9646 13.2955L40.7679 12.922C40.4103 12.1229 39.819 11.4506 39.0722 10.9938C38.3254 10.5369 37.458 10.3168 36.5837 10.3623C31.9979 10.231 28.2671 10.1536 24.8437 10.126C21.4589 10.0991 18.0964 10.105 14.5352 10.1109C13.2829 10.1136 12.0088 10.1153 10.7128 10.1162L11.6973 9.3463C12.9779 8.34604 14.1782 7.40813 15.3675 6.45844C15.6418 6.23856 15.9186 6.02066 16.1949 5.8021C17.3488 4.93063 18.445 3.98528 19.4766 2.97197C19.7183 2.60997 19.8551 2.18807 19.8714 1.75311C19.8878 1.31816 19.783 0.887191 19.5692 0.508081C19.0527 -0.118066 17.6567 -0.00320937 17.2419 0.0486413C16.8031 0.145507 16.3988 0.359648 16.0722 0.668223C15.9409 0.770612 15.8099 0.873657 15.6786 0.960293L2.21248 9.75519C0.491557 10.8782 0.0851918 12.4639 1.06773 14.2183C1.63415 15.2241 2.33444 16.1484 3.14955 16.9657Z" fill="black"/>
</g>
<defs>
<clipPath id="clip0_6_2029">
<rect width="130.611" height="145.051" fill="white"/>
</clipPath>
</defs>
</svg>
