<svg width="125" height="149" viewBox="0 0 125 149" fill="none" xmlns="http://www.w3.org/2000/svg">
<g clip-path="url(#clip0_6_2032)">
<path d="M6.13407 91.563L6.71476 92.0802C11.5121 96.2571 15.5038 101.277 18.4926 106.893C22.6164 114.807 27.2982 123.275 32.8048 132.783C34.1973 134.999 35.9787 136.945 38.0629 138.529C42.2444 141.819 46.9388 144.4 51.9582 146.168C56.5897 147.909 61.4972 148.801 66.4456 148.8C72.2679 148.731 78.0352 147.653 83.4894 145.614C87.5278 144.105 91.2689 141.897 94.5427 139.091C100.47 134.186 104.6 127.485 107.168 118.606C110.596 106.807 112.053 94.5238 111.483 82.2502C111.241 78.7513 110.471 75.3095 109.197 72.0422C107.29 66.867 102.665 64.0801 97.0998 64.7785C95.4367 65.0657 93.8175 65.5681 92.2843 66.273C91.6391 66.5355 90.9749 66.804 90.2969 67.0481C87.5961 61.1949 82.4274 58.6305 74.9215 59.4201C74.9215 59.1655 74.9248 58.9298 74.9268 58.7086C74.932 58.0818 74.936 57.5699 74.9169 57.0586C74.8112 54.2994 74.7122 51.5399 74.6209 48.7802C74.3866 42.0199 74.1457 35.0319 73.7447 28.1653C73.3332 21.1189 71.5289 15.3562 68.2315 10.5472C65.4807 6.53765 60.8346 5.41662 56.932 7.82212C54.9939 9.02479 53.3608 10.6603 52.161 12.6003C51.1901 14.3452 50.3855 16.1777 49.7581 18.0735C49.5382 18.6753 49.3184 19.2772 49.0873 19.8738C48.9412 19.6454 48.7951 19.4141 48.6489 19.18C48.0537 18.1898 47.3973 17.2376 46.6838 16.3289C44.2422 13.3485 41.1706 12.6626 37.5607 14.291C34.3447 15.7415 32.3861 18.1732 31.9017 21.325C31.5145 23.8479 31.3335 26.4391 31.1582 28.945C31.0788 30.0851 30.9987 31.2252 30.9009 32.3633C29.7956 45.1448 30.3148 58.1291 30.8163 70.6862L30.9108 73.07C30.9614 74.3584 30.9487 75.6613 30.9349 77.0415C30.9303 77.4879 30.9259 77.944 30.9233 78.4126L30.6987 78.2157C30.2392 77.8186 29.8455 77.4754 29.4216 77.1702C22.8339 72.4117 15.8011 70.7066 8.521 72.1033C6.86814 72.3704 5.31274 73.0615 4.00578 74.1077C2.69881 75.1546 1.68488 76.5217 1.06251 78.0759C0.459551 79.7279 0.287588 81.5073 0.563207 83.2439C0.838827 84.9813 1.55286 86.6195 2.63766 88.0044C3.67847 89.3065 4.85013 90.4991 6.13407 91.563ZM37.0646 86.4252C36.9143 77.6303 36.7253 69.0802 36.5599 61.8781C36.5159 59.9708 36.4442 58.0622 36.3734 56.1542C36.2342 52.4131 36.0899 48.5407 36.1667 44.7431C36.2907 38.5821 36.7087 32.3206 37.1124 26.2646L37.2438 24.2765C37.4689 20.8747 38.679 19.1571 41.284 18.5664C43.3954 19.9368 44.7049 22.2077 45.2877 25.5039C46.1602 30.4525 46.7735 35.4432 47.1253 40.4559C47.5605 46.7213 47.8915 53.1002 48.2118 59.2692C48.3975 62.8442 48.5826 66.4233 48.7886 69.9938C48.8602 71.227 49.138 72.0389 49.6158 72.4058C50.4952 73.1376 51.6121 73.5216 52.7555 73.4855C53.616 73.3542 54.6276 71.9759 54.6919 71.101C54.9152 68.3982 54.9205 65.6817 54.7076 62.9781C53.5485 50.024 54.4574 37.2569 55.6703 23.1063C55.9469 21.1044 56.4919 19.1489 57.2903 17.2924C57.4327 16.915 57.5746 16.5389 57.7104 16.1648C58.1151 15.299 58.7106 14.5361 59.4522 13.9333C60.2845 13.1818 60.9768 12.8602 61.5065 12.9803C61.9974 13.0919 62.4327 13.6018 62.8022 14.4964L62.9602 14.8804C64.2124 17.9159 65.5077 21.0545 66.0124 24.2463C66.8676 29.5428 67.3224 34.8961 67.373 40.261C67.415 47.2549 67.1833 54.3722 66.9601 61.2539C66.8925 63.3327 66.8269 65.4112 66.7632 67.4892C66.7212 68.3753 66.6353 69.2593 66.504 70.1369C66.3878 71.0151 66.2684 71.9234 66.2415 72.8279C66.1955 74.3118 66.5696 75.3751 67.3572 75.9881C68.1448 76.6011 69.2757 76.7062 70.7111 76.2966C71.653 76.0603 72.5016 75.5451 73.1448 74.8179C73.7887 74.0906 74.1976 73.1862 74.3177 72.2227C74.4923 71.1837 74.5868 70.1224 74.6774 69.0913C74.7331 68.458 74.7889 67.8246 74.8631 67.1932C75.1119 65.0791 76.1837 64.1536 78.3338 64.2042C79.8408 64.2735 81.2887 64.8108 82.476 65.7414C83.6626 66.6714 84.5303 67.9493 84.9582 69.3959C85.2378 70.5773 85.4137 71.7803 85.4833 72.9926C85.5122 73.326 85.5411 73.6581 85.5752 73.9896C85.6021 74.3552 85.6047 74.7227 85.5837 75.0889C85.5122 75.7584 85.5811 76.4351 85.7865 77.0763C86.1088 77.8751 86.9423 79.3026 88.0181 79.5894C88.7716 79.7863 89.827 79.4234 91.1646 78.5045C91.5866 78.1514 91.9102 77.6953 92.1038 77.18C92.218 76.9287 92.3493 76.6858 92.4976 76.4528C92.7542 76.0734 93.0023 75.6855 93.2504 75.297C93.8641 74.2652 94.5742 73.2945 95.371 72.3973C96.6411 71.0636 98.0817 70.4283 99.4279 70.6075C100.758 70.786 101.962 71.76 102.82 73.3516C104.924 77.0258 105.935 81.225 105.733 85.4545C105.201 93.3437 104.272 101.308 103.443 108.153C102.721 114.117 100.303 119.61 98.0318 124.198C94.5178 131.3 88.5038 136.12 79.6471 138.933C66.9575 142.963 54.5094 140.763 42.6454 132.394C41.3808 131.534 40.2758 130.46 39.3801 129.22C37.3954 126.383 35.5686 123.44 33.9076 120.403C31.1845 115.334 28.5255 110.094 26.0091 104.827C22.012 96.4672 16.898 89.8821 10.374 84.6964C9.26916 83.8136 8.3369 82.7346 7.62398 81.5132C7.42426 81.2021 7.29306 80.8516 7.2397 80.486C7.1864 80.1198 7.21206 79.747 7.31472 79.3919C7.47217 78.9902 7.7118 78.6259 8.01851 78.3227C8.32515 78.0195 8.69204 77.7839 9.09529 77.6309C10.387 77.054 11.7867 76.7593 13.2012 76.7659C13.9616 76.7685 14.7201 76.842 15.467 76.9844C21.1955 78.0497 25.0392 80.1795 27.5621 83.6857C28.451 85.0797 29.1362 86.5939 29.5969 88.1816C29.7347 88.5819 29.8723 88.9803 30.0148 89.3728C30.5759 90.9119 31.3597 92.3395 33.2814 92.3605C34.9656 92.3749 36.2265 91.332 36.6826 89.4883C36.9419 88.4881 37.0704 87.4583 37.0646 86.4252Z" fill="black"/>
<path d="M86.0971 16.6145C88.0109 16.7543 89.9924 16.8258 92.1531 16.8324C97.4038 16.8494 102.654 16.8468 107.98 16.8442H113.448L113.085 17.322C112.539 18.0413 111.996 18.7585 111.456 19.4735C111.062 19.9985 110.664 20.5223 110.261 21.0447C109.245 22.3738 108.195 23.7482 107.227 25.1495C106.155 26.6998 106.235 28.1798 107.446 29.2109C107.822 29.5622 108.314 29.7633 108.829 29.776C109.675 29.6674 110.465 29.2954 111.088 28.7127L111.174 28.6471C111.463 28.4261 111.724 28.1721 111.954 27.8903C112.914 26.7317 113.877 25.5759 114.842 24.4229C117.291 21.4937 119.823 18.4647 122.227 15.4147C123.367 13.9707 123.793 12.8911 123.605 11.9197C123.414 10.9122 122.587 10.0478 120.842 9.03179C117.626 7.15814 114.415 5.27492 111.211 3.38204L107.219 1.03431C107.103 0.962412 106.992 0.88442 106.885 0.800664C106.613 0.534429 106.254 0.37488 105.874 0.351074L105.687 0.364855C104.823 0.425894 103.747 0.502684 103.269 1.09798C102.767 1.72478 102.801 3.07553 103.168 3.86445C103.661 4.68196 104.36 5.3557 105.196 5.81837C107.061 7.0654 108.981 8.29669 110.84 9.48663C111.483 9.89881 112.125 10.3117 112.768 10.7251L108.13 10.9772C104.365 11.1564 100.599 11.3362 96.8354 11.539L95.7721 11.5968C92.5896 11.7668 89.2974 11.942 86.0774 12.3102C85.5634 12.447 85.0915 12.7091 84.7036 13.073C84.3157 13.4369 84.025 13.8913 83.8557 14.3954C83.7953 14.6195 83.7848 14.8542 83.8261 15.0826C83.8675 15.311 83.9594 15.5273 84.0946 15.7159C84.3459 15.9984 84.6544 16.2243 84.9997 16.3792C85.3449 16.5341 85.719 16.6142 86.0971 16.6145Z" fill="black"/>
</g>
<defs>
<clipPath id="clip0_6_2032">
<rect width="124.048" height="148.989" fill="white"/>
</clipPath>
</defs>
</svg>
