<svg width="112" height="156" viewBox="0 0 112 156" fill="none" xmlns="http://www.w3.org/2000/svg">
<g clip-path="url(#clip0_6_2035)">
<path d="M5.07928 96.9306C5.69126 97.4616 6.27475 98.024 6.82714 98.6167C7.71779 99.6071 8.65005 100.596 9.55186 101.553C12.0717 104.079 14.3714 106.816 16.4261 109.732C18.5132 113.036 20.412 116.456 22.1133 119.975C23.0624 121.848 24.0445 123.781 25.0716 125.654L25.6623 126.731C28.0152 131.019 30.4488 135.454 33.1332 139.637C34.6034 141.793 36.4181 143.693 38.5048 145.261C42.3648 148.221 46.6466 150.585 51.2075 152.274C56.0598 154.215 61.2382 155.211 66.4641 155.209C72.3488 155.138 78.1751 154.042 83.6831 151.969C88.6175 150.085 93.0944 147.173 96.8158 143.424C100.537 139.677 103.419 135.179 105.267 130.231C110.292 117.16 112.264 102.846 111.298 86.4745C111.048 83.6424 110.33 80.8713 109.175 78.2735C108.145 75.6574 106.191 73.5092 103.684 72.2359C101.177 70.9626 98.2899 70.6528 95.5701 71.3649C94.2528 71.7436 92.9874 72.2838 91.802 72.9729C91.336 73.2177 90.8562 73.4698 90.3686 73.7061C88.8478 70.2439 86.785 68.1055 84.0677 67.1735C82.0036 66.5297 79.8901 66.0551 77.7485 65.7539C76.8395 65.599 75.9016 65.4402 74.9492 65.2538C74.9492 65.1567 74.9492 65.053 74.9532 64.9447C74.9604 64.3769 74.9702 63.6701 74.9427 62.9586C74.8377 60.2755 74.7399 57.5915 74.6493 54.9066C74.413 48.1838 74.1695 41.2312 73.7521 34.4026C73.3301 27.496 71.5573 21.8364 68.332 17.0983C65.4736 12.8977 60.8329 11.782 56.7806 14.32C54.9331 15.4668 53.379 17.0293 52.242 18.8829C51.2674 20.6697 50.4499 22.5379 49.799 24.4663C49.5726 25.0774 49.3463 25.6898 49.1093 26.2975C49.0056 26.1315 48.901 25.9621 48.794 25.7895C48.2506 24.9094 47.6888 23.9984 47.0266 23.13C44.4117 19.7033 40.9746 18.9426 37.0838 20.9274C35.8293 21.5454 34.724 22.4284 33.844 23.5154C32.9642 24.6023 32.3305 25.8673 31.9872 27.223C31.5517 28.7545 31.2722 30.3261 31.153 31.9138C31.0874 32.9705 31.0086 34.0272 30.9344 35.0839C30.6489 39.1125 30.3542 43.279 30.3752 47.3811C30.414 54.967 30.5901 62.677 30.7601 70.1336C30.8376 73.5348 30.911 76.9359 30.9806 80.3364C31.0022 81.4522 30.9961 82.5679 30.9902 83.6916C30.9902 84.0854 30.9888 84.4779 30.9857 84.8697C30.817 84.7319 30.6518 84.5901 30.4877 84.4477C30.1838 84.1852 29.8806 83.9266 29.5603 83.6896C23.0691 78.8984 16.0474 77.1492 8.6853 78.4855C7.00192 78.7356 5.41351 79.4221 4.07779 80.4768C2.74207 81.5309 1.70555 82.9171 1.07171 84.4963C0.463533 86.1804 0.300102 87.9926 0.597082 89.7581C0.894064 91.5243 1.64142 93.1835 2.76704 94.5756C3.46288 95.4308 4.23696 96.2191 5.07928 96.9306ZM36.5752 67.4498C36.5325 65.6056 36.4595 63.7318 36.3887 61.9203C36.2528 58.4417 36.1119 54.8502 36.188 51.3243C36.314 45.4514 36.6979 39.482 37.0694 33.7089L37.2517 30.8558C37.4131 28.3112 38.0231 25.8414 41.333 24.9698C43.451 26.4997 44.7648 28.831 45.347 32.091C46.197 36.7033 46.7942 41.3587 47.1355 46.0362C47.591 52.725 47.9344 59.5358 48.2659 66.1201C48.4361 69.495 48.611 72.8692 48.7908 76.2435C48.8314 76.9503 48.9919 77.6447 49.2654 78.2978C49.5036 78.9627 49.9847 79.5127 50.6121 79.8376C51.2395 80.1618 51.9665 80.2366 52.6468 80.0463C53.2896 79.9616 53.874 79.6295 54.2761 79.1208C54.6782 78.6122 54.8665 77.967 54.801 77.3218C54.7866 76.4115 54.807 75.4808 54.826 74.5803C54.8958 72.9053 54.8626 71.2271 54.7273 69.556C53.7678 60.1363 54.2918 50.5637 54.7991 41.306L54.9728 38.0289C55.0695 35.1351 55.3115 32.248 55.6981 29.3784C56.1328 26.9957 56.8484 24.6729 57.8298 22.4586C58.3838 21.4243 59.1744 20.5355 60.137 19.8648C60.3263 19.679 60.5562 19.5399 60.8087 19.4586C61.0612 19.3772 61.3291 19.3558 61.5913 19.3961C61.8346 19.4803 62.0548 19.6199 62.2349 19.8039C62.4148 19.9878 62.5496 20.2111 62.6284 20.4561C62.8962 21.0783 63.1862 21.6999 63.477 22.3227C64.3941 24.0687 65.0684 25.9318 65.481 27.8603C66.4733 33.7011 67.1047 39.5974 67.3731 45.5158C67.8011 58.3544 67.4729 68.1777 66.3079 77.3684C66.2823 77.5975 66.2711 77.8285 66.2724 78.0589C66.2724 78.1744 66.2724 78.2893 66.2646 78.4041C66.1477 81.0872 66.4267 82.3638 68.3904 82.8403C70.2991 83.2998 72.9783 82.2903 73.7724 80.0968C74.3336 78.3726 74.6782 76.5854 74.7976 74.7759C74.984 72.8226 75.5583 71.5382 76.5041 70.9586C77.4499 70.3791 78.8531 70.4493 80.6738 71.1687C81.7929 71.5572 82.7892 72.2359 83.5617 73.1337C84.3342 74.0323 84.8553 75.1192 85.0713 76.2842C85.3286 77.8318 85.4782 79.3952 85.5209 80.9632C85.5484 81.506 85.5753 82.0475 85.6108 82.5876C85.7053 84.0073 86.0827 85.6973 88.1823 86.1679C90.0122 86.5788 91.0348 85.3961 91.7922 84.1858C92.1105 83.6785 92.4137 83.1586 92.7176 82.6388C93.3372 81.5093 94.0441 80.4302 94.8323 79.4109C96.25 77.6822 97.8745 76.8361 99.3965 77.0258C100.919 77.2155 102.296 78.4442 103.249 80.4808C105.593 85.6783 106.453 91.4226 105.735 97.0782C105.013 103.834 103.995 110.899 102.622 118.676C101.499 124.492 99.0854 129.983 95.5589 134.743C92.0803 139.612 86.7909 143.178 79.8311 145.343C66.7398 149.412 54.5319 147.246 42.5117 138.724C41.3399 137.926 40.3179 136.928 39.4925 135.775C37.7125 133.142 35.6496 129.999 33.8479 126.664C31.3538 122.043 28.8764 117.143 26.2641 111.684C22.0439 102.864 16.7984 96.1075 10.2284 91.0281C10.0633 90.9001 9.90734 90.761 9.76176 90.6114C9.62353 90.4689 9.48321 90.3272 9.34098 90.1847C7.98892 88.8242 6.71189 87.539 7.5415 85.4913C8.3291 83.5419 10.3361 83.2367 12.0833 83.2367C12.1778 83.2367 12.2709 83.2367 12.3634 83.2367C19.9467 83.368 25.2546 86.1043 28.5914 91.6103C29.1017 92.564 29.4823 93.5819 29.723 94.6367C29.8129 94.9609 29.9028 95.2851 29.9993 95.6035C30.8479 98.4139 32.3766 98.8851 33.497 98.7821C35.2888 98.6213 36.417 97.4865 36.8501 95.4092C37.0272 94.5074 37.102 93.5878 37.0732 92.669C36.9163 83.4054 36.7504 75.1546 36.5752 67.4498Z" fill="black"/>
<path d="M2.87079 21.1728C3.25136 21.195 3.63246 21.1381 3.9899 21.0056C4.34734 20.8731 4.67339 20.6678 4.94749 20.4029C5.89188 19.5171 6.78614 18.5792 7.62605 17.5938L7.97437 17.2C9.26276 15.7488 10.5343 14.2838 11.8109 12.8196L13.2507 11.1669L13.4574 11.2509C13.4574 11.5183 13.4558 11.7856 13.4523 12.053C13.4464 12.7933 13.4406 13.533 13.4623 14.272L13.6071 19.1342C13.8198 26.2502 14.0389 33.6077 14.3093 40.8432C14.3847 42.4352 14.6445 44.0131 15.0832 45.5452C15.2286 46.2186 15.6052 46.8198 16.1475 47.2444C16.6899 47.6691 17.3639 47.8904 18.0524 47.87C18.2073 47.87 18.362 47.861 18.5159 47.8431C19.2189 47.7884 19.8771 47.4761 20.3641 46.9661C20.851 46.4559 21.1324 45.7841 21.1544 45.0792C21.2947 44.0606 21.3452 43.0317 21.3053 42.0043C21.174 39.8147 21.0211 37.6252 20.8682 35.4363C20.6057 31.6499 20.3301 27.7342 20.1798 23.8808C20.0485 20.5617 20.0812 17.2846 20.1141 13.8146C20.1259 12.5706 20.1351 11.3137 20.1416 10.0439L21.1307 11.2338C22.4433 12.8091 23.7135 14.3396 24.9933 15.8597L25.3642 16.3034C25.952 17.0413 26.5877 17.7397 27.2675 18.3938C28.6793 19.694 30.0898 19.8601 31.3506 18.8762C32.6521 17.8589 32.8292 16.3743 31.8368 14.8069C31.0911 13.6665 30.2559 12.5871 29.339 11.5791C27.6279 9.64682 25.8976 7.73163 24.1675 5.81646C23.1134 4.64949 22.0604 3.48098 21.0085 2.31096C19.5646 0.696367 18.5387 0.0347775 17.4807 0.0262451H17.4606C16.4485 0.0262451 15.4573 0.630077 14.1519 2.03989C11.4163 4.99669 8.77458 8.12674 6.21946 11.1538C5.27127 12.2774 4.32094 13.3989 3.36882 14.5182C3.21129 14.7026 3.0455 14.8864 2.87944 15.0708C2.2279 15.7101 1.69435 16.4595 1.30398 17.2846C0.952179 18.1766 0.910193 19.6002 1.45364 20.3458C1.61671 20.5772 1.82766 20.7708 2.07216 20.9135C2.31666 21.0562 2.5891 21.1446 2.87079 21.1728Z" fill="black"/>
</g>
<defs>
<clipPath id="clip0_6_2035">
<rect width="111.577" height="155.552" fill="white"/>
</clipPath>
</defs>
</svg>
