<svg width="112" height="152" viewBox="0 0 112 152" fill="none" xmlns="http://www.w3.org/2000/svg">
<g clip-path="url(#clip0_6_2038)">
<path d="M108.874 74.3362C107.414 70.4802 104.389 68.0307 100.124 67.251C98.393 66.8907 96.6012 66.9432 94.8941 67.4046C93.1869 67.866 91.613 68.7232 90.299 69.9066C86.1247 63.1654 84.3421 62.2406 74.6178 61.6151C74.6178 61.4254 74.6211 61.2338 74.6231 61.0415C74.6309 60.3851 74.6382 59.6999 74.6113 59.0193C74.5076 56.3471 74.4104 53.6749 74.3198 51.0028C74.0836 44.2681 73.8387 37.3037 73.4285 30.4627C73.0072 23.4281 71.1852 17.67 67.8588 12.861C65.2882 9.14418 61.171 8.01069 57.1135 9.90357C54.7473 10.9314 52.8321 12.7796 51.7208 15.1077C50.8991 16.8712 50.2114 18.646 49.4836 20.5257C49.2499 21.1291 49.0134 21.7349 48.774 22.3431C48.6637 22.1613 48.5554 21.9802 48.4458 21.7997C47.9549 20.978 47.491 20.2022 46.9502 19.4507C44.1975 15.6222 40.3866 14.83 36.2123 17.2191C32.2821 19.4723 31.3516 23.3539 30.9801 26.4833C30.694 28.8888 30.6485 31.356 30.6045 33.7418L30.5824 34.91C30.543 36.7767 30.5008 38.6433 30.4561 40.5099C30.3084 46.9387 30.1551 53.5868 30.1577 60.1265C30.1577 64.9874 30.3086 69.7576 30.4661 74.8081C30.5282 76.7915 30.5877 78.7947 30.6446 80.8169L30.5257 80.7178C30.08 80.3463 29.6957 80.0247 29.2835 79.7221C22.6302 74.833 15.5003 73.0931 8.09482 74.5482C6.47092 74.8232 4.94456 75.5097 3.66102 76.5421C2.37748 77.5739 1.37959 78.9181 0.762301 80.4447C0.157889 82.0652 -0.0283837 83.8117 0.221017 85.5235C0.470418 87.2345 1.14733 88.8557 2.18907 90.236C3.2523 91.6005 4.46108 92.8456 5.7938 93.9482L6.23734 94.342C11.1231 98.5872 15.1901 103.692 18.2367 109.402C22.8435 118.275 27.6714 126.98 32.5854 135.273C34.2438 137.857 36.4276 140.063 38.9946 141.748C42.5274 144.155 46.28 146.222 50.2027 147.921C55.2047 150.122 60.611 151.254 66.0756 151.246C71.959 151.166 77.7833 150.062 83.2867 147.982C88.2244 146.106 92.7058 143.202 96.4345 139.461C100.163 135.72 103.054 131.228 104.913 126.285C109.936 113.235 111.917 98.9232 110.97 82.5312C110.812 79.7772 109.871 76.9648 108.874 74.3362ZM36.2411 63.5067C36.201 61.8159 36.123 60.099 36.0482 58.4378C35.9169 55.4731 35.7746 52.4073 35.8513 49.4026C36.0305 42.0241 36.4736 34.5261 36.9016 27.2742L36.9224 26.9119C37.0799 24.2432 37.6911 21.6848 41.0351 20.9996C43.1052 22.4436 44.404 24.7407 45.0033 28.031C45.8663 32.6408 46.4679 37.2958 46.805 41.9735C47.25 48.5146 47.5867 55.1745 47.9116 61.6151C48.0897 65.1383 48.2735 68.6608 48.4635 72.1821C48.514 73.0918 48.6153 74.1045 49.1784 74.6105C50.0023 75.387 51.0579 75.8707 52.1835 75.9888C52.4683 76.0079 52.7539 75.9672 53.0216 75.8681C53.2893 75.7696 53.5332 75.6154 53.7372 75.4159C53.9893 75.1435 54.1837 74.8225 54.3089 74.4727C54.4342 74.1235 54.4878 73.752 54.4663 73.3812C54.4571 72.4938 54.4749 71.6032 54.4926 70.7138C54.5586 69.0146 54.53 67.3127 54.4067 65.6161C53.2377 52.9062 54.0786 40.7068 55.3047 26.079C55.4917 23.8324 56.3264 21.5785 57.1324 19.3995L57.4679 18.4891C57.9323 17.5362 58.6255 16.7133 59.4859 16.0941C60.1712 15.5363 60.6838 15.3118 61.0967 15.3853C61.5292 15.4627 61.9638 15.89 62.4619 16.7308C65.315 21.5411 66.0106 26.9985 66.4392 31.736C67.4342 42.7237 67.444 54.7734 66.47 69.6663C66.4169 70.4874 66.3151 71.3249 66.216 72.1348C66.0881 73.185 65.9535 74.2738 65.9246 75.3548C65.8839 76.7528 66.2331 77.7616 66.961 78.3543C67.6889 78.947 68.7744 79.09 70.1619 78.7606C71.1727 78.5577 72.0922 78.0379 72.7873 77.2766C73.4817 76.5152 73.9149 75.5517 74.0238 74.5265C74.182 73.542 74.2693 72.5411 74.352 71.573C74.4117 70.8812 74.4715 70.1894 74.5561 69.5016C74.7944 67.5713 75.8274 66.6564 77.807 66.6222C79.373 66.6301 80.8931 67.1526 82.1322 68.1095C83.372 69.0664 84.262 70.4047 84.6657 71.9176C84.9302 73.0957 85.093 74.2942 85.1527 75.4999C85.1881 75.9527 85.2229 76.405 85.2695 76.8539C85.305 77.2103 85.3109 77.587 85.3161 77.9519C85.2991 78.6116 85.3653 79.2712 85.513 79.9144C85.6449 80.4749 85.9305 80.9869 86.3387 81.3931C86.7469 81.7994 87.2608 82.0829 87.8214 82.2116C88.3746 82.3159 88.9463 82.2628 89.4714 82.0593C89.9958 81.8552 90.4533 81.508 90.7906 81.0577C91.4391 80.2091 92.0193 79.3112 92.526 78.3713C92.8325 77.8371 93.1489 77.2844 93.4862 76.7666C94.726 74.8593 96.2704 72.8443 99.0369 73.0977C101.784 73.349 102.678 75.6771 103.549 77.9454C105.233 82.4347 105.89 87.2437 105.472 92.0199L105.432 92.5482C104.815 100.63 104.176 108.987 101.654 116.812C100.157 121.706 97.9933 126.371 95.2222 130.674C91.9537 135.559 86.8323 139.043 79.5666 141.325C66.5271 145.421 54.3174 143.271 42.2395 134.752C41.0623 133.963 40.0357 132.969 39.2084 131.818C37.1716 128.88 35.285 125.842 33.5555 122.715C30.9597 117.902 28.427 112.905 25.8108 107.439C21.6759 98.7959 16.4906 92.1308 9.95679 87.0632C9.79119 86.9372 9.63505 86.7987 9.48954 86.6497C9.32677 86.4804 9.1615 86.3124 8.99085 86.1444C7.66243 84.8126 6.40788 83.5551 7.21257 81.5454C8.06975 79.4044 10.2116 79.2049 12.3322 79.1826H12.4793C19.0263 79.1826 28.5668 83.4192 29.6931 91.4856C29.9851 93.5774 31.1861 94.7673 32.9963 94.7673H33.0995C34.8801 94.7233 36.0615 93.5813 36.517 91.4659C36.7026 90.5654 36.7841 89.6466 36.7602 88.727C36.5765 78.8334 36.413 70.8189 36.2411 63.5034V63.5067Z" fill="black"/>
<path d="M15.0457 48.9793C15.3327 49.2982 15.6803 49.5568 16.0683 49.74C16.4563 49.9231 16.8771 50.027 17.3057 50.0458C17.3609 50.0458 17.4172 50.0458 17.473 50.0399C17.9633 49.9785 18.4344 49.8118 18.8542 49.5512C19.2741 49.2906 19.6327 48.9424 19.9054 48.5303C22.1869 45.5414 24.4112 42.4343 26.564 39.4295L28.0196 37.3982C28.458 36.9215 28.7105 36.303 28.7311 35.6556C28.5401 34.3101 28.1839 33.5015 27.6417 33.1852C26.9421 32.7762 25.6667 32.981 24.885 33.4044C24.4137 33.7312 24.0434 34.1834 23.8159 34.7098C23.6966 34.9365 23.5638 35.1556 23.4181 35.3662C22.4573 36.6933 21.4898 38.0164 20.3701 39.5464L19.3087 40.9989C19.2673 40.6195 19.2281 40.271 19.1914 39.9487C19.0772 38.9465 18.9871 38.1556 18.9648 37.3824C18.813 32.263 18.6668 27.1436 18.5264 22.0241C18.3636 16.1735 18.1962 10.3232 18.0242 4.47303C18.0528 3.4297 17.8745 2.39105 17.4993 1.41712C17.2879 1.03593 16.9841 0.71387 16.6161 0.480413C16.248 0.246955 15.8274 0.109562 15.3924 0.0808105C14.5543 0.139225 13.7752 1.11389 13.4811 1.62124C13.2287 2.18034 13.1224 2.79443 13.1725 3.40582C13.1725 3.5233 13.1726 3.63948 13.168 3.75171L13.0533 8.06776C12.9135 13.2574 12.7683 18.6236 12.6889 23.9039C12.6358 27.3595 12.6482 30.7954 12.6614 34.4328C12.6666 35.8604 12.6719 37.3135 12.6732 38.8021C12.221 38.426 11.7935 38.0657 11.3826 37.7204C10.0968 36.6388 8.98698 35.7055 7.81345 34.8326C7.51875 34.5918 7.17759 34.4147 6.81102 34.3123C6.44448 34.21 6.06073 34.1847 5.68391 34.2379C5.40895 34.2966 5.14967 34.4137 4.92406 34.5814C4.69845 34.7492 4.51169 34.9636 4.37636 35.2099C4.19023 35.6559 4.12008 36.1417 4.17254 36.622C4.22499 37.1023 4.39834 37.5615 4.67632 37.9567C8.73383 42.4651 11.9307 45.8663 15.0457 48.9793Z" fill="black"/>
</g>
<defs>
<clipPath id="clip0_6_2038">
<rect width="111.577" height="151.614" fill="white"/>
</clipPath>
</defs>
</svg>
