<svg width="112" height="158" viewBox="0 0 112 158" fill="none" xmlns="http://www.w3.org/2000/svg">
<g clip-path="url(#clip0_6_2044)">
<path d="M4.84804 98.7683C5.45708 99.2986 6.03817 99.8598 6.58919 100.451C7.48247 101.445 8.41716 102.438 9.32159 103.397C11.8407 105.924 14.1392 108.66 16.1926 111.577C18.2826 114.888 20.1838 118.314 21.8865 121.839C22.8343 123.71 23.8148 125.646 24.84 127.513L25.464 128.651C27.8065 132.924 30.2284 137.342 32.8997 141.509C34.3695 143.667 36.182 145.57 38.2658 147.144C42.0303 150.045 46.2033 152.373 50.6491 154.053C55.6042 156.073 60.9042 157.113 66.2555 157.113C72.1304 157.044 77.9482 155.947 83.445 153.872C88.382 151.987 92.8608 149.073 96.5835 145.323C100.307 141.573 103.189 137.074 105.038 132.123C110.061 119.058 112.036 104.733 111.077 88.328C110.826 85.4939 110.111 82.7202 108.957 80.1191C107.93 77.5017 105.98 75.3509 103.475 74.0736C100.971 72.7964 98.0846 72.4813 95.3628 73.1876C94.0435 73.5656 92.7761 74.1084 91.5921 74.8022C91.1274 75.0476 90.6496 75.3003 90.1639 75.5366C87.3784 69.4911 82.3299 66.9169 74.7262 67.6802C74.7262 67.3914 74.7301 67.1171 74.7327 66.8539C74.74 66.1011 74.7465 65.4519 74.7209 64.791C74.6159 62.096 74.5175 59.4009 74.4262 56.7056C74.1906 49.9854 73.9458 43.0354 73.5336 36.2082C73.1096 29.1735 71.2798 23.4097 67.941 18.598C65.3066 14.8005 60.989 13.6754 57.1974 15.7934C55.1894 16.8849 53.4802 18.4526 52.2198 20.3589C51.1663 22.1935 50.291 24.1247 49.6056 26.1262C49.3673 26.7556 49.1225 27.4021 48.8672 28.0381L48.5823 27.5786C48.0678 26.7444 47.4836 25.7987 46.8181 24.9238C44.2026 21.4852 40.7666 20.716 36.8804 22.7014C33.9663 24.1893 32.1864 26.4924 31.7316 29.3613C31.3903 31.5206 31.2308 33.7377 31.0753 35.882C30.9761 37.2557 30.8743 38.6767 30.7253 40.0642C29.7959 48.7062 30.0033 57.4912 30.2055 65.9895C30.3 69.9702 30.397 74.0861 30.376 78.1318C30.3648 80.1848 30.5632 82.2667 30.7548 84.2784C30.8336 85.1034 30.9116 85.9284 30.9765 86.7534L30.9237 86.7593L30.8487 86.7678C30.6518 86.609 30.4548 86.4443 30.2645 86.2802C29.9652 86.0255 29.6668 85.7709 29.3518 85.5385C22.8672 80.7414 15.8468 78.9843 8.48004 80.3147C6.79469 80.5635 5.20378 81.2487 3.86546 82.3028C2.52715 83.3569 1.48804 84.743 0.851371 86.3229C0.240496 88.007 0.0742882 89.8205 0.368729 91.5873C0.663172 93.3549 1.40833 95.0161 2.53227 96.4114C3.22898 97.2673 4.00442 98.0569 4.84804 98.7683ZM36.8653 94.5455C36.7702 91.015 36.6502 87.4846 36.5307 83.9541C36.2735 76.3977 36.0055 68.5847 36.0055 60.9022C36.0055 53.5296 36.3756 46.0296 36.7339 38.7764C36.8346 36.7405 36.9327 34.7058 37.0282 32.6725C37.1398 30.2506 37.7142 27.6614 41.0976 26.7478C43.2058 28.2501 44.5189 30.5742 45.1096 33.8454C45.967 38.4605 46.5666 43.1199 46.9059 47.8018C47.3496 54.3278 47.6857 60.9731 48.01 67.3993C48.1889 70.9468 48.3744 74.4937 48.566 78.0399C48.6205 79.0152 48.7451 79.9853 49.2918 80.4683C50.1224 81.2389 51.1833 81.7154 52.3111 81.8237C52.5928 81.8355 52.8737 81.7902 53.1376 81.6904C53.4014 81.5913 53.6425 81.439 53.8462 81.2441C54.0979 80.9671 54.2916 80.6429 54.4157 80.2898C54.5397 79.9367 54.5915 79.5626 54.5682 79.1891C54.5571 78.288 54.5755 77.3848 54.5932 76.4824C54.6573 74.7943 54.6282 73.1036 54.5063 71.4181C53.2442 57.6547 54.4408 43.3438 55.4075 31.8441C55.5952 29.6014 56.4314 27.3516 57.2394 25.1758L57.5813 24.2517C58.0464 23.2983 58.7424 22.4764 59.6061 21.8606C60.2854 21.3113 60.7929 21.0907 61.1992 21.1629C61.6298 21.241 62.0674 21.6762 62.5734 22.5334C65.4128 27.3358 66.1111 32.8057 66.5417 37.5563C67.5478 48.6392 67.5564 60.3476 66.5699 75.5208C66.5167 76.3426 66.415 77.1801 66.3159 77.99C66.1846 79.0401 66.0533 80.1323 66.0238 81.2146C65.9851 82.6034 66.3362 83.6069 67.0667 84.1976C67.8097 84.7995 68.8946 84.9314 70.2887 84.5914C71.2981 84.3814 72.2144 83.8557 72.9049 83.0904C73.5953 82.3244 74.0246 81.359 74.1302 80.3338C74.2825 79.3657 74.3685 78.3766 74.4512 77.4209C74.5116 76.7141 74.5733 76.0065 74.6606 75.3036C74.9008 73.3792 75.9411 72.4708 77.9317 72.4452C79.442 72.4617 80.9076 72.9559 82.1192 73.8577C83.3308 74.7588 84.226 76.021 84.675 77.463C84.9841 78.664 85.1816 79.8914 85.2657 81.1286C85.2958 81.4338 85.326 81.739 85.3602 82.0416C85.4055 82.5489 85.4212 83.0582 85.4081 83.5675C85.4081 83.9502 85.4035 84.3335 85.4238 84.7142C85.519 86.5224 86.3585 87.6263 87.9179 87.9959C89.2962 88.324 90.4251 87.7799 91.3591 86.3307C91.5403 86.0505 91.7017 85.7578 91.8625 85.4644C91.9728 85.2629 92.0844 85.0607 92.2025 84.8632C92.3377 84.6348 92.4716 84.4037 92.6061 84.176C92.9717 83.5479 93.3498 82.8987 93.7672 82.3008C95.0057 80.5287 96.5422 78.6621 99.1597 78.924C101.641 79.1714 102.573 81.0557 103.539 83.4934C105.307 88.0753 106.003 93.0004 105.573 97.8928L105.533 98.429C104.915 106.516 104.276 114.877 101.752 122.706C100.255 127.605 98.0879 132.272 95.3116 136.576C92.0299 141.47 86.9026 144.954 79.6448 147.224C66.5745 151.311 54.3653 149.155 42.3202 140.626C41.1448 139.833 40.1203 138.836 39.2946 137.683C37.2614 134.741 35.3775 131.699 33.65 128.568C31.045 123.733 28.5104 118.732 25.9053 113.28C21.7665 104.626 16.5771 97.9571 10.0433 92.8915C9.96507 92.8337 9.89103 92.7707 9.82153 92.7031C9.62922 92.5062 9.42779 92.3132 9.23089 92.119C7.82633 90.7551 6.49975 89.4674 7.33525 87.3618C8.14124 85.3272 10.2017 85.0253 12.3315 85.0253H12.4574C15.059 84.9806 17.6426 85.4657 20.0506 86.4515C22.4585 87.4373 24.6404 88.9036 26.4636 90.7597C28.1829 92.4622 29.3348 94.6544 29.7613 97.0363C30.3159 100.092 31.9525 100.678 33.2337 100.646C34.9566 100.593 36.2963 99.1805 36.7295 96.9601C36.8613 96.1627 36.9069 95.3528 36.8653 94.5455Z" fill="black"/>
<path d="M87.0796 10.6406C85.8771 9.13892 84.105 9.42042 82.9656 10.3176C80.9966 11.8692 79.147 13.6289 77.3592 15.3308L76.7376 15.9215C76.4482 16.2568 76.246 16.6575 76.1469 17.0891C76.0695 17.3214 75.9848 17.58 75.868 17.859L75.8096 17.9982L75.8752 18.134C75.9533 18.2975 76.0222 18.4923 76.0951 18.6958C76.248 19.3103 76.5775 19.8666 77.0422 20.2966C77.3533 20.4891 77.7156 20.5823 78.0812 20.5638C78.6108 20.5753 79.1326 20.4331 79.5835 20.1542C82.0008 18.3913 84.3039 16.5562 86.4298 14.6994C87.8435 13.4635 88.0929 11.9087 87.0796 10.6406Z" fill="black"/>
<path d="M50.9176 2.43571C50.7421 1.94282 50.4552 1.49695 50.0796 1.13273C49.704 0.768498 49.2496 0.495653 48.7515 0.335378C48.528 0.268792 48.2929 0.250982 48.0619 0.28314C47.8309 0.315298 47.6094 0.396712 47.4126 0.521815C47.1245 0.748008 46.8863 1.03132 46.713 1.35402C46.5396 1.67672 46.4349 2.03179 46.4053 2.39693C46.3475 2.7717 46.2866 3.14649 46.2255 3.5206C46.0562 4.56024 45.8802 5.63528 45.7811 6.70513C45.619 8.14585 45.5704 9.59715 45.6359 11.0455C45.668 11.6994 45.9575 12.3141 46.4409 12.7557C46.9243 13.1973 47.5625 13.43 48.2167 13.4031C48.2895 13.4031 48.3611 13.4083 48.432 13.4083C49.098 13.4625 49.7598 13.2633 50.2854 12.8507C50.8108 12.4382 51.1613 11.8424 51.2667 11.1827C51.3876 10.4995 51.4592 9.80855 51.4807 9.1152C51.4945 8.85595 51.5075 8.60916 51.5266 8.38141V8.35254V8.32307C51.4721 7.70939 51.4329 7.11074 51.3955 6.5266C51.3456 5.15238 51.1858 3.78442 50.9176 2.43571Z" fill="black"/>
<path d="M83.0056 40.0065C84.1325 40.2022 85.2745 40.3069 86.4185 40.3195C86.9193 40.3386 87.4332 40.3583 87.9655 40.3924H87.9839H88.0023C88.3613 40.376 88.7406 40.3681 89.1331 40.3602C90.1498 40.3567 91.1645 40.2946 92.1739 40.1744C93.2031 40.0333 95.3428 39.738 95.1071 37.4284C94.8892 35.2887 92.7246 35.2625 92.0138 35.25C89.4383 35.2159 87.4595 35.2388 85.6007 35.3255C84.546 35.3154 83.5018 35.5311 82.5383 35.9582C81.8504 36.3192 80.8908 37.3713 80.9525 38.1983C81.011 38.9786 82.239 39.8509 83.0056 40.0065Z" fill="black"/>
<path d="M28.9611 17.2205L29.213 17.0832L29.1187 16.8128C29.0058 16.4893 28.9217 16.1296 28.8377 15.7831C28.7431 15.0102 28.4194 14.2833 27.9083 13.6958C26.0484 12.0738 24.0315 10.6414 21.8872 9.41986C21.1121 8.97749 19.5559 9.326 18.8234 9.92065C18.6037 10.088 18.423 10.3011 18.2937 10.5452C18.1644 10.7893 18.0895 11.0586 18.0745 11.3344C18.0806 11.7189 18.1668 12.0979 18.3276 12.4472C18.4884 12.7965 18.7202 13.1085 19.0083 13.3631C20.2947 14.6154 21.6927 15.7785 23.0447 16.9028C23.8599 17.6462 24.9171 18.0687 26.02 18.092C27.0578 18.0515 28.0688 17.7519 28.9611 17.2205Z" fill="black"/>
<path d="M20.9851 36.1182C18.2285 36.2423 15.2651 36.4123 12.3063 36.812C11.8338 36.9486 11.405 37.206 11.0622 37.5587C10.7195 37.9115 10.4747 38.3474 10.3517 38.8237C10.3149 39.0576 10.3286 39.2968 10.3921 39.5249C10.4556 39.7531 10.5675 39.9649 10.72 40.1462C10.9771 40.4021 11.2845 40.602 11.6227 40.7333C11.9609 40.8647 12.3226 40.9247 12.6851 40.9094C13.6223 40.9337 14.5739 40.9285 15.4947 40.9226L16.3796 40.918L16.3902 41.2593L16.743 41.231C17.1933 41.1949 17.6483 41.1766 18.1038 41.1583C19.2279 41.1558 20.348 41.0236 21.4418 40.7645C21.935 40.5712 22.3755 40.2637 22.7267 39.8672C23.0778 39.4707 23.3298 38.9966 23.4622 38.4837C23.5201 38.1999 23.5119 37.9066 23.4384 37.6266C23.3649 37.3465 23.228 37.0871 23.0382 36.8684C22.7723 36.5999 22.4505 36.3934 22.0956 36.2637C21.7407 36.1341 21.3615 36.0844 20.9851 36.1182Z" fill="black"/>
</g>
<defs>
<clipPath id="clip0_6_2044">
<rect width="111.577" height="157.521" fill="white"/>
</clipPath>
</defs>
</svg>
