<svg width="147" height="156" viewBox="0 0 147 156" fill="none" xmlns="http://www.w3.org/2000/svg">
<g clip-path="url(#clip0_6_2051)">
<path d="M109.307 79.3092L109.193 78.9245C108.747 77.4104 107.96 76.0189 106.893 74.8552C105.827 73.6922 104.507 72.7884 103.038 72.2135C98.477 70.2911 94.2049 70.9061 90.3318 74.0381C87.4787 67.8331 82.3842 65.1723 74.7622 65.9146C74.7622 65.6022 74.7668 65.3088 74.7694 65.0292C74.7766 64.2613 74.7825 63.5984 74.7563 62.9322C74.6506 60.2465 74.5528 57.5606 74.4622 54.8744C74.226 48.1443 73.9811 41.185 73.5572 34.3493C73.1299 27.4577 71.3387 21.7956 68.0833 17.0463C65.303 12.9902 60.7672 11.8718 56.7944 14.2648C54.9214 15.3719 53.3363 16.9061 52.169 18.7423C51.1657 20.5363 50.3244 22.4163 49.6552 24.3599C49.4071 25.0162 49.1564 25.6725 48.8899 26.34L48.7626 26.1333C48.3859 25.5164 47.9822 24.8567 47.5602 24.2096C45.7914 21.4989 43.1774 19.9434 40.386 19.9434H40.3648C37.5669 19.9513 34.9535 21.5225 33.1938 24.2536C32.4149 25.4113 31.8951 26.7238 31.6703 28.101C31.3703 30.4231 31.1951 32.7951 31.0245 35.0897C30.9405 36.2186 30.8563 37.3481 30.7579 38.4757C29.5765 52.0488 30.1674 65.8372 30.7332 79.1687L30.7633 79.8907C30.8165 81.1115 30.8028 82.3487 30.7883 83.6594C30.7844 84.0761 30.7797 84.5014 30.7771 84.9392L30.548 84.7423C30.0918 84.3538 29.6947 84.0203 29.2779 83.7165C22.5472 78.8668 15.4069 77.1807 8.05529 78.7027C6.48319 78.9948 5.00904 79.6754 3.76695 80.6822C2.52487 81.6897 1.55427 82.9912 0.943224 84.4686C0.328306 86.015 0.109697 87.6906 0.307078 89.3432C0.504461 90.9959 1.11169 92.5731 2.07355 93.931C3.26587 95.5463 4.65049 97.0099 6.19714 98.2898L6.52531 98.5838C11.3155 102.777 15.3084 107.801 18.3118 113.415C22.4566 121.346 27.064 129.669 32.8096 139.608C34.1455 141.73 35.8584 143.588 37.8635 145.093C42.1353 148.456 46.9385 151.08 52.0751 152.86C56.6183 154.539 61.4236 155.397 66.2672 155.395C72.081 155.326 77.8398 154.25 83.2867 152.216C87.3298 150.713 91.0748 148.506 94.348 145.697C100.336 140.726 104.5 133.917 107.077 124.881C110.432 113.168 111.866 100.99 111.324 88.8188C111.184 85.6093 110.229 82.4064 109.307 79.3092ZM42.2682 138.845C41.1006 138.04 40.0846 137.034 39.2669 135.875C37.5007 133.25 35.4508 130.109 33.638 126.747C31.121 122.077 28.6196 117.134 26.203 112.056C21.9368 103.086 16.633 96.2302 9.99156 91.0983C9.9149 91.0425 9.84283 90.9802 9.77621 90.9126C9.56356 90.6887 9.34172 90.4682 9.11987 90.247C7.85314 88.9921 6.65743 87.8061 7.29604 85.8299C7.98717 83.6928 9.91785 83.3404 11.9558 83.3404C12.0549 83.3404 12.1527 83.3404 12.2538 83.3404C19.404 83.448 24.7441 86.097 28.1242 91.2164C28.7641 92.325 29.2358 93.5228 29.524 94.7699C29.6225 95.1157 29.7209 95.4603 29.826 95.7996C30.2703 97.2331 30.9937 98.7243 32.9916 98.9153C34.6364 99.0767 36.0377 97.8474 36.5851 95.7957C36.8151 94.8985 36.9209 93.9744 36.8995 93.0489C36.7564 85.207 36.5855 77.0533 36.3906 68.8137C36.3473 66.9759 36.2718 65.1066 36.1989 63.3004C36.0591 59.8145 35.9142 56.212 35.9903 52.675C36.1321 46.067 36.5444 39.3513 36.9428 32.8568L37.0668 30.8399C37.2145 28.4207 37.8202 25.8465 41.159 25.0221C43.321 26.6545 44.6316 29.01 45.1665 32.2176C46.0546 37.5477 46.6376 42.3357 46.9494 46.8539C47.3963 53.3392 47.7368 59.9419 48.0649 66.3281C48.24 69.6918 48.4184 73.0556 48.6005 76.4186C48.6462 77.1275 48.8172 77.8219 49.1052 78.471C49.3587 79.1313 49.8536 79.6708 50.4897 79.9799C51.1258 80.2891 51.8556 80.3455 52.5314 80.1368C53.1691 80.0265 53.74 79.6754 54.1268 79.1569C54.5136 78.6384 54.6869 77.9906 54.6107 77.348C54.593 76.4173 54.6106 75.4656 54.6303 74.5448C54.6969 72.8882 54.6637 71.2296 54.5306 69.577C53.5697 60.0726 54.1047 50.4119 54.6232 41.0729L54.6979 39.7261C54.8948 36.0906 55.1923 32.4309 55.4542 29.3303C55.6109 26.4577 56.6069 23.6941 58.319 21.3821C59.331 20.0569 60.1822 19.4406 60.8936 19.4996C61.6051 19.5587 62.3449 20.3031 63.1306 21.7779C65.5301 26.2757 66.1497 31.2383 66.579 35.9364C67.5812 46.9077 67.591 58.5144 66.6111 73.5642C66.5547 74.4385 66.4451 75.3298 66.3388 76.1896C66.2436 76.9667 66.1419 77.77 66.0834 78.5668L66.0578 78.8773C65.9377 80.3212 65.7874 82.1183 67.9133 82.8586C69.8528 83.5353 72.4532 82.4241 73.4797 80.4847C73.8492 79.7555 74.1019 78.9731 74.2279 78.1658C74.4353 76.949 74.5403 75.7019 74.6447 74.4595C74.7819 72.8304 75.2814 71.7094 76.132 71.1286C76.9603 70.5615 78.1384 70.4991 79.6342 70.9415C82.5549 71.8052 84.3749 73.7113 84.898 76.4547C85.1632 78.0601 85.3155 79.682 85.3542 81.3084C85.3719 81.6818 85.3896 82.054 85.41 82.4241C85.4992 84.0597 85.8412 85.65 87.717 86.204C89.9052 86.8518 90.9731 85.3619 91.802 83.9166L92.0403 83.5012C92.7531 82.1754 93.565 80.9054 94.4687 79.7016C95.9731 77.8101 97.7681 76.8676 99.3913 77.115C100.923 77.348 102.202 78.6069 102.996 80.6592C104.422 84.1477 105.271 87.8442 105.512 91.605C105.932 101.721 104.083 111.563 102.217 119.856C100.97 125.189 98.6969 130.227 95.5222 134.69C92.0875 139.617 86.8277 143.233 79.8888 145.436C66.8697 149.573 54.2089 147.356 42.2682 138.845Z" fill="black"/>
<path d="M127.629 3.31975C125.04 2.37724 121.94 1.44851 118.622 1.73073C110.745 2.25918 103.357 5.73735 97.9308 11.4715C94.9524 14.5897 92.8468 18.4364 91.8249 22.6256C90.803 26.8148 90.9002 31.1991 92.1085 35.3386C94.5369 43.5553 100.806 49.4334 109.314 51.4654C111.15 51.876 113.007 52.1906 114.876 52.4079C115.48 52.4874 116.019 52.5576 116.466 52.6285L116.496 52.6331H116.526C124.665 52.4578 130.267 51.107 135.267 48.1154C141.605 44.3224 145.167 38.6229 145.854 31.1748C147.073 17.9495 135.852 6.30936 127.629 3.31975ZM128.913 43.1962C125.247 44.8234 121.295 45.7083 117.284 45.7999C116.797 45.7389 116.309 45.6824 115.821 45.626C114.782 45.5065 113.707 45.3825 112.663 45.2105C106.182 44.1407 101.383 40.4672 99.1497 34.8673C97.9925 31.8122 97.6276 28.5141 98.0877 25.2799C98.5478 22.0457 99.8185 18.9803 101.782 16.369C105.26 11.7786 109.63 9.28845 115.144 8.7555L115.513 8.71809C115.926 8.66709 116.341 8.63749 116.757 8.62949C117.073 8.62371 117.388 8.66152 117.694 8.74172C126.856 11.3553 132.957 16.1938 136.345 23.535C138.178 27.5078 138.445 31.48 137.11 35.0209C135.771 38.5789 132.937 41.4057 128.913 43.1962Z" fill="black"/>
<path d="M79.5936 28.5815C79.331 28.9663 79.1249 29.3861 78.9799 29.8286C78.6294 31.0979 78.4371 32.6581 80.0773 33.4575C80.6975 33.7894 81.4162 33.8894 82.1041 33.7393C82.7919 33.5892 83.4036 33.1989 83.8296 32.6384C84.3605 32.0213 84.8082 31.3372 85.1613 30.6038C87.5412 25.5861 88.0163 20.7626 86.5744 16.2667C84.2444 9.00501 79.2089 3.80085 72.3975 1.61393C68.636 0.468121 64.661 0.206756 60.7821 0.850229C56.9031 1.4937 53.2251 3.0246 50.0352 5.32353C49.2963 5.92728 48.6407 6.62598 48.0847 7.40151C47.8944 7.6437 47.7038 7.88655 47.5082 8.12348C47.0796 8.63871 46.6906 9.19075 46.4327 9.55633C46.3926 9.61278 46.3553 9.66653 46.3205 9.71445C45.147 9.67441 44.0004 9.60024 42.8898 9.52805C40.5027 9.30456 38.1013 9.28048 35.7102 9.45585C32.5939 9.79616 29.5959 10.8419 26.9442 12.5136C24.2924 14.1854 22.0562 16.4392 20.4054 19.1041C18.7568 21.607 17.6996 24.4524 17.3141 27.4247C16.9286 30.397 17.2251 33.418 18.1807 36.2587C18.6842 37.6581 19.4325 38.9567 20.391 40.0938C20.629 40.4213 20.9352 40.6934 21.2884 40.8914C21.6415 41.0894 22.0334 41.2087 22.437 41.241H22.4914C22.9294 41.2112 23.3563 41.0897 23.7442 40.8841C24.132 40.6786 24.4723 40.3935 24.7428 40.0478L24.8806 39.8981L24.8149 39.7065C24.6784 39.3218 24.5287 38.9399 24.379 38.5566C24.0335 37.7363 23.751 36.8909 23.5342 36.0277C23.4404 35.6011 23.332 35.1699 23.2237 34.736C22.7614 33.2791 22.5615 31.7518 22.6331 30.225C22.9141 27.5836 23.8009 25.0427 25.2244 22.8001C26.648 20.5574 28.5699 18.6735 30.8405 17.2951C32.9176 16.0462 35.2552 15.2938 37.6708 15.0967C40.0864 14.8994 42.5147 15.2629 44.7668 16.1584C48.464 17.6259 49.2471 17.0222 51.2851 13.5666C52.3352 11.7839 53.4869 9.97567 54.9834 9.15525C63.5814 4.4434 72.2413 5.63924 78.1411 12.3582C82.0135 16.7661 82.6862 22.6095 79.9421 27.9902C79.8351 28.189 79.7143 28.3859 79.5936 28.5815Z" fill="black"/>
<path d="M127.567 23.8776C126.371 23.6452 125.15 23.5844 123.938 23.6971L123.484 23.7168C122.573 23.7529 121.674 23.8566 120.634 23.9793C120.249 24.0239 119.842 24.0712 119.411 24.1178L119.13 20.3799C119.082 19.7604 119.041 19.1401 118.999 18.5192C118.901 17.0372 118.802 15.5047 118.605 14.0043C118.549 13.2969 118.223 12.6381 117.694 12.1651C117.165 11.6921 116.474 11.4413 115.765 11.4649C114.401 11.4314 113.512 12.1777 113.074 13.6879C113.041 13.8021 113.003 13.917 112.966 14.0318C112.844 14.3613 112.763 14.7042 112.724 15.0532C112.659 15.9878 112.584 16.923 112.512 17.8583C112.301 20.5657 112.082 23.3656 112.015 26.1282C111.952 26.8161 112.039 27.5095 112.27 28.1607C112.5 28.8119 112.87 29.4052 113.352 29.9001C114.217 30.6388 115.331 31.0208 116.467 30.9686C116.74 30.968 117.012 30.9525 117.283 30.9221C119.662 30.6596 122.206 30.3031 125.299 29.7918C126.354 29.7144 127.371 29.3661 128.253 28.7804C128.638 28.4243 128.945 27.9916 129.154 27.51C129.362 27.0285 129.467 26.5086 129.463 25.9838C129.351 25.5011 129.118 25.0548 128.786 24.6864C128.455 24.3182 128.035 24.0399 127.567 23.8776Z" fill="black"/>
</g>
<defs>
<clipPath id="clip0_6_2051">
<rect width="146.363" height="155.552" fill="white"/>
</clipPath>
</defs>
</svg>
