<svg width="113" height="158" viewBox="0 0 113 158" fill="none" xmlns="http://www.w3.org/2000/svg">
<g clip-path="url(#clip0_6_2059)">
<path d="M109.393 80.8688C108.801 79.2838 107.885 77.8392 106.702 76.6295C105.519 75.4192 104.097 74.4702 102.525 73.8427C100.91 73.2612 99.1904 73.0236 97.478 73.1463C95.7656 73.2684 94.0972 73.7476 92.5811 74.5529C92.2733 74.7058 91.9589 74.8443 91.5605 75.0202L91.3248 75.1245L91.3905 73.6248C91.4561 72.2465 91.5099 70.9686 91.5598 69.6868C91.6195 68.1437 91.6911 66.602 91.7567 65.0563C92.1374 56.6276 92.5312 47.9121 91.2225 39.3686C90.7355 35.5608 89.724 31.8387 88.2171 28.308C86.7075 24.9882 84.2896 22.8394 81.405 22.2552C78.395 21.6461 75.1606 22.7619 72.2989 25.3997C72.169 25.513 72.0305 25.6153 71.8835 25.7056C71.5264 25.0493 71.1766 24.3929 70.8287 23.7366C69.9368 22.0636 69.0146 20.3328 68.0065 18.6966C66.2376 15.8238 63.4122 14.6063 59.8305 15.1786C58.2655 15.4027 56.7769 15.9984 55.4893 16.9158C54.2017 17.8332 53.1527 19.0456 52.4297 20.4516C51.4588 22.3477 50.5974 24.2981 49.8502 26.293C49.5877 26.9592 49.3251 27.6254 49.0495 28.2883C48.93 28.0966 48.8102 27.902 48.6899 27.7041C48.144 26.7763 47.5467 25.8796 46.9007 25.0184C44.3626 21.7557 41.0179 21.0062 37.2295 22.8492C35.9626 23.4433 34.8396 24.3048 33.9375 25.3746C33.0355 26.4443 32.3761 27.6967 32.0044 29.0457C31.5464 30.5748 31.2603 32.15 31.1511 33.7424C31.0812 34.8228 31.008 35.9035 30.9319 36.9848C30.6398 41.2135 30.3373 45.5861 30.3445 49.8923C30.3589 58.7404 30.5034 67.7736 30.6432 76.5094C30.6979 79.9303 30.7504 83.3636 30.8007 86.8087C30.6872 86.7371 30.5789 86.6577 30.4765 86.5711C25.1464 81.9157 18.6335 79.8318 10.5573 80.2C5.71939 80.4212 2.58927 82.467 1.25428 86.281C-0.249388 90.5767 0.487752 94.3736 3.44586 97.57C4.2394 98.3963 5.07593 99.1806 5.95184 99.9197C6.28001 100.206 6.6081 100.491 6.92708 100.781C12.1811 105.519 15.7949 110.061 18.2995 115.074C20.0546 118.586 21.9132 122.117 23.7103 125.532C25.1995 128.362 26.7405 131.289 28.2121 134.187C32.437 142.792 39.6221 149.585 48.4497 153.322C54.2219 155.909 60.4726 157.257 66.7982 157.278C71.9182 157.255 77.0009 156.4 81.8467 154.746C91.212 151.615 98.2092 145.895 102.644 137.747C106.082 131.388 108.382 124.477 109.44 117.326C110.61 109.844 111.84 101.13 111.619 92.4886C111.583 88.5132 110.828 84.5765 109.393 80.8688ZM7.46337 87.7532C8.17681 85.6437 10.1629 85.2906 12.0984 85.2906C12.2172 85.2906 12.336 85.2906 12.4535 85.2906C19.624 85.4337 24.9586 88.0977 28.3079 93.2106C28.9354 94.3047 29.3981 95.4861 29.6809 96.7154C29.7846 97.0804 29.8884 97.4433 29.9993 97.8004C30.4174 99.1459 31.1591 100.713 33.199 100.881C34.8273 101.012 36.2228 99.772 36.759 97.7157C36.9839 96.8178 37.0855 95.8937 37.0609 94.9689C36.9021 86.2935 36.7327 78.3636 36.5502 70.735C36.5082 68.995 36.4301 67.2275 36.3533 65.5184C36.2148 62.3772 36.0718 59.1289 36.1466 55.945C36.3218 48.3972 36.7675 40.7259 37.1968 33.3073L37.2282 32.7619C37.3687 30.3538 37.9692 27.7921 41.3349 26.9795C43.5107 28.6709 44.8181 31.0383 45.3307 34.2111C46.2049 39.62 46.7872 44.5156 47.1108 49.1867C47.5236 55.1384 47.8425 61.1977 48.1517 67.0568C48.3486 70.8433 48.5507 74.629 48.7758 78.4115C48.802 78.8539 48.9504 80.3529 49.7603 81.0834C50.5804 81.7431 51.6112 82.0837 52.6627 82.043C52.962 82.0279 53.2551 81.9524 53.5243 81.8212C53.7935 81.6892 54.0332 81.5042 54.2288 81.2771C54.4242 81.05 54.5715 80.7855 54.6615 80.5C54.7516 80.2138 54.7824 79.9125 54.7524 79.6146C54.7484 78.7613 54.7683 77.9002 54.7886 77.0424C54.8693 75.1954 54.8349 73.3452 54.6856 71.5022C53.7582 62.4408 54.2406 53.2324 54.7066 44.3298L54.8995 40.5355C54.9913 37.556 55.2398 34.5832 55.6438 31.6297C56.1149 29.1384 56.8535 26.7053 57.8471 24.3726C58.3275 23.4274 59.0356 22.617 59.9079 22.0143C60.1166 21.7973 60.3702 21.6283 60.6508 21.519C60.9314 21.4098 61.2325 21.3629 61.5331 21.3816C61.9361 21.4775 62.2938 21.8686 62.6265 22.5762L63.063 23.495C64.0659 25.5953 65.1022 27.7612 65.4691 29.979C66.449 35.4856 67.0659 41.0506 67.3153 46.6382C67.7748 59.7649 67.4591 69.8036 66.2915 79.1925C66.258 79.5076 66.2409 79.8239 66.2403 80.1409C66.2403 80.2827 66.235 80.4245 66.2285 80.5649L66.2055 81.0112C66.1221 82.4723 66.0283 84.1289 68.101 84.8279C69.1629 85.1212 70.2932 85.0379 71.3006 84.5935C72.3088 84.1485 73.1318 83.3695 73.6306 82.3876C74.2568 80.9089 74.6158 79.3317 74.6919 77.7276C75.2931 62.9094 75.1074 50.926 74.1091 40.0157C73.8039 36.6855 74.5935 33.6151 76.5933 30.3518C76.8736 29.7992 77.3055 29.3381 77.8391 29.0229C78.3727 28.7076 78.985 28.5513 79.604 28.5725C80.7933 28.6237 81.5644 29.3371 82.104 30.8867C83.9752 36.1523 84.9196 41.7024 84.896 47.2906C84.8396 52.9764 84.6512 58.7575 84.4687 64.3488C84.3526 67.9127 84.2325 71.5974 84.1478 75.223C84.071 78.5185 84.1996 81.8166 84.3204 84.3225C84.4241 86.4582 85.5412 87.6573 87.9441 88.2119C89.961 88.6766 91.0032 87.49 91.8296 86.1379C92.0829 85.7238 92.3297 85.3024 92.5765 84.881C93.2505 83.653 94.0237 82.4821 94.8888 81.3801C96.2789 79.7143 97.8692 78.8972 99.3729 79.0829C100.863 79.2667 102.195 80.431 103.129 82.3646C105.503 87.2871 106.369 92.9769 105.705 99.2863C105.045 105.556 104.07 112.319 102.637 120.569C101.52 126.505 99.065 132.108 95.4598 136.955C91.9405 141.849 86.781 145.298 79.6867 147.499C66.7332 151.516 54.6245 149.377 42.6693 140.958C41.3995 140.105 40.2921 139.033 39.3988 137.792C37.3693 134.847 35.4921 131.801 33.7746 128.664C31.1886 123.873 28.7371 119.035 26.4892 114.278C22.1711 105.151 16.8162 98.1981 10.1169 93.0288C10.0409 92.9717 9.96934 92.9093 9.90285 92.8417C9.69873 92.6264 9.48549 92.4138 9.27152 92.2011C7.99954 90.9344 6.79581 89.7366 7.46593 87.7525L7.46337 87.7532Z" fill="black"/>
<path d="M1.03034 18.2948C2.71122 19.6193 4.25162 18.136 4.75766 17.649C5.22628 17.1981 5.66541 16.7091 6.0894 16.2359C6.33553 15.9622 6.58166 15.6878 6.83369 15.42C7.97638 14.2071 9.12287 12.9976 10.429 11.6186L11.9314 10.0322C11.9517 10.1779 11.9715 10.3078 11.9886 10.426C12.0441 10.7231 12.0749 11.0243 12.081 11.3265C12.011 14.3587 11.937 17.391 11.8586 20.4233C11.7444 25.0177 11.6351 29.612 11.5304 34.2064C11.4589 37.599 11.4444 41.0002 11.4871 44.3141C11.512 46.2896 12.3062 47.425 13.8499 47.6902C14.0417 47.7241 14.2361 47.7415 14.4308 47.7421C15.7875 47.7421 16.7843 46.8488 17.1486 45.2631C17.5777 43.6172 17.8106 41.9263 17.8424 40.2257C17.7676 34.8319 17.6337 29.3495 17.5037 24.0469C17.4355 21.2509 17.3698 18.455 17.3067 15.659C17.2772 14.2912 17.2844 12.9024 17.2923 11.4335C17.2923 10.9032 17.2982 10.3584 17.2995 9.79266C17.8594 10.1563 18.3885 10.5047 18.8978 10.8427C20.3621 11.8062 21.6275 12.6385 22.9625 13.3966C24.839 14.4624 26.4411 14.4336 27.7203 13.3106C27.8854 13.1609 28.0176 12.9787 28.1088 12.7753C28.1999 12.572 28.248 12.3521 28.2499 12.1292C28.2913 11.1296 27.6592 9.85561 26.5605 8.72014C26.1493 8.31262 25.7066 7.93805 25.2366 7.59984L23.5723 6.35276C21.6466 4.90881 19.6558 3.41039 17.669 1.97563C14.7903 -0.103641 13.1948 0.0676571 10.8392 2.70744C8.42846 5.40959 5.89571 8.2995 2.62584 12.08C1.97212 12.8653 1.36524 13.6884 0.808414 14.5451C-0.497699 16.4689 0.208609 17.647 1.03034 18.2948Z" fill="black"/>
</g>
<defs>
<clipPath id="clip0_6_2059">
<rect width="112.234" height="157.521" fill="white"/>
</clipPath>
</defs>
</svg>
