<svg width="114" height="153" viewBox="0 0 114 153" fill="none" xmlns="http://www.w3.org/2000/svg">
<g clip-path="url(#clip0_6_2056)">
<path d="M6.45446 93.769C7.03201 94.294 7.62928 94.8381 8.15107 95.4164C9.06535 96.4291 10.0243 97.4385 10.9517 98.4145C13.4639 100.907 15.7518 103.615 17.7888 106.508C19.9019 109.863 21.824 113.335 23.5455 116.907C24.5189 118.833 25.5245 120.823 26.5792 122.745C29.3509 127.793 31.8711 132.327 34.6573 136.729C35.9863 138.716 37.636 140.467 39.5391 141.914C43.7325 145.188 48.4269 147.765 53.4411 149.545C58.0692 151.286 62.9733 152.176 67.9178 152.176C73.7435 152.107 79.5134 151.025 84.9688 148.98C89.9124 147.115 94.4024 144.221 98.1416 140.488C101.881 136.755 104.782 132.27 106.655 127.329C111.78 114.014 113.768 99.5834 112.732 83.2124C112.471 80.3777 111.735 77.6073 110.555 75.0174C109.944 73.5537 109.039 72.2312 107.895 71.1332C106.751 70.0345 105.394 69.1832 103.907 68.6325C102.349 68.0648 100.69 67.8246 99.0348 67.9263C97.3802 68.028 95.7636 68.4691 94.2862 69.2232C93.9174 69.4057 93.5413 69.5737 93.0825 69.7785L92.7812 69.9144L92.8554 68.3995C92.925 67.0153 92.9867 65.7309 93.0385 64.445C93.0917 63.0653 93.1494 61.6853 93.2111 60.3048C93.5813 51.7212 93.9646 42.8462 92.7405 34.1241C92.0803 29.4182 91.2585 24.8698 88.4993 20.9652C87.7655 19.9115 86.8217 19.0209 85.7269 18.3492C84.6328 17.6775 83.4114 17.2392 82.1394 17.0618C80.868 16.8844 79.5731 16.9717 78.3366 17.3182C77.1 17.6647 75.9488 18.2631 74.9544 19.0756C74.4707 19.4642 74.0264 19.8868 73.5971 20.2951L73.3543 20.5255C72.994 19.8619 72.6435 19.2022 72.2963 18.5472C71.3564 16.7751 70.4684 15.1035 69.4425 13.4698C67.5825 10.5078 64.6316 9.3349 60.9042 10.0844C59.4088 10.362 57.9972 10.9792 56.7779 11.8884C55.5586 12.7976 54.5644 13.9745 53.8717 15.3285C52.9161 17.2184 52.0659 19.1598 51.325 21.1437C51.0624 21.8001 50.8039 22.4636 50.5374 23.12C50.4062 22.9106 50.2748 22.6979 50.1436 22.4846C49.5931 21.5545 48.9907 20.6561 48.3393 19.7936C45.7901 16.5526 42.4387 15.8294 38.6517 17.7006C37.3849 18.2978 36.2645 19.1657 35.3695 20.243C34.4745 21.3203 33.8268 22.5809 33.472 23.9358C32.9629 25.6845 32.6522 27.485 32.5458 29.3033C32.4911 30.503 32.4348 31.7026 32.3766 32.902C32.0911 38.8911 31.795 45.0836 31.7996 51.1784C31.8048 58.3843 31.9763 65.4471 32.1574 72.9243C32.2278 75.8358 32.2953 78.7716 32.3601 81.7317L32.1331 81.5276C31.7276 81.1489 31.3022 80.7918 30.8585 80.4591C24.2367 75.6987 17.2066 74.0007 9.95344 75.4145C8.30189 75.6862 6.7486 76.3806 5.44432 77.4301C4.14004 78.4789 3.12901 79.8474 2.50922 81.4022C1.91106 83.0601 1.74482 84.8428 2.02626 86.5827C2.30771 88.322 3.02752 89.9615 4.11786 91.3464C4.81804 92.2259 5.60046 93.0371 6.45446 93.769ZM38.0184 64.6189C37.9771 62.8468 37.9003 61.0392 37.8261 59.2947C37.6903 56.0786 37.5491 52.753 37.6239 49.4916C37.7768 42.839 38.1884 36.0774 38.5855 29.5389L38.6996 27.6579C38.8532 25.1159 39.4571 22.6526 42.7808 21.8047C44.9244 23.3864 46.2391 25.7315 46.797 28.9686C47.6364 33.7004 48.2326 38.4721 48.5835 43.2649C49.0337 49.8546 49.3756 56.5643 49.7058 63.0529C49.8777 66.422 50.0546 69.7929 50.2362 73.1652C50.2794 73.8727 50.4448 74.5671 50.7251 75.2182C50.9706 75.8811 51.4581 76.4259 52.0895 76.7435C52.7209 77.0606 53.4492 77.1275 54.1275 76.9293C54.7682 76.8322 55.3465 76.4909 55.7415 75.9769C56.1365 75.463 56.3175 74.8165 56.2469 74.1727C56.2305 73.2538 56.2508 72.3133 56.2692 71.4036C56.3372 69.7352 56.3044 68.0648 56.1708 66.401C55.2079 56.8839 55.7415 47.2187 56.2581 37.8685L56.3302 36.5518C56.3637 35.95 56.3958 35.3475 56.4247 34.7444C56.522 31.8823 56.7631 29.0269 57.1468 26.1889C57.5853 23.9128 58.2615 21.689 59.1643 19.5541L59.2805 19.2508C59.6989 18.3941 60.311 17.6465 61.0683 17.0672C61.8697 16.3833 62.4888 16.0991 62.9574 16.2028C63.4063 16.3 63.8211 16.7692 64.2254 17.6369L64.5667 18.3654C65.5859 20.5314 66.64 22.7747 66.995 25.0601C67.9533 30.7976 68.563 36.5879 68.821 42.3992C69.2364 55.3349 68.9063 65.1669 67.7505 74.2803C67.7209 74.556 67.7078 74.8336 67.7111 75.1112C67.7111 75.2898 67.7078 75.4683 67.6927 75.7019C67.5936 77.1997 67.4814 78.8976 69.5029 79.6295C71.0466 80.188 73.6569 79.552 74.7129 77.8948C75.3443 76.9122 75.746 75.8004 75.8871 74.6413L75.9455 74.0663C76.3058 71.1246 76.4844 68.1646 76.4804 65.2011C76.3321 58.6088 76.1024 51.9088 75.8805 45.4295C75.7493 41.5948 75.6233 37.7598 75.5018 33.9246C75.3528 30.6111 76.3905 27.3531 78.4278 24.7359C78.733 24.2705 79.1576 23.8959 79.6578 23.6515C80.1572 23.4072 80.7138 23.302 81.2684 23.3471C81.7646 23.4624 82.2201 23.7116 82.5844 24.0677C82.9493 24.4238 83.2092 24.873 83.3359 25.3666C84.5508 28.5897 85.3561 31.9527 85.7328 35.3764C86.1962 41.3406 86.2113 47.262 86.1844 53.8286C86.1614 59.4292 86.0341 65.1249 85.9107 70.6311C85.8529 73.2124 85.7985 75.7951 85.7473 78.3798C85.7171 79.9983 85.9763 81.6155 88.0563 82.4858C90.7033 83.5924 91.8223 83.2794 93.2604 81.0216C93.5971 80.4932 93.9095 79.9478 94.2219 79.4024C94.6715 78.5833 95.1657 77.7891 95.7013 77.0238C97.3047 74.8251 99.1077 73.7198 100.771 73.9055C102.435 74.0913 103.925 75.5556 104.987 78.0267C107.095 83.0818 107.853 88.5983 107.187 94.0354C106.522 100.279 105.55 107.043 104.129 115.321C103.181 120.845 100.776 126.365 96.9811 131.724C93.5866 136.515 88.3969 140.047 81.5572 142.215C68.5059 146.349 55.8439 144.137 43.9221 135.638C42.7533 134.834 41.7352 133.831 40.9147 132.674C39.1472 130.049 37.0962 126.915 35.2814 123.551C32.7578 118.871 30.2559 113.928 27.8471 108.861C23.577 99.8775 18.2771 93.0207 11.6356 87.8895C11.5621 87.8363 11.4928 87.7772 11.4283 87.7136C11.2104 87.4819 10.9813 87.2541 10.7516 87.027C9.49275 85.78 8.3034 84.6045 8.92036 82.6348C9.59639 80.4755 11.5456 80.127 13.6006 80.127C13.6873 80.127 13.7746 80.127 13.8632 80.127C21.1401 80.2221 26.5411 82.9571 29.9166 88.2557C30.499 89.2999 30.9268 90.4229 31.1867 91.5899C31.276 91.9122 31.3644 92.2331 31.4589 92.5488C31.8875 93.9855 32.5957 95.4833 34.5969 95.6927C36.2305 95.8659 37.685 94.6235 38.2101 92.6079C38.4543 91.6011 38.5599 90.5654 38.5238 89.5297C38.3755 81.0623 38.2062 72.6815 38.0184 64.6189Z" fill="black"/>
<path d="M8.9078 30.5389C8.71943 30.3689 8.54084 30.2055 8.37019 30.0479C7.79262 29.4854 7.1712 28.9699 6.51157 28.5062C5.59726 27.7975 4.52983 27.3125 3.3946 27.0899C2.86562 27.0697 2.33884 27.1686 1.85326 27.3795C1.3677 27.5903 0.935664 27.9077 0.589304 28.308C0.0858928 28.9722 0.671456 30.449 0.947118 31.0542C1.21856 31.5661 1.57775 32.0264 2.00838 32.4141C2.17706 32.5854 2.34642 32.756 2.49935 32.9332C3.12856 33.6604 3.75954 34.3857 4.39225 35.109C5.79944 36.7235 7.25442 38.3907 8.64914 40.0617C10.2828 42.0176 11.8574 42.9693 13.4608 42.9693H13.5316C15.1495 42.9411 16.6965 41.9487 18.2619 39.9357C20.347 37.2539 22.3141 34.4146 24.2162 31.6659L25.1312 30.346C25.6923 29.5393 26.2864 28.6034 26.2358 27.7114C26.2004 27.0873 26.0041 24.9922 24.952 24.2611C24.0777 23.654 22.3339 23.797 21.2523 24.3123C20.2855 24.8895 19.4655 25.6827 18.8565 26.6297L18.5671 27.0052C17.6483 28.1833 16.7661 29.4199 15.9142 30.6151C15.5952 31.0634 15.277 31.511 14.9554 31.956L14.8483 31.9264L14.6022 26.5655C14.3974 22.0896 14.1906 17.6139 13.9819 13.1381C13.9456 12.3715 13.9113 11.6058 13.8788 10.8409C13.7673 8.2904 13.6518 5.65586 13.4385 3.06529C13.4391 2.64071 13.3555 2.22022 13.1927 1.82809C13.0299 1.43595 12.7912 1.07993 12.4901 0.780565C12.2631 0.598366 12.0013 0.46427 11.7208 0.386415C11.4403 0.30856 11.1468 0.288572 10.8584 0.327688C8.98781 0.495054 8.91561 2.29669 8.88148 3.15846C8.84538 4.04649 8.79688 4.93385 8.75028 5.82188C8.64658 7.70685 8.53887 9.65624 8.56644 11.578C8.61829 15.1393 8.73781 18.7577 8.85267 22.2566C8.9183 24.3024 8.98853 26.3476 9.043 28.394C9.04524 28.9583 9.01426 29.5221 8.9504 30.0828C8.93464 30.2285 8.92093 30.3801 8.9078 30.5389Z" fill="black"/>
</g>
<defs>
<clipPath id="clip0_6_2056">
<rect width="113.546" height="152.27" fill="white"/>
</clipPath>
</defs>
</svg>
