<svg width="152" height="157" viewBox="0 0 152 157" fill="none" xmlns="http://www.w3.org/2000/svg">
<g clip-path="url(#clip0_6_2065)">
<path d="M38.9768 39.6184C39.3619 39.6134 39.7442 39.5512 40.111 39.434L40.235 39.3966L40.3007 39.2857C41.2196 37.7557 40.8631 36.2462 40.5165 34.7865C40.4417 34.4734 40.3669 34.1603 40.3059 33.8485C39.6017 30.5455 40.1343 27.0989 41.8026 24.1624C43.4709 21.2261 46.159 19.004 49.3568 17.9179C53.0592 16.6006 56.4242 16.533 59.6462 17.7092C61.0993 18.2395 62.1003 18.3078 62.8918 17.931C63.7136 17.5405 64.3043 16.684 64.8661 15.0596C65.1745 14.0318 65.6392 13.0578 66.2443 12.1717C67.7401 10.1157 69.696 8.43745 71.9551 7.27074C74.2142 6.10401 76.7142 5.48103 79.2569 5.45142C85.1862 5.25845 88.8703 7.61735 91.1976 13.0958C92.3416 15.7907 93.5788 16.4536 96.2875 15.8268C98.2257 15.3785 99.8232 15.1049 101.276 15.9581L101.985 16.3736C104.366 17.6641 106.617 19.1824 108.705 20.9069C109.903 21.9464 110.796 23.2925 111.287 24.8008C111.778 26.3091 111.849 27.9225 111.492 29.4682L111.442 29.7353C111.217 30.5634 111.177 31.4307 111.325 32.276C111.553 33.2868 112.154 34.1745 113.008 34.7615C113.272 34.9023 113.564 34.9866 113.862 35.0092C114.162 35.0318 114.462 34.9922 114.745 34.8928C115.085 34.7673 115.396 34.5749 115.66 34.3268C115.925 34.0788 116.136 33.7802 116.282 33.4488C116.883 32.212 117.275 30.8846 117.443 29.52C117.992 23.9372 115.999 19.2431 111.53 15.5682C106.285 11.2581 101.394 9.44788 96.1431 9.88369C93.9011 5.15803 90.0497 2.2557 84.3783 1.0231C84.2155 0.963661 84.0652 0.873415 83.9359 0.757282C83.8421 0.685085 83.7476 0.614214 83.6511 0.552518L83.5684 0.5H75.3806L75.2493 0.52692C74.5569 0.819648 73.8592 1.10252 73.1621 1.3854C71.6302 2.00761 70.0458 2.65082 68.5356 3.39445C65.2309 5.02217 62.5026 7.68889 59.9612 11.7805C59.2878 11.7805 58.6387 11.7759 58.0053 11.7726C56.5522 11.7648 55.1779 11.7582 53.8048 11.7871C47.4712 11.9236 42.4548 14.3317 38.8948 18.9451C34.7481 24.3179 33.7754 30.2997 36.007 36.724C36.3562 37.7118 37.0177 39.6191 38.9768 39.6184Z" fill="black"/>
<path d="M107.584 73.0334C107.22 73.2047 106.848 73.3564 106.468 73.4876L106.185 73.592L106.254 72.148C106.32 70.8281 106.377 69.6159 106.426 68.4023C106.478 67.0969 106.535 65.7914 106.595 64.4859C106.979 55.8301 107.377 46.8782 106.168 38.0807C105.521 33.3688 104.716 28.8145 102.021 24.8922C101.297 23.7971 100.349 22.8676 99.2396 22.1647C98.1304 21.4618 96.8853 21.0015 95.5858 20.814C94.2862 20.6265 92.9617 20.716 91.6989 21.0767C90.4361 21.4374 89.2639 22.0611 88.2597 22.9069C87.8003 23.2843 87.354 23.6852 86.947 24.0547L86.7501 24.2326C86.378 23.554 86.017 22.8819 85.66 22.2164C84.705 20.4371 83.8032 18.7562 82.776 17.114C81.0787 14.3994 78.3418 13.2285 74.8645 13.7233C73.3523 13.9083 71.9051 14.4489 70.6416 15.3006C69.3782 16.1525 68.3346 17.2915 67.5962 18.6243C66.5461 20.6038 65.6073 22.6403 64.7838 24.7243C64.4944 25.4193 64.2056 26.1124 63.9089 26.7996C63.821 26.6579 63.731 26.5108 63.6391 26.3612C63.0976 25.4479 62.5106 24.5625 61.8802 23.7083C59.2614 20.275 55.8248 19.5136 51.9373 21.5095C49.0212 23.006 47.2458 25.3123 46.8021 28.1792C46.4562 30.4186 46.2909 32.7165 46.1321 34.9395C46.031 36.3447 45.9266 37.7972 45.7776 39.2175C44.8705 47.8641 45.0831 56.6524 45.2879 65.152C45.3837 69.1269 45.4848 73.2376 45.4658 77.2767C45.4579 79.2496 45.6516 81.2528 45.8386 83.189C45.9154 83.9766 45.9914 84.772 46.0557 85.5662H46.021L45.9358 85.5715C45.7389 85.4146 45.5491 85.2518 45.3581 85.0884C45.0608 84.8357 44.7544 84.5738 44.4295 84.3362C37.7461 79.4524 30.6154 77.7236 23.2342 79.1978C21.6147 79.478 20.0938 80.1678 18.816 81.2022C17.5382 82.236 16.5461 83.5795 15.9339 85.1048C15.3331 86.7319 15.1519 88.4843 15.4073 90.1993C15.6626 91.915 16.3462 93.5387 17.3949 94.9203C18.464 96.2862 19.678 97.5326 21.0153 98.6378L21.4491 99.0251C26.335 103.274 30.3972 108.387 33.4325 114.107C37.7394 122.39 42.2695 130.454 47.746 140.014C48.9024 141.992 50.4373 143.724 52.2634 145.109C61.7462 152.295 71.3367 155.845 81.3662 155.845C84.3847 155.839 87.3947 155.531 90.3521 154.926C104.109 152.146 113.482 145.116 119.008 133.436C121.306 128.654 122.943 123.583 123.875 118.361C125.389 109.74 126.756 100.443 126.5 90.8648C126.466 86.7706 125.646 82.7216 124.083 78.9372C123.462 77.4335 122.536 76.0742 121.366 74.944C120.195 73.8138 118.804 72.937 117.28 72.3686C115.704 71.8067 114.031 71.5764 112.362 71.6906C110.694 71.8048 109.068 72.2622 107.584 73.0334ZM51.938 93.4626C51.8067 85.6522 51.6341 77.3823 51.4313 68.8913C51.3893 67.1192 51.3124 65.324 51.2382 63.5847C51.1004 60.3627 50.9587 57.0305 51.0322 53.764C51.2015 46.2502 51.6531 38.6917 52.1014 31.5934C52.3377 27.8523 52.9159 26.963 56.1707 25.5709C58.2815 26.9689 59.5883 29.2464 60.1619 32.5281C61.0306 37.4813 61.642 42.4761 61.9937 47.4926C62.4282 53.7514 62.7583 60.1245 63.0786 66.2883C63.265 69.8778 63.4508 73.4673 63.6576 77.0522C63.7148 77.8844 63.9618 78.6924 64.3796 79.415C64.6991 79.9762 65.2068 80.4054 65.813 80.6279C66.4188 80.8498 67.0843 80.8504 67.6907 80.6292C68.2657 80.5157 68.7803 80.198 69.1386 79.7346C69.4976 79.2713 69.6755 78.693 69.6407 78.1082C69.6348 77.255 69.6558 76.4018 69.6768 75.5439C69.7556 73.8066 69.7247 72.066 69.583 70.3326C68.6444 61.2751 69.1124 52.0633 69.5646 43.1568L69.6657 41.1524C69.8626 37.1488 70.2045 33.145 70.5097 29.755C70.8143 26.3782 71.8375 23.7076 73.6372 21.589C74.5974 20.4587 75.3646 19.9389 76.0085 20.0058C76.6524 20.0727 77.3107 20.7397 78.0556 22.1061C80.5386 26.6539 81.1693 31.6992 81.6425 36.9C82.6165 47.5983 82.6231 58.9937 81.6635 73.8519C81.6071 74.7268 81.504 75.6188 81.4049 76.4812C81.2776 77.5917 81.1424 78.7403 81.1076 79.8797C81.0584 81.3611 81.4358 82.4237 82.2234 83.038C83.011 83.6523 84.1688 83.7514 85.5832 83.3412C86.5861 83.0892 87.482 82.5228 88.139 81.724C88.7959 80.9252 89.1792 79.9368 89.2331 78.9044L89.3486 77.6665C89.6879 74.6106 89.8717 71.539 89.8986 68.4647C89.8251 59.9873 89.577 51.3716 89.3374 43.0394L89.3138 42.2163C89.2888 41.3631 89.2068 40.4954 89.1267 39.6566C88.8983 37.2504 88.6824 34.9789 89.68 32.7408L89.9754 32.07C90.4841 30.7656 91.145 29.5257 91.9444 28.3761C92.2214 27.9514 92.6066 27.6077 93.0595 27.3798C93.5124 27.1519 94.0184 27.048 94.5245 27.0785C95.018 27.1717 95.4775 27.3941 95.8568 27.723C96.2362 28.0518 96.5217 28.4753 96.6838 28.9504C97.5088 31.0092 98.1389 33.1406 98.5668 35.3169C100.16 42.4992 99.9104 49.927 99.6695 57.1073L99.661 57.3606C99.4555 63.4888 99.3545 69.7222 99.2567 75.75C99.2225 77.8063 99.1877 79.8633 99.1523 81.9196C99.1228 83.5493 99.2619 85.2177 101.27 86.1379C103.992 87.3849 105.216 87.0443 106.729 84.6211C107.03 84.1387 107.315 83.6451 107.599 83.1515C107.979 82.4913 108.372 81.808 108.799 81.1701C110.291 78.9477 111.77 77.5064 114.145 77.7007C116.913 77.9264 117.826 80.2505 118.709 82.4985C120.578 87.4066 121.223 92.6973 120.586 97.9113C119.779 105.394 118.611 112.702 117.574 118.866C116.648 124.379 114.264 129.909 110.486 135.298C106.984 140.298 101.752 143.821 94.4923 146.067C81.5749 150.065 69.4681 147.905 57.4787 139.473C56.2977 138.688 55.2651 137.7 54.4287 136.555C52.3838 133.621 50.492 130.584 48.7606 127.455C46.1241 122.561 43.466 117.317 40.861 111.868C36.8619 103.503 31.7444 96.9149 25.2158 91.7259C24.1117 90.8425 23.1832 89.7602 22.4783 88.5348C22.2792 88.2244 22.1485 87.8745 22.0951 87.5096C22.0417 87.1441 22.0666 86.7719 22.1683 86.4175C22.3296 86.0138 22.5743 85.6489 22.8866 85.3463C23.1987 85.0438 23.5713 84.8108 23.9798 84.6624C25.2691 84.0901 26.6648 83.7967 28.0754 83.8026C28.8395 83.8053 29.602 83.8801 30.3524 84.0245C36.0914 85.1081 39.9348 87.2445 42.4387 90.7493C43.3202 92.1381 44 93.6451 44.4577 95.2249C44.5988 95.6344 44.7392 96.0433 44.8862 96.445C45.4474 97.9848 46.2337 99.4103 48.1679 99.4143H48.1772C49.8738 99.4143 51.1037 98.3589 51.552 96.5165C51.8097 95.5189 51.9395 94.4931 51.938 93.4626Z" fill="black"/>
<path d="M14.5632 45.9292C15.2091 45.9066 15.839 45.7218 16.3945 45.3915C16.9501 45.0612 17.4134 44.5963 17.7419 44.0396L17.8968 43.8177L13.5051 39.0324C14.4581 39.0954 15.3931 39.16 16.3098 39.226C19.1235 39.4229 21.7803 39.6113 24.4549 39.6802C26.3677 39.6913 28.2758 39.4894 30.144 39.0784C30.5203 39.0137 30.8788 38.8705 31.1961 38.6582C31.5135 38.4458 31.7824 38.169 31.9856 37.8457C32.1278 37.5991 32.2138 37.3242 32.2374 37.0406C32.261 36.7569 32.2216 36.4716 32.1222 36.2049C31.8905 35.7295 31.5612 35.3084 31.1556 34.9691C30.75 34.6298 30.2774 34.3799 29.7686 34.2358C28.7965 34.0114 27.7967 33.9313 26.8013 33.9983C26.5352 34.0031 26.2712 34.0059 26.009 34.0068C22.6466 33.9943 19.2843 33.9957 15.6462 33.9977H12.1079C12.3317 33.7594 12.5357 33.5382 12.7261 33.3347C13.3726 32.6403 13.8418 32.1382 14.3466 31.6656C15.1204 30.9437 16.5605 29.6074 15.402 28.0676C14.5803 26.9742 13.236 26.9315 11.6188 27.9456C11.2815 28.1569 10.9467 28.3734 10.6127 28.5894L10.2045 28.852C9.45763 29.3333 8.71249 29.817 7.96906 30.3031C6.3164 31.3815 4.60719 32.4959 2.8935 33.5323C1.46662 34.3953 0.639607 35.6326 0.624512 36.9223C0.647065 37.5588 0.835771 38.1784 1.17172 38.7195C1.50768 39.2606 1.97936 39.7045 2.53985 40.007C5.77609 42.0268 9.13655 43.8402 12.6014 45.4363C13.2106 45.7443 13.8808 45.9127 14.5632 45.9292Z" fill="black"/>
<path d="M123.214 37.4999L123.459 37.6416C123.808 37.8016 124.194 37.8624 124.575 37.8175C124.697 37.8175 124.819 37.8123 124.935 37.8175C129.202 38.0079 133.462 38.1963 137.883 38.3912L141.108 38.5336C140.977 38.7344 140.846 38.9274 140.714 39.1132C140.21 39.7582 139.824 40.4881 139.575 41.2686C139.337 42.2531 139.322 43.9215 140.034 44.5654C140.597 44.9688 141.279 45.1705 141.971 45.1377C142.486 45.1589 142.996 45.0364 143.445 44.7839C146.758 42.5455 149.371 39.4164 150.981 35.7573C151.361 34.9323 151.135 33.1615 150.422 32.6069C147.515 30.3419 144.489 28.2353 141.356 26.2962C140.884 26.1 140.359 26.0793 139.874 26.2378C139.288 26.3433 138.757 26.6527 138.377 27.1114C137.931 27.8767 138.407 29.3324 138.921 30.0892C139.447 30.7744 140.07 31.3797 140.77 31.8862C140.919 32.0076 141.074 32.133 141.234 32.2649C140.143 32.2997 139.083 32.3306 138.043 32.3634C134.966 32.4566 132.058 32.5452 129.162 32.6797C127.146 32.7563 125.137 32.9564 123.146 33.279C122.819 33.3275 122.506 33.4472 122.231 33.6295C121.955 33.8119 121.723 34.0525 121.55 34.3344C121.413 34.5804 121.332 34.8544 121.316 35.1358C121.299 35.4173 121.346 35.6988 121.453 35.9595C121.725 36.6466 122.516 37.1002 123.214 37.4999Z" fill="black"/>
</g>
<defs>
<clipPath id="clip0_6_2065">
<rect width="151.614" height="156.208" fill="white"/>
</clipPath>
</defs>
</svg>
