<svg width="113" height="157" viewBox="0 0 113 157" fill="none" xmlns="http://www.w3.org/2000/svg">
<g clip-path="url(#clip0_6_2062)">
<path d="M24.2982 39.4389C24.6833 39.4339 25.0655 39.3717 25.4323 39.2545L25.5564 39.2171L25.6221 39.1062C26.541 37.5762 26.1845 36.0667 25.838 34.607C25.7631 34.2939 25.6883 33.9808 25.6272 33.6691C24.9231 30.366 25.4557 26.9195 27.124 23.983C28.7923 21.0466 31.4803 18.8246 34.6781 17.7384C38.3805 16.4212 41.7456 16.3536 44.9675 17.5297C46.4207 18.06 47.4216 18.1283 48.2132 17.7516C49.0349 17.361 49.6257 16.5045 50.1875 14.8801C50.4958 13.8524 50.9607 12.8783 51.5657 11.9922C53.0617 9.93622 55.0172 8.25803 57.2763 7.09126C59.5355 5.92456 62.0359 5.30159 64.5784 5.27197C70.5078 5.07901 74.1918 7.43787 76.5192 12.9163C77.6632 15.6112 78.9004 16.2741 81.6091 15.6473C83.5473 15.1991 85.1448 14.9254 86.5973 15.7786L87.3068 16.1941C89.688 17.4847 91.9385 19.0029 94.027 20.7274C95.2248 21.767 96.1174 23.1131 96.6084 24.6214C97.0993 26.1296 97.1702 27.7431 96.8138 29.2887L96.7633 29.5558C96.5388 30.384 96.4988 31.2512 96.6464 32.0965C96.8742 33.1074 97.4754 33.995 98.3293 34.582C98.5938 34.7228 98.8852 34.8072 99.1838 34.8298C99.4831 34.8524 99.7837 34.8127 100.067 34.7133C100.407 34.5879 100.718 34.3954 100.982 34.1474C101.245 33.8993 101.457 33.6007 101.604 33.2694C102.204 32.0326 102.597 30.7051 102.765 29.3405C103.314 23.7577 101.321 19.0636 96.8512 15.3887C91.6064 11.0786 86.7154 9.26839 81.4647 9.7042C79.2226 4.97858 75.3713 2.07626 69.6998 0.843655C69.5364 0.784217 69.3861 0.693977 69.2575 0.57784C69.1636 0.505643 69.0691 0.434771 68.9726 0.373075L68.8899 0.320557H60.702L60.5706 0.347477C59.8782 0.640204 59.1806 0.923071 58.4835 1.20595C56.9517 1.82816 55.3672 2.47138 53.857 3.21501C50.5523 4.84273 47.8239 7.50941 45.2826 11.601C44.6092 11.601 43.96 11.5964 43.3267 11.5931C41.8735 11.5853 40.4992 11.5787 39.1262 11.6076C32.7925 11.7441 27.7761 14.1522 24.2162 18.7656C20.0694 24.1384 19.0968 30.1202 21.3283 36.5445C21.6775 37.5323 22.339 39.4396 24.2982 39.4389Z" fill="black"/>
<path d="M92.9053 72.8535C92.5417 73.0254 92.1696 73.1771 91.7896 73.3077L91.5067 73.412L91.5756 71.9681C91.6412 70.6482 91.699 69.4359 91.7476 68.2224C91.8001 66.9176 91.8565 65.612 91.9162 64.3063C92.3008 55.6505 92.6986 46.6987 91.4896 37.9011C90.8425 33.1893 90.0378 28.6349 87.3429 24.7127C86.6183 23.6175 85.6705 22.688 84.5613 21.9851C83.4521 21.2823 82.207 20.822 80.9068 20.6345C79.6073 20.4469 78.2828 20.5365 77.0206 20.8972C75.7579 21.2578 74.5856 21.8816 73.5814 22.7273C73.122 23.1046 72.6757 23.5057 72.2688 23.8752L72.0719 24.0531C71.6997 23.3744 71.3387 22.7023 70.9817 22.0368C70.0267 20.2575 69.1249 18.5766 68.0977 16.9344C66.4004 14.2198 63.6633 13.0489 60.186 13.5438C58.6736 13.7287 57.2264 14.2692 55.9631 15.1211C54.6998 15.9729 53.6562 17.1119 52.9178 18.4446C51.8677 20.4242 50.9289 22.4606 50.1054 24.5447C49.816 25.2397 49.5272 25.9328 49.2305 26.62C49.1426 26.4782 49.0525 26.3312 48.9606 26.1816C48.4192 25.2683 47.8321 24.3829 47.2017 23.5286C44.5829 20.0953 41.1464 19.334 37.2589 21.3299C34.3428 22.8264 32.5674 25.1327 32.1237 27.9996C31.7778 30.239 31.6124 32.5369 31.4536 34.7599C31.3525 36.1651 31.2482 37.6176 31.0992 39.0379C30.1921 47.6845 30.4047 56.4729 30.6095 64.9724C30.7053 68.947 30.8064 73.0576 30.7874 77.0967C30.7795 79.0696 30.9732 81.0728 31.1602 83.009C31.237 83.7966 31.313 84.5921 31.3773 85.3863H31.3426L31.2573 85.3915C31.0604 85.2346 30.8706 85.0719 30.6796 84.9084C30.3823 84.6557 30.076 84.3939 29.7511 84.1563C23.0676 79.2725 15.937 77.5437 8.55581 79.0178C6.93623 79.2987 5.41532 79.9885 4.13754 81.0223C2.85977 82.056 1.8677 83.3995 1.25549 84.9248C0.654632 86.5519 0.473429 88.3043 0.728781 90.02C0.984143 91.7357 1.66771 93.3594 2.71639 94.7404C3.7856 96.1069 4.99952 97.3533 6.33682 98.4579L6.77058 98.8451C11.6566 103.095 15.7188 108.207 18.7541 113.927C23.0609 122.21 27.5911 130.274 33.0675 139.834C34.2239 141.813 35.7589 143.544 37.585 144.929C47.0677 152.115 56.6582 155.665 66.6879 155.665C69.7064 155.66 72.7164 155.352 75.6738 154.746C89.4307 151.966 98.8038 144.936 104.33 133.256C106.627 128.475 108.264 123.404 109.196 118.181C110.711 109.56 112.078 100.263 111.822 90.6849C111.788 86.5913 110.968 82.5417 109.405 78.7572C108.783 77.2536 107.858 75.8943 106.687 74.7641C105.517 73.6339 104.126 72.7577 102.601 72.1886C101.026 71.6274 99.3525 71.3964 97.6841 71.5106C96.0157 71.6255 94.3887 72.0823 92.9053 72.8535ZM37.2595 93.2827C37.1282 85.4722 36.9557 77.2024 36.7529 68.7113C36.7109 66.9392 36.6339 65.1444 36.5598 63.4051C36.4219 60.1831 36.2802 56.8509 36.3537 53.5843C36.523 46.0706 36.9747 38.5122 37.423 31.4139C37.6593 27.6728 38.2374 26.7834 41.4922 25.3913C43.603 26.7893 44.9098 29.0668 45.4835 32.3485C46.3521 37.3017 46.9636 42.2966 47.3153 47.313C47.7498 53.5718 48.0798 59.9449 48.4001 66.1083C48.5865 69.6978 48.7723 73.2873 48.9791 76.8722C49.0364 77.7051 49.2833 78.5131 49.7011 79.2351C50.0206 79.7962 50.5284 80.2261 51.1344 80.448C51.7405 80.6705 52.4059 80.6711 53.0123 80.4493C53.5873 80.3364 54.1018 80.0187 54.4603 79.5547C54.8189 79.0913 54.9972 78.5137 54.9622 77.9283C54.9563 77.075 54.9773 76.2218 54.9983 75.364C55.0774 73.6266 55.0462 71.886 54.9046 70.1526C53.966 61.0955 54.4339 51.8837 54.8861 42.9772L54.9873 40.9728C55.1842 36.9691 55.526 32.9655 55.8312 29.5755C56.1357 26.1986 57.1591 23.528 58.9588 21.4093C59.919 20.2791 60.6861 19.7593 61.33 19.8262C61.9738 19.8932 62.6322 20.56 63.3772 21.9265C65.8603 26.4743 66.491 31.5196 66.9642 36.7204C67.9382 47.4187 67.9448 58.814 66.9852 73.6719C66.9288 74.5468 66.8258 75.4388 66.7266 76.3012C66.5993 77.4117 66.4641 78.5603 66.4293 79.6997C66.3801 81.1811 66.7575 82.2437 67.5451 82.858C68.3327 83.4724 69.4905 83.5715 70.9049 83.1613C71.9078 82.9099 72.8037 82.3428 73.4607 81.544C74.117 80.7459 74.501 79.7575 74.5548 78.7244L74.6703 77.4866C75.0096 74.4307 75.1934 71.3597 75.2203 68.2847C75.1468 59.8077 74.8987 51.192 74.6591 42.8598L74.6355 42.0367C74.6106 41.1835 74.5285 40.3158 74.4485 39.477C74.2201 37.0709 74.0041 34.7993 75.0018 32.5612L75.2971 31.8904C75.8058 30.586 76.4667 29.3462 77.2661 28.1965C77.5431 27.7719 77.9277 27.4281 78.3812 27.2002C78.8341 26.9723 79.3395 26.8684 79.8462 26.8989C80.3391 26.9921 80.7992 27.2145 81.1785 27.5433C81.5579 27.8722 81.8434 28.2958 82.0055 28.7708C82.8306 30.8295 83.4606 32.961 83.8886 35.1373C85.4815 42.3196 85.2321 49.7474 84.9912 56.9277L84.9827 57.181C84.7772 63.3093 84.6762 69.5423 84.5784 75.5701C84.5442 77.627 84.5095 79.6833 84.474 81.7396C84.4445 83.3693 84.5836 85.0377 86.5914 85.9579C89.3139 87.205 90.5379 86.8643 92.0508 84.4411C92.352 83.9587 92.6362 83.4651 92.9204 82.9716C93.3005 82.3113 93.6936 81.6281 94.1209 80.9901C95.6127 78.7677 97.0921 77.3264 99.4667 77.5207C102.235 77.7465 103.147 80.0706 104.03 82.3185C105.9 87.2273 106.545 92.518 105.908 97.7313C105.101 105.214 103.932 112.522 102.896 118.686C101.969 124.199 99.5855 129.729 95.8077 135.118C92.3055 140.118 87.0738 143.641 79.814 145.887C66.8966 149.885 54.7896 147.725 42.8002 139.293C41.6193 138.508 40.5867 137.52 39.7503 136.375C37.7054 133.442 35.8135 130.404 34.0822 127.275C31.4457 122.381 28.7876 117.137 26.1826 111.688C22.1835 103.323 17.0659 96.735 10.5373 91.546C9.43327 90.6632 8.50475 89.5809 7.79978 88.3549C7.60071 88.0444 7.4701 87.6952 7.41667 87.3297C7.36325 86.9647 7.38819 86.5926 7.48992 86.2375C7.65118 85.8339 7.89593 85.4689 8.20809 85.1664C8.52024 84.8645 8.89284 84.6315 9.30141 84.4825C10.5906 83.9101 11.9864 83.6174 13.397 83.6227C14.1611 83.6259 14.9235 83.7001 15.6739 83.8445C21.4129 84.9281 25.2563 87.0645 27.7603 90.5694C28.6417 91.9582 29.3216 93.4651 29.7793 95.0449C29.9204 95.4545 30.0607 95.8634 30.2077 96.265C30.7689 97.8048 31.5552 99.2304 33.4894 99.2343H33.4988C35.1954 99.2343 36.4252 98.1789 36.8735 96.3366C37.1313 95.3396 37.261 94.3131 37.2595 93.2827Z" fill="black"/>
</g>
<defs>
<clipPath id="clip0_6_2062">
<rect width="112.234" height="156.208" fill="white"/>
</clipPath>
</defs>
</svg>
