<svg width="169" height="99" viewBox="0 0 169 99" fill="none" xmlns="http://www.w3.org/2000/svg">
<g clip-path="url(#clip0_8_2770)">
<path d="M158.746 0.393145C155.622 0.123788 153.281 0.750571 151.592 2.30179C149.393 4.32164 148.33 7.85474 148.254 13.4077C146.435 15.4816 144.622 17.5445 142.815 19.5965C138.643 24.3401 134.329 29.2446 130.141 34.0834C125.953 38.9222 121.728 43.8811 117.642 48.6762C115.888 50.7333 114.132 52.7923 112.374 54.8533C111.9 54.843 111.405 54.8083 110.886 54.7723C109.351 54.5701 107.793 54.6493 106.286 55.0063C104.283 55.6145 103.091 55.0462 101.329 53.6307C91.6312 45.8476 82.6174 39.8002 73.7727 35.1446C73.0782 34.8254 72.4666 34.3489 71.9851 33.752C71.5042 33.1552 71.1662 32.4542 70.9985 31.704C70.297 29.0054 68.5726 26.6922 66.1957 25.2626C63.8195 23.833 60.9809 23.4013 58.2918 24.0605C55.5575 24.7041 53.165 26.364 51.5918 28.7085C50.0187 31.0531 49.3811 33.9097 49.8063 36.7075C49.916 37.4468 50.0487 38.1861 50.1762 38.89L50.2787 39.4685L14.7614 73.8969C14.5809 73.8795 14.4009 73.8596 14.2217 73.8409C13.6299 73.7767 13.0173 73.7124 12.4032 73.6963C6.52897 73.5259 2.91808 76.116 1.03229 81.8503C-0.382205 86.151 1.16621 89.9895 2.45443 92.5031C3.32722 94.3089 4.65645 95.8517 6.30856 96.9748C7.96069 98.0985 9.87727 98.7639 11.8654 98.9034C12.0657 98.9143 12.2654 98.9195 12.4648 98.9201C14.3787 98.8912 16.2554 98.382 17.9254 97.4396C19.5955 96.4965 21.0063 95.1497 22.0309 93.5201C25.092 88.8825 25.5678 84.5362 23.476 80.2489L57.9399 47.1571L67.5407 44.1679L96.022 63.863C96.2465 68.0989 97.293 71.2753 99.3956 74.1232C100.62 75.8724 102.397 77.1517 104.436 77.7521C106.474 78.3519 108.654 78.2368 110.62 77.4262C116.303 75.2495 119.46 70.4261 119.31 64.1697L153.876 20.8963C158.779 21.8606 162.584 21.4107 165.192 19.5528C167.208 18.1186 168.435 15.895 168.837 12.9436C169.069 11.4554 168.995 9.93496 168.62 8.4767C168.245 7.01851 167.577 5.65349 166.657 4.46625C165.685 3.27794 164.482 2.30335 163.121 1.60274C161.76 0.902131 160.271 0.490445 158.746 0.393145Z" fill="black"/>
</g>
<defs>
<clipPath id="clip0_8_2770">
<rect width="169" height="99" fill="white"/>
</clipPath>
</defs>
</svg>
