<svg width="159" height="155" viewBox="0 0 159 155" fill="none" xmlns="http://www.w3.org/2000/svg">
<g clip-path="url(#clip0_8_2859)">
<path d="M88.0013 144.279C103.279 141.785 129.81 123.281 140.294 98.0995C139.373 97.4142 138.49 96.6791 137.65 95.8974C135.615 93.83 135.308 91.5295 136.747 89.9248C138.2 88.3017 140.495 88.2183 142.865 89.7988C144.543 90.9211 146.146 92.1557 147.787 93.3358C150.246 95.1079 152.735 96.8386 155.156 98.66C156.065 99.3117 156.869 100.101 157.536 100.999C158.045 101.683 158.325 102.51 158.337 103.363C158.349 104.215 158.092 105.049 157.601 105.747C157.106 106.505 156.376 107.078 155.523 107.381C154.67 107.683 153.742 107.698 152.88 107.422C151.493 106.89 150.141 106.27 148.833 105.567C146.188 111.63 142.681 117.28 138.421 122.34C128.736 133.674 117.391 142.809 103.772 149.068C87.9061 156.361 72.0326 155.902 56.109 149.421C45.1698 144.969 35.5151 138.475 26.8495 130.511C23.3448 127.352 20.0028 124.018 16.8363 120.519C13.8756 117.183 11.329 113.479 8.46802 109.766C7.68258 110.286 6.86295 110.754 6.01471 111.164C5.19725 111.558 4.27105 111.665 3.38511 111.469C2.49917 111.273 1.70497 110.785 1.13023 110.082C0.124064 108.758 0.110951 107.012 1.16044 105.362C1.51188 104.786 1.94318 104.264 2.44154 103.809C6.16232 100.561 9.88972 97.3184 13.6683 94.1378C14.3974 93.6239 15.1967 93.2176 16.0416 92.9308C17.8314 92.1655 19.3587 92.7746 20.6261 94.0466C21.1749 94.697 21.4978 95.5082 21.5461 96.3575C21.5946 97.2075 21.3659 98.0502 20.8945 98.7584C20.1243 99.8525 19.2108 100.838 18.1786 101.69C17.0976 102.656 15.886 103.477 14.652 104.422C15.083 106.756 16.1767 108.916 17.8025 110.645C28.5008 123.135 40.6601 133.789 55.8878 140.544C62.2642 143.357 69.0836 145.034 76.0375 145.498C77.4611 145.601 78.8985 145.513 80.2178 145.513C79.3914 122.036 78.5769 98.8641 77.748 75.3692L58.3563 74.5573C58.311 75.5339 58.309 76.4928 58.2125 77.4419C58.1223 79.1195 57.9071 80.7886 57.5687 82.434C57.3506 83.3752 56.8164 84.2127 56.0551 84.8073C55.2939 85.4019 54.3517 85.7177 53.3858 85.7012C52.4765 85.6566 51.6094 85.3041 50.9261 84.7029C50.2427 84.1011 49.7836 83.2859 49.6238 82.3894C49.2078 80.4197 49.0459 78.4041 49.142 76.3931C49.3652 72.4741 49.8193 68.5656 50.2742 64.6638C50.4261 63.4392 50.738 62.24 51.2022 61.0967C51.4141 60.4442 51.8403 59.8825 52.4116 59.5027C52.9829 59.1228 53.6657 58.9471 54.3494 59.0041C55.093 59.0267 55.7999 59.3323 56.3258 59.8584C56.8518 60.3844 57.1571 61.0915 57.1795 61.8351C57.3895 63.6072 57.6009 65.3792 57.8457 67.4354C64.4334 68.3818 70.9923 67.8088 77.767 67.8771V24.0541C76.5114 23.6163 75.1285 23.2135 73.8086 22.6602C68.6406 20.4943 65.9135 16.3535 66.5653 11.7618C67.3772 6.04636 71.6368 1.26756 76.8573 0.761523C80.4232 0.392187 84.016 0.373368 87.5858 0.705597C94.9834 1.45448 98.5335 7.16602 96.2101 14.2059C94.7196 18.7235 91.808 21.9658 87.2635 23.6172C86.8435 23.7701 86.4142 23.898 85.9975 24.0588C85.9049 24.0942 85.8478 24.2196 85.4626 24.6619C85.9135 38.6216 86.3755 52.9292 86.8409 67.2647H111.467C111.716 65.7853 111.907 64.4788 112.163 63.1845C112.336 62.3135 112.369 61.2719 112.881 60.647C113.524 59.8647 114.565 59.0338 115.484 58.9734C116.206 58.9255 117.184 59.8864 117.716 60.6346C118.187 61.3997 118.443 62.278 118.457 63.1766C118.704 67.9985 118.957 72.8245 118.998 77.6506C118.955 79.2127 118.608 80.7511 117.976 82.1793C117.707 82.8731 117.217 83.4579 116.58 83.8418C115.944 84.2258 115.198 84.3879 114.46 84.3019C113.774 84.2901 113.11 84.0611 112.563 83.6482C112.015 83.236 111.613 82.6604 111.413 82.0047C110.864 80.1014 110.619 78.1133 110.177 75.8083H86.9387C87.2937 98.5596 87.6482 121.383 88.0013 144.279ZM81.2594 17.7061C85.1751 17.5322 87.7906 15.6235 88.5191 12.2388C88.9983 10.0138 88.1083 8.19765 85.9135 7.48158C84.1217 6.83102 82.2524 6.41826 80.3536 6.25371C78.7968 6.19039 77.2491 6.51276 75.8472 7.1922C73.6314 8.29551 72.8819 10.571 72.8891 12.8669C72.8957 14.9527 74.6612 15.9117 76.3893 16.5122C77.9619 17.0576 79.6323 17.3189 81.2594 17.7061Z" fill="black"/>
</g>
<defs>
<clipPath id="clip0_8_2859">
<rect width="158.834" height="154.896" fill="white"/>
</clipPath>
</defs>
</svg>
