<svg width="163" height="168" viewBox="0 0 163 168" fill="none" xmlns="http://www.w3.org/2000/svg">
<g clip-path="url(#clip0_8_2262)">
<path d="M156.375 58.0056C153.904 59.4686 151.969 60.7525 149.917 61.8052C142.668 65.4948 136.587 71.1253 132.35 78.0694C129.18 83.1054 127.795 89.0611 128.416 94.9799C129.278 104.383 134.201 110.769 143.059 114.087C147.543 115.767 152.117 117.242 156.507 119.133C162.253 121.608 163.691 124.924 161.19 130.563C159.186 135.171 156.787 139.596 154.018 143.789C150.74 148.665 147.239 153.515 143.132 157.684C132.663 168.307 120.542 169.208 108.231 160.746C105.535 158.893 102.999 156.798 100.458 154.73C97.4694 152.302 94.2495 151.612 90.6954 153.244C87.7287 154.606 84.7752 156.004 81.8716 157.495C77.6054 159.688 73.4422 162.099 69.1288 164.198C62.7625 167.295 56.0915 167.414 49.2951 165.809C35.6741 162.593 25.1807 154.777 17.0612 143.649C9.62157 133.599 4.39419 122.089 1.72313 109.874C-2.19849 91.6549 0.935564 74.6341 11.4298 59.218C20.1387 46.4273 32.5394 39.4555 47.9759 39.5073C57.9601 39.5408 67.994 41.0045 77.9047 42.4891C86.0951 43.7158 93.9679 43.5997 101.784 40.7729C105.889 39.2883 110.012 37.7991 114.224 36.6827C121.665 34.6598 129.566 35.1605 136.692 38.1065C143.817 41.0526 149.765 46.2775 153.605 52.9642C154.374 54.2723 155.07 55.6225 156.375 58.0056ZM149.496 128.244C144.705 126.452 140.504 125.205 136.582 123.358C122.947 116.932 115.735 103.345 117.931 88.4237C119.933 74.8139 128.342 65.7394 139.415 58.6405C141.041 57.5982 142.77 56.7158 144.797 55.562C137.37 47.4719 128.752 44.0145 118.206 46.5598C114.615 47.4948 111.1 48.7054 107.694 50.1808C96.8472 54.6623 85.8982 55.3574 74.348 52.9033C65.8038 51.1403 57.115 50.1709 48.3926 50.0075C35.6078 49.7062 25.8147 55.7655 18.9107 66.4594C13.5152 74.7575 10.6407 84.4417 10.635 94.34C10.4965 113.636 17.9203 130.015 30.6743 144.119C34.9634 148.861 40.3394 152.236 46.3049 154.654C54.0254 157.784 61.551 158.042 68.9155 153.609C71.7187 151.922 74.5678 150.3 77.4748 148.801C80.5431 147.145 83.6982 145.655 86.926 144.338C94.0197 141.602 100.605 142.59 106.57 147.474C109.221 149.747 112.018 151.845 114.942 153.754C122.02 158.143 128.053 157.696 134.004 151.933C140.834 145.26 146.121 137.175 149.496 128.244Z" fill="black"/>
<path d="M114.213 9.90046C114.021 19.8204 109.736 27.5639 101.283 32.7063C97.3973 35.0691 93.135 36.8555 88.9377 38.6578C85.3935 40.1792 81.6563 40.0232 78.0556 38.7453C74.4707 37.4733 73.6253 35.5862 74.3769 31.6567C76.4771 20.6656 82.8633 12.6329 92.117 6.89916C96.1463 4.4051 100.872 3.05934 105.122 0.880301C109.794 -1.51468 113.758 1.48688 114.198 6.6319C114.291 7.71551 114.213 8.81094 114.213 9.90046ZM81.5605 29.7553C96.6234 27.81 105.254 19.9627 104.546 9.16589C94.1451 12.8099 86.3209 18.9218 81.5605 29.7553Z" fill="black"/>
</g>
<defs>
<clipPath id="clip0_8_2262">
<rect width="162.772" height="167.366" fill="white"/>
</clipPath>
</defs>
</svg>
