<svg width="154" height="150" viewBox="0 0 154 150" fill="none" xmlns="http://www.w3.org/2000/svg">
<path d="M2.71968 54.1851C-4.07473 80.8895 1.875 104.447 20.4159 124.216C20.8983 124.727 21.3906 125.238 21.8822 125.73C31.8421 135.689 44.2475 141.838 54.0768 146.118C58.2958 147.96 79.9431 150.198 85.8003 149.325C120.608 144.127 143.514 124.495 151.492 91.6509C153.015 85.2172 153.774 78.6261 153.752 72.0146C153.789 56.4397 147.231 38.3326 133.708 24.7714C132.315 23.6202 130.927 22.4276 129.586 21.2718C126.676 18.7705 123.669 16.1805 120.522 13.9719C96.4867 -2.94517 71.5131 -3.03967 46.2985 5.93116C23.4691 14.0448 8.80853 30.2839 2.71968 54.1851ZM46.3964 13.9247C68.5195 4.73069 90.7175 3.10822 112.368 16.8782C116.327 19.3985 126.88 27.9283 128.542 29.2095L128.649 29.2882L128.737 29.3861C137.184 38.3431 146.855 54.7207 146.642 71.5564C146.572 78.7554 145.597 85.917 143.741 92.873C138.242 112.862 125.094 127.43 103.546 137.394C81.6397 147.883 50.2248 137.279 41.8663 131.761C32.6279 125.445 24.5442 117.587 17.9684 108.531C7.65602 93.931 5.34239 72.944 10.8838 53.7586C13.4769 44.9 18.009 36.7295 24.1514 29.8397C30.2937 22.95 37.8924 17.5135 46.3964 13.9247Z" fill="black"/>
<path d="M109.692 61.5199C107.741 59.2634 105.8 56.9983 103.867 54.7248C101.764 52.2622 99.6559 49.8047 97.542 47.3522C96.7337 46.3656 95.7858 45.5021 94.7283 44.7892C94.0949 44.3921 92.7278 44.3408 92.1961 44.8324C91.9048 45.1819 91.7086 45.6007 91.6265 46.0482C91.5444 46.4957 91.5792 46.9568 91.7275 47.387C92.2994 48.4356 92.9777 49.4227 93.7516 50.3326C93.9236 50.5486 94.0949 50.7644 94.263 50.981C96.6827 54.1012 99.1049 57.2198 101.53 60.3365C104.389 64.0146 107.246 67.694 110.101 71.3747C110.335 71.701 110.541 72.0464 110.718 72.4071C110.761 72.4885 110.806 72.5725 110.849 72.6605C109.281 72.583 107.741 72.5043 106.219 72.4262C102.465 72.2345 98.9177 72.0533 95.3236 71.9155C87.6753 71.6234 76.5031 71.3394 65.6985 71.0624C56.4152 70.8274 47.6458 70.6029 41.2052 70.3817C39.942 70.3487 38.6786 70.4382 37.4326 70.6488C35.5292 70.9514 34.5638 71.9307 34.5651 73.561C34.5651 75.3804 35.6434 76.4824 37.5986 76.6635C38.1377 76.7134 38.677 76.7653 39.2166 76.8191C41.4343 77.037 43.7282 77.2609 45.9932 77.2904C55.0297 77.4079 67.821 77.4997 80.1884 77.5876C89.7709 77.6533 98.8212 77.7189 105.756 77.7943C106.261 77.8129 106.764 77.8636 107.262 77.9459L107.602 77.9938C107.45 78.1573 107.308 78.3129 107.171 78.4606C106.678 78.9968 106.268 79.4412 105.841 79.8678C99.8486 85.9713 94.8395 92.9679 90.9931 100.608L90.871 100.842C90.4902 101.504 90.1902 102.209 89.9771 102.942C89.9058 103.377 89.9356 103.823 90.0643 104.244C90.1024 104.413 90.1398 104.583 90.1628 104.749L90.21 105.094L90.5514 105.029C90.7512 104.994 90.9527 104.969 91.1551 104.955C91.6709 104.967 92.1775 104.817 92.6043 104.528C93.0781 104.081 93.5036 103.586 93.8737 103.05C94.1605 102.647 94.4734 102.262 94.8103 101.9C97.546 99.1019 100.288 96.3097 103.036 93.5229C106.621 89.8793 110.199 86.2302 113.77 82.5752C115.353 81.0542 116.779 79.3787 118.028 77.5739C119.811 74.8061 119.538 72.5037 117.123 69.875C114.817 67.3678 112.385 64.6335 109.692 61.5199Z" fill="black"/>
</svg>
