<svg width="164" height="147" viewBox="0 0 164 147" fill="none" xmlns="http://www.w3.org/2000/svg">
<g clip-path="url(#clip0_8_2775)">
<path d="M163.045 89.4034C162.478 75.8691 161.901 64.0383 161.282 53.2458C160.858 45.844 160.252 36.1053 159.33 26.4163C157.988 12.2674 146.55 2.02719 131.515 1.51237C120.416 1.13224 109.128 0.973375 98.2093 0.819251H98.1078C94.9879 0.775864 91.8159 0.802188 88.7487 0.828738C83.7129 0.870183 78.5059 0.914724 73.4108 0.645976C61.8348 0.0372536 49.5687 0.546725 33.6476 2.29907C23.2864 3.4388 15.4905 6.46978 9.10817 11.8376C3.84846 16.2631 1.28435 21.3936 1.27068 27.5255C1.26613 29.5123 1.22635 31.5136 1.15216 33.4732C1.08708 35.2087 0.966724 36.9808 0.852184 38.6943C0.52507 42.3704 0.437009 46.0638 0.588593 49.7512C0.686649 51.2928 0.786812 52.8346 0.889202 54.3772C1.67927 66.4073 2.49609 78.8473 1.66568 91.1202C1.32336 96.1907 1.41713 101.362 1.50759 106.363L1.52697 107.449C1.67795 116.016 2.93803 123.549 5.37851 130.476C8.01034 137.948 13.1197 142.491 20.5647 143.979C25.1717 144.933 29.8472 145.521 34.5476 145.74C43.3138 146.097 52.2298 146.294 60.8528 146.486C64.3332 146.563 67.8133 146.643 71.2931 146.728H71.3061C71.4226 146.726 71.5365 146.689 71.6315 146.62H74.659C76.886 146.62 79.1137 146.62 81.3407 146.62L85.0112 146.626C99.4914 146.656 114.482 146.684 129.111 144.403C134.213 143.608 140.171 142.496 145.69 140.289C156.768 135.859 162.746 127.69 163.457 116.01C163.912 108.502 163.569 100.947 163.234 93.6399C163.17 92.2269 163.107 90.8152 163.045 89.4034ZM11.0814 81.2161C10.8998 73.3947 10.5021 64.9619 9.83113 54.6839C9.30074 46.5788 8.97801 35.8936 11.2174 25.0667C11.2689 24.9189 11.2909 24.7626 11.2823 24.6064C10.7656 18.5243 15.1292 16.1419 19.7486 13.6203L19.91 13.5324C24.3933 11.0839 29.3557 10.2296 34.0544 9.57169C44.7535 8.17111 55.5385 7.52191 66.3295 7.62896C70.82 7.62896 75.2513 7.70272 79.594 7.79338C87.4998 7.95916 95.5384 8.06666 103.311 8.17027C110.095 8.26093 117.108 8.35502 124.007 8.48713C127.203 8.52605 130.393 8.79745 133.55 9.29912C144.898 11.181 151.174 18.5226 151.7 30.5319C152.131 40.3971 152.528 50.4306 152.913 60.1333C153.201 67.404 153.495 74.6749 153.794 81.9459C153.904 84.5758 154.055 87.2457 154.201 89.8289C154.429 93.8711 154.666 98.0531 154.75 102.159C154.849 107.016 154.577 112.002 154.293 116.69C153.876 123.515 149.885 128.364 142.431 131.1C137.865 132.696 133.147 133.818 128.35 134.446C112.19 136.842 95.6081 136.736 79.566 136.634L77.4587 136.621C76.6127 136.616 75.7699 136.617 74.9265 136.621H73.7798C73.675 136.621 73.5729 136.646 73.4798 136.693C73.3867 136.74 73.306 136.807 73.2449 136.891C69.752 136.802 66.2592 136.716 62.7667 136.632C52.4841 136.379 41.854 136.119 31.4023 135.778C28.7093 135.615 26.0332 135.245 23.3976 134.67L22.9342 134.582C18.5257 133.74 15.5757 131.032 14.1674 126.526C12.0288 119.482 10.9589 112.159 10.9929 104.801C10.9694 101.433 11.0175 98.0104 11.0637 94.6987C11.1217 90.2809 11.1855 85.7122 11.0814 81.2161Z" fill="black"/>
<path d="M52.8852 64.3244C54.0298 63.7051 55.1067 62.9696 56.0988 62.1293C56.3292 61.9474 56.5595 61.7649 56.7912 61.5861C60.1454 58.9958 63.498 56.4055 66.8489 53.8152C70.7829 50.7716 74.7189 47.7306 78.6562 44.6922C78.9218 44.4994 79.2023 44.3282 79.4958 44.1806C79.4222 45.6653 79.348 47.1299 79.2725 48.5745C79.0669 52.5772 78.873 56.3586 78.7252 60.1942C78.1877 74.1883 77.6514 88.9375 77.0846 105.288C77.0481 106.655 77.1451 108.024 77.3742 109.373C77.8128 112.12 79.4815 112.698 80.8058 112.698H80.8091C82.915 112.698 84.242 111.412 84.4535 109.175C84.5069 108.599 84.5635 108.024 84.6201 107.447C84.8538 105.075 85.0946 102.623 85.1264 100.194C85.2722 89.0301 85.3829 77.6788 85.4896 66.7023C85.5468 60.8265 85.6061 54.9515 85.6666 49.0766C85.6809 48.6304 85.7232 48.1851 85.7935 47.7442L85.8469 47.7928C86.4189 48.3173 86.894 48.7523 87.3489 49.205C93.5061 55.3278 100.806 60.5277 109.665 65.1028L109.917 65.2323C110.649 65.6507 111.428 65.979 112.239 66.2108C112.752 66.3015 113.279 66.2697 113.778 66.1182C113.951 66.08 114.124 66.0418 114.294 66.0191C114.384 66.0068 114.471 65.9757 114.548 65.9291C114.626 65.8818 114.694 65.8197 114.747 65.7459C114.8 65.672 114.837 65.5885 114.857 65.4998C114.876 65.4117 114.877 65.3204 114.86 65.231C114.823 65.0283 114.798 64.8237 114.784 64.6185C114.794 64.0015 114.607 63.3972 114.249 62.8933C113.756 62.3708 113.209 61.9018 112.617 61.4944C112.195 61.1974 111.794 60.8729 111.416 60.523C108.387 57.5774 105.365 54.6249 102.35 51.665C98.4716 47.8689 94.5883 44.0789 90.7005 40.2957C89.052 38.595 87.2389 37.0606 85.2878 35.714C82.2193 33.7473 79.5537 34.0555 76.6492 36.7138C73.953 39.1824 71.0237 41.7742 67.6949 44.6385C65.2688 46.7258 62.8349 48.8024 60.3922 50.8682C57.7569 53.1062 55.1278 55.3514 52.5051 57.6033C51.4229 58.4855 50.4765 59.5209 49.6957 60.6761C49.1998 61.4648 49.14 63.0719 49.7784 63.759C50.1985 64.1204 50.7081 64.3635 51.2544 64.4629C51.8007 64.5623 52.3637 64.5145 52.8852 64.3244Z" fill="black"/>
</g>
<defs>
<clipPath id="clip0_8_2775">
<rect width="164" height="147" fill="white"/>
</clipPath>
</defs>
</svg>
