<svg width="114" height="117" viewBox="0 0 114 117" fill="none" xmlns="http://www.w3.org/2000/svg">
<g clip-path="url(#clip0_8_2748)">
<path d="M52.7541 80.8966C46.3128 88.1434 40.2696 95.0151 34.1448 101.806C30.7066 105.62 27.1329 109.311 23.6178 113.056C23.3995 113.311 23.1578 113.544 22.896 113.753C18.0624 117.256 16.6246 117.887 12.3428 113.544C9.92015 111.086 7.15164 108.974 4.59933 106.639C3.43956 105.59 2.36987 104.446 1.4015 103.216C-0.221206 101.128 -0.143066 99.5264 1.53175 97.4943C2.52453 96.2883 3.53029 95.0889 4.60123 93.9536C13.3377 84.6942 22.0823 75.4421 30.8349 66.1991C31.5065 65.4892 32.145 64.7483 32.7723 64.0515C28.4319 59.4578 24.1969 55.0314 20.0278 50.5423C17.7517 48.0918 15.5609 45.5588 13.3831 43.022C11.9213 41.3226 11.9415 39.839 13.6066 38.3978C14.7051 37.4504 15.9401 36.6751 17.2696 36.0982C26.6723 32.0457 36.015 27.8264 45.5545 24.1216C61.0123 18.1193 76.615 12.4917 92.1372 6.65672C95.9911 5.2083 99.7589 3.53238 103.597 2.04079C105.121 1.36451 106.725 0.886158 108.369 0.617676C112.404 0.167978 114.472 2.77861 113.198 6.66247C112.221 9.62996 110.983 12.5086 109.909 15.4434C102.234 36.4047 94.6315 57.3923 86.8698 78.3226C84.466 84.8053 81.674 91.1456 78.9914 97.5211C77.968 99.9545 75.8574 100.704 73.5122 99.3826C72.2041 98.5381 70.9925 97.5531 69.8974 96.4452C64.1842 91.2887 58.4978 86.1087 52.7541 80.8966ZM19.8088 41.3953C26.6566 47.9492 32.8732 54.0056 39.2214 59.9203C41.6161 62.1518 41.9573 63.2356 40.1333 65.8683C39.7445 66.4148 39.322 66.9357 38.8683 67.4286C33.1305 73.8289 27.4344 80.2678 21.6289 86.6054C17.2643 91.3691 12.7611 96.0027 8.08644 100.939L17.7529 109.019C20.4003 106.218 22.8946 103.678 25.2782 101.037C32.7579 92.7502 40.1595 84.3929 47.6672 76.1336C50.8013 72.6851 52.5875 72.5863 56.2661 75.4205C60.3297 78.5527 64.3437 81.7503 68.3464 84.9635C69.9658 86.2629 71.4954 87.6741 73.3552 89.2853C83.3331 62.8638 93.1586 36.8472 103.098 10.53C75.2066 20.2959 47.6248 29.9116 19.8088 41.3953Z" fill="black"/>
</g>
<defs>
<clipPath id="clip0_8_2748">
<rect width="114" height="117" fill="white"/>
</clipPath>
</defs>
</svg>
