<svg width="154" height="150" viewBox="0 0 154 150" fill="none" xmlns="http://www.w3.org/2000/svg">
<path d="M116.151 72.8472C115.612 72.7973 115.072 72.7448 114.532 72.6909C112.314 72.4737 110.022 72.2499 107.757 72.2203C98.7203 72.1028 85.9289 72.011 73.5582 71.9231C63.9757 71.8575 54.9261 71.7917 47.9906 71.7162C47.4858 71.6976 46.9827 71.647 46.4843 71.5646L46.1463 71.5167L46.5821 71.0442C47.0731 70.5106 47.4806 70.0682 47.9053 69.6429C53.8983 63.5394 58.9076 56.5428 62.7543 48.9027L62.8764 48.6689C63.2569 48.007 63.5568 47.3019 63.7696 46.5687C63.8412 46.1337 63.8115 45.6882 63.683 45.2666C63.645 45.0972 63.6069 44.9279 63.5839 44.7618L63.5373 44.4165L63.1953 44.4822C62.9957 44.5171 62.7944 44.5417 62.5922 44.5558C62.0766 44.5442 61.5701 44.6932 61.143 44.9823C60.6692 45.4291 60.2437 45.9245 59.8736 46.4603C59.587 46.8638 59.2741 47.2481 58.937 47.6104C56.1773 50.4326 53.4115 53.2496 50.6396 56.0614C47.0787 59.6791 43.5245 63.3038 39.9768 66.9355C38.3946 68.4569 36.9681 70.1324 35.7184 71.9369C33.9358 74.7046 34.2088 77.0071 36.6248 79.6351C38.9469 82.1587 41.3787 84.8929 44.0592 87.9934C46.0107 90.2499 47.9525 92.515 49.8848 94.7885C51.9851 97.2511 54.0935 99.7086 56.21 102.161C57.0182 103.147 57.9661 104.009 59.0237 104.721C59.4265 104.938 59.8791 105.045 60.3364 105.033C60.7727 105.061 61.2052 104.935 61.5578 104.677C61.8492 104.328 62.0455 103.909 62.1276 103.462C62.2097 103.014 62.1748 102.553 62.0264 102.123C61.4536 101.071 60.7735 100.081 59.997 99.1696C59.8276 98.9556 59.6577 98.7417 59.4917 98.527C57.0553 95.3849 54.6168 92.2456 52.1761 89.1092C49.332 85.4521 46.4911 81.7935 43.6535 78.1333C43.4197 77.8079 43.2138 77.4634 43.0379 77.1034L42.9013 76.8475C44.4687 76.925 46.0115 77.0031 47.5298 77.0818C51.2854 77.2735 54.8323 77.4547 58.429 77.5925C66.0708 77.8839 77.2344 78.1681 88.0299 78.4418C97.323 78.678 106.101 78.9012 112.547 79.1237C113.811 79.1551 115.074 79.0657 116.32 78.8566C118.223 78.554 119.189 77.5748 119.188 75.9438C119.184 74.1303 118.106 73.0283 116.151 72.8472Z" fill="black"/>
<path d="M2.71968 54.1849C-4.07473 80.8893 1.875 104.447 20.4159 124.216C20.8983 124.727 21.3906 125.237 21.8822 125.73C31.8421 135.689 44.2475 141.838 54.0768 146.118C58.2958 147.96 79.9437 150.197 85.8003 149.325C120.608 144.128 143.514 124.495 151.492 91.6507C153.015 85.217 153.774 78.6259 153.752 72.0144C153.789 56.4395 147.231 38.3324 133.708 24.7712C132.316 23.62 130.927 22.4274 129.587 21.2722C126.676 18.7703 123.669 16.181 120.522 13.9717C96.4867 -2.94471 71.5131 -3.03987 46.2985 5.93096C23.4698 14.0453 8.80853 30.2837 2.71968 54.1849ZM46.3964 13.9245C68.5202 4.73049 90.7182 3.10802 112.368 16.878C116.327 19.3983 126.88 27.9281 128.542 29.2093L128.649 29.2882L128.737 29.3859C137.184 38.3429 146.855 54.7205 146.642 71.5562C146.571 78.7552 145.597 85.9168 143.741 92.8728C138.242 112.862 125.094 127.43 103.546 137.394C81.6404 147.882 50.2248 137.279 41.8663 131.761C32.6278 125.445 24.5442 117.587 17.969 108.531C7.65666 93.9308 5.34239 72.9438 10.8838 53.7584C13.4772 44.9 18.0093 36.7296 24.1516 29.8399C30.2939 22.9501 37.8925 17.5136 46.3964 13.9245Z" fill="black"/>
</svg>
