<svg width="154" height="150" viewBox="0 0 154 150" fill="none" xmlns="http://www.w3.org/2000/svg">
<path d="M2.7197 54.1884C-4.07471 80.8928 1.87493 104.451 20.4158 124.216C20.8989 124.727 21.3905 125.238 21.8827 125.729C31.842 135.689 44.2474 141.838 54.0774 146.118C58.2957 147.96 79.9437 150.197 85.8002 149.325C120.608 144.127 143.514 124.495 151.492 91.6509C153.015 85.2172 153.774 78.626 153.752 72.0145C153.79 56.4389 147.231 38.3319 133.708 24.7713C132.316 23.6201 130.928 22.4276 129.586 21.2718C126.676 18.7705 123.669 16.1806 120.522 13.9713C96.4867 -2.94511 71.5137 -3.03962 46.2985 5.9312C23.4698 14.0481 8.81051 30.2872 2.7197 54.1884ZM46.3963 13.9273C68.5201 4.73395 90.7181 3.11148 112.368 16.8808C116.327 19.4011 126.88 27.931 128.542 29.2121L128.649 29.2908L128.737 29.3881C137.184 38.3458 146.855 54.7227 146.642 71.5591C146.572 78.7578 145.597 85.9192 143.742 92.875C138.242 112.864 125.094 127.432 103.546 137.396C81.6403 147.885 50.2254 137.281 41.8669 131.764C32.6282 125.448 24.5445 117.59 17.9691 108.534C7.65668 93.9329 5.3424 72.9466 10.8806 53.7612C13.4744 44.9025 18.0071 36.7321 24.15 29.8423C30.2929 22.9526 37.892 17.5161 46.3963 13.9273Z" fill="black"/>
<path d="M46.6761 89.0431C46.6638 89.5591 46.8129 90.0659 47.1027 90.493C47.5492 90.9666 48.0441 91.3921 48.5794 91.7624C48.9834 92.0486 49.3678 92.3615 49.73 92.699C52.5392 95.4455 55.3426 98.1982 58.1403 100.957C61.7721 104.531 65.4104 108.098 69.0552 111.659C70.5769 113.241 72.2522 114.667 74.0565 115.918C75.0448 116.622 76.2173 117.023 77.4301 117.071C78.8636 117.071 80.2563 116.389 81.7547 115.011C84.279 112.689 87.0133 110.257 90.1132 107.577C92.3701 105.626 94.6353 103.684 96.9089 101.751C99.3715 99.6509 101.829 97.5426 104.281 95.4261C105.267 94.6177 106.129 93.6698 106.841 92.6123C107.238 91.9789 107.289 90.6112 106.797 90.0802C106.447 89.7888 106.029 89.5925 105.581 89.5104C105.134 89.4283 104.673 89.4631 104.243 89.6115C103.194 90.1837 102.206 90.8626 101.296 91.6371C101.08 91.8077 100.865 91.979 100.649 92.1463C97.5075 94.5827 94.3682 97.021 91.2309 99.4612C87.5738 102.305 83.9153 105.146 80.2556 107.984C79.9297 108.218 79.5851 108.424 79.2252 108.6L78.9698 108.737C79.0469 107.169 79.1248 105.626 79.2036 104.108C79.3952 100.353 79.5763 96.8056 79.7142 93.2089C80.0062 85.5671 80.2897 74.4042 80.5634 63.6081C80.8004 54.315 81.0229 45.5372 81.2454 39.0906C81.2775 37.8272 81.188 36.5636 80.9783 35.3173C80.6764 33.414 79.6978 32.4497 78.0694 32.4497H78.0661C76.2467 32.4497 75.1447 33.5288 74.9636 35.484C74.9137 36.0226 74.8619 36.5624 74.808 37.1032C74.5908 39.321 74.3663 41.6136 74.3368 43.8786C74.2193 52.915 74.1281 65.7071 74.0395 78.0738C73.9738 87.6564 73.9082 96.7066 73.8327 103.642C73.8143 104.147 73.7637 104.649 73.6811 105.147C73.666 105.257 73.6496 105.37 73.6338 105.487L73.1534 105.044C72.6238 104.556 72.1833 104.15 71.7593 103.727C65.6558 97.734 58.6591 92.7249 51.0191 88.8784L50.7847 88.7563C50.1228 88.3757 49.4177 88.0756 48.6845 87.8623C48.2496 87.7924 47.8046 87.8223 47.3829 87.9497C47.213 87.9877 47.0436 88.0259 46.8776 88.0489L46.533 88.0955L46.5987 88.4374C46.6346 88.6379 46.6604 88.84 46.6761 89.0431Z" fill="black"/>
</svg>
