<svg width="164" height="147" viewBox="0 0 164 147" fill="none" xmlns="http://www.w3.org/2000/svg">
<g clip-path="url(#clip0_8_2772)">
<path d="M162.86 89.6238C162.292 76.0797 161.715 64.252 161.096 53.4653C160.673 46.068 160.067 36.3332 159.144 26.6363C157.801 12.4868 146.364 2.24599 131.329 1.73246C120.2 1.35103 108.877 1.19157 97.9219 1.03745C94.7981 0.994064 91.6261 1.02104 88.5576 1.04694C83.5237 1.08903 78.318 1.13355 73.2249 0.864807C61.6557 0.259321 49.3881 0.765566 33.4613 2.51726C23.1 3.657 15.3041 6.68799 8.92115 12.0564C3.6608 16.4806 1.09669 21.6118 1.08368 27.7443C1.07912 29.7182 1.03934 31.7201 0.965149 33.6927C0.900069 35.4295 0.779731 37.2034 0.664541 38.9201C0.338503 42.5939 0.251613 46.2851 0.404286 49.97C0.501905 51.506 0.601668 53.0423 0.703627 54.5783C1.49369 66.6141 2.31171 79.0566 1.48455 91.3386C1.14223 96.4039 1.23601 101.57 1.32582 106.562L1.346 107.667C1.49763 116.237 2.75691 123.769 5.19674 130.694C7.82853 138.165 12.9379 142.71 20.3836 144.198C24.9903 145.151 29.6657 145.74 34.3658 145.958C43.1138 146.314 52.0116 146.512 60.617 146.703C64.1157 146.782 67.6144 146.862 71.1124 146.947H71.1248C71.2419 146.945 71.3552 146.907 71.4502 146.838H74.2206C76.5322 146.838 78.8452 146.838 81.1587 146.838L84.8292 146.844C99.3204 146.874 114.3 146.903 128.928 144.622C134.029 143.826 139.987 142.715 145.509 140.507C156.586 136.076 162.565 127.908 163.275 116.228C163.731 108.72 163.388 101.163 163.053 93.8544C162.986 92.444 162.922 91.0342 162.86 89.6238ZM10.895 81.4364C10.7128 73.5975 10.3159 65.1661 9.64489 54.904C9.1145 46.8002 8.79164 36.1162 11.031 25.2874C11.0832 25.1396 11.1054 24.9829 11.0962 24.8264C10.5794 18.7437 14.943 16.3614 19.563 13.8391L19.723 13.7525C24.2043 11.3046 29.1681 10.4497 33.8674 9.79111C44.5638 8.39112 55.3459 7.74192 66.1339 7.84838C70.6289 7.84838 75.0621 7.92279 79.41 8.01345C87.3159 8.17923 95.3545 8.28673 103.127 8.39034C109.911 8.481 116.924 8.57509 123.822 8.7072C127.019 8.74586 130.209 9.01719 133.366 9.5192C144.714 11.4004 150.99 18.7427 151.516 30.7514C151.947 40.6088 152.344 50.6319 152.728 60.3281C153.017 67.6074 153.31 74.8862 153.61 82.1656C153.72 84.7903 153.87 87.4557 154.016 90.033C154.245 94.0804 154.482 98.265 154.565 102.378C154.665 107.249 154.393 112.227 154.109 116.909C153.692 123.735 149.701 128.584 142.247 131.321C137.682 132.916 132.964 134.037 128.167 134.666C112.01 137.062 95.4267 136.955 79.3925 136.854L77.2741 136.839C76.4424 136.834 75.6114 136.839 74.7796 136.839H73.5958C73.4911 136.839 73.3882 136.864 73.2945 136.911C73.2015 136.958 73.1201 137.026 73.0583 137.109C69.544 137.02 66.0297 136.934 62.5154 136.851C52.2556 136.6 41.6464 136.341 31.2168 136C28.5296 135.838 25.859 135.471 23.2289 134.899L22.748 134.807C18.3395 133.965 15.3893 131.257 13.981 126.751C11.842 119.707 10.7721 112.384 10.8065 105.026C10.7831 101.662 10.8313 98.2378 10.8775 94.9242C10.9328 90.4999 10.9978 85.9326 10.895 81.4345V81.4364Z" fill="black"/>
<path d="M46.9807 90.0999C48.7856 91.7351 50.5889 93.3715 52.3908 95.0086C59.1851 101.176 66.2111 107.553 73.2059 113.733C74.54 114.989 76.2945 115.706 78.1304 115.745C80.0255 115.699 81.8334 114.944 83.1943 113.63C85.146 111.888 86.8315 109.871 88.1969 107.643C93.4299 98.9167 98.5894 89.9523 103.58 81.2832L104.257 80.1059C104.566 79.49 104.758 78.8224 104.823 78.1372C104.866 77.8665 104.908 77.5946 104.969 77.3349C104.998 77.2054 104.989 77.07 104.942 76.9463C104.894 76.822 104.811 76.7145 104.702 76.6381L103.971 76.1278C103.862 76.0514 103.731 76.0093 103.597 76.0067C103.464 76.0048 103.332 76.0423 103.22 76.1148C102.933 76.302 102.635 76.4768 102.334 76.6517C101.62 77.0357 100.951 77.4981 100.339 78.0291C94.7523 83.1961 89.8167 89.0204 85.6419 95.3731C85.2143 96.0298 84.749 96.6864 84.298 97.3211C84.298 96.7991 84.298 96.2772 84.298 95.7552L84.2681 84.9633C84.2245 68.9708 84.175 52.9782 84.119 36.986C84.1086 35.6278 83.9915 34.2719 83.7696 32.9317C83.7207 32.4398 83.5717 31.963 83.3329 31.5297C83.094 31.0964 82.7693 30.7157 82.3788 30.4103C82.1204 30.2429 81.8295 30.1324 81.525 30.086C81.2204 30.0395 80.9093 30.0581 80.6126 30.1409C79.5101 30.4155 78.6602 31.5944 77.904 32.8268C77.5929 33.4586 77.4582 34.1617 77.5135 34.8631C77.5135 35.0483 77.5102 35.2314 77.5005 35.4076C77.3742 37.6322 77.2414 39.8554 77.1028 42.0775C76.7774 47.3876 76.4436 52.8742 76.2568 58.2815C75.9171 68.195 75.649 78.2771 75.3906 88.0264C75.2663 92.7129 75.1394 97.3994 75.0092 102.085C74.993 102.436 74.9578 102.787 74.9044 103.134C74.894 103.126 74.883 103.118 74.8719 103.11C74.3233 102.713 73.8899 102.398 73.4779 102.053C70.5467 99.5921 67.6182 97.132 64.6921 94.6712C60.7379 91.3465 56.7815 88.0231 52.823 84.7011C52.6277 84.5372 52.4293 84.3604 52.2301 84.183C51.5063 83.4079 50.5978 82.8263 49.5885 82.4928C48.8786 82.327 48.1428 82.3024 47.4232 82.4197C46.7036 82.5369 46.0144 82.7946 45.3947 83.1773C43.9571 84.2523 43.8602 86.1348 45.1468 87.9752C45.677 88.7491 46.292 89.4614 46.9807 90.0999Z" fill="black"/>
</g>
<defs>
<clipPath id="clip0_8_2772">
<rect width="164" height="147" fill="white"/>
</clipPath>
</defs>
</svg>
