<svg width="155" height="149" viewBox="0 0 155 149" fill="none" xmlns="http://www.w3.org/2000/svg">
<g clip-path="url(#clip0_8_2778)">
<path d="M109.672 7.87992C77.8086 -8.45631 36.3363 1.66066 17.222 30.4377C16.6967 31.2281 16.158 32.0108 15.6184 32.7927C14.5983 34.2737 13.543 35.8052 12.5981 37.3782C2.36544 54.416 -1.31901 70.8668 1.3348 87.663C5.72149 115.432 21.1502 134.533 47.1915 144.433C54.6493 147.185 62.5491 148.548 70.4989 148.456C77.4642 148.37 84.4061 147.638 91.2352 146.269C92.0543 146.103 92.8475 145.829 93.5933 145.454C96.214 144.179 97.6064 141.895 97.2251 139.49C96.8489 137.112 94.7282 135.375 91.8202 135.067C90.992 135.009 90.1599 135.052 89.3428 135.197C88.4673 135.32 87.5943 135.465 86.7227 135.61C85.9522 135.739 85.1824 135.869 84.4094 135.979C72.7273 137.679 62.6727 137.221 53.673 134.579C36.0393 129.401 14.6839 112.541 12.5341 82.0664C11.0813 61.4831 18.6259 43.0246 34.9586 27.204C49.334 13.2796 67.849 8.48182 89.9933 12.9518C103.733 15.7245 115.852 22.9405 127.044 35.014C135.368 43.9942 139.852 52.0116 141.584 61.0099C143.778 72.4119 142.28 82.1053 137.004 90.6469C132.24 98.356 125.702 102.268 117.567 102.268H117.357C109.978 102.207 105.623 98.7318 104.042 91.6433C103.538 89.4102 103.22 87.1396 103.092 84.854C102.664 76.6629 102.288 68.0838 101.942 58.6274C101.861 56.4306 101.35 53.755 98.0876 52.5578C97.2653 52.1844 96.5221 51.6566 95.8988 51.003C93.2321 48.4824 89.872 46.7735 85.6273 45.7784C73.3992 42.915 61.8324 45.1955 50.2631 52.764C45.9647 55.442 42.6297 59.415 40.7391 64.1098C39.234 67.7281 38.1424 71.5049 37.4856 75.3679C36.2151 83.8162 37.6718 90.6029 41.9398 96.1171C47.2643 102.998 54.0551 107.065 62.1248 108.198C65.775 108.754 69.4619 109.041 73.1547 109.057C80.2704 109.003 88.4783 108.109 95.6647 101.996C95.7594 102.125 95.8405 102.239 95.9176 102.358C100.611 109.596 107.703 113.364 116.995 113.555C128.922 113.801 138.862 108.357 145.739 97.8125C156.87 80.7462 157.342 62.3764 147.138 43.2137C139.307 28.4989 126.7 16.61 109.672 7.87992ZM92.1769 69.5336C92.2074 70.5611 92.2417 71.6183 92.2482 72.6613C92.1477 72.7203 92.0647 72.8038 92.007 72.9049C91.9492 73.006 91.9194 73.1193 91.9194 73.2359C91.9194 74.5419 91.9227 75.848 91.9291 77.1546C91.9395 80.0012 91.9505 82.9455 91.9077 85.8355C91.8131 92.2872 88.761 96.0938 82.5766 97.4743C75.4207 99.1742 67.9463 98.9929 60.8817 96.9477C51.2542 94.0733 46.4143 86.8416 47.6044 77.1119L47.65 76.7322C47.7914 75.5713 47.9368 74.3709 48.1592 73.2171C49.479 66.3916 53.0588 61.4817 59.1045 58.2069C65.3081 54.8467 71.3511 53.1838 77.4208 53.1838C79.6031 53.1862 81.7802 53.3971 83.9223 53.8139C85.7142 54.1895 87.4614 54.7525 89.1353 55.4933C91.3876 56.4456 92.8021 57.7274 92.3825 60.8856C92.0809 63.758 92.0122 66.6501 92.1769 69.5336Z" fill="black"/>
</g>
<defs>
<clipPath id="clip0_8_2778">
<rect width="155" height="149" fill="white"/>
</clipPath>
</defs>
</svg>
