<svg width="91" height="101" viewBox="0 0 91 101" fill="none" xmlns="http://www.w3.org/2000/svg">
<g clip-path="url(#clip0_8_2780)">
<path d="M90.1377 80.4837C89.7795 60.0979 89.4532 39.3715 89.138 19.323L89.0652 14.7262C89.0424 13.276 89.0417 11.8251 89.0411 10.3755C89.0411 8.64292 89.0411 6.85212 88.9989 5.08785C88.9079 1.06986 87.8666 0.824448 84.2695 0.594608C80.062 0.32398 77.1117 2.27796 75.0128 4.00985C70.4036 7.81291 65.8991 11.6943 61.6225 15.5452C52.8033 23.4912 44.0257 32.6875 33.9975 44.4857L33.6543 44.8948C32.5207 46.2544 31.5405 47.434 29.7634 47.3272C29.6264 47.3191 29.4904 47.3536 29.374 47.4258C29.2575 47.4981 29.1664 47.6046 29.1134 47.7306C27.9551 50.4369 29.0159 52.2923 30.206 53.7517C30.7694 54.4423 31.3327 55.1381 31.896 55.839C34.1441 58.7449 36.559 61.5188 39.1286 64.147C44.3787 69.3103 49.9297 74.19 54.6636 78.2824C61.9553 84.582 69.2161 90.5805 75.3573 95.6175C77.3171 97.3345 79.5004 98.7803 81.8489 99.9159C82.6919 100.294 83.6058 100.492 84.5308 100.499C85.7365 100.501 86.913 100.132 87.901 99.4432C88.8481 98.7544 89.6007 97.8331 90.085 96.7687C90.5693 95.7049 90.7695 94.5337 90.6655 93.3703C90.3795 88.6336 90.2066 84.4156 90.1377 80.4837ZM81.2925 11.9202C81.2801 36.4581 81.0214 59.7703 80.5034 83.0896C78.4623 81.4374 76.4662 79.8026 74.4961 78.1892C69.2792 73.9161 64.3512 69.8826 59.2032 66.0064C53.9948 62.0842 48.5296 58.3058 43.2444 54.6517C41.1402 53.1975 39.0352 51.7361 36.9296 50.2672C37.4826 49.8788 38.0366 49.4924 38.5917 49.1083C47.017 43.269 53.4943 38.1194 58.9764 32.8998C64.8309 27.3253 70.8125 21.6862 76.5969 16.2322L79.5323 13.465C80.0653 12.962 80.6327 12.4803 81.2873 11.9222L81.2925 11.9202Z" fill="black"/>
<path d="M11.1605 26.1022C11.0461 21.3358 10.6801 16.504 10.3259 11.8321C10.2089 10.286 10.0919 8.7399 9.98332 7.19447C9.87926 5.93581 9.64649 4.69108 9.28854 3.47953C9.11115 2.67911 8.6555 1.96682 8.00212 1.46854C7.34868 0.970271 6.53943 0.718037 5.71741 0.756384H5.69853C4.86929 0.705833 4.04985 0.956792 3.39234 1.46262C2.73484 1.96845 2.28398 2.69479 2.12353 3.50672C1.65122 5.48465 1.37001 7.50304 1.28373 9.53431C1.04323 17.466 0.859996 25.4004 0.712446 31.7751L0.582397 37.2187C0.581747 37.2297 0.581747 37.2407 0.582397 37.2517C0.691594 41.6296 0.759227 45.594 0.824877 49.4274C0.962677 57.4602 1.08097 64.398 1.53272 71.3165C1.90127 76.9673 2.68585 82.6726 3.4444 88.1913C3.798 90.7655 4.16458 93.4271 4.48438 96.0453C4.69303 97.7559 5.50095 98.6228 6.88932 98.6228H6.91864C7.90859 98.6137 9.13709 98.1592 9.37044 96.0453C9.63824 93.6246 9.97689 91.1591 10.3045 88.7753C11.1351 83.5259 11.6411 78.2305 11.8196 72.9196C11.988 59.4024 11.6454 45.6587 11.3139 32.3681L11.1605 26.1022Z" fill="black"/>
</g>
<defs>
<clipPath id="clip0_8_2780">
<rect width="91" height="101" fill="white"/>
</clipPath>
</defs>
</svg>
