<svg width="148" height="148" viewBox="0 0 148 148" fill="none" xmlns="http://www.w3.org/2000/svg">
<path d="M50.2186 26.4413C51.6626 22.7698 52.8558 19.4618 54.2492 16.2405C57.8827 7.83941 67.8915 -0.668112 79.7751 0.422721C85.5509 0.95173 90.1236 3.82919 94.1922 7.65301C98.297 11.5103 100.663 16.4439 102.457 21.688C102.756 22.5636 103.031 23.4476 103.407 24.604C104.478 24.6697 105.582 24.753 106.689 24.7937C111.954 24.9867 117.219 25.1501 122.483 25.3693C123.309 25.3947 124.125 25.5584 124.896 25.8533C126.931 26.673 127.772 28.3519 126.831 30.3419C126.127 31.8394 126.027 33.5506 126.552 35.1198C131.987 55.106 134.893 75.5908 138.556 95.9287C140.296 105.589 142.428 115.178 144.243 124.827C145.119 129.491 145.749 134.206 146.325 138.919C146.816 142.938 144.829 145.479 140.767 146.058C138.21 146.425 135.631 146.615 133.049 146.624C98.2628 146.685 63.4766 146.724 28.6907 146.742C22.489 146.754 16.2892 147.132 10.0875 147.168C8.12409 147.16 6.17266 146.863 4.29597 146.286C0.930274 145.273 -0.481487 142.844 0.165662 139.349C1.42583 132.54 2.81853 125.757 4.12267 118.956C7.19695 102.923 10.1334 86.8601 13.3626 70.8586C15.1196 62.1512 17.3695 53.5428 19.3819 44.8864C20.2948 40.9582 21.1435 37.0149 22.0677 33.0893C23.1539 28.4759 23.9632 27.9699 28.5739 27.7665C32.9012 27.5775 37.2126 27.0444 41.5372 26.7596C44.4113 26.5679 47.2973 26.5424 50.2186 26.4413ZM136.351 136.504C135.276 131.932 134.279 128.037 133.452 124.107C131.305 113.888 128.981 103.699 127.188 93.4176C124.224 76.4184 121.635 59.3599 118.853 42.3319C118.393 39.5004 117.757 36.6971 117.125 33.4896C112.99 33.9129 109.087 32.7867 104.843 33.2271C105.027 34.8024 105.129 36.0206 105.318 37.227C105.734 40.3299 105.135 43.4841 103.611 46.2186C103.27 46.9897 102.68 47.6238 101.935 48.0188C101.191 48.4138 100.334 48.5466 99.5053 48.3963C98.6724 48.2972 97.8946 47.929 97.2901 47.3473C96.6857 46.7656 96.2879 46.0024 96.158 45.1739C96.0431 44.6705 95.9689 44.1565 95.9013 43.6439C95.4452 40.1896 94.9962 36.7338 94.5302 33.1765H57.3635C57.0203 36.0939 56.7072 38.8329 56.3725 41.5691C56.1756 43.2028 56.039 44.851 55.697 46.4577C55.5927 47.1363 55.257 47.7578 54.7467 48.2171C54.2364 48.6765 53.5829 48.9453 52.8971 48.9779C51.1873 49.0954 50.2061 47.9896 49.7526 46.499C49.3076 45.1277 49.0164 43.7112 48.8842 42.2755C48.7398 40.2152 48.881 38.136 48.8317 36.0665C48.7597 35.2379 48.6362 34.4143 48.4616 33.6011C42.3301 33.609 36.4506 33.1997 30.2639 34.4796C23.4288 68.9552 16.5859 103.471 9.66412 138.388C10.6729 138.388 11.7703 138.431 12.8638 138.38C20.9177 138.003 28.9671 137.503 37.0243 137.244C46.9514 136.924 56.8838 136.669 66.8157 136.617C88.6659 136.504 110.517 136.535 132.368 136.507C133.585 136.503 134.802 136.504 136.351 136.504ZM93.3029 25.1549C92.4884 20.2035 89.9588 15.6959 86.1567 12.4217C81.9752 9.00874 77.3821 8.41829 72.4714 10.2377C65.3176 12.8899 61.7918 18.5731 59.8188 25.7876L93.3029 25.1549Z" fill="black"/>
</svg>
