<svg width="96" height="158" viewBox="0 0 96 158" fill="none" xmlns="http://www.w3.org/2000/svg">
<g clip-path="url(#clip0_8_2861)">
<path d="M33.9391 116.415C14.6631 103.367 4.36328 85.501 1.20892 63.2314C-0.0381279 54.4483 -0.0276048 45.6185 2.6916 37.2115C9.09745 17.4072 22.6389 5.01808 43.1974 1.10827C53.7841 -0.904715 63.4744 2.47019 72.0804 8.64894C84.1701 17.329 92.0252 28.8844 94.5928 43.6973C96.4804 54.508 94.9288 65.6383 90.1572 75.5214C85.3397 85.8089 78.5788 94.741 70.5235 102.666C65.5772 107.531 60.2845 112.045 55.0995 116.763C55.9691 117.27 57.1998 117.933 58.372 118.68C60.2564 119.818 61.8334 121.399 62.9651 123.287C64.0968 125.175 64.7486 127.312 64.8637 129.51C65.0423 131.748 65.2675 133.989 65.3023 136.232C65.3771 141.043 67.6744 144.536 71.5257 147.17C74.8547 149.447 78.2033 151.699 81.5021 154.015C82.0409 154.504 82.5161 155.059 82.9152 155.667C82.2477 156.185 81.6183 157.069 80.9035 157.146C79.2528 157.321 77.4472 157.465 75.9062 156.98C70.7001 155.343 66 152.727 62.3429 148.567C59.0435 144.814 58.0274 140.31 58.2308 135.413C58.3918 133.067 58.3479 130.71 58.0996 128.372C57.8889 126.809 56.9839 125.341 56.0807 123.055C55.4434 124.503 55.1913 125.149 54.8809 125.765C54.5476 126.422 54.04 126.975 53.4136 127.363C52.7872 127.75 52.0662 127.958 51.3295 127.963C45.0759 128.416 38.8165 128.781 32.5675 129.287C30.4981 129.453 28.7475 129.167 27.6494 127.243C26.6452 125.483 26.9832 123.684 28.7651 121.73C30.406 119.931 32.1631 118.231 33.9391 116.415ZM87.7222 51.2026C87.669 50.0048 87.6237 48.4335 87.5187 46.8662C87.4439 46.1985 87.3343 45.5351 87.1906 44.8788C84.9899 32.1504 78.3464 22.1893 67.9165 14.8146C61.8716 10.5406 55.1992 7.83967 47.4892 8.28073C30.9863 9.22455 14.6067 23.2781 10.2355 39.7981C8.23457 47.6529 7.82409 55.8285 9.02795 63.8443C10.9609 77.9 16.707 90.2227 25.6122 101.177C28.6924 104.967 32.4736 107.916 36.3571 110.802C39.2588 112.96 42.1985 112.628 45.2478 111.452C45.9573 111.119 46.6463 110.744 47.3113 110.33C53.6463 106.97 58.7317 102.034 63.8196 97.1261C71.0118 90.335 77.1 82.4635 81.865 73.7953C85.5983 66.842 87.6073 59.0938 87.7222 51.2026Z" fill="black"/>
</g>
<defs>
<clipPath id="clip0_8_2861">
<rect width="95.8253" height="157.521" fill="white"/>
</clipPath>
</defs>
</svg>
