<svg width="164" height="136" viewBox="0 0 164 136" fill="none" xmlns="http://www.w3.org/2000/svg">
<g clip-path="url(#clip0_8_2863)">
<path d="M123.83 29.6972C127.982 28.4674 132.365 28.2222 136.628 28.981C142.776 30.067 148.338 33.3032 152.32 38.1115C161.076 48.5249 163.98 60.675 162.434 73.9806C161.893 78.636 159.701 82.7558 157.059 86.5744C152.982 92.3718 148.065 97.5306 142.469 101.881C139.011 104.587 135.104 106.664 130.927 108.019C129.881 108.367 128.844 108.74 127.825 109.097C129.448 115.52 127.949 117.306 121.524 116.868C120.181 116.776 118.83 116.69 117.486 116.725C114.936 116.79 112.504 116.634 110.767 113.501C109.844 115.461 109.094 116.806 108.571 118.233C108.042 119.71 107.624 121.224 107.319 122.762C106.277 127.836 103.109 131.331 98.9888 134.123C97.1366 135.378 95.1669 135.481 94.3977 134.475C93.574 133.398 94.0315 131.816 95.7242 130.049C96.6555 129.075 97.6111 128.125 98.5904 127.198C100.663 125.281 102.156 122.821 102.901 120.097C104.19 115.321 106.182 111.04 111.277 108.199C105.288 105.868 100.164 101.746 96.6056 96.3938C94.4397 97.5523 92.4897 98.5939 90.3461 99.7412C90.7242 100.846 91.1442 101.851 91.4127 102.896C92.4201 106.819 90.2569 109.55 86.1987 109.586C84.9169 109.597 83.1579 108.724 82.5088 110.217C81.8065 111.841 81.5453 113.622 81.7514 115.38C82.1071 117.907 83.2137 120.318 83.7453 122.832C84.1811 124.796 84.3695 126.807 84.3065 128.818C84.1733 130.262 83.7401 131.663 83.0339 132.931C81.7914 135.352 80.1243 136.241 78.5773 135.622C77.0815 135.026 76.609 133.342 77.7011 130.598C78.9921 127.358 78.6285 124.244 77.7772 121.041C76.7632 117.227 75.9336 113.389 77.4556 109.293C76.6628 108.997 75.9566 108.774 75.2845 108.474C72.4622 107.214 72.031 104.754 74.3229 102.632C75.379 101.654 76.6024 100.857 77.7116 100.007L61.7623 93.0682L51.9219 109.005C52.9261 110.9 54.0057 112.549 56.1224 113.543C58.2562 114.543 59.324 116.623 59.8707 118.885C60.1478 119.974 60.3339 121.084 60.4268 122.204C60.5173 123.665 60.9367 125.087 61.6535 126.363C62.3704 127.639 63.3663 128.737 64.5668 129.574C65.8687 130.634 67.0835 131.797 68.2013 133.05C69.2954 134.198 68.8917 135.477 67.3323 135.644C66.2178 135.762 65.0913 135.677 64.007 135.395C61.5135 134.685 59.3058 133.21 57.6955 131.179C56.0852 129.148 55.1537 126.662 55.0323 124.072C54.947 122.169 54.7559 120.273 54.5505 118.381C54.4099 117.928 54.2009 117.498 53.9309 117.108C49.7119 119.524 45.2016 119.006 40.8206 118.657C37.2763 118.375 36.2767 115.631 38.2122 112.548C38.5069 112.078 38.8653 111.648 39.3589 110.977C38.6291 110.554 38.0265 110.138 37.3714 109.836C33.7038 108.142 29.9778 106.572 26.3561 104.787C4.16603 93.8525 -3.12264 70.901 2.29871 50.0245C4.24344 42.5338 7.84944 36.0157 13.6725 30.9251C20.6461 24.8284 28.6428 21.9386 37.9661 24.3986C39.6798 24.8508 41.307 25.6331 43.2058 26.3511C43.6449 25.4683 44.1004 24.6132 44.504 23.7338C49.3222 13.2402 57.1214 6.15688 68.2912 2.92769C75.5844 0.818224 82.9669 -0.171433 90.589 0.653584C103.58 2.06011 112.947 8.77372 119.27 19.9564C120.962 22.971 122.221 26.2291 123.83 29.6972ZM118.245 49.9472C118.135 37.8266 116.033 29.94 111.99 22.6651C107.479 14.5508 100.707 9.49444 91.2696 8.1962C83.2321 7.09027 75.6172 8.54859 68.1849 11.4122C62.6878 13.5532 58.0737 17.4867 55.0894 22.5758C50.8396 29.5101 49.3097 37.1584 49.6614 45.1618C50.05 54.004 52.5388 62.371 55.7864 70.5761C60.5219 82.5385 68.7001 90.6089 81.202 94.1675C82.5285 94.5456 83.5182 94.5712 84.6347 93.7875C91.6214 88.884 98.7945 84.2122 104.635 77.8772C112.889 68.9274 118.526 58.8425 118.245 49.9465V49.9472ZM41.4472 32.7459C39.3762 31.5146 37.0292 30.8231 34.6214 30.7349C27.6878 30.5564 22.2975 33.6628 17.9433 38.7691C11.5847 46.2257 9.86506 55.2359 10.1794 64.613C10.589 76.833 15.1637 87.274 25.8056 93.991C32.2082 98.0321 39.1876 101.16 45.9899 104.742C50.4366 99.4957 54.8149 94.7333 57.5952 88.9129C44.2755 71.6624 39.2262 54.1339 41.4472 32.7459ZM101.563 92.9881C102.36 93.8978 103.073 94.7477 103.823 95.5596C106.808 98.7842 110.679 100.535 114.648 102.184C116.195 102.827 117.595 103.089 119.176 102.512C120.135 102.193 121.111 101.93 122.1 101.725C130.801 99.7451 138.72 95.2295 144.856 88.7495C151.825 81.4411 156.597 73.508 155.016 62.8527C153.855 55.0226 151.603 47.7102 146.108 41.8025C140.522 35.7938 133.561 34.058 125.463 35.5203C125.817 38.7954 126.282 41.7743 126.439 44.7698C127.222 59.6746 121.562 72.1796 111.774 83.0131C108.703 86.4083 105.222 89.4353 101.563 92.9881Z" fill="black"/>
</g>
<defs>
<clipPath id="clip0_8_2863">
<rect width="163.428" height="135.862" fill="white"/>
</clipPath>
</defs>
</svg>
