<svg width="155" height="127" viewBox="0 0 155 127" fill="none" xmlns="http://www.w3.org/2000/svg">
<path d="M143.093 31.592C138.384 31.592 124.202 31.5355 122.474 31.5362L118.637 28.1706C115.626 25.5308 112.594 22.2171 109.573 19.5471C108.163 18.3001 106.736 17.0733 105.307 15.8453C100.373 11.6001 95.2702 7.21034 91.0211 2.11125C90.3949 1.37892 89.5824 0.829635 88.6701 0.521365C87.7571 0.213095 86.7779 0.157343 85.836 0.360164C85.1718 0.418159 84.5325 0.644345 83.9792 1.01714C83.4259 1.38994 82.977 1.89716 82.6738 2.49134C82.4217 3.12148 82.3318 3.8048 82.4126 4.47862C82.4926 5.15244 82.7407 5.79524 83.1332 6.3486C83.4535 6.82205 83.8302 7.25536 84.2542 7.63853L84.3415 7.72379C87.8326 11.1446 91.325 14.5645 94.818 17.9835C99.0225 22.1007 103.228 26.8745 107.43 30.9943C107.806 31.3632 108.175 31.7588 108.557 32.1756L45.8808 34.6042C46.0061 34.4565 46.1039 34.3481 46.2037 34.249L54.7276 25.8477C60.3642 20.2908 65.9975 14.7324 71.6283 9.17233C72.4828 8.36995 73.2429 7.47202 73.8933 6.49634C74.9231 4.8555 74.8338 3.20236 73.6478 1.96319C73.1214 1.40236 72.4198 1.03804 71.6578 0.930613C70.8965 0.82319 70.1213 0.978854 69.4604 1.37223C68.6071 1.77357 67.7985 2.26418 67.0483 2.83585C65.9772 3.70222 64.9023 4.56449 63.8238 5.4221C60.6484 7.95817 57.3647 10.5808 54.2734 13.3283C48.623 18.3492 43.0283 23.6142 37.6175 28.7074L36.4479 29.8082C35.2967 30.8911 34.2544 32.7131 33.0474 34.0626C32.5066 34.667 26.9888 34.7519 26.9888 34.7519C22.059 34.8372 16.9409 34.9256 11.8234 35.0188C11.5123 35.0248 11.1999 35.0255 10.8881 35.0255C9.93605 35.0033 8.98371 35.0522 8.03897 35.1724C4.45339 35.7184 0.775277 37.6666 0.321748 41.4149C-0.0582718 44.5555 1.37714 46.5493 5.39655 48.5032C5.41165 48.5157 5.4274 48.5301 5.44446 48.5471C5.89996 50.8417 6.34999 53.1427 6.79456 55.4499C7.82895 60.7748 8.89484 66.2798 10.0762 71.6827C10.9295 75.586 11.8726 79.5338 12.7869 83.3518C13.9762 88.3222 15.2062 93.4594 16.2412 98.5466C17.4089 104.386 19.1909 110.086 21.5576 115.551C23.9204 120.989 28.1649 124.073 34.1789 124.715C41.2628 125.472 48.1904 126.159 55.0603 126.206C56.4465 126.216 57.8334 126.22 59.2209 126.22C70.3727 126.22 81.4504 125.913 91.1228 125.617C97.8175 125.411 104.864 124.965 112.657 124.252C122.706 123.333 129.334 118.487 132.922 109.437C136.323 100.858 138.396 91.8093 140.401 83.0603C140.643 82.0063 140.885 80.9529 141.129 79.8988C142.905 72.2196 144.585 64.3855 146.211 56.8087C146.906 53.5664 147.605 50.3237 148.308 47.081C151.863 45.5766 153.839 42.541 153.882 38.4973C153.934 34.0952 150.63 31.592 143.093 31.592ZM14.6214 49.0003C14.6476 48.9813 14.6726 48.9629 14.6975 48.9471C15.9544 48.9373 17.2126 48.9175 18.4708 48.8978C21.6212 48.8485 24.8747 48.7981 28.0638 48.9045C57.3194 49.8831 87.148 49.1182 115.995 48.3792C123.457 48.1875 131.163 47.9902 138.782 47.8241C138.636 48.4975 138.494 49.1539 138.357 49.7931C137.963 51.6388 137.586 53.382 137.163 55.1003L135.712 60.9993C132.66 73.4043 129.505 86.2259 126.326 98.819C125.319 103.008 123.629 107.004 121.324 110.644C119.778 113.045 117.823 114.385 115.348 114.738C114.516 114.858 113.685 114.979 112.854 115.101C108.44 115.748 103.877 116.414 99.3841 116.628C88.6458 117.133 78.8526 117.359 69.4433 117.319C62.8242 117.29 56.0882 116.962 49.5733 116.645C47.4573 116.542 45.3417 116.442 43.2266 116.346C41.0895 116.252 38.9138 116.062 36.8095 115.88C35.9344 115.804 35.0609 115.73 34.1888 115.658C31.4033 115.436 29.8773 114.083 29.242 111.261C27.8157 104.943 26.2825 98.5394 24.8005 92.3475C24.2474 90.0359 23.6957 87.7236 23.1452 85.412L20.8822 75.8885C18.7859 67.0693 16.693 58.2493 14.6037 49.4282C14.5897 49.2854 14.5957 49.1415 14.6214 49.0003Z" fill="black"/>
<path d="M35.1906 70.8955C37.9039 79.8874 40.4294 88.1966 42.9117 96.3024C43.1856 97.2048 43.5518 98.0758 44.0045 98.9028C44.8794 100.49 46.1357 101.351 47.5002 101.351C47.882 101.349 48.2609 101.285 48.6219 101.16C50.8127 100.42 51.0339 98.4479 51.07 96.6581V96.5813L51.0536 96.5065C51.0096 96.3017 50.9689 96.0654 50.9223 95.8082C50.8077 95.0271 50.6243 94.2566 50.3743 93.5077C47.4798 85.5043 44.4974 77.3821 41.6128 69.5271L40.9165 67.6296C40.7391 67.1656 40.5114 66.7219 40.2371 66.3077C39.9007 65.6842 39.3596 65.196 38.7051 64.9249C38.0505 64.6538 37.3225 64.6162 36.6437 64.8191C35.1479 65.2352 34.4272 66.418 34.6156 68.1494C34.7227 69.0808 34.9152 69.9996 35.1906 70.8955Z" fill="black"/>
<path d="M97.8989 98.7348C98.3288 98.895 98.7823 98.979 99.2404 98.9829C99.8285 98.9679 100.405 98.8103 100.919 98.5248C101.433 98.2393 101.87 97.833 102.194 97.3421C102.835 96.4797 103.347 95.5293 103.715 94.5198C106.948 85.5438 109.556 78.1948 111.919 71.3918C112.298 70.3299 112.395 69.1878 112.199 68.0773C112.023 67.1985 111.256 65.8523 110.276 65.6099C109.139 65.3296 107.799 65.9285 107.1 66.3118C106.484 66.7725 106.038 67.4256 105.834 68.1679L105.772 68.3234C103.232 74.5665 99.8935 82.7937 96.5829 91.0754C96.2777 91.8833 96.0224 92.7097 95.8189 93.5491C95.729 93.8904 95.6417 94.2232 95.5485 94.5395L95.5144 94.6564L95.5249 94.7784C95.6588 96.3267 95.9601 98.0352 97.8989 98.7348Z" fill="black"/>
<path d="M69.5479 78.4017L69.6023 79.0488C69.6023 79.9119 69.5984 80.7756 69.5892 81.6394C69.5735 84.2135 69.5571 86.8756 69.6358 89.4964C69.7192 91.4273 69.9666 93.3478 70.3762 95.2367C70.4897 96.0086 70.8848 96.7115 71.4847 97.2103C72.0846 97.7092 72.8479 97.9684 73.6277 97.9389C73.7589 97.9389 73.8948 97.9323 74.0326 97.9205C74.8655 97.8732 75.6512 97.5182 76.2373 96.9248C76.824 96.3315 77.1686 95.5413 77.206 94.7084C77.3445 93.6753 77.4003 92.6337 77.3727 91.5921C77.0984 84.5765 76.8477 78.2455 76.5195 71.8193C76.3882 69.2668 76.1067 66.6893 75.8316 64.1978L75.8211 64.1001C75.7923 63.3707 75.4766 62.6822 74.9423 62.1849C74.408 61.6876 73.6985 61.4218 72.9687 61.4453C72.2454 61.3779 71.5234 61.5924 70.9537 62.0442C70.384 62.496 70.0106 63.1501 69.9115 63.8703C69.6811 65.1182 69.5643 66.3848 69.5623 67.6535C69.5321 70.227 69.5374 72.8385 69.5426 75.37L69.5479 78.4017Z" fill="black"/>
</svg>
