<svg width="183" height="165" viewBox="0 0 183 165" fill="none" xmlns="http://www.w3.org/2000/svg">
<g clip-path="url(#clip0_8_2265)">
<path d="M95.9474 92.6748C91.4449 86.4042 85.6192 81.2007 78.8826 77.4327C78.8885 77.3244 78.8924 77.2292 78.8957 77.1465C78.899 77.0638 78.8997 76.9824 78.9062 76.9253C80.0305 75.2615 81.166 73.6128 82.2818 72.0264C89.8808 61.4274 93.9219 48.691 93.8235 35.6498C93.7683 22.485 88.6135 13.1376 78.0648 7.07958C71.764 3.40022 64.6925 1.24034 57.4115 0.77196C44.7291 -0.0812819 31.9456 0.974887 19.5809 1.99746C17.5961 2.16155 15.6118 2.32339 13.6278 2.48267C2.57708 3.35494 1.99489 3.94876 1.17184 15.1925C0.587046 23.1801 0.587758 31.3332 0.588414 39.2145L0.584568 47.5059C0.570785 65.3905 0.557006 83.8838 0.851048 102.071C1.04795 114.165 1.48759 126.455 1.91487 138.34C2.10914 143.752 2.29639 149.164 2.47667 154.576C2.48651 154.892 2.48192 155.209 2.47667 155.526C2.45502 156.129 2.47701 156.732 2.54237 157.331C3.07466 161.434 5.03187 163.441 9.08473 164.043C10.1261 164.187 11.1767 164.255 12.228 164.245C12.7957 164.245 13.3562 164.231 13.9036 164.215C16.2043 164.147 18.5049 164.08 20.8056 164.017C29.1371 163.78 37.7523 163.534 46.223 163.169L46.5511 163.156C55.709 162.762 65.1786 162.352 74.4622 161.526C89.4975 160.186 99.6111 151.109 104.523 134.547C108.74 120.299 105.857 106.212 95.9474 92.6748ZM61.6422 72.8232C58.5522 72.2542 55.3092 72.4419 52.1732 72.6257C51.4749 72.6657 50.7786 72.7071 50.0868 72.7392C40.3855 73.1928 30.7287 73.6962 20.5049 74.2298C16.8058 74.4267 13.0424 74.6196 9.19165 74.8205C9.45419 66.019 9.13199 57.239 8.81826 48.7407C8.35882 36.2473 7.87904 23.335 9.31773 10.476C10.0681 10.4297 10.8107 10.3823 11.5454 10.3337C13.5617 10.2024 15.4664 10.0809 17.4032 9.99562C19.9478 9.88404 22.493 9.75789 25.0376 9.63122C31.792 9.29714 38.7762 8.95126 45.6408 8.8935C51.0996 8.8469 56.6988 9.55574 61.6325 10.1793C67.8738 10.9669 73.6857 14.0485 79.3998 19.5946C82.7366 22.8329 84.2422 27.2896 84.2816 34.0427C84.4542 46.821 79.9386 59.2195 71.5894 68.8937C68.6457 72.3933 65.6731 73.5603 61.6422 72.8226V72.8232ZM10.4197 82.6302C11.3662 82.3723 12.3366 82.2128 13.3156 82.1524C18.1009 82.0566 22.9703 82.0152 27.6802 81.9759C36.6576 81.901 45.9401 81.8229 55.0573 81.3596C77.5043 80.207 93.662 98.4841 96.3103 116.806C97.8061 127.16 95.0541 136.425 88.1271 144.342C85.4801 147.547 81.7862 149.715 77.6966 150.462L76.8703 150.603C73.6522 151.221 70.3988 151.634 67.1289 151.84C51.4928 152.465 35.5877 152.964 20.2064 153.446L17.3532 153.536C16.1456 153.549 14.938 153.496 13.7361 153.377C13.2111 153.336 12.6578 153.294 12.0658 153.254L9.24357 82.8941C9.65247 82.8061 10.0417 82.7156 10.4197 82.6322V82.6302Z" fill="black"/>
<path d="M155.736 99.791C150.968 99.1806 146.125 99.6243 141.547 101.092C136.969 102.559 132.769 105.013 129.245 108.282C125.816 111.547 123.147 115.525 121.424 119.935C119.701 124.345 118.968 129.078 119.276 133.803C119.423 137.27 120.29 140.669 121.823 143.783C123.355 146.896 125.519 149.657 128.176 151.889C134.041 156.965 142.314 159.536 150.536 159.535C158.044 159.535 165.511 157.391 171.059 153.05C173.046 151.464 174.661 149.462 175.792 147.186C176.449 145.868 175.601 143.269 174.489 142.29C173.408 141.342 171.47 141.395 169.73 141.516C168.777 141.581 167.946 142.42 167.278 143.091L167.147 143.222C160.984 149.392 153.233 151.141 142.018 148.881C133.566 147.179 128.453 140.638 128.241 131.319H134.721C139.972 131.316 145.065 131.314 150.158 131.324C153.032 131.33 155.906 131.344 158.779 131.365C164.346 131.399 170.103 131.435 175.764 131.379C180.645 131.332 182.093 129.949 182.226 125.217C182.408 118.686 180.524 113.505 176.466 109.374C171.13 103.946 164.35 100.814 155.736 99.791ZM173.137 123.268L129.378 124.127C133.401 113.459 140.88 107.746 150.704 107.746C151.797 107.747 152.888 107.814 153.972 107.947C165.557 109.346 172.001 114.499 173.137 123.268Z" fill="black"/>
<path d="M170.439 81.3206C170.045 81.3298 169.748 81.3147 169.528 81.339C166.18 81.6298 162.944 81.9074 159.792 82.1771C151.208 82.9136 143.101 83.608 135.075 84.3851C132.769 84.5787 130.513 85.1694 128.408 86.1309C127.803 86.4118 127.293 86.8654 126.944 87.4331C126.593 88.0015 126.418 88.6604 126.439 89.3279C126.465 90.0499 126.7 90.7496 127.114 91.3416C127.528 91.9336 128.105 92.3937 128.776 92.6654C129.925 93.1078 131.149 93.325 132.38 93.3047C132.591 93.3047 132.792 93.2994 132.977 93.2909C145.847 92.6858 158.926 92.0032 171.575 91.3429L172.902 91.2733C173.993 91.2609 175.078 91.1197 176.136 90.852C178.814 90.0604 180.25 88.2187 180.074 85.7988C179.889 83.2503 178.113 81.5549 175.439 81.3758C173.536 81.2445 171.598 81.2911 170.439 81.3206Z" fill="black"/>
</g>
<defs>
<clipPath id="clip0_8_2265">
<rect width="182.462" height="164.741" fill="white"/>
</clipPath>
</defs>
</svg>
