<svg width="155" height="154" viewBox="0 0 155 154" fill="none" xmlns="http://www.w3.org/2000/svg">
<g clip-path="url(#clip0_8_2783)">
<path d="M99.2892 130.831C98.201 138.089 96.055 144.768 89.6332 149.127C85.2673 152.182 80.0063 153.699 74.6799 153.439C62.481 152.864 54.8247 146.127 52.2156 133.403C51.1656 133.403 50.0234 133.37 48.8833 133.409C36.1571 133.845 23.4327 134.315 10.7052 134.703C8.87321 134.754 7.04194 134.583 5.25123 134.194C3.99925 133.896 2.82928 133.324 1.82678 132.519C1.44278 132.255 1.13031 131.902 0.917316 131.487C0.704311 131.074 0.597477 130.614 0.606345 130.149C0.615213 129.684 0.739675 129.229 0.968297 128.823C1.19691 128.418 1.52263 128.076 1.9164 127.827C11.6905 121.039 15.6269 110.718 18.8793 100.022C21.4689 91.5037 22.0093 82.6804 22.2921 73.8442C22.6481 62.6878 24.4543 51.8676 28.6257 41.4033C34.0579 27.7743 43.9098 19.0196 57.4856 14.1453C59.4273 13.4485 60.3708 12.6035 60.7741 10.4895C62.079 3.65142 66.3106 0.330891 73.2486 0.290774C80.0206 0.254539 85.2647 4.21564 86.5689 10.6383C86.6564 11.4129 86.9716 12.1445 87.4749 12.7406C87.9781 13.3368 88.6474 13.771 89.3971 13.9883C99.847 17.98 107.778 24.9041 113.583 34.4683C121.352 47.2671 125.986 61.127 128.522 75.7905C129.347 80.558 130.492 85.2699 131.453 90.0142C133.734 101.273 139.744 109.905 149.488 116.069C151.262 117.24 152.722 118.826 153.74 120.689C155.15 123.282 154.059 126.008 151.238 126.955C148.592 127.827 145.841 128.341 143.058 128.486C129.481 129.225 115.895 129.786 102.313 130.427C101.365 130.476 100.423 130.677 99.2892 130.831ZM117.828 83.6555C118.062 83.0673 118.228 82.8583 118.203 82.6765C117.953 80.8647 117.666 79.0614 117.401 77.2529C115.433 63.8248 111.492 51.0964 104.53 39.3225C96.3475 25.4839 82.2198 18.654 66.4649 21.7347C54.9405 23.9878 45.4701 29.6989 40.0698 40.5067C37.689 45.2736 35.5299 50.3912 34.6051 55.5865C33.1037 64.0235 32.6642 72.651 31.8561 81.2057C31.5869 84.0528 31.5628 86.9231 31.402 90.3157C60.5069 88.0646 89.3193 86.6792 117.828 83.6555ZM18.5266 125.036C56.9277 122.324 94.5945 121.53 132.687 117.405C125.882 110.409 122.901 102.153 120.473 93.7457L30.5331 97.2399C29.3702 107.199 25.499 116.387 18.5266 125.036ZM59.2301 132.846C60.819 140.46 67.9202 145.118 76.13 144.264C83.6102 143.488 87.9749 138.898 88.0456 131.262L59.2301 132.846ZM67.142 11.142H78.0575C76.5458 8.14089 74.1708 7.73195 71.6791 7.81413C69.5429 7.8853 67.7159 8.64107 67.1439 11.142H67.142Z" fill="black"/>
</g>
<defs>
<clipPath id="clip0_8_2783">
<rect width="155" height="154" fill="white"/>
</clipPath>
</defs>
</svg>
