<svg width="157" height="161" viewBox="0 0 157 161" fill="none" xmlns="http://www.w3.org/2000/svg">
<g clip-path="url(#clip0_8_2785)">
<path d="M6.55995 141.913C14.9813 141.641 23.4029 141.362 31.8242 141.072C37.4874 140.88 43.15 140.69 48.8123 140.501C49.8264 140.467 50.8606 140.477 51.8616 140.487C52.1451 140.487 52.4287 140.492 52.7103 140.493C52.7505 140.718 52.7893 140.93 52.8256 141.132C52.9495 141.819 53.0528 142.384 53.1326 142.953C54.216 150.659 58.6063 155.976 66.1815 158.753C69.3033 159.896 72.6048 160.477 75.931 160.467C78.9757 160.45 82.0034 160.018 84.9313 159.183C92.2915 157.136 97.0307 152.388 99.0204 145.074C99.3532 143.851 99.6588 142.617 99.9832 141.312C100.1 140.839 100.22 140.356 100.345 139.859L100.754 139.829C101.194 139.785 101.636 139.763 102.078 139.764C109.411 139.868 116.744 139.976 124.076 140.088L137.7 140.289C138.825 140.306 139.951 140.324 141.078 140.346C144.122 140.402 147.271 140.459 150.368 140.427C154.271 140.386 155.481 138.493 156.168 135.453C156.961 131.937 155.185 129.853 153.549 128.429C145.654 121.565 140.76 112.999 138.589 102.242C135.831 88.5839 132.814 74.4806 129.366 59.1253C124.988 39.6217 114.138 25.9082 97.1176 18.3645C95.9414 17.844 94.7717 17.3771 93.5319 16.8831C93.1024 16.7118 92.669 16.5393 92.2311 16.3622C92.2311 16.2079 92.2324 16.0549 92.235 15.9032C92.2415 15.2708 92.2474 14.6745 92.2227 14.0654C91.9418 7.23483 87.7365 2.04664 81.2496 0.526512C75.5574 -0.806102 69.7269 2.36165 66.7439 8.41498C65.9985 10.0338 65.3802 11.7077 64.8943 13.422C64.672 14.1332 64.4436 14.8659 64.1913 15.6101L63.9863 15.6749C63.5069 15.8281 62.9219 16.0155 62.3296 16.1765C53.7861 18.4946 46.9089 22.0761 41.3095 27.124C27.9904 39.1266 20.1853 54.3199 18.1125 72.2835C17.4216 78.2715 17.2763 84.4083 17.1362 90.3426C17.0609 93.5555 16.9823 96.8783 16.8175 100.133C16.5664 105.109 16.1727 110.393 15.6135 116.286C15.1035 121.653 12.7188 126.632 7.879 132.439C7.25658 133.059 6.51927 133.553 5.70812 133.893C5.30914 134.097 4.89743 134.307 4.50817 134.543C4.17211 134.746 3.81134 134.931 3.42922 135.121C2.54664 135.5 1.74174 136.038 1.0553 136.708C0.161953 137.696 -0.161715 138.759 0.147095 139.703C0.46369 140.678 1.39469 141.375 2.76811 141.669C4.01778 141.901 5.29068 141.983 6.55995 141.913ZM90.6546 140.285C90.3997 146.074 87.5406 149.756 82.1403 151.234C76.2645 152.84 71.2165 152.572 66.705 150.41C62.7348 148.508 60.6194 145.366 59.9109 140.285H90.6546ZM15.6318 134.042C22.6105 125.97 23.8988 116.302 24.2498 107.053C24.3944 103.251 24.4639 99.3851 24.5314 95.6466C24.6183 90.7933 24.7091 85.7745 24.9641 80.8533C25.9969 60.9034 32.9685 45.3317 46.2785 33.2476C53.1372 27.0204 61.9524 23.3549 72.477 22.3598C73.9789 22.2176 75.4639 22.1466 76.9327 22.1471C86.9236 22.1471 96.1114 25.4322 104.311 31.9453C112.607 38.5372 118.084 47.7176 120.59 59.2314C123.232 71.3614 125.78 84.1671 128.623 99.5326C131.189 113.428 135.573 123.284 142.758 131.234C95.8097 130.567 54.1948 131.485 15.6318 134.042ZM78.5001 8.00233C81.4805 8.2157 83.3055 10.7277 83.2562 14.4682H71.8633C72.5607 10.8544 75.6157 7.78249 78.5001 8.00233Z" fill="black"/>
</g>
<defs>
<clipPath id="clip0_8_2785">
<rect width="157" height="161" fill="white"/>
</clipPath>
</defs>
</svg>
