<svg width="136" height="142" viewBox="0 0 136 142" fill="none" xmlns="http://www.w3.org/2000/svg">
<g clip-path="url(#clip0_6_1884)">
<path d="M119.865 7.42967C120.314 19.0304 120.51 30.1355 121.22 41.2086C122.73 64.7239 125.362 88.1687 125.727 111.755C125.812 117.252 125.727 122.759 125.44 128.247C125.226 130.355 124.695 132.418 123.868 134.367C122.692 137.517 120.562 138.386 117.536 136.898C115.555 135.846 113.651 134.654 111.838 133.332C109.527 131.752 107.284 130.073 104.881 128.343C104.307 128.645 103.752 128.982 103.219 129.353C99.2479 132.473 95.2626 135.575 91.3463 138.762C87.231 142.11 83.5358 142.149 79.0025 138.212C76.1245 135.712 73.3777 133.062 70.5594 130.493C70.1577 130.127 69.6832 129.84 69.0767 129.395C65.6362 131.967 62.2436 134.534 58.8189 137.057C53.8097 140.749 53.7421 141.327 46.8079 137.319C42.7589 134.979 39.174 131.834 35.1979 128.918C30.7532 131.559 26.0656 134.383 21.3413 137.141C15.9141 140.31 11.6984 138.066 11.1261 131.744C11.086 131.298 11.0952 130.847 11.0893 130.397C10.8504 111.538 10.6133 92.6797 10.3779 73.8211C10.1898 57.9931 10.0188 42.1654 9.86526 26.338C9.81604 21.1805 9.85804 16.0217 9.85804 10.3181C9.07043 10.3181 8.01373 10.3391 6.959 10.3128C5.39389 10.3735 3.82651 10.2901 2.2767 10.0635C1.48318 9.89218 0.369387 8.98644 0.284063 8.30188C0.248181 7.77687 0.323912 7.25023 0.506274 6.75666C0.68864 6.26309 0.97349 5.81375 1.34208 5.43822C2.25631 4.79859 3.34722 4.46006 4.46295 4.46958C15.5629 3.96682 26.6645 3.5107 37.7676 3.10114C54.705 2.45859 71.641 1.75031 88.5831 1.25215C102.609 0.840621 116.642 0.692381 130.673 0.427875C130.897 0.423937 131.122 0.424492 131.346 0.438931C134.077 0.614174 135.787 2.06996 135.678 4.12298C135.574 6.09199 133.994 7.3666 131.359 7.41123C127.679 7.47686 123.995 7.42967 119.865 7.42967ZM115.722 126.979C115.799 125.481 115.885 124.812 115.86 124.146C115.228 107.203 114.678 90.2571 113.916 73.3203C113.104 55.2661 111.449 37.2399 112.603 19.1335C112.843 15.3661 112.638 11.5704 112.638 7.33109L17.6783 10.416C18.2158 49.6985 19.9551 88.7974 20.4756 128.254C21.3991 127.794 22.0062 127.541 22.5582 127.2C24.7549 125.846 26.8244 124.236 29.1419 123.136C34.3092 120.68 37.8364 120.183 42.0278 124.081C45.4001 127.216 49.7128 129.34 53.5137 131.851C55.0751 130.65 56.2585 129.797 57.3782 128.866C59.3636 127.216 61.3215 125.53 63.2721 123.838C66.4802 121.057 69.8059 120.661 73.4919 122.702C74.4685 123.257 75.411 123.871 76.3142 124.54C79.3865 126.759 82.4378 129.005 85.5882 131.309C89.4987 128.457 93.3094 125.688 97.1082 122.902C101.443 119.723 104.279 119.621 108.818 122.523C110.955 123.889 113.087 125.274 115.722 126.979Z" fill="black"/>
<path d="M43.6464 78.8358C39.7281 78.8358 35.8103 78.8437 31.8927 78.8299C30.9988 78.8739 30.1028 78.824 29.2194 78.6809C27.5575 78.3167 26.3545 77.3853 26.2791 75.5187C26.2105 74.7212 26.4506 73.9277 26.9497 73.3022C27.4488 72.6768 28.1689 72.2665 28.9614 72.1563C30.9339 71.7513 32.9312 71.4789 34.94 71.3398C42.184 70.711 49.4301 70.0882 56.6839 69.5808C58.3555 69.5021 60.0303 69.6425 61.6655 69.9989C62.4502 70.1387 63.1665 70.5351 63.702 71.1258C64.2375 71.7159 64.5621 72.4674 64.6249 73.2622C64.7792 74.0465 64.6536 74.861 64.2699 75.5627C63.8862 76.2643 63.2686 76.8091 62.5247 77.1024C60.4556 77.9111 58.2789 78.4118 56.0643 78.5877C51.9359 78.8168 47.7859 78.6534 43.645 78.6534L43.6464 78.8358Z" fill="black"/>
<path d="M33.8971 44.4348C32.8864 44.4348 31.873 44.4801 30.8649 44.4256C28.4843 44.2944 26.9925 43.1516 26.6768 41.2752C26.3486 39.3455 27.6088 37.5558 30.0753 36.9657C32.5879 36.3749 35.1355 35.9435 37.7026 35.674C43.5072 35.0446 49.3198 34.4578 55.1435 34.0554C56.9211 33.9197 58.7068 34.175 60.3751 34.8036C63.4048 36.0205 63.7553 39.3159 61.0466 41.155C59.5525 42.1336 57.8535 42.7555 56.0807 42.9724C52.5214 43.4069 48.9155 43.4515 45.3286 43.6629C41.517 43.8882 37.7059 44.1174 33.8952 44.3502L33.8971 44.4348Z" fill="black"/>
<path d="M45.1558 87.4009C47.5127 87.4009 49.8742 87.309 52.2239 87.4377C53.5584 87.4469 54.8767 87.7317 56.0963 88.2739C56.8026 88.6289 57.3963 89.173 57.8112 89.8464C58.226 90.5192 58.4457 91.2943 58.4457 92.0852C58.4457 92.8754 58.226 93.6506 57.8112 94.324C57.3963 94.9967 56.8026 95.5408 56.0963 95.8966C54.771 96.4899 53.3372 96.803 51.8852 96.8154C45.9454 97.0918 40.0009 97.2749 34.0565 97.4062C32.6033 97.4436 31.1514 97.2959 29.7358 96.9657C27.7372 96.486 26.4745 94.8878 26.5854 93.1459C26.7015 91.3022 27.6224 89.8642 29.4772 89.4467C31.8779 88.8967 34.3082 88.4852 36.756 88.2135C39.5435 87.9102 42.3559 87.8387 45.1571 87.6668L45.1558 87.4009Z" fill="black"/>
<path d="M36.1096 27.6136C34.094 27.6136 32.0764 27.6635 30.0634 27.5919C29.0749 27.5565 27.8922 27.5794 27.1617 27.0615C26.2045 26.3714 25.4881 25.3983 25.1133 24.2793C24.7018 22.8892 25.4684 21.6179 26.7988 20.9563C27.6935 20.5001 28.6576 20.195 29.6519 20.0532C34.2042 19.4809 38.7625 18.9375 43.3313 18.5253C44.6361 18.4072 46.1732 18.4032 47.2594 18.9847C48.4729 19.6857 49.4215 20.7671 49.9583 22.0616C50.5398 23.5522 49.5743 25.0756 48.2092 25.6906C46.3898 26.5086 44.4613 27.0577 42.4839 27.3209C40.3915 27.5939 38.2368 27.3826 36.1096 27.3826V27.6136Z" fill="black"/>
<path d="M35.4098 61.2164C33.385 60.9236 31.9187 60.8291 30.5168 60.478C28.9416 60.0842 27.8455 58.8372 28.0568 57.2974C28.2176 56.1265 29.0559 54.4055 29.9846 54.0931C34.3571 52.6229 38.8943 51.8471 43.5234 52.9117C44.2566 53.0203 44.9277 53.3848 45.4181 53.9406C45.9084 54.4964 46.1863 55.2075 46.2027 55.9485C46.3122 56.7449 46.1248 57.5539 45.676 58.2208C45.2272 58.8879 44.5486 59.3663 43.7696 59.565C40.864 60.3355 37.8645 60.7504 35.4098 61.2164Z" fill="black"/>
<path d="M89.599 43.2764C87.3851 42.9777 85.1142 42.8825 82.9831 42.2918C81.9894 42.0142 80.5651 40.7396 80.5927 39.9612C80.6307 38.8855 81.7367 37.7342 82.6181 36.8455C83.0999 36.3598 84.0463 36.2482 84.8077 36.1406C87.4724 35.7652 90.1404 35.3819 92.8203 35.1561C96.3133 34.8607 99.0679 36.4425 99.2419 38.6845C99.4132 40.9017 96.9447 42.7348 93.3296 42.9987C92.1016 43.0886 90.8617 43.0131 89.6272 43.0131L89.599 43.2764Z" fill="black"/>
<path d="M90.3197 94.8173C89.1691 94.7076 87.2795 94.5934 85.4096 94.3309C84.6673 94.2699 83.9795 93.9174 83.4957 93.351C83.0127 92.7852 82.7725 92.0508 82.8282 91.3078C82.7902 90.5642 83.0337 89.8337 83.5095 89.2607C83.9854 88.6884 84.6594 88.3149 85.3978 88.2158C89.0306 87.6179 92.6832 87.0534 96.3514 86.7843C98.8606 86.6006 100.565 88.097 100.726 90.0089C100.889 91.9464 99.5393 93.6345 97.0734 94.1215C95.1096 94.5094 93.077 94.5495 90.3197 94.8173Z" fill="black"/>
<path d="M89.7766 78.7292C87.9474 78.4666 86.3814 78.3308 84.8593 77.9974C83.1739 77.6272 82.0056 76.5252 81.9714 74.7551C81.9334 73.955 82.1926 73.1693 82.6993 72.5491C83.206 71.9289 83.924 71.518 84.7156 71.3959C87.4407 70.7836 90.1986 70.3287 92.9756 70.0353C95.4927 69.7958 97.377 71.3001 97.6947 73.3826C97.9789 75.2394 96.6813 77.2459 94.4688 77.9074C92.9244 78.2822 91.3571 78.5566 89.7766 78.7292Z" fill="black"/>
<path d="M88.3374 59.4566C86.7097 59.2943 85.1003 58.9772 83.533 58.5096C82.7218 58.2149 81.9578 56.9883 81.7412 56.053C81.6729 55.745 81.6696 55.4261 81.732 55.1169C81.7943 54.8077 81.921 54.5151 82.1041 54.2578C82.2866 54.0006 82.5209 53.7846 82.7926 53.6237C83.0637 53.4629 83.3663 53.3606 83.6794 53.3238C86.8737 52.8285 90.0996 52.5602 93.3328 52.5205C94.1867 52.5474 95.0012 52.8859 95.6227 53.4722C96.2449 54.0585 96.6302 54.852 96.707 55.703C96.7431 57.1555 95.4416 58.6396 93.4548 59.0472C91.7582 59.281 90.0498 59.4176 88.3374 59.4566Z" fill="black"/>
</g>
<defs>
<clipPath id="clip0_6_1884">
<rect width="135.862" height="141.769" fill="white"/>
</clipPath>
</defs>
</svg>
