<svg width="113" height="157" viewBox="0 0 113 157" fill="none" xmlns="http://www.w3.org/2000/svg">
<g clip-path="url(#clip0_6_2200)">
<path d="M0.537476 105.717C0.734376 93.8586 3.83488 82.6136 7.22555 71.4256C12.0179 55.7308 19.1659 40.8544 28.4253 27.3056C33.8656 19.445 40.2751 12.3015 47.5023 6.04419C48.4933 5.15047 49.3684 4.13613 50.1073 3.02497C51.6025 0.812453 53.5799 -0.276415 56.0917 0.461308C58.0438 0.954865 59.8799 1.82734 61.4955 3.02897C65.2605 6.04831 68.8312 9.30233 72.1857 12.7717C81.6731 22.8583 90.2967 33.6859 97.2756 45.6496C106.741 61.8769 112.726 79.28 112.606 98.3158C112.54 108.275 111.03 118.018 105.926 126.839C98.7189 139.299 87.6845 147.105 74.4317 151.861C61.4081 156.536 48.0267 156.892 34.6282 153.542C19.1794 149.678 4.63359 137.47 1.61444 116.758C1.08477 113.103 0.888615 109.399 0.537476 105.717ZM53.1685 9.98092C46.2311 16.1124 38.353 25.6543 33.6018 33.1319C23.575 48.995 16.2245 66.3987 11.8443 84.6469C9.23532 95.296 7.84061 105.981 9.70461 116.97C12.6247 134.215 25.2926 144.387 39.0842 146.821C45.4041 147.937 51.7474 148.489 58.1835 147.724C70.8599 146.214 81.9698 141.356 91.15 132.43C96.3219 127.538 99.9436 121.235 101.564 114.303C103.548 105.858 103.848 97.1049 102.447 88.5442C100.017 73.5443 94.3017 59.2661 85.7102 46.7318C79.4599 37.5337 72.4535 28.8725 64.7647 20.8381C61.1292 17.0602 57.1131 13.6518 53.1685 9.98092Z" fill="black"/>
<path d="M96.9363 98.5282C97.1424 102.149 95.8468 107.217 93.1998 111.896C92.2245 113.525 91.0188 115.005 89.6208 116.29C88.4348 117.427 86.8222 117.911 85.3172 116.787C83.9967 115.802 83.8332 114.33 84.3701 112.849C84.865 111.364 85.4774 109.92 86.2013 108.531C91.9292 98.2584 91.1895 87.9106 86.6844 77.4906C86.2846 76.5665 85.6605 75.6358 85.6244 74.6893C85.5909 73.8256 85.9814 72.5458 86.6141 72.171C87.0539 72.0181 87.5238 71.9728 87.9839 72.0397C88.4446 72.106 88.8824 72.2832 89.2598 72.5549C90.243 73.4725 91.0543 74.5574 91.6568 75.7585C95.306 82.2668 96.8261 89.3211 96.9363 98.5282Z" fill="black"/>
<path d="M81.9116 126.542C81.9214 127.001 81.8387 127.458 81.6674 127.883C81.4961 128.309 81.2395 128.697 80.9146 129.021C80.5897 129.345 80.2018 129.6 79.7752 129.77C79.3486 129.94 78.8924 130.022 78.433 130.01C77.9742 129.998 77.522 129.894 77.1046 129.702C76.6871 129.511 76.313 129.237 76.0045 128.897C75.6961 128.556 75.4604 128.157 75.3108 127.723C75.1611 127.289 75.1014 126.829 75.1349 126.371C75.2242 124.411 76.7101 122.798 78.3916 122.826C79.3361 122.895 80.2209 123.314 80.8726 124.001C81.5237 124.689 81.8945 125.596 81.9116 126.542Z" fill="black"/>
</g>
<defs>
<clipPath id="clip0_6_2200">
<rect width="112.89" height="156.208" fill="white"/>
</clipPath>
</defs>
</svg>
