<svg width="145" height="153" viewBox="0 0 145 153" fill="none" xmlns="http://www.w3.org/2000/svg">
<g clip-path="url(#clip0_6_2204)">
<path d="M135.933 67.5283C140.987 67.9221 143.403 70.7122 143.612 75.2075C143.809 79.4422 143.98 83.7582 143.388 87.9286C142.623 93.325 140.466 94.8307 134.974 95.1976C134.194 95.2494 133.415 95.3249 132.278 95.4194C132.278 97.651 132.403 99.8569 132.235 102.042C132.097 103.596 131.756 105.126 131.219 106.591C130.982 107.235 130.534 107.78 129.947 108.137C129.36 108.493 128.67 108.64 127.989 108.553C126.532 108.475 125.318 107.73 125.008 106.25C124.67 104.736 124.535 103.183 124.605 101.633C124.811 99.7092 125.114 97.796 125.513 95.9025C124.688 95.7856 124.032 95.7056 123.382 95.5979C120.124 95.0532 118.339 93.2811 118.236 89.9718C118.062 84.3654 118.032 78.7524 118.083 73.1433C118.107 70.4674 119.435 69.0989 122.152 68.5962C123.56 68.3336 125.004 68.2746 126.672 68.0974C126.402 62.1248 126.131 56.3182 125.88 50.5122C125.604 44.1458 120.443 39.5842 115.786 39.0191C110.524 38.3798 104.945 40.9147 102.065 46.7968C100.044 51.0751 98.9227 55.7226 98.7704 60.4518C98.2336 71.8871 98.0432 83.3395 97.8056 94.7867C97.6087 104.209 97.7065 113.641 97.3626 123.056C97.1657 128.499 95.3227 133.585 92.5864 138.329C87.9356 146.394 80.6726 150.328 71.7064 151.309C66.0021 151.932 60.2797 151.852 54.6733 150.193C47.405 148.039 41.9646 143.864 38.6875 136.851C34.6038 128.113 32.6065 119.061 33.612 109.411C33.7964 107.638 33.8411 105.849 33.9697 103.741C32.1622 103.574 30.5285 103.463 28.906 103.263C26.0332 102.91 25.0489 102.172 24.999 100.441C24.9504 98.7766 25.9414 97.9345 28.6678 97.3031C28.9839 97.2145 29.2952 97.1095 29.6005 96.9887C29.2999 93.266 29.1856 92.9424 25.8239 92.1528C21.4612 91.1283 17.0395 90.3538 12.6466 89.4572C11.7685 89.2781 10.8982 89.0555 10.0351 88.8134C5.63367 87.5794 3.47815 85.2278 3.12044 80.7936C2.16416 68.9322 0.907405 57.0743 0.564796 45.192C0.29701 35.9061 1.21717 26.5862 1.61885 17.2819C1.63613 16.7204 1.7055 16.1616 1.82619 15.6129C4.49289 4.23264 8.20389 2.33452 18.362 1.11833C31.8058 -0.491668 45.2922 0.413339 58.7162 1.7713C65.1149 2.41845 69.2602 6.37036 71.7956 12.1048C74.0081 17.1107 74.5122 22.5005 75.1344 27.8444C76.6702 41.0368 76.6125 54.2947 76.4733 67.5487C76.4569 69.1199 76.4182 70.6952 76.2988 72.2612C75.6424 80.8644 71.304 86.2694 63.071 88.9092C59.8734 89.9344 56.6763 90.9878 53.5626 92.2362C52.1185 92.8853 50.8938 93.9394 50.0369 95.2704C50.982 95.2704 51.9277 95.2402 52.8716 95.2757C55.7634 95.384 57.6458 96.9966 57.7094 99.3889C57.7751 101.901 55.789 103.755 52.7797 103.767C50.6506 103.777 48.522 103.505 46.3902 103.427C44.7146 103.367 43.035 103.416 40.9603 103.416C40.9603 106.326 40.9676 109.086 40.9603 111.846C40.9374 119.04 42.7043 125.789 45.5784 132.368C48.0909 138.119 52.3216 141.38 58.3153 142.75C63.1511 143.843 68.1582 143.944 73.0341 143.045C80.9515 141.633 86.3118 136 87.8825 127.178C88.5979 122.976 88.949 118.719 88.9326 114.455C88.9516 108.058 88.5053 101.662 88.3314 95.2625C87.9586 81.5615 87.8306 67.848 90.1212 54.2875C90.8393 50.0942 92.1559 46.0258 94.0304 42.2069C99.2476 31.628 113.14 26.9531 123.076 32.2129C129.967 35.8615 134.268 41.5835 135.119 49.409C135.7 54.7509 135.687 60.1585 135.932 65.5372C135.955 66.0837 135.933 66.6337 135.933 67.5283ZM9.11417 45.7697C20.2496 41.9531 23.0417 41.9293 35.2076 43.9088C40.9713 44.7769 46.7844 45.2769 52.6116 45.4059C54.9745 45.4853 57.4475 44.6348 59.7342 43.8236C62.3261 42.9047 64.7658 41.5545 67.662 40.2097C67.1231 34.5403 66.6598 28.5165 65.9293 22.5254C65.6057 19.8587 64.9811 17.2372 64.0674 14.711C62.7265 11.0296 59.9324 8.8697 55.9327 8.6728C48.3192 8.3046 40.6951 7.77946 33.079 7.8195C27.7014 7.87483 22.3372 8.36531 17.0388 9.28635C11.8373 10.1685 10.3193 12.7328 10.5733 18.6241C12.4457 18.5366 14.3215 18.5532 16.192 18.6739C17.7016 18.8426 19.0282 19.6946 19.0879 21.4451C19.1411 23.0065 18.024 23.8971 16.6812 24.3329C15.6038 24.6289 14.5004 24.8202 13.3863 24.904C12.1911 25.0465 10.9861 25.1009 9.56973 25.2125C9.45881 26.9321 9.36233 28.4324 9.24156 30.2622C10.8404 30.1448 12.0414 30.0293 13.2452 29.9775C14.2475 29.8996 15.2546 29.9024 16.2565 29.986C16.9953 30.021 17.6997 30.3084 18.2521 30.8002C18.8045 31.2919 19.1717 31.9583 19.2921 32.6881C19.6425 34.4254 19.0518 35.8766 17.472 36.6412C16.3517 37.1292 15.1625 37.4412 13.9468 37.566C12.411 37.7767 10.8483 37.7859 9.11095 37.8942L9.11417 45.7697ZM42.552 95.9136C43.0022 91.9441 44.0052 88.497 47.3433 86.7249C51.2813 84.6318 55.4819 83.0304 59.5748 81.2202C61.147 80.6321 62.6814 79.9469 64.1692 79.1691C66.7188 77.6359 68.1976 75.4634 68.1037 72.2586C67.9127 65.7464 67.9121 59.2291 67.8412 52.7143C67.8267 51.4075 67.8412 50.1008 67.8412 48.3431C66.9 48.8197 65.9857 49.3473 65.1018 49.9235C61.5083 52.6316 57.3412 53.5229 53.0159 53.3155C48.2023 53.0844 43.3934 52.5319 38.6133 51.89C33.7243 51.2336 28.8936 50.1224 23.9979 49.5396C20.0662 48.97 16.056 49.7055 12.5822 51.6333C10.6959 52.7175 9.20356 54.1235 9.58883 56.9556C10.8595 56.8151 11.9404 56.6182 13.0246 56.5971C14.1313 56.5582 15.239 56.6362 16.3292 56.8301C17.1262 56.9232 17.86 57.3097 18.3877 57.9142C18.9153 58.5186 19.1991 59.2979 19.1837 60.1002C19.2047 61.8598 18.0503 63.0326 16.4678 63.5879C15.4962 63.8478 14.4931 63.971 13.4874 63.954C12.394 64.0111 11.2945 63.9672 10.1052 63.9672V69.3779C11.8222 69.4678 13.2845 69.4291 14.7081 69.6444C16.9397 69.9817 17.9603 71.0496 17.9944 72.7948C18.0312 74.6673 16.8557 75.8349 14.5047 76.0942C13.1048 76.2491 11.6825 76.2366 10.2116 76.3022V80.4372C11.5007 80.7312 12.6755 81.0213 13.8601 81.2668C19.1253 82.3596 24.407 83.3763 29.655 84.5432C34.315 85.5809 36.8832 88.77 38.0738 93.2338C38.3278 94.1835 38.5988 95.1286 38.908 96.2333L42.552 95.9136ZM124.022 74.7848C124.488 79.1258 124.912 83.0875 125.351 87.1896H135.411C135.678 83.0113 135.936 78.9722 136.205 74.7848H124.022Z" fill="black"/>
</g>
<defs>
<clipPath id="clip0_6_2204">
<rect width="144.394" height="152.27" fill="white"/>
</clipPath>
</defs>
</svg>
