<svg width="91" height="155" viewBox="0 0 91 155" fill="none" xmlns="http://www.w3.org/2000/svg">
<g clip-path="url(#clip0_8_2787)">
<path d="M5.82657 56.8277C10.1108 60.3797 14.5691 63.9324 19.4536 67.6891C22.3728 69.935 25.298 72.0791 28.3947 74.3489C29.5295 75.1817 30.6776 76.0247 31.8394 76.8776C31.1965 77.338 30.5637 77.7888 29.9409 78.2304C28.0679 79.5599 26.2991 80.8161 24.5603 82.1495C18.5091 86.7924 12.4552 91.5306 6.60048 96.1131C5.83106 96.6819 5.14985 97.359 4.57827 98.1229C3.90597 99.0698 3.57697 100.214 3.64485 101.37C3.71273 102.525 4.17336 103.623 4.95196 104.486C5.69993 105.293 6.69593 105.834 7.78551 106.024C8.87502 106.215 9.9974 106.044 10.979 105.538C11.9057 105.033 12.7715 104.425 13.5596 103.727C15.7528 101.925 17.9432 100.118 20.1307 98.3065C23.4735 95.5444 26.9295 92.6869 30.3476 89.9021C31.4134 89.035 32.5262 88.2548 33.8172 87.3514C34.1118 87.1445 34.4138 86.9331 34.7228 86.7146C34.7267 87.2846 34.7292 87.7276 34.7135 88.1686C34.6232 90.692 34.5119 93.2142 34.3999 95.7376C34.1629 101.112 33.9168 106.67 33.892 112.146C33.8488 121.589 34.0129 131.187 34.172 140.468C34.2091 142.677 34.2461 144.886 34.2823 147.095C34.297 148.499 34.54 149.89 35.0022 151.217C35.272 152.014 35.7281 152.737 36.3333 153.326C36.9384 153.915 37.6757 154.354 38.4847 154.607C38.9675 154.754 39.4696 154.828 39.9746 154.828C41.1267 154.821 42.2459 154.446 43.1668 153.76C45.6238 151.962 47.9202 150.128 49.9923 148.302C51.1869 147.251 52.3838 146.203 53.5828 145.156C58.1937 141.123 62.9608 136.954 67.4496 132.639C74.1574 126.19 81.1749 119.128 88.9046 111.048C90.3979 109.487 91.0886 107.783 90.9001 106.119C90.7037 104.404 89.6032 102.838 87.7131 101.588C85.6614 100.233 83.6063 98.8804 81.5467 97.5321C77.2409 94.7058 72.7871 91.7829 68.4532 88.8411C64.521 86.175 60.6701 83.4583 56.5921 80.5833C54.9943 79.4562 53.3672 78.3108 51.7108 77.1461C53.0498 76.0682 54.3562 75.0215 55.6293 74.0059C58.8372 71.4416 61.8676 69.0193 64.8398 66.5218L67.0253 64.6861C73.6205 59.1457 80.4416 53.4177 86.9635 47.5718C88.8869 45.848 89.778 44.1994 89.6824 42.5222C89.5835 40.7505 88.3737 39.059 85.9808 37.3501C73.3613 28.3355 58.7672 17.2565 46.2033 3.41092L46.0722 3.26715C45.6516 2.7667 45.1757 2.31439 44.6535 1.91878C42.5802 0.45828 40.4152 0.0255624 38.3897 0.668261C35.8947 1.46077 35.7963 3.81431 35.7243 5.53228L35.7166 5.72703C35.566 9.21158 35.4947 12.9146 35.4855 17.7326C35.4698 25.7981 35.4623 33.8642 35.4631 41.9307C35.4605 48.7355 35.4551 55.5406 35.4468 62.346C35.4468 63.0464 35.3814 63.7689 35.2957 64.6808C35.279 64.857 35.2619 65.0405 35.2445 65.2318L29.776 61.3675C23.3006 56.7927 17.1177 52.4233 10.9284 48.0658C10.7012 47.9056 10.4735 47.7416 10.2463 47.5788C9.20085 46.7733 8.07618 46.0745 6.88913 45.4926C5.98962 45.0668 4.97231 44.9517 3.99904 45.1655C3.02576 45.3792 2.15268 45.9094 1.51907 46.6718C0.885455 47.4343 0.527666 48.3851 0.50285 49.3724C0.478033 50.3597 0.787411 51.3264 1.38193 52.1191C2.68336 53.8465 4.17403 55.4257 5.82657 56.8277ZM45.0084 137.544C44.9652 126.496 45.2046 115.574 45.4371 104.996C45.5785 98.5756 45.7239 91.9463 45.8031 85.3903L77.2612 107.561C69.0293 116.349 60.174 124.16 50.8062 132.419C48.8867 134.113 46.9541 135.822 45.0084 137.544ZM44.6503 14.962C55.8224 26.0299 66.1016 34.856 76.8337 42.6001C75.2036 43.9711 73.5839 45.3406 71.9747 46.7086C63.4826 53.9074 55.4452 60.7168 46.3583 66.7643L44.6503 14.962Z" fill="black"/>
</g>
<defs>
<clipPath id="clip0_8_2787">
<rect width="91" height="155" fill="white"/>
</clipPath>
</defs>
</svg>
