<svg width="117" height="155" viewBox="0 0 117 155" fill="none" xmlns="http://www.w3.org/2000/svg">
<g clip-path="url(#clip0_8_2789)">
<path d="M55.3009 107.382C54.6267 108.47 53.8677 109.505 53.031 110.474C40.5289 122.797 27.9978 135.09 15.4376 147.353C13.3118 149.468 10.9861 151.374 8.49299 153.043C4.26471 155.798 0.927658 154.135 0.223707 149.114C0.102859 147.788 0.0751044 146.455 0.140553 145.124C0.187353 113.828 0.153585 82.5317 0.335585 51.2362C0.406435 38.9257 0.891349 26.6152 1.34375 14.3105C1.54802 11.6584 2.00056 9.03129 2.69564 6.46332C3.43274 3.25696 4.32061 2.39559 7.70064 2.1245C14.5705 1.57324 21.454 0.939644 28.3381 0.846904C53.4736 0.510311 78.6124 0.402671 103.749 0.150391C107.078 0.184034 110.371 0.847844 113.452 2.10645C114.198 2.3557 114.858 2.81229 115.352 3.42268C115.848 4.03307 116.158 4.77187 116.247 5.55211C116.485 7.08419 116.589 8.63381 116.558 10.1839C114.898 53.3361 114.083 96.4946 115.295 139.676C115.277 143.084 114.99 146.486 114.435 149.848C114.103 152.368 111.705 153.852 108.942 153.48C106.156 153.093 103.61 151.697 101.788 149.56C87.9262 134.096 70.9905 122.033 55.3009 107.382ZM107.851 7.75387L9.72025 8.46337C9.59025 9.60868 9.47072 10.2502 9.45577 10.8935C9.30562 17.6564 9.01364 24.4206 9.05979 31.1822C9.30159 66.5829 9.59318 101.983 9.93469 137.382C9.94119 138.076 10.0341 138.769 10.1225 139.936C11.3146 138.828 12.1338 138.112 12.9014 137.347C25.1691 125.103 37.4305 112.855 49.6861 100.602C54.1574 96.123 56.996 96.0063 61.6838 100.122C67.6124 105.326 73.6366 110.423 79.5406 115.656C87.936 123.096 96.2579 130.619 104.621 138.096C105.17 138.504 105.743 138.878 106.337 139.218C103.873 95.2053 106.579 51.7531 107.851 7.75387Z" fill="black"/>
</g>
<defs>
<clipPath id="clip0_8_2789">
<rect width="117" height="155" fill="white"/>
</clipPath>
</defs>
</svg>
