<svg width="107" height="159" viewBox="0 0 107 159" fill="none" xmlns="http://www.w3.org/2000/svg">
<g clip-path="url(#clip0_6_2206)">
<path d="M28.5844 28.784C26.7512 28.3567 24.9206 27.9164 23.0836 27.5049C20.4319 26.9142 18.9152 25.1781 18.7938 22.5679C18.5916 18.2 18.5529 13.817 18.6573 9.44514C18.7229 6.58941 20.8712 4.96549 23.2077 4.12472C26.2426 3.03324 29.4521 1.95428 32.6288 1.8112C47.0951 1.15946 61.5732 0.733434 76.0534 0.453176C81.2904 0.3521 85.0092 1.71544 85.7213 9.16488C86.1473 13.6155 86.5548 18.0693 86.8653 22.5291C87.0366 24.9989 85.4535 27.0146 82.7264 28.0425C81.8784 28.3343 81.0101 28.5641 80.1286 28.7302C79.282 28.9146 78.4222 29.0315 77.4429 29.1995C77.4921 31.3425 78.8527 32.3394 80.2448 33.2616C81.9277 34.3774 83.6578 35.4235 85.3807 36.4776C96.583 43.3212 102.111 53.6211 103.601 66.3749C105.624 83.6957 105.772 101.108 106.09 118.509C106.199 124.459 106.126 130.418 105.917 136.365C105.799 139.834 105.436 143.29 104.833 146.707C103.914 151.875 101.053 154.694 95.4837 155.414C87.1396 156.493 78.7595 157.557 70.3636 157.918C52.7081 158.678 35.1241 157.3 17.6484 154.744C14.5475 154.27 11.5095 153.451 8.59109 152.3C4.48568 150.703 1.65088 147.771 1.1153 143.144C0.768101 140.153 0.226074 137.144 0.276612 134.152C0.522082 119.443 0.656595 104.723 1.38579 90.0339C1.91086 79.4058 2.5566 68.7285 5.11566 58.3126C7.2645 49.5643 12.3526 42.7417 19.2231 37.1511C21.4835 35.3133 23.91 33.6725 26.28 31.9726C27.2737 31.2592 28.3186 30.6166 29.3406 29.9419C29.089 29.5542 28.8369 29.1682 28.5844 28.784ZM35.3776 29.3445C35.6092 34.4941 32.0708 37.6032 28.3067 40.5797C27.0754 41.5531 25.8999 42.5999 24.7244 43.6415C19.3017 48.4439 14.945 54.059 14.0222 61.3982C12.5868 72.8484 11.2565 84.3415 10.6218 95.8563C9.81975 110.418 9.76843 125.021 9.37463 139.606C9.28208 143.054 9.83419 143.983 13.3489 144.601C17.4293 145.319 21.5531 145.834 25.6762 146.262C47.6353 148.545 69.5924 148.751 91.5384 146.035C94.6232 145.654 95.5611 144.485 95.4955 141.394C95.3557 134.778 95.1942 128.161 95.2434 121.545C95.3747 103.923 95.6773 86.2993 94.2852 68.7095C93.7083 61.4244 92.2755 54.3904 87.1029 48.8746C84.5432 46.209 81.6855 43.8462 78.5869 41.8327C74.1067 38.8589 70.3761 35.5646 70.237 29.3452L35.3776 29.3445ZM25.0816 21.8367C42.8694 22.1371 60.6611 21.5437 78.3893 20.0587C78.0835 15.7656 77.815 12.0015 77.5361 8.10089C75.3426 7.75067 73.1321 7.51301 70.9143 7.38877C59.6908 7.33363 48.4674 7.26793 37.2493 7.46812C33.921 7.52784 30.5705 8.27344 27.2993 9.01248C24.6083 9.62156 24.2185 10.2425 24.3091 13.0529C24.399 15.8305 24.7836 18.599 25.0816 21.8367Z" fill="black"/>
<path d="M21.291 95.6423C21.291 87.6717 21.249 79.7018 21.3067 71.7325C21.3435 66.6978 23.1715 64.7358 28.1662 64.5376C37.7021 64.1596 47.2426 63.9101 56.7825 63.6253C61.9465 63.471 67.1106 63.3024 72.276 63.2525C73.951 63.204 75.624 63.3906 77.2471 63.8071C80.0037 64.5823 80.7913 65.8235 80.8963 68.697C81.317 80.2538 81.6675 91.8139 82.1788 103.367C82.4814 110.206 83.1101 117.03 83.4298 123.869C83.4252 125.769 83.1981 127.662 82.7544 129.51C82.6501 130.188 82.314 130.81 81.804 131.268C81.2934 131.727 80.6397 131.995 79.9538 132.026C76.0722 132.395 72.1847 133.005 68.3012 132.995C56.6184 132.964 44.9415 132.71 33.2626 132.47C31.5784 132.413 29.9057 132.171 28.2746 131.748C25.3368 131.023 23.5699 129.32 22.7448 126.146C21.7341 122.263 21.6289 118.442 21.7307 114.501C21.8895 108.218 21.7735 101.928 21.7735 95.6409L21.291 95.6423ZM28.6564 70.2223C29.4164 87.9946 30.166 105.498 30.9313 123.436H74.4215V71.7555C59.0737 70.1941 44.0809 70.6227 28.6564 70.2223Z" fill="black"/>
<path d="M49.9367 106.929H43.5519C42.8798 106.929 42.2051 106.964 41.5356 106.92C38.3425 106.711 36.2941 105.078 36.3131 102.785C36.3315 100.545 38.0683 99.002 41.2299 98.7664C46.814 98.3509 52.4073 98.0444 58.0006 97.776C59.2316 97.7327 60.4627 97.8593 61.659 98.1527C63.8906 98.6778 65.215 100.174 65.2912 102.004C65.3719 103.95 64.0139 105.65 61.6563 106.219C60.2353 106.532 58.7861 106.7 57.3312 106.719C54.8686 106.797 52.4019 106.741 49.9367 106.741V106.929Z" fill="black"/>
<path d="M50.7269 77.125C53.8623 77.125 56.9981 77.0784 60.1321 77.1382C63.5536 77.2038 65.6823 78.8761 65.5909 81.3033C65.5017 83.6661 63.1966 85.3988 59.8979 85.3201C53.6325 85.1698 47.3704 84.8987 41.1076 84.6585C40.4365 84.6375 39.7698 84.541 39.1202 84.371C36.8388 83.7573 35.7125 82.2852 35.9402 80.3017C36.1542 78.4397 37.3763 77.2694 39.6446 77.1362C42.1 76.9918 44.5671 77.0771 47.0316 77.0666C48.2629 77.0614 49.495 77.0666 50.7269 77.0666V77.125Z" fill="black"/>
<path d="M51.854 111.539C53.7574 111.539 55.6655 111.465 57.5643 111.568C58.6701 111.648 59.7612 111.869 60.8112 112.225C62.1495 112.657 62.9561 113.804 62.5354 115.077C62.2006 116.088 61.1727 116.905 60.3503 117.702C59.9577 117.926 59.5001 118.008 59.0542 117.934C54.2511 117.719 49.4473 117.505 44.6475 117.229C42.9456 117.131 42.009 116.048 41.8515 114.413C41.6998 112.845 42.8767 111.699 44.8142 111.419C45.4805 111.35 46.1512 111.334 46.8199 111.372C47.7152 111.387 48.6092 111.448 49.5044 111.468C50.2881 111.485 51.0718 111.471 51.8554 111.471L51.854 111.539Z" fill="black"/>
<path d="M49.3317 88.8452C53.0466 88.8222 54.9001 89.8868 55.034 91.716C55.1652 93.5262 53.4658 95.0712 50.5392 95.341C48.8765 95.4217 47.2106 95.2668 45.5911 94.8815C44.2528 94.619 43.265 93.5308 43.6352 92.203C43.9797 91.0859 44.7398 90.1441 45.7585 89.5711C47.0174 88.9647 48.5769 88.9791 49.3317 88.8452Z" fill="black"/>
</g>
<defs>
<clipPath id="clip0_6_2206">
<rect width="106.327" height="158.177" fill="white"/>
</clipPath>
</defs>
</svg>
