<svg width="162" height="161" viewBox="0 0 162 161" fill="none" xmlns="http://www.w3.org/2000/svg">
<path d="M83.573 0.496582C106.079 0.956017 122.812 1.29167 139.545 1.64806C141.004 1.66302 142.461 1.76801 143.908 1.96245C153.828 3.41361 158.929 9.85621 160.316 19.0272C161.277 25.3937 161.108 32.0119 160.765 38.4815C160.136 50.3612 158.603 62.195 158.205 74.0735C157.856 84.4889 158.308 94.9516 158.843 105.371C159.39 116.04 159.772 126.679 158.504 137.312C158.288 139.095 157.959 140.862 157.519 142.602C155.017 152.553 148.549 158.123 138.466 159.477C134.914 160.017 131.327 160.295 127.734 160.307C105.279 159.979 82.8202 159.684 60.3726 159.035C48.2631 158.685 36.1683 157.734 24.0772 156.887C20.9438 156.633 17.8429 156.072 14.819 155.213C6.81164 153.022 2.23766 147.648 1.32076 139.427C0.761186 134.521 0.46778 129.588 0.442333 124.65C0.390482 102.752 0.38812 80.8528 0.58174 58.9555C0.653281 50.8826 1.50049 42.8161 1.63964 34.7405C1.67806 29.7047 2.23841 24.6865 3.31189 19.7663C4.84837 12.9929 8.50624 8.2873 15.1497 5.85625C22.9385 2.93247 31.1597 1.3261 39.4762 1.1026C56.0953 0.763933 72.7225 0.636382 83.573 0.496582ZM111.705 9.44272C111.576 10.0529 111.492 10.6716 111.454 11.2941C111.471 23.7573 111.534 36.2213 111.531 48.6852C111.531 53.7344 111.486 58.7873 111.287 63.8319C111.099 68.5924 109.545 69.8703 104.861 70.016C96.5607 70.2785 88.2632 70.6664 79.9652 71.0209C72.4527 71.3425 64.9441 71.7697 57.429 71.9942C53.0407 72.1255 51.2287 70.3875 51.3002 65.9257C51.5489 50.436 51.9564 34.9466 52.2754 19.457C52.3449 16.0375 52.2854 12.6159 52.2854 8.87676C46.079 9.24562 39.784 9.36448 33.5541 10.0628C27.6424 10.7853 21.8839 12.447 16.4963 14.9854C15.2008 15.5252 14.0565 16.3725 13.1624 17.4543C12.2683 18.5361 11.6514 19.8197 11.3652 21.1937C10.6347 24.5889 9.70386 27.9381 8.57765 31.2233C7.35365 34.7204 6.79707 38.4158 6.93681 42.1183C7.1849 64.0131 7.32214 85.9099 7.65884 107.803C7.81243 117.79 8.17446 127.774 8.74462 137.753C9.20012 145.704 11.7306 148.342 19.5181 150.079C20.1694 150.252 20.8302 150.387 21.4971 150.483C28.1917 151.174 34.8805 152.18 41.5955 152.452C58.0827 153.123 74.5845 153.448 91.0796 153.923C96.2423 154.072 101.405 154.41 106.569 154.382C115.883 154.335 125.214 154.401 134.502 153.822C144.74 153.185 149.104 148.935 151.013 138.899C152.728 129.889 152.654 120.769 151.977 111.707C151.045 99.2657 150.368 86.8268 150.837 74.3616C151.183 65.1695 152.084 55.9991 152.517 46.8091C152.851 39.7489 153.375 32.6323 152.862 25.6095C152.04 14.3717 148.039 9.91857 137.074 9.82537C134.157 9.80108 131.242 9.48866 128.323 9.45519C122.839 9.39875 117.353 9.44272 111.705 9.44272ZM59.0435 8.83732C58.4003 27.8961 59.3921 46.6426 60.028 65.8732L102.934 63.5143C103.876 60.4374 104.073 12.0359 103.228 8.84152L59.0435 8.83732Z" fill="black"/>
<path d="M143.666 129.398C146.209 129.445 148.287 130.999 148.539 133.256C148.795 135.562 147.22 137.392 144.319 138.048C143.444 138.242 142.552 138.349 141.656 138.366C126.513 138.738 111.369 139.093 96.2261 139.432C94.3214 139.512 92.4141 139.462 90.5159 139.285C88.1702 139.023 86.8995 137.723 86.9212 136.004C86.9435 134.223 88.1682 133.206 90.6885 133.05C105.242 132.155 119.798 131.309 134.349 130.386C137.364 130.196 140.367 129.757 143.666 129.398Z" fill="black"/>
<path d="M138.37 105.616C138.955 110.051 139.509 113.998 139.983 117.955C140.239 119.611 140.337 121.287 140.277 122.962C140.25 123.869 139.893 124.735 139.273 125.398C138.652 126.061 137.811 126.475 136.908 126.563C136.01 126.713 135.088 126.52 134.326 126.022C133.564 125.523 133.018 124.755 132.796 123.872C132.429 122.59 132.248 121.26 132.259 119.927C132.174 115.56 132.208 111.191 132.144 106.824C132.126 105.629 131.927 104.437 131.741 102.531C130.241 104.152 129.19 105.384 128.035 106.51C126.865 107.708 125.604 108.814 124.263 109.819C123.058 110.672 121.481 110.707 120.676 109.412C120.128 108.529 120.269 107.151 120.315 106.004C120.333 105.544 120.909 105.092 121.255 104.654C123.545 101.757 125.861 98.8813 128.13 95.9685C130.648 92.736 133.203 92.1026 136.497 94.5081C139.922 97.0101 143.061 99.8999 146.316 102.636C146.647 102.939 146.94 103.28 147.19 103.653C148.507 105.459 148.713 107.149 147.638 108.239C146.233 109.662 144.553 109.444 142.993 108.606C141.542 107.826 140.212 106.821 138.37 105.616Z" fill="black"/>
<path d="M103.393 105.233C103.69 108.64 103.993 111.713 104.216 114.792C104.402 117.362 104.533 119.935 104.61 122.512C104.642 123.405 104.525 124.298 104.262 125.153C103.855 126.41 102.904 127.486 101.557 127.203C100.498 126.979 99.1231 126.222 98.7286 125.331C98.0539 123.673 97.6936 121.904 97.6667 120.115C97.5092 115.745 97.5892 111.367 97.5505 106.992C97.5413 105.921 97.4455 104.849 97.3536 103.116C95.1687 105.065 93.4458 106.599 91.7268 108.136C90.892 108.883 90.1037 109.69 89.2236 110.378C88.1459 111.221 86.8955 111.412 85.852 110.435C84.7861 109.437 84.937 108.167 85.7863 107.088C86.8214 105.765 87.928 104.49 89.0857 103.273C91.4801 100.756 93.9177 98.2847 96.3573 95.8083C98.3093 93.8288 100.104 93.4856 102.352 95.1297C105.879 97.7084 109.233 100.523 112.65 103.251C112.993 103.541 113.304 103.868 113.577 104.225C114.838 105.792 115.135 107.754 114.299 108.878C113.524 109.92 111.477 110.199 109.639 109.2C107.594 108.089 105.699 106.715 103.393 105.233Z" fill="black"/>
</svg>
