<svg width="115" height="160" viewBox="0 0 115 160" fill="none" xmlns="http://www.w3.org/2000/svg">
<g clip-path="url(#clip0_8_2791)">
<path d="M99.6262 93.9723C107.248 84.5791 112.146 73.2919 113.793 61.329C117.03 37.543 107.268 18.7158 86.3058 8.31582C79.8337 5.10476 72.7854 3.37841 66.1219 1.88638C49.0544 -1.93541 33.4269 1.0261 19.6707 10.6853C8.4765 18.5468 2.32603 28.1492 0.868278 40.0425C-0.230747 49.1026 0.364733 58.2869 2.62463 67.1313C7.18542 85.1859 15.3457 99.3758 27.5709 110.51C27.8754 110.788 28.184 111.064 28.493 111.34C29.8541 112.484 31.1082 113.749 32.2402 115.118C33.2765 116.46 34.4704 118.193 34.4991 119.685C34.6043 125.287 34.2764 130.807 33.9066 135.935C33.6772 139.109 33.31 142.334 32.9546 145.453C32.737 147.359 32.52 149.265 32.3312 151.177C31.9104 155.421 33.3643 157.544 37.3495 158.505C39.7136 159.09 42.139 159.393 44.5749 159.409H44.7989C52.8698 159.341 61.0687 159.157 69.0028 158.978L74.2954 158.861C79.4325 158.749 81.5025 156.887 81.9331 151.99C82.6872 143.414 83.0492 136.828 83.1047 130.636L83.1125 129.974C83.157 126.301 83.2066 122.157 79.9906 118.614L85.9751 111.103C90.5372 105.375 95.0876 99.6653 99.6262 93.9723ZM74.3895 117.569L65.428 116.895C65.4156 116.822 65.4137 116.749 65.4215 116.676C66.742 111.62 68.0763 106.569 69.4236 101.522C72.4208 90.2311 75.5193 78.5563 78.3329 67.0129C80.5041 58.1071 80.5734 50.2149 78.5426 42.8867C77.5435 39.2809 75.646 36.6176 73.054 35.1848C71.8053 34.5334 70.4377 34.1405 69.0329 34.03C67.6281 33.9196 66.2147 34.0937 64.8794 34.542C63.815 34.8947 62.7896 35.3552 61.8194 35.9159L61.4209 36.1277C60.7937 36.46 60.2115 36.8433 59.5954 37.2446L59.2562 37.4657C59.087 37.2536 58.9215 37.0421 58.7569 36.832C58.1545 36.0345 57.5115 35.2682 56.8301 34.5363C53.2083 30.7698 47.9967 30.403 43.8587 33.6258C41.0581 35.8836 38.9354 38.8648 37.723 42.243C33.4563 53.1406 33.1394 64.5031 36.7815 76.0139C38.6875 82.038 40.7066 88.1349 42.6622 94.0302C43.3993 96.2545 44.1345 98.4796 44.8681 100.705C46.464 105.698 47.3975 110.876 47.6451 116.11H40.8092C40.4283 111.198 37.15 107.868 33.9803 104.642C33.3922 104.046 32.8043 103.448 32.2339 102.839C19.1435 88.8971 11.9599 73.9651 10.2741 57.19C9.69321 51.4131 9.26326 45.262 10.0428 39.4213C11.2189 30.6083 16.2704 23.2264 25.4847 16.8524C36.7077 9.08915 49.1886 6.58183 62.5737 9.40004C69.6308 10.8849 76.487 12.4843 82.795 15.6992C99.1256 24.0244 106.593 38.5122 104.389 57.5971C102.869 70.7567 96.7832 82.3599 84.6552 95.221C81.4712 98.5999 77.9147 102.745 75.6813 107.873C74.5215 110.536 73.3924 113.679 74.3895 117.569ZM74.7973 133.886L74.4235 139.631H40.6321V132.867L74.7973 133.886ZM73.7512 146.977L73.5558 151.391C63.446 151.838 51.7909 152.215 40.2844 151.341C40.2615 151.184 40.2382 151.036 40.2192 150.896C40.1363 150.484 40.0938 150.065 40.0929 149.645C40.138 148.666 40.2336 147.682 40.3335 146.64C40.357 146.4 40.3803 146.156 40.4034 145.909L73.7512 146.977ZM40.0454 121.832L41.0092 121.86C52.636 122.2 63.6276 122.521 74.8672 123.687L75.0305 126.452C63.5182 127.086 51.9788 127.059 40.47 126.368L40.0454 121.832ZM48.7455 92.2123C48.3221 90.8731 47.8961 89.5339 47.4929 88.1908C45.2975 80.9134 43.1863 73.7739 41.4901 66.4386C39.9134 59.625 40.8367 52.4138 44.386 43.7446C45.1695 42.0089 46.2899 40.4448 47.6831 39.1418C47.9413 38.8346 48.2617 38.5847 48.6233 38.4089C48.9849 38.233 49.3796 38.135 49.7818 38.1212C50.5436 38.1563 51.3335 38.6553 52.1287 39.6036C54.1797 42.0498 54.2238 42.6681 52.5517 45.6151C49.1501 51.6119 47.7645 57.3726 48.3167 63.2256C48.4461 65.0669 48.8778 66.8737 49.5948 68.5759C49.8831 69.4331 50.4021 70.1954 51.0953 70.7794C51.7884 71.3635 52.6294 71.7472 53.5264 71.889C54.4234 72.0308 55.3421 71.9248 56.1828 71.5827C57.0235 71.2406 57.7537 70.6754 58.2942 69.9489C59.5061 68.5407 60.4559 66.9284 61.0993 65.1885C63.535 59.0183 64.0045 52.2516 62.4441 45.8066C61.9521 43.6954 63.4519 41.9221 66.561 40.9406C67.8234 40.5419 68.8153 40.5414 69.5073 40.9362C69.866 41.1861 70.1685 41.5077 70.3952 41.8804C70.6226 42.253 70.769 42.6687 70.8252 43.1008C71.6093 46.5382 72.5796 50.816 72.0902 54.6586C71.2408 61.3038 69.7948 68.0015 68.3945 74.4783C68.1331 75.6965 67.8724 76.9141 67.6111 78.131C66.7721 82.0692 65.8554 86.0627 64.9684 89.9241C63.7786 95.1105 62.5507 100.474 61.4857 105.782C61.0356 108.387 60.7847 111.02 60.735 113.662C60.6866 114.722 60.6375 115.808 60.5643 116.922L52.5993 116.434C53.6833 107.823 51.1755 99.8897 48.7474 92.2123H48.7455ZM55.4959 58.6877L55.9573 55.8619C55.9555 56.8222 55.8004 57.7759 55.4978 58.6877H55.4959Z" fill="black"/>
</g>
<defs>
<clipPath id="clip0_8_2791">
<rect width="115" height="160" fill="white"/>
</clipPath>
</defs>
</svg>
