<svg width="166" height="146" viewBox="0 0 166 146" fill="none" xmlns="http://www.w3.org/2000/svg">
<g clip-path="url(#clip0_6_1939)">
<path d="M8.79823 124.094C8.56083 123.978 8.31038 123.89 8.05276 123.832C1.8832 123.438 -0.929305 120.125 0.317736 114.048C1.04982 110.545 2.20869 107.146 3.76864 103.925C4.74527 101.902 6.75696 100.381 8.25209 98.6899C7.75721 96.524 6.78813 94.196 6.81832 91.8791C6.8472 89.6371 7.9041 87.4082 8.55847 84.9935C3.68978 80.4477 3.55443 79.475 7.00545 71.5911C5.09552 69.6148 4.88523 67.2225 5.18386 64.5026C6.00822 57.0065 6.99212 49.5518 9.85769 42.5185C17.143 24.6405 30.0605 12.3722 48.1157 5.98144C70.0407 -1.77844 92.175 -1.89467 114.001 6.63312C124.084 10.5712 132.987 16.4435 139.343 25.4524C141.859 28.8866 143.971 32.5994 145.638 36.5175C147.845 42.0117 149.419 47.7711 151.074 53.4727C152.225 57.4389 152.583 61.4545 149.695 65.1805C152.393 67.3603 154.738 69.5328 155.871 72.7187C157.042 76.0148 156.157 78.8836 154.271 81.744C157.722 85.2672 158.216 89.3955 156.671 94.0647C159.592 96.3022 162.265 98.8711 163.47 102.507C164.167 104.391 164.616 106.357 164.806 108.358C165.173 114.802 162.647 117.662 156.389 118.395C156.239 121.287 156.21 124.168 155.915 127.02C155.315 132.828 151.948 136.597 146.449 137.968C141.214 139.216 135.907 140.136 130.557 140.724C120.529 141.93 110.484 143.054 100.417 143.853C83.833 145.166 67.2145 145.761 50.6045 144.328C41.3278 143.528 32.0681 142.508 22.8236 141.395C20.1617 141.002 17.5506 140.319 15.0366 139.361C13.526 138.865 12.1954 137.934 11.2127 136.685C10.23 135.435 9.63913 133.923 9.51416 132.338C9.16762 129.583 9.02467 126.798 8.79823 124.094ZM145.046 61.9205C143.618 55.9248 142.458 50.2305 140.879 44.6549C139.345 38.8941 136.714 33.4836 133.129 28.7209C126.865 20.6066 118.516 15.5541 109.14 12.0322C94.9317 6.69554 80.235 5.73138 65.3721 8.18937C44.6719 11.6089 28.1316 21.3102 18.0273 40.4589C13.9876 48.1137 12.103 56.3199 10.6236 64.952C11.707 65.4024 12.8272 65.7595 13.9714 66.0194C17.74 66.5209 21.5315 67.3104 25.3028 67.2487C40.1124 67.0046 54.9165 66.4395 69.725 66.0673C81.7321 65.7654 93.7411 65.5762 105.749 65.3209C116.744 65.0879 127.744 64.8812 138.639 63.1498C140.712 62.8196 142.764 62.3622 145.046 61.9205ZM134.861 114.14C133.03 115.555 131.3 116.765 129.713 118.147C126.829 120.651 123.761 121.079 120.402 119.257C119.095 118.612 117.833 117.883 116.622 117.072C113.545 114.829 110.56 114.619 107.316 116.817C105.15 118.216 102.896 119.476 100.57 120.59C98.6813 121.606 96.5738 122.144 94.4296 122.157C92.286 122.171 90.1712 121.658 88.2712 120.666C86.5647 119.823 84.8812 118.92 83.2587 117.928C82.328 117.288 81.2392 116.919 80.1116 116.861C78.984 116.803 77.8623 117.059 76.8706 117.6C74.8858 118.632 72.9017 119.685 71.0154 120.881C69.6226 121.846 68.0002 122.426 66.3114 122.564C64.6231 122.703 62.9276 122.394 61.3962 121.669C59.4413 120.828 57.5843 119.775 55.8578 118.53C52.9843 116.387 50.0815 116.254 47.0466 117.888C45.2745 118.841 43.5932 119.97 41.8926 121.055C37.5168 123.845 33.2145 123.624 28.9876 120.749C27.9684 120.056 27.0061 119.277 26.038 118.511C23.5124 116.514 20.8869 116.49 18.2478 118.2C17.0611 118.968 15.9954 119.922 15.0443 120.661C15.4381 123.171 15.7199 125.282 16.1006 127.376C16.9348 131.965 17.2227 132.239 21.7179 133.189C22.0461 133.259 22.3864 133.276 22.7178 133.334C36.6646 135.689 50.7679 137 64.91 137.257C87.645 137.816 110.169 135.127 132.671 132.338C136.112 131.911 139.527 131.225 142.921 130.505C145.388 129.98 146.735 128.286 146.977 125.767C147.174 123.696 147.34 121.622 147.536 119.348C142.404 119.913 138.553 117.873 134.861 114.14ZM6.74908 117.487C8.27966 116.712 9.47643 116.183 10.5929 115.518C11.7467 114.83 12.7908 113.959 13.9368 113.255C19.4736 109.854 24.4289 110.163 29.4741 114.189C30.1742 114.749 30.87 115.316 31.5617 115.889C33.8287 117.766 36.1757 117.924 38.6757 116.324C40.4399 115.131 42.2675 114.036 44.1507 113.042C49.1756 110.548 54.0617 110.574 58.6882 114.125C59.863 114.985 61.1035 115.751 62.3981 116.418C63.3161 116.972 64.3789 117.237 65.4496 117.181C66.5201 117.125 67.5493 116.748 68.4038 116.1C70.2488 114.828 72.1988 113.714 74.2327 112.772C78.2587 110.952 82.2611 110.935 86.079 113.49C87.1016 114.175 88.2081 114.733 89.2629 115.371C90.6714 116.313 92.3221 116.829 94.0167 116.856C95.7114 116.883 97.3778 116.42 98.8152 115.522C100.952 114.29 103.122 113.111 105.209 111.798C109.672 108.991 114.018 109.134 118.5 111.834C124.005 115.152 124.049 115.079 129.141 111.271C133.408 108.081 136.614 107.975 141.194 110.91C142.473 111.729 143.711 112.617 145.067 113.54C146.839 111.33 147.335 107.715 150.535 107.938C153.029 108.112 155.436 109.604 157.952 110.538C160.469 106.749 158.262 100.339 153.675 97.8997C149.942 99.0155 146.579 100.322 143.094 101.016C130.077 103.611 116.821 104.058 103.636 105.165C97.1941 105.706 90.7337 104.913 84.2977 105.694C83.0776 105.842 81.7518 105.073 80.4686 104.749C79.2137 104.432 77.9509 103.881 76.6927 103.883C63.3381 103.908 49.9797 104.206 36.6298 104.032C30.2633 103.949 23.9054 102.973 17.537 102.495C16.3246 102.395 15.1048 102.553 13.9579 102.959C9.26443 104.728 6.29686 110.5 6.74908 117.49V117.487ZM51.8262 72.8827C51.8638 73.1085 51.9009 73.3343 51.9377 73.5601C60.9604 80.5599 69.9364 87.6208 79.024 94.534C83.7175 98.1045 83.0513 99.3725 88.1674 93.9013C94.1401 87.5178 99.8312 80.8743 105.631 74.3313C106.124 73.776 106.51 73.1269 107.399 71.893L51.8262 72.8827ZM70.6997 97.1758C67.2454 94.2735 64.3851 91.948 61.6219 89.5124C60.3492 88.39 59.0562 88.1498 57.3557 88.1774C44.9115 88.3743 32.463 89.6325 20.0149 88.1085C18.4968 87.9227 16.9048 88.2896 15.3545 88.4439C13.8495 88.5928 13.293 89.6174 13.165 90.9767C12.9911 92.8236 13.7529 94.131 15.8564 94.6745C18.4393 95.4306 21.0964 95.9058 23.7812 96.0922C38.2488 96.6087 52.7253 96.9552 67.1948 97.3458C68.0619 97.372 68.9354 97.269 70.6997 97.1784V97.1758ZM150.338 84.7828C146.168 85.8507 142.32 87.2145 138.359 87.779C126.935 89.4572 115.402 90.2764 103.857 90.2291C103.112 90.1589 102.367 90.3531 101.752 90.7771C99.5989 92.991 97.582 95.3374 95.2487 97.9358C98.6196 97.9358 101.402 98.1111 104.155 97.9043C114.214 97.1515 124.282 96.444 134.309 95.363C139.093 94.8392 143.819 93.8757 148.427 92.4849C152.585 91.2366 153.123 88.182 150.338 84.7854V84.7828ZM108.499 82.6786C110.023 82.6786 110.917 82.7278 111.805 82.6707C119.186 82.1988 126.599 81.9842 133.935 81.1204C138.583 80.4634 143.16 79.3811 147.61 77.8873C150.462 76.9993 151.022 75.3571 150.226 72.9838C149.297 70.2206 147.296 68.7924 144.844 69.2539C136.91 70.751 128.861 71.5445 120.788 71.6259C119.237 71.641 117.688 71.7748 116.684 71.8228L108.499 82.6786ZM13.3894 71.7033C12.5918 73.1308 11.8748 74.6017 11.2422 76.11C10.4913 78.2234 10.7675 78.9204 12.9708 79.6627C15.1969 80.4162 17.4908 80.9531 19.82 81.2662C29.3199 82.5132 38.8599 81.9671 48.39 81.6908C49.2514 81.5864 50.105 81.4237 50.9442 81.2031C49.407 80.0375 48.3731 79.2046 47.2888 78.4432C45.6375 77.2835 43.6363 76.444 42.3663 74.9647C41.0536 73.4374 39.6883 73.2792 37.9687 73.2772C29.9023 73.27 21.8063 73.7997 13.3894 71.7033Z" fill="black"/>
<path d="M68.4409 23.308C68.5912 22.0038 68.3635 20.6386 69.919 20.1425C71.441 19.6568 72.5929 20.4089 73.221 21.7432C73.9023 23.1436 74.4372 24.611 74.8153 26.1218C75.1356 27.4856 74.8658 28.856 73.3313 29.4795C71.9766 30.0295 70.509 29.3994 69.7943 27.7592C69.2528 26.3045 68.8012 24.8179 68.4409 23.308Z" fill="black"/>
<path d="M44.0235 41.4111C44.5216 41.7589 45.7373 42.1645 45.9322 42.855C46.0504 43.3623 46.0567 43.8894 45.9508 44.3994C45.8449 44.9094 45.6291 45.3902 45.3188 45.8085C43.6511 47.6023 41.2799 48.1714 38.9125 48.26C37.2008 48.3257 36.4394 46.3639 37.5998 44.7651C39.0379 42.7882 41.1028 41.719 44.0235 41.4111Z" fill="black"/>
<path d="M125.018 56.5699C123.931 55.762 122.724 55.3012 122.418 54.4979C122.175 53.8573 122.794 52.4784 123.45 51.9934C124.776 50.9796 126.282 50.2263 127.888 49.7736C128.73 49.5576 130.314 50.1017 130.688 50.785C130.837 51.2827 130.858 51.8104 130.747 52.3184C130.637 52.8265 130.399 53.2981 130.057 53.6887C128.652 54.8497 126.87 55.5552 125.018 56.5699Z" fill="black"/>
<path d="M88.5297 46.1046C88.4365 43.9203 90.076 42.8275 91.8717 43.6493C93.5093 44.3981 95.3923 48.0652 95.0799 49.895C94.7997 51.5359 93.1936 52.3936 91.8507 51.4511C90.099 50.1609 88.9097 48.2468 88.5297 46.1046Z" fill="black"/>
<path d="M120.175 31.3633C120.163 33.3191 117.484 36.0095 115.55 36.0042C114.33 36.0009 113.177 34.6476 113.782 33.4143C114.521 31.8356 115.619 30.4522 116.989 29.3751C118.45 28.3132 120.188 29.5688 120.175 31.3633Z" fill="black"/>
<path d="M61.2217 60.5803C59.1575 60.4629 56.7417 58.0173 56.7817 56.3239C56.8025 55.9888 56.891 55.6613 57.0414 55.3611C57.1917 55.0608 57.4007 54.7942 57.6567 54.5768C57.9126 54.3595 58.2103 54.196 58.5309 54.0963C58.8516 53.9966 59.1891 53.9627 59.5231 53.9966C61.1495 54.2053 63.0118 56.6285 62.9593 58.4787C62.9226 59.7625 62.4832 60.6768 61.2217 60.5803Z" fill="black"/>
</g>
<defs>
<clipPath id="clip0_6_1939">
<rect width="165.397" height="145.707" fill="white"/>
</clipPath>
</defs>
</svg>
