<svg width="151" height="154" viewBox="0 0 151 154" fill="none" xmlns="http://www.w3.org/2000/svg">
<path d="M49.4307 133.204C49.4307 137.096 49.5757 140.486 49.3992 143.86C49.0874 149.817 46.8638 152.347 40.9252 153.212C37.5734 153.693 34.1852 153.874 30.8012 153.752C25.4947 153.567 23.2369 151.288 23.166 145.972C23.1154 141.275 23.3106 136.579 23.7508 131.902C23.9641 129.586 23.4883 128.088 21.602 126.628C17.6305 123.551 16.1183 119.119 15.7468 114.276C14.8194 102.192 13.8815 90.1086 13.1214 78.0136C12.9862 75.8543 12.3515 75.3226 10.2709 75.2569C4.39934 75.0719 1.76549 72.7688 1.3323 66.995C0.655619 57.969 -0.0230285 48.9135 0.000599625 39.8725C0.0196334 32.7335 2.58065 30.3339 9.62053 29.5522C12.1697 29.2687 12.9882 28.3406 12.9317 25.9115C12.9143 23.6156 13.0602 21.3214 13.3682 19.0462C14.444 10.0951 20.5223 5.76258 28.3176 3.09719C37.5904 -0.0781683 47.2097 -0.00596602 56.8434 0.0340706C71.376 0.09511 85.9093 -0.0479877 100.442 0.0176461C105.569 0.0406179 110.721 0.166682 115.817 0.689127C127.469 1.88366 133.443 7.87205 135.234 19.6973C135.864 23.8532 135.864 23.8532 139.885 24.226C144.396 24.6422 147.275 26.7785 147.75 31.1511C148.866 41.4497 150.015 51.7784 150.337 62.1197C150.592 70.3324 145.847 74.6899 137.599 75.276C133.93 75.5385 134.216 74.9478 134.004 79.2895C133.456 90.5129 133.078 101.76 131.965 112.931C131.356 119.047 129.123 124.831 123.343 128.439C122.679 128.854 122.49 130.484 122.55 131.524C122.76 135.331 123.364 139.127 123.45 142.934C123.571 148.25 121.592 150.448 116.344 151.386C114.194 151.77 112.032 152.087 109.87 152.388C103.959 153.21 100.371 150.53 99.7456 144.551C99.4779 141.396 99.3946 138.228 99.4961 135.064C99.5172 133.462 99.3216 132.787 97.3834 132.814C82.1117 133.028 66.8381 133.095 51.5644 133.208C50.9402 133.208 50.3128 133.204 49.4307 133.204ZM78.0838 10.3944V10.4476C68.4658 10.4476 58.8452 10.3202 49.2298 10.4889C41.7961 10.6202 34.4281 11.2109 27.4978 14.4971C23.9444 16.1833 22.4762 18.7286 22.4323 22.471C22.3981 25.4193 22.1697 28.3656 22.0824 31.3139C21.7313 43.2041 20.5072 55.0562 21.3401 66.9963C22.1828 79.088 22.4434 91.2198 23.0243 103.331C23.1962 106.926 23.5126 110.519 23.8978 114.094C24.396 118.716 26.9872 121.857 31.4287 122.992C35.9613 124.15 40.601 125.368 45.2354 125.56C58.0071 126.085 70.8115 126.52 83.5806 126.168C93.5996 125.892 103.577 124.296 113.588 123.468C119.617 122.97 122.675 119.56 123.347 113.921C124.184 106.881 125.167 99.8092 125.232 92.7385C125.401 74.594 125.767 56.4818 127.091 38.3675C127.567 31.8409 126.275 25.1272 125.294 18.5737C124.719 14.7295 121.984 12.2033 117.996 11.5627C114.778 10.9568 111.521 10.5839 108.25 10.4469C98.1966 10.3031 88.1382 10.3944 78.0825 10.3944H78.0838ZM134.818 66.2953C141.069 65.9842 141.881 65.2727 141.758 59.2069C141.584 50.7014 141.19 42.1998 140.949 33.695C140.897 31.8494 140.273 31.1471 138.351 31.5541C136.71 31.9013 136.058 32.5891 135.982 34.3763C135.712 40.6955 135.122 47.001 134.853 53.3202C134.668 57.6343 134.816 61.9681 134.816 66.2953H134.818ZM13.2665 34.4131C7.69811 35.2604 6.84355 35.7756 6.98729 39.5371C7.31546 48.139 7.98098 56.7285 8.50343 65.3233C8.61238 67.1118 9.28317 68.1317 11.3401 67.9795C13.4489 67.8226 13.0204 66.3432 13.0427 65.1238C13.1446 59.5593 13.217 53.9942 13.2599 48.4285C13.2947 43.8715 13.2665 39.3139 13.2665 34.4131ZM30.2098 131.313C30.2098 135.536 30.1954 139.547 30.2177 143.558C30.2256 145.043 30.4349 146.757 32.4177 146.346C35.259 145.755 38.8158 147.751 40.8694 144.162C40.9125 144.061 40.9325 143.952 40.9279 143.842C41.0532 140.692 41.275 137.542 41.212 134.396C41.1996 133.8 40.1304 132.848 39.4209 132.707C36.4661 132.119 33.4613 131.78 30.2112 131.312L30.2098 131.313ZM105.786 132.199C106.1 135.223 106.3 138.036 106.705 140.821C107.295 144.879 107.356 144.875 111.485 144.182C112.82 143.958 114.586 144.262 114.623 142.153C114.684 138.575 114.639 134.994 114.639 131.043L105.786 132.199Z" fill="black"/>
<path d="M76.3677 73.5963C63.0506 73.173 49.7257 72.9039 36.4191 72.258C30.0881 71.9509 27.2369 69.277 26.5668 62.9755C25.3296 51.3255 25.2443 39.6177 27.0965 28.0189C27.6371 25.0103 28.8522 22.1632 30.6506 19.6913C31.8445 18.0373 34.2775 16.7489 36.3548 16.3623C42.3445 15.2466 48.4202 14.1668 54.4894 13.985C68.4648 13.565 82.4592 13.5144 96.4412 13.6772C101.421 13.735 106.427 14.6348 111.352 15.5288C116.37 16.4391 119.1 19.8717 119.604 24.8487C120.187 30.6029 120.491 36.3852 120.909 42.1551C121.265 47.054 121.729 51.9496 121.914 56.8571C122.058 59.9035 121.929 62.9567 121.528 65.9802C120.986 69.7797 118.837 71.7415 115.035 72.2843C112.869 72.5559 110.687 72.6775 108.504 72.6485C97.7959 72.6833 87.0877 72.6643 76.3802 72.6643C76.3763 72.975 76.3721 73.2857 76.3677 73.5963ZM76.0626 65.4538L76.0573 65.7098C86.7534 65.3672 97.4495 65.0262 108.146 64.6871C113.585 64.5191 113.708 64.5316 113.505 58.9528C113.196 50.4453 112.718 41.9431 112.266 33.4415C112.151 31.2678 111.794 29.1098 111.662 26.9347C111.51 24.4176 110.159 23.2191 107.743 22.9966C103.183 22.5753 98.6235 21.7653 94.0646 21.7725C80.0885 21.7955 66.1046 21.9484 52.141 22.44C47.288 22.6107 42.4509 23.7993 37.6622 24.7917C36.9962 24.9487 36.3699 25.2419 35.8227 25.6528C35.2755 26.0638 34.8194 26.5835 34.4829 27.1794C33.5162 29.4379 32.5966 31.9661 32.6452 34.3644C32.8197 43.1993 33.3146 52.0316 33.86 60.8548C34.0976 64.6944 34.6089 65.3455 38.4058 65.394C50.9557 65.5561 63.5094 65.4577 76.0626 65.4577V65.4538Z" fill="black"/>
<path d="M72.2712 93.2697C66.8197 93.2697 61.3688 93.3084 55.9179 93.2572C52.0094 93.2198 49.9728 91.8749 50.0148 89.5272C50.0548 87.2898 51.7075 86.065 55.6948 85.9049C64.2987 85.5577 72.9099 85.4074 81.5171 85.1356C84.0184 85.0569 86.5138 84.755 89.0144 84.7182C90.291 84.6998 91.8255 84.667 92.7877 85.3161C93.914 86.0762 95.142 87.5326 95.2221 88.7593C95.1914 89.4826 94.9985 90.1897 94.6576 90.8284C94.3168 91.4671 93.8368 92.0211 93.2531 92.4492C91.8872 93.3117 89.9785 93.5762 88.2917 93.6195C82.9544 93.756 77.6119 93.67 72.2712 93.67V93.2697Z" fill="black"/>
<path d="M72.7894 104.459C69.1881 104.459 65.5855 104.514 61.9855 104.438C59.8695 104.394 57.9464 103.703 57.7909 101.222C57.6294 98.6407 59.6385 97.794 61.6698 97.7041C69.0832 97.3759 76.5031 97.2256 83.9236 97.0582C84.6917 96.979 85.4641 97.16 86.1171 97.5721C87.1626 98.5074 88.6388 99.6836 88.6854 100.812C88.732 101.941 87.4856 103.81 86.4053 104.178C84.305 104.893 81.9322 104.876 79.6639 104.992C77.3779 105.108 75.0807 105.018 72.7888 105.018L72.7894 104.459Z" fill="black"/>
<path d="M114.195 98.1724C110.097 98.1809 106.588 94.9051 106.647 91.1259C106.701 87.6099 110.043 84.5107 113.838 84.4575C115.717 84.4637 117.518 85.2119 118.849 86.5394C120.18 87.8669 120.933 89.6662 120.944 91.5459C120.911 93.3143 120.185 94.9993 118.923 96.2384C117.661 97.4776 115.963 98.172 114.195 98.1724Z" fill="black"/>
<path d="M28.748 93.0064C28.7514 92.1047 28.9426 91.2136 29.3096 90.3899C29.6766 89.5663 30.2112 88.8282 30.8793 88.2227C31.5474 87.6172 32.3344 87.1576 33.1901 86.8732C34.0458 86.5888 34.9513 86.4859 35.8489 86.571C39.7213 86.7967 43.003 90.0581 42.7674 93.4422C42.5226 96.9148 38.6804 100.167 35.0226 99.999C33.2655 99.8978 31.6196 99.1058 30.4442 97.7958C29.2687 96.4859 28.659 94.7642 28.748 93.0064Z" fill="black"/>
</svg>
