<svg width="154" height="155" viewBox="0 0 154 155" fill="none" xmlns="http://www.w3.org/2000/svg">
<g clip-path="url(#clip0_6_1947)">
<path d="M81.5649 17.6363C81.979 18.0524 82.4168 18.4433 82.8775 18.8072C95.73 26.6006 108.554 34.4392 121.456 42.1498C128.576 46.4055 135.851 50.4007 142.998 54.6105C144.685 55.7046 146.287 56.9247 147.789 58.2604C148.297 58.6752 148.946 59.2697 148.998 59.8309C149.297 63.064 151.77 65.8987 150.544 69.4541C150.096 70.7536 150.408 72.3374 150.47 73.7859C151.358 94.6417 152.289 115.496 153.133 136.353C153.241 139.034 152.879 141.73 152.812 144.421C152.785 145.281 152.903 146.139 153.161 146.959C154.13 149.918 153.126 152.381 150.182 153.379C148.687 153.849 147.128 154.079 145.562 154.063C125.799 154.205 106.036 154.313 86.2734 154.387C71.3385 154.452 56.4015 154.6 41.4679 154.479C31.0321 154.393 20.602 153.896 10.1682 153.625C7.57696 153.56 6.01117 152.663 4.79695 150.062C3.40312 147.134 2.63614 143.947 2.54463 140.705C1.92111 121.182 1.23713 101.661 0.633306 82.1365C0.515165 78.3251 0.655503 74.5059 0.692912 70.6906C0.660115 70.1327 0.718647 69.5722 0.865332 69.0327C3.23865 62.4038 5.32068 55.6521 8.10682 49.2022C14.8967 33.2305 25.2 18.9945 38.2497 7.55301C40.7234 5.44058 43.3631 3.53105 46.1437 1.8429C49.4746 -0.23047 50.7792 0.0838559 53.8121 2.61797C55.0436 3.59452 56.3662 4.44984 57.7623 5.17186C62.5817 7.81298 67.47 10.3306 72.256 13.0301C73.9494 13.9851 75.0783 13.8334 76.7684 12.7518C80.5613 10.3878 84.4836 8.23855 88.5175 6.31389C89.9417 5.65943 91.5077 5.37578 93.0711 5.48945C94.1213 5.56099 95.6486 6.36308 95.9643 7.2104C96.2741 8.04066 95.6112 9.64731 94.8551 10.3653C93.6737 11.4883 92.082 12.211 90.6072 12.994C87.764 14.5089 84.8754 15.9476 81.5649 17.6363ZM138.977 62.8796C117.733 49.913 97.4607 35.7499 75.8114 23.7376C75.1721 24.4832 74.7856 24.8809 74.462 25.3246C74.0774 25.8497 73.7466 26.4207 73.2491 27.1946C74.1378 27.9222 74.9857 28.6983 75.7884 29.5193C81.3299 35.8241 81.0444 46.4155 74.8131 51.3754C69.3655 55.7105 62.9487 57.7196 55.901 56.6603C50.3076 55.8195 46.7567 51.7515 46.334 46.1044C45.5792 36.0243 53.3232 26.0308 63.2982 24.8264C66.4566 24.4451 68.1828 23.1733 69.2592 20.3773L47.5685 7.32723C29.81 23.1089 17.2623 42.5963 10.8053 66.135C19.087 67.1129 127.897 64.8663 138.977 62.8796ZM8.56639 74.311C8.10695 76.0831 9.14114 90.791 10.1066 93.9742C16.0891 93.9742 22.1377 94.1993 28.1649 93.9289C42.9699 93.2647 57.7654 92.4265 72.5632 91.5582C93.522 90.3289 114.476 89.0083 135.432 87.7298C137.528 87.5985 139.624 87.4929 141.809 87.3701V72.6721C119.508 73.2628 97.4233 74.0885 75.331 74.3589C53.1099 74.6313 30.8819 74.3497 8.56639 74.311ZM142.384 126.605L11.9039 129.745C12.0876 132.524 12.3044 135.295 12.4455 138.07C12.5853 140.822 12.649 143.578 12.7442 146.274C21.9769 147.39 138.202 145.003 143.002 143.592C142.799 137.955 142.591 132.276 142.384 126.606V126.605ZM107.199 118.255C111.794 118.255 116.238 118.24 120.677 118.261C122.82 118.271 124.562 117.871 125.323 115.439C125.636 114.439 126.615 113.634 127.334 112.776C131.294 108.05 135.276 103.336 139.229 98.602C139.739 97.991 140.138 97.2894 140.805 96.3048C133.266 96.889 126.233 97.4666 119.189 97.9529C117.68 98.0573 116.762 98.5115 116.168 100.024C115.265 102.31 114.076 104.487 112.98 106.693C111.056 110.574 109.107 114.443 107.199 118.255ZM69.5716 119.886C73.9448 112.975 77.8973 106.728 82.0939 100.097C74.9601 100.437 68.3633 100.778 61.7631 101.048C60.31 101.107 59.6268 101.835 59.0224 103.063C56.4042 108.389 53.6842 113.666 51.0149 118.967C50.7956 119.514 50.608 120.071 50.4522 120.639L69.5716 119.886ZM98.3625 118.999C100.589 111.493 105.963 105.827 109.559 98.5869L90.1498 99.6115L78.9736 119.578L98.3625 118.999ZM40.5802 121.135C44.5838 114.529 48.3802 108.271 52.5257 101.432C46.6685 101.694 41.5371 101.837 36.4255 102.236C35.5775 102.302 34.5586 103.332 34.0585 104.176C31.779 108.021 29.6615 111.962 27.4759 115.859C26.4494 117.689 25.3902 119.501 23.9968 121.926L40.5802 121.135ZM52.6968 43.0307C52.6252 48.0458 54.7634 50.3384 58.9416 50.0771C62.3094 49.8678 65.5674 48.7994 68.4053 46.974C71.1534 45.2268 71.6548 42.5109 71.2774 39.6125C71.1626 38.2554 70.6375 36.9655 69.7718 35.914C68.9061 34.8625 67.7417 34.0993 66.4317 33.7258C62.6861 32.6205 58.8635 33.6647 55.7728 35.4834C53.1172 37.0442 53.0401 40.6456 52.6955 43.0307H52.6968ZM28.5078 102.218H10.42C10.8099 108.765 11.1994 115.288 11.584 121.735C15.5805 122.419 15.4804 122.362 17.1462 119.471C18.877 116.467 20.7858 113.564 22.6931 110.666C24.4074 108.06 26.2251 105.522 28.5065 102.218H28.5078ZM141.818 116.305V106.896L141.194 106.75L134.241 117.111L141.818 116.305Z" fill="black"/>
</g>
<defs>
<clipPath id="clip0_6_1947">
<rect width="153.583" height="154.896" fill="white"/>
</clipPath>
</defs>
</svg>
