<svg width="163" height="147" viewBox="0 0 163 147" fill="none" xmlns="http://www.w3.org/2000/svg">
<g clip-path="url(#clip0_8_2793)">
<path d="M69.4471 82.5742C68.347 82.7283 67.6106 83.7392 66.9612 84.6335C66.7917 84.866 66.6294 85.0926 66.4677 85.2862C64.1449 88.0773 61.861 90.9299 59.4426 93.9489C58.6053 94.9941 57.745 96.0665 56.8618 97.166C55.6851 96.1325 54.5259 95.1132 53.3843 94.1082C50.0223 91.1488 46.8461 88.3525 43.603 85.5595L43.44 85.419C42.1691 84.1996 40.7121 83.1894 39.1234 82.4259C38.0285 81.9726 35.6711 82.5075 35.162 83.5553C34.697 84.5137 35.0075 85.7447 35.2803 86.8314C35.3452 87.0755 35.4021 87.3151 35.4515 87.5437C35.5203 87.7509 35.6313 87.942 35.7775 88.1045C35.9237 88.2664 36.1019 88.3972 36.301 88.4872C36.4174 88.5546 36.5279 88.631 36.6314 88.7158C40.7967 92.7852 44.9575 96.8597 49.1701 100.985L51.6574 103.421L48.6844 107.112C45.6231 110.912 42.4586 114.841 39.3181 118.68C38.4849 119.697 37.2277 121.233 38.5311 123.018C38.8037 123.416 39.1693 123.741 39.5962 123.965C40.0232 124.19 40.4985 124.308 40.9813 124.308C41.8236 124.282 42.6385 124.004 43.3192 123.508C44.7274 122.521 45.9867 121.338 47.0589 119.995C49.5825 116.907 52.0063 113.833 54.5721 110.578C55.4172 109.507 56.2695 108.428 57.1288 107.34C57.2933 107.459 57.4549 107.578 57.6142 107.694C58.3214 108.212 58.9899 108.696 59.714 109.126L61.2665 110.048C65.2403 112.41 69.3497 114.853 73.4702 117.125C74.2618 117.472 75.1307 117.608 75.9905 117.519C76.3509 117.519 76.6912 117.512 77.0075 117.538C77.1088 117.546 77.2107 117.532 77.3055 117.495C77.3997 117.458 77.4854 117.4 77.5543 117.326C77.6231 117.251 77.6738 117.162 77.703 117.065C77.7322 116.968 77.7387 116.865 77.7218 116.765C77.6718 116.416 77.6413 116.064 77.6296 115.711C77.5796 114.767 77.5276 113.79 76.9315 113.121C74.5846 110.46 72.0551 107.964 69.3614 105.653C67.6483 104.249 65.8618 102.937 64.0084 101.723C63.383 101.298 62.7572 100.872 62.1351 100.438C62.8689 99.3717 63.5922 98.3233 64.3052 97.293C66.4333 94.2144 68.4438 91.3055 70.4303 88.3415C70.5602 88.1472 70.7154 87.9394 70.8726 87.727C71.7278 86.5736 73.1578 84.6438 71.2343 83.1421C70.9914 82.9297 70.7076 82.7698 70.3998 82.672C70.0926 82.5742 69.7679 82.5412 69.4471 82.5742Z" fill="black"/>
<path d="M31.4315 44.8775C31.6165 45.007 31.7979 45.1366 31.9655 45.2661C32.4835 45.5692 33.0923 45.68 33.6844 45.5788C33.7941 45.5736 33.9024 45.5687 34.0056 45.5674C36.3145 45.5333 38.6233 45.4943 40.9322 45.4507C42.6158 45.4201 44.2999 45.3906 45.9841 45.3625C46.7789 45.3502 47.5731 45.3536 48.3765 45.3568H48.9609C49.1311 46.2965 49.2857 47.2191 49.4448 48.1283C49.8857 50.7083 50.3027 53.1451 50.9319 55.5878C51.38 57.3304 52.1111 60.1752 54.6847 60.1745C54.8672 60.1741 55.0495 60.1606 55.2301 60.1344C58.3888 59.6856 58.1836 56.0808 58.0966 54.5415C57.9667 52.2218 57.6556 49.9093 57.3276 47.4608C57.2101 46.5885 57.0907 45.6956 56.9751 44.7734L57.3109 44.7222C57.9863 44.6186 58.6319 44.5194 59.28 44.4436C60.1982 44.3348 61.1184 44.2372 62.0393 44.1407C63.8518 43.9465 65.7267 43.7522 67.5639 43.4647C68.7731 43.2756 71.6045 42.8325 71.4649 39.8135C71.3291 36.8456 68.7263 36.7874 67.1704 36.7518C66.1963 36.733 65.2157 36.7516 64.2666 36.7698C63.6756 36.7814 63.0846 36.7938 62.493 36.7957C60.7397 36.8022 58.9927 36.8005 57.1406 36.7998H55.2301C55.1323 36.0693 55.0356 35.3375 54.94 34.6045C54.6523 32.4098 54.3554 30.1414 54.0093 27.9112C53.9652 27.6262 53.9374 27.3211 53.9081 27.0102C53.7607 25.4425 53.5378 23.0725 50.7635 23.066H50.7531C50.342 23.0394 49.9299 23.0957 49.5412 23.2317C49.1524 23.3676 48.795 23.5802 48.4906 23.8571C47.6055 24.7482 47.6212 26.1082 47.6348 27.3081C47.6387 27.6378 47.6425 27.9558 47.625 28.2491C47.4827 30.5804 47.5114 32.8871 47.5413 35.3292C47.5517 36.1581 47.5621 36.9992 47.5654 37.8546C47.4439 37.8682 47.3203 37.8812 47.195 37.8961C46.443 37.9783 45.6237 38.0683 44.8035 38.1291C42.1739 38.3208 39.5437 38.5064 36.9137 38.6859L32.5302 38.9917C31.979 38.9902 31.4339 39.1034 30.9292 39.3241C30.4244 39.5447 29.9713 39.8681 29.599 40.2733C29.3813 40.564 29.2293 40.8985 29.1538 41.2535C29.0782 41.6084 29.0806 41.9756 29.1611 42.3295C29.3579 43.3961 30.4574 44.1826 31.4315 44.8775Z" fill="black"/>
<path d="M98.23 43.1575C98.4384 43.1691 98.6846 43.1827 98.9365 43.1827C99.058 43.1827 99.1814 43.1795 99.3054 43.1717C101.551 43.0293 103.797 42.8912 106.043 42.7578C112.317 42.377 118.804 41.9846 125.178 41.4627C126.99 41.2274 128.762 40.7502 130.447 40.0439C130.855 39.8936 131.262 39.7439 131.667 39.6021C132.391 39.3489 133.412 38.2268 133.209 37.4251C133.084 36.9605 132.848 36.5332 132.519 36.1811C132.191 35.8291 131.781 35.5628 131.325 35.4059C129.69 35.0873 128.065 34.9124 126.632 34.7583C126.162 34.7071 125.723 34.6598 125.315 34.6106C125.269 34.6051 125.222 34.6051 125.176 34.6106C123.877 34.7233 122.646 34.8265 121.457 34.9256C118.967 35.1334 116.616 35.3302 114.294 35.5639C108.281 36.1707 102.306 36.8286 97.7728 37.3331C96.6493 37.4587 94.0186 37.7515 94.3089 40.5147C94.5635 42.9554 96.7695 43.0765 98.23 43.1575Z" fill="black"/>
<path d="M131.609 99.4547C130.153 99.0493 128.632 98.9263 127.128 99.0933C116.313 100.129 107.279 101.065 98.6982 102.035C97.9176 102.211 97.2097 102.623 96.672 103.214C96.4499 103.419 96.2174 103.611 95.9752 103.792C95.8914 103.85 95.8226 103.929 95.7739 104.019C95.7252 104.109 95.6979 104.21 95.6947 104.312C95.6914 104.414 95.7116 104.516 95.7538 104.609C95.7966 104.703 95.8596 104.786 95.9395 104.85C96.1713 105.048 96.3928 105.258 96.6019 105.48C97.1013 106.135 97.8124 106.598 98.615 106.789C100.387 106.932 102.165 106.97 103.94 106.904C104.439 106.895 104.938 106.886 105.438 106.882C105.472 106.941 105.516 106.994 105.568 107.04C105.689 107.145 105.844 107.203 106.005 107.203C106.025 107.204 106.044 107.204 106.063 107.203L111.478 106.732C117.18 106.235 122.881 105.732 128.582 105.221C129.662 105.172 130.725 104.931 131.721 104.508C132.42 104.165 133.902 103.07 133.751 102.056C133.632 101.482 133.375 100.945 133.002 100.492C132.629 100.039 132.151 99.6826 131.609 99.4547Z" fill="black"/>
<path d="M100.537 95.2991C101.06 95.4332 101.599 95.496 102.139 95.4863C102.521 95.4863 102.903 95.4636 103.279 95.4429C103.539 95.428 103.806 95.4137 104.066 95.4073C104.166 95.4526 104.274 95.4727 104.383 95.4662C105.776 95.3859 107.169 95.3075 108.562 95.2324C111.752 95.0563 115.053 94.8737 118.297 94.6496C122.334 94.3679 126.284 94.0733 130.223 93.5656C131.019 93.3609 131.726 92.9044 132.237 92.2639C132.451 92.0438 132.676 91.8352 132.912 91.6384C132.987 91.5788 133.048 91.5037 133.092 91.4182C133.135 91.3321 133.159 91.2382 133.163 91.1423C133.167 91.0465 133.149 90.9506 133.112 90.8619C133.075 90.7732 133.02 90.6936 132.949 90.6288C132.716 90.4138 132.491 90.1852 132.265 89.9566C131.707 89.3336 131.061 88.7949 130.347 88.3564C129.653 88.0715 128.886 88.0055 128.152 88.1687C127.992 88.1874 127.835 88.2056 127.684 88.2172L126 88.3506C121.242 88.7288 116.324 89.1199 111.485 89.5584C108.483 89.8303 104.532 90.2137 100.588 90.7693C99.9262 90.9383 99.3327 91.3081 98.8904 91.8268C98.719 91.9971 98.5378 92.159 98.3488 92.3106C98.2735 92.3682 98.2105 92.4414 98.1657 92.5256C98.1202 92.6091 98.0943 92.7017 98.0878 92.7969C98.0819 92.8921 98.0962 92.9873 98.13 93.076C98.1637 93.1654 98.2163 93.2457 98.2845 93.313C98.4729 93.5053 98.6514 93.7061 98.8196 93.9165C99.2372 94.5415 99.8366 95.0239 100.537 95.2991Z" fill="black"/>
<path d="M20.0452 144.103C24.6422 145.056 29.3075 145.646 33.9976 145.864C42.7268 146.22 51.6054 146.417 60.1925 146.608C63.6836 146.686 67.1748 146.768 70.6654 146.852H70.6829C70.8121 146.853 70.9394 146.815 71.0479 146.744H73.7663C76.0729 146.744 78.3809 146.744 80.6902 146.744L84.371 146.75C98.8215 146.778 113.766 146.807 128.357 144.527C133.446 143.731 139.392 142.621 144.901 140.412C155.956 135.982 161.921 127.814 162.63 116.133C163.084 108.621 162.741 101.056 162.406 93.7422C162.342 92.3383 162.279 90.9337 162.219 89.5285C161.643 75.7675 161.084 64.2783 160.46 53.3699C160.037 45.9726 159.433 36.2381 158.515 26.5407C157.176 12.3917 145.762 2.15092 130.759 1.63739C119.654 1.25597 108.355 1.09682 97.4233 0.942697C94.3114 0.899957 91.1449 0.925964 88.083 0.951867C83.0573 0.993959 77.862 1.0372 72.7785 0.769108C61.2334 0.162326 48.9937 0.670171 33.1002 2.42251C22.7617 3.56225 14.9818 6.59289 8.61315 11.9613C3.36405 16.3849 0.805422 21.5167 0.792434 27.6492C0.787888 29.6231 0.74819 31.6241 0.674158 33.5967C0.609221 35.3341 0.489153 37.1086 0.373559 38.8253C0.0479112 42.4988 -0.039111 46.1896 0.113544 49.8743C0.210955 51.4103 0.310504 52.946 0.412244 54.4817C1.20127 66.5181 2.01712 78.9639 1.18849 91.2432C0.847549 96.3028 0.940322 101.462 1.02994 106.452L1.05023 107.572C1.2009 116.139 2.45748 123.671 4.89274 130.598C7.51696 138.071 12.6154 142.615 20.0452 144.103ZM19.2294 13.746L19.3886 13.6596C23.859 11.2118 28.812 10.3572 33.5013 9.69861C44.1754 8.29822 54.9351 7.64902 65.7007 7.75587C70.1861 7.75587 74.6085 7.83028 78.9453 7.92094C86.8193 8.08607 94.8257 8.19357 102.568 8.29654C109.352 8.38784 116.367 8.48161 123.265 8.61437C126.455 8.65244 129.638 8.9241 132.788 9.42662C144.111 11.3078 150.374 18.6499 150.898 30.6585C151.329 40.5237 151.726 50.5569 152.11 60.2602C152.397 67.5309 152.69 74.8019 152.988 82.0729C153.098 84.7034 153.248 87.374 153.394 89.9572C153.623 93.9993 153.858 98.1814 153.941 102.286C154.041 107.156 153.77 112.135 153.487 116.817C153.071 123.642 149.088 128.491 141.65 131.227C137.095 132.823 132.386 133.944 127.599 134.573C111.477 136.969 94.9309 136.865 78.9297 136.761L76.8159 136.747C75.9853 136.743 75.1553 136.743 74.3274 136.747H73.1448C73.0402 136.747 72.9376 136.772 72.8441 136.819C72.7513 136.866 72.6707 136.934 72.6084 137.017C69.1016 136.928 65.5948 136.841 62.088 136.758C51.8502 136.508 41.2638 136.248 30.8565 135.907C28.1719 135.745 25.5039 135.374 22.8766 134.801L22.4069 134.711C18.0072 133.873 15.0634 131.162 13.6575 126.655C11.5235 119.611 10.456 112.289 10.4903 104.93C10.4669 101.566 10.5153 98.1412 10.5614 94.8282C10.6231 90.4098 10.6865 85.8412 10.5832 81.3444C10.4021 73.5236 10.0047 65.0902 9.33516 54.8121C8.8059 46.7076 8.48373 36.0233 10.7183 25.1958C10.7697 25.0476 10.7918 24.8905 10.7833 24.7339C10.2612 18.6505 14.6186 16.2663 19.2294 13.744V13.746Z" fill="black"/>
</g>
<defs>
<clipPath id="clip0_8_2793">
<rect width="163" height="147" fill="white"/>
</clipPath>
</defs>
</svg>
