<svg width="156" height="148" viewBox="0 0 156 148" fill="none" xmlns="http://www.w3.org/2000/svg">
<g clip-path="url(#clip0_8_2800)">
<path d="M37.84 11.6714C37.84 9.22676 37.7889 6.98592 37.853 4.74777C37.9319 1.9877 38.655 0.780865 40.1347 0.682198C41.6144 0.583532 42.4333 1.63988 42.8534 4.4324C43.177 6.55568 43.3414 8.70155 43.6301 11.3357L110.658 10.7582C110.795 9.35087 110.892 8.0856 111.046 6.8276C111.205 5.54626 111.365 4.26041 111.629 2.99787C111.949 1.46659 112.863 0.46954 114.516 0.45526C116.311 0.439032 117.341 1.51198 117.627 3.16205C117.96 5.07307 118.071 7.02292 118.275 8.95601C118.33 9.4792 118.378 10.0036 118.459 10.8384C121.622 11.0026 124.701 11.2513 127.78 11.3065C141.378 11.5493 149.041 19.9339 151.764 31.7298C153.134 37.6686 153.432 43.9041 153.75 50.0292C154.489 64.2703 155.027 78.5256 155.484 92.7758C155.742 100.76 155.682 108.759 155.749 116.751C155.886 132.909 143.659 141.555 132.912 144.484C129.177 145.535 125.331 146.134 121.455 146.269C98.8297 146.824 76.1993 147.444 53.5701 147.459C41.5011 147.468 29.5118 145.546 17.7056 142.984C8.64341 141.019 1.65962 132.588 0.577325 122.835C0.244811 119.612 0.107541 116.371 0.166281 113.131C0.285385 102.003 0.622664 90.8771 0.670564 79.7492C0.726879 66.7862 0.599977 53.822 0.476342 40.859C0.442682 37.3038 0.213557 33.8485 1.50039 30.338C5.09034 20.5467 12.1265 15.137 22.1429 13.4298C26.1685 12.743 30.275 12.5335 34.3439 12.0986C35.4003 11.9857 36.4431 11.8427 37.84 11.6714ZM145.447 49.0038C122.437 49.7588 99.9417 50.5615 77.4421 51.2177C54.8511 51.8792 32.2518 52.3998 9.48807 52.9867C9.46477 53.2612 9.3845 53.7787 9.38386 54.296C9.3623 71.5858 9.34851 88.8759 9.34249 106.166C9.34249 110.809 9.31854 115.457 9.53021 120.093C9.6664 123.359 10.9072 126.48 13.0485 128.945C15.1898 131.409 18.1038 133.069 21.3111 133.651C34.3866 135.873 47.453 137.935 60.8011 137.574C72.9751 137.244 85.1606 137.36 97.3376 137.112C107.03 136.917 116.72 136.538 126.402 136.098C130.625 135.878 134.704 134.485 138.182 132.073C142.879 128.901 146.034 124.747 146.137 118.766C146.217 114.125 146.516 109.484 146.444 104.844C146.17 87.2349 145.784 69.6274 145.445 52.0197C145.429 50.9564 145.449 49.8931 145.449 49.0038H145.447ZM8.62269 44.9297C54.1896 42.489 99.0342 40.8995 144.158 39.8219C143.899 37.5208 143.864 35.3429 143.381 33.2702C141.886 26.8848 139.091 21.4187 132.148 19.522C127.743 18.3185 123.227 18.6662 118.555 18.7733C118.451 19.8029 118.384 20.644 118.275 21.4795C118.185 22.3372 118.047 23.1894 117.863 24.032C117.205 26.7102 115.856 27.9266 113.779 27.7818C111.686 27.6377 110.491 26.2312 110.302 23.4744C110.194 21.9009 110.282 20.3138 110.282 18.8111H44.1388C44.1388 20.3462 44.168 21.5109 44.1317 22.6728C44.1306 24.2893 44.0441 25.9044 43.8728 27.5118C43.8131 28.2807 43.4651 28.9985 42.899 29.5206C42.3329 30.0427 41.5905 30.3303 40.8214 30.3257C39.009 30.4348 37.9798 29.2872 37.5784 27.7254C37.3433 26.4554 37.2415 25.1641 37.2748 23.8728C37.2166 22.4181 37.2167 20.9608 37.1849 19.0998C32.2855 19.5146 27.8035 19.4471 23.5268 20.3571C16.4136 21.8715 10.5646 25.4107 9.24993 33.3618C8.6447 37.0365 8.81947 40.8415 8.62269 44.9297Z" fill="black"/>
<path d="M39.8026 123.022C38.8523 123.064 37.0269 123.217 35.2015 123.21C31.2446 123.201 28.8314 121.406 28.0954 117.563C27.1989 113.107 27.3965 108.501 28.6715 104.139C28.9091 103.195 29.3961 102.332 30.081 101.643C30.766 100.953 31.6236 100.461 32.5638 100.218C37.7333 98.7093 43.1304 98.1413 48.4997 98.5392C51.3763 98.7391 53.6017 100.346 54.2607 103.369C55.2588 107.939 55.5268 112.557 54.286 117.131C53.2444 120.967 50.7809 122.863 46.8032 123.01C44.7655 123.084 42.7219 123.022 39.8026 123.022ZM44.5538 107.561H36.1479L36.5039 113.172H44.5538V107.561Z" fill="black"/>
<path d="M91.7877 108.474C91.7877 109.574 91.8026 110.223 91.7877 110.871C91.609 117.589 89.4535 120.202 82.8232 121.36C79.4352 121.952 76.0019 122.343 72.5731 122.633C68.855 122.948 66.359 121.288 65.6302 117.791C64.7077 113.349 64.1672 108.842 65.1369 104.296C65.8192 101.101 67.7028 98.9735 70.8824 98.4984C75.1345 97.8337 79.4216 97.4156 83.7223 97.2475C88.524 97.095 90.6115 99.0449 91.3605 103.765C91.6239 105.466 91.6738 107.202 91.7877 108.474ZM82.1506 106.437H72.8793C73.19 108.86 73.4684 111.023 73.7558 113.264C75.8414 113.06 77.5464 112.908 79.2481 112.724C82.3293 112.391 82.662 112.01 82.5157 108.865C82.4795 108.133 82.2989 107.409 82.148 106.437H82.1506Z" fill="black"/>
<path d="M114.388 121.917C112.347 122.01 110.302 121.998 108.263 121.88C104.565 121.49 102.411 119.533 102.189 115.908C101.926 111.925 101.974 107.928 102.334 103.953C102.722 99.8881 104.561 98.2296 108.631 97.909C112.594 97.5961 116.589 97.5072 120.565 97.5896C124.761 97.6772 128.714 100.381 128.404 105.915C128.252 108.608 128.204 111.317 127.859 113.987C127.197 119.09 124.702 121.329 119.545 121.718C117.828 121.848 116.107 121.938 114.388 122.046L114.388 121.917ZM110.403 105.439C110.533 108.201 110.631 110.296 110.727 112.315H118.262C118.456 110.227 118.615 108.442 118.805 106.364L110.403 105.439Z" fill="black"/>
<path d="M114.054 86.8755C112.229 86.9787 110.403 87.1813 108.58 87.1637C104.081 87.1209 101.739 84.9905 101.515 80.5304C101.341 77.0842 101.341 73.6321 101.515 70.1866C101.736 65.8732 103.284 64.0263 107.54 63.5803C112.24 63.0819 116.967 62.8762 121.692 62.9648C126.079 63.0538 128.417 65.5259 128.393 70.0133C128.345 73.6711 127.971 77.3172 127.273 80.9075C126.573 84.6458 124.329 86.3835 120.497 86.6535C118.361 86.8048 116.201 86.6808 114.052 86.6808L114.054 86.8755ZM109.523 78.1293H118.744C118.993 75.9002 119.215 73.9216 119.496 71.3998L109.523 70.959V78.1293Z" fill="black"/>
<path d="M62.552 75.4114C62.7676 73.2693 62.9035 71.0026 63.2453 68.7644C63.6336 66.2328 64.8928 64.2777 67.5823 63.7298C72.34 62.7607 77.1236 61.938 82.0094 62.5203C86.2758 63.0279 88.5905 64.8488 89.1822 69.1156C89.577 72.3093 89.5246 75.5432 89.0275 78.7226C88.529 82.1629 86.0984 84.2297 82.6483 84.6822C78.4848 85.2274 74.2981 85.6611 70.1087 85.9194C66.0592 86.17 63.6078 84.098 62.908 80.0585C62.653 78.5791 62.6698 77.0511 62.552 75.4114ZM80.0364 71.1434L70.3787 70.5028C70.5295 72.9116 70.6454 74.7688 70.7787 76.8947L80.0351 75.9619L80.0364 71.1434Z" fill="black"/>
</g>
<defs>
<clipPath id="clip0_8_2800">
<rect width="156" height="148" fill="white"/>
</clipPath>
</defs>
</svg>
