<svg width="163" height="146" viewBox="0 0 163 146" fill="none" xmlns="http://www.w3.org/2000/svg">
<g clip-path="url(#clip0_8_2807)">
<path d="M50.581 51.8096C51.5068 50.6252 52.4365 49.444 53.3701 48.2665C55.753 45.2496 58.2161 42.1294 60.5369 38.9813C63.535 34.9114 63.3305 33.0329 59.4974 29.4204C59.1785 29.1207 58.8422 28.839 58.5052 28.5586C58.2464 28.3409 57.9826 28.123 57.729 27.895L54.7297 25.1821C51.8468 22.5748 48.8656 19.8786 45.9581 17.2034C43.749 15.1711 41.5483 13.131 39.356 11.0827C36.4278 8.35777 33.4 5.53907 30.3916 2.79866C27.0281 -0.269924 25.1025 -0.264639 21.8179 2.82074C18.6886 5.75948 15.5289 8.7698 12.4733 11.6801C9.74107 14.2827 7.00409 16.88 4.26243 19.4727C3.05947 20.5913 2.10171 21.9473 1.44955 23.4542C0.797389 24.961 0.464984 26.5865 0.473328 28.2281C0.496593 30.8053 0.82376 33.3709 1.44809 35.8717C3.03475 42.6956 6.43899 48.8142 9.73201 54.7349L10.547 56.2037C19.0903 71.6315 28.3347 83.9401 38.8165 93.8326C40.757 95.6627 42.5939 97.688 44.3727 99.6467C46.7442 102.381 49.3004 104.949 52.0233 107.334C60 113.997 68.755 120.765 78.7866 128.026C87.0447 134.003 94.3105 138.328 101.645 141.639C107.007 144.136 112.844 145.455 118.76 145.506C121.295 145.506 123.823 145.248 126.305 144.738L126.697 144.658C130.466 143.889 134.363 143.093 137.643 140.469C139.272 139.166 141.049 137.969 142.767 136.811C143.668 136.204 144.569 135.596 145.455 134.971C146.249 134.412 147.061 133.873 147.873 133.333C149.879 132.077 151.78 130.663 153.558 129.101C158.477 124.538 157.446 121.379 154.003 117.462C150.238 113.18 146.564 108.682 143.007 104.334C141.591 102.602 140.173 100.873 138.751 99.1467C137.634 97.794 136.522 96.436 135.418 95.0716C133.284 92.4482 131.078 89.7355 128.826 87.1308C124.548 82.1803 122.736 82.0214 117.425 86.1307C113.753 88.9732 110.051 91.8926 106.464 94.7183C104.206 96.498 101.946 98.2752 99.6836 100.05C99.0032 100.583 98.2897 101.079 97.5996 101.558L97.1675 101.858C95.7846 100.415 94.4042 98.9723 93.0278 97.5297C78.9917 82.858 64.4902 67.694 48.6359 54.1697C48.7983 53.9759 48.9548 53.7897 49.1042 53.6107C49.6553 52.9499 50.1282 52.3865 50.581 51.8096ZM41.4071 56.1248C51.2388 66.6714 61.0649 77.2247 70.8857 87.7839L84.7568 102.689C85.339 103.316 85.9321 103.934 86.5246 104.551C87.5188 105.585 88.5466 106.661 89.5045 107.752C92.5912 111.269 96.1487 111.711 101.402 109.228C103.059 108.359 104.607 107.296 106.013 106.062C106.489 105.677 106.963 105.294 107.443 104.925C111.106 102.117 114.752 99.2901 118.471 96.4095L122.546 93.2518L147.454 123.62C146.177 124.509 144.897 125.432 143.654 126.329C140.212 128.92 136.615 131.299 132.884 133.455C129.927 135.081 126.194 135.6 122.624 135.994C115.056 136.829 108.173 135.542 102.154 132.178L100.99 131.525C95.0258 128.192 88.859 124.746 83.2019 120.802C75.3921 115.438 67.8792 109.655 60.696 103.479C57.2012 100.326 53.8673 97 50.707 93.5121C48.4554 91.1096 46.1289 88.6257 43.7214 86.3C37.5209 80.3147 31.6723 73.0786 25.3166 63.5256C19.6756 55.0504 15.3555 46.1665 11.8723 38.5952C10.5482 35.7159 9.2553 32.2924 9.69838 28.727C9.78674 27.3427 10.2642 26.0118 11.0761 24.8863C14.9267 20.5205 18.9615 16.1795 22.8632 11.9823C23.9744 10.7876 25.0848 9.59179 26.1943 8.39453C34.9827 18.3219 44.5752 27.6524 53.6715 36.2755C50.7672 40.2561 47.3803 43.8619 43.5882 47.0105C43.3508 47.2043 43.1062 47.3885 42.8617 47.5739C42.3821 47.9247 41.9219 48.3016 41.4834 48.7025C38.9148 51.1334 38.8916 53.4245 41.4071 56.1223V56.1248Z" fill="black"/>
<path d="M128.242 13.725C115.192 5.18984 99.6377 0.898082 79.2944 0.222997C71.5726 -0.0838615 59.3074 2.40666 52.3689 4.87445C51.1687 5.29977 50.0372 5.8983 49.0106 6.65101C47.5417 7.74019 47.1167 9.24748 47.8748 10.6823C48.7254 12.2915 50.1567 11.8692 51.0118 11.6179C51.1781 11.5688 51.3443 11.5198 51.508 11.481C61.0874 9.24645 68.4944 8.25093 75.5085 8.25093H75.6075C83.3073 8.29661 90.978 9.20381 98.4754 10.9561C116.286 14.9886 130.195 23.5355 140.998 37.0857C150.733 49.2955 154.327 63.1467 151.986 79.4303C151.425 83.4136 150.342 87.3059 148.765 91.0076C147.692 93.527 147.561 95.635 148.353 97.6331C148.523 98.1887 148.813 98.701 149.203 99.1325C149.593 99.5641 150.073 99.9045 150.609 100.131C150.927 100.241 151.261 100.298 151.598 100.297C152.359 100.272 153.1 100.049 153.748 99.6513C155.575 98.6099 156.882 96.9664 157.861 94.4773C163.769 79.4497 164.078 64.6061 158.778 50.3594C153.345 35.7478 143.071 23.4237 128.242 13.725Z" fill="black"/>
<path d="M125.484 74.7181C126.15 75.6225 127.174 76.7421 128.709 76.7421C128.975 76.7414 129.24 76.7098 129.498 76.6484C131.454 76.1897 131.809 74.2717 131.98 73.3498C132.78 68.9543 132.221 64.4201 130.376 60.3502C128.901 56.9773 127.471 54.039 126.006 51.3671C121.761 43.6291 117.278 38.2743 111.898 34.5158C100.851 26.7978 91.458 23.0949 81.4439 22.5077C76.6574 22.2279 72.8482 22.8357 69.4602 24.4223C67.2726 25.4476 67.3302 26.9833 67.5591 27.8077C68.0468 29.5635 69.6937 29.4956 70.6775 29.4524C71.4039 29.422 72.1768 29.3575 73.0403 29.2587C74.345 29.1062 75.6483 28.9426 76.9523 28.7786L78.5739 28.5767C83.7291 28.6335 89.0299 29.9329 95.2504 32.6604C106.325 37.5178 113.98 44.3441 118.652 53.5272C119.42 55.0363 120.135 56.6118 120.827 58.1358C121.308 59.1953 121.789 60.2555 122.291 61.3046C123.581 63.7527 124.169 66.5085 123.99 69.2696C123.789 71.2083 124.322 73.1522 125.484 74.7181Z" fill="black"/>
</g>
<defs>
<clipPath id="clip0_8_2807">
<rect width="163" height="146" fill="white"/>
</clipPath>
</defs>
</svg>
