<svg width="105" height="158" viewBox="0 0 105 158" fill="none" xmlns="http://www.w3.org/2000/svg">
<g clip-path="url(#clip0_8_2865)">
<path d="M104.124 61.3588C104.103 60.3086 104.081 59.2217 103.975 58.1486C103.825 56.6385 103.679 55.1278 103.537 53.6165C103.038 48.3986 102.522 43.0029 101.791 37.7207C101.485 35.5141 100.553 33.9665 99.0957 33.2452C97.5652 32.4871 95.625 32.7247 93.4834 33.933C89.7856 36.0195 85.9821 37.77 81.9555 39.6242C80.4892 40.2989 79.0138 40.9781 77.535 41.6784C77.4727 41.3599 77.413 41.0475 77.3545 40.7412C77.1255 39.5414 76.9089 38.408 76.6103 37.2928C75.419 32.8396 73.7506 31.4783 69.172 31.2243C67.7635 31.1462 66.3497 31.1632 64.709 31.1829C64.3598 31.1875 63.9993 31.1915 63.6252 31.1948C66.9194 27.8396 69.4457 24.7627 70.3081 20.5904C71.3248 15.6718 70.2129 11.5111 66.9096 7.87171C61.4666 1.87477 53.6161 1.03727 45.9101 5.62967C43.1738 7.26001 41.2101 9.87171 40.0746 13.3916C39.7526 14.364 39.4821 15.3527 39.2646 16.3536C39.2611 15.6477 39.2025 14.9431 39.0895 14.2462C38.0597 7.92829 35.6535 3.51763 26.8546 1.05373C22.1342 -0.266161 18.2283 0.856918 15.2479 4.39327C11.9139 8.2747 9.96099 13.1519 9.69465 18.2616C9.33103 23.8405 11.913 28.041 17.1624 30.396L17.4251 30.5141L15.817 30.612C12.7506 30.799 9.89614 30.9729 7.04238 31.1554C1.90127 31.4835 0.390378 33.0988 0.574809 38.0627C0.995524 49.3517 1.4905 59.6996 2.08842 69.693C2.3864 74.6694 4.34686 76.6771 9.58248 77.3669C10.8206 77.5205 12.0675 77.5921 13.3151 77.5809H13.363C16.5922 77.577 19.8215 77.5645 23.0512 77.5448C25.8879 77.5304 28.7248 77.5185 31.5619 77.5107C32.194 77.5107 32.8147 77.5579 33.4822 77.6104L33.7927 77.6341C33.788 77.6866 33.7834 77.7384 33.779 77.7896C33.7538 78.1598 33.71 78.5286 33.6478 78.8949C31.2639 91.2386 29.5332 104.623 28.2002 121.017C27.5399 129.139 26.642 137.382 25.7717 145.354L25.6161 146.785C25.4739 147.858 25.2596 148.919 24.9748 149.962C24.7569 150.841 24.5318 151.75 24.3887 152.671C24.0684 154.72 24.8429 156.257 26.5697 156.996C27.4614 157.35 28.4527 157.361 29.3518 157.026C30.2508 156.692 30.9939 156.036 31.4377 155.186C32.0405 154.143 32.4339 152.992 32.5957 151.798C33.2743 146.482 33.9837 140.812 34.5409 135.062C35.3053 127.179 36.0541 119.294 36.787 111.409C37.5654 103.124 38.37 94.5577 39.1904 86.1356C39.3939 84.0471 39.7543 81.9226 40.1022 79.8676C40.2387 79.0616 40.3752 78.2543 40.5045 77.445L41.193 77.4037C41.9642 77.3577 42.6224 77.3157 43.2853 77.3197C43.9252 77.3197 44.577 77.3728 45.2668 77.4253L45.6981 77.4575C46.9077 92.6137 50.1612 107.4 53.3116 121.706C53.7667 123.772 54.2196 125.838 54.6703 127.905C55.9173 133.651 57.1459 139.504 58.3326 145.167C58.9202 147.965 59.5087 150.762 60.098 153.56C60.1658 153.926 60.2638 154.286 60.3908 154.636C61.0905 156.423 62.5403 157.52 64.1175 157.52C64.3209 157.52 64.5239 157.502 64.724 157.466C66.8499 157.087 68.0792 155.737 68.1855 153.665C68.2387 152.606 68.1671 151.543 67.9722 150.501C67.5128 148.094 67.0015 145.507 66.353 142.894C60.3803 118.806 56.1464 98.8423 53.0294 80.0559C52.9119 79.3491 52.8036 78.6409 52.6789 77.8205L52.5857 77.2133H53.3241C54.2568 77.2133 55.0706 77.2193 55.8838 77.2074C57.5981 77.1832 59.3127 77.1635 61.0274 77.1484C65.3074 77.105 69.7325 77.0604 74.0853 76.895C78.4382 76.7296 79.4292 75.7136 79.6951 71.1882C79.7876 69.609 79.7653 68.0377 79.7416 66.368C79.7351 65.8764 79.7279 65.3775 79.7239 64.8675L80.4393 65.0861C81.4238 65.388 82.2771 65.6487 83.1487 65.8856C84.4259 66.2322 85.6999 66.5912 86.9745 66.9495C90.1906 67.854 93.5149 68.7873 96.8366 69.5204C99.4213 70.0895 101.279 69.8584 102.515 68.8142C103.762 67.7601 104.308 65.9329 104.178 63.228C104.149 62.6077 104.136 61.983 104.124 61.3588ZM95.4301 60.2757L78.9101 56.4126L78.1179 48.1544L94.7442 40.6284L95.4301 60.2757ZM10.7724 70.7871L10.6916 70.7661L7.69551 38.2241C11.8125 38.1752 15.9194 38.1167 20.0163 38.0489C36.4313 37.7962 53.3996 37.5337 70.3134 38.2774C71.4685 45.1446 71.8426 52.109 72.2384 59.4725C72.4261 62.9511 72.6191 66.5433 72.9026 70.1361C72.4944 70.1932 72.094 70.2542 71.6982 70.3152C70.5437 70.5233 69.3755 70.6467 68.2026 70.6854C50.7598 70.7825 33.0229 70.8311 15.8722 70.8777L11.296 70.8902C11.1169 70.8856 10.94 70.8508 10.7724 70.7871ZM30.2565 19.8978C29.6618 23.4656 27.7399 24.9727 23.7802 24.9051C20.9409 24.8638 18.9038 24.105 17.725 22.6512C16.5462 21.1974 16.2325 19.067 16.7753 16.3032C17.2623 13.8261 18.038 10.9908 20.1002 8.74215C21.5573 7.15447 21.9885 7.09008 23.949 8.17041L24.3153 8.37119C26.8383 9.7554 29.2207 11.0622 29.8416 13.9134C30.3398 15.8668 30.4804 17.8943 30.2565 19.8978ZM62.0232 18.022C61.9713 21.9227 59.6813 25.5817 56.5755 26.7264C53.6693 27.7975 50.0615 26.813 47.8004 24.3346C45.4763 21.7867 45.1749 18.7965 46.8276 14.6386C48.1593 11.2867 50.5773 9.33745 54.0152 8.84519C54.2483 8.8089 54.4836 8.78895 54.7195 8.7854C54.8565 8.77188 54.9949 8.79098 55.1231 8.84119C55.5018 9.16936 55.8871 9.48899 56.2717 9.81126C58.7074 11.8498 61.0071 13.7749 61.9502 16.8341C62.0201 17.1278 62.0454 17.4307 62.0251 17.732C62.0231 17.8442 62.0232 17.9433 62.0232 18.022ZM39.7621 23.4165C40.6765 25.3236 41.7358 27.1579 42.9309 28.9029C43.2026 29.3216 43.4731 29.7391 43.7383 30.1565H31.5408C35.3039 27.7347 37.9585 23.9248 38.9267 19.5558C38.9381 20.8866 39.2234 22.2008 39.7647 23.4165H39.7621Z" fill="black"/>
</g>
<defs>
<clipPath id="clip0_8_2865">
<rect width="104.358" height="157.521" fill="white"/>
</clipPath>
</defs>
</svg>
