<svg width="183" height="141" viewBox="0 0 183 141" fill="none" xmlns="http://www.w3.org/2000/svg">
<g clip-path="url(#clip0_8_2811)">
<path d="M182.165 88.5404C182.127 85.1616 182.087 81.6723 181.991 78.2389C181.955 76.9498 181.926 75.6587 181.902 74.3676C181.816 70.1591 181.727 65.8082 181.274 61.5545C180.823 57.3193 180.197 53.0374 179.594 48.8964C178.969 44.608 178.322 40.1797 177.869 35.8081C176.799 25.4767 169.318 14.8097 155.364 15.7636C150.499 15.9948 145.624 15.9184 140.769 15.5348C138.273 15.3906 135.693 15.2415 133.154 15.1798C131.466 15.1388 130.302 14.4169 129.13 12.6886C127.667 10.5307 126.113 8.38864 124.609 6.31715C123.988 5.46032 123.368 4.60285 122.751 3.74472C121.093 1.43479 118.857 0.473538 115.528 0.614538C104.565 1.09017 94.6679 1.38986 85.2687 1.52891C80.4828 1.60429 75.5995 1.28459 71.0323 0.93371C65.7377 0.532804 61.6829 2.29163 58.2999 6.48784C56.1701 8.99273 53.8599 11.3383 51.3881 13.5056C50.5646 14.2639 49.7424 15.0206 48.9352 15.7899C48.4873 16.16 47.9891 16.4646 47.4556 16.6945L47.196 16.8245L47.0662 16.3696C46.854 15.6145 46.6769 14.9791 46.4822 14.3488C44.8164 8.87584 41.8624 6.72692 36.364 6.88156C32.5709 6.99852 28.8403 7.33134 25.3736 7.67441C23.6716 7.77123 22.0429 8.40079 20.7175 9.47434C19.3921 10.5478 18.4368 12.0112 17.9867 13.6575C17.5418 15.2366 17.1986 16.8426 16.9595 18.4657C16.8498 19.1077 16.7389 19.762 16.613 20.4293L16.2885 20.5594C15.7045 20.7914 15.0438 21.0545 14.3962 21.3761C8.39287 24.3605 4.86789 27.9195 3.29942 32.5764C2.1534 35.9844 1.91844 39.7237 1.83408 43.2611C1.43239 60.105 1.12416 77.2331 0.826295 93.7964L0.600452 106.272C0.380463 118.241 3.76923 126.87 11.2664 133.436C13.9919 135.819 16.4494 137.606 19.6013 138.578C25.4417 140.38 31.3542 140.668 37.1505 140.668C38.5243 140.668 39.8916 140.652 41.2511 140.636C72.5002 140.265 99.8432 139.885 124.841 139.475C136.468 139.28 146.923 138.948 156.804 138.45C160.293 138.269 163.738 137.578 167.028 136.397C175.918 133.178 183.79 120.033 182.926 109.857C182.324 102.783 182.243 95.543 182.165 88.5404ZM10.9159 39.2787C10.8562 33.933 12.071 30.7664 18.8751 28.2973C22.9505 26.8171 27.4929 26.2832 31.8862 25.7712C33.153 25.6224 34.4172 25.4741 35.6709 25.3045C37.8507 25.0101 40.0992 24.8609 42.2738 24.716C44.3459 24.5782 46.488 24.4357 48.5886 24.168C49.5692 24.0433 52.0338 23.5918 53.7451 22.1071C57.4458 18.9009 60.9765 15.5032 64.3227 11.9277C66.1452 9.97843 67.8104 9.17356 70.0518 9.17356H70.1381C80.7962 9.27038 90.7094 9.2722 100.443 9.17928C105.199 9.13445 109.891 8.78948 113.447 8.49904C114.322 8.3761 115.213 8.51054 116.013 8.8861C116.812 9.26161 117.486 9.86193 117.951 10.614C120.389 14.1039 122.359 16.9747 124.152 19.6498C124.854 20.7808 125.83 21.7148 126.991 22.3643C128.152 23.014 129.458 23.3578 130.788 23.3637C134.041 23.4755 137.294 23.6112 140.547 23.7477C145.523 23.9556 150.67 24.1706 155.732 24.2895C163.436 24.4695 167.833 28.0206 168.802 34.8432C169.22 37.7828 169.675 40.766 170.113 43.651C172.083 56.5814 174.118 69.9492 173.432 83.3708C173.088 90.12 173.34 96.9971 173.584 103.649C173.677 106.191 173.774 108.821 173.835 111.401C174.018 119.13 168.903 126.822 162.428 128.551C159.242 129.304 155.979 129.679 152.706 129.668C139.39 129.952 126.027 130.089 113.104 130.222C108.681 130.267 104.183 130.254 99.8315 130.243C97.8211 130.238 95.81 130.235 93.7996 130.233C93.7113 130.232 93.6244 130.249 93.5433 130.283C93.4622 130.316 93.3882 130.365 93.3265 130.428C93.3123 130.441 93.2993 130.455 93.2869 130.471C88.7593 130.523 84.2317 130.576 79.7041 130.632C66.4294 130.791 52.7029 130.957 39.2024 131.052C35.5672 131.035 31.9358 130.818 28.3244 130.402C20.2698 129.55 12.8796 122.53 11.8517 114.751C11.0947 108.494 10.673 102.199 10.5882 95.8964C10.415 88.5937 10.4824 81.1571 10.548 73.966L10.5778 70.6067C10.6096 66.8108 10.6791 62.9495 10.7466 59.2153C10.8686 52.6825 10.9906 45.9258 10.9159 39.2787ZM23.9154 18.9065C24.2172 15.5277 24.8953 14.9277 27.9901 14.6242C29.7922 14.4481 31.6417 14.3536 33.4301 14.2607C34.0297 14.2299 34.6291 14.1978 35.2283 14.1648C35.7033 14.1382 36.1141 14.1188 36.471 14.1188C38.34 14.1188 38.7352 14.6653 39.0668 17.6399L23.9154 18.9065Z" fill="black"/>
<path d="M72.0228 102.653C77.3759 105.001 83.1832 106.129 89.0249 105.954C89.6739 105.986 90.3247 106.001 90.9776 106.001C99.2586 106.001 107.541 103.453 116.227 98.2403C118.45 96.8459 120.424 95.089 122.067 93.0422C127.019 87.0897 129.588 79.5868 129.92 70.1053C130.334 60.9132 127.574 51.8588 122.104 44.4653C119.332 40.7899 115.858 37.7014 111.885 35.3787C107.912 33.0559 103.519 31.545 98.9595 30.9331C93.3027 30.1053 87.0431 31.2925 81.6673 32.5667C66.6548 36.1249 57.608 44.9889 54.7774 58.9134C53.876 63.3436 52.9863 68.5537 53.2238 73.6043C53.8877 87.6368 60.2123 97.4106 72.0228 102.653ZM119.691 70.5608L119.775 70.5771C119.548 71.5998 119.346 72.6362 119.149 73.644C118.698 76.475 117.956 79.2528 116.936 81.9318C115.549 85.1923 113.341 88.0858 111.031 89.6718C101.417 96.2716 90.936 98.3443 79.8756 95.8343C67.9027 93.1176 61.1402 83.4237 62.2246 70.5303C62.6723 66.0384 63.4293 61.5828 64.49 57.1954C66.2803 49.367 75.9346 40.3535 85.7556 40.3535C85.8101 40.3535 85.8672 40.3535 85.9217 40.3535L86.5057 40.3591C92.0464 40.4131 97.2781 40.4647 102.351 42.5128C112.338 46.5453 117.827 54.1137 119.134 65.6499C119.218 66.6005 119.234 67.5556 119.18 68.5088C119.166 68.9741 119.152 69.44 119.152 69.9033C119.151 70.0585 119.205 70.2086 119.304 70.3289C119.402 70.4491 119.539 70.5309 119.691 70.5608Z" fill="black"/>
<path d="M138.979 47.9086C140.68 48.0802 142.409 48.2043 144.08 48.3252C144.815 48.3781 145.551 48.4324 146.286 48.4883H146.323C146.46 48.483 146.592 48.4358 146.702 48.3531C147.034 48.3531 147.366 48.355 147.699 48.3589C148.678 48.366 149.691 48.3731 150.695 48.3459C155.503 48.2107 157.888 46.0899 158.427 41.4687C158.721 39.0093 158.832 36.5316 158.761 34.0557C158.592 28.7665 156.569 26.6074 151.778 26.6074H151.76C147.368 26.6126 142.935 27.3871 138.643 28.137L136.902 28.4396C134.584 28.8367 133.086 30.8654 133.086 33.6074C133.098 36.7308 133.299 39.8506 133.687 42.9497C134.032 45.7983 135.962 47.6045 138.979 47.9086ZM140.489 34.1984C141.067 33.5409 142.382 33.2888 145.012 33.3427C145.223 33.3509 145.434 33.3704 145.644 33.4012C145.867 33.4297 146.09 33.4577 146.314 33.4662C148.543 33.5643 149.889 33.6241 150.301 34.0887C150.713 34.5533 150.61 35.8924 150.442 38.112C150.337 39.4901 150.268 40.4014 149.997 40.6463C149.726 40.8913 148.791 40.8988 147.38 40.9001H140.552L140.44 40.1993C140.338 39.5573 140.271 39.1393 140.21 38.7195C139.835 36.1627 139.916 34.8518 140.489 34.2007V34.1984Z" fill="black"/>
</g>
<defs>
<clipPath id="clip0_8_2811">
<rect width="183" height="141" fill="white"/>
</clipPath>
</defs>
</svg>
