<svg width="76" height="161" viewBox="0 0 76 161" fill="none" xmlns="http://www.w3.org/2000/svg">
<g clip-path="url(#clip0_6_1949)">
<path d="M0.502686 98.7617C0.901736 82.1452 1.27242 65.5272 1.71217 48.9114C1.96289 39.4601 4.01679 30.337 8.58094 22.0829C14.3751 11.6052 22.7274 3.84992 34.7351 0.887865C38.9118 -0.0852893 43.2551 -0.0961248 47.4366 0.856296C52.5985 2.02046 57.4812 4.18785 61.8071 7.23526C67.4205 11.0505 70.4318 16.5993 71.8199 23.0531C72.5872 26.7864 73.1516 30.5587 73.51 34.3532C74.0751 39.8218 74.4387 45.3141 74.8463 50.7971C74.9205 51.9179 74.9041 53.0428 74.7951 54.1609C74.4203 58.3306 72.6751 60.3265 68.5914 60.8601C65.4826 61.3361 62.3391 61.5493 59.1943 61.4974C55.6225 61.3563 51.5428 59.802 51.1215 54.6137C50.6857 49.2442 50.1205 43.8844 49.5928 38.5222C49.472 37.2955 49.3303 36.0661 49.0973 34.8578C48.2743 30.5621 47.3796 29.6972 43.1127 29.6289C36.3334 29.5193 31.3223 32.4255 29.9302 39.449C28.0925 48.7296 27.2837 58.106 26.6831 67.5148C25.4276 87.1688 26.5263 106.806 27.077 126.454C27.3133 134.873 27.3154 143.301 27.2741 151.723C27.2492 156.633 25.1403 158.534 20.2323 158.79C16.648 158.977 13.0779 159.387 9.4943 159.629C4.53044 159.963 2.75322 158.71 1.51668 153.957C1.16251 152.662 0.971432 151.328 0.948152 149.986C0.910957 132.914 0.903107 115.84 0.92411 98.7676L0.502686 98.7617ZM7.87656 128.47C7.66522 135.702 7.4695 142.385 7.26669 149.321L17.8581 148.32V133.723L7.87656 128.47ZM17.131 96.7467V76.4718L8.84472 70.8122C8.74102 77.8652 8.61349 84.2159 8.60627 90.568C8.662 90.9329 8.79425 91.2827 8.99404 91.5938C9.19389 91.9043 9.45689 92.1694 9.76609 92.3723C12.0042 93.8129 14.3376 95.1079 17.131 96.7448V96.7467ZM8.24096 101.447V119.848L17.3841 124.212V107.423L8.24096 101.447ZM41.6017 7.10399C41.9371 11.743 42.2326 15.8333 42.5359 20.0241C44.8514 20.4835 47.0158 20.9705 49.2034 21.3098C49.8492 21.3913 50.5021 21.2274 51.0327 20.8504C53.6186 18.76 56.1298 16.5776 58.8687 14.2554C53.7676 10.1816 48.4565 7.44003 41.6004 7.10399H41.6017ZM35.5386 7.8509C29.2883 10.0168 24.6158 13.2184 20.8537 17.9336L27.5327 24.961L34.3211 21.25C34.7044 17.0114 35.0975 12.6894 35.5373 7.8509H35.5386ZM17.6671 66.5276C18.0032 61.0747 18.3045 56.183 18.5959 51.4481L9.8757 47.1413C9.60135 52.2147 9.35056 56.8965 9.09853 61.5302L17.6671 66.5276ZM22.2301 31.1601C20.4934 28.6864 18.7226 26.164 16.8849 23.5466C14.0882 27.3349 11.2128 35.8116 11.4025 39.5041L19.4951 42.6302C20.4363 38.6725 21.289 35.0968 22.2288 31.1568L22.2301 31.1601ZM62.5744 21.2034L55.6927 25.6665L58.2399 35.2367L64.5501 32.8199C64.5133 28.8084 64.1391 25.1021 62.5731 21.2002L62.5744 21.2034ZM65.9628 51.7888C65.7291 48.1842 66.056 44.8907 65.068 41.5959L58.387 43.1159V52.5344C59.8723 52.4537 61.0781 52.4273 62.2786 52.3118C63.3806 52.2042 64.4745 52.0033 65.9621 51.7854L65.9628 51.7888Z" fill="black"/>
</g>
<defs>
<clipPath id="clip0_6_1949">
<rect width="75.4789" height="160.146" fill="white"/>
</clipPath>
</defs>
</svg>
