<svg width="183" height="134" viewBox="0 0 183 134" fill="none" xmlns="http://www.w3.org/2000/svg">
<path d="M37.8584 114.579C37.8584 118.521 38.094 121.891 37.8 125.212C37.4206 129.498 35.3118 131.906 31.0613 132.406C25.9836 133.052 20.8613 133.279 15.7464 133.084C11.4145 132.871 9.47703 130.237 9.31426 125.867C9.18299 122.374 9.06156 118.876 9.06681 115.381C9.06681 113.384 8.46629 111.987 6.34303 111.679C1.66072 111.001 0.483235 107.685 0.354593 103.668C0.228576 99.7366 0.2384 95.8 0.201645 91.8659C0.136011 84.8726 0.136019 77.8786 0.00475138 70.8866C-0.126516 64.3344 2.46077 59.2846 7.93725 55.6787C8.9992 54.9797 9.94631 54.1067 10.9623 53.3014C10.6998 53.0251 10.6381 52.9142 10.5462 52.8708C3.528 49.6042 2.68392 44.0372 8.49776 38.5561C12.6183 34.6713 17.7311 33.1833 23.2654 33.4268C25.3702 33.5194 26.15 32.8269 26.6915 30.9557C27.9956 26.448 29.6693 22.0413 30.8644 17.5073C33.3356 8.13025 39.6358 4.28745 48.9623 3.45193C75.4383 1.07927 101.929 -0.364731 128.526 0.0802664C133.109 0.156402 136.544 1.46515 138.919 5.49113C143.463 13.1952 148.188 20.793 152.669 28.5332C153.619 30.1741 154.386 30.7497 156.395 30.6525C159.98 30.4966 163.571 30.6868 167.12 31.2203C168.698 31.4663 170.198 32.0747 171.502 32.9978C172.806 33.9208 173.879 35.1335 174.636 36.5405C177.177 40.8861 176.146 45.4732 171.986 48.3073C171.278 48.7891 170.542 49.2262 169.505 49.8878C171.57 51.2005 173.295 52.544 175.221 53.4714C179.881 55.7148 181.714 59.5753 182.157 64.4526C183.17 75.6057 183.071 86.707 180.945 97.7467C179.988 102.715 177.915 106.81 173.053 109.086C172.474 109.357 171.969 110.559 172.026 111.282C172.27 114.326 172.861 117.342 173.102 120.386C173.686 127.737 170.563 131.224 163.286 131.532C158.808 131.721 154.331 131.946 149.852 132.063C142.752 132.246 140.407 130.006 140.138 122.859C139.999 120.895 140.002 118.925 140.145 116.962C140.402 114.573 139.83 113.732 137.187 113.882C129.66 114.311 122.113 114.579 114.574 114.6C90.0838 114.666 65.5939 114.596 41.104 114.578C39.9186 114.578 38.7346 114.579 37.8584 114.579ZM79.6671 106.366C79.6697 106.503 79.6726 106.642 79.6757 106.78C99.0081 106.452 118.352 106.408 137.668 105.671C147.011 105.315 156.342 103.904 165.605 102.489C170.79 101.696 171.774 100.318 172.141 95.051C172.752 86.2449 173.003 77.4146 173.493 68.6007C173.764 63.7254 172.267 60.4201 167.5 57.9765C161.734 55.023 156.014 51.5444 152.805 45.3669C150.894 41.6914 148.904 38.0514 146.881 34.433C142.573 26.7257 138.107 19.1036 133.936 11.3233C132.032 7.76664 129.349 6.70403 125.476 6.67449C100.019 6.57576 74.5752 7.85026 49.2557 10.4924C43.1517 11.1054 38.965 13.5431 37.542 19.8053C37.1647 21.2863 36.6976 22.743 36.1434 24.1673C33.4111 31.7598 30.7306 39.372 27.8473 46.9067C27.1986 48.3887 26.1819 49.6803 24.8938 50.659C20.6197 54.0542 16.3456 57.4849 11.7965 60.4863C7.1969 63.5193 5.46945 67.2919 6.07984 72.8288C7.14377 82.4822 7.72657 92.1908 8.28905 101.893C8.42032 104.124 9.17577 105.109 11.2544 105.218C18.7649 105.612 26.2734 106.231 33.7871 106.315C49.0752 106.484 64.3718 106.366 79.6658 106.366H79.6671ZM154.997 123.459C156.952 123.307 158.905 123.06 160.861 123.031C162.466 123.008 163.29 122.493 163.246 120.769C163.185 118.484 163.221 116.196 163.262 113.91C163.288 112.432 162.807 111.729 161.154 111.934C157.05 112.442 152.917 112.736 148.83 113.344C148.14 113.447 147.173 114.639 147.09 115.41C146.242 123.24 146.946 123.942 154.671 123.488C154.779 123.484 154.888 123.474 154.996 123.459H154.997ZM14.2558 114.673C14.7153 117.523 15.1406 120.745 15.831 123.909C15.9864 124.323 16.2421 124.693 16.5754 124.984C16.9086 125.275 17.3089 125.479 17.7403 125.578C21.0087 125.681 24.2804 125.571 27.5342 125.246C28.3323 125.16 29.4619 123.887 29.622 123.01C29.9602 120.855 30.0726 118.671 29.9574 116.492C29.9397 115.875 29.1613 114.764 28.7104 114.752C23.948 114.623 19.1869 114.673 14.2545 114.673H14.2558ZM157.043 35.449L156.642 36.2543C157.595 37.9418 158.504 39.6555 159.509 41.3082C161.866 45.1943 162.439 45.3073 166.406 42.8591C169.097 41.1973 169.228 38.9867 166.331 37.7954C163.405 36.5996 160.153 36.1992 157.043 35.449ZM23.4459 38.862C19.1646 39.4861 15.7254 40.7128 13.0593 43.6211C12.0033 44.7729 11.9121 45.7214 13.7971 46.4657C18.7255 48.4084 20.1169 47.8565 22.0118 42.7331C22.4174 41.6337 22.8217 40.5376 23.4459 38.8593V38.862Z" fill="black"/>
<path d="M82.3515 57.5315C72.8529 57.8111 63.3551 58.199 53.8546 58.3191C49.616 58.3736 45.3636 57.9804 41.1295 57.6358C35.6517 57.1902 32.0393 51.0495 34.0838 45.7319C37.0872 37.9214 39.3088 29.8084 41.8594 21.8234C42.273 20.3926 43.0631 19.0989 44.1471 18.0775C45.2312 17.056 46.5695 16.3441 48.0224 16.0161C52.1229 14.895 56.3023 14.0856 60.5249 13.5949C73.3491 12.4214 86.1878 11.3095 99.0474 10.6532C106.664 10.2653 114.327 10.8068 121.969 10.8855C126.9 10.9361 130.677 13.1276 133.017 17.3321C137.467 25.325 141.986 33.3218 143.459 42.567C143.617 43.3014 143.908 44.0008 144.318 44.6305C147.62 50.214 145.93 54.0969 139.583 54.7874C131.773 55.6373 123.938 56.4039 116.094 56.7616C104.857 57.2742 93.6024 57.3838 82.358 57.6654L82.3515 57.5315ZM135.712 47.1732C132.443 38.7826 129.602 31.2491 126.572 23.7931C124.23 18.0278 123.87 17.9294 117.712 18.2424C100.05 19.1416 82.383 19.9561 64.7268 20.959C59.9428 21.2314 55.187 22.0302 50.4239 22.636C49.3263 22.7129 48.2849 23.1506 47.4619 23.8809C46.6389 24.6112 46.0805 25.5931 45.8735 26.6738C44.3075 32.5743 42.4685 38.4045 41.0029 44.3293C39.3666 50.9426 39.9527 50.195 45.4981 50.0657C66.0264 49.5859 86.5501 48.9308 107.074 48.2857C116.341 47.9929 125.599 47.5696 135.712 47.1732Z" fill="black"/>
<path d="M88.1707 88.1458C79.3272 88.4976 70.4851 88.8619 61.6409 89.1901C60.2239 89.2426 58.6296 89.5268 57.4285 88.9971C56.1211 88.4208 54.6115 87.2014 54.2125 85.9379C53.6303 84.108 55.2278 82.8282 56.9586 82.5519C59.9771 82.0712 63.0207 81.7644 66.0745 81.633C82.3359 80.9329 98.5997 80.2856 114.866 79.6909C117.487 79.6979 120.106 79.8527 122.709 80.1543C124.731 80.3118 126.039 81.4532 126.097 83.4714C126.156 85.512 124.775 86.7249 122.877 87.0097C120.29 87.4283 117.677 87.6662 115.057 87.7218C106.097 87.8059 97.139 87.7541 88.1754 87.7541C88.1714 87.886 88.1707 88.0159 88.1707 88.1458Z" fill="black"/>
<path d="M65.5336 78.7215C64.2308 78.7215 62.8124 79.0425 61.6612 78.6264C60.6248 78.2516 59.276 77.1351 59.1743 76.2228C59.0693 75.2731 60.0597 73.7097 60.9871 73.2463C62.6712 72.472 64.4814 72.0084 66.3304 71.8778C78.4812 70.7207 90.6418 69.6653 102.8 68.5856C103.234 68.5363 103.674 68.547 104.105 68.6172C106.268 69.0346 108.578 69.3359 108.877 72.1877C109.101 74.3089 107.385 76.1257 104.39 76.4598C100.493 76.8969 96.5593 77.0282 92.6377 77.2179C83.6006 77.655 74.5609 78.0488 65.5218 78.4596L65.5336 78.7215Z" fill="black"/>
<path d="M148.897 85.2518C144.006 85.2019 140.766 82.8588 139.606 78.5328C138.497 74.3979 140.81 68.4252 144.398 66.4975C145.375 66.0217 146.44 65.7536 147.526 65.71C151.543 65.4409 155.065 66.932 158.158 69.304C161.078 71.5435 161.626 75.6581 159.776 79.119C157.782 82.8457 153.433 85.2984 148.897 85.2518Z" fill="black"/>
<path d="M39.7938 77.987C39.8043 83.9925 34.7072 89.1047 28.7871 89.0272C27.5861 89.0191 26.3989 88.7705 25.2956 88.2961C24.1923 87.8217 23.1952 87.131 22.3632 86.2649C21.5312 85.3988 20.8811 84.3749 20.4513 83.2534C20.0215 82.132 19.8208 80.9358 19.8608 79.7354C19.9442 73.2042 24.4113 68.9393 31.2024 68.9059C36.2627 68.8829 39.7846 72.6063 39.7938 77.987Z" fill="black"/>
</svg>
