<svg width="167" height="136" viewBox="0 0 167 136" fill="none" xmlns="http://www.w3.org/2000/svg">
<path d="M80.2556 0.89733C96.9725 1.1428 113.691 1.33628 130.406 1.65526C137.996 1.80031 145.336 3.12206 152.335 6.34993C158.221 9.06454 162.191 13.2272 163.423 19.578C164.344 23.9475 164.884 28.3885 165.038 32.8511C165.16 39.7099 164.481 46.5811 164.538 53.4437C164.634 64.8995 165.018 76.3541 165.33 87.8079C165.473 93.0442 165.816 98.2758 165.912 103.513C166.042 109.915 163.75 116.13 159.495 120.915C157.537 123.25 155.379 125.408 153.043 127.365C145.912 133.206 137.743 135.775 128.435 135.349C114.029 134.693 99.609 134.299 85.1906 134.024C73.1737 133.793 61.1475 134.023 49.1306 133.782C42.6985 133.65 36.2664 133.104 29.8638 132.475C26.7357 132.167 23.6562 131.294 20.5767 130.581C15.5384 129.382 11.006 126.626 7.62314 122.705C3.93585 118.578 3.42653 113.319 2.37245 108.049C-0.891518 91.7485 1.13847 75.4044 2.00615 59.0861C2.5916 48.0813 3.59588 37.0988 4.42287 26.1064C4.78451 21.2987 4.88233 16.583 6.91699 12.1409C10.6082 4.07916 17.1112 0.0360966 25.851 0.204775C43.9849 0.55526 62.1209 0.81981 80.2556 1.1191C80.2536 1.04559 80.2543 0.971497 80.2556 0.89733ZM11.7155 71.7276C10.1705 84.1482 9.97683 96.3199 12.1749 108.45C13.3347 114.853 16.6642 119.641 23.2112 121.287C28.1659 122.534 33.2381 123.712 38.3109 124.004C48.3372 124.581 58.3993 124.516 68.4468 124.73C74.5632 124.861 80.6802 124.976 86.7947 125.175C101.537 125.654 116.281 126.128 131.02 126.706C134.247 126.863 137.474 126.383 140.515 125.291C143.555 124.199 146.351 122.518 148.741 120.343C154.481 115.317 158.114 109.308 157.834 101.28C157.522 92.3399 157.59 83.3868 157.472 74.4403C157.461 73.6047 157.305 72.7718 157.216 71.9317C156.107 71.9816 155.238 72.063 154.371 72.0538C135.257 71.7808 116.142 71.4579 97.027 71.2255C77.4734 70.9879 57.919 70.7319 38.3654 70.7011C29.856 70.686 21.3458 71.2019 12.8338 71.488C12.4553 71.5386 12.0814 71.6187 11.7155 71.7276ZM157.195 52.1833C157.398 49.6754 157.69 47.5235 157.721 45.3661C157.795 40.4541 157.852 35.5362 157.701 30.6274C157.558 27.6884 157.256 24.7592 156.794 21.8533C156.196 17.6095 153.723 14.9055 149.878 13.0001C142.83 9.50646 135.3 8.47121 127.628 8.25068C115.173 7.89626 102.713 7.73559 90.2529 7.60301C78.9948 7.4829 67.7353 7.48749 56.4764 7.48027C47.7346 7.47437 38.9521 7.03534 30.2615 7.69627C20.0516 8.47272 17.7531 11.1512 15.1159 19.0181C14.8769 19.7439 14.7317 20.4974 14.6841 21.2602C14.0234 31.2767 13.3824 41.2947 12.761 51.3139C12.8011 51.7168 12.9023 52.1111 13.0615 52.4833C37.1386 52.1086 61.0497 51.4853 84.9622 51.4334C108.875 51.3816 132.797 51.9063 157.193 52.1833H157.195Z" fill="black"/>
<path d="M109.799 86.2888C110.46 86.1103 111.136 85.9889 111.818 85.9265C119.34 85.9455 126.863 85.9626 134.384 86.0578C136.986 86.0913 139.583 86.3604 142.184 86.5008C143.887 86.5927 144.75 87.5004 144.905 89.1609C145.198 92.3041 145.623 95.4414 145.758 98.5912C145.867 101.114 144.642 102.431 142.037 102.614C138.344 102.873 134.633 103.004 130.93 102.989C125.261 102.965 119.592 102.775 113.924 102.641C112.943 102.653 111.965 102.582 110.997 102.429C109.58 102.149 108.557 101.248 108.544 99.7621C108.506 95.3489 107.828 90.8615 109.799 86.2888ZM139.86 90.7073L111.78 89.8376C112.141 92.48 112.473 94.9 112.859 97.7176C121.965 97.0862 130.806 98.6004 139.86 97.9217V90.7073Z" fill="black"/>
</svg>
