<svg width="168" height="136" viewBox="0 0 168 136" fill="none" xmlns="http://www.w3.org/2000/svg">
<path d="M80.1296 0.852834C96.8465 1.09699 113.567 1.23423 130.279 1.65691C134.859 1.7897 139.414 2.38498 143.874 3.43364C147.57 4.38497 151.144 5.75584 154.528 7.51939C158.946 9.70368 163.257 13.4174 164.284 18.2349C165.371 22.8998 166.03 27.6539 166.253 32.4384C166.441 39.4015 165.715 46.3857 165.768 53.3573C165.855 64.7047 166.227 76.0504 166.536 87.3945C166.681 92.7404 167.031 98.081 167.144 103.428C167.282 110.034 164.341 116.506 160.096 121.497C158.145 123.836 155.988 125.998 153.651 127.954C146.523 133.791 137.709 135.734 128.393 135.305C113.989 134.642 99.567 134.289 85.1492 133.975C75.318 133.762 65.48 133.802 55.6454 133.801C47.0113 133.801 38.372 133.912 29.8199 132.473C26.7043 131.948 23.6161 131.248 20.5339 130.545C15.4919 129.36 10.9543 126.611 7.57058 122.689C3.88788 118.569 3.37792 113.31 2.28512 108.048C-0.461002 94.8275 0.574784 81.5144 1.33811 68.2341C2.15196 54.0701 3.32605 39.9273 4.35716 25.7767C4.7083 20.9637 4.83366 16.235 6.94181 11.8349C10.7105 3.97006 16.892 -0.00480705 25.7204 0.161246C43.8543 0.503198 61.9903 0.774342 80.125 1.07429L80.1296 0.852834ZM75.318 7.31395C65.9606 7.31395 52.0835 7.24117 38.2039 7.35406C33.5321 7.39212 28.8183 7.20842 24.2338 8.6622C20.8307 9.74254 18.2729 11.5842 16.6406 14.8567C14.8376 18.4731 14.2312 22.3073 14.0002 26.2408C13.1174 41.2768 12.3449 56.32 11.3939 71.3517C10.6279 83.4499 9.7529 95.5167 11.947 107.582C13.1829 114.375 16.2789 119.516 23.2682 121.276C28.1179 122.497 33.0805 123.663 38.0457 123.951C47.963 124.525 57.9158 124.476 67.8541 124.69C74.1891 124.828 80.5253 124.936 86.8577 125.141C101.494 125.614 116.126 126.092 130.758 126.66C137.272 127.005 143.658 124.758 148.521 120.409C154.274 115.408 157.98 109.444 157.746 101.409C157.38 88.866 157.272 76.3155 157.085 63.7677C157.03 60.0567 157.014 56.343 157.09 52.6334C157.239 45.3283 157.582 38.026 157.605 30.7217C157.51 27.6723 157.195 24.6337 156.664 21.6294C156.078 17.5069 153.64 14.8867 149.927 13.0207C142.9 9.48834 135.37 8.40203 127.698 8.20907C111.749 7.81001 95.7931 7.64869 75.318 7.31461V7.31395Z" fill="black"/>
<path d="M61.324 34.4222C61.1626 37.0272 61.0767 39.6397 60.822 42.2329C60.4394 46.1348 58.1684 48.8816 54.5408 49.807C47.533 51.5323 40.2662 51.945 33.1081 51.0245C31.7403 50.8631 30.4317 50.1312 29.1177 49.6068C24.9427 47.9416 23.3609 44.1657 23.5958 39.4873C23.6726 37.9738 23.6353 36.4522 23.7508 34.9427C23.8681 32.5626 24.107 30.1904 24.4667 27.8348C25.2885 23.3061 28.4231 20.6098 32.6709 20.0119C38.8197 19.1382 45.0224 18.6995 51.2328 18.6992C56.6332 18.7084 60.0594 22.67 60.6967 28.5357C60.9087 30.485 60.9789 32.4499 61.1141 34.4077L61.324 34.4222ZM53.9023 34.965C47.5837 34.6434 43.523 32.1907 41.8683 24.4636C40.5458 24.2536 40.4861 25.1488 40.4546 26.0677C40.3166 28.4717 39.408 30.7674 37.8634 32.6147C36.953 33.7922 35.9632 34.9088 35.2137 35.8067L40.1586 43.9071L42.2273 43.8099C44.4556 38.5323 48.3077 35.6174 53.9023 34.965ZM29.199 32.9358C33.8453 32.0944 36.7337 29.0069 36.6772 25.1424C32.1977 25.0269 29.5574 27.9759 29.199 32.9358ZM46.3911 24.4688C47.1931 28.1358 49.4103 29.9204 53.7376 30.3858C53.328 24.4886 51.7626 23.2279 46.3911 24.4704V24.4688ZM53.8294 39.2531C50.8338 40.0144 48.2695 40.9483 46.63 43.9464C48.1435 43.9464 49.3263 43.9831 50.5025 43.9397C53.7704 43.819 54.2632 43.1943 53.8294 39.2543V39.2531ZM29.8605 37.9587C30.7951 42.3962 32.0304 43.4535 36.0886 43.5375C34.7674 40.9713 33.3233 38.6084 29.8605 37.9599V37.9587Z" fill="black"/>
<path d="M120.6 108.099C115.757 113.215 103.803 111.059 99.7123 104.911C98.6707 103.365 98.0012 101.599 97.7571 99.7504C97.5129 97.9028 97.7013 96.0237 98.3058 94.2601C99.3047 91.2738 100.881 88.5126 102.944 86.134C106.675 81.7976 111.709 81.9013 116.802 83.2743C117.946 83.6557 119.066 84.1059 120.155 84.6225C124.893 79.0777 130.712 80.2394 136.352 82.4086C142.229 84.6691 145.233 89.4524 145.239 95.6667C145.25 108.006 136.257 111.673 126.796 110.033C124.781 109.68 122.855 108.816 120.6 108.099ZM129.92 103.361C133.596 103.31 136.197 102.043 137.113 99.6959C138.848 95.2453 137.315 90.7618 133.023 88.5434C131.324 87.6646 129.341 87.2964 127.458 86.8146C124.547 86.0664 122.605 87.6561 121.163 89.8489C118.023 94.6257 119.832 100.128 125.186 102.163C126.74 102.656 128.321 103.055 129.922 103.358L129.92 103.361ZM116.555 104.324C112.112 98.1942 113.278 92.4624 117.08 86.9308C113.281 85.2814 109.549 85.9082 107.055 88.506C104.2 91.4805 102.78 97.0161 104.358 99.9584C106.955 104.79 111.578 104.372 116.557 104.321L116.555 104.324Z" fill="black"/>
<path d="M35.0187 65.8306C31.4279 65.5683 27.8311 65.367 24.2482 65.0271C21.2415 64.7415 19.963 63.7478 19.9367 61.9514C19.9105 60.1333 21.0794 59.0741 24.1471 58.8601C28.3871 58.5654 32.6473 58.5464 36.8997 58.4768C37.6605 58.5142 38.4093 58.6807 39.1142 58.9691C40.7098 59.5197 41.6786 60.6058 41.6543 62.3687C41.6156 63.1946 41.2878 63.9809 40.7286 64.5899C40.1694 65.199 39.4141 65.5921 38.5944 65.7013C37.4125 65.8661 36.2211 65.9547 35.0278 65.9665L35.0187 65.8306Z" fill="black"/>
<path d="M129.918 65.6859C127.085 65.6859 124.252 65.7023 121.42 65.6734C120.771 65.7495 120.113 65.6432 119.522 65.3656C118.796 64.8327 117.867 64.0275 117.815 63.2819C117.764 62.5566 118.564 61.5689 119.259 61.0504C120.005 60.6016 120.862 60.3711 121.733 60.3854C126.852 60.1708 131.972 59.9839 137.095 59.8999C138.404 59.8475 139.71 60.0671 140.93 60.545C141.801 60.9231 142.892 61.9484 142.939 62.7419C142.987 63.5459 142.028 64.6392 141.225 65.1977C140.368 65.6668 139.401 65.8933 138.426 65.8539C135.594 65.934 132.758 65.8828 129.923 65.8828L129.918 65.6859Z" fill="black"/>
<path d="M95.576 66.6707C92.4354 66.4043 89.2929 66.164 86.1569 65.8588C84.5902 65.7066 83.4396 64.9856 83.4278 63.2181C83.4147 61.3016 84.835 60.8732 86.3046 60.8174C92.1716 60.5955 98.0418 60.3762 103.912 60.3434C106.191 60.3309 107.267 61.4059 107.368 63.0283C107.475 64.7505 106.367 66.1273 104.06 66.3301C101.256 66.5775 98.4153 66.3892 95.5891 66.3892L95.576 66.6707Z" fill="black"/>
<path d="M64.373 65.949C61.3623 65.6917 58.4332 65.461 55.5086 65.1781C54.8592 65.1179 54.2238 64.9531 53.6269 64.6904C52.5485 64.2021 51.7011 63.2977 52.1678 62.1308C52.4664 61.3858 53.4345 60.8634 54.1853 60.3652C54.595 60.2165 55.0343 60.1673 55.4666 60.2219C59.8168 60.025 64.1657 59.8041 68.5178 59.6663C69.6021 59.6229 70.6863 59.7445 71.7338 60.0271C72.3318 60.1355 72.8732 60.4475 73.267 60.91C73.6615 61.3726 73.8827 61.9573 73.8945 62.5647C73.9437 63.2259 73.7547 63.8829 73.3609 64.4164C72.9671 64.9499 72.3954 65.3243 71.7489 65.472C70.7027 65.76 69.6237 65.9142 68.5388 65.9313C67.1296 66.0041 65.7113 65.949 64.373 65.949Z" fill="black"/>
</svg>
