<svg width="155" height="125" viewBox="0 0 155 125" fill="none" xmlns="http://www.w3.org/2000/svg">
<path d="M149.702 46.1345L149.217 45.9054C147.801 45.2013 146.332 44.6061 144.826 44.1248C141.063 43.0458 137.213 42.0207 133.489 41.0296C132.079 40.659 130.67 40.2834 129.26 39.9032C128.407 39.6741 127.554 39.4509 126.604 39.1949L124.607 38.67L124.614 33.6865C124.614 31.9262 124.627 30.1592 124.634 28.3989C124.661 24.5003 124.688 20.4742 124.614 16.5192C124.492 10.3351 120.884 5.47249 114.95 3.52382L114.621 3.40941C113.72 3.07358 112.787 2.8319 111.836 2.68769L108.821 2.3435C103.689 1.7528 98.3856 1.14334 93.1546 0.745602C90.5292 0.54345 87.8264 0.548645 85.2096 0.556521C83.9416 0.563085 82.6807 0.570138 81.4127 0.549791C78.681 0.515662 75.95 0.455399 73.2118 0.394359C68.578 0.300503 63.8261 0.197266 59.0893 0.197266C57.6729 0.197266 56.2586 0.206246 54.8466 0.224186C50.1801 0.299008 45.4249 0.588654 40.8325 0.87219C37.9525 1.04743 34.9715 1.23646 32.0377 1.36444C25.2498 1.68396 18.5085 2.65518 11.9065 4.26477C8.55966 5.14047 5.60063 7.10786 3.49815 9.85516C1.39566 12.6025 0.26989 15.9726 0.29914 19.432C0.454692 27.3835 0.454732 35.4703 0.454732 43.2931C0.454732 46.4567 0.45896 49.6198 0.467711 52.7825C0.474274 54.6235 0.447502 56.4652 0.427812 58.3062C0.380555 62.1235 0.333184 66.0688 0.555682 69.9235C1.07484 78.9606 3.04397 83.3239 13.3426 85.2667C14.1302 85.415 14.9479 85.5226 15.7434 85.6237C16.2632 85.6894 16.789 85.7589 17.3082 85.8397C18.462 86.0149 19.6054 86.2039 20.8426 86.3995L23.0274 86.7572L23.0681 87.2895C23.095 87.6137 23.1285 87.8966 23.1554 88.146C23.2295 88.5891 23.2478 89.0406 23.2099 89.4882C22.6363 93.8654 24.4976 96.9344 28.9082 98.8739C30.2773 99.4738 31.6333 100.101 32.9952 100.729C36.7578 102.581 40.6533 104.15 44.6492 105.423C57.4163 109.105 70.5208 112.43 83.1933 115.647L85.2569 116.172C96.5065 119.024 107.763 121.661 117.279 123.86C122.566 125.087 126.255 124.554 129.25 122.147C131.475 120.389 133.415 118.299 135.003 115.949C136.621 113.324 137.929 110.52 138.901 107.593C141.281 100.943 143.622 94.1515 145.888 87.5822C147.201 83.7656 148.523 79.949 149.854 76.1311C152.497 68.5366 154.048 62.1634 154.716 56.0667C155.224 51.4691 153.398 47.8469 149.702 46.1345ZM10.7841 14.5181C11.9655 13.2901 13.9201 12.7375 14.9788 12.5215C20.9445 11.3922 26.9741 10.6309 33.0333 10.242C51.2697 8.79806 69.277 8.90649 89.2336 9.16968C96.6384 9.27075 103.882 9.48662 111.09 11.0579C115.231 11.9617 116.829 13.8099 116.977 17.8837C117.038 19.3933 117.024 20.9324 117.011 22.5509C117.004 23.3333 116.997 24.1491 116.997 25.0122V25.7002L116.316 25.6871C110.699 25.6193 105.117 25.5382 99.5703 25.4442C86.7225 25.2348 74.5966 25.0595 62.18 25.0503C49.7502 25.0634 37.0711 25.2866 24.8166 25.5019C19.3205 25.6038 13.8083 25.6961 8.28013 25.7788L7.77409 25.7855L7.62576 25.2996C6.46074 21.4778 7.49252 17.9435 10.7841 14.5181ZM7.53328 32.8687H8.20806C12.5512 32.8419 16.8698 32.8081 21.1635 32.7674C30.7946 32.6867 40.7486 32.6062 50.5018 32.6462C58.9252 32.6935 67.4839 32.8889 75.759 33.0779C79.2376 33.1521 82.7123 33.2327 86.1856 33.3003L100.106 33.5839C104.219 33.6715 108.328 33.7569 112.435 33.84C113.17 33.8538 113.897 33.8536 114.721 33.8464L116.69 33.84V39.1885H116.015C108.172 39.2016 100.33 39.197 92.4917 39.1747C64.9142 39.1274 36.4063 39.0735 8.24219 40.3816L7.53394 40.4159L7.53328 32.8687ZM26.9228 79.229C25.1021 79.1207 23.2742 79.0065 21.447 78.9008C19.1032 78.719 16.7722 78.3994 14.4662 77.9433L12.7399 77.64C10.2577 77.2219 8.78098 75.6434 8.58539 73.2091C8.52501 72.4536 8.45012 71.6995 8.38317 70.9427C8.21449 69.1555 8.03932 67.308 8.00519 65.4734C7.9448 61.6759 7.95793 57.9327 7.97171 53.9743C7.97828 52.3423 7.98044 50.6856 7.97828 49.0041V48.383L8.59195 48.3292C9.01004 48.2891 9.40771 48.2486 9.78576 48.1981C10.548 48.0988 11.3146 48.0381 12.0829 48.0157C13.9981 47.9953 15.9141 48.0026 17.822 48.0026C19.9538 48.0026 22.0777 48.0026 24.2023 47.9757C27.7971 47.9284 31.3852 47.8606 34.9799 47.793C41.5893 47.6617 48.4349 47.5307 55.165 47.5503C68.5189 47.591 82.0953 47.7392 95.226 47.8744C100.945 47.9348 106.662 47.9932 112.377 48.0497C113.119 48.0563 113.861 48.0564 114.67 48.0564L116.457 48.0497C116.457 48.0497 116.68 51.1313 116.686 51.489C116.818 58.2533 117.186 65.0994 115.716 72.7267C114.758 77.6906 113.638 78.7761 108.654 79.525C108.289 79.571 107.922 79.5959 107.555 79.5992C101.991 79.6596 96.4245 79.7298 90.8561 79.8079C77.8803 79.9838 64.4791 80.1656 51.2539 80.1656H49.3381C41.8618 80.1531 34.2672 79.6878 26.9228 79.229ZM135.803 85.0153C135.769 85.2719 135.756 85.5148 135.737 85.7438C135.725 86.2525 135.65 86.7579 135.515 87.2482C133.316 94.1673 131.151 100.945 128.898 107.75C128.4 109.172 127.759 110.54 126.983 111.831C125.593 114.238 124.481 115.209 122.525 115.209C121.629 115.18 120.74 115.047 119.875 114.816C116.307 113.946 112.739 113.055 109.171 112.172C106.972 111.619 104.771 111.072 102.568 110.531C97.9347 109.384 93.3042 108.247 88.6757 107.118C78.0266 104.508 67.0166 101.81 56.2085 99.0517C48.9855 97.2107 41.5467 95.3106 34.7622 91.7664C32.7722 90.7274 32.6376 90.478 32.6776 87.9419L32.6914 87.3348L33.2984 87.281C37.2205 86.9758 41.1625 87.0348 45.0738 87.4562C45.402 87.4831 45.7302 87.5376 46.0518 87.5914C46.4815 87.6721 46.9164 87.722 47.3532 87.7398C50.7255 87.8139 54.1 87.8946 57.4767 87.9826C65.8463 88.1985 74.4995 88.4138 82.9971 88.3534C91.8655 88.2878 100.997 87.8074 110.129 86.9436C115.389 86.4448 119.207 84.1653 121.466 80.1794L121.736 79.7003L135.862 84.4705L135.803 85.0153ZM141.657 69.4765L138.945 77.5967L124.445 73.6108L123.592 73.2668C124.12 71.0845 124 69.2743 124.344 67.2646C124.553 66.0576 124.749 62.5103 124.749 62.5103L141.805 68.8359L141.657 69.4765ZM144.233 60.9441L143.538 60.7957C137.549 59.5218 131.647 57.8661 125.868 55.8386L125.423 55.6834V46.3899L145.494 53.1139L144.233 60.9441Z" fill="black"/>
<path d="M99.5185 54.3825C97.9334 53.923 96.517 54.3491 95.0068 54.8013C94.5612 54.9326 94.1096 55.071 93.6574 55.1852C93.4487 55.239 93.2327 55.2934 93.0168 55.3538C91.8229 55.678 90.4741 56.0483 89.3951 55.5967C88.0247 55.0164 86.5512 54.7204 85.0633 54.727C82.8987 54.8027 80.761 55.2357 78.7375 56.0082C77.203 56.542 75.8326 57.4624 74.7575 58.6803C73.6824 59.8983 72.9394 61.3728 72.6001 62.9616C72.2319 64.4769 72.2601 66.0615 72.6815 67.5625C73.1035 69.0642 73.9042 70.4314 75.0075 71.5333C78.6633 75.115 83.1277 75.8704 88.2734 73.7859C89.8506 73.1092 91.6306 73.0777 93.2308 73.6986C94.7075 74.1974 96.8931 74.8314 98.7748 74.5952C103.5 74.0091 106.962 69.7934 107.003 64.5733V64.4929C107.032 62.2214 106.315 60.0027 104.963 58.1769C103.612 56.351 101.699 55.0182 99.5185 54.3825ZM85.1932 66.1514C84.9707 66.3522 84.7095 66.5058 84.4253 66.6023C84.1411 66.6988 83.8399 66.7355 83.5412 66.7112C83.1632 66.6909 82.7871 66.6443 82.4156 66.5708C81.8269 66.4677 81.2933 66.1599 80.9093 65.7018C80.5254 65.2441 80.3147 64.665 80.3153 64.0672C80.316 63.6937 80.3987 63.3249 80.5582 62.9869C80.717 62.649 80.9494 62.3502 81.2368 62.112C81.525 61.8739 81.8617 61.7023 82.224 61.6092C82.5856 61.5161 82.9637 61.5037 83.3306 61.5733L83.6292 61.6874C84.2087 61.9042 84.7128 62.2856 85.0797 62.7844C85.4466 63.2832 85.6599 63.8779 85.694 64.496C85.7308 64.7917 85.7052 65.0917 85.6186 65.3767C85.5319 65.6618 85.3869 65.9256 85.1926 66.1514H85.1932ZM98.6685 64.8499C98.0647 65.5398 97.2351 65.9919 96.328 66.1245C95.9355 66.1356 95.5476 66.0319 95.2122 65.8278C94.9293 65.6159 94.6983 65.3424 94.5375 65.0281C94.3761 64.7137 94.2888 64.367 94.2815 64.0137C94.2277 63.6877 94.2474 63.3537 94.338 63.0359C94.4286 62.7182 94.5887 62.4244 94.8066 62.1758C95.0317 61.9498 95.3054 61.7778 95.6067 61.6727C95.9086 61.5675 96.2296 61.5321 96.5466 61.5688C96.9404 61.5528 97.3315 61.6395 97.682 61.8207C98.0319 62.0019 98.3285 62.2712 98.5432 62.602C98.7578 62.9328 98.8818 63.3138 98.9048 63.7074C98.9271 64.1009 98.8464 64.4933 98.6711 64.8463L98.6685 64.8499Z" fill="black"/>
<path d="M57.7709 18.2007C57.8451 19.7385 56.7726 20.2509 54.8233 20.7904L54.6821 20.8305C54.3524 20.9316 54.0134 20.9996 53.67 21.0333C52.7059 21.0537 43.8572 21.3505 42.0529 21.1077C41.3644 21.0132 40.3326 20.8778 39.9349 20.4735C39.1118 19.6373 39.213 18.6186 39.1119 17.8093C38.9905 16.7979 39.8674 16.1686 40.785 16.0019C44.0155 15.4151 46.7196 14.8626 50.1187 14.8626C51.7151 14.8552 53.3088 14.9927 54.8803 15.2734C56.6918 15.597 57.6915 16.6156 57.7709 18.2007Z" fill="black"/>
<path d="M30.2414 18.9763C30.248 19.8125 30.0256 21.2826 28.4943 21.6738C27.0352 22.0139 25.5584 22.273 24.0706 22.4497C22.7013 22.5026 21.3301 22.4807 19.9632 22.384C18.088 22.1871 16.4695 22.0262 14.8241 21.7834C13.0703 21.5274 12.0452 20.6098 12.0859 19.3221C12.1266 18.1013 13.0776 17.2219 14.6423 16.9817C18.5534 16.3818 27.1252 16.0629 27.9955 16.3747L28.5081 16.5634C29.0308 16.7043 29.4887 17.0214 29.8046 17.4611C30.1205 17.9007 30.2747 18.436 30.2414 18.9763Z" fill="black"/>
</svg>
