<svg width="157" height="144" viewBox="0 0 157 144" fill="none" xmlns="http://www.w3.org/2000/svg">
<path d="M138.29 50.4134C137.654 49.5396 136.915 48.746 136.088 48.0505C134.578 46.6899 133.08 45.3734 131.416 43.9157C130.967 43.5219 130.512 43.1237 130.052 42.7216C130.179 42.5857 130.305 42.4526 130.43 42.3213C131.03 41.6821 131.651 41.0225 132.215 40.3241L132.724 39.6934C134.117 37.9765 135.696 36.0311 137.086 34.0581C137.57 33.429 137.804 32.6431 137.744 31.8516C137.683 31.0602 137.332 30.3189 136.758 29.7708C136.172 29.2547 135.424 28.9611 134.644 28.9417C133.863 28.9223 133.102 29.1781 132.492 29.6644C131.56 30.3371 130.691 31.094 129.898 31.925C128.531 33.2909 127.163 34.7045 125.841 36.0717L125.7 36.2175C125.312 36.6209 124.921 37.0242 124.528 37.4276C124.001 36.9901 123.481 36.5563 122.969 36.1262C121.373 34.7879 119.721 33.4043 118.036 32.0923C116.906 31.2615 115.697 30.5423 114.427 29.9448C113.804 29.6303 113.09 29.5499 112.412 29.7185C111.736 29.8872 111.142 30.2937 110.74 30.8636C110.314 31.3602 110.079 31.9923 110.078 32.6465C110.076 33.3006 110.308 33.9337 110.731 34.4322C111.338 35.1775 112.003 35.8732 112.721 36.5127L113.106 36.8771C114.39 38.0979 115.681 39.3101 116.978 40.5302L119.222 42.639L119.133 42.7479C118.841 43.105 118.607 43.3878 118.365 43.6359C117.774 44.2437 117.17 44.8411 116.545 45.4626C115.491 46.5128 114.182 47.813 113.001 49.1145C112.037 50.0929 111.281 51.2557 110.778 52.5334C110.53 53.1576 110.462 53.8384 110.58 54.4995C110.699 55.1605 111 55.7752 111.449 56.2743C111.78 56.617 112.178 56.8881 112.618 57.07C113.059 57.252 113.533 57.3411 114.009 57.3319C114.422 57.3302 114.833 57.2703 115.229 57.154C116.294 56.7992 117.274 56.2246 118.103 55.4677C118.774 54.8663 119.404 54.2206 119.988 53.5348C120.251 53.2368 120.517 52.944 120.794 52.65L124.655 48.5809L126.624 50.6515C127.853 51.9419 129.041 53.189 130.229 54.4229L130.517 54.7261C131.023 55.2922 131.582 55.8078 132.187 56.2653C134.068 57.6049 136.401 57.5246 137.864 56.0682C138.589 55.3264 139.029 54.3528 139.107 53.3185C139.185 52.2842 138.895 51.2555 138.29 50.4134Z" fill="black"/>
<path d="M43.8461 51.1245L90.3148 48.3751C90.5688 46.519 90.8353 44.6721 91.0735 42.8206C93.1587 26.5795 107.267 14.9864 119.598 13.2117C133.126 11.265 149.647 15.9027 154.893 32.3663C156.424 36.9652 156.719 41.8857 155.75 46.6349C154.721 51.5982 153.23 56.4216 150.475 60.7304C146.822 66.4407 141.789 70.4167 135.117 71.9539C133.27 72.3799 132.519 73.2265 132.114 74.9501C130.731 80.8387 129.372 86.7405 127.717 92.5557C126.764 95.7593 125.535 98.8742 124.045 101.866C123.016 103.992 120.752 104.455 118.552 104.491C116.421 104.525 114.286 104.354 112.154 104.31C94.5272 103.944 76.8999 103.586 59.2726 103.233C58.7272 103.222 58.1805 103.279 57.0943 103.329C58.4522 108.289 59.7385 112.987 61.1477 118.134C62.3947 118.134 63.7115 118.142 65.0248 118.134C82.7702 118.003 100.516 117.841 118.261 117.785C120.375 117.809 122.476 118.128 124.502 118.732C125.39 118.946 126.18 119.45 126.749 120.163C127.319 120.876 127.635 121.759 127.648 122.671C127.66 123.583 127.369 124.475 126.82 125.203C126.27 125.932 125.493 126.457 124.612 126.695C122.386 127.315 120.13 127.819 117.852 128.205C120.794 134.327 120.458 138.434 116.751 141.074C113.565 143.344 109.092 143.24 106.447 140.831C103.092 137.775 103.158 133.407 106.785 127.863H78.5624C80.4002 130.709 82.425 133.219 81.1628 136.385C80.5761 137.938 79.6198 139.325 78.3773 140.426C76.8697 141.631 74.9834 142.261 73.0545 142.207C71.1255 142.153 69.2792 141.416 67.8418 140.128C64.5339 137.212 64.4728 133.679 67.637 127.693C64.7492 127.412 61.8545 127.222 58.9896 126.825C56.4561 126.475 54.9567 125.109 54.1126 122.456C52.3543 116.933 49.711 111.672 48.1857 106.098C43.0413 87.3017 38.2186 68.4169 33.2915 49.5618C30.8558 40.2418 28.3972 30.9256 26.1124 21.5682C25.9961 20.8629 25.7047 20.198 25.2651 19.6344C24.8255 19.0707 24.2518 18.6262 23.596 18.3416C19.3321 16.3485 15.074 14.3417 10.8219 12.3211C8.3967 11.1633 5.928 10.0678 3.6236 8.7013C2.48869 8.00198 1.55687 7.01727 0.921329 5.84551C0.62908 5.29977 0.471445 4.69226 0.461445 4.07328C0.451443 3.45428 0.589498 2.84184 0.863965 2.28694C1.13843 1.73203 1.54144 1.25062 2.03947 0.882923C2.53751 0.515216 3.11631 0.271988 3.72743 0.173063C4.93721 -0.0363337 6.18082 0.0809745 7.32989 0.51341C14.4866 3.42886 21.6103 6.42464 28.701 9.50027C31.9236 10.9029 34.1485 13.0955 33.3799 17.0821C33.3566 17.6415 33.4621 18.1987 33.6879 18.7111C36.8681 28.9815 40.0562 39.2493 43.2526 49.5144C43.3825 49.9312 43.554 50.3382 43.8461 51.1245ZM123.294 72.8294C122.087 72.6102 120.997 72.4304 119.91 72.2118C116.4 71.5056 112.817 71.0403 109.4 70.017C102.907 68.0723 97.2228 64.7291 93.6306 58.74C92.5149 56.8832 91.2343 56.4736 89.2778 56.5268C77.9474 56.8353 66.6145 57.038 55.2833 57.3065C52.0876 57.3819 48.8952 57.5578 45.2696 57.7055C48.6082 70.3944 51.84 82.6771 54.9651 94.5523H116.832C119.038 87.1369 121.109 80.1739 123.294 72.8294ZM126.398 64.0564C135.691 64.0564 141.619 60.2934 145.083 51.7722C145.742 50.108 146.289 48.4016 146.719 46.6641C149.439 36.0616 144.609 26.4948 134.229 23.1625C129.391 21.6096 124.166 21.0758 119.068 20.6118C116.839 20.4927 114.633 21.1002 112.779 22.3428C104.065 28.3811 98.8735 36.4289 99.2751 47.4961C99.4248 51.6264 100.911 55.0184 104.221 57.2972C106.663 59.0604 109.379 60.41 112.259 61.2923C116.875 62.5643 121.675 63.1696 126.398 64.0596V64.0564Z" fill="black"/>
</svg>
