<svg width="157" height="144" viewBox="0 0 157 144" fill="none" xmlns="http://www.w3.org/2000/svg">
<path d="M138.487 37.4522C137.542 37.251 136.575 37.161 135.608 37.1842C133.847 37.2243 132.064 37.2967 130.341 37.3669C129.462 37.4019 128.583 37.4359 127.705 37.4691H127.611L127.498 35.6741C127.393 33.9598 127.283 32.1864 127.146 30.4379C127.078 29.6863 126.866 28.9546 126.522 28.2829C126.207 27.7092 125.722 27.2462 125.136 26.9562C124.548 26.6662 123.887 26.5635 123.239 26.6616C122.592 26.7598 121.99 27.0541 121.515 27.5052C121.04 27.9561 120.715 28.5419 120.583 29.1835C120.455 29.9481 120.384 30.7212 120.371 31.4964C120.35 32.7375 120.343 33.9789 120.336 35.22C120.332 36.0483 120.325 36.876 120.317 37.7034L120.174 37.7114C119.378 37.7513 118.581 37.789 117.784 37.8248C116.175 37.8983 114.51 37.9738 112.867 38.0873C111.367 38.1716 109.874 38.3472 108.396 38.6126C107.574 38.7339 106.83 39.165 106.316 39.8176C105.802 40.4701 105.557 41.2946 105.632 42.1218C105.68 42.8929 105.997 43.6228 106.528 44.1841C107.059 44.7454 107.77 45.1028 108.537 45.1936C109.472 45.3268 110.417 45.3709 111.36 45.325C113.46 45.2535 115.555 45.1668 117.653 45.0801L120.035 44.9824C119.995 45.57 119.954 46.1575 119.913 46.7447C119.762 48.9257 119.605 51.1807 119.506 53.411C119.47 54.5133 119.65 55.6122 120.036 56.6455C120.289 57.3315 120.751 57.9209 121.356 58.3316C121.961 58.7423 122.68 58.9537 123.411 58.936C123.514 58.936 123.619 58.932 123.724 58.9235C124.477 58.8884 125.199 58.6191 125.791 58.1534C126.383 57.6877 126.815 57.0486 127.026 56.3257C127.225 55.7125 127.34 55.0752 127.367 54.431C127.439 52.3596 127.498 50.2861 127.563 48.2141C127.596 47.1032 127.629 45.9917 127.663 44.8799H129.614C131.11 44.8799 132.65 44.8799 134.175 44.8498C135.835 44.8785 137.485 44.5707 139.023 43.9447C139.711 43.6866 140.301 43.2191 140.71 42.6083C141.119 41.9975 141.325 41.2742 141.302 40.5396C141.251 39.7828 140.944 39.0655 140.433 38.5049C139.922 37.9443 139.236 37.5733 138.487 37.4522Z" fill="black"/>
<path d="M43.9544 51.5794L90.4228 48.83C90.6768 46.9739 90.9439 45.1264 91.1815 43.2755C93.2667 27.0338 107.375 15.4416 119.707 13.6669C133.235 11.7202 149.756 16.3576 155.001 32.8212C156.532 37.4202 156.828 42.3409 155.858 47.0901C154.829 52.0534 153.338 56.8768 150.583 61.1857C146.931 66.8958 141.898 70.8719 135.225 72.409C133.377 72.835 132.627 73.6817 132.222 75.4052C130.839 81.2939 129.479 87.195 127.825 93.0108C126.873 96.2144 125.645 99.3294 124.154 102.321C123.124 104.447 120.86 104.91 118.66 104.946C116.529 104.98 114.394 104.809 112.262 104.765C94.6358 104.4 77.0086 104.041 59.3816 103.688C58.8361 103.677 58.2892 103.734 57.203 103.784C58.5609 108.745 59.8476 113.443 61.2561 118.589C62.507 118.589 63.8195 118.597 65.1328 118.589C82.8782 118.458 100.624 118.296 118.37 118.24C120.484 118.264 122.585 118.583 124.61 119.188C125.498 119.401 126.289 119.904 126.859 120.617C127.43 121.33 127.745 122.213 127.759 123.126C127.771 124.039 127.48 124.93 126.929 125.659C126.379 126.388 125.602 126.912 124.72 127.15C122.495 127.77 120.238 128.274 117.96 128.66C120.902 134.783 120.565 138.889 116.859 141.53C113.673 143.8 109.199 143.696 106.555 141.287C103.2 138.231 103.266 133.863 106.892 128.319H78.6652C80.5029 131.164 82.5284 133.675 81.2662 136.841C80.6795 138.394 79.7238 139.781 78.4814 140.881C76.9738 142.086 75.0875 142.717 73.1585 142.663C71.2295 142.608 69.3826 141.871 67.9452 140.583C64.6374 137.667 64.5757 134.135 67.7404 128.149C64.8527 127.868 61.9583 127.677 59.0934 127.281C56.56 126.93 55.0602 125.565 54.2155 122.912C52.4578 117.389 49.8181 112.128 48.2889 106.554C43.1451 87.7568 38.3215 68.8727 33.3944 50.0167C30.9594 40.6967 28.5001 31.3814 26.2154 22.024C26.0993 21.3187 25.8082 20.6536 25.3686 20.0899C24.9291 19.5262 24.3553 19.082 23.6996 18.7974C19.4347 16.8039 15.1767 14.7968 10.9254 12.7766C8.50022 11.6188 6.03186 10.5236 3.7268 9.15649C2.59193 8.45769 1.66026 7.47311 1.02518 6.30137C0.732779 5.75569 0.575084 5.14812 0.564972 4.52912C0.55486 3.91012 0.692755 3.29772 0.96717 2.74278C1.24159 2.18785 1.64432 1.70648 2.14236 1.33877C2.6404 0.971056 3.21918 0.727469 3.83032 0.628593C5.0403 0.418756 6.28454 0.536395 7.4338 0.969264C14.5905 3.88472 21.7142 6.88018 28.8048 9.95578C32.0274 11.3584 34.2523 13.5513 33.4831 17.5379C33.4606 18.0973 33.5657 18.6544 33.7908 19.167C36.9714 29.4373 40.16 39.7051 43.3564 49.9703C43.489 50.3864 43.6623 50.7931 43.9544 51.5794ZM123.402 73.2846C122.195 73.0654 121.105 72.8849 120.018 72.667C116.508 71.9607 112.925 71.4954 109.508 70.4722C103.015 68.5268 97.3307 65.184 93.7386 59.1949C92.6228 57.3381 91.3423 56.9285 89.3858 56.9817C78.0554 57.2901 66.7224 57.4929 55.391 57.7607C52.1959 57.8369 49.003 58.013 45.378 58.1607C48.7165 70.8502 51.9483 83.1323 55.0734 95.0074H116.94C119.145 87.5921 121.217 80.629 123.402 73.2846ZM126.505 64.5113C135.799 64.5113 141.727 60.7486 145.191 52.2274C145.85 50.5631 146.397 48.8564 146.826 47.119C149.547 36.5165 144.717 26.9496 134.336 23.6174C129.499 22.0638 124.274 21.5311 119.175 21.0671C116.947 20.9477 114.74 21.5549 112.886 22.7976C104.172 28.8359 98.9808 36.8841 99.3818 47.9512C99.5314 52.0816 101.018 55.4736 104.328 57.7524C106.771 59.5157 109.487 60.8654 112.367 61.7475C116.983 63.0194 121.783 63.6246 126.505 64.5113Z" fill="black"/>
</svg>
