<svg width="157" height="144" viewBox="0 0 157 144" fill="none" xmlns="http://www.w3.org/2000/svg">
<path d="M43.7112 51.5797L90.1797 48.8303C90.4337 46.9741 90.7008 45.1266 90.9384 43.2757C93.0236 27.034 107.132 15.4419 119.463 13.6672C132.991 11.7205 149.513 16.3579 154.757 32.8215C156.289 37.4204 156.585 42.3411 155.615 47.0904C154.585 52.0536 153.095 56.8771 150.34 61.1859C146.688 66.896 141.655 70.8721 134.982 72.4093C133.134 72.8352 132.384 73.6819 131.979 75.4054C130.596 81.2941 129.236 87.1952 127.581 93.011C126.629 96.2146 125.4 99.3296 123.91 102.321C122.88 104.447 120.616 104.91 118.417 104.947C116.286 104.981 114.15 104.809 112.019 104.765C94.3921 104.4 76.7648 104.041 59.1371 103.688C58.5924 103.677 58.0456 103.734 56.9587 103.784C58.3173 108.745 59.6031 113.443 61.0122 118.589C62.2593 118.589 63.5759 118.598 64.8892 118.589C82.6344 118.458 100.38 118.296 118.125 118.241C120.24 118.264 122.34 118.583 124.366 119.188C125.254 119.401 126.046 119.904 126.616 120.617C127.186 121.331 127.502 122.213 127.515 123.126C127.527 124.039 127.235 124.93 126.685 125.659C126.135 126.388 125.358 126.912 124.477 127.15C122.251 127.77 119.994 128.274 117.716 128.66C120.659 134.783 120.322 138.89 116.616 141.53C113.43 143.8 108.956 143.696 106.312 141.287C102.957 138.231 103.023 133.863 106.649 128.319H78.4221C80.2598 131.165 82.2846 133.675 81.0225 136.841C80.4363 138.394 79.4807 139.781 78.2376 140.882C76.73 142.086 74.8444 142.717 72.9154 142.663C70.9857 142.609 69.1388 141.871 67.7014 140.584C64.3938 137.668 64.3327 134.135 67.4967 128.149C64.609 127.868 61.7145 127.678 58.8503 127.281C56.3168 126.93 54.817 125.565 53.9723 122.912C52.2146 117.389 49.571 112.128 48.0457 106.554C42.902 87.7571 38.0785 68.8729 33.1513 50.017C30.7163 40.697 28.257 31.3816 25.9723 22.0242C25.8562 21.3189 25.5649 20.6539 25.1253 20.0901C24.6857 19.5265 24.1117 19.0821 23.4559 18.7977C19.192 16.8041 14.9338 14.797 10.6816 12.7768C8.25705 11.619 5.78804 10.5239 3.48364 9.15673C2.34877 8.45793 1.41725 7.47336 0.782173 6.30161C0.489775 5.75593 0.331919 5.14837 0.321808 4.52937C0.311696 3.91037 0.449587 3.29797 0.724008 2.74303C0.998423 2.18809 1.40132 1.70673 1.89936 1.33901C2.3974 0.9713 2.97618 0.727713 3.58731 0.628837C4.79729 0.419 6.04138 0.536639 7.19063 0.969508C14.3464 3.88496 21.4701 6.88042 28.5616 9.95602C31.7836 11.3586 34.0092 13.5516 33.24 17.5382C33.2174 18.0976 33.3227 18.6546 33.5478 19.1672C36.7284 29.4376 39.9169 39.7054 43.1132 49.9705C43.2478 50.3866 43.4205 50.7934 43.7112 51.5797ZM123.158 73.2848C121.952 73.0656 120.861 72.8851 119.775 72.6672C116.265 71.961 112.681 71.4956 109.265 70.4724C102.772 68.527 97.087 65.1842 93.4955 59.1951C92.3797 57.3384 91.0986 56.9287 89.1427 56.9819C77.8123 57.2904 66.4793 57.4932 55.1446 57.761C51.9495 57.8371 48.7564 58.0133 45.1314 58.1609C48.4696 70.8505 51.7012 83.1325 54.8262 95.0076H116.694C118.904 87.5923 120.976 80.6292 123.16 73.2848H123.158ZM126.262 64.5115C135.556 64.5115 141.484 60.7489 144.948 52.2277C145.607 50.5634 146.153 48.8566 146.583 47.1192C149.304 36.5168 144.473 26.9499 134.093 23.6176C129.255 22.0641 124.03 21.5313 118.932 21.0673C116.704 20.948 114.497 21.5552 112.643 22.7979C103.929 28.8362 98.7377 36.8843 99.1387 47.9515C99.2883 52.0818 100.775 55.4738 104.084 57.7526C106.527 59.516 109.243 60.8657 112.124 61.7477C116.742 63.0197 121.541 63.6248 126.264 64.5115H126.262Z" fill="black"/>
<path d="M122.432 45.0315C119.63 45.0315 116.828 45.0518 114.026 45.0203C113.132 45.0348 112.24 44.9456 111.367 44.7541C109.158 44.1994 108.025 42.9549 107.924 41.1631C107.816 39.2597 108.999 37.6191 111.219 37.0809C112.97 36.698 114.75 36.4608 116.54 36.372C121.569 36.0064 126.601 35.6774 131.636 35.4201C133.086 35.3246 134.543 35.4164 135.971 35.6932C136.873 35.833 137.7 36.2781 138.313 36.9539C138.927 37.6298 139.29 38.4955 139.343 39.4069C139.462 40.2551 139.293 41.1189 138.862 41.8595C138.432 42.6001 137.765 43.1746 136.969 43.4907C135.112 44.2315 133.159 44.7033 131.168 44.8925C128.273 45.1235 125.345 44.9521 122.431 44.9521L122.432 45.0315Z" fill="black"/>
</svg>
