<svg width="178" height="98" viewBox="0 0 178 98" fill="none" xmlns="http://www.w3.org/2000/svg">
<g clip-path="url(#clip0_6_1895)">
<path d="M175.215 21.8158C175.044 18.1403 173.928 14.5456 172.7 10.876C171.208 6.41293 167.909 3.59856 163.16 2.73285C160.926 2.28599 158.662 2.00081 156.388 1.87958C142.309 1.37354 128.214 0.909461 114.583 0.459868L102.473 0.0595919C102.459 0.058261 102.445 0.058261 102.431 0.0595919C96.3058 0.23199 90.2511 0.39311 84.2685 0.543192C68.8551 0.936994 54.2983 1.31638 39.4999 1.93006C32.7251 2.21163 26.094 3.32748 18.7502 4.64803C12.6771 5.73952 7.94635 9.41105 4.68893 15.5596C2.11937 20.4093 1.816 25.6804 1.52261 30.7775L1.51749 30.868C0.598614 46.7613 -0.435131 64.7751 0.191672 82.4186C0.434517 89.2721 3.48334 93.5179 9.51178 95.399C12.3552 96.291 15.3103 96.7773 18.2897 96.8429C41.807 97.2236 60.9687 97.4336 78.5932 97.5045C79.2646 97.5071 79.9413 97.5085 80.6232 97.5085C88.605 97.5085 97.3441 97.3214 107.911 96.9263C117.723 96.5594 127.685 95.9451 137.319 95.3511L137.85 95.3183C139.065 95.2434 140.278 95.1811 141.498 95.1174C147.279 94.8188 153.257 94.5097 159.015 92.876C159.416 92.7631 159.818 92.6516 160.221 92.54C162.121 92.0556 163.989 91.4518 165.814 90.7324C173.534 87.4993 177.328 81.9795 177.09 74.324L176.959 70.1267C176.47 54.2933 175.964 37.9151 175.215 21.8158ZM11.0581 31.4082C11.1815 26.9536 11.4452 22.3954 14.1427 18.3892C15.5064 16.2204 17.6541 14.661 20.1385 14.0356C23.0264 13.3405 25.9964 12.7131 28.8718 12.1073C29.8314 11.9051 30.794 11.7015 31.7597 11.4963C30.5888 21.6282 22.2493 29.6663 11.0581 31.4082ZM9.10413 78.1393C9.29709 74.6403 9.25036 71.0633 9.20573 67.6037C9.18801 66.2353 9.16897 64.8611 9.16504 63.4808C11.1039 63.2439 12.6726 63.9244 14.4814 64.8367C21.373 68.3067 26.8128 73.9938 31.1184 82.223C31.6434 83.2226 32.103 84.297 32.6333 85.5408C32.7961 85.9202 32.9665 86.3186 33.1489 86.7399C31.5199 86.6782 29.9375 86.627 28.3905 86.5772C24.2149 86.4459 20.2712 86.3146 16.3614 86.0055C11.5688 85.6222 8.85472 82.6818 9.10413 78.1367V78.1393ZM144.135 10.2315C144.514 10.1496 144.901 10.1137 145.289 10.1245C150.146 10.5183 155.079 10.9534 159.851 11.3755L160.325 11.4175C162.626 11.6209 163.979 12.8169 164.345 14.9703C164.797 17.6252 165.163 20.2754 165.552 23.0806C165.686 24.0467 165.822 25.027 165.962 26.0217C155.098 25.9252 145.181 18.7501 144.135 10.2288V10.2315ZM144.988 28.9686C150.124 32.5588 156.089 34.9497 163.225 36.2782C163.878 36.3989 164.526 36.5408 165.24 36.699L165.834 36.8302V51.9673C165.47 52.0284 165.106 52.0849 164.742 52.142C163.508 52.3141 162.284 52.5489 161.075 52.8456C155.828 54.2239 151.015 57.3166 146.766 62.0343C140.388 69.1179 136.447 76.4899 134.729 84.5543C122.444 86.9532 58.5282 88.4182 44.1163 86.6316C42.6783 77.7625 37.3116 71.1598 31.7078 65.3415C24.9002 58.274 17.855 54.9129 9.58903 54.8059L10.5008 40.06C18.5159 39.8255 26.2153 36.8834 32.3442 31.7128C38.54 26.5671 41.117 19.4294 43.0033 10.3161C74.0369 8.65232 105.48 8.97793 134.879 9.5903C134.9 9.88959 134.917 10.1809 134.934 10.4631C134.972 11.3945 135.059 12.3232 135.196 13.2453C135.658 16.3984 136.765 19.4222 138.449 22.1273C140.134 24.8325 142.358 27.1607 144.984 28.966L144.988 28.9686ZM149.407 83.9111C148.817 83.9971 148.219 84.0837 147.62 84.1736C150.369 70.9622 159.691 61.4225 166.922 60.5805V64.4699C166.922 68.0842 166.919 71.6238 166.928 75.1641C166.935 77.5551 165.838 79.2636 163.756 80.1057C160.998 81.2247 158.165 82.1456 155.276 82.8623C153.371 83.3322 151.443 83.6118 149.404 83.9085L149.407 83.9111Z" fill="black"/>
<path d="M101.607 26.1221C93.9615 21.0204 81.2634 21.6754 73.8776 27.5516C68.0355 32.123 64.0764 38.6809 62.7519 45.9795C61.0021 55.0179 64.6396 62.7996 72.7283 67.3282C76.6283 69.5308 81.0212 70.7135 85.4994 70.7654C85.588 70.7654 85.6733 70.7654 85.7619 70.7654C99.4137 70.7654 108.887 64.1044 111.748 52.4853C112.915 47.5809 112.572 42.4377 110.762 37.7322C108.952 33.0268 105.761 28.9794 101.607 26.1221ZM82.431 32.6796C82.9206 32.6851 83.4063 32.7738 83.8664 32.942C83.9471 32.9727 84.0338 32.9853 84.1197 32.9789C90.9752 32.6573 95.6253 34.7706 98.7561 39.6078C101.356 43.6265 101.836 48.1922 100.069 52.1348C98.3216 56.038 94.65 58.6935 89.994 59.4201C85.5309 60.1164 81.6893 59.6656 78.2455 58.0418C73.7601 55.9258 71.9959 52.5988 72.6916 47.5693C73.2856 43.6779 74.8437 39.9971 77.2236 36.8618C79.0023 34.3999 80.4219 32.6815 82.431 32.6815V32.6796Z" fill="black"/>
</g>
<defs>
<clipPath id="clip0_6_1895">
<rect width="177.211" height="97.7943" fill="white"/>
</clipPath>
</defs>
</svg>
