<svg width="152" height="129" viewBox="0 0 152 129" fill="none" xmlns="http://www.w3.org/2000/svg">
<g clip-path="url(#clip0_8_2815)">
<path d="M72.4768 126.878C56.3259 127.497 40.5543 128.16 24.7775 128.666C20.3415 128.809 15.8907 128.49 11.4469 128.38C11.1134 128.373 10.7803 128.346 10.4497 128.301C1.97282 127.096 -1.81419 121.338 1.64023 113.511C5.13313 105.817 9.0921 98.3442 13.4949 91.1346C27.186 68.2051 41.1019 45.4126 54.9664 22.5868C57.6238 18.2118 60.435 13.9308 63.1599 9.59692C63.6283 8.85093 64.283 8.0985 64.4052 7.27889C65.3334 1.0452 73.2634 -1.51659 78.8497 1.53837C80.877 2.68695 82.6614 4.22207 84.1015 6.0573C89.2838 12.6011 94.4622 19.1651 99.2684 25.9864C113.121 45.6479 126.81 65.4258 140.522 85.1856C144.846 91.4167 148.88 97.8171 150.839 105.283C151.637 108.324 152.189 111.356 151.497 114.517C150.529 118.947 148.063 122.122 143.596 123.043C139.259 123.984 134.852 124.568 130.42 124.791C113.869 125.443 97.3086 125.834 80.753 126.355C77.8656 126.449 74.9835 126.718 72.4768 126.878ZM9.47477 118.706C11.5846 120.016 13.5262 119.795 15.3482 119.732C30.2267 119.221 45.1053 118.705 59.974 118.038C74.9594 117.368 89.936 116.503 104.918 115.768C114.686 115.29 124.46 114.934 134.226 114.429C136.281 114.323 138.318 113.807 140.842 113.401C140.378 111.046 140.154 109.082 139.594 107.22C137.935 101.705 134.819 96.9389 131.539 92.3001C119.449 75.22 107.402 58.1088 95.1462 41.1499C88.6323 32.1361 81.7332 23.4019 74.9711 14.568C74.154 13.6115 73.2777 12.7072 72.3475 11.8603C70.3475 12.2513 69.7823 13.6578 69.0788 14.8905C66.6527 19.1416 64.2857 23.4254 61.831 27.6602C50.845 46.6141 39.8443 65.5593 28.8288 84.4963C23.514 93.6272 18.0999 102.7 12.8065 111.843C11.5567 114.014 10.6089 116.351 9.47477 118.705V118.706Z" fill="black"/>
<path d="M69.0198 58.9619C69.0198 54.8482 68.9509 50.7333 69.0549 46.6223C69.125 45.0729 69.3868 43.5384 69.8344 42.0538C69.9649 41.4396 70.3326 40.9021 70.8568 40.5589C71.3816 40.2156 72.0195 40.0944 72.6327 40.2218C73.6616 40.4969 74.5483 41.1515 75.116 42.0545C75.6123 43.1679 75.8643 44.3752 75.8552 45.5948C76.3645 54.0244 76.8309 62.4569 77.2531 70.8918C77.3298 72.2164 77.1765 73.5442 76.7984 74.8159C76.5789 75.6929 76.0605 76.4656 75.3336 77.0005C74.6068 77.536 73.7169 77.7999 72.8165 77.7477C71.9734 77.7471 71.1543 77.465 70.4885 76.9464C69.8227 76.4271 69.3478 75.7007 69.1387 74.8811C68.76 73.6119 68.5541 72.2965 68.5248 70.972C68.4482 66.971 68.4969 62.9673 68.4969 58.9651L69.0198 58.9619Z" fill="black"/>
<path d="M77.9203 90.2274C77.9222 90.7512 77.8183 91.2705 77.615 91.7539C77.4123 92.2367 77.1135 92.6738 76.738 93.038C76.3619 93.4029 75.917 93.687 75.4285 93.8746C74.9407 94.0622 74.4197 94.1489 73.8975 94.1293C72.8458 94.0524 71.8604 93.5847 71.1348 92.8178C70.4086 92.051 69.9935 91.0398 69.9714 89.9831C70.0124 87.7595 72.0786 85.5932 74.1417 85.6095C76.2047 85.6258 77.943 87.7523 77.9203 90.2274Z" fill="black"/>
</g>
<defs>
<clipPath id="clip0_8_2815">
<rect width="152" height="129" fill="white"/>
</clipPath>
</defs>
</svg>
