<svg width="103" height="121" viewBox="0 0 103 121" fill="none" xmlns="http://www.w3.org/2000/svg">
<g clip-path="url(#clip0_8_2824)">
<path d="M54.6032 55.3966C58.6461 55.3966 62.4059 55.3426 66.1616 55.4258C67.4844 55.4185 68.7975 55.6406 70.0445 56.0822C73.0017 57.2493 73.2997 60.0206 70.8063 62.06C69.4913 63.109 67.8303 63.6204 66.1558 63.4913C62.9455 63.3694 59.7339 63.2658 56.5212 63.1803C55.9933 63.1653 55.4635 63.2409 55.0314 63.2682V91.0565C56.5433 91.1736 57.7113 91.3167 58.8825 91.3473C70.4021 91.6686 81.9251 91.9126 93.441 92.3322C95.7498 92.4577 98.0294 92.9047 100.215 93.6599C101.93 94.2246 102.695 95.9485 102.583 97.7069C102.569 98.5546 102.288 99.3762 101.781 100.055C101.274 100.733 100.567 101.233 99.7603 101.483C98.7213 101.855 97.6304 102.061 96.5278 102.095C92.3184 102.073 88.1097 101.981 83.9009 101.818C75.7089 101.505 67.5194 101.125 59.3275 100.787C58.2405 100.742 57.1496 100.781 55.8598 100.781C55.8598 102.512 55.7504 104.033 55.8832 105.539C56.1378 108.415 56.6502 111.273 56.8134 114.153C56.9035 115.582 56.6733 117.014 56.1397 118.343C55.9423 118.871 55.6081 119.335 55.1717 119.69C54.7353 120.044 54.2126 120.275 53.6577 120.357C53.1027 120.441 52.5357 120.374 52.0154 120.163C51.495 119.951 51.0402 119.605 50.6982 119.158C49.595 117.779 48.8168 116.166 48.4219 114.441C47.7398 111.304 47.4625 108.077 47.0511 104.884C46.8678 103.465 46.7686 102.036 46.6112 100.407C45.4776 100.313 44.5221 100.177 43.5666 100.161C31.1568 99.9623 18.7475 99.7893 6.33828 99.5759C5.2377 99.5902 4.14069 99.4465 3.08047 99.1498C2.3184 98.9625 1.64192 98.5214 1.16111 97.8982C0.680301 97.2756 0.423436 96.508 0.432257 95.7202C0.460503 94.8771 0.775806 94.0691 1.32551 93.4309C1.87522 92.7934 2.62615 92.3634 3.453 92.2144C5.52591 91.8423 7.62385 91.6283 9.72888 91.5737C20.6948 91.3291 31.6626 91.1593 42.6305 90.9693C43.7233 90.9504 44.8175 90.9693 46.3424 90.9693C46.1034 81.5892 45.8695 72.429 45.6253 62.866C43.3755 62.866 41.3032 62.8719 39.2309 62.866C36.7939 62.8569 34.3478 62.9552 31.9211 62.7847C29.6933 62.6286 28.4301 61.3731 28.2662 59.5887C28.0842 57.6065 29.179 56.1643 31.5215 55.6588C32.83 55.4385 34.1563 55.3419 35.4828 55.3705C38.7755 55.2977 42.0689 55.2743 45.6531 55.2274C45.6531 53.6538 45.6765 52.4567 45.6531 51.2591C45.3344 36.7872 45.9213 22.3421 46.9559 7.91186C47.061 6.24642 47.2849 4.5907 47.6257 2.9574C48.0041 1.22632 49.159 0.376059 50.66 0.446967C52.2633 0.522429 53.0511 1.52037 53.2603 2.98408C53.4544 4.30076 53.559 5.62916 53.5732 6.96013C53.6295 16.7514 53.5861 26.5414 53.7086 36.3339C53.7805 42.1172 54.0933 47.8977 54.311 53.6784C54.3778 54.256 54.4754 54.8295 54.6032 55.3966Z" fill="black"/>
</g>
<defs>
<clipPath id="clip0_8_2824">
<rect width="103" height="121" fill="white"/>
</clipPath>
</defs>
</svg>
