<svg width="93" height="73" viewBox="0 0 93 73" fill="none" xmlns="http://www.w3.org/2000/svg">
<g clip-path="url(#clip0_8_2819)">
<path d="M13.1308 72.3908C10.3017 72.3908 8.07436 72.456 5.85338 72.3634C4.63643 72.3223 3.43079 72.1144 2.26995 71.7462C0.567983 71.1837 -0.183127 69.942 0.086768 68.4801C0.170279 67.8068 0.501791 67.1889 1.0164 66.7476C1.53102 66.307 2.19149 66.0743 2.86822 66.0965C5.75404 65.9055 8.63847 65.7008 11.5212 65.4818C18.2848 64.9755 25.0392 64.422 31.8029 63.9573C40.7875 63.3394 49.7722 62.689 58.7659 62.2373C66.3182 61.8586 73.8824 61.6624 81.4434 61.5659C83.6591 61.6393 85.8605 61.9451 88.0119 62.4784C89.3516 62.7488 90.5242 63.4496 90.6315 65.0954C90.7329 66.6531 89.8888 67.593 88.5985 68.2343C86.0868 69.4525 83.3313 70.0789 80.5407 70.0665C75.533 70.1206 70.5253 70.0867 65.5247 70.2464C53.6313 70.6257 41.7394 71.0579 29.8493 71.5422C24.0748 71.7716 18.303 72.1242 13.1308 72.3908Z" fill="black"/>
<path d="M45.4862 25.9364C33.4066 26.452 20.293 27.0126 7.18063 27.5692C6.40022 27.6024 5.61972 27.648 4.84646 27.6063C3.50999 27.5333 2.48518 26.9766 2.15155 25.5616C1.95073 24.9142 1.98951 24.2159 2.26078 23.5948C2.53206 22.9737 3.01764 22.4715 3.62848 22.1802C4.61353 21.6707 5.68555 21.3521 6.78847 21.241C13.9794 20.5468 21.1691 19.5405 28.3762 19.373C47.2812 18.9324 66.1946 18.8514 85.1054 18.6865C86.7658 18.7168 88.4177 18.9326 90.0299 19.3299C90.6959 19.4719 91.2935 19.8358 91.7267 20.3621C92.1598 20.8885 92.4017 21.5464 92.4134 22.2284C92.5019 22.9053 92.3536 23.592 91.9933 24.1714C91.633 24.7507 91.0828 25.1868 90.4377 25.4052C88.9822 25.911 87.4558 26.1824 85.9151 26.2094C80.9074 26.2133 75.9043 25.9807 70.8979 25.9488C62.7751 25.8992 54.6528 25.9364 45.4862 25.9364Z" fill="black"/>
<path d="M46.2096 48.2532C41.996 48.2532 37.7818 48.2949 33.5688 48.2323C31.9088 48.2076 30.2534 48.0525 28.6177 47.7683C27.0815 47.5004 25.9806 46.595 25.8648 44.8847C25.764 43.3947 26.865 42.0383 28.6015 41.5606C29.2492 41.4112 29.9118 41.337 30.5765 41.3391C40.3317 40.993 50.0811 40.6286 59.835 40.3574C61.1615 40.3581 62.4779 40.5893 63.7256 41.0406C64.4771 41.2754 65.1403 41.7326 65.6275 42.3521C66.1152 42.9715 66.404 43.7242 66.4573 44.5113C66.6153 46.0058 65.524 47.6242 63.7256 48.2994C62.5915 48.7258 61.3891 48.9409 60.1778 48.9342C55.5207 48.8723 50.8655 48.6788 46.209 48.5341C46.209 48.4403 46.2096 48.3464 46.2096 48.2532Z" fill="black"/>
<path d="M48.4727 7.65769C43.582 7.51364 38.6901 7.39704 33.8008 7.2015C32.5812 7.13254 31.3718 6.94007 30.1908 6.62721C29.5237 6.48917 28.9303 6.11091 28.5229 5.56392C28.1153 5.01693 27.922 4.33919 27.9795 3.65901C27.991 2.97846 28.2298 2.32143 28.6578 1.79292C29.0857 1.26441 29.6782 0.89492 30.3404 0.74355C31.2076 0.552524 32.0954 0.472591 32.9827 0.505656C42.5474 0.344013 52.1119 0.175243 61.6779 0.0761719C63.1195 0.100348 64.555 0.271523 65.9618 0.58713C66.6876 0.701347 67.3509 1.06556 67.8374 1.61708C68.3245 2.16861 68.6042 2.87293 68.6282 3.6088C68.7576 4.33598 68.6315 5.08561 68.2725 5.73045C67.9128 6.37528 67.3418 6.87561 66.6564 7.14669C65.2171 7.70879 63.6924 8.02034 62.1483 8.06772C57.5958 8.18309 53.0328 8.10937 48.4745 8.10937C48.4732 7.96038 48.4727 7.80981 48.4727 7.65769Z" fill="black"/>
</g>
<defs>
<clipPath id="clip0_8_2819">
<rect width="93" height="73" fill="white"/>
</clipPath>
</defs>
</svg>
