<svg width="165" height="164" viewBox="0 0 165 164" fill="none" xmlns="http://www.w3.org/2000/svg">
<path d="M139.789 41.7645C139.056 40.8742 136.562 41.2282 135.346 41.5403C134.345 41.9045 133.442 42.4949 132.707 43.2654C132.525 43.4272 132.344 43.5882 132.163 43.7414C105.964 65.94 80.5501 87.8469 57.6401 111.783C57.1804 112.263 56.6959 112.715 56.0248 113.344C55.6758 113.67 55.2786 114.04 54.8112 114.483C51.9404 111.331 45.3767 103.892 40.0856 97.8971C37.3071 94.7497 34.8833 92.0031 33.5376 90.4936C32.7931 89.6256 32.0955 88.7184 31.4478 87.776C31.0087 87.161 30.554 86.524 30.078 85.9203C29.2062 84.813 27.5818 82.7559 25.2856 84.3392C23.3399 85.687 24.0797 87.6022 24.9352 89.128C25.0352 89.3039 25.1331 89.4827 25.2303 89.6614C25.5773 90.3414 25.9808 90.9911 26.4363 91.6037C30.5058 96.7479 43.3601 112.539 47.6098 117.216C51.0275 120.975 53.2307 122.476 55.4659 122.559C55.5269 122.559 55.5886 122.559 55.6496 122.559C58.2033 122.559 60.8095 120.583 64.1619 117.409C81.8057 100.695 97.7406 85.7721 112.878 71.7928C117.709 67.3303 122.763 62.9458 127.651 58.7046C130.672 56.0842 133.794 53.3744 136.834 50.6732C138.314 49.3595 139.691 48.0486 140.289 46.4816C140.795 45.1565 140.688 42.8562 139.789 41.7645Z" fill="black"/>
<path d="M126.275 163.761H119.211C117.523 163.356 115.807 163.073 114.078 162.914C98.7848 162.537 83.4897 162.115 68.1931 161.969C56.6732 161.859 45.1299 161.732 33.6334 162.323C12.2392 163.427 -0.505064 146.452 1.04133 131.619C1.47758 127.438 1.09099 123.167 1.03354 118.938C0.686662 93.4058 0.263848 67.8747 0.0191206 42.3408C-0.0347903 36.7078 -0.0390527 30.9705 0.917158 25.4518C3.17929 12.3996 14.9518 3.13052 29.4815 2.72832C52.4185 2.0899 75.3633 1.74084 98.3024 1.17903C108.18 0.937141 118.062 0.647782 127.924 0.0682395C143.612 -0.853922 159.313 7.55619 161.579 26.1519C163.167 39.1778 164.077 52.3391 164.354 65.4601C164.821 87.5714 164.617 109.699 164.555 131.819C164.516 145.126 153.331 158.791 140.176 161.648C135.605 162.643 130.912 163.074 126.275 163.761ZM78.5838 154.469C84.3416 154.732 90.0966 155.087 95.8573 155.24C108.638 155.577 121.401 157.411 134.21 155.174C146.939 152.95 156.787 142.428 156.741 130.848C156.668 112.612 156.664 94.3758 156.728 76.1402C156.772 60.6237 156.902 45.1654 153.891 29.7746C151.107 15.5428 142.474 8.70244 127.934 8.61306C106.052 8.47899 84.1664 8.79538 62.2856 9.27349C51.7162 9.50474 41.139 10.2971 30.6087 11.2916C22.8923 12.0208 15.8271 14.5603 11.9122 22.0887C9.04615 27.7624 7.60531 34.0487 7.71422 40.4042C7.72912 69.5814 8.0441 98.7601 7.83484 127.939C7.71567 144.498 17.2394 154.581 33.7532 154.483C48.6972 154.393 63.6405 154.463 78.5838 154.469V154.469Z" fill="black"/>
</svg>
