<svg width="99" height="91" viewBox="0 0 99 91" fill="none" xmlns="http://www.w3.org/2000/svg">
<path d="M89.0377 45.4917C83.5901 41.1816 78.7429 37.3171 73.8656 33.4854C65.8786 27.2108 57.7723 21.0806 49.9277 14.6347C46.6572 11.9437 43.9052 8.62129 40.9681 5.53781C39.7073 4.21398 38.6053 2.50952 40.1011 0.913964C41.761 -0.858149 43.5724 0.25769 44.9579 1.636C59.8627 16.466 78.3143 26.6424 94.6893 39.5499C99.5147 43.3527 100.143 46.5551 96.0577 51.2597C94.793 52.7677 93.4202 54.1815 91.9498 55.4898C81.2614 64.6667 70.6424 73.9329 59.7433 82.8538C56.2437 85.7181 51.9984 87.6903 48.0085 89.9186C47.3286 90.2986 45.5374 90.145 45.4311 89.8352C45.0373 88.6972 44.6055 87.034 45.1536 86.2097C47.3077 82.9674 49.4552 79.5596 52.2906 76.9605C59.1336 70.6886 66.3756 64.8531 73.4293 58.8089C77.5773 55.2541 81.6657 51.6292 85.7967 48.0541C86.7005 47.2731 87.6731 46.5675 89.0377 45.4917Z" fill="black"/>
<path d="M49.6573 45.4927C44.2097 41.1825 39.3625 37.318 34.4852 33.4863C26.4983 27.2118 18.3919 21.0816 10.5473 14.6357C7.27681 11.9447 4.52487 8.62226 1.58776 5.53879C0.326931 4.21496 -0.77509 2.5105 0.720704 0.91494C2.38058 -0.857172 4.19201 0.258667 5.57754 1.63698C20.4823 16.4669 38.9339 26.6434 55.3089 39.5509C60.1343 43.3537 60.7631 46.556 56.6774 51.2607C55.4127 52.7687 54.0398 54.1825 52.5695 55.4908C41.881 64.6677 31.2621 73.9338 20.3629 82.8548C16.8633 85.719 12.618 87.6913 8.62817 89.9195C7.9482 90.2996 6.15705 90.146 6.05073 89.8362C5.65692 88.6981 5.22515 87.035 5.77319 86.2107C7.92729 82.9683 10.0748 79.5606 12.9102 76.9615C19.7532 70.6896 26.9953 64.854 34.0489 58.8098C38.197 55.2551 42.2853 51.6302 46.4163 48.0551C47.3201 47.274 48.2928 46.5685 49.6573 45.4927Z" fill="black"/>
</svg>
