<svg width="99" height="93" viewBox="0 0 99 93" fill="none" xmlns="http://www.w3.org/2000/svg">
<path d="M9.92902 48.1114C16.3716 53.6325 22.4212 59.3217 28.9931 64.3269C37.8425 71.0668 47.0772 77.3027 56.1832 83.7033C58.6898 85.4655 59.6119 87.9503 58.3163 90.1011C56.9846 92.311 54.1039 92.8401 51.7292 91.0627C40.112 82.3662 28.4509 73.7164 16.9899 64.8132C11.9972 60.9356 7.45856 56.4777 2.68896 52.308C-0.920902 49.1576 -0.899816 46.0931 2.77436 43.0536C15.3126 32.6835 27.8421 22.3036 40.3628 11.9142C44.4715 8.4875 48.37 4.81201 52.4761 1.3787C53.4364 0.544774 54.65 0.0592564 55.9206 0.000488281C57.7898 0.0661221 58.5144 2.26748 57.2273 4.03434C55.9398 5.80006 54.4809 7.4341 52.8719 8.91281C39.5167 21.1728 26.1338 33.4026 12.7231 45.6022C11.9257 46.3314 11.1163 47.0435 9.92902 48.1114Z" fill="black"/>
<path d="M49.3093 48.1109C55.7519 53.632 61.8014 59.3212 68.3734 64.3264C77.2228 71.0663 86.4574 77.3022 95.5635 83.7028C98.07 85.465 98.9922 87.9498 97.6966 90.1006C96.3649 92.3105 93.4841 92.8396 91.1095 91.0622C79.4923 82.3658 67.8312 73.7159 56.3702 64.8127C51.3774 60.9351 46.8388 56.4772 42.0692 52.3075C38.4593 49.1571 38.4804 46.0926 42.1546 43.0531C54.6929 32.683 67.2224 22.3031 79.7431 11.9137C83.8518 8.48701 87.7503 4.81152 91.8563 1.37821C92.8167 0.544285 94.0303 0.0587681 95.3008 0C97.1701 0.0656338 97.8947 2.26699 96.6076 4.03385C95.3201 5.79958 93.8612 7.43362 92.2521 8.91232C78.897 21.1723 65.5141 33.4021 52.1034 45.6017C51.3059 46.3309 50.4966 47.043 49.3093 48.1109Z" fill="black"/>
</svg>
