<svg width="142" height="157" viewBox="0 0 142 157" fill="none" xmlns="http://www.w3.org/2000/svg">
<g clip-path="url(#clip0_6_2070)">
<path d="M84.7286 23.1234C84.4851 19.0035 81.735 16.4215 77.5522 16.3847H77.4721C74.6301 16.3847 72.4143 17.7361 70.4434 19.1972C69.8684 19.6225 69.3053 20.0629 68.6443 20.5794L68.4035 20.7671L68.3628 20.4389C68.2637 19.6402 68.1856 19.0095 68.0681 18.363C67.4728 15.1036 65.5846 13.3853 62.2957 13.109C61.1414 12.9842 59.9739 13.1256 58.8828 13.5223C57.7917 13.9191 56.8059 14.5606 56.0014 15.3976C54.734 16.7117 53.5788 18.1295 52.5477 19.6362C45.797 29.5973 39.6524 39.9561 34.1473 50.6561C33.8307 51.2238 33.48 51.7717 33.0971 52.297L32.9377 52.526L32.7677 52.1979C32.4172 51.5264 32.1218 50.9606 31.8205 50.3988C29.5376 45.9281 25.7391 42.4152 21.1039 40.4881C19.766 39.8888 18.2915 39.6601 16.8349 39.826C15.3783 39.992 13.9931 40.5464 12.8242 41.4312C11.6583 42.389 10.7713 43.6426 10.2563 45.0609C9.74116 46.479 9.61672 48.0096 9.89619 49.4924C10.0997 50.6306 10.4014 51.7491 10.798 52.8351C12.5249 57.8696 13.2477 63.1938 12.9253 68.5066C12.525 75.595 12.3936 82.6113 12.2741 90.3902C12.2575 92.1459 12.5534 93.8904 13.1478 95.5424C15.6661 102.826 20.4176 109.129 26.7261 113.556C28.5842 114.849 29.1827 116.039 29.0974 118.269L29.0764 118.816C28.9491 122.057 28.8139 125.409 29.7328 128.452C33.802 141.967 42.5176 150.842 55.6456 154.831C58.7546 155.796 61.9891 156.298 65.2446 156.32C69.7995 156.317 74.2888 155.238 78.347 153.17C83.242 150.742 87.6972 147.516 91.5308 143.623C97.1832 137.982 102.513 132.026 107.494 125.785C113.346 118.34 117.954 111.897 121.426 104.65C123.149 101.207 124.525 97.6014 125.536 93.8865C127.079 87.8482 124.486 83.0287 118.422 80.6573C118.246 80.576 118.079 80.4775 117.922 80.364L117.82 80.2983C117.885 80.1395 117.951 79.9807 118.017 79.8205C118.324 79.1143 118.594 78.393 118.827 77.6592C118.974 77.1676 119.132 76.6747 119.292 76.1811C119.848 74.6328 120.246 73.0327 120.481 71.4049C120.64 70.2951 120.567 69.1642 120.267 68.0845C119.966 67.0042 119.444 65.9987 118.734 65.1309C117.946 64.2544 116.987 63.5485 115.916 63.0565C114.845 62.5646 113.684 62.2971 112.505 62.2706L110.745 62.1676C110.792 61.6806 110.842 61.2022 110.892 60.7237C111.044 59.2798 111.187 57.9191 111.22 56.5342C111.309 52.4242 108.838 49.5541 104.772 49.0434C104.01 48.9776 103.243 49.0018 102.487 49.1156C102.082 49.1616 101.549 49.2142 101.034 49.2247H100.89C99.7291 49.2279 99.4463 49.1256 99.3865 49.077C97.6269 46.5606 94.9996 45.5485 92.6263 44.7018C92.7063 44.4537 92.7858 44.2121 92.8645 43.9746C93.1586 43.1472 93.3994 42.3022 93.5865 41.4444L93.7558 40.5911C94.1378 38.9849 94.3511 37.3433 94.3925 35.6929C94.3472 31.4267 91.3648 28.4522 86.9713 28.2946C86.3077 28.2704 85.6455 28.2763 84.9832 28.2835H84.7522C84.7555 27.8135 84.762 27.3575 84.7679 26.9052C84.7837 25.5926 84.7988 24.3546 84.7286 23.1234ZM39.0277 52.3659C41.5277 47.8555 44.1137 43.1915 46.7876 38.6864C49.7845 33.6366 53.0392 28.6228 56.187 23.7731L57.7577 21.3526C58.4347 20.2733 59.3035 19.3273 60.3214 18.5612C61.1746 17.9443 61.9983 17.7644 62.5779 18.0702C63.1351 18.3636 63.441 19.1053 63.4174 20.1049C63.3904 21.8323 63.0783 23.5434 62.4939 25.1692C61.3923 28.0874 60.1268 30.9411 58.7034 33.7166C56.5986 37.8719 54.4242 42.0416 52.3219 46.0742L52.234 46.2429C50.9318 48.7409 49.6335 51.2407 48.3392 53.7422L48.2186 53.9745C47.7221 54.743 47.4406 55.6305 47.4034 56.5447C47.4713 57.0541 47.652 57.5418 47.9323 57.9725C48.2127 58.4032 48.5857 58.7659 49.0239 59.0342C49.7636 59.4418 51.2875 58.8892 51.7614 58.2092C52.9993 56.4375 54.1068 54.5783 55.0753 52.6461C59.1079 44.5679 64.3861 36.1878 71.6858 26.2732C72.8744 24.7576 74.3742 23.5141 76.0833 22.6258C77.1085 22.0712 77.963 21.9439 78.4284 22.278C78.8681 22.5943 79.0132 23.3853 78.8274 24.444C78.3509 27.6035 77.4708 30.6888 76.208 33.6241C71.5755 43.5699 65.9652 53.0302 59.4603 61.8657L59.2057 62.211C59.0186 62.4637 58.8309 62.7176 58.6576 62.9782L58.5375 63.1581C57.8916 64.1203 56.9163 65.5746 58.2703 67.0364C58.8411 67.7091 59.6377 68.1508 60.5108 68.2788C61.3839 68.4061 62.2737 68.2112 63.0131 67.7295C64.1482 67.037 65.0989 66.0807 65.784 64.9413C70.3981 57.0337 75.2963 48.603 79.9996 40.1159C81.5092 37.3974 83.093 35.6647 85.144 34.4983C86.5098 33.7212 87.2811 33.6523 87.8055 34.2634C88.3443 34.9863 88.5793 35.8907 88.4618 36.7844C88.0444 38.834 87.4268 40.8377 86.6188 42.767C86.3326 43.4033 85.8154 43.9068 85.1709 44.1748C81.481 45.3004 79.1681 47.9599 77.392 50.41C71.1568 59.0244 64.7588 67.9585 58.3832 76.9641C57.2122 78.6194 56.1412 80.3515 55.0005 82.1951C54.6468 82.7668 54.2856 83.351 53.9115 83.9489L53.1804 82.0527C51.3528 77.4058 48.0998 73.458 43.8886 70.7755C40.1219 68.267 36.8172 68.0465 33.7895 70.1041C30.4914 72.3442 29.18 75.6108 29.8928 79.812C30.1193 81.1476 30.3792 82.4977 30.6384 83.8452C31.0086 85.7676 31.392 87.7563 31.6736 89.7214C32.223 93.5531 31.68 97.2692 31.1031 101.212C30.8045 103.26 30.4961 105.373 30.3491 107.529L30.2834 107.511C30.0191 107.46 29.7658 107.364 29.5345 107.226C24.3495 102.868 21.0829 98.3831 19.5379 93.515C18.579 90.4906 18.5396 87.1485 18.5862 83.4074C18.6322 79.7122 18.9301 75.9547 19.2176 72.3205C19.314 71.0991 19.4105 69.8783 19.4985 68.6569C20.0705 62.2869 19.2352 55.8692 17.0517 49.858L16.9119 49.4879C16.2864 47.8549 15.6957 46.3118 17.1515 45.278C17.6089 44.9381 18.1633 44.754 18.7332 44.753C19.675 44.753 20.7764 45.2459 22.0058 46.2186C27.3877 50.4762 29.2089 54.9032 27.7328 60.1507C27.3587 61.4791 27.1541 63.1258 28.9098 64.0723C29.7912 64.5475 31.5114 65.0049 33.1385 62.7281C33.8046 61.7543 34.4096 60.7401 34.95 59.6913C35.1469 59.329 35.3437 58.9692 35.5406 58.6089C36.6975 56.5524 37.8463 54.4902 38.9871 52.4223L39.0277 52.3659ZM35.7514 118.498C35.8748 117.19 36.0138 115.708 36.2107 114.245C36.7706 110.118 37.3693 105.924 37.9489 101.87L38.5598 97.5777C39.3269 91.9253 38.9835 86.1778 37.5491 80.6567L37.509 80.4946C37.133 79.195 36.9091 77.8561 36.8416 76.5047C36.8016 76.1562 36.8415 75.8024 36.9582 75.4716C37.0751 75.1408 37.2656 74.8402 37.5155 74.5941C37.8326 74.3985 38.1895 74.2758 38.56 74.2357C38.9305 74.1964 39.305 74.2397 39.6565 74.3631C40.2692 74.5055 40.8638 74.7175 41.4288 74.9945C46.537 77.5102 49.8154 85.2917 48.0485 90.7046C47.3777 92.7589 46.9058 94.8441 49.0882 95.8043C50.7605 96.5407 52.553 95.7387 54.0041 93.5964C55.7716 90.9874 57.5221 88.3457 59.2155 85.7965C61.9721 81.6471 64.8166 77.356 67.7248 73.2092C72.6165 66.235 77.7484 59.3441 83.0142 52.3108C83.9003 51.1301 85.0377 50.1611 86.3438 49.4741C86.6326 49.2826 86.968 49.1717 87.3139 49.1528C87.6598 49.1338 88.005 49.2075 88.3128 49.3664C88.5813 49.5949 88.7854 49.8899 88.9042 50.222C89.0236 50.554 89.0532 50.9114 88.9908 51.2586C88.9107 52.9802 88.5281 54.6742 87.8606 56.2632C86.4482 59.4143 84.848 62.4781 83.0693 65.4382C80.2234 70.1481 77.2568 74.894 74.3853 79.4877C72.9624 81.7633 71.5421 84.0408 70.125 86.3202C70.041 86.4554 69.9478 86.5939 69.854 86.7337C69.3834 87.2949 69.092 87.9847 69.0178 88.7132C69.002 89.8152 69.3926 90.8844 70.1145 91.7173C70.3154 91.9253 70.5602 92.0868 70.8313 92.1892C71.1023 92.2909 71.3931 92.3316 71.6812 92.308C72.0698 92.2502 72.4406 92.1098 72.7707 91.8971C73.1002 91.6845 73.3811 91.4042 73.5944 91.0747C73.853 90.7144 74.1136 90.3554 74.3755 89.997C75.3646 88.6417 76.3858 87.2404 77.2581 85.7669C82.1806 77.4505 88.2688 69.2272 97.0027 59.1071C98.5228 57.4461 100.396 56.1467 102.484 55.3049C103.539 54.8599 104.377 54.8081 104.787 55.1619C105.196 55.5157 105.269 56.3571 104.984 57.4663C104.237 60.689 103.107 63.8105 101.616 66.764C96.5958 75.9875 90.2615 85.0758 81.6877 95.3633C81.5086 95.5785 81.3228 95.7872 81.1115 96.0248C80.8562 96.3117 80.6002 96.5991 80.3606 96.8984L80.2766 97.0028C79.4477 98.0339 78.3122 99.4457 79.6656 101.203C80.2792 101.913 81.1148 102.394 82.0369 102.568C82.9584 102.742 83.9121 102.598 84.7417 102.161C85.9638 101.432 87.0277 100.467 87.8718 99.3223C92.3316 93.1061 96.7586 86.8039 101.031 80.5904C102.218 78.8655 103.285 77.0291 104.327 75.2347C104.633 74.7063 104.941 74.1793 105.25 73.6522C106.567 71.4187 108.567 69.6676 110.954 68.6582C112.057 68.1659 112.97 67.9802 113.842 68.6759C114.65 69.3211 114.801 70.2235 114.289 71.3564C113.825 72.3829 113.381 73.4258 112.935 74.474C111.772 77.4551 110.34 80.3246 108.657 83.0464C105.784 87.3684 102.593 91.5821 99.508 95.6573L99.4509 95.7328C97.9603 97.7018 96.4199 99.7364 94.9339 101.76C93.4729 103.749 92.1353 105.735 90.9572 107.667C90.4085 108.565 89.951 109.826 90.312 110.669C90.8318 111.883 91.7376 112.891 92.8895 113.537C93.8241 114.01 95.4721 112.572 95.9395 111.945C97.8225 109.415 99.672 106.818 101.461 104.306C102.633 102.658 103.812 101.014 104.995 99.3741L106.045 97.919C107.631 95.7137 109.27 93.433 111.063 91.3648C112.274 90.0266 113.725 88.9272 115.341 88.1245C115.637 87.9243 115.976 87.795 116.331 87.7478C116.685 87.6998 117.045 87.7346 117.384 87.8495C117.884 88.1061 118.227 88.7546 118.376 89.7246C118.599 91.1712 118.477 92.6499 118.023 94.0414C116.942 97.2043 115.666 100.298 114.2 103.302C110.811 110.227 106.594 116.715 101.642 122.624L101.434 122.872C100.729 123.653 100.099 124.499 99.5532 125.399C96.1554 131.419 91.1364 136.249 86.2814 140.921L86.1279 141.069C82.6532 144.34 78.5537 146.876 74.0749 148.523C69.2508 150.365 63.9759 150.307 57.9507 148.347C47.4624 144.934 40.3976 137.837 36.3519 126.647L36.2968 126.495C36.0792 125.968 35.9271 125.417 35.844 124.854C35.7521 123.86 35.7127 122.855 35.672 121.692L35.6661 121.54C35.6484 121.069 35.63 120.57 35.6044 120.084C35.6536 119.604 35.7029 119.082 35.7547 118.531L35.4187 118.499L35.7514 118.498Z" fill="black"/>
<path d="M37.8663 0.248291C37.7901 0.248291 37.7166 0.248291 37.5604 0.248291L36.904 0.279778C36.5863 0.308001 36.1669 0.34538 35.7514 0.411014C28.8943 1.46365 22.3296 3.92522 16.4709 7.64055C8.84472 12.3751 3.22636 19.7493 0.685921 28.3586C0.332034 29.5815 0.119065 30.8409 0.0512167 32.1122C-0.00916637 33.0041 -0.14887 35.0926 1.95469 35.3761C2.06348 35.3907 2.1731 35.3981 2.28286 35.3984C3.6697 35.3984 4.08977 34.1094 4.34049 33.3389C4.3779 33.2234 4.41521 33.1092 4.45394 32.9995C4.67315 32.3813 4.87338 31.7525 5.07422 31.1283C5.40961 30.0782 5.75679 28.9873 6.19653 27.9667C11.0475 16.723 20.111 9.7665 33.9013 6.7014C34.576 6.55113 35.2749 6.43884 35.9516 6.33448C36.8048 6.20321 37.6825 6.06146 38.5981 5.8278C39.9075 5.49438 41.7005 5.04019 41.8101 2.90185C41.8247 2.63096 41.784 2.35998 41.6904 2.10538C41.5967 1.85078 41.4522 1.61795 41.2654 1.42116C40.6111 0.712311 39.4054 0.29686 37.8663 0.248291Z" fill="black"/>
<path d="M125.465 135.009C121.29 138.688 116.662 141.82 111.694 144.329C110.97 144.738 110.283 145.209 109.64 145.737C109.337 145.972 109.024 146.212 108.693 146.451L108.122 146.86L108.624 147.351C109.073 147.849 109.618 148.251 110.227 148.533C110.835 148.815 111.494 148.971 112.164 148.992C113.328 148.927 114.463 148.601 115.484 148.038C120.32 145.749 125.018 142.517 130.269 137.865C135.616 133.13 139.12 126.913 140.684 119.386C141.22 116.805 140.912 114.004 140.64 111.527C140.377 109.152 139.191 107.847 137.109 107.65L136.804 107.622L136.607 107.855C135.28 109.409 135.328 111.104 135.37 112.605C135.378 112.912 135.387 113.216 135.383 113.517C135.271 122.041 132.03 129.071 125.465 135.009Z" fill="black"/>
<path d="M126.946 110.868C126.718 110.671 126.449 110.527 126.158 110.445C125.868 110.364 125.563 110.347 125.265 110.397C122.828 110.741 122.799 112.752 122.781 114.083C122.781 114.27 122.776 114.456 122.769 114.637C122.724 117.427 122.026 120.168 120.73 122.639C119.434 125.111 117.578 127.244 115.309 128.869C113.825 129.918 112.278 130.874 110.676 131.732C110.029 132.095 109.383 132.459 108.745 132.835C108.484 132.981 108.215 133.112 107.939 133.229C107.322 133.454 106.76 133.808 106.29 134.268C105.748 134.874 105.096 136.211 105.42 137.156C105.737 138.074 107.089 138.697 107.943 138.788C108.048 138.8 108.153 138.806 108.259 138.806C109.104 138.746 109.931 138.531 110.698 138.172L110.803 138.13C114.662 136.642 118.181 134.388 121.147 131.505C123.335 129.442 125.09 126.962 126.309 124.213C127.528 121.462 128.187 118.498 128.248 115.49V115.276C128.248 115.116 128.248 114.955 128.248 114.794C128.2 112.907 127.75 111.549 126.946 110.868Z" fill="black"/>
<path d="M17.9764 35.3536L18.2588 35.091C18.3795 34.9801 18.4851 34.8941 18.5836 34.816C18.8029 34.6712 18.978 34.4686 19.0896 34.2306C22.1442 26.4235 27.819 21.2489 35.9661 18.8513C37.1864 18.4125 38.325 17.7731 39.3349 16.9597C39.6473 16.7029 39.8793 16.3616 40.0028 15.9766C40.1264 15.5916 40.1365 15.1791 40.032 14.7885C39.845 14.4319 39.5882 14.1167 39.2768 13.8615C38.9654 13.6063 38.6056 13.4165 38.2192 13.3032C37.4484 13.1587 36.6526 13.2333 35.9221 13.5185C29.7426 15.5026 25.1687 18.1437 21.5267 21.8304C19.1724 24.2135 17.4513 27.2353 16.1104 31.3394C15.7166 32.5412 15.4469 34.249 17.6201 35.1981L17.9764 35.3536Z" fill="black"/>
</g>
<defs>
<clipPath id="clip0_6_2070">
<rect width="141.113" height="156.865" fill="white"/>
</clipPath>
</defs>
</svg>
