<svg width="160" height="155" viewBox="0 0 160 155" fill="none" xmlns="http://www.w3.org/2000/svg">
<g clip-path="url(#clip0_8_2826)">
<path d="M157.938 93.6772C157.024 100.245 154.041 106.136 151.028 111.92C145.942 121.822 138.812 130.529 130.11 137.462C119.826 145.626 108.066 150.515 95.2131 152.771C87.2455 154.17 79.2189 155.188 71.0816 154.774C51.4637 153.776 34.5296 146.909 20.7664 132.492C14.9268 126.273 9.96323 119.285 6.01338 111.721C3.73257 107.47 2.87622 103.024 2.10796 98.4666C0.688039 90.0357 -0.185811 81.6125 0.747634 72.9954C1.90002 62.3531 4.83508 52.3786 10.1403 43.1078C16.572 31.654 25.3844 21.7158 35.982 13.9646C46.5355 6.30798 58.4798 2.38546 71.3848 0.825729C85.0651 -0.937555 98.9676 0.512547 111.992 5.06085C124.77 9.5513 136.174 16.4031 143.885 27.8945C151.597 39.3859 156.949 51.7955 158.764 65.8408C160.272 77.4943 158.73 87.9798 157.938 93.6772ZM150.484 76.3042C150.42 68.1236 149.65 60.0325 146.685 52.4251C144.242 46.1571 141.34 36.608 136.397 31.6597C129.531 22.099 119.972 16.2616 109.148 12.4034C96.806 7.91381 83.5461 6.55027 70.5498 8.43433C57.2704 10.352 45.3727 15.2312 35.3679 24.3003C32.4156 26.9822 29.6029 29.8139 26.941 32.7848C15.636 45.378 9.5405 60.4191 9.54697 85.1613C9.55086 100.587 17.1531 113.773 28.0415 125.043C39.5991 137.006 53.5321 143.003 69.8275 144.343C77.7414 144.991 85.5425 144.129 93.3249 142.926C116.595 139.33 133.206 126.736 143.916 105.822C150.371 93.2167 150.094 80.9374 150.484 76.3042Z" fill="black"/>
<path d="M86.9429 74.8117C88.5371 74.8117 89.7328 74.8117 90.9286 74.8117C101.007 74.8253 111.085 74.8221 121.163 74.8766C122.482 74.8869 123.795 75.0575 125.073 75.3844C125.734 75.5219 126.328 75.885 126.752 76.4117C127.176 76.9383 127.405 77.5965 127.399 78.273C127.465 78.9481 127.3 79.6258 126.931 80.1952C126.561 80.764 126.009 81.1907 125.366 81.4041C123.696 81.9586 121.95 82.2511 120.191 82.2705C110.336 82.1823 100.481 81.9592 90.6274 81.7874C88.5235 81.7504 86.4169 81.7951 84.3162 81.6881C83.2169 81.6505 82.1293 81.454 81.0864 81.1045C79.4384 80.5143 78.7706 79.2516 78.8943 77.448C79.1534 73.6956 79.3341 69.9367 79.4721 66.1778C79.9204 53.9944 80.3213 41.8091 80.7819 29.6257C80.8862 28.4129 81.0786 27.2091 81.3578 26.0243C81.6616 24.3977 82.6112 23.4548 84.3142 23.458C86.0762 23.4613 86.8846 24.6112 87.189 26.145C87.4371 27.337 87.5686 28.5505 87.5816 29.7683C87.5699 42.8479 87.5291 55.9277 87.4592 69.008C87.4494 70.7623 87.1554 72.5153 86.9429 74.8117Z" fill="black"/>
</g>
<defs>
<clipPath id="clip0_8_2826">
<rect width="160" height="155" fill="white"/>
</clipPath>
</defs>
</svg>
