<svg width="162" height="137" viewBox="0 0 162 137" fill="none" xmlns="http://www.w3.org/2000/svg">
<g clip-path="url(#clip0_8_2831)">
<path d="M11.2616 97.7161C17.6904 102.495 25.3362 105.018 33.9863 105.212C42.6929 105.411 51.5471 105.479 60.1079 105.545C63.7086 105.572 67.3094 105.603 70.911 105.638C71.6348 105.645 72.3573 105.644 73.1142 105.641H73.6002L74.9098 126.155L72.0145 124.661C68.4616 122.828 65.1043 121.097 61.7557 119.33C61.6436 119.271 61.5329 119.209 61.4234 119.148C60.5408 118.656 59.3329 117.985 57.9798 119.23C57.8596 119.34 57.7845 119.491 57.7686 119.653C57.5612 121.766 58.7775 123.192 59.8506 124.45C60.0761 124.714 60.3043 124.977 60.5116 125.245C63.5171 129.083 67.568 131.688 71.4858 134.207L72.5414 134.886C74.1989 135.984 76.1416 136.576 78.131 136.591C80.5558 136.581 82.8893 135.67 84.6758 134.035C86.0599 132.796 87.5024 131.566 88.8962 130.376C91.1526 128.45 93.4867 126.458 95.6607 124.36C97.214 122.792 98.6564 121.118 99.977 119.35C100.544 118.626 101.1 117.916 101.662 117.243C101.736 117.153 101.786 117.043 101.805 116.928C101.824 116.811 101.812 116.693 101.77 116.583C100.97 114.48 99.7308 114.572 98.624 114.937C95.279 116.037 92.1745 117.76 89.4736 120.014C87.6352 121.535 85.7346 123.036 83.7226 124.625C83.142 125.084 82.5471 125.554 81.9387 126.035C82.0404 123.159 82.0035 120.358 81.9613 117.634C81.824 113.633 81.9231 109.628 82.2594 105.639L82.4836 105.606C82.8297 105.546 83.1796 105.506 83.5308 105.489C87.262 105.39 91.0644 105.414 94.7412 105.438C102.077 105.483 109.66 105.533 117.126 104.616C120.001 104.264 122.971 104.163 125.843 104.072C127.324 104.023 128.854 103.973 130.359 103.888C142.534 103.206 151.835 97.1642 158.004 85.9321C162 78.655 162.687 70.9313 159.988 63.5947C156.433 53.9258 149.686 46.7592 139.926 42.2944C133.241 39.1884 125.953 37.5886 118.578 37.6087H118.346L118.341 37.5645C118.309 37.2246 118.284 36.961 118.27 36.6961C117.55 22.5198 111.135 12.2686 99.2053 6.2367C83.2962 -1.81076 67.3178 -1.67115 51.7104 6.65288C40.6406 12.5568 33.8496 22.1054 31.5265 35.0332C31.2024 37.0541 30.9906 39.0912 30.8921 41.1355C30.8422 41.898 30.7917 42.6595 30.7288 43.4155C30.493 43.4802 30.2999 43.5364 30.1042 43.5746C15.0913 46.533 5.45619 55.6705 1.46775 70.7348C-1.30698 81.1959 2.2674 91.0283 11.2616 97.7161ZM83.0655 88.2812C83.2651 81.5701 83.455 75.2319 83.5846 68.7709C83.5917 66.2022 83.444 63.6354 83.142 61.0845C82.8277 58.055 81.1066 57.4096 79.7173 57.4012H79.694C78.5185 57.4012 76.5317 57.8825 76.2382 61.0549C75.6991 66.8891 75.2934 72.7672 74.9351 78.2517C74.7407 81.2612 74.5774 84.3211 74.4219 87.2808C74.3072 89.4573 74.1931 91.6344 74.0642 93.8077C74.0169 94.3725 73.9339 94.9334 73.8166 95.4879L73.7421 95.8821C73.2568 95.8821 72.7779 95.8879 72.3042 95.8911C70.9019 95.9027 69.5787 95.9144 68.2477 95.8717L61.0151 95.6514C51.623 95.3664 41.9101 95.0698 32.3637 94.682C27.4745 94.5812 22.7193 93.0684 18.6741 90.3284C12.279 85.956 9.81535 80.0282 11.3518 72.7097C13.901 60.5748 21.4249 52.8057 33.7135 49.6134C36.5991 48.8644 37.9294 47.4474 38.3072 44.7197C38.4115 43.9739 38.5599 43.2119 38.7051 42.4752C38.8126 41.9259 38.9202 41.3765 39.0122 40.8246C41.9742 23.0133 55.9522 11.6697 74.3519 11.6697C75.6232 11.6697 76.9154 11.7243 78.2289 11.8337C83.2353 12.234 88.1186 13.5875 92.6138 15.8209C97.2016 18.1144 100.633 21.1943 102.813 24.9766L102.998 25.2959C106.099 30.6725 109.307 36.2327 109.748 42.7008C109.919 45.1972 111.977 46.8464 114.841 46.7959C122.737 46.7212 130.514 48.7181 137.392 52.5867C141.973 55.1053 145.709 58.9152 148.132 63.5397C151.389 69.5768 151.074 75.6888 147.197 81.7039C145.474 84.5169 143.131 86.9021 140.347 88.6799C137.564 90.4576 134.41 91.5808 131.128 91.9653C128.398 92.3304 125.599 92.5902 122.892 92.8409C119.297 93.1737 115.58 93.5188 111.955 94.1159C105.315 95.2094 98.51 95.2791 91.9315 95.3438C89.1729 95.3716 86.3204 95.3993 83.5126 95.5021C83.291 95.4924 83.0714 95.4607 82.8562 95.4084C82.9249 93.0141 82.9942 90.6392 83.0655 88.2837V88.2812Z" fill="black"/>
</g>
<defs>
<clipPath id="clip0_8_2831">
<rect width="162" height="137" fill="white"/>
</clipPath>
</defs>
</svg>
