<svg width="163" height="122" viewBox="0 0 163 122" fill="none" xmlns="http://www.w3.org/2000/svg">
<g clip-path="url(#clip0_8_2907)">
<path d="M76.5587 29.2763C81.1669 23.2853 87.3417 19.9988 94.2483 17.9628C104.22 15.0244 113.665 16.9514 122.457 21.9008C126.438 24.2094 130.111 27.0132 133.388 30.2455C139.683 36.3317 141.915 44.0106 140.749 52.7097C140.997 52.9282 141.209 53.2351 141.495 53.3493C155.044 58.7175 163.333 76.4232 157.05 93.1749C155.139 98.2727 152.145 102.769 148.771 106.977C144.396 112.434 138.249 114.959 131.627 116.172C125.03 117.381 118.348 118.167 111.683 118.968C94.249 121.063 76.709 120.768 59.1997 121.127C50.6522 121.302 42.1219 121.149 33.7753 118.988C31.1768 118.315 28.5901 117.553 26.0672 116.644C12.7199 111.84 5.27655 101.819 1.93776 88.5254C-1.26123 75.7924 -0.490937 63.1031 5.79022 51.5226C14.8424 34.8405 28.841 24.4999 48.0862 22.4758C56.8654 21.5523 65.2362 23.8537 73.195 27.5784C74.209 28.051 75.1929 28.5839 76.5587 29.2763ZM63.0256 111.166C67.5124 110.983 72.0037 110.874 76.4859 110.605C91.0526 109.732 105.61 108.68 120.183 107.96C125.115 107.745 129.942 106.467 134.335 104.214C144.658 98.9579 149.637 89.6661 147.963 78.1657C146.731 69.7088 142.066 63.9069 133.669 61.7285C123.007 58.9634 113.161 60.7253 104.686 68.087C102.323 70.14 100.262 72.5422 98.057 74.7817C97.4079 75.5535 96.6827 76.2565 95.8911 76.8813C93.2244 78.6475 90.1154 77.6229 89.1355 74.5598C88.7876 73.4066 88.7909 72.176 89.1453 71.0248C90.4947 66.9555 89.9375 63.0566 88.5231 59.175C86.7077 54.0851 83.9025 49.4045 80.2703 45.4034C69.8831 34.0533 56.9507 30.3538 42.0959 33.4432C36.0884 34.6902 30.9596 38.0615 26.1428 41.8282C10.3946 54.1431 7.09526 71.4567 11.1252 87.5855C13.6239 97.5888 19.5392 104.847 29.7039 107.986C32.8091 108.936 35.9706 109.691 39.1698 110.247C47.0689 111.634 55.0497 111.363 63.0256 111.166ZM98.9982 59.9717C108.155 52.345 118.491 49.5123 129.768 50.3471C130.746 45.5775 129.843 41.1703 126.826 37.7613C116.39 25.9741 101.36 22.1214 86.6512 31.1454C85.3569 32.0321 84.1086 32.983 82.9101 33.9951C90.6785 40.9098 96.2685 49.9352 98.9982 59.9711V59.9717Z" fill="black"/>
<path d="M142.479 24.5724C141.705 24.0369 140.431 23.6073 140.075 22.7816C139.897 22.2764 139.841 21.7366 139.91 21.2055C139.979 20.6744 140.172 20.1665 140.473 19.7237C143.096 16.9359 146.506 15.0133 150.248 14.2108C150.907 14.0236 151.611 14.0697 152.24 14.3416C152.869 14.6134 153.385 15.094 153.7 15.7023C154.083 16.3396 154.226 17.0924 154.106 17.8258C153.984 18.5591 153.607 19.2256 153.04 19.7063C150.097 22.2621 146.429 23.3273 142.479 24.5724Z" fill="black"/>
<path d="M154.502 40.2871C155.876 40.4049 157.243 40.5921 158.598 40.8473C160.708 41.3494 161.862 42.8382 161.722 44.6129C161.714 45.0379 161.621 45.4572 161.446 45.8448C161.271 46.2325 161.02 46.5809 160.707 46.8685C160.394 47.156 160.026 47.3767 159.625 47.5177C159.224 47.6588 158.798 47.7172 158.374 47.6889C155.616 47.6372 152.87 47.3074 150.178 46.7044C149.508 46.5498 148.922 46.1445 148.542 45.5718C148.161 44.9991 148.014 44.3023 148.131 43.6246C148.173 42.9447 148.442 42.2992 148.896 41.7908C149.349 41.2824 149.959 40.9411 150.63 40.8217C151.933 40.5362 153.277 40.4479 154.502 40.2871Z" fill="black"/>
<path d="M129.276 6.22947C129.02 7.58594 128.643 8.91654 128.149 10.206C127.792 11.1082 127.112 11.8454 126.241 12.2737C125.371 12.702 124.372 12.7908 123.44 12.523C122.555 12.2925 121.783 11.7475 121.27 10.9898C120.758 10.2322 120.539 9.31369 120.653 8.40617C120.885 6.4101 121.355 4.44938 122.053 2.56513C122.278 1.7949 122.782 1.13575 123.465 0.715339C124.149 0.294925 124.964 0.14333 125.753 0.289742C127.561 0.495176 128.5 1.70482 128.946 3.32466C129.122 4.28436 129.232 5.25478 129.276 6.22947Z" fill="black"/>
<path d="M99.513 8.61877C99.3949 9.3622 99.1986 10.0914 98.9269 10.7935C97.6798 13.4557 94.6298 13.8032 93.0546 11.3268C92.2316 9.99183 91.7085 8.49354 91.5227 6.93625C91.3363 5.37896 91.4919 3.79984 91.9776 2.30857C92.6136 0.121649 95.4194 -0.125806 97.1902 1.73491C98.8941 3.5254 99.3883 5.81161 99.513 8.61877Z" fill="black"/>
<path d="M69.5717 11.0037C72.0874 10.9505 76.519 13.6789 77.3224 16.066C77.6276 16.973 77.5455 18.4604 76.9798 19.0971C76.2952 19.8676 74.8001 20.5414 73.849 20.3386C72.3769 20.0139 70.9933 19.3723 69.7935 18.4593C68.5944 17.5463 67.6079 16.3832 66.903 15.0507C65.7485 13.0075 67.1432 11.0549 69.5717 11.0037Z" fill="black"/>
</g>
<defs>
<clipPath id="clip0_8_2907">
<rect width="162.115" height="121.423" fill="white"/>
</clipPath>
</defs>
</svg>
