<svg width="162" height="107" viewBox="0 0 162 107" fill="none" xmlns="http://www.w3.org/2000/svg">
<g clip-path="url(#clip0_8_2829)">
<path d="M134.679 40.6913C130.887 39.5812 127.025 38.7292 123.119 38.1414C121.526 37.8654 119.884 37.5796 118.259 37.2606C116.709 19.1332 107.665 7.83583 90.6274 2.72589C87.1807 1.73572 83.6517 1.06625 80.0838 0.726525C59.8991 -1.44023 41.8471 8.6102 34.1132 26.3239C32.4614 30.1081 31.7091 34.2217 30.9821 38.2029C30.6801 39.8581 30.3924 41.4283 30.0483 42.9439C28.5035 43.6942 26.9048 44.4016 25.3555 45.0879C21.6956 46.7086 17.91 48.3848 14.6324 50.7088C6.14359 56.7308 1.26157 65.754 0.52285 76.8018C-0.365558 90.0952 9.19566 101.29 24.3154 104.661C30.8784 106.122 37.8236 106.207 44.5402 106.288L45.9133 106.305C56.2625 106.439 66.7402 106.576 77.3052 106.576C94.9308 106.576 112.801 106.197 130.682 104.799C135.605 104.371 140.379 102.88 144.678 100.429C148.979 97.9773 152.704 94.6231 155.603 90.5937C160.726 83.441 162.555 74.8418 160.619 67.0021C157.416 54.0048 148.687 45.1533 134.679 40.6913ZM149.363 77.4314C146.972 84.9853 141.749 89.9236 133.84 92.1113C130.881 92.8961 127.854 93.392 124.802 93.591C104.683 95.0661 40.5161 96.495 27.4569 94.5899C21.0508 93.6556 16.0068 90.7222 13.2541 86.3313C10.5234 81.9776 10.0925 76.3888 12.0067 70.171C15.2344 59.6901 22.385 52.9467 33.2611 50.1229C36.6171 49.2513 37.6331 47.4798 38.3336 44.5158C38.5669 43.5286 38.7872 42.5297 39.0049 41.5275C39.8208 37.8014 40.6645 33.949 42.3247 30.632C48.3452 18.6114 60.015 11.6036 73.4936 11.6036C75.1337 11.6048 76.7719 11.7063 78.4003 11.9075C99.0715 14.452 104.061 24.6347 109.31 39.8783C109.447 40.3624 109.524 40.8618 109.54 41.3651L109.566 41.6913C109.913 45.7801 111.15 46.9487 115.322 47.1268C127.695 47.6566 136.603 51.0533 143.355 57.8172C149.597 64.0695 151.562 70.4855 149.363 77.4314Z" fill="black"/>
</g>
<defs>
<clipPath id="clip0_8_2829">
<rect width="162" height="107" fill="white"/>
</clipPath>
</defs>
</svg>
