<svg width="162" height="129" viewBox="0 0 162 129" fill="none" xmlns="http://www.w3.org/2000/svg">
<g clip-path="url(#clip0_8_2833)">
<path d="M126.381 38.3676C124.441 38.0504 122.457 37.8869 120.538 37.7279C119.829 37.6699 119.12 37.6105 118.413 37.5447C118.387 37.3427 118.366 37.1708 118.36 36.9982C117.885 22.6915 111.427 12.2751 99.1575 6.03624C83.2543 -2.05232 67.2759 -1.86476 51.6712 6.59579C40.637 12.5774 33.881 22.2282 31.5903 35.2787C31.2825 37.2448 31.0852 39.2271 30.9993 41.2155C30.9501 42.0058 30.9021 42.7908 30.8386 43.5667C30.5651 43.6319 30.2897 43.691 30.0143 43.7484L29.715 43.8136C14.9918 46.9806 5.5368 56.1076 1.61251 70.9396C-1.25618 81.7789 2.24368 91.5334 11.4666 98.4049C17.8527 103.161 25.3928 105.676 33.8758 105.876C42.811 106.088 51.896 106.149 60.6829 106.208C64.3864 106.233 68.0898 106.262 71.7937 106.294C72.5195 106.301 73.2459 106.299 74.0287 106.297H74.5004C74.4953 107.1 74.4817 107.881 74.468 108.643C74.4298 110.769 74.3942 112.778 74.5529 114.777C74.8238 118.012 75.2988 121.227 75.9746 124.402C76.2494 125.345 76.7127 126.223 77.3354 126.981C77.6594 127.445 78.0256 127.971 78.3995 128.585C78.4591 128.683 78.5427 128.764 78.6418 128.82C78.7416 128.876 78.8537 128.906 78.9678 128.906H79.0079C79.1285 128.898 79.2445 128.857 79.3442 128.788C79.4434 128.72 79.5224 128.625 79.573 128.515C79.827 127.956 80.0668 127.5 80.2793 127.098C80.6681 126.482 80.9299 125.793 81.0491 125.074C81.3731 121.22 81.6375 117.104 81.9155 111.729C81.9803 110.455 81.9667 109.199 81.9499 107.744C81.9434 107.239 81.9375 106.712 81.9343 106.156L83.0359 106.151C84.0572 106.147 84.9106 106.143 85.7646 106.16C99.011 106.417 113.255 105.913 129.31 104.622C131.505 104.446 133.464 104.224 135.298 103.944C145.455 102.396 155.428 93.9713 159.55 83.4578C163.465 73.4747 161.715 63.0105 154.622 53.9948C147.945 45.4958 138.706 40.3854 126.381 38.3676ZM83.5485 63.3448L95.4069 69.2971C95.7717 69.4802 96.1404 69.6587 96.5085 69.8366C97.4228 70.2568 98.3151 70.7266 99.1802 71.2426C100.751 72.2198 101.967 71.9495 103.115 70.3689C103.196 70.2575 103.241 70.1246 103.244 69.9871C103.247 69.8496 103.208 69.7148 103.132 69.6008C102.906 69.26 102.694 68.8971 102.48 68.5316C102.006 67.6273 101.407 66.7947 100.702 66.0598C97.9075 63.3321 94.9785 60.7475 91.9258 58.3162C90.0978 56.8991 88.113 55.6503 86.1943 54.4424C85.2223 53.83 84.2464 53.2163 83.2899 52.5811C80.3182 50.6064 77.5512 50.6505 74.5821 52.7217C68.5699 56.9129 62.4033 61.7056 58.0209 68.3401C57.7393 68.7903 57.5007 69.2665 57.3081 69.7623C57.2219 69.965 57.1364 70.1682 57.0437 70.3669C56.9849 70.492 56.9663 70.6321 56.9901 70.7683C57.014 70.9044 57.0794 71.0302 57.1772 71.1279L57.9179 71.8667C58.0226 71.971 58.1587 72.0368 58.3049 72.055C58.4511 72.0733 58.5991 72.042 58.7259 71.9671C61.9822 69.9513 65.1284 67.7622 68.1513 65.4076C70.3163 63.7845 72.5448 62.1134 74.8854 60.5367V96.3656C74.7221 96.3845 74.5614 96.4041 74.411 96.423C73.8602 96.5103 73.3029 96.5539 72.7457 96.5533L65.0209 96.3272C54.3681 96.0158 43.3534 95.6939 32.5247 95.2848C27.6334 95.1968 22.8726 93.6834 18.8202 90.9281C12.3039 86.4594 9.88553 80.6557 11.4284 73.1867C13.9556 60.9439 21.4724 53.0926 33.7578 49.8487C36.6738 49.0793 38.0152 47.6621 38.3897 44.9551C38.5103 44.0853 38.6807 43.1958 38.8433 42.3397C38.9483 41.7944 39.0527 41.2487 39.1466 40.7008C42.2129 22.8493 56.0918 11.5878 74.3378 11.5878C75.8438 11.5878 77.3834 11.6646 78.9431 11.821C83.7241 12.285 88.3806 13.6226 92.6846 15.768C97.2679 18.0619 100.702 21.1655 102.893 24.9925L103.088 25.3332C106.188 30.7493 109.393 36.3498 109.833 42.865C110.004 45.3877 112.052 47.0549 114.923 47.0028C122.821 46.9293 130.599 48.9426 137.48 52.8416C142.064 55.3818 145.801 59.2247 148.223 63.8894C151.476 69.9812 151.158 76.1446 147.277 82.2082C145.549 85.043 143.205 87.4464 140.418 89.2368C137.632 91.0278 134.479 92.1588 131.195 92.5452C128.48 92.9094 125.697 93.1693 123.006 93.4202C119.393 93.7576 115.658 94.1062 112.014 94.7128C105.388 95.8158 98.5976 95.8809 92.0301 95.9448C89.2548 95.9715 86.3848 95.9988 83.5595 96.1037C83.332 96.0953 83.1065 96.0627 82.8862 96.0073L82.303 62.7238C82.7197 62.9301 83.135 63.1371 83.5485 63.3448Z" fill="black"/>
</g>
<defs>
<clipPath id="clip0_8_2833">
<rect width="162" height="129" fill="white"/>
</clipPath>
</defs>
</svg>
