<svg width="165" height="127" viewBox="0 0 165 127" fill="none" xmlns="http://www.w3.org/2000/svg">
<g clip-path="url(#clip0_8_2914)">
<path d="M162.193 37.9756C160.871 36.6669 158.922 36.1272 156.696 36.4507C156.467 36.4849 156.237 36.5386 156.008 36.5925C155.806 36.6397 155.604 36.6806 155.401 36.7206C151.444 37.4891 147.37 37.436 143.434 36.5649C139.498 35.6937 135.782 34.0231 132.518 31.6565C126.28 27.2524 121.795 22.2047 118.814 16.2517C117.411 13.4393 116.15 10.5123 114.929 7.68024C114.404 6.45222 113.87 5.21809 113.331 3.9973C111.887 0.75368 110.579 0.0726675 107.22 0.841242C106.167 1.06626 105.137 1.3912 104.145 1.81229C92.8621 6.76892 85.733 15.2805 82.9455 27.1031C82.406 29.6182 82.0161 32.1634 81.7785 34.7247C81.6368 35.9658 81.4884 37.2395 81.3132 38.5351L81.1648 39.594L80.2742 39.0069C79.9237 38.7779 79.587 38.5546 79.2562 38.3256C78.5618 37.8602 77.9009 37.4152 77.2216 37.0129C68.4201 31.793 59.8884 29.2099 51.3842 29.2099C47.7554 29.217 44.1416 29.6769 40.6267 30.579C27.3256 33.8641 15.8374 42.2227 8.61845 53.8675C-0.715347 68.7454 -1.90925 84.972 5.07812 102.089C8.79363 111.194 15.3901 117.722 24.6904 121.492C31.5601 124.381 38.9036 125.979 46.3528 126.206C57.9043 126.422 69.8227 126.272 80.3438 126.141C86.4208 126.06 93.6097 125.905 100.833 125.358C108.036 124.819 115.455 124.016 123.521 122.91C127.916 122.283 132.263 121.353 136.53 120.125C141.427 118.819 145.731 115.881 148.731 111.796C151.023 108.808 153.032 105.613 154.733 102.253C160.331 90.585 159.459 79.3892 152.137 68.9823C151.847 68.5649 151.546 68.1468 151.218 67.7018L150.401 66.5893L150.786 66.1778C150.968 65.9888 151.136 65.807 151.298 65.6315C151.627 65.2673 151.939 64.93 152.283 64.613C156.363 60.7212 159.559 55.9964 161.651 50.7601C162.652 48.3343 163.343 45.7917 163.708 43.193C163.882 42.2654 163.837 41.31 163.573 40.4035C163.31 39.4971 162.838 38.6654 162.193 37.9756ZM148.732 89.3327C148.279 98.8897 143.788 105.977 135.378 110.408C130.655 112.965 125.419 114.432 120.055 114.698C110.472 115.158 100.732 115.783 91.3177 116.397C86.2259 116.72 81.1268 117.053 76.0349 117.354C73.0335 117.537 69.9789 117.639 67.0247 117.733C65.649 117.78 64.2732 117.829 62.8971 117.881L62.1555 117.901C59.37 117.975 56.551 118.05 53.7182 118.05C48.7573 118.116 43.7998 117.752 38.9013 116.965C35.6748 116.403 32.4856 115.647 29.351 114.698C19.397 111.636 12.9897 104.635 10.2987 93.8917C5.62492 75.2103 11.1284 58.6806 25.7883 47.3502C30.1451 43.9845 35.4463 40.3701 41.7452 39.0614C57.1829 35.8644 70.2394 39.9319 80.5584 51.1677C84.245 55.2208 87.0988 59.9599 88.9549 65.1149C90.6411 69.7096 90.8504 73.5984 89.6113 77.3756C89.2982 78.4914 89.3258 79.676 89.692 80.7754C89.8521 81.2828 90.1252 81.7468 90.4914 82.1334C90.857 82.52 91.3059 82.8186 91.8034 83.0063C92.337 83.1855 92.9041 83.2432 93.4633 83.175C94.0219 83.1067 94.5587 82.9151 95.0339 82.6132C95.6903 82.178 96.2849 81.6562 96.8008 81.0609C96.9892 80.8588 97.1782 80.6638 97.3672 80.4748C98.1627 79.6872 98.9385 78.8766 99.7143 78.0674C101.245 76.4692 102.836 74.81 104.557 73.3417C112.097 66.9011 121.323 64.702 131.958 66.8131C142.864 68.9784 149.291 77.6112 148.732 89.3327ZM150.661 48.6847C149.042 53.0415 146.115 56.6163 141.455 59.9347L141.157 60.1437L140.82 60.0084C133.953 57.3533 126.515 56.5239 119.232 57.601C112.34 58.5513 105.919 61.3983 99.6198 66.3078L98.9523 66.8276L98.5946 66.0583C97.9605 64.702 97.3331 63.3685 96.7128 62.0588C95.1954 58.8552 93.7659 55.8335 92.4637 52.7048C91.5862 50.4768 90.9929 48.1477 90.6968 45.7715C89.247 35.7565 90.7375 27.4812 95.2492 20.4807C98.1968 15.9146 100.908 13.4667 105.986 10.7626L106.6 10.4389L106.91 11.0523C107.005 11.2545 107.119 11.4504 107.22 11.6387C107.494 12.0963 107.723 12.5795 107.901 13.0822C109.783 18.8153 112.636 26.1732 118.052 32.2365C125.796 40.9001 134.319 45.8395 144.108 47.3431C145.446 47.5213 146.792 47.6296 148.141 47.6675C148.789 47.701 149.436 47.7331 150.084 47.7751L150.981 47.836L150.661 48.6847Z" fill="black"/>
</g>
<defs>
<clipPath id="clip0_8_2914">
<rect width="164.084" height="126.673" fill="white"/>
</clipPath>
</defs>
</svg>
