<svg width="159" height="156" viewBox="0 0 159 156" fill="none" xmlns="http://www.w3.org/2000/svg">
<g clip-path="url(#clip0_8_2269)">
<path d="M158.47 103.449C158.101 93.9423 157.997 84.3551 157.895 75.0837C157.872 72.9769 157.85 70.8713 157.82 68.7087C157.66 66.3597 157.673 64.0025 157.856 61.6555C158.189 55.1643 158.567 47.8066 152.525 44.0747C133.67 31.6515 117.094 21.2861 101.856 12.3895L100.121 11.353C95.2431 8.43956 90.1991 5.42716 85.2681 2.44279C81.0819 -0.0880489 80.3147 -0.232594 76.3419 2.76359C71.928 6.08597 67.5102 9.42433 63.0897 12.7782C44.1761 27.1008 24.6185 41.9097 4.72489 55.3745C2.09429 57.1998 0.886007 59.4094 0.922105 62.3131C0.884694 65.5738 0.934589 68.903 0.983158 72.1223C1.07045 77.9545 1.16106 83.985 0.728538 89.7417L0.723248 89.8126L0.733028 89.8828C1.02772 91.9503 0.876844 95.7085 0.702258 100.061C0.303863 110.009 -0.150945 121.284 4.00301 123.265C14.4388 127.742 35.1448 136.827 51.7843 144.128C63.8609 149.426 73.3969 153.611 75.8719 154.661C76.9575 155.217 78.1593 155.509 79.3787 155.51C82.3775 155.51 85.1965 153.79 87.6932 152.066C107.685 139.402 130.343 125.049 152.547 113.689C157.071 111.38 158.675 108.603 158.47 103.449ZM149.846 102.202C146.976 101.197 134.936 92.1958 128.288 87.2247C122.381 82.8075 120.322 81.269 119.444 80.8647L150.532 58.8615C151.443 61.8741 150.66 79.8244 150.23 89.68C149.881 97.7142 149.759 100.886 149.846 102.205V102.202ZM84.3918 116.32C84.4962 114.78 84.4811 113.235 84.3472 111.698C84.1444 108.327 83.9337 104.843 86.1193 102.537C95.2785 96.248 103.004 91.0196 110.905 85.9658C111.201 85.8214 111.479 85.6435 111.734 85.4361C111.976 85.2149 112.266 85.0522 112.58 84.9596C113.195 85.6383 115.296 87.1452 122.698 92.2883C130.285 97.5607 142.763 106.23 144.292 108.452C143.036 109.14 139.151 111.516 125.776 119.774C110.69 129.089 88.299 142.91 84.4923 144.726C84.1477 142.266 84.2954 132.005 84.3879 125.674C84.4844 118.628 84.485 116.893 84.3918 116.323V116.32ZM147.606 50.9756C147.56 51.0171 147.504 51.0477 147.444 51.065L147.278 51.1553C141.296 55.6552 135.025 59.9322 128.96 64.0677C124.417 67.1656 119.718 70.3686 115.145 73.6627C113.111 75.0877 111.771 75.0778 109.839 73.622C103.083 68.5459 95.7163 63.2256 86.6555 56.8768C84.4896 55.36 83.6331 53.6411 83.5898 50.7506C83.5242 44.0947 83.2846 37.4216 83.0555 30.9685C82.8193 24.3126 82.5751 17.4307 82.5173 10.5996C82.5456 10.2517 82.5423 9.90214 82.5081 9.55481C82.4491 9.05757 82.455 8.55468 82.5246 8.05882C82.5639 8.05678 82.6033 8.06236 82.6407 8.07483C91.1764 13.6767 100.121 19.2371 108.019 24.1465C109.201 25.177 113.622 27.8416 119.199 31.2041C125.141 34.7857 132.535 39.2437 138.264 43.0937C147.432 49.2574 147.65 50.755 147.61 50.9788L147.606 50.9756ZM76.2001 142.455C76.2211 143.512 76.2565 145.278 75.7708 145.741C75.7118 145.8 75.6324 145.833 75.549 145.834C69.0329 143.105 62.4262 140.423 56.0361 137.827C41.6688 131.993 26.8192 125.964 12.41 119.149C14.8384 116.502 27.4579 105.359 36.027 97.7937C44.4793 90.3311 46.5087 88.5104 47.0449 87.9289C47.7977 88.0904 49.9985 89.3781 51.0906 90.0187C51.6773 90.3967 52.2917 90.7301 52.9284 91.0163C54.5745 92.1741 57.7715 93.748 61.4608 95.566C67.753 98.6646 77.262 103.348 77.1872 105.71C76.9424 117.151 76.607 128.79 76.2834 140.045L76.2644 140.702C76.1843 141.283 76.1627 141.87 76.2001 142.455ZM39.5227 83.1396C39.0101 83.5275 37.1912 85.2202 28.8059 93.1159C21.4838 100.012 10.7396 110.132 8.17658 112.261C7.40735 108.671 7.21715 90.2274 7.09966 78.9187C6.97627 66.9878 6.90663 64.1307 6.73139 63.2906H6.73992L39.5207 83.135L39.5227 83.1396ZM11.799 58.3193L11.8166 58.3088C11.8126 58.3145 11.8078 58.3196 11.8021 58.3238L11.799 58.3193ZM77.1347 19.6492C76.9549 21.5108 76.9201 23.3835 77.029 25.2505C76.9194 32.4046 76.8978 37.8067 76.884 41.7506C76.8551 49.3129 76.8433 52.4427 76.2277 53.061C74.7095 54.5791 72.0028 56.6575 68.2571 59.5342C63.0485 63.5379 55.918 69.0106 47.3692 76.5395C47.1355 76.6858 46.92 76.8598 46.7273 77.0573C46.512 77.2739 46.2736 77.4662 46.0165 77.6316C45.8708 77.5502 12.2209 58.5569 11.8284 58.3068C12.6351 57.8474 15.8223 55.5745 32.2262 43.719C48.544 31.9253 72.7399 14.4388 76.8571 12.0123C77.5082 14.3206 77.3159 17.0252 77.136 19.6492H77.1347ZM71.5703 66.3052C77.0409 61.7021 78.6646 60.3023 79.1398 59.6945L105.338 79.3965C103.518 80.7039 101.685 82.0219 99.8401 83.3496C94.1719 87.4294 88.3102 91.647 82.7615 95.5398C82.3158 95.8056 81.8065 95.9454 81.2874 95.9434C75.612 93.7854 69.8881 90.7032 64.3539 87.7222C60.9449 85.8844 57.4229 83.9902 53.9082 82.3054C55.1454 80.1237 65.7545 71.1989 71.5716 66.3052H71.5703Z" fill="black"/>
</g>
<defs>
<clipPath id="clip0_8_2269">
<rect width="158.834" height="155.552" fill="white"/>
</clipPath>
</defs>
</svg>
