<svg width="151" height="150" viewBox="0 0 151 150" fill="none" xmlns="http://www.w3.org/2000/svg">
<path d="M107.979 135.14C108.094 135.009 107.974 135.083 107.955 135.176C105.946 144.847 99.5147 148.928 90.1311 149.246C86.6387 149.364 83.1411 149.54 79.6493 149.475C66.8678 149.237 54.0883 148.84 41.3061 148.647C35.9766 148.566 30.6393 149.001 25.3118 148.893C22.6921 148.801 20.0962 148.361 17.5919 147.587C11.2418 145.706 6.51096 141.856 4.68897 135.277C3.61783 131.409 2.56509 127.423 2.36491 123.447C1.39309 104.14 0.60546 84.8239 0.00206666 65.4987C-0.0315478 61.2417 0.344968 56.9913 1.12638 52.8065C1.7394 49.0555 2.83286 48.7069 6.49326 48.7024C16.2071 48.6897 25.9209 48.5584 35.6347 48.3086C57.5879 47.752 79.5378 47.0615 101.491 46.5174C105.897 46.4085 106.097 46.8456 106.996 51.0797C107.598 53.9111 108.461 56.6867 109.278 59.7492C109.555 59.7335 110.075 59.7347 110.586 59.6685C130.674 57.0707 144.085 66.3014 148.654 85.9108C150.203 92.5569 150.913 99.3001 149.86 106.07C147.515 121.159 137.623 131.1 122.075 133.859C117.604 134.651 113.002 134.706 107.979 135.14ZM7.49944 56.3474C7.49944 58.2659 7.41739 60.1095 7.51322 61.944C8.07701 72.7394 8.51546 83.5454 9.31947 94.3244C10.1399 105.317 11.1073 116.312 12.443 127.248C13.3238 134.463 17.5775 138.508 24.7165 139.792C28.147 140.461 31.6255 140.856 35.1188 140.973C51.2848 141.26 67.4526 141.437 83.6221 141.507C86.6738 141.417 89.7173 141.145 92.7361 140.689C95.9646 140.315 97.6868 138.375 98.4153 135.242C99.9702 128.56 99.7838 121.822 99.5036 115.042C98.8498 99.2258 98.2788 83.4067 97.7905 67.5846C97.6402 62.9364 97.7669 58.279 97.7669 53.2049L7.49944 56.3474ZM109.303 127.126C115.124 126.032 120.724 125.534 125.955 123.879C135.75 120.781 141.216 113.69 142.202 103.432C142.866 96.5166 141.754 89.7642 139.933 83.0603C135.853 68.042 118.956 63.2672 108.415 65.9647V73.9248C126.118 77.4159 131.229 86.5455 131.761 98.5762C131.958 102.987 130.383 106.912 127.754 110.428C123.209 116.511 116.581 118.375 109.303 119.192V127.126ZM108.532 110.478C111.769 109.276 114.494 108.509 116.995 107.28C121.058 105.289 123.127 101.836 123.27 97.2943C123.545 88.481 118.138 82.5504 108.532 80.9457V110.478Z" fill="black"/>
<path d="M51.4454 2.12827C51.2013 3.51446 51.1087 4.38875 50.8902 5.23017C49.3904 10.9987 50.6815 16.2376 53.8385 21.1411C55.432 23.6161 57.3013 25.9704 58.5024 28.6233C59.7776 31.4908 60.6963 34.5037 61.238 37.5948C61.412 39.3173 61.0586 41.052 60.2246 42.5692C59.7455 43.5163 58.1683 44.5106 57.1759 44.424C56.1836 44.3374 55.1735 43.0326 54.46 42.0514C54.0031 41.297 53.8007 40.4158 53.8824 39.5376C54.2355 34.0644 51.7395 29.619 48.8706 25.3055C45.4938 20.2274 43.6285 14.7063 44.5303 8.59647C44.9849 6.03906 45.8027 3.55972 46.9587 1.23366C47.2994 0.501187 48.9711 -0.0606076 49.9122 0.0837867C50.5961 0.189457 51.0772 1.5927 51.4454 2.12827Z" fill="black"/>
<path d="M67.4172 11.3474C68.2252 8.197 68.8409 5.21921 69.7801 2.3497C70.3229 0.689164 71.6835 -0.488994 73.6085 0.200817C75.4134 0.845997 75.5388 2.48887 75.0656 4.04767C73.2278 10.1076 74.7439 15.6051 77.4074 21.0862C79.2858 25.0113 80.8979 29.0585 82.2327 33.2002C82.7812 35.0863 82.8574 37.0784 82.4546 39.0009C82.2341 40.1344 80.9214 41.6833 79.9021 41.8513C78.9478 42.0082 77.601 40.7264 76.686 39.8167C76.1314 39.2667 76.0652 38.2238 75.7823 37.4014C73.7995 31.6421 71.7596 25.9011 69.8588 20.1148C68.9137 17.2545 68.2291 14.3009 67.4172 11.3474Z" fill="black"/>
<path d="M30.9182 41.5391C30.9153 41.4289 30.9254 41.3187 30.9484 41.2109C33.0008 35.1549 30.1779 30.6104 26.7354 25.9314C24.3381 22.7749 23.0147 18.9336 22.9592 14.9704C22.9037 11.0072 24.1189 7.13036 26.4269 3.908C27.5131 2.5859 28.8792 1.52131 30.4267 0.791033C31.0607 0.462864 32.7238 0.851377 33.0034 1.39089C33.3926 2.13714 33.1531 3.4361 32.7652 4.31428C32.0688 5.88949 30.8401 7.24477 30.2245 8.84295C28.0513 14.4829 28.774 19.7415 32.6372 24.5124C35.1313 27.5886 37.2781 30.8513 37.8321 34.9192C38.3683 38.8573 37.1377 42.0733 34.4664 43.4818C32.4002 44.5766 30.9747 43.7949 30.9182 41.5391Z" fill="black"/>
</svg>
