<svg width="148" height="153" viewBox="0 0 148 153" fill="none" xmlns="http://www.w3.org/2000/svg">
<g clip-path="url(#clip0_6_1901)">
<path d="M58.0427 57.0121C55.2986 56.4936 52.5419 56.0277 49.8102 55.4435C46.6098 54.7914 43.587 53.4591 40.9464 51.5369C38.6492 49.8461 37.0189 47.6776 37.034 44.8028C37.0603 39.7668 37.3379 34.7307 37.5945 29.6986C37.6917 27.7952 38.0906 25.9122 38.2324 24.0108C38.3611 21.8157 38.9447 19.6712 39.9462 17.7137C40.9477 15.7561 42.3453 14.0283 44.0502 12.6397C46.014 10.993 48.0907 9.29962 50.4043 8.28426C59.9737 4.08371 69.6929 0.414084 80.4457 0.662833C87.6313 0.829543 94.828 0.654364 101.916 2.1029C107.397 3.22327 112.38 5.43374 116.526 9.27789C120.131 12.62 122.273 16.6512 122.416 21.6866C122.521 25.3726 122.844 29.052 123.067 32.6612C126.847 33.5414 130.484 34.1709 133.97 35.2762C136.309 36.0268 138.513 37.1497 140.495 38.6018C143.495 40.811 144.49 44.184 144.636 47.8024C144.908 54.5292 145.096 61.2606 145.43 67.9845C145.873 76.8385 146.583 85.682 146.886 94.5399C147.233 104.636 147.361 114.743 147.359 124.844C147.359 127.833 146.539 130.817 146.196 133.812C145.867 136.682 143.987 138.058 141.553 139.014C136.026 141.215 130.262 142.768 124.378 143.642C110.232 145.616 95.8683 145.426 81.7794 143.08C78.7025 142.586 75.705 141.595 72.4115 140.768C71.9297 141.162 71.2301 141.706 70.5606 142.285C63.5887 148.306 55.4337 151.314 46.2995 151.912C35.8584 152.596 25.9471 150.751 16.7301 145.711C8.63945 141.286 3.10593 134.762 1.17498 125.606C-3.46729 103.597 10.6262 81.1454 32.4035 75.6085C34.1001 75.1773 35.6406 74.1396 37.3359 73.6973C39.4671 73.142 41.7295 72.4404 43.8514 72.6471C46.9362 72.951 49.9553 73.9887 52.9909 74.7586C54.2576 75.0795 55.4942 75.516 56.9525 75.9636C57.3168 69.6017 57.6699 63.4836 58.0427 57.0121ZM43.0598 144.37C44.6482 144.186 47.2459 144.077 49.759 143.559C61.4287 141.152 69.4494 134.743 72.1726 122.692C73.228 118.086 73.3422 113.314 72.5073 108.662C70.6827 98.3893 65.4357 90.6006 56.0454 85.8487C53.0532 84.3345 49.9245 83.073 46.7964 81.8536C43.4086 80.5566 39.6833 80.4372 36.2195 81.5142C23.7346 85.1116 14.8229 92.6063 10.7949 105.217C9.72327 108.407 9.01606 111.708 8.68671 115.056C7.71271 127.088 12.0669 134.921 22.5289 139.89C28.7103 142.826 35.2547 144.153 43.0598 144.37V144.37ZM74.3857 32.6003C82.3038 31.8173 89.8182 31.3413 97.2381 30.2334C101.329 29.5933 105.312 28.3895 109.073 26.6565C113.571 24.6021 114.053 20.8348 110.874 17.0352C110.277 16.2177 109.534 15.5181 108.682 14.9717C106.031 13.5533 103.418 11.8213 100.563 11.0744C90.2232 8.35134 79.4487 7.68804 68.8535 9.12234C63.0289 9.90469 57.433 11.497 52.3871 14.6429C49.5957 16.3841 47.0464 18.4188 45.6412 21.5062C44.3535 24.335 44.9849 26.6453 47.7468 28.0578C49.818 29.175 52.0588 29.9441 54.3797 30.3339C61.1452 31.2758 67.9556 31.8966 74.3857 32.5995V32.6003ZM115.004 33.8577C110.844 35.0858 107.151 36.4142 103.351 37.2511C93.4333 39.4341 83.3454 39.7727 73.2339 39.4938C63.2435 39.2181 53.2914 38.6491 44.0266 34.1119V45.8229C46.8108 47.7539 48.9242 48.7199 53.13 49.2023C59.6973 49.9558 66.2839 50.6581 72.8821 51.0079C84.5498 51.6431 96.2438 50.3628 107.498 47.2176C110.264 46.4451 113.027 45.5269 115.006 44.0383L115.004 33.8577ZM138.473 78.5128C133.15 80.8966 128.582 83.3251 123.757 85.0289C111.979 89.1881 99.7453 89.2098 87.4889 88.1393C82.6024 87.712 77.7541 86.8476 72.9838 86.1952C74.3943 88.4596 76.0108 90.7443 77.294 93.203C78.5771 95.6616 79.5367 98.3099 80.7463 101.128C82.0281 101.321 83.4471 101.645 84.8812 101.732C98.1209 102.549 111.405 101.187 124.204 97.7022C128.389 96.5654 132.371 94.6666 136.418 93.0481C137.441 92.6385 138.482 92.0983 138.477 90.6852C138.463 86.6763 138.473 82.6681 138.473 78.5122V78.5128ZM65.7812 77.1758C68.2188 77.9457 70.7267 78.9821 73.3369 79.5203C85.3531 81.9875 97.7028 82.3832 109.853 80.6912C118.924 79.4566 127.077 75.7884 134.471 70.4458C135.413 69.7658 136.637 68.8049 136.781 67.8283C137.122 65.5359 136.891 63.1586 136.891 60.7669C136.591 60.8143 136.301 60.9104 136.034 61.0512C129.935 65.597 122.924 67.7672 115.543 69.053C104.672 70.8652 93.6118 71.2544 82.6412 70.2114C77.1614 69.7363 71.7164 68.8771 66.5753 66.7283C65.919 66.4552 65.2447 66.2373 64.2569 65.8757C64.78 69.7323 65.2394 73.1466 65.7812 77.1752V77.1758ZM76.7597 135.3C87.4876 139.074 125.892 139.162 139.928 129.852C139.622 126.786 139.306 123.639 138.982 120.412C119.915 127.617 100.479 128.423 80.7411 126.338C79.3772 129.405 78.0685 132.352 76.7597 135.299V135.3ZM138.487 101.634C120.501 108.154 101.213 110.259 82.2441 107.772V118.857C82.5519 119.067 82.6412 119.179 82.7376 119.185C84.6417 119.305 86.5451 119.416 88.4478 119.52C101.135 120.211 113.854 119.017 126.191 115.976C130.503 114.962 134.643 113.326 138.484 111.119L138.487 101.634ZM123.504 41.155C123.294 41.4785 123.045 41.6892 123.072 41.8454C123.828 45.7966 121.508 48.1049 118.728 50.2505C115.069 53.0728 110.781 54.3768 106.404 55.3797C93.6742 58.211 80.5776 59.0179 67.5966 57.7708C66.6606 57.6888 65.7109 57.7604 64.7682 57.7604C65.4296 58.8071 66.4099 59.6134 67.5644 60.0608C69.7579 60.9074 72.0216 61.5616 74.3286 62.016C87.987 64.2252 101.931 63.9595 115.495 61.2316C120.573 60.2425 125.563 58.6884 129.645 55.3352C131.434 53.8334 132.952 52.035 134.132 50.0188C135.362 47.9362 134.719 46.1248 132.734 44.7905C129.96 42.9193 126.809 41.6783 123.504 41.155Z" fill="black"/>
<path d="M41.7122 99.1133V111.452C43.5106 112.13 45.1908 112.69 46.8153 113.389C53.1962 116.135 54.7661 122.13 50.5827 127.644C48.8598 129.915 47.4979 130.834 42.4165 133.168C41.9374 135.605 41.4543 138.007 40.9955 140.413C40.7402 141.754 40.1002 142.792 38.6366 142.826C37.0922 142.862 36.5495 141.603 36.2738 140.393C35.7573 138.118 35.4055 135.803 34.9369 133.238C33.0683 132.74 31.0343 132.212 29.0095 131.649C28.029 131.418 27.0692 131.107 26.14 130.719C24.2884 129.856 23.5435 128.411 23.8979 126.67C24.2261 125.056 25.6136 124.035 27.75 124.176C30.0773 124.328 32.3896 124.723 34.6494 125.005C35.5932 122.403 35.6995 120.854 35.2899 116.423C33.7147 115.832 32.0116 115.311 30.4088 114.572C23.9242 111.581 22.4953 105.104 27.0903 99.6266C28.9872 97.2415 31.4864 95.4057 34.3298 94.3096C36.0638 93.6808 36.7582 92.6248 36.8238 90.8264C36.8395 89.5971 37.1076 88.3842 37.6114 87.2632C37.8278 86.9015 38.1279 86.5976 38.4865 86.3771C38.8452 86.1566 39.2517 86.0253 39.6717 85.9951C40.0782 86.1106 40.4515 86.3213 40.7604 86.6095C41.0693 86.8982 41.3049 87.2566 41.4477 87.6543C41.7291 89.0884 41.8828 90.5449 41.9072 92.0065C43.4526 92.3583 44.9789 92.7889 46.4799 93.2975C48.8749 94.24 50.0084 96.0981 49.7163 98.2155C49.4577 100.09 48.4383 100.723 46.6898 99.9535C45.1593 99.2814 43.7338 98.285 41.7122 99.1133ZM35.8 101.56C32.5183 103.507 30.838 105.578 31.4445 107.121C32.1665 108.964 33.85 109.429 35.8 109.682V101.56ZM41.9328 124.684C44.1138 123.879 46.1123 122.915 46.0467 120.706C45.9916 118.853 43.9497 118.475 42.2898 118.223C42.1947 118.208 42.0843 118.293 41.6649 118.45C41.6649 119.74 41.642 121.153 41.6754 122.564C41.6905 123.181 41.8205 123.796 41.9328 124.684Z" fill="black"/>
</g>
<defs>
<clipPath id="clip0_6_1901">
<rect width="147.676" height="152.27" fill="white"/>
</clipPath>
</defs>
</svg>
