<svg width="96" height="167" viewBox="0 0 96 167" fill="none" xmlns="http://www.w3.org/2000/svg">
<g clip-path="url(#clip0_6_1898)">
<path d="M12.1897 75.2685C8.15581 71.3961 5.01588 67.3471 3.06656 62.4631C-0.686383 53.0775 -0.46979 43.5967 2.58546 34.1369C7.14374 20.0256 16.4421 9.95222 29.6266 3.44461C36.9539 -0.173116 44.8123 -0.179604 52.6982 0.946015C67.2204 3.02004 76.1407 11.9167 81.2529 25.0526C86.8803 39.5118 86.1898 53.7903 79.2465 67.7186C79.1021 68.0658 78.978 68.4209 78.8743 68.7825C79.3134 68.9742 79.6882 69.1599 80.0774 69.3076C87.8143 72.1843 92.4316 77.5433 93.3879 85.8828C93.9878 91.119 94.7072 96.3415 95.313 101.578C95.498 102.688 95.4757 103.823 95.2473 104.925C94.3422 108.255 94.6783 111.597 94.7754 114.959C94.8922 118.998 94.7977 123.042 94.8693 127.082C94.948 131.57 95.1541 136.056 95.2211 140.544C95.2657 143.563 95.1554 146.582 95.1285 149.601C95.0891 153.461 92.8668 155.816 89.6356 157.384C83.5855 160.345 77.1652 162.483 70.5474 163.738C57.389 166.203 44.1914 165.963 30.9977 164.132C26.2222 163.47 21.4591 162.638 16.7499 161.614C14.2367 161.062 11.8032 160.195 9.50721 159.033C7.97407 158.301 6.67735 157.153 5.76492 155.72C4.85246 154.287 4.36095 152.626 4.34641 150.928C3.84234 139.721 2.8493 128.54 3.46692 117.285C3.76096 111.938 3.04227 106.542 3.04555 101.169C3.05793 97.0169 3.2873 92.8682 3.73273 88.7405C4.2473 83.8783 6.19138 79.6712 10.365 76.761C10.8986 76.3829 11.3817 75.9301 12.1897 75.2685ZM45.6931 77.4344C47.3254 77.2677 49.7926 77.1187 52.225 76.7478C62.0306 75.2507 68.9676 69.9521 72.4704 60.651C76.8456 49.0338 75.9562 37.6281 70.695 26.4073C62.0517 7.97539 36.3724 3.32914 21.7473 18.778C14.8695 26.0437 10.4865 34.4731 9.38316 44.3326C7.85915 57.9581 13.6179 68.7753 26.7591 74.0792C32.567 76.4217 38.6716 77.1082 45.6931 77.4324V77.4344ZM87.2131 91.711C85.4193 92.6496 83.997 93.516 82.4822 94.1546C80.8361 94.8588 79.1382 95.4358 77.4041 95.8808C60.4096 100.139 42.8395 101.628 25.3709 100.29C20.8021 99.9428 16.2478 99.1684 12.0052 97.2052C11.3568 96.9046 10.6584 96.7123 9.56563 96.3198C10.006 102.049 10.4189 107.366 10.816 112.573C18.4662 115.739 44.9225 117.283 58.3578 114.894C68.4655 113.096 78.4293 110.528 87.2131 105.574V91.711ZM11.1362 119.202C11.4605 124.198 11.7729 128.882 12.0636 133.566C12.1523 134.991 13.1453 135.462 14.2952 135.667C17.4935 136.242 20.6846 136.979 23.9125 137.249C36.5798 138.205 49.3171 137.559 61.8225 135.326C69.1264 134.084 76.352 132.594 83.3407 130C85.6438 129.147 86.4681 127.89 86.5567 125.627C86.688 122.262 86.9985 118.904 87.1993 115.543C87.1842 114.806 87.1238 114.072 87.0175 113.343C62.4087 124.489 37.1285 123.151 11.1362 119.2V119.202ZM86.7563 149.715C86.4563 145.788 86.1656 142.018 85.8774 138.216C61.7149 144.653 37.5138 147.288 12.6734 142.387C12.4502 145.879 12.2245 149.414 11.981 153.236C13.95 153.82 15.7175 154.594 17.5598 154.849C25.2199 155.906 32.8893 156.922 40.5782 157.737C50.0295 158.736 59.421 157.774 68.7227 156.146C75.036 154.969 81.1229 152.797 86.7563 149.713V149.715ZM73.2751 75.7725C72.7034 76.249 72.1803 76.6697 71.6743 77.1088C65.5001 82.4711 58.1911 84.9915 50.1536 85.5795C39.3299 86.3711 28.8882 84.9954 19.1009 79.9534C18.4144 79.5996 17.1319 79.4067 16.6679 79.7919C14.7429 81.3068 12.9961 83.0356 11.4611 84.9449C10.239 86.564 10.625 88.155 12.2842 89.3561C13.6018 90.3957 15.1274 91.1407 16.7578 91.5397C21.2553 92.4599 25.8067 93.0933 30.3847 93.4359C38.9142 93.8914 47.4681 93.4425 55.9031 92.0963C62.4244 91.0665 68.8927 89.6344 75.3229 88.1209C77.3759 87.563 79.3042 86.6198 81.0048 85.3419C83.4857 83.5698 83.4838 81.9946 81.4977 79.7296C80.4633 78.5515 79.2018 77.5939 77.7894 76.9132C76.3763 76.2333 74.8411 75.8447 73.2751 75.7706V75.7725Z" fill="black"/>
<path d="M39.8394 64.4242C37.4063 63.5821 35.2732 62.9003 33.1874 62.0962C32.2452 61.7364 31.3617 61.2385 30.566 60.6188C28.8897 59.2937 28.488 57.4579 29.3741 55.8558C30.1407 54.4689 31.3805 54.0461 33.4808 54.5528C35.522 55.0444 37.5501 55.603 40.0363 56.2548C40.2411 52.8248 40.4176 49.8759 40.602 46.7957C39.1732 46.4137 38.0023 46.1084 36.8353 45.7881C28.9376 43.6222 26.0714 37.2132 29.7108 29.895C31.8432 25.6071 35.3789 23.0691 40.0645 21.7466C40.1269 20.4995 39.9608 19.2189 40.3238 18.1123C40.4896 17.6792 40.746 17.2865 41.0759 16.9604C41.4057 16.6343 41.8013 16.3825 42.2363 16.2215C42.7673 16.0765 43.8896 16.8666 44.225 17.5105C44.7731 18.5606 44.8958 19.8373 45.2463 21.2057C46.156 21.5392 47.2265 21.8436 48.2182 22.3155C49.5125 22.9312 50.5081 23.9131 50.1662 25.4792C49.8065 27.1285 48.545 27.437 47.0355 27.1673C46.549 27.1598 46.063 27.1998 45.5843 27.2867C45.8212 31.8154 46.0582 36.3442 46.3017 40.997C47.4175 41.4098 48.4499 41.7905 49.481 42.1731C53.5864 43.6971 56.3837 46.4897 56.9632 50.8885C57.5382 55.2518 55.6315 58.7337 52.172 61.363C51.4029 62.0176 50.5381 62.5507 49.6077 62.9436C47.8723 63.5513 46.7736 64.5233 46.4303 66.4136C46.352 67.0962 46.0215 67.725 45.5036 68.1766C44.9859 68.6281 44.318 68.8703 43.631 68.8552C42.0709 68.9038 41.1429 68.019 40.6263 66.6237C40.3546 65.8958 40.1019 65.1632 39.8394 64.4242ZM40.4957 28.3105C37.2738 29.5773 35.8863 30.9221 34.8834 33.5553C33.782 36.4478 34.5401 38.281 37.4273 39.4558C38.4317 39.7839 39.4568 40.045 40.4957 40.2374V28.3105ZM46.7683 47.8281V55.4665C49.0741 54.6054 50.3217 53.3499 50.4143 51.226C50.4911 49.5202 49.5926 48.7194 46.771 47.8281H46.7683Z" fill="black"/>
</g>
<defs>
<clipPath id="clip0_6_1898">
<rect width="95.8253" height="166.053" fill="white"/>
</clipPath>
</defs>
</svg>
