<svg width="157" height="102" viewBox="0 0 157 102" fill="none" xmlns="http://www.w3.org/2000/svg">
<path d="M126.55 66.2612L32.5981 68.964C32.9676 76.4272 33.3745 83.6915 33.6567 90.9598C33.754 92.9728 33.6219 94.9904 33.2629 96.9732C33.095 97.9281 32.5954 98.7925 31.8522 99.4141C31.109 100.036 30.17 100.376 29.2008 100.374C28.2374 100.305 27.3249 99.9155 26.6094 99.2664C25.894 98.618 25.417 97.7477 25.255 96.7953C25.0458 95.4669 24.986 94.1194 25.0764 92.7772C25.3232 86.0458 25.6271 79.317 25.891 72.5863C25.9389 71.3708 25.8982 70.1519 25.8982 68.6785C22.3021 68.3227 18.9783 68.0878 15.6848 67.6355C13.3457 67.3769 11.0387 66.8827 8.7986 66.1614C1.83813 63.6978 -1.24664 57.5234 1.18116 50.5406C3.83145 42.9146 8.86483 37.7237 17.1957 36.3868C18.6206 36.1577 20.0344 35.8538 21.12 35.6471C21.5512 26.1735 21.9457 16.8982 22.413 7.62677C22.5358 5.19374 23.4513 4.19812 25.8975 3.85092C28.0037 3.55163 30.146 3.47143 32.2758 3.37757C40.6848 3.00697 49.0945 2.65686 57.5048 2.32738C58.7372 2.24586 59.9746 2.27793 61.2012 2.42319C64.6142 2.92267 66.4378 4.63774 66.8054 8.09532C67.4328 14.0096 67.8371 19.9474 68.3399 25.8748C68.5755 28.6498 68.8236 31.4229 69.0796 34.3601H82.8298C82.9132 33.4071 83.0031 32.5478 83.0602 31.686C83.5781 23.9576 84.0395 16.2248 84.6216 8.50166C84.9839 3.69073 86.9845 1.78739 91.8256 1.431C94.8493 1.20915 97.8777 1.0055 100.907 0.905735C110.112 0.611258 119.317 0.351153 128.523 0.125373C132.937 0.0242963 134.381 1.1257 135.321 5.41421C135.849 7.71124 136.147 10.055 136.214 12.4109C136.331 19.2276 136.256 26.0468 136.256 32.8753C138.795 33.2166 141.138 33.4004 143.423 33.8598C152.271 35.6529 158.406 45.1844 156.151 53.3532C155.182 56.8646 152.985 59.1944 149.85 60.8129C145.29 63.1705 140.313 64.0154 135.336 64.8634C134.689 64.9737 134.037 65.0535 133.297 65.1605C133.297 66.9799 133.303 68.6332 133.297 70.2865C133.262 78.7001 133.297 87.115 133.145 95.526C133.084 98.8733 131.477 100.827 129.228 101.008C126.865 101.199 124.678 99.2192 124.597 95.8226C124.484 91.1298 124.939 86.418 125.267 81.7219C125.619 76.6037 126.109 71.4863 126.55 66.2612ZM81.6931 42.2294L81.6767 41.6474C60.4767 42.2433 39.2769 42.8945 18.0772 43.369C16.9058 43.3338 15.7449 43.5991 14.7051 44.1398C13.6653 44.6804 12.7813 45.4786 12.1374 46.4577C10.9654 48.097 10.0109 49.8813 9.29807 51.7661C7.85413 55.7862 9.02635 57.6404 13.0805 59.1512C16.5093 60.4285 19.9406 59.8384 23.3988 59.7675C49.4351 59.2339 75.4756 58.8597 101.507 58.143C112.152 57.8496 122.793 57.0043 133.405 56.05C137.259 55.7034 141.097 54.5463 144.795 53.3176C148.143 52.2064 148.638 50.2427 147.285 46.9276C145.857 43.4273 143.306 41.5751 139.585 41.4045C135.101 41.1997 130.608 40.9089 126.13 41.0067C111.311 41.329 96.5027 41.8086 81.6931 42.2294ZM126.729 7.88411H119.404C119.644 11.0142 119.961 13.8022 120.047 16.5976C120.172 20.6433 118.486 22.6654 114.534 23.2882C112.32 23.6374 110.076 23.8066 107.839 24.0029C102.318 24.4872 101.144 23.2245 101.441 17.5885C101.603 14.4886 101.47 11.3737 101.47 8.05332H91.0341C91.4469 16.8712 91.8499 25.4612 92.2608 34.2319L126.728 32.966L126.729 7.88411ZM51.5314 8.55135C51.7644 11.4609 52.2724 14.4587 52.1773 17.4417C52.0578 21.1894 50.1676 22.8512 46.4409 23.1341C44.9878 23.2443 43.5261 23.2876 42.069 23.283C37.3847 23.268 36.328 22.0984 36.6568 17.4417C36.8668 14.4718 37.029 11.4971 37.2154 8.47987H29.3741C29.5802 17.4199 29.7811 26.1236 29.9865 35.0459L59.3477 34.3325C59.645 25.5829 59.9299 17.2203 60.2246 8.54813L51.5314 8.55135ZM105.89 8.09211C106.31 11.3482 106.673 14.1658 107.072 17.2571L113.447 16.7322C113.709 13.6822 113.946 10.9564 114.194 8.09086L105.89 8.09211ZM41.813 16.971L45.2798 16.6322C45.6178 13.8053 45.9309 11.1846 46.2604 8.42796H41.1179C41.349 11.264 41.5636 13.9019 41.813 16.9716V16.971Z" fill="black"/>
<path d="M127.251 49.1599C127.23 50.4661 126.697 51.7118 125.769 52.631C124.84 53.5502 123.59 54.07 122.283 54.0792C121.72 54.0831 121.162 53.9751 120.641 53.7616C120.121 53.5482 119.648 53.2333 119.249 52.8355C118.851 52.4377 118.535 51.9649 118.321 51.4443C118.106 50.9236 117.998 50.3655 118.001 49.8025C118.083 47.5 120.769 44.6358 122.915 44.563C125.309 44.4796 127.255 46.5424 127.251 49.1599Z" fill="black"/>
<path d="M51.9399 55.8072C51.321 55.8301 50.704 55.7265 50.1267 55.5025C49.5493 55.2785 49.0239 54.9388 48.5823 54.5045C48.1408 54.0702 47.7926 53.5504 47.559 52.9768C47.3255 52.4033 47.2116 51.7882 47.2241 51.169C47.1723 48.6874 48.5138 46.9409 50.5229 46.874C54.0277 46.7565 56.193 48.3619 56.2744 51.1401C56.316 52.3332 55.8834 53.4942 55.071 54.3689C54.2587 55.2437 53.1327 55.7608 51.9399 55.8072Z" fill="black"/>
<path d="M31.3865 51.5226C31.3297 52.7032 30.8188 53.8163 29.9605 54.629C29.1022 55.4417 27.9629 55.8911 26.7809 55.8833C26.194 55.88 25.6135 55.761 25.0727 55.533C24.5319 55.3051 24.0414 54.9724 23.6292 54.5546C23.217 54.1369 22.8913 53.6419 22.6706 53.0981C22.4501 52.5542 22.3388 51.9723 22.3434 51.3854C22.3985 48.7975 24.4818 47.3121 27.879 47.4381C29.9445 47.5116 31.4508 49.2661 31.3865 51.5226Z" fill="black"/>
<path d="M100.37 45.571C101.449 45.5826 102.484 46.0039 103.264 46.7501C104.044 47.4962 104.511 48.5114 104.57 49.5892C104.589 50.6705 104.181 51.7155 103.436 52.4988C102.69 53.2822 101.667 53.7409 100.586 53.7759C100.022 53.8125 99.4562 53.7299 98.9265 53.5333C98.3968 53.3367 97.9144 53.0306 97.5108 52.635C97.1071 52.2394 96.7914 51.7629 96.5847 51.2371C96.3773 50.7112 96.2834 50.1477 96.309 49.5831C96.2834 49.0452 96.3714 48.508 96.567 48.0063C96.7626 47.5047 97.0618 47.05 97.4445 46.6716C97.8278 46.2931 98.2859 45.9994 98.79 45.8098C99.294 45.6202 99.8322 45.5389 100.37 45.571Z" fill="black"/>
<path d="M76.3053 47.2223C78.9228 47.1882 80.4704 48.5583 80.454 50.8975C80.4462 51.4275 80.3346 51.9508 80.1246 52.4374C79.9152 52.9241 79.6113 53.3646 79.2306 53.7338C78.8506 54.1029 78.401 54.3932 77.9088 54.5885C77.4159 54.7838 76.8895 54.8801 76.3598 54.8718C75.2919 54.8586 74.2694 54.4373 73.5021 53.6944C72.7342 52.9514 72.28 51.9431 72.2327 50.8761C72.1317 48.4844 73.5015 47.2564 76.3053 47.2223Z" fill="black"/>
</svg>
