<svg width="158" height="156" viewBox="0 0 158 156" fill="none" xmlns="http://www.w3.org/2000/svg">
<g clip-path="url(#clip0_8_2835)">
<path d="M150.89 72.7118C149.409 72.6663 147.945 73.4099 146.532 74.9563C141.424 80.5411 134.575 82.9058 125.595 82.1836C117.954 81.5694 112.521 78.7516 108.989 73.5685C108.032 72.1483 107.387 70.5389 107.097 68.8495C106.807 67.1595 106.877 65.4266 107.305 63.7667C107.597 62.4926 108.163 61.2978 108.963 60.2656C109.762 59.2335 110.776 58.3891 111.935 57.7907C112.064 57.7272 112.17 57.6232 112.236 57.4942C112.301 57.3653 112.324 57.2184 112.299 57.0756C111.43 52.0557 110.236 51.0306 105.559 51.2523C105.198 51.2698 104.839 51.3173 104.48 51.3608C104.176 51.3985 103.873 51.4375 103.569 51.4557C96.8185 51.86 88.0093 51.8808 79.7007 48.4085C71.1318 44.8277 67.0355 38.6941 67.1766 29.6591C67.2045 27.1485 67.4868 24.6474 68.0184 22.1939C69.4398 16.1166 72.1504 10.4185 75.9664 5.48883L76.0479 5.37902C76.981 4.13167 77.6668 3.11128 77.3158 2.27343C77.0005 1.70534 76.553 1.2227 76.0104 0.867421C75.4678 0.512143 74.8474 0.294789 74.2031 0.234242C73.7964 0.222542 73.3866 0.20701 72.976 0.19076C70.4506 0.0952101 67.8429 -0.00423717 65.4302 0.664615C38.785 8.07139 20.756 22.5254 10.3125 44.8516C1.49365 63.7055 -1.37278 79.8384 1.2912 95.6243C5.44065 120.209 18.5467 137.415 40.2451 146.767C53.984 152.688 67.7458 155.662 81.3332 155.662C86.5219 155.662 91.7016 155.227 96.8178 154.358C116.971 150.94 132.829 141.657 143.95 126.765C152.852 114.845 157.256 100.04 157.412 81.5044C157.432 79.2144 156.117 76.7139 154.887 75.1344C153.667 73.5796 152.324 72.7671 150.89 72.7118ZM77.5884 56.8668C83.2797 59.0768 89.6269 60.2418 96.9927 60.4323C98.0352 60.4583 99.0777 60.4524 100.179 60.4453L101.004 60.4399C100.997 60.4769 100.99 60.5139 100.982 60.5497C100.882 61.0469 100.803 61.4403 100.697 61.8173C98.0883 71.0914 100.811 79.191 108.364 84.6237C118.674 92.0396 130.575 93.322 143.733 88.4347C144.359 88.2026 144.957 87.9257 145.65 87.604C145.723 87.5702 145.798 87.539 145.874 87.5C145.781 92.9021 144.917 98.2627 143.308 103.418C136.98 124.495 121.85 138.037 98.3376 143.669C80.1126 148.033 61.1357 145.956 41.9367 137.494C24.6616 129.882 13.9297 115.756 10.04 95.5086C8.40362 86.9416 8.63615 78.1205 10.7214 69.6523C15.7016 49.0885 23.121 35.4443 34.7793 25.4116C44.9205 16.6847 55.362 10.7682 66.6994 7.32519C66.79 7.29789 66.8807 7.27371 66.983 7.24901C62.8101 13.1886 60.246 20.1145 59.5414 27.3479C58.1589 41.1214 64.7372 51.8813 77.5852 56.8668H77.5884Z" fill="black"/>
<path d="M88.9333 131.093H89.0479C95.8645 131.093 101.272 125.035 101.378 117.247C101.448 112.137 95.4779 106.059 90.1714 105.838C87.124 105.698 83.7808 107.155 81.008 109.803C78.085 112.591 76.3211 116.25 76.2887 119.59C76.2266 125.97 81.7838 131.021 88.9333 131.093ZM85.1613 118.542C85.2293 116.222 88.1212 113.061 89.7168 113.061H89.7226C90.5346 113.205 91.2631 113.648 91.7669 114.303C92.5711 115.092 93.0536 116.152 93.1203 117.278C92.8923 119.987 91.0662 121.938 88.8743 121.828C86.5289 121.706 85.1056 120.445 85.1613 118.542Z" fill="black"/>
<path d="M52.5044 83.6222C52.4817 86.9249 53.4756 89.6854 55.3832 91.6055C57.3226 93.5607 60.1485 94.5923 63.5597 94.5923H63.6071C67.154 94.5825 70.1586 93.4268 72.2981 91.25C74.6609 88.845 75.8861 85.3083 75.8395 81.0196C75.7747 74.7673 70.4577 70.7704 62.3146 70.8478C56.4977 70.9004 52.5549 76.0335 52.5044 83.6222ZM60.0384 83.6125C60.0054 81.3069 60.5566 79.3147 61.4774 78.4125C61.6126 78.2649 61.7758 78.1466 61.9573 78.0634C62.1388 77.9809 62.3347 77.9354 62.534 77.9295H62.584C65.5397 78.0433 67.9848 79.9361 68.0359 82.15C68.1078 85.2557 66.4916 87.2401 63.8171 87.3272C62.4689 87.3747 61.5266 87.1231 60.949 86.5693C60.3571 86.0025 60.0585 85.0353 60.0384 83.6125Z" fill="black"/>
<path d="M35.4285 92.4684C33.9091 92.443 32.4 92.7225 30.9893 93.29C29.5787 93.8574 28.2949 94.7011 27.2132 95.7723C26.3452 96.6076 25.6523 97.6079 25.1753 98.7162C24.6984 99.8238 24.447 101.016 24.4358 102.223C24.4636 107.033 27.333 109.902 32.1099 109.902H32.1152C38.2818 109.902 42.771 105.875 42.7911 100.336C42.806 95.9595 39.5715 92.5041 35.4285 92.4684ZM29.716 101.676C29.7426 101.26 29.9313 100.872 30.2413 100.594C30.9756 99.8595 32.6371 99.0899 35.1262 99.0711C35.1968 99.1361 35.2745 99.2102 35.3573 99.2856C35.7549 99.6489 36.3559 100.196 36.4238 100.677C36.453 100.95 36.4217 101.227 36.3321 101.487C36.2426 101.748 36.0972 101.985 35.9059 102.183C35.3747 102.716 34.7429 103.139 34.0474 103.425C33.352 103.711 32.6065 103.856 31.8547 103.851C31.2766 103.904 30.7002 103.735 30.2418 103.377C29.8496 102.902 29.6606 102.291 29.716 101.676Z" fill="black"/>
<path d="M44.4979 37.0415C42.1881 35.5705 39.1462 35.5571 36.1507 37.0059C33.1176 38.4736 32.088 41.136 31.0934 43.7106C30.9587 44.059 30.8247 44.4075 30.6848 44.7507C30.3148 45.6074 30.121 46.5303 30.1157 47.464C30.1103 48.3978 30.2933 49.323 30.6536 50.184C31.074 51.1142 31.6749 51.951 32.421 52.6456C33.1671 53.3402 34.0435 53.8787 34.9991 54.2296C36.2769 54.7511 37.6411 55.0256 39.0204 55.0393C40.7432 55.0531 42.43 54.5443 43.8595 53.579C46.5144 51.7837 48.0588 48.5381 48.0951 44.6739C48.1275 41.301 46.8174 38.5189 44.4979 37.0415ZM42.5767 45.5566C42.521 48.2287 41.2343 49.6789 38.9653 49.6301C38.4287 49.635 37.8964 49.5329 37.3993 49.3299C36.9022 49.1268 36.4505 48.8269 36.0697 48.4472C35.8369 48.2111 35.6544 47.9294 35.5341 47.6199C35.4138 47.3103 35.3582 46.9794 35.3703 46.6474C35.475 45.5112 35.9877 44.452 36.8131 43.6675C37.6384 42.8829 38.7198 42.4265 39.8557 42.3833H39.9259C40.6645 42.3106 41.4018 42.5333 41.9779 43.0028C42.4143 43.4604 42.6046 44.2714 42.5767 45.5578V45.5566Z" fill="black"/>
</g>
<defs>
<clipPath id="clip0_8_2835">
<rect width="158" height="156" fill="white"/>
</clipPath>
</defs>
</svg>
