<svg width="150" height="173" viewBox="0 0 150 173" fill="none" xmlns="http://www.w3.org/2000/svg">
<g clip-path="url(#clip0_8_2841)">
<path d="M30.1458 153.398C25.1308 153.062 20.4821 152.78 15.838 152.431C12.5912 152.186 9.52233 151.464 6.8009 149.459C2.2295 146.09 0.791213 141.264 0.680174 136.007C0.517187 128.332 0.582754 120.646 0.784051 112.971C0.989246 105.186 1.31003 97.3959 1.87627 89.6298C3.08211 73.0868 3.60223 56.5257 4.06132 39.947C4.3904 31.9356 5.86316 24.0128 8.43473 16.4196C10.5815 9.78579 14.8984 5.67804 21.8555 4.53533C23.499 4.26477 25.1445 3.95521 26.8016 3.81993C50.0614 1.97287 73.2953 -0.472549 96.6855 0.405459C101.676 0.593417 106.674 0.999201 111.629 1.62356C117.783 2.39881 120.98 5.86334 121.199 12.0576C121.377 17.1357 121.109 22.2301 121.032 27.7778C122.037 27.7778 123.231 27.6887 124.409 27.7947C128.165 28.1322 131.947 28.3527 135.661 28.9654C141.624 29.9513 145.272 33.544 146.853 39.4325C148.137 44.4993 148.906 49.6836 149.146 54.9056C150.185 71.9558 149.009 88.9202 147.445 105.895C146.834 112.529 146.796 119.228 146.658 125.902C146.519 132.576 146.723 139.263 146.481 145.933C146.353 149.71 145.895 153.467 145.113 157.163C143.365 165.312 137.884 170.196 129.374 171.171C123.422 171.921 117.436 172.362 111.438 172.494C93.9946 172.676 76.5452 172.758 59.1041 172.485C53.3743 172.396 47.6036 171.399 41.9614 170.278C35.3542 168.965 31.2697 163.932 30.5327 157.17C30.3996 155.969 30.2847 154.766 30.1458 153.398ZM41.3529 105.059H40.9269C40.7023 112.397 40.4771 119.735 40.2516 127.073C39.9763 135.633 39.6627 144.191 39.4159 152.752C39.375 154.189 39.6153 155.633 39.6815 157.076C39.8114 159.93 41.3775 161.708 44.0457 162.227C48.6126 163.117 53.2075 164.166 57.8295 164.406C67.4738 164.906 77.1472 165.201 86.8011 165.067C98.7881 164.9 110.771 164.269 122.749 163.708C125.296 163.54 127.819 163.116 130.282 162.443C133.31 161.671 135.384 159.649 135.906 156.506C136.611 152.801 137.066 149.051 137.266 145.284C137.484 137.614 137.257 129.932 137.4 122.261C137.508 116.482 137.66 110.684 138.223 104.936C139.689 89.9771 140.673 75.0022 139.956 59.9668C139.691 54.4224 139.335 48.8753 137.865 43.4636C137.203 41.0305 135.982 39.5275 133.309 39.4781C126.88 39.359 120.447 38.9747 114.023 39.0996C102.919 39.3149 91.8284 39.8527 80.7303 40.2214C72.8478 40.4816 64.9608 40.6117 57.0821 40.9538C53.5471 41.1072 49.9354 41.2972 46.7133 43.0057C45.6055 43.591 44.0834 44.551 43.9127 45.5422C43.455 48.6629 42.6768 51.7279 41.5906 54.6885C41.4129 55.4482 41.3653 56.2326 41.4497 57.0083C41.4088 59.5663 41.3601 62.1248 41.3581 64.6827C41.3486 78.1396 41.3468 91.5985 41.3529 105.059ZM30.0204 143.928C30.1457 141.672 30.2659 139.9 30.3393 138.126C30.7163 129.01 31.0875 119.894 31.4529 110.777C32.0328 96.6584 32.5653 82.5381 33.2211 68.4236C33.6341 59.539 33.9211 50.6261 35.8263 41.8935C36.1773 40.4047 36.8478 39.0103 37.7912 37.8072C40.4583 34.4555 44.2976 32.2443 48.5315 31.6215C54.1141 30.6969 59.7464 30.1038 65.3991 29.8454C79.8271 29.169 94.2667 28.7541 108.701 28.2195C109.563 28.1876 110.421 28.0243 111.606 27.8851C111.958 22.5832 112.02 17.4317 110.91 11.8788C105.351 11.5341 99.8271 11.0605 94.2933 10.8706C72.8121 10.1324 51.4516 12.3483 30.0562 13.6744C27.5185 13.8311 25.0106 14.4314 22.4782 14.7325C19.5464 15.0818 18.0049 16.8625 17.1503 19.5213C14.9877 26.07 13.659 32.8659 13.1958 39.748C12.2295 55.9592 11.2379 72.1737 10.6464 88.4019C10.1028 103.295 10.0393 118.213 9.84837 133.121C9.87869 135.122 10.1181 137.114 10.5627 139.066C11.0776 141.637 12.5036 142.885 15.1373 143.141C18.5627 143.474 21.999 143.702 25.4341 143.913C26.8484 144.003 28.2743 143.928 30.0204 143.928Z" fill="black"/>
</g>
<defs>
<clipPath id="clip0_8_2841">
<rect width="150" height="173" fill="white"/>
</clipPath>
</defs>
</svg>
