<svg width="158" height="156" viewBox="0 0 158 156" fill="none" xmlns="http://www.w3.org/2000/svg">
<g clip-path="url(#clip0_8_2843)">
<path d="M7.17429 35.4247C10.8896 35.4981 14.6652 35.476 18.3154 35.4559C19.947 35.4468 21.5776 35.4402 23.2075 35.4363H30.1258C30.1397 35.6183 30.1533 35.798 30.1667 35.9752C30.2253 36.7344 30.2812 37.4526 30.315 38.1715L30.7592 47.4737C31.6396 65.9563 32.5148 84.4378 33.3848 102.919C33.5057 105.519 33.5933 108.171 33.6772 110.734C33.737 112.554 33.7977 114.379 33.8725 116.201C34.0578 120.871 36.0374 122.804 40.7053 122.875C41.8893 122.892 43.0968 122.94 44.2659 122.989C45.8329 123.054 47.4426 123.119 49.0551 123.11C65.2143 123.039 81.3738 122.955 97.5327 122.859L115.158 122.762C116.092 122.756 117.026 122.758 117.973 122.762H118.733C118.746 122.957 118.759 123.13 118.77 123.292C118.812 123.854 118.842 124.263 118.854 124.672C118.917 126.839 118.978 129.006 119.038 131.172C119.181 136.34 119.328 141.685 119.527 146.94C119.56 148.556 119.846 150.157 120.375 151.685C120.791 152.777 121.525 153.718 122.483 154.388C123.44 155.058 124.577 155.426 125.745 155.442C125.825 155.442 125.906 155.442 125.987 155.437C127.256 155.387 128.472 154.913 129.44 154.09C130.407 153.268 131.072 152.144 131.325 150.9C131.612 149.26 131.709 147.594 131.615 145.932V145.819C131.544 141.876 131.452 137.932 131.361 133.989C131.282 130.622 131.208 127.256 131.139 123.89C131.161 123.614 131.227 123.343 131.334 123.087C131.337 123.076 131.341 123.066 131.345 123.055H135.593C140.113 123.055 144.565 123.055 149.024 123.048H149.556C150.528 123.08 151.501 123.026 152.464 122.887C155.493 122.357 157.627 120.152 157.539 117.641C157.455 115.254 155.305 113.347 152.313 113.004C150.075 112.786 147.826 112.687 145.578 112.708C142.132 112.68 138.733 112.685 135.138 112.691C133.871 112.691 132.591 112.692 131.297 112.695C131.28 112.513 131.265 112.35 131.252 112.201C131.208 111.707 131.177 111.376 131.167 111.044C130.983 104.922 130.801 98.8002 130.622 92.6778C130.157 76.9134 129.676 60.6122 129.135 44.578C128.966 40.2349 128.542 35.9055 127.864 31.6124C127.279 27.7365 125.596 26.2388 121.447 25.8924L120.927 25.8449C120.431 25.7975 119.918 25.7494 119.399 25.7435C106.909 25.6066 94.4182 25.471 81.9284 25.3367C68.6057 25.1937 55.283 25.0491 41.9603 24.9031C41.4148 24.8973 40.8495 24.8531 40.2506 24.8069L39.9011 24.7789C39.9011 23.4477 39.9043 22.1287 39.9113 20.8218C39.925 16.9569 39.9374 13.3058 39.8659 9.58718C39.8404 7.65271 39.5713 5.72917 39.0649 3.86198C38.4056 1.49403 36.6032 0.251847 34.3645 0.616497C31.7897 1.0364 31.6402 3.14245 31.5316 4.68035L31.5262 4.75835C31.2662 8.37818 31.0324 11.9993 30.797 15.6218C30.6582 17.7495 30.5182 19.8769 30.3769 22.0041C30.3184 22.868 30.2375 23.7318 30.1563 24.6041L30.0972 25.2502L29.6785 25.2782C29.1388 25.3152 28.7141 25.3432 28.2882 25.3568C26.1165 25.4244 23.9444 25.4866 21.7719 25.5434C17.0143 25.6734 12.0963 25.8099 7.2594 26.0198C3.26647 26.1934 0.724134 28.0205 0.62335 30.7882C0.58797 31.3072 0.659666 31.828 0.834162 32.3181C1.00866 32.8082 1.28226 33.2572 1.63771 33.6372C2.7073 34.7747 4.57153 35.374 7.17429 35.4247ZM117.042 35.1049C118.004 41.5828 119.356 103.804 118.71 112.351L45.3288 113.736L40.2624 35.075C55.3628 34.5719 70.4647 34.7669 85.078 34.956C95.5685 35.0919 106.411 35.2297 117.042 35.1062V35.1049Z" fill="black"/>
</g>
<defs>
<clipPath id="clip0_8_2843">
<rect width="158" height="156" fill="white"/>
</clipPath>
</defs>
</svg>
