<svg width="153" height="136" viewBox="0 0 153 136" fill="none" xmlns="http://www.w3.org/2000/svg">
<g clip-path="url(#clip0_8_2867)">
<path d="M127.219 44.3154C124.941 44.3515 123.599 43.7465 122.784 42.1667C122.008 40.665 122.515 39.3174 123.34 38.075C123.772 37.4195 124.336 36.8608 124.996 36.4341C128.498 34.2348 131.988 32.0031 135.603 30.002C136.8 29.418 138.14 29.1901 139.463 29.3456C140.076 29.4155 140.663 29.6294 141.178 29.9698C141.692 30.3102 142.119 30.7675 142.423 31.3043C142.727 31.841 142.9 32.4421 142.928 33.0584C142.955 33.6747 142.836 34.2887 142.581 34.8503C141.936 36.2693 140.915 37.4842 139.627 38.3625C136.39 40.3262 132.964 41.9861 129.568 43.6749C128.814 43.9846 128.025 44.1999 127.219 44.3154Z" fill="black"/>
<path d="M20.9861 49.0557C20.2641 48.6488 18.6286 48.0766 17.4774 46.9883C15.624 45.1992 13.9417 43.2409 12.4525 41.139C11.6584 40.0694 11.2033 38.7865 11.1456 37.4558C11.1725 35.0273 13.7303 33.2755 16.3182 34.1412C18.4657 34.8044 20.4609 35.8855 22.189 37.3226C23.9172 38.7596 25.3441 40.5243 26.3878 42.5148C28.133 45.9225 25.7281 49.166 20.9861 49.0557Z" fill="black"/>
<path d="M113.819 0.347784C117.261 0.326781 119.332 2.90155 118.651 5.60698C118.463 6.48383 118.059 7.29979 117.476 7.98093C115.145 10.3884 112.793 12.7946 110.256 14.9782C109.025 16.0375 107.47 16.829 105.6 16.1989C103.423 15.4652 102.372 13.6747 103.079 11.5068C103.261 10.8575 103.567 10.2495 103.98 9.71629C106.17 7.17823 108.33 4.60276 110.692 2.23075C111.663 1.25543 113.113 0.757994 113.819 0.347784Z" fill="black"/>
<path d="M52.6734 13.0432C52.4765 15.0319 51.6449 16.5041 49.8511 17.3698C48.1735 18.1784 46.7216 17.6231 45.556 16.4692C43.0242 14.0695 41.1212 11.0841 40.0146 7.77598C39.2762 5.43745 39.9706 3.48298 41.6646 2.43218C43.4663 1.31641 45.4248 1.47316 47.1358 3.305C49.7461 6.10362 51.9357 9.20883 52.6734 13.0432Z" fill="black"/>
<path d="M152.193 64.8184C152.142 63.1289 151.842 61.4563 151.303 59.8545C150.521 57.7299 149.111 56.2866 147.344 55.8016C145.557 55.3087 143.587 55.8416 141.8 57.2915C140.451 58.3843 139.129 59.5782 137.855 60.7313C137.329 61.2032 136.804 61.6823 136.279 62.1476L129.279 68.3722C123.566 73.4509 117.849 78.5296 112.128 83.6077C111.718 83.951 111.285 84.2667 110.833 84.5515C110.651 84.673 110.462 84.7944 110.273 84.9296C110.145 85.0169 110 85.074 109.847 85.0963C109.694 85.1193 109.538 85.1075 109.39 85.0609C109.241 85.0149 109.106 84.9348 108.993 84.8272C108.881 84.7196 108.795 84.587 108.742 84.4406C107.467 80.9535 106.227 77.4834 104.986 74.0272C102.229 66.348 99.3748 58.4013 96.3878 50.713C92.2259 40.0147 87.7615 29.6366 83.5669 20.0127C82.4721 17.6869 80.9849 15.5674 79.1694 13.7474C77.5371 12.0409 75.7499 11.9129 73.3825 13.3496C71.4542 14.5094 70.6311 16.5191 69.7608 18.6437L69.6801 18.8406C68.8104 20.9448 67.95 23.0535 67.0974 25.1669C64.4871 31.5741 61.7895 38.2104 58.9233 44.6444C54.5915 54.3759 49.9059 64.1488 45.4749 73.3262C43.9713 76.4418 42.3324 79.436 40.599 82.6062C39.8114 84.0501 39.0074 85.5196 38.2047 87.0305C38.14 87.1539 38.0505 87.2622 37.942 87.3489C37.8335 87.4355 37.7082 87.4992 37.5739 87.5353C37.4397 87.5714 37.2995 87.5792 37.162 87.5589C37.0246 87.5379 36.8929 87.4893 36.7752 87.4151L33.9286 85.6273C32.1211 84.501 30.4757 83.4765 28.8368 82.4375C26.5304 80.9811 24.2238 79.522 21.917 78.0604C17.3988 75.1941 12.8758 72.3391 8.34789 69.4952C7.33266 68.7522 6.12934 68.3078 4.87454 68.214C3.95036 68.2435 3.06838 68.6078 2.39293 69.2392C0.402908 70.8708 -0.156932 72.8878 0.68646 75.4088C1.22597 77.0338 1.9545 78.653 2.65547 80.2243L2.6896 80.2899C3.25602 81.5652 3.87625 82.8529 4.46958 84.1006C5.58929 86.4543 6.75627 88.8919 7.69352 91.386C8.2938 92.9638 8.89639 94.5443 9.50107 96.1274C13.3656 106.25 17.3581 116.717 19.9683 127.494C20.8518 131.15 22.9626 133.126 26.4221 133.537C27.3731 133.652 28.3255 133.774 29.2687 133.895C33.1493 134.479 37.066 134.793 40.9902 134.832C49.9059 134.718 58.9699 134.387 67.738 134.07C71.5953 133.928 75.4506 133.794 79.304 133.666C85.6304 133.463 91.9569 133.27 98.2826 133.086L105.546 132.863C106.133 132.849 106.72 132.829 107.313 132.816C107.954 132.802 108.602 132.782 109.249 132.762C111.495 132.697 113.741 132.607 115.986 132.526C121.499 132.324 127.188 132.114 132.799 132.081C135.389 132.067 137.217 131.162 138.559 129.242C139.484 127.831 140.187 126.287 140.643 124.662L141.372 122.275C144.346 112.536 147.415 102.46 149.222 92.2629C149.398 91.2711 149.579 90.2866 149.755 89.2949C151.195 81.3283 152.692 73.0728 152.193 64.8184ZM129.714 120.384C129.65 120.562 129.536 120.718 129.387 120.834C129.238 120.95 129.059 121.022 128.871 121.041C128.062 121.129 127.226 121.23 126.382 121.331C124.454 121.567 122.451 121.81 120.427 121.897C117.109 122.039 113.737 122.14 110.479 122.225C106.136 122.357 101.644 122.481 97.2404 122.724C92.1085 123.014 86.888 123.439 81.8433 123.85C78.9436 124.087 76.0433 124.323 73.1436 124.532C68.9082 124.842 65.3738 125.092 61.6917 125.206C52.6205 125.497 43.4009 125.731 34.4852 125.962L30.0681 126.076H29.9663C29.5561 126.068 29.1476 126.02 28.7462 125.934C28.611 125.907 28.4765 125.88 28.3478 125.869C28.1564 125.842 27.9765 125.762 27.8295 125.636C27.6825 125.51 27.5745 125.346 27.5182 125.16L15.8039 87.0555C15.7417 86.8592 15.7414 86.6479 15.8032 86.451C15.8649 86.2541 15.9856 86.0815 16.149 85.9555C16.3123 85.8294 16.5105 85.7566 16.7166 85.7474C16.9226 85.7375 17.1266 85.7914 17.301 85.9016L18.8184 86.8395C19.8233 87.4598 20.7474 88.0262 21.6578 88.6064C22.9524 89.4295 24.2475 90.2479 25.5426 91.0611C28.7528 93.0911 32.0778 95.1822 35.2814 97.3534C37.3311 98.7429 39.1255 99.2758 40.6023 98.9385C42.0462 98.6103 43.3202 97.4683 44.4872 95.452L45.5373 93.651C47.5201 90.2518 49.5705 86.7312 51.2763 83.1496C56.9208 71.2528 62.5798 59.1135 68.0498 47.3716C70.2078 42.7382 72.3704 38.1049 74.5377 33.4717C74.7195 33.0779 74.9085 32.6957 75.1782 32.1634L75.6974 31.1179C75.7808 30.9424 75.9146 30.7956 76.0814 30.696C76.2487 30.5964 76.441 30.5485 76.6353 30.5582C76.8289 30.5629 77.0173 30.6232 77.1774 30.732C77.3376 30.8409 77.4629 30.9935 77.5384 31.1717C78.3346 33.0469 79.1373 34.861 79.9262 36.6416C81.6392 40.514 83.2578 44.168 84.6407 47.9649C87.8036 56.6719 90.8988 65.5547 93.9003 74.1525C95.6199 79.0764 97.3467 84.0022 99.0801 88.9293C99.9366 91.4418 100.936 93.903 102.074 96.3006C102.448 97.1755 103.023 97.95 103.752 98.5617C104.48 99.1734 105.343 99.6046 106.27 99.8212C108.084 100.179 109.999 99.5515 111.671 98.0609C114.214 95.7953 116.743 93.5086 119.272 91.2291C121.491 89.226 123.71 87.2274 125.929 85.2335C128.754 82.7118 131.589 80.1954 134.433 77.6856L138.24 74.3199C138.38 74.1958 138.552 74.1125 138.736 74.0797C138.92 74.0462 139.111 74.0646 139.285 74.1315L139.986 74.4078C140.201 74.4918 140.381 74.6461 140.496 74.8463C140.612 75.0465 140.655 75.2795 140.62 75.5072C138.549 88.7265 135.635 104.4 129.714 120.384Z" fill="black"/>
</g>
<defs>
<clipPath id="clip0_8_2867">
<rect width="152.927" height="135.206" fill="white"/>
</clipPath>
</defs>
</svg>
