<svg width="76" height="157" viewBox="0 0 76 157" fill="none" xmlns="http://www.w3.org/2000/svg">
<g clip-path="url(#clip0_6_1951)">
<path d="M56.0466 8.38989C55.5583 7.33975 55.0698 6.28916 54.6025 5.23508C53.6449 3.07835 51.8563 1.55335 48.9743 0.435612C48.5664 0.239974 48.121 0.134411 47.6686 0.12603C47.2164 0.11765 46.7677 0.206505 46.3528 0.386899C45.9933 0.59051 45.6824 0.869863 45.4414 1.2054C45.2004 1.54094 45.035 1.92461 44.9568 2.33027C44.6217 3.68037 44.4528 5.06633 44.453 6.45739C44.4024 9.81257 44.3779 13.1684 44.3543 16.5236C44.3129 22.1517 44.2718 27.9723 44.0973 33.6884C43.8498 41.827 43.5283 50.0964 43.2179 58.0965C42.8956 66.3989 42.561 74.9851 42.309 83.4315C41.8843 97.6557 41.5694 112.119 41.2649 126.108L41.0136 137.572C40.9369 141.061 40.9393 144.693 41.0226 148.368C40.9594 149.717 41.2371 151.061 41.8296 152.275C42.2004 152.891 43.5424 154.93 45.2567 155.295C45.4748 155.341 45.6971 155.365 45.9202 155.366C47.708 155.366 48.9394 153.749 49.3615 152.079C49.7112 150.618 49.8857 149.119 49.8812 147.616C49.925 141.433 49.9546 135.251 49.969 129.068C49.9818 125.269 49.996 121.47 50.0126 117.671C50.0166 116.886 50.0683 116.11 50.1274 115.21C50.1438 114.961 50.1603 114.704 50.1767 114.438C51.9147 114.438 53.6348 114.447 55.3364 114.464C59.8074 114.493 64.0289 114.522 68.3317 114.392C73.3034 114.243 75.1241 112.38 75.2889 107.272C75.2987 106.455 75.258 105.636 75.1655 104.824L75.1077 104.176C75.0106 103.011 74.9049 101.847 74.7986 100.683C74.6017 98.5385 74.4002 96.3201 74.2682 94.1397L74.1265 91.7664C73.4701 80.7281 72.7856 69.3137 70.2541 58.3183C67.4791 46.2778 64.2221 33.5553 60.0064 18.2817C58.9608 14.8812 57.6363 11.5725 56.0466 8.38989ZM67.0728 105.717H50.5164C50.3609 95.1419 50.6797 84.1115 50.9882 73.4388C51.1241 68.7355 51.2647 63.873 51.3651 59.0804C51.5935 48.0727 51.8149 37.0652 52.0297 26.0571L52.233 15.8102C60.0216 42.2245 67.5067 73.175 67.0715 105.717H67.0728Z" fill="black"/>
<path d="M6.9283 26.1679C6.55025 22.8206 6.38155 19.3875 6.21812 16.0645C6.1433 14.5254 6.06782 12.9861 5.97199 11.4483C5.93218 10.7999 5.89402 10.1515 5.85726 9.50302C5.73584 7.38042 5.60965 5.18671 5.37206 3.03195C5.28231 2.53925 5.06283 2.07908 4.73623 1.69941C4.40964 1.31975 3.98769 1.0343 3.51393 0.871939C2.68957 0.709168 1.90339 1.57973 1.26675 2.28332C0.895403 2.76817 0.691453 3.36025 0.686681 3.97096C0.621047 6.14344 0.548066 8.3157 0.473243 10.4882C0.26781 16.3952 0.0548587 22.4992 0.102772 28.5093C0.137828 30.647 0.644284 32.7506 1.58594 34.6702C2.5276 36.5896 3.88112 38.2777 5.55025 39.6138C7.2337 40.9245 9.04296 42.0651 10.9509 43.0198C11.7385 43.4497 12.5513 43.8912 13.3731 44.3697C13.2937 46.6511 13.1972 48.951 13.1 51.2613C12.8756 56.6071 12.6409 62.1342 12.6238 67.6145C12.5529 87.2521 12.5646 107.219 12.5764 126.527C12.5807 133.818 12.5842 141.109 12.586 148.399C12.586 148.646 12.5855 148.894 12.5809 149.142C12.5737 149.906 12.566 150.694 12.6283 151.481C12.8476 154.231 14.3974 156.051 16.501 156.051C16.5423 156.051 16.5827 156.051 16.6241 156.051C18.8156 155.978 20.2524 154.086 20.2858 151.231C20.3035 149.661 20.258 148.072 20.2147 146.536C20.1766 145.204 20.137 143.828 20.1397 142.478C20.176 125.181 20.2219 107.885 20.2775 90.589L20.3165 76.8492C20.3231 74.6124 20.3282 72.3756 20.3313 70.1388C20.3412 64.1752 20.3523 58.0103 20.412 51.9477C20.4317 49.9827 20.5629 47.9764 20.6896 46.0356C20.7388 45.2782 20.7879 44.5208 20.8312 43.7627C27.5403 41.3448 31.5418 36.4832 33.7772 28.0683C35.9241 19.9849 36.0092 11.9643 35.8123 5.18428L35.8065 4.93944C35.7934 4.22337 35.7772 3.3304 35.2528 2.79352C34.3162 1.83461 33.2184 0.806174 32.0133 0.740541C30.8707 0.674907 29.5676 2.05306 29.0695 3.0717C28.7437 3.87709 28.5951 4.74324 28.6336 5.61116C28.6244 5.94523 28.6165 6.27919 28.5823 6.60082C28.4097 8.27514 28.2596 9.9534 28.11 11.6323C27.7575 15.5703 27.3936 19.6396 26.7287 23.5816C26.2975 26.1321 25.2062 28.6597 24.1501 31.1039C23.9421 31.5863 23.7344 32.0682 23.5316 32.548C23.3291 33.0705 23.0213 33.5461 22.6272 33.9446C22.2331 34.343 21.7611 34.6561 21.2408 34.8644C21.2382 34.4903 21.2355 34.1231 21.2325 33.7625C21.2206 32.4308 21.209 31.1728 21.2517 29.9271C21.2924 28.7417 21.3397 27.5564 21.387 26.371C21.6593 19.5786 21.9405 12.5546 20.8851 5.63616C20.7886 4.54784 20.4665 3.49178 19.9397 2.53457C19.6253 2.16233 19.2264 1.87114 18.7757 1.68595C18.325 1.50076 17.8362 1.42695 17.3509 1.47059C16.3631 1.5697 15.7039 2.94858 15.5824 3.22424C15.4167 3.68068 15.3623 4.17 15.4241 4.65165C15.4333 4.81508 15.4428 4.97998 15.4376 5.13685C15.3575 7.31938 15.279 9.5021 15.2024 11.6855C14.9936 17.5774 14.7778 23.6701 14.5153 29.6585C14.4497 31.1024 14.2611 32.5462 14.059 34.0689C13.9986 34.5191 13.9391 34.9727 13.8813 35.4335C9.72279 33.7802 7.44418 30.7413 6.9283 26.1679Z" fill="black"/>
</g>
<defs>
<clipPath id="clip0_6_1951">
<rect width="75.4789" height="156.208" fill="white"/>
</clipPath>
</defs>
</svg>
