<svg width="152" height="145" viewBox="0 0 152 145" fill="none" xmlns="http://www.w3.org/2000/svg">
<g clip-path="url(#clip0_8_2333)">
<path d="M137.924 12.2457C132.592 12.9785 128.162 13.5512 123.746 14.2069C120.767 14.6491 117.812 15.2428 114.835 15.696C113.786 15.9073 112.709 15.9359 111.651 15.7806C110.337 15.5114 109.177 14.6381 109.2 13.1771C109.192 12.1314 109.563 11.1184 110.244 10.3252C111.229 9.49923 112.39 8.90887 113.639 8.5988C115.906 7.93854 118.239 7.49816 120.545 6.97513C127.883 5.30244 135.22 3.62959 142.558 1.95648C148.202 0.661836 151.477 2.7629 151.824 8.52987C152.133 13.6774 151.894 18.864 151.754 24.0296C151.614 29.1952 151.337 34.3531 151.037 39.5103C150.888 40.8671 150.66 42.2139 150.353 43.5437C148.552 43.9405 147.848 43.0907 147.549 42.031C146.732 39.1368 146.012 36.2134 145.331 33.283C144.749 30.7863 144.28 28.2643 143.625 25.0963C142.285 26.4803 141.153 27.3865 140.345 28.5226C132.606 39.4047 124.944 50.3411 117.211 61.2278C113.594 66.3202 109.914 71.368 106.173 76.3705C104.798 78.2982 103.23 80.0816 101.496 81.6928C98.6102 84.2465 95.3561 84.3468 91.983 82.1543C90.1848 80.9859 88.573 79.5314 86.8732 78.2057C81.7893 74.2473 76.6323 70.399 70.6499 67.2116C69.5465 68.2169 68.4986 69.2817 67.5123 70.4016C58.9678 81.217 50.4461 92.0506 41.947 102.902C38.2175 107.641 34.5217 112.409 30.6712 117.049C29.2978 118.697 27.7042 120.148 25.9353 121.36C23.7633 122.845 22.665 122.326 20.1379 119.106C20.5734 117.985 21.1019 116.903 21.7181 115.869C34.6814 97.3431 47.6721 78.8355 60.6902 60.3469C66.1844 52.5616 69.1636 51.8023 77.4071 56.3925C82.2873 59.1112 86.8958 62.3154 91.6136 65.3214C92.8684 66.1215 94.0754 66.996 95.6083 68.0447L137.924 12.2457Z" fill="black"/>
<path d="M143.362 142.413C143.289 142.143 143.243 141.866 143.199 141.61C143.085 140.939 142.977 140.306 142.443 140.047C141.059 139.388 139.615 138.862 138.132 138.476C128.341 135.849 118.146 135.273 108.539 134.908C106.625 134.835 104.711 134.761 102.796 134.685C85.8221 134.017 68.269 133.326 50.9692 134.4C40.8467 135.027 30.5462 135.557 20.5854 136.069C17.8106 136.212 15.036 136.356 12.2616 136.499C11.5965 136.517 10.931 136.482 10.2714 136.395L9.7507 136.343C9.70543 136.175 9.65951 136.017 9.61617 135.868C9.49243 135.532 9.42323 135.178 9.41113 134.82C9.75911 130.283 10.1194 125.746 10.4919 121.21C11.0527 114.268 11.6329 107.089 12.1335 100.022C13.9368 74.5715 14.0959 52.1354 12.6205 31.4315C11.9162 22.1438 10.3009 12.9479 7.79799 3.97664C7.52678 3.14344 7.13449 2.3546 6.63367 1.63579C6.44353 1.33284 6.25601 1.03404 6.09237 0.734974L5.82779 0.248535L5.30715 0.435019C2.76584 1.3445 2.77552 3.24527 2.78458 4.63312V4.93656C2.74836 15.286 2.72249 25.6346 2.70697 35.9827C2.70244 38.4775 2.71536 40.9723 2.72765 43.467C2.75288 48.4313 2.77876 53.5654 2.66298 58.6061C2.326 73.5073 1.88294 87.8934 1.33897 105.148C1.08478 113.204 0.751664 121.461 0.348703 129.688C0.181827 133.097 0.201831 137.592 1.85313 142.132L1.9178 142.307L2.06529 142.421C5.20554 144.865 8.38076 144.875 10.9337 144.862C14.2277 144.862 17.5221 144.854 20.817 144.839C24.6331 144.828 28.4493 144.819 32.2655 144.816C56.6864 144.821 81.1069 144.834 105.528 144.853H109.837C111.828 144.853 113.82 144.862 115.813 144.879C117.883 144.891 119.989 144.904 122.104 144.904C124.266 144.904 126.437 144.891 128.593 144.85C133.388 144.72 138.164 144.173 142.865 143.213L143.548 143.084L143.362 142.413Z" fill="black"/>
</g>
<defs>
<clipPath id="clip0_8_2333">
<rect width="152" height="145" fill="white"/>
</clipPath>
</defs>
</svg>
