<svg width="155" height="90" viewBox="0 0 155 90" fill="none" xmlns="http://www.w3.org/2000/svg">
<g clip-path="url(#clip0_8_2850)">
<path d="M154.96 76.5554C154.557 79.0074 154.025 81.4374 153.367 83.8344C152.69 86.0358 151.269 86.4243 148.906 85.9575C147.501 85.6823 146.07 85.5722 144.64 85.6286C134.998 86.0067 125.362 86.614 115.715 86.8335C99.6315 87.2 83.5478 87.2803 67.4642 87.5768C55.0437 87.8061 42.6254 88.1201 30.2089 88.5189C23.7819 88.7255 17.3679 89.2189 10.9409 89.54C9.3889 89.6073 7.83442 89.5938 6.2838 89.4999C1.95742 89.2642 0.273796 87.6966 0.228398 83.33C0.153872 80.3393 0.404398 77.3492 0.975536 74.4129C6.63009 47.7111 19.3803 25.2981 43.3677 11.2711C67.6295 -2.91655 93.1105 -3.31368 118.455 9.14909C128.297 13.9884 135.91 21.5271 142.265 30.4183C149.847 41.0266 153.355 52.9346 154.112 65.7955C154.297 68.8886 154.596 71.9745 154.96 76.5554ZM84.3948 68.6982C92.2817 62.6338 99.7366 56.8827 107.223 51.1706C108.11 50.5056 109.074 49.9509 110.095 49.5184C112.105 48.6501 113.853 49.0158 114.927 50.3878C115.458 51.1108 115.71 52.0013 115.637 52.8952C115.563 53.7891 115.169 54.6263 114.526 55.253C113.313 56.5409 111.973 57.7038 110.528 58.7247C104.271 63.3141 97.9667 67.839 91.6947 72.4076C91.1746 72.8311 90.685 73.2901 90.2297 73.7829C90.8932 76.0296 91.4775 78.009 92.1961 80.4416L145.823 78.165C146.27 74.3449 144.962 61.8535 143.757 58.3131C142.122 58.9282 140.487 59.5479 138.85 60.1598C136.464 61.0507 134.115 62.0697 131.68 62.7838C130.715 63.0905 129.672 63.0263 128.753 62.604C127.834 62.1816 127.106 61.4314 126.712 60.5009C125.947 58.7087 126.495 56.9443 128.334 55.591C129.056 55.0776 129.829 54.6386 130.64 54.2806C133.155 53.1235 135.695 52.0208 138.219 50.8832C139.492 50.3089 140.753 49.7047 142.151 49.0527C138.117 39.0167 132.715 30.2867 124.504 23.1534C122.632 25.7654 120.919 28.2123 119.14 30.6092C118.453 31.6112 117.644 32.5247 116.732 33.3288C114.989 34.7448 113.23 34.818 111.834 33.7743C110.439 32.7305 109.992 30.5621 111.052 28.6468C111.81 27.4267 112.7 26.2934 113.706 25.2675C115.522 23.2338 117.394 21.2532 119.484 18.9922C107.551 11.6109 95.1767 8.02914 81.3091 8.22273C81.7663 12.0267 82.254 15.4095 82.5413 18.8095C82.6652 20.3347 82.5705 21.8698 82.2605 23.3684C81.8584 25.3063 80.4336 26.3612 78.4724 26.5581C77.5204 26.6466 76.567 26.4029 75.7745 25.8685C74.9826 25.3342 74.4003 24.5424 74.1272 23.6276C73.7459 22.3684 73.561 21.0581 73.5798 19.7427C73.5092 16.2353 73.5559 12.7259 73.5559 8.85849C59.4378 10.8599 47.3899 15.9906 36.6404 25.2185C38.7008 27.0962 40.4668 28.5853 42.0881 30.2261C43.2044 31.2703 44.1504 32.4823 44.8918 33.8182C45.248 34.5247 45.3414 35.3346 45.1551 36.1033C44.9689 36.8721 44.5151 37.5499 43.8748 38.0158C42.5869 39.0854 41.0615 39.4784 39.5621 38.5415C38.4481 37.8318 37.4259 36.988 36.5185 36.0287C34.7934 34.2255 33.1818 32.3135 31.4126 30.3218C24.3339 38.0777 18.5478 46.9176 14.275 56.5041C15.5766 57.0286 16.6746 57.4916 17.7907 57.9163C19.8615 58.7056 21.9842 59.3749 23.9972 60.2884C25.1088 60.7607 26.0933 61.4881 26.8709 62.4111C28.3988 64.395 27.426 66.8289 24.9402 67.0976C23.527 67.1714 22.1171 66.9014 20.8311 66.3122C17.8874 65.082 15.0397 63.616 11.9656 62.1572C9.28974 69.11 7.27084 75.9027 6.80974 83.3365C26.0498 82.3005 44.9397 81.2859 63.8309 80.2739C67.1717 69.1197 76.6416 66.3174 84.3948 68.6982ZM83.7184 80.1794C83.0854 75.882 81.3305 74.5081 77.4925 75.2753C76.0527 75.5266 74.6876 76.0976 73.4988 76.9465C72.31 77.7953 71.3275 78.8999 70.6245 80.1794H83.7184Z" fill="black"/>
</g>
<defs>
<clipPath id="clip0_8_2850">
<rect width="155" height="90" fill="white"/>
</clipPath>
</defs>
</svg>
