<svg width="153" height="155" viewBox="0 0 153 155" fill="none" xmlns="http://www.w3.org/2000/svg">
<g clip-path="url(#clip0_8_2847)">
<path d="M146.977 8.64794L147.675 8.51304C148.476 8.35804 149.231 8.21147 149.969 8.03896C150.77 7.87683 151.493 7.45016 152.022 6.82776C152.551 6.20529 152.855 5.42313 152.887 4.60663C152.918 3.79013 152.675 2.98673 152.195 2.32536C151.716 1.66399 151.028 1.18296 150.242 0.959567C148.699 0.499892 147.098 0.269647 145.488 0.276516C141.446 0.374445 137.339 0.51743 133.365 0.655565C127.968 0.842344 122.388 1.03614 116.902 1.1198C92.0857 1.49984 64.9781 1.84758 34.0279 2.18222C27.1792 2.25681 20.2223 2.08473 14.0841 1.93427C12.1288 1.88628 10.134 1.72665 8.20593 1.57295C6.96832 1.47437 5.73068 1.37868 4.49241 1.3041C1.84798 1.15494 0.824298 2.60113 0.43726 3.84632C-0.141028 5.70761 0.688815 7.48116 2.60196 8.47601C3.16695 8.75728 3.74771 9.0056 4.34135 9.21988L4.7044 9.36016C4.7044 10.6105 4.70702 11.8539 4.7122 13.0905C4.71933 15.9998 4.72774 19.0078 4.69857 21.9489C4.61948 30.0693 4.43927 38.327 4.26228 46.3124C3.76633 68.8734 3.25415 92.2025 4.9754 115.158C5.26389 119.005 6.50478 120.359 10.0808 120.732C13.0837 121.075 16.1049 121.233 19.1273 121.205C27.8301 121.016 36.6763 120.76 45.2313 120.512C48.7286 120.409 52.2267 120.309 55.7254 120.211C56.2207 120.197 56.7173 120.199 57.3559 120.203C57.1445 120.462 56.939 120.715 56.7406 120.958C55.8259 122.078 55.0356 123.044 54.3017 124.061C49.7578 130.352 44.607 137.486 39.5988 144.617C38.716 145.968 38.0387 147.443 37.5891 148.993C37.2916 149.87 37.2919 150.822 37.59 151.699C37.8881 152.577 38.4673 153.331 39.2377 153.845C39.9431 154.367 40.7987 154.645 41.676 154.639C42.7714 154.624 43.8305 154.244 44.6861 153.56C45.5062 152.899 46.2409 152.138 46.8734 151.296C53.4077 142.884 59.9284 134.461 66.5425 125.919L71.2823 119.796L89.2611 119.208L92.8267 124.903C95.7629 129.598 98.6498 134.215 101.548 138.826C102.051 139.627 102.553 140.43 103.052 141.233C104.813 144.06 106.634 146.982 108.572 149.764C109.651 151.275 111.027 152.551 112.615 153.512C113.488 154.094 114.528 154.368 115.574 154.291C116.62 154.216 117.61 153.793 118.389 153.092C119.237 152.4 119.836 151.451 120.096 150.387C120.357 149.324 120.264 148.206 119.833 147.2C119.232 145.727 118.481 144.319 117.593 142.999C114.078 137.749 110.548 132.508 107.002 127.279C105.262 124.706 103.523 122.132 101.786 119.557C101.71 119.442 101.642 119.322 101.583 119.198C101.878 119.165 102.146 119.139 102.404 119.133C105.62 119.071 108.835 119.014 112.052 118.961C119.472 118.831 127.145 118.702 134.692 118.49C136.582 118.398 138.465 118.193 140.332 117.876C141.304 117.73 142.313 117.579 143.299 117.466C145.848 117.175 147.412 115.589 147.948 112.752C148.135 111.555 148.209 110.344 148.169 109.133V108.985C148.16 104.387 148.156 99.7898 148.159 95.191C148.159 83.341 148.155 71.0882 148.009 59.0358C147.88 48.2487 147.604 37.2842 147.339 26.6812C147.214 21.7113 147.094 16.7412 146.979 11.7712C146.962 10.9703 146.966 10.1682 146.971 9.33292C146.974 9.10853 146.976 8.88011 146.977 8.64794ZM15.6608 111.194L15.6122 111.18L15.5713 110.93C15.4846 110.458 15.4264 109.981 15.3969 109.503C15.2725 106.325 15.1378 103.147 14.993 99.9694C14.6611 92.4211 14.3175 84.616 14.1989 76.9406C14.0225 65.6106 13.957 54.0869 13.8948 42.9431C13.854 35.7631 13.8118 28.3382 13.7405 21.0357C13.7165 18.5544 13.5499 16.0789 13.3742 13.4575C13.3055 12.4289 13.2348 11.3765 13.1707 10.2902C46.3859 11.3894 80.061 10.6791 112.634 9.98651C120.868 9.81271 129.372 9.63313 137.767 9.48396V108.065C96.4391 107.474 55.5089 108.554 16.1127 111.28C15.9595 111.266 15.8081 111.238 15.6608 111.194Z" fill="black"/>
<path d="M128.985 30.0757C130.029 28.9307 130.766 27.5392 131.125 26.0315C131.307 25.364 131.324 24.6619 131.173 23.9865C131.022 23.311 130.708 22.6827 130.26 22.1561C129.811 21.6296 129.24 21.2205 128.597 20.9648C127.954 20.7092 127.259 20.6147 126.571 20.6893C125.256 20.8397 123.999 21.3187 122.917 22.0824C121.488 23.1156 120.131 24.2456 118.856 25.4641L118.52 25.77C108.759 34.6674 98.9811 43.5905 89.1884 52.5385L80.3877 60.5736L80.3663 60.5635C77.0372 56.7287 72.9685 53.7084 69.0333 50.788C67.0793 49.3385 65.0585 47.8384 63.166 46.2644C60.5417 44.084 58.5909 44.0225 55.7105 46.031C54.1378 47.1538 52.7063 48.4624 51.4473 49.9286C48.6408 53.1297 45.8226 56.4139 43.0977 59.5885C40.8844 62.1679 38.6657 64.742 36.4416 67.3103C34.3601 69.7027 32.2663 72.0855 30.1602 74.4578C27.4593 77.5163 24.6664 80.6792 21.9578 83.8259C20.7968 85.1223 19.8806 86.6191 19.2537 88.2437C19.1051 88.8689 19.0996 89.5194 19.2378 90.1472C19.3761 90.775 19.6543 91.3632 20.0518 91.8677C20.3059 92.1713 20.6245 92.4145 20.9844 92.5792C21.3444 92.7439 21.7365 92.8263 22.1322 92.8198C22.895 92.7997 23.6365 92.5643 24.2716 92.1414C24.7846 91.8113 25.2549 91.4189 25.672 90.9741L28.0058 88.5245C36.2004 79.934 44.6738 71.0517 52.9805 62.2884C54.3614 60.8318 55.7112 59.2982 57.1407 57.6736C57.7015 57.0368 58.2823 56.3765 58.8911 55.6884C59.9029 56.7512 60.9015 57.8037 61.8869 58.8466C64.8621 61.9881 67.6725 64.9568 70.5885 67.9076C71.9506 69.2909 73.4955 70.4816 75.1805 71.4473C77.4897 72.7547 79.6959 72.7651 81.5572 71.4778C83.0483 70.4784 84.4863 69.4031 85.8659 68.2546L90.1447 64.5916C99.4323 56.6405 109.036 48.419 118.406 40.2448C122.196 36.936 125.731 33.3988 128.985 30.0757Z" fill="black"/>
</g>
<defs>
<clipPath id="clip0_8_2847">
<rect width="153" height="155" fill="white"/>
</clipPath>
</defs>
</svg>
