<svg width="119" height="141" viewBox="0 0 119 141" fill="none" xmlns="http://www.w3.org/2000/svg">
<g clip-path="url(#clip0_8_2336)">
<path d="M10.7671 32.2823C8.57981 31.9305 6.77088 31.7222 5.00077 31.3361C1.83175 30.6453 0.211134 29.1086 0.17233 26.938C0.132232 24.6587 1.81744 22.7092 5.09835 22.292C9.78397 21.6963 14.528 21.5295 19.2524 21.2921C21.807 21.1628 24.3731 21.2695 27.3306 21.2695C26.9019 19.2916 26.5949 17.7509 26.2314 16.2245C25.4655 13.1665 25.8726 9.93253 27.3723 7.15974C29.3772 3.31135 32.4324 0.966791 36.7921 0.821263C44.7543 0.555646 52.7196 0.406041 60.6882 0.372408C65.9633 0.347184 71.2401 0.592906 76.5155 0.718385C77.269 0.736495 78.025 0.733267 78.7759 0.788891C84.1568 1.18602 87.6 3.94844 88.8372 9.22106C89.3973 11.6084 89.4691 14.1134 89.72 16.5699C89.8494 17.8376 89.8869 19.1143 89.9787 20.58C90.8466 20.7109 91.7217 20.7908 92.5993 20.8193C98.4115 20.655 104.222 20.4131 110.035 20.2863C111.532 20.2218 113.031 20.3725 114.486 20.734C115.654 21.0072 116.703 21.649 117.477 22.5645C118.253 23.48 118.713 24.6206 118.789 25.8177C118.99 27.0519 118.805 28.318 118.261 29.4433C117.715 30.5687 116.836 31.4986 115.744 32.1065C114.841 32.6562 113.852 33.0624 112.73 33.6199C112.73 36.7542 112.623 39.8628 112.747 42.9615C113.485 61.3478 114.5 79.7315 113.816 98.1391C113.569 104.796 113.118 111.473 112.208 118.065C111.703 121.727 110.228 125.296 108.885 128.789C108.25 130.464 107.247 131.975 105.95 133.211C104.653 134.447 103.095 135.375 101.391 135.928C98.2434 137.007 95.0116 137.824 91.7294 138.369C88.7376 138.752 85.7271 138.965 82.712 139.006C70.9898 139.589 59.2714 140.279 47.5428 140.659C42.5984 140.869 37.645 140.655 32.737 140.02C20.1107 138.243 13.248 131.285 11.2496 118.648C10.6575 115.148 10.3283 111.607 10.2647 108.058C10.131 87.7206 10.0826 67.383 10.1198 47.0453C10.1262 42.2177 10.5317 37.3887 10.7671 32.2823ZM20.4354 33.0682C21.0174 43.107 21.4486 92.2559 22.6115 107.055C22.9542 111.419 23.9593 115.741 24.8195 120.052C25.6771 124.348 28.5803 126.846 32.742 127.519C37.3986 128.271 42.1348 128.996 46.8301 128.961C58.5626 128.874 70.2965 128.47 82.0193 127.939C86.5077 127.736 90.9734 126.893 95.4346 126.238C96.2476 126.136 97.0081 125.78 97.6064 125.22C98.2052 124.66 98.6114 123.925 98.7679 123.121C99.3855 120.625 100.184 118.14 100.479 115.602C102.173 101.021 101.824 86.3863 101.377 71.7566C101.024 60.2522 100.614 48.7496 100.226 37.2464C100.19 36.2116 100.119 35.1728 100.071 34.268C72.6241 33.8676 48.1132 33.4724 20.4373 33.0682H20.4354ZM37.7031 21.0379C51.2323 21.5275 64.4931 21.5062 77.8394 20.8833V11.9383C64.3456 11.4855 51.1016 10.9991 37.7031 12.3115V21.0379Z" fill="black"/>
<path d="M81.4354 77.7577C81.2945 70.8105 80.964 63.7697 80.6438 56.9597L80.6374 56.8303C80.5223 54.3613 80.4097 51.8924 80.2985 49.4233C80.2493 48.5606 80.087 47.7079 79.8167 46.8872C79.2236 45.0115 77.8855 44.0226 76.1535 44.1862C75.1045 44.2729 73.2975 44.8129 72.9761 47.4479C72.9244 47.922 72.8985 48.3986 72.8985 48.8754C72.795 57.4389 72.0131 85.75 72.0053 86.0385C71.8592 92.8447 71.7079 99.8798 71.6044 106.859C71.5507 108.781 71.724 110.703 72.1218 112.583C72.3138 113.579 72.8513 114.476 73.639 115.115C74.4274 115.754 75.4156 116.094 76.4297 116.076C76.5487 116.076 76.669 116.072 76.7899 116.063C77.7917 116.035 78.7508 115.652 79.4965 114.982C80.2416 114.312 80.7247 113.4 80.8592 112.406C81.2143 110.339 81.4089 108.247 81.4413 106.15L81.4762 101.336C81.5331 93.6124 81.5952 85.6265 81.4354 77.7577Z" fill="black"/>
<path d="M46.8237 44.6397H46.8205C46.1752 44.6372 45.539 44.7915 44.9665 45.0896C44.3941 45.3876 43.9025 45.8204 43.5344 46.3504C42.9109 47.4661 42.5591 48.7129 42.5075 49.9899C42.3975 51.7201 42.2822 53.4495 42.1645 55.2211C41.7603 61.3145 41.3413 67.6158 41.1615 73.8347C40.9028 82.6789 40.8156 91.666 40.7283 100.358C40.702 103.018 40.6738 105.678 40.6437 108.338C40.6421 109.427 40.7944 110.511 41.0962 111.557C41.8018 114.058 43.4996 115.611 45.5264 115.611H45.5912C47.7144 115.575 49.4112 113.898 49.9124 111.339C50.1595 109.985 50.2641 108.609 50.2238 107.234C50.1113 100.171 49.9733 93.1097 49.8426 86.4012L49.7242 80.3356L49.8597 73.1316C50.0072 65.3281 50.146 57.9518 50.2579 50.539C50.3243 49.296 50.1402 48.0524 49.7167 46.882C49.4569 46.2985 49.0568 45.7884 48.552 45.3972C48.0472 45.0059 47.4535 44.7458 46.8237 44.6397Z" fill="black"/>
</g>
<defs>
<clipPath id="clip0_8_2336">
<rect width="119" height="141" fill="white"/>
</clipPath>
</defs>
</svg>
