<svg width="181" height="155" viewBox="0 0 181 155" fill="none" xmlns="http://www.w3.org/2000/svg">
<g clip-path="url(#clip0_8_2340)">
<path d="M4.53082 58.8157C5.69667 60.2708 6.90219 61.7733 7.99577 63.2892C24.3192 85.9274 42.5081 108.058 60.097 129.458C65.9613 136.593 72.025 143.97 77.9295 151.256C79.817 153.586 81.5799 154.754 83.4849 154.932C83.6568 154.948 83.8295 154.956 84.0021 154.956C85.7132 154.956 87.5187 154.171 89.6298 152.518C93.2871 149.553 96.6318 146.333 99.6282 142.893C123.68 116.114 147.024 89.965 166.686 67.9158C168.877 65.4598 171.021 62.9177 173.097 60.4599C174.987 58.2203 176.943 55.9049 178.921 53.6666C181.191 51.0968 181.298 48.5331 179.239 46.0462C178.038 44.6062 176.751 43.2181 175.381 41.8871C172.246 38.82 169.103 35.7595 165.951 32.7055C162.757 29.6034 159.568 26.498 156.385 23.3896C155.077 22.1091 153.774 20.7837 152.513 19.5019C151.02 17.9836 149.475 16.4121 147.904 14.8982C143 10.1704 138.899 6.31564 134.997 2.76519C133.993 1.90578 132.717 1.29955 131.318 1.01643C129.603 0.70995 127.852 0.573705 126.1 0.610366C119.476 0.584428 112.852 0.589456 107.302 0.591987H102.401H102.364L87.975 1.1556C74.9247 1.66678 62.5975 2.15091 50.4058 2.5925C47.5494 2.69626 44.413 3.079 43.3552 6.33655C43.2296 6.54824 43.0582 6.73873 42.849 6.89828C42.7661 6.97167 42.6844 7.04563 42.6084 7.11838C41.2963 8.36806 39.9871 9.6197 38.6811 10.8732C35.4406 13.977 32.0893 17.1864 28.737 20.2997C19.7081 28.7175 11.3067 37.5871 3.58019 46.8586C2.42279 48.3526 1.51783 49.972 0.890939 51.6711C0.714631 52.1559 0.656126 52.6649 0.718269 53.1688C0.780415 53.6726 0.962024 54.1611 1.253 54.606C2.30326 56.0376 3.43569 57.4504 4.53082 58.8157ZM161.329 57.0265C161.297 57.067 161.265 57.1069 161.233 57.1467C160.635 57.887 160.119 58.5273 159.546 59.1435C157.239 61.6273 154.918 64.1028 152.585 66.5701C148.087 71.3466 143.437 76.2864 139.009 81.2394C128.607 92.8746 118.118 104.756 107.973 116.247C103.74 121.043 99.505 125.837 95.2674 130.629C95.0925 130.828 94.9191 131.024 94.7442 131.215C95.2766 129.905 95.8302 128.563 96.3983 127.252C99.2373 120.702 102.077 114.154 104.916 107.607C111.374 92.7139 117.822 77.8181 124.259 62.9191C124.803 61.5635 125.248 60.1815 125.591 58.781C125.743 58.2166 125.902 57.6338 126.078 57.0265H161.329ZM113.775 57.0101L83.3678 129.693C80.9296 121.317 78.1964 112.943 75.54 104.823C70.5434 89.5361 65.3804 73.7368 62.1345 57.67L113.775 57.0101ZM97.3025 9.65159C102.612 9.48647 107.968 9.49653 113.162 9.50412C118.37 9.51298 123.754 9.5219 129.085 9.35614L162.894 47.0971L123.459 47.7708L122.964 47.7796L97.3025 9.65159ZM63.3321 48.4965C70.4809 36.2603 79.5653 25.9039 89.8123 14.7325L108.359 47.6589L63.3321 48.4965ZM48.9914 57.9419C53.0692 74.7193 58.719 91.336 64.1839 107.41C65.7719 112.079 67.4031 116.877 68.988 121.656C57.2572 108.556 46.4953 94.677 36.0658 81.2262C30.1338 73.5742 24.0059 65.6717 17.7576 57.9863C23.1473 57.4688 41.7506 57.4156 48.9914 57.9413V57.9419ZM71.8455 10.2102C74.2649 10.1899 76.6838 10.171 79.1022 10.1533C79.3303 10.1501 79.5486 10.1616 79.8345 10.1787C70.0057 21.1552 59.119 34.0144 51.9847 48.6894H13.1307C13.3639 48.3595 13.6263 48.0446 13.9161 47.7474C23.2284 38.5442 31.0701 30.8087 39.0721 22.9689C41.1255 20.9539 43.251 18.9231 45.3021 16.9587C47.2231 15.121 49.1371 13.2777 51.0434 11.4286C51.3485 11.0709 51.7553 10.7818 52.2276 10.5867C52.6999 10.3917 53.223 10.2968 53.7501 10.3108C59.7831 10.3114 65.9151 10.2582 71.8455 10.2095V10.2102Z" fill="black"/>
</g>
<defs>
<clipPath id="clip0_8_2340">
<rect width="181" height="155" fill="white"/>
</clipPath>
</defs>
</svg>
