<svg width="157" height="88" viewBox="0 0 157 88" fill="none" xmlns="http://www.w3.org/2000/svg">
<g clip-path="url(#clip0_6_1954)">
<path d="M148.882 79.1686C147.433 79.164 145.984 79.1686 144.51 79.1686H143.079L142.932 78.2359C142.787 77.3243 142.659 76.5294 142.548 75.7254C140.772 62.8717 137.349 51.8304 132.084 41.9676C123.503 25.8873 110.491 15.4939 93.4203 11.0755C91.6574 10.616 89.8485 10.2004 88.0987 9.79614C87.4424 9.64387 86.7814 9.49062 86.1172 9.33658C86.1172 9.13114 86.1231 8.93227 86.1257 8.73603C86.1362 7.99371 86.1461 7.29169 86.1054 6.59203C85.9617 4.1104 85.3611 2.48226 84.2165 1.46822C83.0718 0.454182 81.404 0.0596515 78.9539 0.213234C76.1166 0.392415 73.123 0.714018 69.5309 1.2253C66.8465 1.60729 64.9832 2.11197 63.9941 3.44237C63.005 4.77276 63.0537 6.76793 63.4692 9.54621C63.4541 9.58231 63.4337 9.62202 63.4127 9.66731C63.4055 9.68306 63.3981 9.69901 63.3903 9.71542L62.6801 9.87884C61.8925 10.06 61.0758 10.2486 60.2586 10.4416C42.0026 14.7564 28.9264 24.9543 21.3949 40.7524C14.9891 54.1895 11.9956 68.6041 9.93273 81.0011L8.27712 81.175C6.44661 81.3666 4.6159 81.5583 2.788 81.7657C2.35418 81.7867 1.93039 81.9016 1.54519 82.1024C1.15998 82.3032 0.822883 82.5848 0.556834 82.9281C0.375679 83.2004 0.258077 83.5109 0.212641 83.8351C0.167206 84.16 0.194838 84.4902 0.294042 84.8026C0.49798 85.344 0.824852 85.8317 1.24843 86.2262C1.672 86.6206 2.1806 86.9114 2.73544 87.0768C4.00237 87.3629 5.30098 87.487 6.59912 87.445C6.81834 87.445 7.03756 87.445 7.25546 87.445C20.4597 87.3748 32.3871 87.3071 44.6475 87.1824C51.8939 87.1083 59.14 87.021 66.3857 86.9199C79.0215 86.7558 92.0879 86.5872 104.938 86.5307C114.764 86.4887 124.76 86.5963 134.425 86.7C139.303 86.7525 144.181 86.7998 149.061 86.8412C152.567 86.8668 155.817 86.4362 155.898 83.1584C155.926 82.7187 155.864 82.277 155.713 81.8628C155.564 81.448 155.329 81.0693 155.025 80.749C153.994 79.6772 152.041 79.1777 148.882 79.1686ZM133.02 78.4223V78.4348L17.412 80.6873C17.4416 80.4675 17.4697 80.2463 17.4979 80.0257C17.6012 79.0222 17.7792 78.0292 18.0299 77.0519C18.4731 75.4964 18.9118 73.9395 19.3458 72.3814C21.5839 64.3939 23.8976 56.1352 27.2167 48.3419C34.0755 32.2406 45.7068 22.6221 62.7782 18.9381C67.0257 18.0109 71.3608 17.539 75.7083 17.5312C84.6109 17.5539 93.3934 19.5896 101.399 23.4856C110.091 27.6403 117.151 34.4277 122.373 43.6591C127.755 53.1648 131.235 64.1292 133.001 77.1786C133.042 77.592 133.049 78.0082 133.02 78.4223ZM70.245 8.71936C72.9747 8.11461 75.7628 7.81788 78.5582 7.83422C78.7505 8.08245 78.9257 8.34262 79.0832 8.61362C79.1042 8.64841 79.1266 8.68391 79.1495 8.71936H70.245Z" fill="black"/>
</g>
<defs>
<clipPath id="clip0_6_1954">
<rect width="156.208" height="87.9493" fill="white"/>
</clipPath>
</defs>
</svg>
