<svg width="138" height="164" viewBox="0 0 138 164" fill="none" xmlns="http://www.w3.org/2000/svg">
<g clip-path="url(#clip0_8_2352)">
<path d="M0.943424 81.0318C0.943424 66.6309 0.946657 52.2302 0.953136 37.8289C0.897444 31.7584 1.65687 25.7079 3.21103 19.8395C4.00254 16.9129 5.24122 14.1261 6.88328 11.5779C10.6125 5.8087 15.9045 2.30784 22.7377 1.81973C32.9329 1.09437 43.1527 0.571092 53.3705 0.340974C63.5883 0.110855 73.8274 0.206625 84.0511 0.428964C90.8578 0.576759 97.6567 1.18092 104.454 1.61653C106.358 1.74137 108.18 2.44023 109.68 3.62133C119.006 10.8075 127.811 18.5479 135.217 27.7676C136.707 29.5048 137.524 31.7186 137.522 34.0074C137.358 64.7036 137.228 95.4003 137.133 126.097C137.037 131.401 136.483 136.686 135.476 141.895C135.111 144.134 134.295 146.277 133.079 148.193C128.001 155.792 121.093 160.639 111.764 161.621C91.4143 163.803 70.9003 163.989 50.5146 162.177C42.5994 161.464 34.585 161.505 26.881 159.266C22.8672 158.198 18.9514 156.791 15.1756 155.061C7.10939 151.131 2.45883 144.416 1.25246 135.567C0.720408 131.052 0.479116 126.509 0.530074 121.964C0.442609 108.321 0.49832 94.673 0.49832 81.0318H0.943424ZM11.9213 81.9588C10.8198 97.8246 10.8062 113.709 10.779 129.592C10.8349 131.859 11.0487 134.12 11.4191 136.358C12.5309 144.359 17.2287 149.232 24.8161 151.526C25.5385 151.744 26.2752 151.926 27.019 152.071C32.2098 153.087 37.369 154.256 42.6978 154.392C53.6569 154.67 64.6152 155.35 75.5709 155.296C86.9044 155.24 98.2521 154.769 109.56 153.992C118.324 153.39 123.995 148.158 126.599 139.702C128.188 134.542 128.233 129.271 128.232 123.973C128.232 99.0089 128.229 74.0446 128.219 49.081C128.219 46.0603 128.109 43.0393 128.001 40.0199C127.928 39.2743 127.599 38.5769 127.072 38.0455C126.544 37.514 125.85 37.1811 125.104 37.1029C119.44 36.9084 113.766 36.8551 108.112 36.5147C105.868 36.3176 103.657 35.8446 101.53 35.1063C100.813 34.8447 100.177 34.4002 99.6852 33.8168C99.1935 33.2333 98.8624 32.5312 98.7257 31.7803C98.4011 30.3044 98.234 28.7977 98.2268 27.2865C98.1867 22.3749 98.2528 17.4631 98.2638 12.5515C98.2003 11.8099 97.8861 11.1117 97.3723 10.5733C96.8592 10.0347 96.1769 9.68785 95.4396 9.58951C95.0645 9.5584 94.6933 9.44217 94.3201 9.43699C76.1747 9.18223 58.0307 8.90065 39.8847 8.71785C36.4814 8.64214 33.0775 8.83459 29.7045 9.29392C26.3504 9.81315 23.0498 10.633 19.8423 11.7431C16.4733 12.8917 14.1798 15.4377 12.803 18.7222C11.5359 21.4839 11.058 24.5426 11.4224 27.5593C12.0051 31.2957 12.3231 35.0687 12.3741 38.85C12.3281 53.2185 12.0884 67.589 11.9206 81.9588H11.9213ZM108.699 17.7613C108.138 20.6205 107.923 23.5365 108.059 26.4471C107.86 27.7481 109.384 28.6709 110.295 28.6709C113.487 28.6709 116.215 28.6409 119.171 28.5683C119.356 28.5638 119.642 28.1339 119.681 27.8714C119.753 27.5074 119.691 27.1298 119.505 26.8085C116.749 23.2829 113.661 20.1003 109.786 17.779C109.534 17.626 109.03 17.4294 108.699 17.7613Z" fill="black"/>
<path d="M67.5041 98.9763C75.0507 98.8252 82.5998 98.5971 90.1432 98.5588C93.5297 98.5413 96.9233 98.8441 100.303 99.128C101.431 99.2278 102.529 99.5461 103.535 100.065C104.06 100.278 104.51 100.64 104.83 101.108C105.15 101.574 105.326 102.125 105.335 102.692C105.315 103.651 104.311 105.059 103.465 105.22C102.018 105.601 100.541 105.857 99.051 105.987C82.0699 106.308 65.0881 106.621 48.1049 106.789C44.3346 106.727 40.5709 106.452 36.8317 105.965C35.7543 105.853 34.7287 105.216 33.6869 104.798C32.7701 104.432 32.0419 102.869 32.487 101.959C32.8044 101.311 33.1873 100.332 33.7121 100.205C35.8701 99.5934 38.0898 99.2246 40.3296 99.1072C49.3871 98.9893 58.4472 99.0586 67.506 99.0586L67.5041 98.9763Z" fill="black"/>
</g>
<defs>
<clipPath id="clip0_8_2352">
<rect width="138" height="164" fill="white"/>
</clipPath>
</defs>
</svg>
