<svg width="137" height="164" viewBox="0 0 137 164" fill="none" xmlns="http://www.w3.org/2000/svg">
<g clip-path="url(#clip0_8_2349)">
<path d="M136.496 82.6731C136.496 97.0746 136.415 111.477 136.538 125.878C136.48 131.183 135.94 136.472 134.927 141.679C134.569 143.92 133.776 146.067 132.594 148.001C127.628 155.697 120.724 160.577 111.445 161.587C91.1512 163.816 70.6877 164.02 50.3539 162.199C42.457 161.486 34.4807 161.444 26.7751 159.315C23.1179 158.402 19.5398 157.195 16.0755 155.706C7.14333 151.593 2.02783 144.479 0.838776 134.664C0.466477 131.655 0.280639 128.626 0.28236 125.593C0.392219 96.0342 0.582207 66.4721 0.699818 36.9111C0.758372 30.843 1.60431 24.8081 3.21626 18.9591C4.2922 14.9082 6.37769 11.1985 9.27653 8.17859C12.9282 4.23863 17.9837 1.90489 23.3423 1.68627C33.5275 1.17417 43.712 0.555227 53.9049 0.33159C63.723 0.116381 73.5544 0.20618 83.3732 0.425278C90.1631 0.576314 96.9523 1.06494 103.721 1.64639C105.596 1.80781 107.394 2.46665 108.932 3.55497C118.34 10.6031 127.062 18.4143 134.505 27.5847C136.184 29.6493 137.041 32.2648 136.91 34.926C136.706 49.3242 136.629 63.7255 136.512 78.1252C136.499 79.6414 136.512 81.1569 136.512 82.6731H136.496ZM11.6572 82.2031C10.5903 98.0703 10.5173 113.953 10.494 129.836C10.5497 133.244 11.0673 136.628 12.0327 139.896C12.5353 141.922 13.4685 143.815 14.7682 145.446C16.068 147.076 17.7036 148.405 19.5632 149.343C21.5415 150.443 23.6529 151.281 25.8451 151.84C30.9917 152.976 36.1467 154.064 41.458 154.358C62.1665 155.614 82.9305 155.647 103.643 154.461C106.276 154.297 108.918 154.112 111.522 153.717C114.523 153.231 117.321 151.891 119.585 149.857C122.461 147.384 124.606 144.168 125.789 140.557C127.642 135.061 127.663 129.409 127.663 123.727C127.659 99.1412 127.655 74.5554 127.652 49.9699C127.652 46.944 127.642 43.9174 127.565 40.8948C127.501 38.3097 126.079 37.0385 123.179 36.9529C117.902 36.7974 112.62 36.7644 107.346 36.5168C105.475 36.3846 103.625 36.0369 101.834 35.4799C100.914 35.2431 100.081 34.746 99.4345 34.0479C98.7883 33.3499 98.3553 32.4802 98.1879 31.5424C97.8622 29.6826 97.7013 27.7973 97.7071 25.9091C97.6554 21.3774 97.7129 16.8447 97.7362 12.3117C97.7401 11.5066 96.4948 9.87181 95.8208 9.77134C95.0854 9.61077 94.3403 9.49863 93.5907 9.43647C75.4924 9.17718 57.3935 8.93773 39.2944 8.71733C36.2843 8.68557 33.2703 9.00021 30.257 9.13893C26.4352 9.31395 22.8305 10.4447 19.3098 11.8021C16.8118 12.7598 14.738 14.5826 13.4635 16.941C11.8066 19.9487 10.6737 23.117 11.0621 26.6744C11.4724 30.4341 12.0805 34.2003 12.074 37.9633C12.0469 52.7077 11.813 67.4555 11.6572 82.2031ZM108.376 17.6361C107.985 18.231 107.693 18.8854 107.51 19.5737C107.337 21.4244 107.289 23.2916 107.298 25.1527C107.273 25.6143 107.339 26.0764 107.495 26.5118C107.65 26.9471 107.891 27.3469 108.202 27.6873C108.515 28.0277 108.891 28.3018 109.311 28.4938C109.73 28.6857 110.184 28.7914 110.645 28.8046C113.229 28.8467 115.818 28.7453 118.403 28.6545C118.555 28.6178 118.696 28.5454 118.815 28.4431C118.934 28.3408 119.026 28.2112 119.086 28.0658C119.15 27.8918 119.179 27.7068 119.17 27.5215C119.162 27.336 119.118 27.1537 119.038 26.9859C116.41 23.3864 113.171 20.2785 109.47 17.8044C109.198 17.6151 108.745 17.6866 108.376 17.6361Z" fill="black"/>
<path d="M51.8528 92.2501C55.6126 92.2501 59.3723 92.2806 63.1314 92.2346C63.8748 92.1568 64.571 91.8333 65.1098 91.3134C65.6481 90.7936 65.9984 90.1084 66.1037 89.3662C66.3454 84.4663 66.4863 79.5612 66.7784 74.6652C66.8256 72.7853 67.1299 70.9211 67.6831 69.1242C67.8576 68.5836 68.191 68.1091 68.6402 67.7636C69.0899 67.4174 69.6334 67.2171 70.1989 67.1886C70.7643 67.1601 71.3252 67.3046 71.8073 67.6035C72.2888 67.9016 72.6687 68.3405 72.8956 68.861C73.4933 70.2404 73.8197 71.7223 73.8565 73.2255C74.146 76.9903 74.2675 80.7688 74.4924 84.5389C74.5602 85.6674 74.7321 86.7908 74.8853 87.9096C75.2498 90.581 76.7846 92.1717 79.2602 92.1574C83.02 92.1354 86.7784 91.8981 90.5382 91.8612C93.5334 91.834 96.5843 91.7691 99.3269 93.2309C99.8057 93.4856 99.9802 94.4366 100.148 95.1042C100.177 95.2922 100.162 95.4847 100.104 95.6662C100.047 95.8471 99.9492 96.0131 99.8174 96.1505C99.2946 96.6898 98.6425 97.0846 97.9226 97.2972C95.6944 97.6018 93.4417 97.7788 91.1935 97.8773C87.0576 98.0575 82.9179 98.1113 78.7827 98.2896C77.8463 98.3881 76.9765 98.8218 76.3315 99.5102C75.6873 100.199 75.3112 101.098 75.2724 102.042C74.9493 107.696 74.727 113.355 74.3851 119.007C74.272 120.876 73.9412 122.734 73.6594 124.589C73.4726 125.82 71.4364 127.291 70.3178 127.104C69.1067 126.901 67.3606 125.324 67.2062 124.155C66.9606 122.293 66.6892 120.423 66.6246 118.55C66.4236 112.893 66.3344 107.232 66.1587 101.573C66.0908 100.825 65.7741 100.122 65.2598 99.577C64.7454 99.0312 64.0627 98.6746 63.322 98.5651C58.8139 98.3278 54.302 98.1625 49.7946 97.9169C46.7929 97.7516 43.7931 97.5286 40.7978 97.2622C39.2469 97.1254 37.4891 95.2806 37.9758 94.3452C38.2027 93.8422 38.5665 93.4137 39.0254 93.1084C39.4842 92.8037 40.0194 92.6339 40.5697 92.6203C44.3288 92.5872 48.0886 92.6086 51.8476 92.6086L51.8528 92.2501Z" fill="black"/>
</g>
<defs>
<clipPath id="clip0_8_2349">
<rect width="137" height="164" fill="white"/>
</clipPath>
</defs>
</svg>
