<svg width="138" height="164" viewBox="0 0 138 164" fill="none" xmlns="http://www.w3.org/2000/svg">
<g clip-path="url(#clip0_8_2342)">
<path d="M137.44 84.0462C137.44 98.8257 137.484 113.605 137.41 128.385C137.432 132.172 137.2 135.958 136.716 139.714C135.712 146.852 131.983 152.406 125.971 156.414C121.577 159.425 116.488 161.279 111.179 161.801C91.0988 163.801 70.8746 163.925 50.7715 162.171C42.8137 161.478 34.7727 161.454 27.0277 159.254C22.9923 158.194 19.0516 156.806 15.2457 155.102C7.93167 151.643 3.51239 145.757 1.79455 137.808C0.749628 133.382 0.193681 128.856 0.136597 124.311C0.261144 98.9197 0.347952 73.5276 0.39699 48.1354C0.480331 40.5551 1.06642 32.989 2.15132 25.4857C2.58263 22.106 3.45804 18.7971 4.7551 15.6446C8.29887 7.29288 14.5791 2.24274 23.8889 1.70212C34.1432 1.10576 44.4066 0.569936 54.6739 0.341114C64.1822 0.126553 73.7049 0.199665 83.2146 0.427839C90.4342 0.601562 97.644 1.20569 104.856 1.64389C106.764 1.7706 108.592 2.45065 110.115 3.60058C119.307 10.362 127.707 18.1321 135.155 26.7637C137.283 29.2024 137.873 31.9664 137.824 35.1615C137.559 51.4539 137.456 67.7493 137.297 84.0436L137.44 84.0462ZM74.2765 155.573C83.8004 155.227 94.4329 154.86 105.066 154.441C107.344 154.352 109.623 154.164 111.877 153.849C115.288 153.365 118.471 151.858 121.001 149.529C124.824 146.111 127.38 141.965 127.836 136.839C128.271 131.947 128.403 127.023 128.544 122.11C128.804 113.035 128.99 103.96 129.172 94.8852C129.255 90.7255 129.636 86.527 129.221 82.4121C128.191 72.2065 128.583 61.993 128.549 51.7842C128.536 48.0018 128.484 44.2188 128.368 40.4403C128.311 38.5754 126.638 37.1249 124.527 37.0536C119.591 36.8857 114.649 36.8453 109.716 36.6048C107.446 36.4669 105.189 36.1656 102.963 35.7027C100.971 35.3138 98.8867 32.8567 98.6615 30.8537C98.4733 29.3544 98.3646 27.8465 98.336 26.3358C98.3086 21.7983 98.3659 17.2607 98.3607 12.7232C98.2995 11.9769 97.9955 11.2707 97.4943 10.7126C96.9924 10.1546 96.322 9.77563 95.5838 9.6327C94.4499 9.53028 93.3146 9.40018 92.1781 9.38073C78.1177 9.13895 64.0573 8.86261 49.9969 8.71417C44.3005 8.65453 38.6002 8.88647 32.9019 8.99018C28.7099 9.09305 24.57 9.93995 20.6771 11.4919C15.2437 13.6071 12.1589 17.6566 11.6518 23.4802C11.5371 25.3683 11.5557 27.2622 11.7078 29.1477C12.3971 41.6305 12.1465 54.1122 11.8992 66.602C11.5171 85.8982 11.301 105.199 11.1447 124.498C11.0745 129.038 11.3334 133.577 11.9193 138.08C12.212 140.544 13.1331 142.892 14.595 144.901C16.0569 146.911 18.0109 148.513 20.271 149.557C22.6605 150.705 25.1747 151.575 27.764 152.15C33.3077 153.484 38.9697 154.272 44.6683 154.502C54.1688 154.771 63.6622 155.179 74.2765 155.573ZM113.748 29.0686C115.571 28.9733 117.068 28.9941 118.517 28.7685C119.054 28.6849 119.566 28.0758 119.949 27.5961C120.006 27.4272 120.021 27.2473 119.994 27.0714C119.966 26.8954 119.897 26.728 119.792 26.5839C117.105 23.0697 113.818 20.054 110.081 17.6753C109.789 17.6308 109.49 17.649 109.205 17.7279C108.92 17.8068 108.655 17.9446 108.428 18.133C108.292 21.05 108.223 23.9771 108.334 26.8941C108.419 27.2461 108.589 27.5719 108.829 27.8443C109.068 28.1167 109.37 28.3277 109.709 28.4583C111.039 28.7581 112.389 28.9614 113.748 29.0673V29.0686Z" fill="black"/>
<path d="M68.224 56.3711C79.2497 56.5228 90.2754 56.6548 101.3 56.8414C103.961 56.8584 106.619 57.015 109.263 57.3111C110.746 57.5984 112.191 58.052 113.57 58.6633C114.711 59.0833 116.027 61.1467 115.988 62.2791C115.95 63.3869 114.425 65.4132 113.416 65.8093C109.815 67.2185 106.04 67.4979 102.231 67.5536C94.6269 67.6645 87.0194 67.9484 79.4196 67.8129C69.5415 67.6347 59.6695 67.131 49.7954 66.7382C43.7175 66.4964 37.6403 66.2338 31.5689 65.9065C29.6474 65.889 27.7917 65.2077 26.3191 63.9782C25.865 63.6367 25.4973 63.1947 25.245 62.6868C24.9926 62.179 24.8627 61.619 24.8655 61.0524C24.9306 59.7494 26.1187 57.7744 27.2741 57.5643C29.112 57.1479 30.983 56.8921 32.8656 56.7996C44.6529 56.7309 56.4408 56.7648 68.2279 56.7648L68.224 56.3711Z" fill="black"/>
<path d="M71.7807 84.8527C61.2969 84.5798 51.0341 84.3723 40.7765 84.0138C37.3639 83.8797 33.9625 83.54 30.5912 82.9955C29.1287 82.6545 27.7459 82.0355 26.5183 81.1733C26.236 80.9458 26.0062 80.6606 25.8447 80.3365C25.6832 80.0124 25.5937 79.6578 25.5824 79.2961C25.5711 78.935 25.6382 78.5753 25.7792 78.2414C25.9201 77.9083 26.1316 77.6088 26.3992 77.3644C27.2879 76.676 28.3287 76.2099 29.4351 76.0031C32.064 75.622 34.7146 75.4068 37.3708 75.3607C52.957 75.2136 68.5475 74.8927 84.1284 75.1462C93.2299 75.294 102.317 76.3888 111.407 77.1032C112.152 77.2497 112.873 77.4914 113.555 77.8227C114.566 78.1876 115.945 80.5861 115.48 81.5474C115.016 82.5087 114.356 83.6217 113.474 84.0722C110.35 85.6642 106.871 85.7167 103.45 85.7044C92.8133 85.6623 82.1535 86.4661 71.7807 84.8527Z" fill="black"/>
<path d="M69.7413 94.9412C80.7781 95.0909 91.8155 95.2218 102.852 95.4053C105.133 95.4195 107.411 95.5758 109.673 95.8727C110.751 96.0256 111.771 96.7011 112.774 97.221C113.853 97.7804 114.944 100.133 114.414 101.126C113.905 102.079 113.161 103.165 112.241 103.583C110.852 104.174 109.36 104.488 107.851 104.504C98.3386 104.742 88.8237 105.028 79.3109 105.004C69.798 104.979 60.2746 104.801 50.7747 104.327C43.9463 103.986 37.1427 103.091 30.341 102.33C29.2143 102.189 28.1541 101.722 27.2926 100.985C26.5481 100.183 26.0132 99.211 25.735 98.1544C25.4993 97.4498 26.8884 95.6425 27.5869 95.5537C29.822 95.1784 32.0776 94.9353 34.3417 94.8258C46.1407 94.7538 57.9403 94.7927 69.74 94.7927L69.7413 94.9412Z" fill="black"/>
<path d="M57.6006 123.588C49.6767 123.302 41.7514 123.042 33.8294 122.713C31.1665 122.707 28.5648 121.917 26.3534 120.439C25.7367 120.012 25.2412 119.434 24.9149 118.76C24.5885 118.086 24.4423 117.339 24.4904 116.593C24.5164 115.275 25.912 113.662 27.115 113.191C30.3769 111.912 33.7728 111.988 37.1734 112.134C46.9811 112.553 56.7967 112.862 66.592 113.484C72.6087 113.866 78.5961 114.725 84.5913 115.413C85.3268 115.57 86.0468 115.791 86.7439 116.073C87.4164 116.274 88.7898 118.062 88.5015 118.737C88.0881 119.709 87.5902 120.912 86.7596 121.384C85.4505 122.105 83.9983 122.528 82.5056 122.622C76.8555 122.986 71.1949 123.206 65.5355 123.4C62.8953 123.493 60.2487 123.417 57.6052 123.417L57.6006 123.588Z" fill="black"/>
<path d="M42.3761 45.4441C38.6872 45.2127 34.4997 45.0767 30.3505 44.6288C28.4758 44.3509 26.651 43.8051 24.9327 43.0082C24.4108 42.7803 23.9641 42.4103 23.6438 41.9409C23.3236 41.4715 23.1429 40.9217 23.1225 40.3545C23.0307 39.0885 24.3462 37.1289 25.4854 36.8456C25.8446 36.7214 26.212 36.6217 26.5848 36.5475C35.674 35.5914 44.7723 35.1699 53.8848 36.2012C54.6375 36.3003 55.3681 36.5245 56.0465 36.864C56.7324 37.1765 57.3317 37.65 57.7933 38.244C58.2549 38.838 58.5648 39.5346 58.6966 40.2741C58.9186 41.3969 57.5561 43.4902 56.3766 43.883C55.3321 44.3207 54.2398 44.6348 53.1219 44.8199C49.711 45.1038 46.2902 45.2295 42.3761 45.4441Z" fill="black"/>
</g>
<defs>
<clipPath id="clip0_8_2342">
<rect width="138" height="164" fill="white"/>
</clipPath>
</defs>
</svg>
