<svg width="87" height="153" viewBox="0 0 87 153" fill="none" xmlns="http://www.w3.org/2000/svg">
<g clip-path="url(#clip0_6_1904)">
<path d="M55.3415 123.344C63.2136 121.216 72.2044 118.386 79.2935 111.701C84.3952 106.887 86.8263 100.357 85.9626 93.7825C85.1028 87.2441 81.0912 81.5956 74.9558 78.2857C71.8251 76.6331 68.4653 75.4589 64.987 74.8019C61.1179 74.053 57.1654 73.5956 53.3429 73.1519C51.9285 72.9884 50.5207 72.8237 49.1273 72.6491V25.7101C55.6519 25.2914 61.0496 26.0508 66.065 28.09C69.8364 29.6226 71.4805 31.6256 71.5652 34.7846C71.6236 35.2607 71.8329 35.7054 72.1637 36.0532C72.2668 36.1821 72.3639 36.3164 72.4532 36.4556C72.5096 36.5474 72.5877 36.6244 72.6803 36.6799C72.7728 36.7354 72.8772 36.7678 72.9848 36.7746C73.0925 36.7806 73.2001 36.761 73.2992 36.7176C73.3977 36.6741 73.4843 36.608 73.5525 36.5245C74.1498 35.7947 74.5896 34.9496 74.8442 34.0421C75.0995 33.1346 75.1645 32.1841 75.0352 31.2502C74.8974 30.2896 74.5626 29.3678 74.052 28.5425C73.5414 27.7172 72.866 27.0061 72.0679 26.4536C69.5915 24.5938 66.7857 23.2193 63.7984 22.4022C60.3547 21.6283 56.8726 21.0368 53.3665 20.6301C52.1359 20.4653 50.9138 20.3019 49.7075 20.1247V17.4718C49.7029 14.8464 49.6983 12.1697 49.72 9.49123C49.7259 8.75744 49.7678 8.00075 49.8072 7.26894C49.9207 5.85992 49.9229 4.44424 49.8138 3.03491C49.7029 1.97427 48.3534 0.0898599 47.2291 0.193561C46.5515 0.289207 45.9068 0.546168 45.3492 0.942835C44.7916 1.33951 44.3375 1.86438 44.025 2.47312C43.572 3.8274 43.321 5.2409 43.2799 6.66832C43.2557 6.98599 43.2307 7.30366 43.2012 7.61804C42.898 10.863 42.6236 14.1107 42.3479 17.3976L42.0519 20.8813L41.1593 21.0533C40.2116 21.2377 39.3216 21.4104 38.4349 21.5784C26.4849 23.7916 18.009 27.9987 11.7606 34.8194C6.1568 40.9364 3.80713 48.8584 5.31605 56.5533C6.80397 64.1426 11.8729 70.4891 19.2225 73.9677C22.7465 75.5134 26.4079 76.7243 30.1584 77.5841C32.495 78.1886 34.9123 78.5686 37.2508 78.9381C38.0995 79.0694 38.9488 79.2053 39.7941 79.3497V116.433C28.6003 116.01 15.4617 114.812 2.27456 109.531C2.16585 109.487 2.04763 109.472 1.93157 109.488C1.81551 109.504 1.70568 109.55 1.61301 109.622C1.32636 109.828 1.08665 110.093 0.909807 110.398C0.732963 110.704 0.623022 111.043 0.587167 111.394C0.586056 111.937 0.693931 112.474 0.904438 112.973C1.11495 113.473 1.42375 113.926 1.81251 114.303C2.97989 115.595 4.31232 116.727 5.77546 117.671C10.9494 120.985 16.9129 123.079 24.0072 124.073C27.8199 124.606 31.5997 124.987 35.6014 125.392C37.1845 125.553 38.7886 125.715 40.4196 125.889C40.4196 126.13 40.4196 126.371 40.415 126.611C40.4091 127.58 40.4026 128.581 40.4262 129.576C40.5712 135.502 40.7314 141.849 40.9191 148.089C40.9631 149.525 41.0445 152.202 44.0269 152.481C44.189 152.497 44.3471 152.504 44.5027 152.504C46.5301 152.504 47.997 151.217 48.5635 148.912C49.0311 147.13 49.2953 145.301 49.3511 143.46C49.4167 138.923 49.4069 134.443 49.3957 129.699C49.3918 128.072 49.3889 126.423 49.3872 124.753C49.9599 124.622 50.5194 124.495 51.0654 124.372C52.5442 124.037 53.9474 123.719 55.3415 123.344ZM74.7687 103.897C72.9034 105.744 70.7933 107.325 68.4987 108.599C62.2901 112.119 55.4977 113.862 49.0268 115.175V80.1675L49.5519 80.2068C56.3621 80.6925 62.7935 81.152 68.9798 83.5745C72.572 84.981 75.0713 87.1194 76.6216 90.1136C79.1997 95.0821 78.5236 100.106 74.7707 103.897H74.7687ZM41.6542 26.266L40.1623 72.0033C33.8221 71.4303 27.1787 70.4366 21.2086 67.4148C16.2362 64.8981 12.8036 60.7722 11.5421 55.7972C10.2616 50.7434 11.3452 45.3772 14.6006 40.6817C19.9005 33.0314 27.9367 29.8339 35.0987 27.7152C36.5669 27.2801 38.0634 26.9841 39.7968 26.6402C40.3934 26.522 41.0109 26.3999 41.6554 26.266H41.6542Z" fill="black"/>
</g>
<defs>
<clipPath id="clip0_6_1904">
<rect width="86.6366" height="152.927" fill="white"/>
</clipPath>
</defs>
</svg>
