<svg width="162" height="160" viewBox="0 0 162 160" fill="none" xmlns="http://www.w3.org/2000/svg">
<g clip-path="url(#clip0_6_1747)">
<path d="M74.5244 37.6738C74.5244 34.5063 74.5113 31.3729 74.5323 28.2389C74.445 27.4574 74.5237 26.6661 74.7626 25.9168C75.1492 25.1292 75.8331 24.1316 76.5682 23.9478C77.9111 23.6137 78.5858 24.7111 78.677 25.9562C78.8247 27.9678 78.8811 29.9881 78.9251 32.0056C78.9645 33.7778 78.933 35.5499 78.933 37.8851C80.4603 37.7991 81.9909 37.8094 83.5169 37.916C87.0526 38.401 90.6053 38.8873 94.0714 39.6953C95.4766 40.0793 96.7211 40.9066 97.6189 42.0542C98.2136 42.8306 98.2169 44.392 97.8723 45.393C97.7305 45.8058 95.944 45.9075 94.9778 45.7369C91.3601 45.0983 87.7857 44.2102 84.1666 43.5821C82.7713 43.3399 81.2991 43.5427 79.2782 43.5427C79.6064 53.1909 79.9228 62.4282 80.2476 71.9372C82.3742 72.2286 84.483 72.6336 86.5656 73.1508C90.8377 74.4431 95.3086 75.4368 99.2289 77.4623C107.583 81.7777 111.003 89.2764 110.437 98.4165C109.637 111.332 101.047 119.85 88.0705 121.098C86.3024 121.268 84.527 121.387 82.8802 121.52C82.8802 126.032 82.9255 130.267 82.8566 134.5C82.8566 136.06 82.6768 137.615 82.3217 139.134C81.8793 140.886 80.6808 142.129 78.7466 142.177C76.6286 142.23 75.3651 140.845 74.9064 139.011C74.5428 137.261 74.3793 135.477 74.4194 133.69C74.3537 129.562 74.3997 125.433 74.3997 121.125C68.7972 120.185 63.2793 119.293 57.7753 118.319C55.7847 117.982 53.8165 117.522 51.883 116.941C49.2695 116.133 48.036 114.452 48.4981 112.679C48.9516 110.937 50.3656 110.352 53.2502 110.766C58.9117 111.578 64.5674 112.43 70.2319 113.221C71.5321 113.402 72.8579 113.404 74.2402 113.493V77.6041C70.8351 76.9838 67.6689 76.7114 64.7085 75.7853C61.4347 74.7608 58.0428 73.5866 55.2441 71.6819C49.5169 67.7852 47.6962 61.1333 50.3261 54.6966C54.022 45.6463 60.9915 40.5492 70.5122 38.7843C71.5039 38.6005 72.497 38.4154 73.4834 38.2061C73.8451 38.06 74.1936 37.8819 74.5244 37.6738ZM82.2626 114.063C88.2418 113.904 93.612 113.078 98.2228 109.66C106.354 103.626 106.32 89.5323 98.1466 83.8531C93.0338 80.2996 87.1116 79.1931 81.0595 78.3923C80.9112 78.7815 80.8088 79.1871 80.7556 79.6006C81.24 90.9166 81.7408 102.233 82.2626 114.062V114.063ZM73.9494 44.4912C65.8942 45.4849 59.8017 49.0612 56.2883 56.3564C54.0476 61.0099 55.4314 65.3017 59.9392 67.8423C64.2054 70.2465 68.9357 70.8845 73.9494 71.1975V44.4912Z" fill="black"/>
<path d="M160.653 73.081C158.806 56.8748 152.3 41.5516 141.924 28.9664C133.372 18.4729 124.172 10.9933 113.799 6.11012C105.705 2.21069 96.8388 0.18026 87.8548 0.168945C85.0943 0.17312 82.337 0.353336 79.6 0.708469C68.2086 2.18523 56.6618 5.48988 43.2744 11.1147C25.1661 18.7282 12.5578 31.813 5.81 49.9955C1.07666 62.4813 -0.747561 75.8822 0.475966 89.179C1.8989 104.117 5.49331 115.695 11.7856 125.606C20.8772 139.911 32.3287 149.332 46.8022 154.397C55.5762 157.472 65.2342 159.017 77.1847 159.26C84.2187 159.26 90.7683 158.41 97.1013 157.587L98.3017 157.432C112.127 155.645 123.869 150.654 134.203 142.19C143.92 134.376 151.275 124.016 155.447 112.266C160.395 98.2306 162.096 85.4097 160.653 73.081ZM144.329 117.64C136.505 133.482 123.348 143.876 105.205 148.529C103.027 149.089 100.774 149.494 98.3936 149.918C97.2122 150.127 95.9783 150.35 94.6833 150.6C89.0388 151.449 81.4253 151.578 77.2294 151.578C75.3614 151.578 74.1682 151.551 74.1347 151.551C63.114 151.416 53.6316 149.548 45.1537 145.831C33.8575 140.881 24.8271 132.525 17.5562 120.291C13.1659 112.913 10.3806 104.179 8.79556 92.8079C6.76216 78.3442 8.54025 63.6006 13.9546 50.0355C19.6536 35.583 29.9037 24.6169 44.4186 17.4477C47.7705 15.7885 61.3943 11.796 64.9753 11.0674C70.0182 10.0611 75.1304 9.4457 80.2675 9.22641C100.588 8.74072 108.613 12.0113 121.023 21.4875C134.018 31.408 143.179 43.8784 148.25 58.5469C155.143 78.5306 153.827 98.4124 144.329 117.64Z" fill="black"/>
</g>
<defs>
<clipPath id="clip0_6_1747">
<rect width="161.459" height="159.49" fill="white"/>
</clipPath>
</defs>
</svg>
