<svg width="112" height="166" viewBox="0 0 112 166" fill="none" xmlns="http://www.w3.org/2000/svg">
<g clip-path="url(#clip0_6_2076)">
<path d="M108.527 87.5464C107.891 86.067 106.936 84.7464 105.73 83.6792C104.523 82.6127 103.096 81.8264 101.549 81.3768C99.8658 80.8872 98.095 80.771 96.3616 81.0361C94.6282 81.3013 92.9742 81.9419 91.5139 82.9126C91.1653 83.1397 90.8241 83.3793 90.4683 83.6287L90.2964 83.7488C89.3795 81.7496 88.0097 79.9913 86.296 78.6123C84.5816 77.234 82.5706 76.2738 80.4211 75.8071C78.5755 75.4507 76.6708 75.5472 74.8704 76.0874C73.0701 76.6282 71.4273 77.5976 70.0838 78.9116C68.5617 76.5625 66.51 74.159 62.9866 73.4515C59.6393 72.782 56.9997 74.3907 54.4433 75.9456L54.2917 76.0375C54.2042 74.7274 54.1207 73.439 54.0414 72.1716C53.8393 68.9556 53.6476 65.9227 53.3438 62.8595C53.2317 61.7258 53.1224 60.5915 53.0156 59.4565C52.5043 54.0929 51.9748 48.5462 50.9988 43.1668C50.4737 40.2625 49.1736 37.1095 47.0313 33.5272C45.7842 31.44 44.1592 30.191 42.2046 29.8143C40.3465 29.4559 38.2427 29.9422 36.1142 31.2162C35.0122 31.869 34.0532 32.7372 33.2943 33.7691C32.5355 34.8009 31.9924 35.9752 31.6977 37.2217C31.2403 38.8637 30.9514 40.548 30.8354 42.2486C30.7745 43.5258 30.7111 44.8033 30.645 46.081C30.364 51.6546 30.0734 57.4185 30.078 63.0913C30.0846 70.5269 30.2493 77.8181 30.4238 85.538C30.4912 88.5571 30.5568 91.6019 30.6206 94.6716L30.4703 94.5403C30.0227 94.1498 29.6361 93.8124 29.2134 93.5079C22.5011 88.6595 15.3648 86.9675 8.00196 88.4797C6.4273 88.7685 4.94979 89.4465 3.70372 90.4513C2.45764 91.4568 1.48246 92.757 0.86685 94.2351C0.251405 95.7768 0.0309732 97.4472 0.225256 99.0959C0.419538 100.744 1.02259 102.318 1.97955 103.674C2.77162 104.763 3.6812 105.762 4.69207 106.652C5.26046 107.191 5.84794 107.748 6.37169 108.329C7.31747 109.379 8.31176 110.419 9.27395 111.427C11.756 113.878 14.0168 116.543 16.0302 119.391C18.1555 122.754 20.0879 126.235 21.8174 129.817C22.7835 131.725 23.7831 133.699 24.8293 135.604L25.0065 135.928C27.5006 140.46 30.0715 145.147 32.8957 149.579C34.2914 151.653 36.0212 153.479 38.015 154.986C42.0436 158.097 46.5281 160.568 51.3103 162.311C56.0765 164.149 61.1418 165.089 66.2501 165.084C72.1355 165.029 77.9625 163.915 83.4527 161.795C87.1984 160.395 90.637 157.956 94.1215 155.368C100.124 150.909 104.209 144.341 106.977 134.689C110.365 122.999 111.801 110.831 111.228 98.6733C110.995 94.8337 110.08 91.0656 108.527 87.5464ZM42.2931 148.634C41.1164 147.844 40.0902 146.85 39.2633 145.699C37.2266 142.761 35.3402 139.723 33.611 136.594C31.0119 131.776 28.4792 126.779 25.8664 121.319C21.7275 112.673 16.5403 106.008 10.0091 100.944C9.93114 100.886 9.8571 100.823 9.78733 100.756C9.58453 100.549 9.37378 100.345 9.16178 100.14C7.77166 98.7914 6.45822 97.5181 7.27861 95.4224C8.06228 93.4193 10.044 93.0747 11.9743 93.0747C12.1101 93.0747 12.2467 93.0747 12.3819 93.0793C18.835 93.2211 23.8151 95.492 27.1847 99.8284C28.1616 101.27 28.9036 102.856 29.383 104.53C29.491 104.843 29.6004 105.153 29.7111 105.461C30.2053 106.834 30.8723 108.71 33.1668 108.652C34.9435 108.603 36.1201 107.459 36.5796 105.342C36.7639 104.442 36.8446 103.522 36.8199 102.603C36.6887 95.1986 36.5192 86.4122 36.3046 77.379C36.2659 75.7382 36.1866 74.0757 36.1079 72.4663C35.9766 69.6703 35.8379 66.7798 35.9108 63.9478C36.1221 55.5368 36.5998 47.1501 36.9917 40.7837C37.2188 37.0865 37.8451 36.1676 41.1438 34.9094C43.1903 36.3613 44.4747 38.6584 45.0681 41.925C45.9281 46.5354 46.5289 51.1905 46.8672 55.8683C47.343 62.8589 47.6972 69.9795 48.0398 76.8605C48.193 79.9342 48.3499 83.0078 48.51 86.0808C48.5927 87.6389 48.9733 89.4878 51.195 89.9604C53.2651 90.3988 54.3743 88.6858 55.1862 86.9498C55.3496 86.6006 55.5105 86.2481 55.6726 85.8957C56.4954 83.9122 57.5328 82.0246 58.7665 80.2669C59.8029 78.9096 61.1194 78.2539 62.3684 78.4607C63.6739 78.6792 64.7509 79.7924 65.3219 81.5153C65.7086 82.8962 65.9206 84.3191 65.9541 85.7526C65.983 86.1891 66.0119 86.6249 66.0493 87.0567C66.0801 87.6021 66.065 88.1489 66.0027 88.691C65.9738 89.029 65.9456 89.3677 65.937 89.7051C65.8904 91.4004 66.678 92.4426 68.2139 92.7203C69.9203 93.0274 71.1175 92.2326 71.5881 90.4822C71.6537 90.2347 71.7095 89.9827 71.7627 89.7313C71.8362 89.3362 71.9399 88.947 72.0718 88.567C72.2687 88.053 72.4499 87.5332 72.635 87.0128C73.1115 85.5373 73.71 84.1039 74.4248 82.7275C75.6581 80.5163 77.1473 79.9709 79.7411 80.792C82.5253 81.6715 84.2285 83.4607 84.8041 86.1083C85.1119 87.7616 85.2813 89.4373 85.3115 91.1182L85.3239 91.3859C85.4447 94.0218 85.8995 95.6278 87.8613 96.0348C90.0548 96.4903 90.9507 94.9912 91.741 93.672C91.8263 93.5289 91.9123 93.3858 91.9996 93.2447C92.1965 92.9218 92.3933 92.5949 92.5903 92.2667C93.2157 91.1497 93.9364 90.087 94.7424 89.092C96.1207 87.4998 97.6828 86.724 99.1399 86.9058C100.578 87.085 101.876 88.1922 102.794 90.024C104.545 93.5013 105.481 97.3324 105.528 101.225C105.651 109.954 104.557 119.028 102.085 129.791C100.84 135.12 98.5459 140.147 95.3357 144.579C91.844 149.457 86.5579 153.034 79.625 155.212C66.5802 159.305 54.3703 157.154 42.2931 148.634Z" fill="black"/>
<path d="M19.7872 57.2512C22.763 58.1826 24.5726 57.8419 25.3182 56.2011C26.094 54.4946 25.0896 52.7809 22.3336 51.0987L21.6972 50.7141C20.2007 49.8149 18.6531 48.8855 17.6489 47.6096C14.3039 43.4231 12.4082 38.264 12.2466 32.9076C11.8699 22.5657 17.9237 13.7701 28.0471 9.95485C34.4235 7.52345 41.2291 6.41905 48.0472 6.70926C55.6279 7.04596 61.1646 9.06289 65.4734 13.0567C68.3044 15.6821 77.0908 25.1819 71.3282 37.2756C70.0995 39.8788 68.5197 42.3012 66.6327 44.4749C65.101 46.12 63.4496 47.6491 61.6918 49.0496C60.9357 49.683 60.182 50.3163 59.4449 50.9674C59.1069 51.2667 58.7599 51.5581 58.412 51.8482C57.6192 52.4807 56.8716 53.168 56.1751 53.9052C54.9937 55.2179 54.8356 56.7202 55.7472 58.029C56.0541 58.5054 56.4735 58.8991 56.9683 59.1754C57.463 59.4516 58.0178 59.6021 58.5845 59.6134C58.9611 59.612 59.3349 59.5479 59.6904 59.4237C61.412 58.8434 63.0551 58.0522 64.5822 57.0681C68.9358 54.1776 72.6448 50.4187 75.4775 46.0272C83.6562 33.5568 81.9497 19.3864 71.0249 9.04582C64.5441 2.91235 56.6214 0.336225 43.6797 0.154419H43.6528L43.6268 0.158358C42.9862 0.252214 42.1827 0.355259 41.2547 0.468805C38.672 0.790412 35.135 1.23147 31.6656 1.97051C23.2717 3.75968 16.5778 7.63798 11.7688 13.4978C1.40455 26.1244 4.51485 42.0111 12.1959 52.1561C14.114 54.6251 16.7755 56.4116 19.7872 57.2512Z" fill="black"/>
<path d="M54.125 35.2798C53.7817 35.8646 53.4282 36.469 53.1309 37.0958C52.7498 37.7507 52.6104 38.5183 52.7367 39.2654C52.8629 40.0123 53.2468 40.6915 53.8218 41.1848C54.1178 41.473 54.4677 41.6999 54.8515 41.8525C55.2353 42.0052 55.6454 42.0807 56.0584 42.0746C56.4714 42.0685 56.8792 41.9809 57.2583 41.817C57.6374 41.6531 57.9805 41.4159 58.2678 41.1192C59.7103 39.8333 60.9078 38.2965 61.8017 36.5832C64.1737 31.3982 62.3811 25.054 57.3384 20.7911C52.8971 16.8489 47.1059 14.7729 41.1716 14.9956C36.1257 14.7147 31.152 16.3195 26.3752 19.7685C19.3629 24.8335 17.9325 33.9763 20.1476 40.0074C21.2385 42.9747 23.1014 44.5984 25.6887 44.8341C25.7694 44.8413 25.8533 44.8452 25.9393 44.8452C26.8976 44.8452 28.1399 44.3996 28.5547 43.7104C28.8763 43.1775 28.6809 42.2816 27.9202 40.8035C27.6554 40.3307 27.3445 39.8853 26.9921 39.4738C26.5599 39.0051 26.2184 38.4603 25.9851 37.867C24.5412 33.081 26.7251 27.1609 30.8574 24.6701C33.2881 23.1477 35.9686 22.0665 38.7754 21.4763C43.9933 20.5135 48.9485 22.0014 53.1116 25.7806C56.0146 28.4171 56.4387 31.259 54.4461 34.7238L54.125 35.2798Z" fill="black"/>
</g>
<defs>
<clipPath id="clip0_6_2076">
<rect width="111.577" height="165.397" fill="white"/>
</clipPath>
</defs>
</svg>
