<svg width="157" height="146" viewBox="0 0 157 146" fill="none" xmlns="http://www.w3.org/2000/svg">
<g clip-path="url(#clip0_8_2355)">
<path d="M69.7625 108.42C68.5565 107.513 67.3044 106.668 66.0127 105.887L65.735 105.725C62.4262 103.8 59.0053 101.808 55.5442 100.016C54.6547 99.5562 53.7601 99.0465 52.8946 98.5523C50.5221 97.1989 48.0698 95.8003 45.2574 95.1284C45.1337 95.0987 45.0039 95.1052 44.8836 95.1472C44.7633 95.1885 44.6575 95.2635 44.5788 95.3636L43.2417 97.0516C43.166 97.1472 43.1183 97.2622 43.1037 97.3837C43.089 97.5045 43.1081 97.6272 43.1588 97.7377C43.2509 97.9399 43.3274 98.1453 43.4026 98.345C43.5581 98.8443 43.8016 99.312 44.1215 99.7262C51.4116 108.197 60.3405 115.771 73.0693 124.285C73.8458 124.777 74.6587 125.213 75.5002 125.586C76.6212 126.147 77.8545 126.451 79.1092 126.475C80.7941 126.454 82.4147 125.825 83.6694 124.705C83.938 124.48 84.2117 124.259 84.4855 124.038C85.0759 123.565 85.6857 123.074 86.2462 122.528C87.7922 121.024 89.3454 119.527 90.9056 118.036C95.0415 114.066 99.3175 109.961 103.318 105.722C105.796 102.979 108.1 100.085 110.215 97.0555C110.922 96.0865 111.628 95.1168 112.346 94.1614L112.426 94.0554C112.84 93.514 113.81 92.2466 112.38 90.7652C112.263 90.6438 112.103 90.5714 111.934 90.5624C109.513 90.4429 107.901 91.8544 106.347 93.2285C105.765 93.7686 105.146 94.2673 104.494 94.7202C102.057 96.3946 99.7314 98.2235 97.5321 100.196L97.1305 100.541C96.0062 101.506 94.9208 102.54 93.8711 103.54C92.8681 104.495 91.8301 105.483 90.7713 106.399C90.0421 107.028 89.357 107.726 88.6953 108.401C87.4588 109.778 86.036 110.977 84.4673 111.963C84.4583 111.892 84.4498 111.823 84.4414 111.754C84.3538 111.197 84.309 110.634 84.3071 110.07C84.4102 106.449 84.5225 102.827 84.6444 99.2048C84.8319 93.4204 85.0259 87.4389 85.1537 81.5517C85.1939 79.7112 85.2355 77.8694 85.2789 76.0276C85.6604 59.5541 86.0542 42.526 84.5582 25.7877C84.0216 19.7797 83.1114 13.7171 82.2317 7.8519L81.8626 5.38326C81.6381 4.44906 81.2261 3.56993 80.6507 2.79919C80.2991 2.23457 79.9007 1.59443 79.455 0.77786C79.3947 0.667915 79.3051 0.577258 79.1955 0.516044C79.0859 0.45483 78.9613 0.425157 78.8354 0.431506C78.7102 0.437856 78.5889 0.479415 78.4864 0.551373C78.3833 0.623332 78.3028 0.722988 78.2548 0.838425C76.7361 4.44062 76.6868 7.54543 76.6433 10.2839C76.6284 11.2406 76.6141 12.1454 76.5427 13.0434C76.4201 14.5886 76.2709 16.132 76.1217 17.674C75.9329 19.6205 75.7383 21.6335 75.6027 23.6219C75.408 26.4857 75.2861 29.3997 75.1693 32.217C75.1317 33.1111 75.0934 34.0048 75.0551 34.8988L75.0136 35.8369C74.8637 39.2247 74.7093 42.7273 74.5958 46.1764C74.4914 49.3703 74.4109 52.7459 74.3447 56.7997C74.3019 59.3838 74.2799 61.9716 74.2578 64.5589L74.2254 68.0823C74.2137 69.2541 74.1994 70.426 74.1832 71.5979C74.1501 74.1438 74.1183 76.777 74.1183 79.3688C74.1216 82.7029 74.1423 86.6514 74.2656 90.6651C74.3162 92.3267 74.4141 94.0095 74.5095 95.6394C74.6172 97.4832 74.7281 99.3863 74.769 101.26C74.7943 102.388 74.8871 103.539 74.9766 104.651C75.2485 107.03 75.2627 109.432 75.0188 111.814C73.1783 110.825 71.4208 109.69 69.7625 108.42Z" fill="black"/>
<path d="M153.414 82.8574C152.967 82.6106 152.472 82.4626 151.962 82.4239C151.452 82.3858 150.94 82.4581 150.46 82.6351C150.367 82.661 150.28 82.7068 150.206 82.7689C150.132 82.8315 150.073 82.9097 150.032 82.9975C148.3 86.7444 147.818 106.976 147.466 121.748C147.329 127.519 147.218 132.178 147.065 134.431C146.253 134.508 145.487 134.589 144.756 134.667C142.939 134.86 141.37 135.026 139.791 135.063C133.475 135.214 126.008 135.366 118.505 135.366H118.394C113.445 135.366 108.495 135.373 103.545 135.386C87.9382 135.414 71.799 135.446 55.9336 135.16C46.5837 134.991 37.0774 134.392 27.8838 133.812C24.0178 133.568 20.0202 133.316 16.0862 133.102C15.3584 133.045 14.6346 132.948 13.9179 132.809C13.6584 132.765 13.3925 132.72 13.1129 132.676C13.0616 132.333 13.0071 131.996 12.9532 131.661C12.7746 130.672 12.6493 129.674 12.5776 128.671C12.4154 125.566 12.2812 122.46 12.1462 119.352C11.9114 113.939 11.6688 108.341 11.2782 102.841C10.863 96.9761 10.2713 87.1269 9.95667 81.7804C9.9027 80.7727 9.46712 79.8217 8.73759 79.1208C8.00812 78.4199 7.03888 78.02 6.02514 78.0019C4.98431 77.9799 3.97509 78.3578 3.207 79.0575C2.43891 79.7578 1.97095 80.7248 1.90029 81.7591C1.25997 91.7162 -0.15369 116.375 0.545674 130.28L0.590498 131.236C0.613776 133.382 0.859856 135.521 1.32487 137.617C2.28828 141.327 4.51679 142.991 8.77463 143.181C12.154 143.333 15.5328 143.512 18.9109 143.691C24.2956 143.976 29.8677 144.272 35.3536 144.446C47.3823 144.834 58.2737 145.054 68.6499 145.129C73.2749 145.163 77.8993 145.205 82.5243 145.257C90.8154 145.343 99.2253 145.431 107.68 145.431C119.073 145.431 130.546 145.272 141.91 144.74C144.374 144.671 146.832 144.442 149.267 144.055C153.144 143.366 155.322 140.985 155.564 137.169C155.658 135.68 155.78 134.072 155.904 132.447C156.071 130.243 156.245 127.964 156.353 125.881C156.275 111.441 154.825 86.7373 154.546 84.7993C154.511 84.413 154.391 84.0396 154.195 83.7043C153.999 83.369 153.733 83.0796 153.414 82.8574Z" fill="black"/>
</g>
<defs>
<clipPath id="clip0_8_2355">
<rect width="157" height="146" fill="white"/>
</clipPath>
</defs>
</svg>
