<svg width="160" height="115" viewBox="0 0 160 115" fill="none" xmlns="http://www.w3.org/2000/svg">
<g clip-path="url(#clip0_8_2358)">
<path d="M154.383 38.2775C154.085 37.5275 153.787 36.778 153.485 36.0299C150.462 28.5458 147.035 20.0628 141.354 13.0995C136.644 7.32498 130.56 1.33092 121.153 0.656422C119.04 0.505243 116.738 0.454653 114.118 0.503108C112.04 0.541872 109.961 0.577831 107.884 0.610996C100.77 0.729227 93.4135 0.851489 86.1837 1.14287L83.5699 1.2476C72.1127 1.70566 60.266 2.17967 48.643 3.10031C36.6093 4.05326 27.6304 9.32003 21.9546 18.7539C15.2456 29.9063 8.69276 41.2082 3.16917 50.7913C2.12756 52.5802 1.43018 54.5474 1.11262 56.5917C-0.477666 67.9077 1.05818 79.21 2.54417 90.1389C2.80976 92.0945 3.07612 94.0489 3.32162 96.0052C4.14106 102.445 8.00839 107.101 14.8158 109.846C15.2278 110.012 15.6485 110.153 16.0696 110.293C16.3883 110.4 16.7075 110.506 17.0204 110.624C24.3985 113.415 32.2428 113.693 39.1617 113.938C49.5831 114.308 60.2072 114.484 69.5806 114.64C73.3409 114.704 76.9697 114.762 80.414 114.834H80.4431C84.6465 114.736 88.6407 114.653 92.4872 114.571C101.259 114.387 109.544 114.213 117.676 113.925C123.132 113.798 128.574 113.331 133.971 112.528C138.804 111.746 144.925 110.208 149.399 105.219C153.98 100.115 156.441 95.2874 157.146 90.0329C157.302 88.8622 157.474 87.6928 157.645 86.5235C158.11 83.3577 158.59 80.0854 158.763 76.8363C158.937 73.5446 158.984 70.1973 159.031 66.9605C159.087 63.0271 159.144 58.9594 159.431 54.9848C159.713 51.0548 158.56 47.9459 157.272 45.1717C156.225 42.9175 155.289 40.5582 154.383 38.2775ZM133.097 18.606C134.184 19.9657 135.182 21.3944 136.084 22.883C139.855 29.0336 142.394 35.6268 145.082 42.6076C145.88 44.6801 146.701 46.8158 147.562 48.9446C147.109 48.9788 146.666 49.0132 146.232 49.0474C144.769 49.1611 143.388 49.269 142.021 49.3194C135.646 49.5519 129.271 49.7779 122.896 49.9967C116.316 50.2267 109.736 50.4601 103.155 50.697C98.0489 50.883 96.6232 52.0593 95.5317 56.9927C95.1553 58.6964 94.7343 60.4233 94.3268 62.0934L94.159 62.7814C93.2599 66.4682 90.9882 68.8716 87.2162 70.1289C79.7021 72.6304 72.4962 71.6801 65.1874 67.2261C60.6663 64.4711 57.9645 60.915 56.9274 56.3557C55.9816 52.1964 54.6073 50.9727 50.4946 50.9727C50.2355 50.9727 49.9641 50.9772 49.6824 50.9869L12.8927 52.2068L15.0492 48.5203C16.4052 46.2018 17.7637 43.8842 19.1244 41.5678C22.187 36.3496 25.3537 30.9529 28.4235 25.6184C32.8128 17.9948 39.6748 13.5532 48.8213 12.42C53.3894 11.8553 57.5083 11.3778 61.6573 11.2569C69.2742 11.0334 77.0222 10.8584 84.5144 10.6885C94.9973 10.4507 105.838 10.2059 116.497 9.82532C122.977 9.5992 127.948 12.2189 133.097 18.606ZM50.5382 66.7777C51.8126 70.0462 54.1694 72.7823 57.2171 74.5305C67.3102 80.2702 77.6868 82.0572 88.068 79.8367C97.028 77.9204 103.343 70.7026 104.96 60.528C105.017 60.1688 105.057 59.8072 105.108 59.3375C105.118 59.2413 105.129 59.1391 105.141 59.0312C119.195 58.1099 133.556 57.8228 147.451 57.545L148.825 57.518C148.828 57.5302 148.831 57.5431 148.835 57.5561C148.913 57.7652 148.963 57.984 148.983 58.2063V59.035C148.99 68.5118 148.998 78.31 147.552 87.8699C146.931 92.2541 144.98 96.3443 141.963 99.5921C139.298 102.468 135.409 104.05 130.072 104.431C120.411 105.12 109.189 105.862 98.2575 105.958C78.9338 106.129 59.1472 106.037 39.4445 105.683C33.6236 105.579 26.763 105.155 20.0113 102.813C14.5577 100.92 12.0659 97.7734 11.9318 92.6139C11.8755 90.458 11.7153 88.2762 11.5599 86.1668C11.4666 84.8909 11.373 83.6142 11.3011 82.3382C10.9481 76.0714 10.6216 69.9531 10.3295 64.1499C10.2854 63.2893 10.2963 62.4326 10.3086 61.5243C10.3086 61.3111 10.3136 61.0953 10.3162 60.8782L47.8617 59.5281C48.1208 60.2387 48.3678 60.9292 48.6101 61.6063C49.2572 63.4037 49.8639 65.0992 50.5382 66.7771V66.7777Z" fill="black"/>
</g>
<defs>
<clipPath id="clip0_8_2358">
<rect width="160" height="115" fill="white"/>
</clipPath>
</defs>
</svg>
