<svg width="183" height="178" viewBox="0 0 183 178" fill="none" xmlns="http://www.w3.org/2000/svg">
<g clip-path="url(#clip0_8_2271)">
<path d="M9.88377 130.818C15.7252 144.59 23.5514 153.474 34.5089 158.778C36.0008 159.5 37.4868 160.236 38.9721 160.972C42.6607 162.8 46.4753 164.69 50.3313 166.328C66.8563 173.351 81.6758 176.776 95.9222 176.775C101.027 176.776 106.122 176.332 111.149 175.449C136.357 171.037 155.668 158.485 168.547 138.143C175.373 127.358 179.491 114.991 181.499 99.2227C184.521 75.4744 178.106 52.7789 162.43 31.7676C151.804 17.5251 136.359 8.12185 115.214 3.02014C103.127 0.101404 90.1288 -0.48094 75.4767 1.23604C59.0684 3.15911 45.1744 9.07236 33.0026 19.3145C24.1284 26.7056 16.392 35.3642 10.0426 45.0113C2.88855 56.003 0.131916 68.68 0.832231 87.3941C-0.342616 99.9 2.44945 113.296 9.88377 130.818ZM132.626 18.8123C148.238 26.9509 159.36 39.0818 165.682 54.8778C165.996 55.6602 166.311 56.4415 166.627 57.2212C169.366 63.9933 172.185 70.9778 172.887 78.4161C170.889 77.9508 168.849 77.6803 166.798 77.6095C156.59 77.0391 145.902 77.9626 133.169 80.5118C128.347 81.4766 123.456 82.6075 118.73 83.7009C116.712 84.1676 114.685 84.6323 112.648 85.0963L100.21 63.3875C100.509 63.0659 100.802 62.7463 101.09 62.4286C101.927 61.5098 102.717 60.6472 103.571 59.8511C113.482 50.619 121.07 38.7387 127.447 22.4641C128.122 20.6555 128.494 18.7487 128.552 16.8196C129.92 17.4488 131.278 18.1131 132.626 18.8123ZM132.797 158.138C132.756 156.605 132.615 155.084 132.457 153.627C130.356 134.355 126.173 117.699 119.658 102.708C119.046 101.219 118.517 99.6985 118.073 98.1509C117.914 97.6324 117.755 97.1165 117.592 96.6072C127.881 92.1854 154.425 88.4686 167.533 90.7828C167.802 90.8301 168.072 90.8826 168.341 90.9344C169.432 91.1911 170.549 91.3151 171.67 91.3039C172.15 91.2797 172.627 91.2107 173.095 91.0992C172.598 107.901 168.974 120.944 161.714 132.44C154.773 143.631 144.726 152.56 132.797 158.138ZM33.3473 146.24C27.0267 142.328 22.0537 136.461 18.5659 128.796C11.524 113.325 8.46746 99.7556 8.94659 86.0933C9.11789 84.1702 9.26222 82.2432 9.40596 80.3175C9.41055 80.2565 9.4158 80.1941 9.4204 80.1331C10.2451 80.4632 11.0868 80.7494 11.942 80.9896C36.814 87.9921 61.3512 85.3969 84.8794 73.2704C86.3332 72.5215 87.785 71.7661 89.3773 70.9365L91.2196 69.9782C95.4169 76.6072 98.7767 82.4545 101.397 89.0251C100.872 89.2614 100.374 89.4846 99.8878 89.7031C98.5588 90.2998 97.3025 90.8635 96.087 91.4542C94.4461 92.2504 92.7922 93.0295 91.1408 93.8079C87.1667 95.6804 83.058 97.6146 79.1515 99.7891C63.0756 108.694 49.3458 121.292 39.0935 136.544C37.0472 139.71 35.2676 143.039 33.7732 146.499C33.6327 146.413 33.4903 146.329 33.3473 146.24ZM40.9279 150.512C41.4943 149.643 42.0489 148.763 42.6035 147.884C43.9379 145.769 45.3169 143.583 46.8396 141.577C60.754 123.262 79.414 109.614 102.309 101.016C103.253 100.689 104.218 100.425 105.197 100.228C105.549 100.147 105.912 100.065 106.285 99.9755C111.695 113.808 117.238 128.111 119.268 143.281C119.434 144.522 119.598 145.762 119.759 147.003C120.374 151.698 121.011 156.551 121.824 161.301C121.878 161.621 121.95 161.926 122.028 162.225C118.413 163.295 114.734 164.136 111.012 164.74C87.9799 168.519 64.9518 163.9 40.8498 150.629L40.9279 150.512ZM116.968 16.9785L116.912 17.1878C114.789 25.0586 110.966 32.7719 104.518 42.1943C101.449 46.6567 97.739 50.6427 93.5076 54.0242C92.7108 52.9858 91.9297 51.9642 91.1638 50.9591C89.2388 48.4361 87.4194 46.0529 85.537 43.6736C76.0785 31.7283 68.0745 23.2617 59.5856 16.21C58.8132 15.574 57.9979 14.9917 57.1454 14.4679C61.98 12.5618 67.0093 11.1934 72.1431 10.3869C89.1653 7.66642 104.501 8.50968 118.607 12.9774C117.812 14.1949 117.256 15.5528 116.968 16.9785ZM49.4491 19.0559C51.5035 21.1693 53.6602 23.2452 55.746 25.2529C58.5801 27.9826 61.5107 30.8041 64.207 33.7379C71.9272 42.093 78.8785 51.127 84.9765 60.7304C84.4514 61.0737 83.9638 61.3948 83.5083 61.696C82.3715 62.4495 81.3896 63.1008 80.3926 63.6442C60.0221 74.7399 37.8024 77.7952 14.3534 72.7237C12.8747 72.4034 11.4885 72.129 10.1253 71.9446C10.2835 70.4232 10.4535 68.9038 10.6733 67.4021C11.9493 58.579 14.7978 51.6436 19.3836 46.2026C24.4899 40.1413 30.4934 33.1624 37.1316 27.0473C40.7216 23.7323 44.6767 20.8363 48.9208 18.4146C49.082 18.6403 49.2585 18.8546 49.4491 19.0559Z" fill="black"/>
</g>
<defs>
<clipPath id="clip0_8_2271">
<rect width="182.462" height="177.211" fill="white"/>
</clipPath>
</defs>
</svg>
