<svg width="164" height="136" viewBox="0 0 164 136" fill="none" xmlns="http://www.w3.org/2000/svg">
<g clip-path="url(#clip0_6_2213)">
<path d="M163.255 23.3441C162.786 31.0325 159.659 37.5006 153.159 42.0621C150.656 43.7692 148.003 45.2456 145.234 46.4728C138.504 49.5532 131.724 52.5246 124.896 55.3871C122.861 56.2403 120.564 56.4562 118.517 57.2806C116.645 58.0084 114.885 58.9948 113.288 60.2112C90.155 78.3876 67.0538 96.6056 43.9855 114.864C42.7662 115.836 41.6698 116.952 40.7207 118.189C37.6898 122.127 33.6738 124.03 28.9153 122.828C23.893 121.556 20.5398 123.563 17.2922 126.903C14.4824 129.791 11.5262 132.573 7.60454 134.002C5.31325 134.837 3.01016 135.496 1.04114 133.449C-0.430368 131.92 -0.22957 129.276 1.75388 126.642C3.72923 123.918 5.92437 121.361 8.31725 118.995C11.0456 116.397 12.9484 113.577 13.1821 109.74C13.3329 108.63 13.5399 107.528 13.8029 106.439C14.4389 102.589 16.456 99.9063 19.6307 97.4621C26.0274 92.5395 31.9356 86.981 38.1117 81.7638C57.281 65.6408 77.3446 50.6121 98.2069 36.749C100.53 35.2367 102.599 33.3668 104.338 31.2083C109.031 25.3288 113.742 19.456 118.697 13.7997C123.807 7.96548 129.906 3.56067 137.615 1.5398C150.092 -1.73204 157.801 4.21508 161.651 14.5964C162.197 16.1876 162.612 17.8209 162.892 19.4801C163.125 20.6839 163.132 21.9317 163.255 23.3441ZM103.834 40.8066C103.122 41.1945 102.912 41.2837 102.73 41.4117C79.8413 57.4598 57.3274 74.0019 35.9046 91.9882C31.8668 95.3789 28.0003 99.1023 23.532 101.808C20.3815 103.717 19.1497 105.919 19.0564 109.248C19.0374 109.919 18.9132 110.589 18.9132 111.26C18.9132 115.941 17.0019 119.704 13.501 122.742C12.5684 123.551 11.7422 124.483 10.8673 125.358L11.3596 125.824C12.4333 124.748 13.5372 123.699 14.5756 122.591C18.2346 118.685 22.4116 116.23 28.0273 117.625C28.4572 117.732 28.9305 117.66 29.365 117.756C31.5059 118.23 33.1059 117.625 34.0058 115.503C33.2556 114.14 32.2454 112.843 31.8365 111.377C31.6885 110.819 31.6597 110.235 31.7515 109.665C31.8434 109.094 32.0537 108.549 32.3694 108.065C33.2765 107.001 34.6799 107.605 35.6854 108.44C36.7789 109.347 37.7856 110.362 38.9132 111.409L42.1619 108.695C41.1886 107.369 40.2586 106.243 39.4926 105.015C38.7004 103.741 38.69 102.383 39.9692 101.397C41.2484 100.41 42.5625 100.806 43.5871 101.883C44.5059 102.846 45.2672 103.959 46.2832 105.239L49.7316 102.599C48.8127 101.479 47.9727 100.572 47.2678 99.5715C45.9964 97.764 46.0627 95.9971 47.3399 95.0704C48.7641 94.036 50.6452 94.6602 51.7977 96.5983C52.3569 97.5389 52.8328 98.5299 53.4386 99.6674L58.1643 95.9328C57.0486 94.4423 55.7929 93.1178 54.9974 91.5583C54.795 91.0772 54.6993 90.5574 54.7167 90.0356C54.734 89.5132 54.8641 89.0012 55.098 88.5339C55.8305 87.3328 57.2741 87.3715 58.3649 88.2136C59.1996 88.9559 59.9506 89.7862 60.6045 90.6913C61.1368 91.3332 61.6028 92.0309 62.1889 92.827L66.9469 88.8279C65.9715 87.4569 65.0668 86.0372 64.2355 84.5749C63.5791 83.2727 63.6696 81.8832 65.0571 81.0129C66.5583 80.0711 67.6334 80.9401 68.4459 82.134C69.2467 83.3101 69.9181 84.5736 70.749 85.9742L75.5639 82.1097C74.563 80.9079 73.6409 79.6425 72.802 78.3219C72.4168 77.6912 72.294 76.9351 72.4601 76.2144C72.6262 75.4944 73.0672 74.8676 73.6894 74.4686C74.9811 73.7538 76.3876 74.2277 77.3446 75.8134C77.9727 76.8544 78.4643 77.9793 79.1252 79.2763L84.0057 75.3999C82.9759 74.2769 82.0085 73.0988 81.1087 71.8701C80.1077 70.3376 80.3965 68.4145 81.5451 67.604C82.7705 66.7409 84.3057 67.1905 85.5488 68.8818C86.3403 69.9576 87.0124 71.1206 87.8296 72.3867L92.4613 68.7224C91.4598 67.7109 90.6525 66.9581 89.918 66.1403C88.5397 64.606 88.3776 62.675 89.4862 61.6275C90.7168 60.4658 92.7449 60.8544 94.1508 62.5864C94.9049 63.5158 95.5599 64.5253 96.3771 65.6618L101.454 61.7155C100.782 61.1767 100.359 60.8511 99.9502 60.5078C99.5045 60.168 99.0838 59.7965 98.692 59.396C97.3642 57.9022 97.2749 56.1702 98.4373 55.2342C99.6318 54.272 101.356 54.6435 102.49 56.2108C103.179 57.1638 103.719 58.2246 104.499 59.5254L111.724 53.5073L103.834 40.8066ZM118.631 50.7829C125.205 45.5237 133.361 43.2015 141.136 40.0386C143.725 38.9667 146.204 37.648 148.54 36.1006C156.447 30.9155 158.799 22.1568 154.703 13.7261C151.842 7.83546 147.776 5.80077 141.274 6.81676C134.261 7.91284 128.756 11.5963 124.132 16.7216C120.373 20.8881 116.821 25.2402 113.137 29.4755C111.306 31.5804 109.385 33.6066 107.732 35.4194C111.388 40.5723 114.882 45.4981 118.631 50.7823V50.7829Z" fill="black"/>
</g>
<defs>
<clipPath id="clip0_6_2213">
<rect width="163.428" height="135.206" fill="white"/>
</clipPath>
</defs>
</svg>
