<svg width="154" height="126" viewBox="0 0 154 126" fill="none" xmlns="http://www.w3.org/2000/svg">
<g clip-path="url(#clip0_8_2273)">
<path d="M134.165 81.6366C134.816 85.1808 135.407 88.4815 136.032 91.7757C137.102 97.4077 135.802 100.193 130.613 102.577C115.846 109.364 101.056 116.102 86.2449 122.792C84.6237 123.56 82.9343 124.175 81.199 124.63C79.9138 124.99 78.5611 125.036 77.2557 124.761C73.8217 123.834 70.4186 122.746 67.0857 121.5C52.9086 116.202 38.7494 110.855 24.608 105.458C22.8302 104.769 21.0944 103.976 19.4092 103.084C15.9903 101.302 14.9867 98.9541 15.1528 95.102C15.3602 90.3035 15.2028 85.49 15.2028 80.3797C13.325 79.2836 11.1919 78.0569 9.07845 76.7974C7.99477 76.208 6.95683 75.5379 5.97334 74.7936C3.53242 72.7839 3.38133 70.7381 5.66408 68.5446C8.08862 66.2146 10.6484 64.0156 13.235 61.8654C17.4553 58.354 21.7457 54.9255 26.4057 51.1371C23.7206 49.7969 21.3073 48.5452 18.8539 47.3769C13.5947 44.873 8.28099 42.4814 3.05651 39.9085C-0.238958 38.2861 -0.483763 35.2688 2.55705 33.0202C6.61587 30.0201 10.8649 27.2792 14.988 24.3644C24.6979 17.5 34.3899 10.6107 44.0639 3.69684C47.5018 1.23164 48.2297 1.13734 51.8369 3.44175C57.8879 7.30581 63.948 11.1561 70.0176 14.993C71.4353 15.8889 72.9055 16.6996 74.4767 17.6264C76.577 16.2625 78.6261 14.9203 80.6863 13.5919C86.8139 9.63942 92.9211 5.65423 99.0868 1.76084C100.375 0.876529 101.866 0.331034 103.421 0.174798C104.976 0.0185621 106.545 0.256421 107.984 0.86671C123.357 6.64245 137.06 15.3502 150.515 24.5179C153.895 26.821 153.938 28.7724 152.09 32.5142C150.691 35.3509 148.579 37.0462 145.986 38.4632C139.987 41.7449 133.998 45.0449 127.707 48.5005C128.292 49.154 128.92 49.7678 129.587 50.3381C136.071 55.1498 142.549 59.9715 149.087 64.7122C153.16 67.6658 152.937 72.3067 148.406 74.6413C143.83 76.9996 139.163 79.1904 134.165 81.6366ZM38.9694 50.6317C39.647 51.1177 40.3548 51.5602 41.0887 51.9563C51.8047 56.8132 62.5785 61.5387 73.2212 66.548C75.8957 67.8069 77.8352 67.5148 80.3286 66.1437C91.2239 60.1524 102.244 54.401 113.211 48.5432C113.438 48.4218 113.539 48.0659 113.704 47.8099C102.849 39.9995 91.1215 33.8727 79.4485 27.6519C78.101 26.9299 77.0496 27.1005 75.7376 27.9144C64.2134 35.0619 52.6343 42.1222 41.0781 49.2146C40.4257 49.6143 39.8069 50.0666 38.9694 50.6317ZM80.1127 20.2431C82.0338 21.2617 83.1004 21.8316 84.1709 22.3948C92.5004 26.7771 100.853 31.1166 109.151 35.5581C112.904 37.5671 116.608 39.6845 120.214 41.9436C121.697 42.8716 122.774 42.7538 124.175 41.9058C127.916 39.6427 131.765 37.5573 135.516 35.31C138.002 33.8215 140.393 32.1754 143.008 30.4814C142.23 29.8828 141.709 29.489 141.195 29.0847C130.19 20.4171 117.953 13.8944 105.168 8.30436C104.633 8.01387 104.034 7.86599 103.426 7.87459C102.818 7.88319 102.223 8.04819 101.698 8.35372C94.7464 12.2084 87.7781 16.029 80.1127 20.2466V20.2431ZM31.7174 46.0806C48.6693 36.2218 65.8794 24.8107 67.9678 22.0279L48.3432 8.92125L9.34223 37.0986L31.7174 46.0806ZM121.45 53.6606C108.227 58.8345 96.5573 66.5251 83.8519 73.0596L106.18 88.0149L141.659 69.8468L121.45 53.6606ZM31.1497 54.2448L14.3041 70.6987L45.9633 89.3262L69.0088 72.9447L31.1497 54.2448ZM72.3095 78.6752C72.0522 78.7185 71.8035 78.8006 71.5711 78.9187C65.1434 84.176 58.6353 89.3407 52.3404 94.7515C48.7961 97.8002 45.1095 97.9354 41.0861 96.2828C40.0714 95.8056 39.1007 95.2405 38.1856 94.5927C33.9352 91.8755 29.7026 89.1287 25.4462 86.4206C24.5372 85.8418 23.5546 85.3771 22.0988 84.5829C22.6127 88.2039 23.2861 91.2775 23.4115 94.3781C23.5106 96.8065 24.5397 97.9072 26.6932 98.6935C40.3772 103.697 54.0232 108.801 67.6922 113.847C69.0245 114.339 70.4298 114.63 72.3089 115.16L72.3095 78.6752ZM127.994 85.1611C127.473 85.2123 126.959 85.3213 126.463 85.4854C120.065 88.7191 113.646 91.9175 107.31 95.2648C105.439 96.2552 103.7 96.46 101.895 95.503C100.316 94.657 98.7934 93.7112 97.3357 92.6709C92.3042 89.1044 87.3173 85.4755 82.3003 81.8893C81.4221 81.2618 80.479 80.7249 79.079 79.8376C79.7924 92.2489 79.9539 104.122 80.7513 116.277C83.7705 114.899 86.2206 113.802 88.6569 112.668C101.147 106.854 113.635 101.035 126.121 95.209C128.842 93.9403 128.859 93.9305 128.604 90.9179C128.445 89.0552 128.211 87.1899 127.994 85.1644V85.1611Z" fill="black"/>
</g>
<defs>
<clipPath id="clip0_8_2273">
<rect width="153.583" height="125.361" fill="white"/>
</clipPath>
</defs>
</svg>
