<svg width="162" height="149" viewBox="0 0 162 149" fill="none" xmlns="http://www.w3.org/2000/svg">
<g clip-path="url(#clip0_6_1958)">
<path d="M0.0593178 96.0504C-0.195998 81.4311 3.90548 71.1135 12.3375 62.4627C20.3671 54.2257 29.9647 48.1824 40.1091 43.0892C44.3363 40.9915 47.7874 37.6044 49.964 33.4172C51.1382 31.271 51.8392 28.8616 52.7088 26.5545C53.1833 25.2957 53.5731 24.0041 53.9853 22.7222C58.048 10.0779 67.0882 3.20401 79.7851 0.88779C95.1513 -1.91543 109.411 5.77834 116.737 20.5295C117.008 21.0217 117.245 21.5318 117.445 22.0566C120.421 31.0189 127.166 35.7368 135.765 38.3746C137.374 38.8682 138.972 39.3973 140.591 39.8495C151.43 42.8778 157.509 50.2242 159.978 60.9776C161.937 69.5101 160.652 77.1892 154.796 83.9843C152.236 86.9529 150.065 90.2549 147.746 93.4264C144.348 98.0726 143.202 103.321 143.479 109.006C143.644 112.364 143.91 115.783 143.494 119.093C142.068 130.431 132.679 144.629 115.654 147.277C103.864 149.115 92.4426 148.327 81.1897 144.228C76.7495 142.686 72.2143 141.431 67.6127 140.472C60.6512 138.915 53.7845 140.406 46.8857 141.416C42.8072 142.013 38.5313 142.63 34.5164 142.048C20.1965 139.97 10.4984 131.56 4.94051 118.446C1.58531 110.533 0.0205939 102.137 0.0593178 96.0504ZM106.508 138.319C108.245 138.187 110.37 137.967 112.5 137.866C127.712 137.144 137.362 123.053 134.68 110.053C132.992 101.872 135.077 94.2238 140.324 87.5869C143.319 83.8018 146.315 80.0161 149.382 76.2887C150.742 74.7063 151.707 72.8233 152.196 70.7945C152.685 68.7658 152.684 66.6504 152.194 64.6221C151.749 62.5455 151.162 60.4932 150.528 58.4644C148.898 53.2511 145.318 49.9202 140.235 48.1698C137.375 47.1853 134.43 46.4429 131.58 45.4335C121.6 41.9004 113.728 36.0834 110.349 25.4928C110.137 24.8533 109.874 24.2321 109.561 23.6353C102.351 9.51679 88.2958 2.05798 71.5592 11.1318C68.9844 12.4934 66.7686 14.4459 65.0932 16.829C62.8099 20.2799 61.0098 24.0273 59.7428 27.9665C57.3556 35.6412 52.4754 42.2994 45.8757 46.8866C39.5834 51.3989 33.1874 55.7735 27.0152 60.4453C19.2979 66.2868 12.5448 72.9854 10.2575 82.8921C7.27048 95.1578 9.21468 108.107 15.6723 118.955C21.1199 128.249 29.7579 133.282 41.169 131.663C43.3907 131.348 45.6197 131.061 47.8263 130.658C54.6063 129.421 61.4552 128.568 68.2283 130.145C74.4281 131.588 80.5176 133.542 86.5946 135.461C92.967 137.482 99.4109 138.737 106.508 138.322V138.319Z" fill="black"/>
<path d="M84.6772 96.2919C77.3131 96.1869 70.2266 93.4604 64.6918 88.6016C55.4525 80.6855 54.2232 67.0907 61.7606 57.0034C64.861 52.8485 68.973 49.5566 73.7059 47.4406C77.0532 45.9094 80.1793 44.0275 83.9611 43.5234C94.0687 42.1819 106.12 48.3031 111.401 57.652C116.318 66.3563 115.083 78.6666 108.175 86.6431C102.302 93.4237 94.5105 96.1324 84.6772 96.2919ZM105.421 69.2974C105.456 58.2708 95.3033 51.6201 86.0437 51.137C76.8668 50.6572 70.0809 55.7484 66.3135 64.2506C63.0975 71.5112 65.566 79.3735 72.2409 83.6935C78.7787 87.9249 85.8678 88.6508 93.184 86.349C100.773 83.9619 105.463 77.2062 105.423 69.2974H105.421Z" fill="black"/>
</g>
<defs>
<clipPath id="clip0_6_1958">
<rect width="161.459" height="148.332" fill="white"/>
</clipPath>
</defs>
</svg>
