<svg width="128" height="105" viewBox="0 0 128 105" fill="none" xmlns="http://www.w3.org/2000/svg">
<g clip-path="url(#clip0_8_2360)">
<path d="M67.1676 60.297C50.2518 60.4965 33.336 60.7037 16.4202 60.9186C14.2222 60.9499 12.0302 61.3678 9.82639 61.4833C8.06289 61.6036 6.29247 61.5862 4.53159 61.4312C2.9206 61.2629 1.5696 60.4529 1.13323 58.6992C0.716263 57.0238 1.29696 55.6842 2.54011 54.5103C5.68064 51.5429 8.82488 48.5755 11.8659 45.5057C25.781 31.4579 40.0518 17.7988 55.2437 5.15312C56.4377 4.15986 57.6485 3.18677 58.8554 2.20982C61.696 -0.0890941 64.6904 -0.330374 67.732 1.71289C69.6759 2.98984 71.5429 4.38069 73.3252 5.8783C81.8262 13.1787 90.3712 20.4329 98.7138 27.9146C106.064 34.5068 113.217 41.3259 120.345 48.1639C122.107 49.8428 123.61 51.7771 124.806 53.9031C126.642 57.2253 125.541 59.431 121.843 60.3029C120.331 60.6169 118.787 60.7465 117.245 60.689C100.552 60.4716 83.8593 60.2324 67.1676 59.9715V60.297ZM112.321 52.3157C112.111 51.9706 111.88 51.6393 111.628 51.3237C97.7939 36.6974 82.7151 23.4348 67.5484 10.2668C66.8799 9.68567 66.108 9.22328 65.4467 8.63632C64.2294 7.55436 63.1467 7.68943 61.9281 8.70551C59.6286 10.6229 57.1398 12.3199 54.9218 14.324C42.0786 25.9301 29.2754 37.5786 16.512 49.2694C14.8267 50.8131 13.4303 52.6783 11.8536 54.4464L112.321 52.3157Z" fill="black"/>
<path d="M63.5158 74.2638C82.6511 74.4627 101.786 74.6694 120.922 74.884C122.24 74.9036 123.548 75.1103 124.809 75.499C125.616 75.7449 126.325 76.2444 126.831 76.9246C127.337 77.6055 127.615 78.4312 127.622 79.2816C127.752 81.2023 126.947 82.9083 125.126 83.6146C123.594 84.2244 121.963 84.5394 120.316 84.5447C109.587 84.3947 98.8606 84.1683 88.1351 83.8651C68.3442 83.3238 48.554 82.7499 28.7645 82.1433C21.8001 81.9386 14.8352 81.7462 7.87338 81.4657C6.43818 81.4057 5.01823 81.1423 3.65559 80.6831C1.33672 79.9005 0.152586 77.8136 0.617394 75.7697C1.07703 73.7479 2.606 72.6523 5.13949 72.7436C9.55936 72.9033 13.9741 73.2888 18.392 73.3553C33.4333 73.5816 48.4763 73.7101 63.5189 73.877L63.5158 74.2638Z" fill="black"/>
<path d="M65.3355 93.0323C81.8572 93.6115 100.746 94.2525 119.633 94.9706C121.389 95.0352 123.124 95.373 124.779 95.971C125.681 96.2828 126.453 96.8938 126.966 97.7051C127.48 98.5165 127.706 99.4797 127.606 100.437C127.55 101.34 127.205 102.201 126.624 102.891C126.042 103.579 125.255 104.059 124.38 104.259C122.785 104.67 121.141 104.854 119.496 104.807C111 104.374 102.513 103.769 94.0185 103.311C82.6537 102.699 71.2882 102.064 59.9154 101.63C49.7562 101.243 39.5887 101.069 29.423 100.889C23.1271 100.778 16.8278 100.868 10.5312 100.785C8.76238 100.747 6.99992 100.559 5.26199 100.224C4.20567 100.029 2.93475 99.7308 2.27083 99.0043C1.89132 98.5712 1.60111 98.0665 1.41729 97.5193C1.23348 96.9715 1.1596 96.3923 1.20012 95.8158C1.32942 94.9784 2.46845 94.1508 3.34311 93.6362C3.93851 93.2854 4.84997 93.4536 5.6212 93.4406C13.1305 93.2991 20.6394 93.093 28.1487 93.0493C39.7534 92.9841 51.3586 93.0323 65.3355 93.0323Z" fill="black"/>
</g>
<defs>
<clipPath id="clip0_8_2360">
<rect width="128" height="105" fill="white"/>
</clipPath>
</defs>
</svg>
