<svg width="127" height="117" viewBox="0 0 127 117" fill="none" xmlns="http://www.w3.org/2000/svg">
<g clip-path="url(#clip0_8_2364)">
<path d="M63.9035 116.306C53.5847 116.906 47.1277 115.666 36.7993 115.295C34.7917 115.118 32.8932 114.306 31.3805 112.977C20.0554 101.882 11.3948 88.684 2.58062 75.6511C-0.690927 70.8141 0.188978 66.871 4.76162 63.0287C23.4877 47.2945 52.9698 21.7341 71.9304 5.91263C72.3192 5.58942 72.973 5.08075 73.387 4.78599C82.082 -1.39109 84.7192 -1.2004 91.0115 7.13569C96.9857 15.0535 102.584 23.2512 108.486 31.224C112.554 36.7185 116.851 42.0482 121.063 47.4379C122.011 48.6506 123.157 49.7243 123.994 51.0036C127.895 56.9686 127.299 61.1237 121.917 65.8147C111.072 75.2665 89.3586 94.7887 78.5214 104.25C77.1627 105.433 67.5308 116.094 63.9035 116.306ZM114.026 60.5561C103.178 43.2699 91.2532 26.8285 80.6467 9.92746C69.0677 19.1065 48.7568 37.99 37.7661 46.7049L79.6599 91.163C87.7076 84.1469 106.377 67.2259 114.026 60.5561ZM69.9787 99.8844C56.5414 84.5645 45.4392 67.1897 30.4182 52.9195L10.4895 70.3435C17.1091 79.9898 22.8617 89.5599 29.7923 98.1882C39.6957 110.517 34.9112 107.826 50.748 109.217C55.1068 109.601 62.0833 108.58 62.0833 108.58C62.0833 108.58 67.8515 103.95 69.9787 99.8844Z" fill="black"/>
</g>
<defs>
<clipPath id="clip0_8_2364">
<rect width="127" height="117" fill="white"/>
</clipPath>
</defs>
</svg>
