<svg width="101" height="145" viewBox="0 0 101 145" fill="none" xmlns="http://www.w3.org/2000/svg">
<path d="M82.501 35.4416C84.7161 35.1731 87.0008 35.0661 89.2101 34.9618C90.0935 34.9204 90.9769 34.879 91.8604 34.8304C95.6599 34.6085 98.1757 32.5543 98.7611 29.1951C100.367 19.9867 100.412 12.4697 98.9062 5.53749C98.1533 2.07531 95.8745 0.265074 92.5193 0.425876C89.1937 0.589305 85.7958 0.688359 82.5095 0.783528C74.0559 1.029 65.3131 1.28232 56.8779 2.658C41.8228 5.11271 32.3965 14.6186 30.3303 29.4256C29.8155 33.7215 29.5444 38.0434 29.5184 42.3699C29.4758 44.0895 29.4318 45.8682 29.3563 47.6088C29.2999 48.913 29.3137 50.2388 29.3281 51.6414C29.3334 52.133 29.3386 52.6388 29.3406 53.1672C27.9505 53.2144 26.6142 53.2585 25.3166 53.2986C22.0211 53.4049 18.9087 53.5054 15.8312 53.653L14.4791 53.7145C11.7656 53.787 9.05804 54.0085 6.36874 54.3776C2.52982 54.9769 1.10561 56.5481 0.921181 60.3811C0.631081 66.4851 0.335674 73.5795 0.50304 80.6049C0.645466 86.5776 3.30894 89.0717 9.69639 89.2121C12.3217 89.2686 14.9845 89.1918 17.5593 89.1156C19.1818 89.0677 20.8594 89.0178 22.5055 89.0034C23.4889 89.0047 24.4715 89.0592 25.4492 89.1662C25.7117 89.1891 25.9742 89.2121 26.2243 89.2318C26.2899 89.3992 26.3456 89.5475 26.3982 89.6821C26.4993 89.8914 26.5701 90.1139 26.6082 90.3436C26.666 104.3 26.7231 119.176 26.7349 134.115C26.7408 141.278 28.4709 143.124 35.5522 143.52C41.3404 143.844 47.235 143.89 52.9313 143.934L55.111 143.951C55.3079 143.951 55.4943 143.951 55.6807 143.951C63.9926 143.951 65.6712 142.255 66.6892 133.453C66.8861 131.868 66.9983 130.275 67.0252 128.678C67.1059 119.752 67.1571 110.681 67.2083 101.906L67.2241 99.0381C67.2339 97.2627 67.2326 95.488 67.2293 93.5485V91.2231C68.7684 91.2231 70.2347 91.2264 71.6498 91.2284C75.1283 91.2349 78.4061 91.2395 81.6261 91.2146C86.3104 91.1785 89.6991 88.901 91.1725 84.8022C93.3791 78.6569 95.4945 71.9222 97.6401 64.2153C98.194 62.2246 97.9768 60.4961 97.0113 59.2143C96.017 57.8937 94.3374 57.1854 92.1544 57.1677C88.2912 57.1362 84.3591 57.2811 80.5615 57.4209C78.582 57.4937 76.6018 57.5661 74.6236 57.618C73.1528 57.6547 71.6544 57.6455 70.2025 57.635C69.705 57.6314 69.2075 57.6287 68.7113 57.6269C68.6227 57.2869 68.5407 56.9831 68.4646 56.7081C68.286 56.118 68.1489 55.5164 68.0537 54.9074C67.8896 53.847 67.8417 52.7717 67.9113 51.701C68.8656 42.3232 70.0142 36.9466 82.501 35.4416ZM85.3469 68.1135L81.8538 80.4848L78.1554 80.5458C75.2261 80.5931 72.3606 80.6397 69.4924 80.6961C57.8985 80.9272 56.3699 82.3757 55.8566 93.6188C55.5081 101.241 55.4668 108.998 55.4261 116.499C55.4097 119.66 55.3926 122.821 55.3539 125.979C55.3322 127.772 55.3375 129.565 55.3434 131.44C55.3434 132.151 55.348 132.873 55.3493 133.611C49.9712 134.56 45.1183 134.232 39.991 133.884C39.4196 133.846 38.845 133.808 38.2674 133.77C38.2215 133.483 38.1729 133.204 38.1263 132.929C37.964 132.108 37.8593 131.276 37.8126 130.44C37.6608 125.175 37.5197 119.91 37.3893 114.645C37.1648 105.916 36.933 96.8913 36.6259 88.0156C36.3686 80.5393 34.6175 78.9837 26.7487 79.1997C23.0673 79.3053 19.424 79.5101 15.5673 79.7247C14.061 79.8101 12.5318 79.896 10.969 79.9781V64.3974C11.3287 64.3488 11.6864 64.2969 12.0415 64.2457C13.1798 64.0593 14.3271 63.9336 15.4787 63.8695C17.4852 63.7947 19.531 63.7613 21.5092 63.7298C24.397 63.6825 27.3774 63.634 30.3119 63.4561C37.7029 63.0085 39.1069 61.5473 39.141 54.2619C39.1522 52.1301 39.1377 49.996 39.124 47.8655C39.1023 44.4414 39.0799 40.9009 39.1626 37.4263C39.2642 35.2019 39.5036 32.9861 39.8794 30.7914L40.0684 29.515C41.4598 19.9613 47.4134 14.0753 58.2712 11.5202L58.9965 11.3455C60.2236 10.9959 61.4859 10.785 62.7599 10.7167C69.0868 10.6577 75.3246 10.6663 81.93 10.6728C84.0093 10.6755 86.1102 10.6771 88.2315 10.6779C89.4313 15.4344 88.7848 20.3505 87.9315 24.6094C87.0625 24.7643 86.1929 24.9173 85.3213 25.0687C83.1193 25.452 80.8418 25.8486 78.6069 26.3041C66.3433 28.7982 60.7654 34.9145 59.3529 47.4053C59.2768 48.0866 59.1961 48.7686 59.1167 49.4512C58.7301 52.7506 58.3291 56.1629 58.2634 59.5418C58.1492 65.414 60.1819 67.5805 66.0295 67.8221C69.346 67.9592 72.7143 67.8969 75.9711 67.8372C77.7721 67.8037 79.6341 67.7715 81.4633 67.7715C82.3947 67.7899 83.3247 67.8628 84.2475 67.9894C84.5934 68.0275 84.9564 68.0695 85.3475 68.1115L85.3469 68.1135Z" fill="black"/>
</svg>
