<svg width="159" height="158" viewBox="0 0 159 158" fill="none" xmlns="http://www.w3.org/2000/svg">
<g clip-path="url(#clip0_8_2277)">
<path d="M158.492 96.2848C158.509 89.6118 158.528 82.7097 158.488 75.9219C158.454 69.7326 158.234 63.4457 158.021 57.3654L157.885 53.4374C157.835 51.9501 157.795 50.4617 157.753 48.9744C157.622 44.1726 157.491 39.2073 157.006 34.3465C156.509 29.4193 155.576 24.5459 154.217 19.7837C150.419 6.44297 137.755 0.396729 127.528 0.396729H127.371C109.308 0.506337 90.9447 1.01056 73.1914 1.49757C66.9805 1.66778 60.7704 1.83247 54.5605 1.99174L51.0347 2.07763C44.0421 2.24434 36.8112 2.41689 29.7103 2.85992C16.8802 3.65999 8.35631 8.89055 3.65365 18.8498C2.28405 21.7504 1.48078 24.8857 1.28693 28.0876C0.0917368 51.5333 0.626625 75.364 1.14447 98.4093C1.21142 101.385 1.27709 104.358 1.34141 107.328L1.38667 109.448C1.52254 115.781 1.66366 122.33 1.70435 128.769C1.7877 142.027 13.2723 154.485 26.2809 155.424C29.146 155.578 32.0174 155.574 34.8822 155.415C36.7941 155.343 38.7736 155.265 40.702 155.294C49.3059 155.412 58.0536 155.581 66.5138 155.743C71.3333 155.835 76.1528 155.925 80.9723 156.012C84.4292 156.073 87.8875 156.127 91.3477 156.177C97.407 156.268 103.672 156.362 109.831 156.505C110.916 156.566 111.993 156.728 113.048 156.987C113.573 157.098 114.092 157.209 114.615 157.299C114.652 157.305 114.69 157.308 114.728 157.308H121.444C121.477 157.308 121.51 157.306 121.542 157.301C122.921 157.097 124.304 156.917 125.687 156.737C128.689 156.343 131.791 155.942 134.802 155.286C148.097 152.39 158.758 138.615 158.572 124.58C158.445 115.152 158.469 105.561 158.492 96.2848ZM149.697 111.092C149.711 115.861 149.722 120.631 149.732 125.401C149.747 134.232 142.502 144.013 134.228 146.331C129.247 147.797 124.096 148.603 118.907 148.729C111.643 148.795 104.418 148.473 96.769 148.139C93.7584 148.008 90.6972 147.872 87.5672 147.758L88.3042 89.7877C89.6038 89.7516 90.8738 89.722 92.1208 89.6879C95.7031 89.596 99.0866 89.5094 102.479 89.3768C104.298 89.3217 106.109 89.1307 107.9 88.8058C110.423 88.328 111.824 86.6937 111.646 84.4359C111.462 82.1013 109.799 80.6521 107.305 80.6521H107.299C105.259 80.6521 103.195 80.7637 101.195 80.87C100.428 80.9107 99.6608 80.952 98.8936 80.9868C96.4776 81.0977 94.0616 81.212 91.5485 81.3321L88.6606 81.4699C88.6508 80.2452 88.637 79.0224 88.6193 77.8029C88.4782 67.0547 88.3449 56.9028 92.2948 47.0512C95.5764 38.866 104.195 34.8828 112.343 37.7884C114.009 38.4617 115.591 39.3245 117.06 40.36C118.107 41.036 119.19 41.7383 120.319 42.3139C121.085 42.7077 123.044 43.5752 124.685 43.167C126.557 42.7076 127.371 40.9034 126.81 38.4579C126.413 36.7768 125.655 35.2019 124.59 33.8421C123.525 32.4822 122.177 31.3699 120.64 30.5819C117.327 28.7358 113.664 27.6081 109.887 27.2719C106.11 26.9359 102.305 27.3989 98.7183 28.6311C91.9915 30.9992 86.7074 36.1348 83.8319 43.092C81.2945 49.2916 79.9182 55.9046 79.7705 62.6017C79.653 67.0817 79.6799 71.5087 79.7088 76.1956C79.72 78.0733 79.7311 79.9774 79.7331 81.9169L77.6433 82.0921C75.5693 82.2673 73.6095 82.4327 71.6792 82.5653C70.9572 82.6152 70.2142 82.6165 69.4936 82.6178C69 82.6178 68.5058 82.6178 68.0135 82.6342C64.5113 82.7406 63.7 84.6689 63.6364 86.2717C63.5432 88.6023 65.1105 90.0627 67.8278 90.1769C70.0272 90.2694 72.2555 90.2123 74.4109 90.1578C75.3586 90.1335 76.3057 90.1086 77.2528 90.0968C77.7602 90.0896 78.2682 90.0929 78.8668 90.0942H79.2172L79.781 147.073H78.7119C77.2023 147.073 75.5496 147.073 73.8963 147.073C69.7692 147.077 65.6409 147.071 61.5111 147.053C52.2502 147.026 42.6742 146.999 33.2571 147.161C26.1936 147.258 20.2675 145.238 16.1864 141.243C11.8953 137.042 9.61123 130.734 9.58169 123.006L9.54625 113.676C9.45173 89.1162 9.35328 63.7194 9.38676 38.7418C9.3099 32.911 10.704 27.1548 13.4403 22.0052C15.9226 17.4443 19.5882 14.6025 24.0408 13.786C31.084 12.4943 37.9742 11.3194 44.8388 11.1343C66.4652 10.5495 94.9352 9.87282 123.364 9.82163H123.442C136.723 9.82163 144.567 16.0738 146.758 28.4064C148.286 37.0097 149.908 47.0427 149.797 57.2382C149.598 75.1927 149.648 93.4441 149.696 111.094L149.697 111.092Z" fill="black"/>
</g>
<defs>
<clipPath id="clip0_8_2277">
<rect width="158.834" height="157.521" fill="white"/>
</clipPath>
</defs>
</svg>
