<svg width="158" height="153" viewBox="0 0 158 153" fill="none" xmlns="http://www.w3.org/2000/svg">
<path d="M70.315 61.5715C75.2165 57.8796 79.3882 54.6903 83.6104 51.5687C89.8397 46.9639 96.1025 42.4064 102.356 37.8344C102.89 37.4239 103.454 37.0532 104.043 36.7252C107.46 34.9282 110.073 36.5198 110.17 40.3489C110.331 46.6254 110.572 52.8995 110.795 59.6657C111.924 59.0323 112.686 58.6809 113.368 58.211C124.384 50.6644 135.397 43.1149 146.408 35.5622C147.767 34.57 149.246 33.7539 150.81 33.1336C154.212 31.9213 156.249 33.2966 156.671 36.8999C156.776 38.0174 156.816 39.1401 156.79 40.2623C156.755 70.8088 156.721 101.355 156.686 131.903C156.686 136.497 156.803 141.095 156.938 145.69C157.021 148.477 155.833 149.859 152.93 149.834C150.126 149.81 147.324 149.485 144.521 149.489C125.429 149.516 106.337 149.523 87.2472 149.682C75.1207 149.783 62.994 150.052 50.8714 150.397C40.4357 150.693 30.0059 151.266 19.5695 151.585C15.5335 151.727 11.4929 151.645 7.46599 151.34C3.21621 150.998 0.97614 148.472 0.92954 144.278C0.75036 128.223 0.526486 112.168 0.535674 96.1126C0.544207 78.0338 0.751147 59.955 0.95133 41.8769C0.995961 37.8443 1.32523 33.8115 1.61665 29.7862C1.78007 27.5304 2.92947 26.0951 5.4393 25.7472C12.2127 24.8087 19.0057 23.9287 25.8198 23.4036C29.8464 23.0931 31.0954 24.2635 31.629 28.2428C32.3753 33.8014 32.8519 39.4004 33.3757 44.9839C33.8883 50.4551 34.3142 55.9337 34.8235 61.9365C35.8553 61.2375 36.6539 60.7677 37.3733 60.1986C43.7995 55.1146 50.1752 49.9649 56.6506 44.9445C58.6881 43.3597 60.8671 41.9657 63.1602 40.7805C66.48 39.074 68.852 40.3311 69.5267 44.027C69.7309 45.5843 69.826 47.1537 69.8116 48.7242C69.9796 52.7508 70.1293 56.7809 70.315 61.5715ZM149.338 142.774C147.495 109.002 148.98 75.5062 150.493 41.7317C149.919 41.9564 149.361 42.221 148.824 42.5233C135.922 51.2788 123.03 60.0492 110.149 68.8346C107.252 70.82 104.254 69.846 103.536 66.3825C103.376 65.2737 103.354 64.1494 103.47 63.0351C103.578 60.6802 103.826 58.3299 103.877 55.975C103.95 52.6802 103.896 49.3827 103.896 45.4079C99.5155 48.6561 95.6352 51.4667 91.8278 54.373C85.3143 59.3447 78.8461 64.3759 72.3608 69.3846C70.3846 70.9099 68.3532 71.0687 66.0685 69.9707C63.7247 68.8444 62.7808 67.0106 62.8471 64.5632C62.9409 61.0846 63.1439 57.6124 63.2489 54.1358C63.3074 52.2193 63.2592 50.2996 63.2592 48.0188C62.3764 48.6095 61.8809 48.8675 61.4687 49.2232C55.7717 54.1313 50.0485 59.0106 44.4113 63.9869C41.2989 66.7349 38.3414 69.657 35.3046 72.4904C33.7129 73.9757 31.8712 74.6563 29.7433 73.8805C27.7028 73.1329 26.9764 71.349 26.6488 69.403C26.5238 68.4001 26.4877 67.388 26.5411 66.3786C26.6763 55.3767 26.8179 44.3742 26.9658 33.3714C26.9809 32.19 26.9658 31.0084 26.9658 29.51L6.4081 33.6127C6.4081 36.7631 6.39891 39.6611 6.4081 42.5601C6.46258 57.268 6.5545 71.9758 6.57088 86.6837C6.59188 104.53 5.58622 122.383 7.00196 140.217C7.13323 141.855 7.45018 143.477 7.71599 145.348C31.4584 144.482 54.8778 143.292 78.3118 142.868C101.883 142.44 125.464 142.774 149.338 142.774Z" fill="black"/>
<path d="M32.4822 1.80843C35.3406 2.66167 38.2467 3.38361 41.0453 4.4075C44.1958 5.55609 47.2286 7.02447 50.3508 8.25839C53.8799 9.6531 57.0391 9.04054 60.1167 6.71908C62.6595 4.88923 65.3396 3.25827 68.1329 1.84016C71.8018 -0.124921 75.5665 0.0849476 79.5269 1.29983C83.8968 2.63941 88.4262 3.46573 92.8919 4.48633C94.2761 4.804 95.9655 4.68318 96.087 6.71783C96.0784 7.57836 95.7338 8.40153 95.1261 9.01081C94.5183 9.62016 93.6959 9.96742 92.8355 9.97806C89.9404 10.1477 87.0361 10.077 84.1528 9.76718C82.5802 9.63204 81.0614 9.13145 79.7159 8.30545C75.791 5.73 72.3052 6.7473 68.8502 9.15278C67.3794 10.1773 65.8252 11.0977 64.438 12.2233C60.0517 15.7826 55.0521 16.5087 49.8454 14.9801C45.9042 13.7225 42.0484 12.2118 38.3018 10.4578C33.248 8.23082 26.9269 9.01377 23.0394 12.894C21.7103 14.3856 20.6401 16.0893 19.8737 17.9342C19.2016 19.3466 18.5612 20.5882 16.8435 20.625C15.3655 20.6571 13.7521 19.1101 13.8682 17.1247C13.9305 15.0274 14.4931 12.9756 15.5091 11.1398C19.325 4.97741 25.2802 2.54943 32.4822 1.80843Z" fill="black"/>
<path d="M33.8668 87.3234C38.0122 87.3234 42.1594 87.2518 46.3035 87.3417C51.123 87.4461 51.0175 87.5327 52.6964 92.1849C53.6881 94.9336 53.6055 98.1451 53.6114 101.15C53.6166 103.59 52.2041 104.673 49.3365 104.915C44.6476 105.309 39.9508 105.629 35.2547 105.929C30.7838 106.213 26.3109 106.577 21.8347 106.637C17.2784 106.696 15.8227 105.147 15.5156 100.692C15.3699 98.571 14.9956 96.4616 14.9201 94.3403C14.8007 90.9549 16.0247 87.7828 20.7615 87.9863C25.1202 88.174 29.4908 88.0263 33.8607 88.0263L33.8668 87.3234ZM21.437 101.048L46.589 99.0981C46.74 96.7563 46.8583 94.9224 46.9653 93.2606H19.1831C19.9674 95.9627 20.6389 98.2816 21.4396 101.048H21.437Z" fill="black"/>
<path d="M121.5 102.782C117.032 102.504 112.554 102.331 108.1 101.908C105.339 101.646 104.313 100.615 104.067 97.8612C103.863 95.1833 103.839 92.495 103.994 89.8138C104.116 87.0999 105.132 85.9861 107.762 85.5542C109.968 85.1853 112.194 84.9412 114.428 84.8237C121.024 84.4955 127.621 84.1713 134.226 84.0269C138.82 83.9258 139.76 84.9458 139.971 89.4345C140.05 91.1134 140.176 92.791 140.214 94.4705C140.339 100.094 138.159 101.654 132.263 102.609C130.52 102.891 128.684 102.601 126.892 102.589C125.1 102.577 123.306 102.589 121.51 102.589L121.5 102.782ZM133.599 89.6589C125.429 88.5832 117.155 88.5373 108.973 89.5211C108.727 92.174 108.514 94.4541 108.27 97.113L133.599 96.2597V89.6589Z" fill="black"/>
<path d="M79.5403 103.086C75.0699 102.848 70.576 102.818 66.1352 102.318C61.0695 101.747 60.1038 100.308 60.4976 95.201C61.0043 88.6232 61.0228 88.5425 67.4794 87.9924C75.0614 87.3466 82.652 86.7959 90.2425 86.2426C93.4914 86.0051 94.8329 86.9646 95.3521 90.1754C95.7643 92.7122 95.9868 95.2758 96.0189 97.8454C96.0563 101.174 94.848 102.378 91.313 102.505C87.3979 102.647 83.473 102.538 79.5527 102.538C79.5481 102.721 79.5442 102.903 79.5403 103.086ZM89.9163 96.3188C89.7745 94.5768 89.6603 93.1801 89.5304 91.5866C81.3504 91.8878 73.4796 92.0302 65.6797 93.3823V97.552C73.7796 97.9353 81.8985 97.5218 89.9183 96.3188H89.9163Z" fill="black"/>
</svg>
