<svg width="105" height="99" viewBox="0 0 105 99" fill="none" xmlns="http://www.w3.org/2000/svg">
<g clip-path="url(#clip0_8_2368)">
<path d="M103.317 3.30733C102.434 2.55325 101.125 2.49025 99.4297 2.62782C96.8066 2.79456 94.3303 3.87825 92.4455 5.68398C82.8436 14.723 73.2468 23.7673 63.6563 32.817C63.1156 33.3312 62.6129 33.87 62.0345 34.4968C62.0097 34.5245 61.9848 34.5514 61.9587 34.5784C61.8644 34.1646 61.7958 33.7456 61.7533 33.3236C61.09 24.8379 60.4313 16.2165 59.7967 7.69031C59.7858 7.40765 59.7976 7.12453 59.8319 6.84367C59.8782 6.47133 59.8889 6.09556 59.864 5.72125L59.8241 5.24492C59.8026 4.36464 59.6331 3.49394 59.3226 2.66831C58.6013 1.02774 57.597 0.490287 56.8816 0.32893C56.1472 0.16243 54.9687 0.222884 53.5215 1.44946C51.2311 3.39217 49.4011 5.00379 47.7609 6.52288C35.4752 17.9015 21.3641 28.9348 4.62086 40.2613L4.19765 40.5429C3.76054 40.8196 3.33865 41.1189 2.93374 41.4397C0.194613 43.6781 -0.582119 46.8531 0.854618 49.933C1.54293 51.3945 2.47074 52.7342 3.60088 53.8982C5.46995 55.8258 7.45527 57.6405 9.54607 59.3323C22.9443 70.1326 36.3237 78.5681 50.4485 85.1279L50.7282 85.2564C52.6196 86.1294 54.25 86.8835 54.7542 88.9361C54.9353 89.4215 55.3002 89.8194 55.7722 90.0457C55.8712 90.1036 55.9664 90.1685 56.0572 90.2386C56.1285 90.2984 56.2117 90.3427 56.3017 90.3691C56.3916 90.3954 56.486 90.4025 56.5788 90.3903C58.6286 90.1273 58.8172 88.6321 58.9417 87.6421C59.3117 84.7139 59.6868 81.7856 60.0668 78.8581C60.349 76.6724 60.63 74.4847 60.9101 72.2958C60.9753 71.8072 61.0176 71.318 61.0691 70.7285C61.4422 71.1239 61.7513 71.4556 62.0402 71.7963C67.4529 78.2036 74.0464 84.6419 82.7862 92.0591C85.4979 94.2179 88.4027 96.1297 91.466 97.7709L92.0666 98.1168C92.6647 98.5076 93.354 98.7442 94.0701 98.804C94.3694 98.8085 94.6642 98.7314 94.9225 98.5822C95.8584 98.0306 95.9184 96.6536 95.8825 95.6688C95.8747 95.033 96.009 94.403 96.2771 93.8251C99.009 87.7989 100.697 80.9486 101.592 72.2656C103.648 52.3194 104.308 32.4185 104.682 15.5808C104.747 12.5754 104.689 9.56231 104.506 6.6251C104.397 4.91962 104.042 3.92704 103.317 3.30733ZM95.1201 16.3631C92.9927 41.3156 91.5671 64.649 90.7688 87.5771C89.8271 86.6341 88.886 85.6936 87.9455 84.755C84.9964 81.8088 81.9455 78.7623 78.9781 75.7486L77.9092 74.6634C74.2877 70.9889 70.5429 67.1902 66.9671 63.3611C60.9988 56.973 60.9987 56.973 61.5961 48.371L61.6157 48.0926C61.625 47.5414 61.7748 47.0013 62.0515 46.5223C62.3282 46.0432 62.723 45.6405 63.1992 45.3515L64.4382 44.472C67.1653 42.627 69.7642 40.6041 72.2171 38.417C77.5297 33.4586 82.8234 28.3112 87.9436 23.333C89.964 21.3701 91.9857 19.409 94.0094 17.4495C94.3799 17.0879 94.7497 16.7257 95.1201 16.3631ZM52.1767 15.1127L51.5082 76.124C51.0517 75.7016 50.6103 75.2941 50.1942 74.8691C44.7404 69.3097 38.8361 64.198 32.5398 59.5843C28.9561 56.9557 25.3659 54.2075 21.8944 51.5486C19.9666 50.0734 18.0361 48.6017 16.103 47.1335C15.6019 46.7704 15.0807 46.4352 14.5419 46.1293L14.4335 46.065C28.1205 37.133 40.7765 26.7541 52.1767 15.1127Z" fill="black"/>
</g>
<defs>
<clipPath id="clip0_8_2368">
<rect width="105" height="99" fill="white"/>
</clipPath>
</defs>
</svg>
