<svg width="105" height="99" viewBox="0 0 105 99" fill="none" xmlns="http://www.w3.org/2000/svg">
<g clip-path="url(#clip0_8_2366)">
<path d="M101.683 41.4408C101.283 41.1224 100.867 40.825 100.436 40.5498C100.292 40.454 100.149 40.357 100.006 40.2625C83.3628 28.934 69.3388 17.8982 57.1314 6.52411C55.5006 5.00374 53.6813 3.39204 51.4063 1.45061C49.9687 0.223401 48.7975 0.161674 48.0677 0.32946C47.3547 0.49146 46.3585 1.02827 45.641 2.66884C45.3327 3.49476 45.1645 4.36564 45.1431 5.24608L45.1037 5.72241C45.0789 6.09693 45.0894 6.473 45.1354 6.84553C45.1694 7.12621 45.1809 7.409 45.1697 7.69147C44.5352 16.2601 43.8805 24.884 43.2253 33.3248C43.1833 33.7469 43.1152 34.1659 43.0212 34.5797L42.9499 34.5012C42.3718 33.8725 41.8733 33.3299 41.334 32.8169C31.8041 23.7655 22.2671 14.7214 12.7229 5.68451C10.8498 3.87869 8.38867 2.79481 5.78192 2.62772C4.09673 2.48951 2.79578 2.55378 1.91818 3.30785C1.19744 3.92757 0.844953 4.92016 0.739305 6.62825C0.557173 9.56611 0.498812 12.5791 0.564923 15.5838C0.935661 32.4203 1.59084 52.3213 3.63445 72.2694C4.52435 80.9519 6.20249 87.8028 8.91755 93.8289C9.18239 94.4075 9.31526 95.0369 9.30651 95.672C9.27086 96.6581 9.33042 98.0339 10.2612 98.5854C10.5175 98.7352 10.8103 98.8124 11.1076 98.8079C11.819 98.7481 12.5038 98.5115 13.0988 98.12L13.7054 97.7684C16.7471 96.1291 19.6324 94.2191 22.3259 92.0617C31.1329 84.5403 37.4925 78.2911 42.9428 71.7995C43.2299 71.4575 43.5378 71.1258 43.9085 70.7311C43.9597 71.3206 44.0044 71.8104 44.066 72.299C44.3451 74.5053 44.626 76.7109 44.9086 78.9159C45.2811 81.8255 45.6514 84.7351 46.0195 87.6459C46.1439 88.6353 46.3319 90.1319 48.3684 90.3935C48.4606 90.4038 48.5541 90.3961 48.6433 90.3704C48.7324 90.344 48.8153 90.3009 48.8869 90.2418C48.977 90.1717 49.0714 90.1074 49.1696 90.0489C49.6392 89.8233 50.0023 89.4247 50.1826 88.9387C50.6836 86.8861 52.3052 86.132 54.1829 85.259L54.461 85.1304C68.5001 78.5694 81.7969 70.1313 95.1118 59.3348C97.1898 57.6437 99.1627 55.8295 101.02 53.902C102.143 52.7375 103.065 51.3973 103.749 49.9355C105.176 46.8543 104.404 43.6793 101.683 41.4408ZM90.2533 46.0649L90.1373 46.1338C89.6038 46.4378 89.0886 46.7711 88.5934 47.1321C86.6651 48.5995 84.7421 50.0747 82.8249 51.5575C79.3787 54.2138 75.8151 56.9575 72.26 59.5843C66.0022 64.1978 60.1339 69.3097 54.7138 74.8691C54.3002 75.2941 53.8648 75.7049 53.4078 76.1234L52.7434 15.1165C64.0735 26.7561 76.6512 37.1338 90.2533 46.0649ZM38.044 63.3616C34.5026 67.1754 30.7945 70.9619 27.2089 74.6223L26.1071 75.7486C23.1684 78.7501 20.1494 81.785 17.2275 84.7196C16.2821 85.6711 15.3351 86.6238 14.3866 87.5778C13.5933 64.6484 12.1765 41.3148 10.0629 16.3636C10.4307 16.727 10.7993 17.089 11.1692 17.4495C13.1849 19.4102 15.1967 21.3745 17.2047 23.3425C22.2907 28.3176 27.5492 33.4623 32.8251 38.4175C35.2663 40.6074 37.8526 42.6327 40.5667 44.4797L41.7858 45.3513C42.2589 45.6407 42.6512 46.0435 42.9262 46.5227C43.2012 47.0018 43.3502 47.5419 43.3595 48.0932L43.3789 48.3715C43.9746 56.9735 43.9746 56.9735 38.0453 63.3616H38.044Z" fill="black"/>
</g>
<defs>
<clipPath id="clip0_8_2366">
<rect width="105" height="99" fill="white"/>
</clipPath>
</defs>
</svg>
