<svg width="183" height="157" viewBox="0 0 183 157" fill="none" xmlns="http://www.w3.org/2000/svg">
<g clip-path="url(#clip0_8_2279)">
<path d="M118.998 1.84608C96.8741 -1.34766 75.297 0.493523 54.8737 7.32275C36.8493 13.3492 22.931 23.9233 13.5067 38.7533C4.94341 52.2292 -3.20043 68.7142 1.33027 88.8074C3.90508 100.228 7.69677 112.206 17.9127 122.519L16.9163 127.589C16.0323 132.097 15.1442 136.631 14.2365 141.162C14.0429 142.13 13.7994 143.117 13.5644 144.072C13.0478 145.949 12.6845 147.865 12.4782 149.8C12.2813 152.276 13.0354 154.284 14.5955 155.454C15.5363 156.144 16.6779 156.505 17.8444 156.482C18.849 156.468 19.8426 156.271 20.7769 155.901C21.6737 155.536 22.5413 155.103 23.3721 154.605C23.9083 154.301 24.4623 153.989 25.0129 153.725C27.2178 152.675 29.4257 151.631 31.6367 150.593C35.2511 148.89 38.9877 147.131 42.6435 145.348C43.5435 144.882 44.5383 144.627 45.5518 144.603C46.5654 144.58 47.5709 144.788 48.4915 145.213C52.2924 146.675 56.2192 147.787 60.2228 148.533C81.5808 152.498 103.62 150.999 125.729 144.081C142.647 138.787 155.885 130.971 166.2 120.186C176.286 109.641 181.531 97.6738 182.235 83.6098C183.293 62.4708 176.44 43.5393 161.283 25.7355C149.829 12.2818 135.603 4.24368 118.998 1.84608ZM23.6648 114.014C18.6295 108.367 15.2006 101.473 13.7351 94.0502C12.4911 88.1536 11.66 82.1777 11.2476 76.165C10.9809 72.4468 11.4148 68.7116 12.5268 65.1539C20.6194 40.891 35.3142 25.2871 57.4511 17.4511C70.3817 12.8507 84.0079 10.5145 97.7326 10.5451C105.481 10.5668 113.216 11.2346 120.853 12.5417C131.698 14.3637 141.508 19.8094 150.011 28.7284C166.13 45.635 173.148 63.9914 171.467 84.845C170.633 95.1975 166.381 104.227 158.471 112.452C150.698 120.533 140.96 126.622 128.7 131.068C105.948 139.318 83.112 141.176 60.8293 136.582C57.4094 135.798 54.1069 134.569 51.0065 132.927C47.1656 130.991 43.0123 129.815 38.6759 134.275C35.0556 137.997 30.3201 140.036 24.543 142.164C24.7917 140.37 25.028 138.645 25.2577 136.969C25.8635 132.559 26.4346 128.392 27.0522 124.293C27.6317 120.45 26.5855 117.279 23.6648 114.015V114.014Z" fill="black"/>
<path d="M37.0828 102.389C37.3952 102.394 37.7061 102.345 38.0017 102.243C40.4078 101.364 42.5868 99.8035 44.5092 98.4258C50.2194 94.3355 56.0017 90.1455 61.593 86.0926C65.3596 83.3629 69.1288 80.6364 72.9008 77.9126C74.1852 76.9859 75.5261 76.0906 77.0843 75.0536C77.736 74.6198 78.4311 74.1564 79.1845 73.6504C79.3434 73.9024 79.4943 74.1485 79.64 74.3874C80.1172 75.223 80.6692 76.0138 81.2894 76.7503L84.0375 79.8167C88.4409 84.7346 92.9945 89.8199 97.6296 94.6801C102.34 99.6177 104.622 99.7044 109.837 95.1467C114.471 91.0978 119.021 87.1617 123.752 83.521C127.498 80.6331 131.38 77.7912 135.135 75.0392C138.502 72.5707 141.984 70.0189 145.363 67.4421C147.438 65.9758 149.188 64.0967 150.504 61.9219C151.35 60.3927 150.977 57.7142 150.078 56.3431C149.266 55.1039 146.477 54.7869 145.085 55.2371C142.693 56.0527 140.447 57.244 138.43 58.7662C129.763 65.1071 121.279 71.4096 112.298 78.0826C109.457 80.1921 106.592 82.3199 103.7 84.4668C103.487 84.2765 103.277 84.0907 103.069 83.907C102.363 83.2861 101.698 82.6993 101.1 82.062C99.2265 80.0575 97.3625 78.0452 95.5083 76.0237C92.8495 73.1358 90.1007 70.1541 87.3527 67.2583C82.8482 62.5119 79.5009 62.1037 74.0802 65.6424C73.2493 66.1845 72.4512 66.7772 71.8486 67.2334C60.2132 76.0427 48.5826 84.858 36.9567 93.6785C36.7415 93.8426 36.517 94.0067 36.2919 94.1662C35.3088 94.7746 34.4602 95.5773 33.7978 96.5244C33.2845 97.3875 32.3998 99.9511 33.3639 100.879C34.3917 101.797 35.7058 102.33 37.0828 102.389Z" fill="black"/>
</g>
<defs>
<clipPath id="clip0_8_2279">
<rect width="182.462" height="156.865" fill="white"/>
</clipPath>
</defs>
</svg>
