<svg width="78" height="124" viewBox="0 0 78 124" fill="none" xmlns="http://www.w3.org/2000/svg">
<g clip-path="url(#clip0_6_2002)">
<path d="M44.0057 76.214C44.2604 82.0074 44.5047 87.5594 44.7646 93.4789C47.915 93.1626 50.686 92.8626 53.461 92.6152C54.6794 92.4557 55.91 92.4124 57.1366 92.4839C58.9743 92.6703 60.281 93.6607 60.6019 95.5969C60.7514 96.4974 60.5664 97.4215 60.0818 98.1954C59.5971 98.9692 58.8464 99.5389 57.9708 99.7975C56.5693 100.18 55.1218 100.369 53.669 100.359C50.9918 100.442 48.3093 100.383 45.386 100.383C45.386 101.735 45.3461 102.807 45.3927 103.876C45.5739 108.025 45.8521 112.171 45.9401 116.321C45.9471 117.77 45.7193 119.211 45.2658 120.587C45.0678 121.362 44.6033 122.043 43.9538 122.51C43.3042 122.977 42.5112 123.201 41.7133 123.142C40.9734 123.13 40.2562 122.884 39.6655 122.438C39.0748 121.992 38.6409 121.37 38.4268 120.662C37.9903 119.513 37.7191 118.308 37.6214 117.083C37.3438 112.828 37.1758 108.565 36.9901 104.304C36.9422 103.203 36.9837 102.099 36.9837 100.483C35.5161 100.483 34.334 100.521 33.1553 100.475C30.4643 100.373 27.7575 100.38 25.0914 100.056C23.0246 99.8054 21.9634 98.389 22.0382 96.6628C22.1157 94.8658 23.1828 93.9226 25.5167 93.876C29.0951 93.8051 32.6762 93.8576 36.626 93.8576C36.8334 88.0346 37.0317 82.4813 37.243 76.569C36.0353 76.424 34.7423 76.2126 33.4408 76.1208C16.0354 74.8934 4.97796 64.0439 1.39436 47.5587C0.140046 42.1889 -0.0143647 36.6208 0.940243 31.1897C1.89485 25.7586 3.93864 20.577 6.94887 15.9568C8.10665 14.1636 9.51862 12.5479 11.1404 11.1602C17.7559 5.34307 26.0164 1.72731 34.7782 0.813214C44.2984 -0.253994 53.3684 1.02228 61.6153 6.10365C65.8158 8.69424 68.5882 12.7618 70.9549 16.9637C78.8166 30.924 78.8789 45.2516 72.0228 59.5243C67.6601 68.6077 59.7316 73.2001 50.09 75.1218C48.222 75.4907 46.3442 75.7952 44.0057 76.214ZM34.0997 8.34862C29.6872 7.73953 24.5729 10.2448 19.5946 13.1333C15.7791 15.3311 12.6794 18.5841 10.6683 22.5012C5.19842 32.8904 6.1186 43.319 10.436 53.6911C13.9303 62.0876 20.4125 67.0607 29.3105 68.8157C37.4379 70.4172 45.4176 69.5784 53.2011 66.9268C58.0738 65.2675 61.9736 62.1479 64.1737 57.5069C70.4614 44.2443 70.0485 31.2567 61.7493 18.8782C59.8122 15.8129 57.0246 13.3778 53.7267 11.8703C47.9943 9.392 41.983 8.19674 34.0997 8.34573V8.34862Z" fill="black"/>
</g>
<defs>
<clipPath id="clip0_6_2002">
<rect width="77.4479" height="123.392" fill="white"/>
</clipPath>
</defs>
</svg>
