<svg width="142" height="174" viewBox="0 0 142 174" fill="none" xmlns="http://www.w3.org/2000/svg">
<g clip-path="url(#clip0_6_1843)">
<path d="M140.344 92.3407C140.524 108.845 140.764 125.349 140.851 141.854C140.881 147.687 140.423 153.521 140.391 159.356C140.345 167.726 133.877 172.823 126.261 172.988C110.659 173.326 95.052 173.687 79.4489 173.609C61.3707 173.519 43.2919 173.043 25.2183 172.565C20.8442 172.371 16.4869 171.898 12.173 171.149C7.21105 170.376 2.33957 164.445 2.07441 159.046C1.81188 153.669 1.59934 148.286 1.52976 142.904C1.20422 117.862 0.911402 92.8199 0.651493 67.7766C0.49069 53.0657 0.429726 38.3538 0.203946 23.644C0.138312 19.4736 -0.162315 15.2905 1.52447 11.3761C2.42956 9.09426 3.6578 6.95466 5.17166 5.02229C7.03568 2.80321 9.78508 1.9617 12.7248 1.88097C18.7848 1.71491 24.8554 1.67562 30.9009 1.27591C52.2358 -0.133906 73.5675 0.967731 94.9017 1.12656C99.4397 1.16004 102.889 2.64286 106.237 5.82413C113.069 12.316 120.4 18.28 127.484 24.5086C130.181 26.88 132.683 29.4762 135.421 31.7944C137.945 33.9353 138.926 36.6278 139.02 39.7979C139.187 45.409 139.453 51.0184 139.532 56.63C139.699 68.534 139.772 80.4387 139.883 92.3427L140.344 92.3407ZM93.0423 9.52823C91.1035 9.36939 89.4476 9.14046 87.7883 9.11224C73.6429 8.87287 59.4986 8.6553 45.3541 8.45971C38.9601 8.3711 32.5647 8.33566 26.17 8.29694C22.9211 8.27725 19.6649 8.17387 16.4239 8.33861C11.7889 8.5749 10.427 9.91888 9.59809 14.6084C8.80746 18.8054 8.64482 23.0968 9.11561 27.3416C9.33621 29.124 9.45159 30.9176 9.46091 32.7135C9.53573 72.7937 9.59809 112.873 9.64797 152.95C9.60767 153.96 9.64508 154.97 9.75961 155.974C10.5656 161.093 13.2644 164.203 18.8492 164.429C40.5136 165.303 62.1779 165.298 83.849 164.933C94.8505 164.748 105.853 164.657 116.856 164.532C119.547 164.501 122.244 164.608 124.929 164.467C129.348 164.228 131.683 161.805 131.634 157.364C131.58 152.432 131.215 147.502 131.132 142.57C131.036 136.846 131.231 131.116 131.067 125.395C130.663 111.146 129.968 96.9042 129.696 82.6538C129.473 70.9828 129.696 59.3041 129.707 47.6278C129.707 46.6867 129.592 45.7445 129.552 45.1249C125.654 45.1249 122.178 45.1117 118.703 45.1288C115.109 45.1458 111.514 45.2821 107.924 45.1948C105.794 45.1786 103.673 44.9362 101.594 44.4724C97.3466 43.4394 96.0418 41.8102 95.5476 37.504C95.4071 36.2792 95.3999 35.0388 95.285 33.8102C94.5624 25.8783 93.8234 17.9523 93.0423 9.52823ZM105.145 37.072L124.507 35.8791L124.802 35.2267C117.14 28.7073 109.938 21.6771 101.863 15.4321C102.937 22.5002 104.008 29.5687 105.145 37.072Z" fill="black"/>
<path d="M64.1501 110.31L83.5948 91.8004C82.8754 91.6705 82.1482 91.5878 81.4177 91.5524C66.6041 92.0971 51.7893 92.6281 36.9784 93.245C33.6179 93.3848 30.2733 93.8889 26.9141 94.1127C25.5797 94.179 24.2418 94.097 22.9255 93.8686C22.6401 93.8476 22.362 93.7695 22.1079 93.6382C21.8538 93.5069 21.6292 93.3245 21.4476 93.1039C21.2659 92.8828 21.131 92.6274 21.0511 92.3524C20.9713 92.0781 20.9479 91.7899 20.9827 91.5058C21.0753 90.434 21.5489 89.4317 22.3177 88.6789C23.3549 88.0167 24.5494 87.6399 25.7793 87.5887C36.284 86.6489 46.782 85.5862 57.3084 84.9634C66.7203 84.4075 76.1624 84.3543 85.5913 84.1023C87.6063 84.0484 89.6239 84.0944 92.0891 84.0944C95.269 80.944 98.6741 77.531 102.131 74.1706C104.388 71.9738 105.78 71.6955 108.127 73.0193C108.879 73.5024 109.535 74.1207 110.062 74.8413C112.382 77.7292 114.656 80.6499 116.938 83.5706C119.679 87.0801 119.301 89.4658 115.93 92.5428C109.728 98.2043 103.641 103.99 96.9158 110.275C102.445 110.071 107.071 109.89 111.697 109.738C112.592 109.694 113.488 109.726 114.377 109.837C115.059 109.891 115.698 110.194 116.173 110.686C116.649 111.178 116.929 111.827 116.96 112.511C117.133 114.012 116.546 115.358 115.139 115.765C113.207 116.324 111.215 116.645 109.206 116.722C102.93 116.952 96.6467 117.018 89.9822 117.154C85.844 121.536 81.6776 126.061 77.3602 130.436C76.232 131.512 74.8871 132.335 73.4163 132.85C70.0539 134.097 66.4755 134.813 63.2135 136.26C57.9858 138.579 52.5513 138.457 47.0571 138.514C40.6571 138.58 34.2584 138.889 27.8611 139.028C26.5157 139.067 25.1707 138.937 23.8576 138.642C23.178 138.537 22.5637 138.177 22.1405 137.634C21.7171 137.093 21.5165 136.41 21.5793 135.725C21.5791 135.039 21.8261 134.376 22.275 133.858C22.724 133.34 23.3449 133.001 24.0236 132.903C25.1298 132.723 26.2504 132.648 27.3708 132.678C36.7998 132.44 46.2294 132.222 55.6591 131.974C56.5353 131.951 57.4075 131.756 58.4203 131.622C59.54 127.024 59.536 122.47 59.5097 117.43C58.1537 117.43 56.9618 117.43 55.7686 117.43C46.4447 117.448 37.1214 117.495 27.7982 117.457C26.3525 117.42 24.918 117.192 23.532 116.78C22.9196 116.628 22.3896 116.245 22.052 115.712C21.7144 115.179 21.5952 114.537 21.7192 113.918C21.7591 113.349 22.0069 112.814 22.4154 112.416C22.8239 112.018 23.3645 111.785 23.9343 111.76C25.4777 111.471 27.0368 111.274 28.6035 111.169C37.804 110.847 47.0062 110.564 56.2098 110.32C58.889 110.247 61.5792 110.31 64.1501 110.31ZM94.8555 88.6723C85.2494 97.8683 75.3433 106.172 66.2254 115.575L76.3416 123.648C84.9153 114.795 93.2843 106.153 101.7 97.46L94.8555 88.6723ZM100.276 84.8426L107.598 91.6987L111.96 87.6071L105.535 78.4748C103.849 80.5154 102.287 82.4083 100.276 84.8426ZM63.9143 119.841C63.9918 123.217 63.3139 125.985 64.091 128.753C67.8866 128.176 69.0792 127.736 70.936 126.223L63.9143 119.841Z" fill="black"/>
<path d="M69.5871 69.4567C60.0537 69.9161 50.5231 70.4464 40.9865 70.8179C35.8264 71.0188 30.6557 70.9584 25.4897 70.9997C24.9282 71.0135 24.3672 70.9564 23.82 70.8297C23.2033 70.7247 22.6431 70.4057 22.2375 69.9299C21.8319 69.4534 21.6069 68.8496 21.6017 68.2241C21.5694 67.5421 21.7943 66.8727 22.2319 66.3489C22.6695 65.8245 23.2877 65.4841 23.9644 65.3943C24.6292 65.2899 25.3012 65.2381 25.9741 65.2385C39.1954 64.4319 52.4141 63.5738 65.6392 62.8413C73.0381 62.4318 80.4495 62.2509 87.8537 61.9286C95.1449 61.6103 102.433 61.2192 109.724 60.9108C111.849 60.7621 113.983 60.7785 116.106 60.9595C118.497 61.2312 119.627 62.5163 119.606 64.3245C119.586 66.1691 118.465 67.2783 116.042 67.5802C113.703 67.8716 111.347 68.0895 108.992 68.1762C95.861 68.6573 82.729 69.1128 69.595 69.5427L69.5871 69.4567Z" fill="black"/>
</g>
<defs>
<clipPath id="clip0_6_1843">
<rect width="141.113" height="173.93" fill="white"/>
</clipPath>
</defs>
</svg>
