<svg width="142" height="174" viewBox="0 0 142 174" fill="none" xmlns="http://www.w3.org/2000/svg">
<g clip-path="url(#clip0_6_1838)">
<path d="M140.796 92.0513C140.975 108.556 141.215 125.06 141.302 141.564C141.332 147.398 140.875 153.232 140.843 159.067C140.793 167.435 134.311 172.522 126.7 172.687C111.098 173.02 95.491 173.385 79.8885 173.307C61.8096 173.217 43.7314 172.736 25.6572 172.264C21.3975 172.047 17.1534 171.594 12.9441 170.905C7.81158 170.194 2.72277 164.319 2.53506 158.731C2.06053 144.596 1.52889 130.46 1.37268 116.319C1.03073 85.209 0.963163 54.0987 0.633024 22.9916C0.58183 18.2154 0.686148 13.5835 2.65844 9.1591C4.13258 5.85181 6.22591 3.15303 9.89421 2.15474C11.1916 1.81232 12.5232 1.61597 13.8643 1.57019C19.5849 1.34113 25.3166 1.32304 31.0293 0.98371C50.7917 -0.18982 70.5501 0.237532 90.3118 0.898465C93.1163 0.992321 95.9242 1.1341 98.7261 1.06191C99.7368 1.05491 100.739 1.24911 101.674 1.633C102.61 2.01689 103.46 2.58296 104.174 3.2982C114.336 12.315 124.426 21.4127 134.697 30.3061C138.241 33.3751 139.48 36.9414 139.527 41.5299C139.701 58.3722 140.165 75.2116 140.52 92.0519L140.796 92.0513ZM130.171 44.668C129.727 44.5822 129.278 44.523 128.826 44.4898C121.869 44.6277 114.912 44.8181 107.95 44.8923C106.268 44.8965 104.59 44.7185 102.946 44.3622C97.796 43.2826 96.3724 41.6468 95.9189 36.4388C95.3282 29.6214 94.7959 22.7981 94.1934 15.9814C93.9965 13.7748 93.6618 11.5843 93.3756 9.26674C92.0353 9.13547 90.934 8.94546 89.8314 8.92512C75.1294 8.65471 60.4249 8.40005 45.7181 8.16114C39.2118 8.05875 32.7051 8.01136 26.1982 7.97395C22.9493 7.95492 19.6898 7.86191 16.4534 8.07654C12.281 8.35351 10.9204 9.6125 10.1525 13.731C9.37334 17.6998 9.1322 21.7555 9.43523 25.7887C9.76931 29.81 9.91757 33.8554 9.94514 37.8912C10.0362 51.1387 10.0765 64.3863 10.066 77.6342C10.0852 102.781 10.0992 127.928 10.1079 153.075C10.0578 154.644 10.2571 156.21 10.6986 157.717C12.3656 162.673 14.722 163.834 18.3778 164.013C20.6205 164.123 22.8664 164.204 25.1111 164.22C45.0933 164.356 65.0748 164.537 85.0572 164.573C95.9471 164.592 106.837 164.353 117.727 164.237C120.306 164.208 122.892 164.309 125.464 164.161C129.72 163.916 132.121 161.481 132.078 157.308C132.031 152.714 131.684 148.12 131.572 143.525C131.306 132.531 131.315 121.526 130.83 110.542C129.899 89.4437 130.054 68.3398 130.166 47.2357C130.174 46.4579 130.171 45.6807 130.171 44.668ZM102.154 14.1034C103.389 22.1764 104.497 29.4084 105.625 36.7798L125.728 35.5113L102.154 14.1034Z" fill="black"/>
<path d="M44.7424 121.927C43.8399 124.181 43.2256 125.977 42.4183 127.682C40.2648 132.229 36.5888 132.797 33.0873 129.173C31.4523 127.48 29.8501 125.755 28.2224 124.053C28.1693 123.998 28.0057 124.047 27.6132 124.047C27.6132 125.102 27.6172 126.164 27.6132 127.226C27.5948 131.153 27.6134 135.08 27.5215 139.005C27.4662 139.896 27.2382 140.768 26.8502 141.572C26.58 142.198 26.1147 142.719 25.524 143.06C24.9333 143.4 24.2486 143.541 23.5717 143.46C22.8342 143.482 22.1099 143.262 21.5094 142.833C20.9089 142.405 20.4652 141.791 20.2461 141.087C19.984 140.344 19.8372 139.566 19.8109 138.779C19.7091 132.952 19.6177 127.124 19.6138 121.296C19.6163 119.611 19.7776 117.931 20.0951 116.276C20.2933 115.188 20.7256 114.156 21.3623 113.251C22.7301 111.396 24.0047 110.987 26.0112 112.145C28.7087 113.702 31.2193 115.591 33.7613 117.407C34.6728 118.145 35.5405 118.937 36.3596 119.777C37.8646 116.897 39.2287 114.235 40.6464 111.6C41.1973 110.497 41.8485 109.446 42.5917 108.462C44.9027 105.598 48.4737 105.676 50.5248 108.711C51.4014 110.014 52.0491 111.456 52.4399 112.977C54.2514 120.141 56.042 127.314 57.5791 134.54C57.8819 136.413 57.724 138.331 57.1195 140.13C56.2394 143.012 53.0846 143.864 50.9869 141.705C49.5222 140.184 48.4492 138.328 47.8606 136.299C46.6195 131.77 45.8352 127.118 44.7424 121.927Z" fill="black"/>
<path d="M99.8679 120.843H105.568C105.743 119.305 105.995 117.777 106.323 116.264C106.905 114.061 108.362 112.881 110.294 112.761C112.39 112.629 113.945 113.744 114.785 116.046C115.025 116.67 115.179 117.322 115.244 117.986C115.687 123.792 116.177 129.597 116.467 135.411C116.509 137.415 116.318 139.418 115.9 141.379C115.552 143.257 114.032 144.206 112.279 144.403C111.433 144.534 110.568 144.379 109.819 143.964C109.07 143.549 108.481 142.896 108.144 142.109C107.408 140.364 106.856 138.547 106.496 136.688C106.092 134.737 105.966 132.728 105.675 130.392H98.6334C97.5189 130.474 96.3998 130.466 95.286 130.366C92.1166 129.837 90.3753 127.216 91.3815 124.218C92.8871 119.526 93.8316 114.673 94.1959 109.759C94.3744 107.74 95.4186 106.598 96.9571 106.5C98.4588 106.405 99.8089 107.409 100.148 109.37C100.422 111.249 100.512 113.15 100.417 115.047C100.377 116.823 100.092 118.595 99.8679 120.843Z" fill="black"/>
<path d="M72.0719 131.873C71.875 134.704 71.8093 137.167 71.4936 139.597C71.2062 141.819 69.883 143.131 68.1968 143.273C66.4123 143.427 64.8495 142.157 64.3002 139.826C63.9654 138.409 63.8074 136.955 63.8297 135.498C63.9688 127.986 64.1933 120.476 64.3889 112.965C64.4381 111.072 64.7826 109.392 66.9531 108.741C67.4539 108.491 67.9008 108.144 68.269 107.723C72.1231 104.4 76.3604 104.112 80.7769 106.339C84.7195 108.325 87.0902 113.27 86.5841 118.002C85.9639 123.797 80.8254 129.685 75.0634 131.185C74.1006 131.44 73.12 131.635 72.0719 131.873ZM71.4208 123.735C73.9766 123.315 76.2862 121.963 77.9041 119.941C79.9532 117.432 80.0549 114.382 78.2322 112.306C76.4444 110.271 73.7396 110.215 70.964 112.043C70.964 114.922 70.9292 117.687 70.983 120.451C71.0696 121.552 71.216 122.648 71.4208 123.734V123.735Z" fill="black"/>
</g>
<defs>
<clipPath id="clip0_6_1838">
<rect width="141.769" height="173.93" fill="white"/>
</clipPath>
</defs>
</svg>
