<svg width="142" height="175" viewBox="0 0 142 175" fill="none" xmlns="http://www.w3.org/2000/svg">
<g clip-path="url(#clip0_6_1871)">
<path d="M78.4124 173.932C62.8047 173.62 47.1938 173.422 31.5913 172.935C25.7689 172.753 19.974 171.579 14.1536 171.425C7.18068 171.242 2.08559 163.557 1.88016 158.315C1.70951 153.954 1.56051 149.591 1.49751 145.227C1.08401 116.369 0.690178 87.5128 0.316067 58.6564C0.178891 46.9736 0.262326 35.2947 0.217039 23.6138C0.203256 20.0355 -0.303532 16.4348 0.891004 12.9332C1.17979 12.0859 1.3892 11.2109 1.68915 10.3675C3.76449 4.532 7.83045 1.46107 14.0998 1.36721C19.7075 1.28408 25.315 1.15652 30.9218 0.984562C36.4193 0.818509 41.9147 0.398607 47.4102 0.403857C61.3351 0.41764 75.2594 0.588073 89.1836 0.741002C92.3169 0.775131 95.449 1.11401 98.5804 1.08776C100.502 1.08552 102.347 1.83984 103.717 3.18784C113.703 12.0615 123.693 20.9315 133.686 29.7978C134.525 30.5434 135.255 31.4124 136.114 32.1324C138.249 33.9236 139.085 36.2345 139.166 38.9583C139.297 43.4424 139.628 47.922 139.703 52.4061C139.991 69.5863 140.195 86.7685 140.462 103.949C140.65 116.072 140.984 128.193 141.069 140.317C141.113 146.594 140.614 152.876 140.618 159.153C140.625 167.248 134.309 172.719 126.252 172.965C119.407 173.173 112.552 173.052 105.704 173.154C96.6074 173.285 87.5112 173.498 78.4157 173.675L78.4124 173.932ZM92.8486 9.45385C91.4178 9.35343 90.4201 9.23266 89.414 9.22019C71.5642 8.99572 53.7142 8.77887 35.8641 8.5693C32.9453 8.53386 29.9727 8.81536 27.1209 8.3533C23.158 7.7114 19.2961 8.31845 15.3883 8.47794C12.5076 8.59542 10.8267 9.99349 10.2288 12.8098C9.34272 16.9927 8.76186 21.1854 9.16157 25.4831C9.42082 28.2712 9.65704 31.0737 9.6636 33.8703C9.73055 62.614 9.77223 91.3577 9.78844 120.101C9.79369 123.58 9.95777 127.058 9.95909 130.54C9.95909 137.609 9.8691 144.678 9.89339 151.746C9.86923 153.647 10.0305 155.547 10.3751 157.417C11.0413 160.707 13.6227 163.994 17.4806 163.863C18.4816 163.83 19.4896 164.104 20.4997 164.126C35.2063 164.398 49.913 164.852 64.6202 164.857C81.9107 164.863 99.2019 164.468 116.493 164.266C119.184 164.235 121.886 164.404 124.575 164.291C129.348 164.088 131.763 161.585 131.695 156.819C131.515 144.257 131.246 131.696 131.011 119.134C131.007 118.909 130.984 118.686 130.975 118.461C130.548 107.251 129.942 96.0432 129.743 84.8291C129.531 72.8181 129.701 60.8019 129.705 48.7876V44.9374C128.517 44.9374 127.647 44.9288 126.777 44.9374C120.488 45.0063 114.2 45.1346 107.912 45.1175C105.897 45.139 103.885 44.9216 101.92 44.4701C97.101 43.2822 95.7115 41.3656 95.3571 36.4444C94.8852 29.8495 94.3286 23.2605 93.7524 16.6742C93.5463 14.3455 93.1768 12.0346 92.8486 9.45063V9.45385ZM125.041 35.4805L101.962 14.5472C103.186 22.4888 104.281 29.5898 105.385 36.7511L125.041 35.4805Z" fill="black"/>
<path d="M60.9244 96.9772C44.0361 100.644 33.8011 110.599 31.7324 128.587C31.8138 128.69 32.2378 129.192 32.6257 129.719C34.5245 132.305 34.4562 134.933 32.44 137.413C30.1664 140.208 26.7002 140.929 24.0611 139.154C21.5303 137.452 20.7513 133.697 22.4978 130.707C23.2717 129.382 24.4352 128.284 25.8319 126.585C26.1824 124.82 26.699 122.412 27.1348 119.988C28.8347 110.537 33.8418 103.243 41.6129 97.7484C42.7031 96.9778 43.8268 96.2539 45.5136 95.1184C40.7564 95.1184 36.6222 95.0587 32.4932 95.1709C31.7056 95.1919 30.8976 95.8273 30.1691 96.2913C27.9284 97.7149 25.9126 97.6775 24.363 96.1134C23.6808 95.4341 23.2438 94.5481 23.1205 93.5938C22.9973 92.6388 23.195 91.67 23.6825 90.8404C24.8251 88.8714 27.612 87.4419 29.3697 88.2151C30.4198 88.6745 31.2074 89.7246 32.5857 90.9152L61.6161 89.1431C62.4444 86.0721 64.5356 85.0824 67.4642 85.2051C69.0348 85.1979 70.6015 85.064 72.1504 84.8047C74.7758 84.4851 76.798 85.3029 78.0831 88.0208C81.7336 87.8337 85.4144 87.6316 89.0964 87.4603C95.1466 87.1781 101.205 87.0008 107.245 86.5834C108.717 86.4817 110.153 85.6527 111.573 85.0804C113.791 84.1865 115.647 84.3256 116.881 85.6658C117.563 86.3458 118.026 87.2141 118.213 88.1599C118.399 89.1051 118.298 90.0843 117.924 90.9723C116.91 93.6404 113.778 95.1145 111.341 93.6633C109.226 92.4045 107.102 92.369 104.873 92.4163C100.279 92.516 95.688 92.6729 91.0031 92.8101C91.1888 93.2203 91.2217 93.4999 91.3693 93.5892C101.427 99.6859 106.623 109.091 109.436 120.114C109.823 121.633 110.02 123.202 110.456 124.708C110.74 125.77 111.191 126.781 111.79 127.704C112.52 128.64 112.951 129.775 113.026 130.96C113.101 132.145 112.817 133.325 112.211 134.346C111.639 135.456 110.768 136.382 109.696 137.02C108.623 137.658 107.394 137.983 106.146 137.956C103.315 137.986 100.838 136.891 99.3412 134.333C97.9531 131.959 98.3974 129.63 99.7449 127.325C100.278 126.413 100.848 125.252 100.74 124.279C99.6654 114.645 96.1521 106.277 87.8271 100.58C85.3783 98.8103 82.5718 97.5968 79.6051 97.0238C76.6641 102.329 64.6563 102.156 60.9244 96.9772Z" fill="black"/>
</g>
<defs>
<clipPath id="clip0_6_1871">
<rect width="141.113" height="174.586" fill="white"/>
</clipPath>
</defs>
</svg>
