<svg width="142" height="174" viewBox="0 0 142 174" fill="none" xmlns="http://www.w3.org/2000/svg">
<g clip-path="url(#clip0_6_1775)">
<path d="M140.174 92.2495C140.36 108.628 140.608 125.007 140.699 141.386C140.731 147.326 140.276 153.266 140.228 159.211C140.158 167.612 133.541 172.604 126.019 172.752C110.754 173.053 95.4838 173.429 80.218 173.351C61.8025 173.255 43.3876 172.789 24.9767 172.321C20.7161 172.113 16.4711 171.657 12.2634 170.956C7.13283 170.223 2.1007 164.32 1.91692 158.733C1.45355 144.609 0.918632 130.485 0.76308 116.357C0.421129 85.2739 0.354154 54.1881 0.020735 23.1053C-0.0304594 18.3291 0.098833 13.7047 2.07375 9.28885C3.55314 5.98285 5.68887 3.3324 9.34797 2.32229C10.4261 2.02407 11.5344 1.84808 12.652 1.79735C37.0021 0.759677 61.3522 -0.166553 85.7306 0.982694C89.8787 1.17828 94.0313 1.27134 98.1879 1.26215C100.113 1.25691 101.966 1.99666 103.358 3.32602C112.595 11.5184 121.825 19.7165 131.051 27.9208C132.394 29.1133 133.658 30.4051 135.074 31.5005C138.032 33.7878 138.828 36.9117 138.881 40.4264C139.093 53.7763 139.354 67.1262 139.562 80.4761C139.623 84.401 139.571 88.3279 139.571 92.2541L140.174 92.2495ZM92.8256 9.46251C90.875 9.2899 89.1134 9.02611 87.3472 8.99592C73.2031 8.75833 59.0588 8.54712 44.9143 8.36203C38.5194 8.27448 32.1247 8.21344 25.7302 8.17931C22.4813 8.15896 19.2232 8.0613 15.9849 8.2582C11.6635 8.52073 10.3029 9.81956 9.50287 14.112C8.65724 18.4107 8.46933 22.8126 8.94564 27.1676C9.19071 29.2844 9.31365 31.4142 9.31384 33.5451C9.38296 73.3653 9.43855 113.187 9.48055 153.008C9.4413 154.017 9.49276 155.028 9.63414 156.027C10.5701 161.118 13.2538 163.969 18.6332 164.189C40.5214 165.087 62.4109 165.073 84.3057 164.682C95.0821 164.485 105.86 164.418 116.638 164.3C119.329 164.271 122.027 164.375 124.711 164.235C129.157 164.002 131.521 161.592 131.471 157.193C131.42 152.377 131.05 147.565 130.972 142.749C130.875 136.805 131.068 130.855 130.901 124.915C130.503 110.79 129.806 96.6719 129.537 82.5455C129.314 70.8837 129.537 59.2145 129.548 47.5481C129.548 46.5964 129.444 45.6446 129.412 45.09C121.953 45.09 114.885 45.1512 107.818 45.0547C105.578 45.0285 103.345 44.7644 101.16 44.267C97.632 43.4499 95.6137 41.253 95.3519 37.4331C94.8924 30.7241 94.2453 24.0276 93.6454 17.3283C93.4255 14.7778 93.1203 12.2369 92.8256 9.46251ZM124.195 35.7814L124.483 35.1109L101.552 14.3075C102.768 22.3096 103.855 29.4689 104.988 36.9236L124.195 35.7814Z" fill="black"/>
<path d="M94.3193 98.5162C94.3193 105.582 94.3324 112.648 94.3075 119.716C94.4066 120.945 94.3009 122.18 93.9951 123.374C93.1694 125.654 93.1221 127.95 93.1162 130.313C93.1077 134.041 91.4262 135.477 87.6509 135.421C84.9468 135.381 82.3063 134.6 80.0144 133.165C74.6528 129.899 69.3384 126.552 63.9099 123.399C58.1945 120.08 52.3937 116.902 46.5668 113.781C45.4739 113.265 44.2672 113.037 43.0613 113.118C39.1397 113.29 35.2299 113.76 31.3076 113.89C26.4605 114.05 24.7186 112.375 24.9089 107.482C25.1958 100.091 25.4301 92.6741 26.2951 85.3395C26.8543 80.5988 29.6543 76.7481 34.7809 77.3086C41.1474 78.0056 46.2767 75.4925 51.3948 72.2134C59.0615 67.3014 67.3858 63.6219 75.7266 60.0055C78.7063 58.713 81.6599 57.3607 84.5871 55.9482C88.3821 54.1256 90.9076 55.1684 91.8567 59.2896C92.4139 61.8049 92.7611 64.3626 92.895 66.9352C93.5192 77.4543 94.0364 87.98 94.5936 98.505L94.3193 98.5162ZM84.2655 64.3864C77.4435 65.9796 52.9011 77.6145 47.4574 81.775V106.247C61.0581 110.884 72.6083 119.153 84.9619 125.634C84.9619 122.109 84.9711 118.779 84.9619 115.45C84.9159 101.219 84.8903 86.9883 84.7906 72.7575C84.7689 69.9773 84.4493 67.2017 84.2655 64.3864ZM33.2681 85.6835C33.0134 92.6676 32.7706 99.3353 32.5146 106.344L39.5171 105.681V83.4316L33.2681 85.6835Z" fill="black"/>
<path d="M122.175 95.9335C121.984 105.773 119.649 114.539 114.924 122.643C114.432 123.519 113.833 124.329 113.141 125.057C112.628 125.589 111.963 125.947 111.237 126.082C110.512 126.216 109.762 126.122 109.093 125.81C108.391 125.566 107.803 125.075 107.436 124.428C107.071 123.782 106.953 123.025 107.104 122.297C107.344 120.871 107.751 119.478 108.314 118.145C110.661 112.328 112.806 106.455 113.868 100.24C115.402 91.2545 113.445 82.6558 110.993 74.1103C110.955 74.0053 110.909 73.9029 110.857 73.8031C109.905 71.6602 109.105 69.4312 106.836 68.2019C106.578 68.0812 106.349 67.9079 106.162 67.6926C105.975 67.4773 105.835 67.2246 105.753 66.9523C105.669 66.6799 105.645 66.3931 105.679 66.1102C105.714 65.8273 105.808 65.555 105.955 65.3108C106.52 64.5411 107.352 64.0108 108.288 63.8238C109.122 63.6429 109.991 63.708 110.79 64.0109C111.588 64.3138 112.281 64.8411 112.786 65.53C114.405 67.644 116.166 69.7962 117.152 72.2246C120.287 79.7462 121.99 87.787 122.175 95.9335Z" fill="black"/>
<path d="M109.464 91.8375C109.61 96.76 108.463 101.298 106.814 105.726C106.428 106.772 105.898 107.76 105.239 108.661C104.874 109.169 104.347 109.538 103.745 109.708C103.142 109.876 102.5 109.836 101.924 109.591C101.385 109.409 100.926 109.045 100.626 108.562C100.325 108.079 100.202 107.506 100.276 106.942C100.347 105.829 100.532 104.727 100.828 103.653C101.581 100.617 102.456 97.6146 103.164 94.5659C104.369 89.3913 103.175 84.5994 100.635 80.0615C100.146 79.1853 99.4265 78.3662 99.2126 77.4296C99.038 76.6689 99.1876 75.3864 99.6891 75.0293C100.089 74.7753 100.543 74.6165 101.015 74.5653C101.486 74.5141 101.963 74.5712 102.409 74.7333C103.56 75.4067 104.544 76.3315 105.288 77.4388C108.294 81.6157 109.768 86.7003 109.464 91.8375Z" fill="black"/>
</g>
<defs>
<clipPath id="clip0_6_1775">
<rect width="141.113" height="173.93" fill="white"/>
</clipPath>
</defs>
</svg>
