<svg width="142" height="174" viewBox="0 0 142 174" fill="none" xmlns="http://www.w3.org/2000/svg">
<g clip-path="url(#clip0_21_12)">
<path d="M0.679321 83.8932C0.441252 62.6523 0.181238 41.4102 0.000943464 20.1683C-0.019643 17.918 0.22748 15.6734 0.737079 13.4815C2.92851 4.17593 6.1639 1.62777 15.7185 1.07692C42.3663 -0.450109 69.0281 -0.0445968 95.6918 0.429549C99.1513 0.491308 102.292 1.02705 105.05 3.52827C114.763 12.3265 124.564 21.026 134.452 29.6264C136.189 31.0418 137.578 32.8365 138.513 34.8727C139.448 36.909 139.904 39.1326 139.845 41.3725C140.334 67.1258 141.346 92.8711 141.758 118.623C141.978 132.395 141.49 146.183 141.06 159.955C140.824 167.496 136.554 172.017 129.074 173.179C126.169 173.608 123.235 173.816 120.298 173.802C93.4027 173.855 66.5079 174.011 39.613 173.758C31.0328 173.51 22.4709 172.826 13.9604 171.707C6.80239 170.91 2.26114 165.755 2.05395 158.434C1.57383 141.5 1.19591 124.562 0.920322 107.621C0.780867 99.7132 0.896489 91.8011 0.896489 83.891L0.679321 83.8932ZM93.4984 9.08078C92.1516 8.83099 90.7927 8.6511 89.4273 8.54187C72.2518 8.31343 55.0756 8.1032 37.8988 7.91128C31.3583 7.8286 24.807 7.4132 18.2805 7.66323C11.2849 7.93118 9.9242 9.27201 9.34745 16.0545C8.96694 20.532 9.28164 25.0691 9.29857 29.5795C9.444 69.3646 9.58942 109.15 9.73485 148.937C9.6074 151.193 9.59919 153.454 9.71005 155.71C10.3286 161.335 13.5778 164.476 19.4001 164.837C53.9838 167 88.5567 164.489 123.132 164.927C130.748 165.027 132.75 162.596 132.595 155.057C132.367 143.99 131.997 132.926 131.781 121.86C131.298 97.6823 130.836 73.5044 130.396 49.3262C130.366 47.8261 130.055 46.332 129.849 44.6247C128.355 44.6247 127.247 44.6117 126.144 44.6247C119.814 44.7113 113.476 45.0758 107.161 44.8238C98.5944 44.4881 96.6361 42.2419 95.9428 33.8667C95.2734 25.7833 94.36 17.717 93.5034 9.08078H93.4984ZM102.569 15.5136C103.707 22.7742 104.767 29.5337 105.873 36.5931C112.475 36.0183 118.399 36.1648 124.553 34.9914C120.417 29.7798 107.292 18.0896 102.568 15.5136H102.569Z" fill="black"/>
<path d="M94.0412 137.685C94.6839 136.805 95.2121 135.848 95.6131 134.836C96.1779 131.969 96.5763 129.068 97.1072 125.771C95.5543 125.558 94.2933 125.391 93.0332 125.21C88.1891 124.513 85.3473 121.425 85.4997 116.469C85.5266 112.585 86.8674 108.825 89.3038 105.8C91.4075 103.259 94.0771 101.248 97.4997 102.038C101.206 102.893 104.339 105.524 104.798 109.21C106.108 119.752 106.929 130.386 103.078 140.694C102.77 141.542 102.393 142.364 101.951 143.151C97.94 150.147 91.0849 150.265 87.2559 143.232C85.9012 140.638 84.9601 137.849 84.4667 134.964C84.2296 133.948 84.3971 132.879 84.9338 131.984C85.4705 131.089 86.3343 130.438 87.3424 130.169C89.8058 129.459 91.0909 130.911 91.9306 133.026C92.4884 134.423 93.1716 135.776 94.0412 137.685ZM93.4197 118.249C95.9857 114.811 96.667 112.433 95.7107 108.947C93.2095 111.596 92.2593 113.932 93.4197 118.249Z" fill="black"/>
<path d="M52.6631 100.755C54.6015 100.875 55.9323 100.902 57.2452 101.054C59.1906 101.276 60.8312 102.086 61.0204 104.248C61.2097 106.411 59.858 107.513 57.8508 107.963C55.8875 108.404 53.9361 108.898 51.405 109.507C51.3362 112.157 51.2994 114.819 51.1878 117.476C51.2625 119.273 51.095 121.072 50.6897 122.824C50.3371 123.896 48.8819 125.379 48.0103 125.321C46.7293 125.236 44.7929 124.182 44.4412 123.113C43.7177 120.517 43.311 117.844 43.23 115.151C43.0308 112.475 43.3853 109.912 40.3024 108.224C39.8883 108.006 39.5464 107.672 39.3183 107.263C39.0902 106.854 38.9856 106.387 39.0172 105.92C39.0489 105.453 39.2154 105.005 39.4966 104.631C39.7777 104.256 40.1615 103.972 40.6013 103.811C43.6723 102.429 43.7998 99.8268 44.5598 97.2369C45.2501 94.6265 46.3137 92.1293 47.7175 89.8228C48.7629 88.1819 50.3176 86.9291 52.1432 86.2562C53.9688 85.5833 55.9646 85.5275 57.8249 86.0974C59.6697 86.7498 60.9218 87.9722 60.9029 90.0769C60.8839 92.0393 59.6407 92.5671 57.8856 92.9974C53.7737 94.0095 53.8056 94.138 52.6631 100.755Z" fill="black"/>
<path d="M68.8081 116.996C68.9923 113.277 68.9515 110.803 69.2862 108.379C69.5472 106.487 70.7733 104.753 72.8412 105.291C73.5132 105.561 74.1128 105.984 74.5918 106.526C75.0708 107.069 75.4159 107.717 75.5995 108.417C76.2081 112.378 76.3496 116.413 76.5747 120.425C76.692 121.316 76.5045 122.221 76.0427 122.992C75.1223 124.083 73.8394 125.596 72.7198 125.587C71.9959 125.469 71.3125 125.174 70.7307 124.727C70.1489 124.28 69.6869 123.697 69.3858 123.028C68.9571 121.047 68.7633 119.022 68.8081 116.996Z" fill="black"/>
<path d="M33.1764 119.176C33.7928 119.156 34.407 119.258 34.9835 119.477C35.5599 119.697 36.0871 120.028 36.5344 120.453C36.9817 120.877 37.3401 121.386 37.5891 121.95C37.8381 122.515 37.9725 123.123 37.9845 123.739C38.0089 125.096 37.5216 126.412 36.6195 127.425C35.7175 128.439 34.4669 129.076 33.1166 129.209C32.5059 129.285 31.8863 129.238 31.2937 129.073C30.701 128.907 30.1471 128.625 29.6643 128.243C29.1815 127.862 28.7793 127.388 28.481 126.85C28.1828 126.312 27.9944 125.72 27.9269 125.108C27.9155 123.646 28.4453 122.231 29.4144 121.136C30.3836 120.041 31.7236 119.343 33.1764 119.176Z" fill="black"/>
</g>
<defs>
<clipPath id="clip0_21_12">
<rect width="141.813" height="173.9" fill="white"/>
</clipPath>
</defs>
</svg>
