<svg width="142" height="174" viewBox="0 0 142 174" fill="none" xmlns="http://www.w3.org/2000/svg">
<g clip-path="url(#clip0_6_1847)">
<path d="M140.533 92.5902C140.713 108.857 140.957 125.122 141.041 141.39C141.072 147.33 140.615 153.269 140.571 159.214C140.51 167.603 133.947 172.631 126.394 172.785C111.017 173.099 95.6344 173.469 80.2538 173.39C61.9505 173.297 43.6471 172.827 25.3484 172.359C21.0882 172.147 16.8435 171.693 12.6352 170.997C7.50062 170.275 2.44753 164.388 2.26179 158.8C1.79316 144.676 1.25952 130.55 1.10462 116.422C0.762015 85.3396 0.695069 54.2541 0.36296 23.1713C0.312422 18.3964 0.428585 13.7707 2.40416 9.35227C3.88092 6.04699 5.99504 3.36655 9.66267 2.37679C10.9616 2.0393 12.2941 1.84709 13.6355 1.80378C19.3561 1.57734 25.0905 1.58955 30.8006 1.21282C52.2471 -0.19306 73.6917 0.884936 95.1382 1.06412C97.1925 1.02425 99.2337 1.40172 101.138 2.17361C103.042 2.94549 104.77 4.0956 106.217 5.55464C113.133 12.1147 120.548 18.149 127.705 24.457C130.65 27.0535 133.439 29.8252 136.339 32.4741C137.146 33.1736 137.799 34.0333 138.258 34.9988C138.716 35.9643 138.968 37.015 138.998 38.0831C139.232 44.0217 139.602 49.9573 139.7 55.8972C139.9 68.1271 139.959 80.3593 140.076 92.5908L140.533 92.5902ZM93.2256 9.51636C91.8119 9.37065 90.8169 9.19442 89.8186 9.17605C75.0024 8.90215 60.186 8.6429 45.3693 8.3992C38.9753 8.29813 32.5799 8.26295 26.1852 8.22291C22.9357 8.20256 19.6783 8.09939 16.4393 8.28382C11.9762 8.53782 10.4562 9.84669 9.86154 14.378C9.40617 18.1515 9.19391 21.9504 9.22614 25.7511C9.21892 30.1191 9.64619 34.4862 9.6777 38.8554C9.77418 52.204 9.79262 65.553 9.80247 78.9022C9.82038 103.691 9.82649 128.481 9.82084 153.271C9.78487 154.281 9.84887 155.292 10.0118 156.29C11.0226 161.292 13.6873 164.002 18.8645 164.218C40.8643 165.136 62.8653 165.117 84.8731 164.715C95.6495 164.518 106.429 164.458 117.206 164.343C119.897 164.314 122.596 164.422 125.279 164.264C129.496 164.017 131.866 161.557 131.817 157.346C131.757 152.081 131.407 146.819 131.316 141.554C131.22 136.059 131.409 130.558 131.25 125.066C130.843 110.942 130.149 96.8242 129.882 82.6978C129.66 70.9238 129.882 59.1421 129.896 47.3641C129.896 46.5109 129.772 45.662 129.73 45.1323C122.389 45.1323 115.331 45.1982 108.277 45.0939C105.926 45.0545 103.585 44.7672 101.294 44.2363C97.8758 43.4441 95.9409 41.2422 95.7217 37.5838C95.4795 33.5565 95.0739 29.5392 94.7116 25.5198C94.241 20.2802 93.7415 15.0519 93.2256 9.51636ZM124.493 35.8064C124.614 35.5964 124.734 35.3866 124.856 35.177L102.534 14.9183L102.019 15.176C103.123 22.3957 104.226 29.6152 105.351 36.9826L124.493 35.8064Z" fill="black"/>
<path d="M62.549 131.924C62.8772 122.755 63.1929 113.586 63.5552 104.419C63.6779 101.304 64.3053 100.952 67.4472 100.175C76.4778 97.9439 83.1705 101.415 88.5314 108.414C88.9403 108.948 89.3118 109.512 89.7319 110.036C100.6 123.588 90.9133 139.778 78.1803 143.005C75.4697 143.701 72.7222 144.245 69.9505 144.635C68.334 144.89 66.6826 144.494 65.358 143.532C64.0336 142.572 63.1446 141.124 62.8864 139.508C62.4151 137.014 62.1427 134.485 61.7817 131.972L62.549 131.924ZM69.2988 136.29C72.4144 136.445 75.5248 135.897 78.4009 134.689C86.7547 131.042 89.6393 122.572 85.1146 114.722C84.0139 112.772 82.7255 110.934 81.2684 109.234C80.0634 107.807 78.5748 106.645 76.8979 105.822C75.2209 104.999 73.391 104.534 71.5244 104.455C72.1315 115.243 70.3305 125.623 69.3014 136.29H69.2988Z" fill="black"/>
<path d="M35.5355 129.539C35.2999 132.123 35.1502 134.557 34.8279 136.967C34.6836 138.298 34.3375 139.599 33.8015 140.825C33.5287 141.517 33.0099 142.084 32.3447 142.417C31.6794 142.751 30.9147 142.827 30.1969 142.631C28.5646 142.233 27.8039 141.052 27.8295 139.397C27.9069 134.359 28.0165 129.321 28.092 124.282C28.1682 119.133 28.2488 113.982 28.2679 108.832C28.277 106.24 28.9393 104.036 31.0685 102.327C35.6845 98.6247 40.8532 97.9296 46.2772 99.7824C48.5726 100.562 50.6919 101.786 52.5138 103.385C54.3356 104.985 55.8243 106.927 56.8947 109.102C58.8913 113.004 58.5053 116.913 55.985 120.543C51.8724 126.468 45.8722 128.77 38.9807 129.337C37.8846 129.423 36.7851 129.465 35.5355 129.539ZM34.36 107.247C34.5943 112.012 34.8359 116.933 35.103 122.367C38.2534 121.787 41.0002 121.426 43.6656 120.749C46.1262 120.124 47.9626 118.452 49.4683 116.429C49.9949 115.772 50.3092 114.97 50.3692 114.129C50.4292 113.289 50.2322 112.45 49.8043 111.725C46.959 106.086 40.4449 104.076 34.36 107.246V107.247Z" fill="black"/>
<path d="M106.445 122.328C106.151 127.597 105.938 132.283 105.597 136.959C105.538 138.183 105.222 139.381 104.669 140.475C104.404 141.008 103.995 141.455 103.488 141.766C102.981 142.078 102.396 142.24 101.801 142.234C101.206 142.229 100.624 142.055 100.123 141.735C99.6215 141.414 99.2212 140.958 98.9665 140.421C98.4454 139.431 98.1349 138.344 98.0555 137.228C97.2436 126.237 97.7661 115.263 98.7368 104.308C98.9895 102.761 99.4305 101.251 100.049 99.8112C100.612 98.2104 102.047 97.6565 103.525 97.5902C109.912 97.3027 116.303 97.008 122.694 96.966C125.689 96.9457 127.233 98.4224 127.179 100.463C127.125 102.504 125.496 103.757 122.561 103.81C117.96 103.89 113.356 103.871 108.753 103.893C107.769 103.898 106.784 103.893 105.829 103.893V114.326C108.138 114.326 110.113 114.322 112.089 114.326C113.204 114.26 114.324 114.281 115.436 114.387C116.338 114.493 117.174 114.912 117.798 115.572C118.422 116.232 118.794 117.091 118.849 117.997C118.84 118.846 118.559 119.67 118.047 120.347C117.534 121.025 116.818 121.52 116.002 121.759C114.702 122.094 113.367 122.278 112.025 122.307C110.248 122.395 108.463 122.328 106.445 122.328Z" fill="black"/>
</g>
<defs>
<clipPath id="clip0_6_1847">
<rect width="141.113" height="173.93" fill="white"/>
</clipPath>
</defs>
</svg>
