<svg width="142" height="190" viewBox="0 0 142 190" fill="none" xmlns="http://www.w3.org/2000/svg">
<g clip-path="url(#clip0_6_1773)">
<path d="M24.6006 17.0505C24.9465 15.9157 25.1624 15.1744 25.398 14.438C27.04 9.42146 30.5485 5.22856 35.1969 2.72775C39.8452 0.226942 45.2774 -0.390017 50.3683 1.00423C53.6323 1.9231 56.2702 3.73983 57.785 6.88432C59.2355 9.90347 60.625 12.9445 62.082 16.0654C62.4971 16.1504 62.9171 16.2095 63.3396 16.2417C73.5542 16.4604 83.7694 16.6708 93.9846 16.873C94.6581 16.8868 95.3341 16.917 96.0049 16.873C100.108 16.617 103.124 18.4226 106.105 21.193C113.087 27.6829 120.436 33.7773 127.598 40.0768C130.292 42.4469 132.783 45.0573 135.539 47.3446C138.312 49.6418 139.195 52.5839 139.262 55.9725C139.454 65.7266 139.632 75.4817 139.873 85.2349C140.242 100.148 140.808 115.056 141.004 129.971C141.15 141.067 140.847 152.169 140.736 163.268C140.696 167.193 140.596 171.119 140.587 175.044C140.569 183.471 133.822 188.398 126.359 188.539C111.212 188.825 96.0613 189.211 80.9143 189.131C62.2816 189.028 43.6501 188.557 25.0226 188.09C20.8761 187.884 16.7452 187.435 12.6513 186.745C7.52263 186.009 2.48258 180.119 2.29815 174.537C1.83215 160.42 1.29725 146.301 1.14235 132.178C0.8004 101.108 0.732187 70.0361 0.402046 38.9667C0.351508 34.1958 0.467632 29.576 2.42089 25.149C3.94031 21.7078 6.19422 19.0258 9.96355 18.0216C11.2747 17.7264 12.6123 17.5645 13.9561 17.5389C17.4189 17.344 20.8871 17.2159 24.6006 17.0505ZM23.8989 23.9761C21.4009 23.9761 19.1851 23.8883 16.9792 23.9933C12.0783 24.2277 10.6599 25.5074 9.8185 30.2901C9.05499 34.3756 8.87823 38.5489 9.29343 42.6843C9.55971 45.1379 9.69465 47.6038 9.69774 50.0719C9.766 89.6829 9.81778 129.294 9.85322 168.906C9.83196 169.692 9.86248 170.477 9.94452 171.259C10.6258 176.365 13.3207 179.763 19.1293 179.989C40.8016 180.847 62.4732 180.85 84.1521 180.48C95.0473 180.295 105.942 180.206 116.834 180.082C119.525 180.051 122.224 180.154 124.91 180.024C129.578 179.796 131.905 177.439 131.855 172.815C131.8 167.66 131.442 162.511 131.351 157.354C131.255 151.858 131.445 146.355 131.286 140.861C130.877 126.618 130.185 112.384 129.915 98.1405C129.693 86.4747 129.918 74.7998 129.93 63.1295C129.93 62.2762 129.811 61.4234 129.747 60.5643C129.345 60.5042 128.94 60.4642 128.534 60.4451C121.573 60.5816 114.611 60.8573 107.652 60.8015C105.087 60.6757 102.547 60.232 100.091 59.4798C97.5755 58.8117 96.2116 56.9413 95.9281 54.3297C95.8434 53.5494 95.72 52.772 95.6537 51.9903C95.0768 45.1742 94.5307 38.3553 93.9236 31.5419C93.7379 29.4534 93.3933 27.3797 93.0743 24.9394L63.1977 24.2594C63.1977 25.5228 63.2076 26.3957 63.1977 27.2687C63.1393 31.863 63.2634 36.4737 62.9642 41.0549C62.647 46.1058 61.3099 51.0405 59.0333 55.5604C57.4371 58.7298 55.0185 60.9419 51.3299 61.4014C46.4494 62.0144 42.0545 59.9366 39.7574 55.5713C38.6924 53.4827 37.9168 51.2589 37.4516 48.9611C36.2394 43.2588 37.1235 37.5718 38.0548 31.9194C38.2238 30.9274 38.5699 29.9738 39.0767 29.1043C39.4824 28.3541 40.1208 27.7563 40.8956 27.4001C41.6706 27.0437 42.5402 26.9485 43.3738 27.1289C44.1655 27.2192 44.907 27.5628 45.488 28.1083C46.069 28.6538 46.4584 29.3722 46.5984 30.1567C46.7751 31.3657 46.8027 32.5914 46.6811 33.807C46.5268 38.1671 46.2531 42.525 46.2098 46.8857C46.2798 48.2249 46.5955 49.5398 47.1412 50.7648C47.6492 52.086 48.6784 52.6366 50.314 51.83C53.9711 43.0613 53.0364 33.7444 53.0541 24.5497C49.3786 23.7897 35.4478 24.0861 32.7838 24.9433C32.1084 32.839 31.4908 40.7738 30.7229 48.6938C30.4013 52.0412 29.8974 55.3683 29.2133 58.6607C28.7197 61.0235 26.9194 62.3184 25.2418 62.025C23.5845 61.7349 22.6007 60.3189 22.5377 57.9108C22.497 56.3434 22.6079 54.771 22.6729 53.2017C23.0746 43.5745 23.4808 33.9406 23.8989 23.9761ZM124.661 51.5499L124.805 50.8359L102.581 30.6907L102.067 31.0259C103.158 38.1846 104.249 45.3432 105.373 52.7146L124.661 51.5499ZM51.6344 16.1468C50.8915 14.2493 50.3769 12.6582 49.6431 11.1755C49.2716 10.3778 48.6618 9.71451 47.8979 9.27765C42.4707 6.67987 35.1191 10.4954 33.7211 16.7602L51.6344 16.1468Z" fill="black"/>
</g>
<defs>
<clipPath id="clip0_6_1773">
<rect width="141.113" height="189.682" fill="white"/>
</clipPath>
</defs>
</svg>
