<svg width="142" height="174" viewBox="0 0 142 174" fill="none" xmlns="http://www.w3.org/2000/svg">
<g clip-path="url(#clip0_6_1865)">
<path d="M140.672 100.36C140.788 114.057 140.969 127.754 140.988 141.451C140.996 147.397 140.539 153.344 140.521 159.291C140.496 167.661 134.192 172.859 126.5 173.031C108.99 173.425 91.4729 173.776 73.9605 173.716C57.7916 173.66 41.6221 173.125 25.4571 172.626C21.0846 172.412 16.728 171.945 12.4097 171.226C7.44454 170.49 2.52467 164.613 2.19979 159.215C1.95038 155.074 1.74032 150.927 1.68125 146.779C1.38416 124.882 1.11787 102.986 0.882464 81.0876C0.643997 60.5373 0.413839 39.9872 0.191997 19.4369C0.180043 15.3765 1.21151 11.3807 3.1875 7.83367C4.06898 6.05972 5.42998 4.56867 7.11604 3.529C8.80218 2.48931 10.746 1.94265 12.7268 1.95161C19.0099 1.73436 25.3061 1.73646 31.5754 1.31706C52.6865 -0.095382 73.7938 1.03693 94.9029 1.17476C97.0124 1.12967 99.1087 1.51551 101.064 2.30926C103.019 3.103 104.791 4.28804 106.273 5.79093C113.099 12.2887 120.431 18.2532 127.516 24.4799C130.13 26.7771 132.549 29.2997 135.22 31.5233C138.051 33.8809 139.113 36.8562 139.168 40.4063C139.353 52.3079 139.565 64.2079 139.806 76.1067C139.963 84.1914 140.161 92.2755 140.341 100.36H140.672ZM93.1636 9.56293C91.1776 9.40803 89.5164 9.18993 87.8519 9.16171C73.7078 8.92496 59.5632 8.70903 45.4183 8.51436C39.0242 8.42641 32.6289 8.38644 26.2342 8.34706C22.9853 8.32737 19.7286 8.22511 16.4883 8.3951C11.9714 8.6327 10.5811 9.94006 9.76529 14.3867C8.95589 18.5807 8.76523 22.8708 9.199 27.12C9.46632 29.5746 9.60048 32.0417 9.6012 34.5109C9.66946 74.1403 9.72098 113.77 9.75551 153.4C9.73391 154.185 9.76437 154.972 9.84667 155.753C10.5319 160.865 13.2256 164.263 19.0282 164.492C40.6933 165.348 62.3571 165.353 84.0287 164.986C94.9174 164.802 105.808 164.71 116.698 164.585C119.389 164.554 122.086 164.656 124.771 164.527C129.458 164.303 131.803 161.951 131.756 157.357C131.706 152.537 131.334 147.721 131.254 142.9C131.158 137.064 131.353 131.221 131.189 125.388C130.785 111.027 130.089 96.6737 129.814 82.311C129.592 70.7516 129.818 59.1843 129.834 47.6209C129.834 46.7592 129.743 45.8975 129.693 45.018C129.309 44.9317 128.919 44.8738 128.526 44.8443C121.68 44.9821 114.835 45.1972 107.988 45.2378C105.857 45.2537 103.732 45.0076 101.661 44.5052C97.4423 43.463 96.1158 41.8296 95.6695 37.4938C95.2679 33.5886 95.0066 29.669 94.6561 25.7579C94.1875 20.5151 93.6913 15.2744 93.1636 9.56293ZM105.274 37.1163L125.407 35.8697L102.464 15.0431L101.96 15.3348C103.051 22.5 104.141 29.6656 105.276 37.1163H105.274Z" fill="black"/>
<path d="M69.5439 92.7438C81.6651 92.4012 93.7857 92.0337 105.905 91.7403C107.924 91.6871 109.943 91.8178 111.938 92.1295C114.007 92.4577 114.908 93.5623 114.933 95.1848C114.959 96.9129 113.883 98.2295 111.793 98.5144C109.017 98.9239 106.219 99.1648 103.414 99.2363C87.0195 99.4739 70.6242 99.6958 54.2289 99.7752C46.8281 99.8119 39.4247 99.5691 32.0271 99.3243C30.4614 99.2829 28.9238 98.899 27.5226 98.1987C27.0977 97.8823 26.7474 97.4754 26.4966 97.0087C26.2457 96.5414 26.1003 96.0255 26.0707 95.4965C26.0234 94.2075 27.2357 93.7133 28.4643 93.6555C29.3602 93.6128 30.2588 93.626 31.1554 93.6102L69.5445 92.9342L69.5439 92.7438Z" fill="black"/>
<path d="M67.6363 68.9812C60.0627 69.2221 52.7688 69.5477 45.471 69.6553C40.0858 69.7347 34.6959 69.5726 29.3107 69.4289C27.4946 69.3803 26.3684 68.2652 26.3336 66.8409C26.2962 65.3065 27.2524 64.347 29.1558 64.1619C30.4948 64.0306 31.8467 64.0088 33.1922 63.9747C42.5076 63.7417 51.8244 63.5482 61.1392 63.2857C74.6105 62.905 88.0799 62.4747 101.551 62.0724C103.346 62.0192 105.145 61.9628 106.94 61.9891C109.947 62.0324 111.4 62.9736 111.535 64.8592C111.671 66.7779 110.322 68.1149 107.437 68.338C102.964 68.6859 98.4717 68.9064 93.9856 68.953C85.1119 69.0469 76.2363 68.9812 67.6363 68.9812Z" fill="black"/>
<path d="M73.596 84.3287C59.4776 84.4062 45.3419 85.1098 31.2536 83.6311C30.1364 83.5556 29.0368 83.3154 27.9904 82.917C27.6655 82.7614 27.3822 82.531 27.1637 82.2449C26.9451 81.9587 26.7977 81.6253 26.7334 81.2709C26.8147 80.9151 26.9818 80.585 27.2199 80.3087C27.4581 80.0324 27.7602 79.8191 28.1 79.6865C29.1985 79.4797 30.3193 79.4161 31.4342 79.4974C41.0744 79.46 50.7174 79.5749 60.3544 79.3727C75.7055 79.0498 91.0526 78.5116 106.402 78.085C107.747 78.0305 109.093 78.0771 110.431 78.2248C112.178 78.4434 113.237 79.5795 113.271 81.0169C113.305 82.4543 112.281 83.6422 110.58 83.9901C109.806 84.1095 109.022 84.1548 108.239 84.1253C98.3708 84.1988 88.5027 84.2664 78.6347 84.3274C76.9545 84.3392 75.2756 84.3287 73.596 84.3287Z" fill="black"/>
<path d="M70.3915 111.327C73.7605 111.327 77.1301 111.275 80.4991 111.35C82.1741 111.382 83.8438 111.552 85.4912 111.857C86.1705 111.96 86.7895 112.306 87.2331 112.83C87.6775 113.355 87.9164 114.022 87.9065 114.709C87.9912 115.448 87.8022 116.191 87.3756 116.8C86.9489 117.41 86.3143 117.841 85.591 118.013C84.2114 118.489 82.7648 118.741 81.3057 118.758C73.4605 118.399 65.6193 117.904 57.782 117.428C57.2239 117.372 56.6778 117.23 56.1634 117.007C54.9032 116.507 54.1169 115.641 54.2324 114.184C54.2484 113.615 54.463 113.068 54.8391 112.641C55.2152 112.213 55.7292 111.929 56.2921 111.84C57.3813 111.59 58.4928 111.451 59.6098 111.422C63.204 111.371 66.7987 111.404 70.3928 111.404L70.3915 111.327Z" fill="black"/>
</g>
<defs>
<clipPath id="clip0_6_1865">
<rect width="141.113" height="173.93" fill="white"/>
</clipPath>
</defs>
</svg>
