<svg width="142" height="174" viewBox="0 0 142 174" fill="none" xmlns="http://www.w3.org/2000/svg">
<g clip-path="url(#clip0_6_1824)">
<path d="M140.495 100.178C140.612 113.876 140.795 127.573 140.814 141.27C140.822 147.216 140.363 153.162 140.348 159.109C140.327 167.478 134.055 172.701 126.348 172.871C108.052 173.275 89.7487 173.627 71.4494 173.573C55.9546 173.527 40.459 172.958 24.9694 172.453C20.7096 172.235 16.4656 171.775 12.2582 171.074C7.3022 170.34 2.35738 164.468 2.02856 159.084C1.77521 154.943 1.56455 150.795 1.5081 146.647C1.211 124.751 0.94451 102.853 0.708668 80.9558C0.471073 60.4048 0.240916 39.8546 0.0181988 19.3047C0.0046465 15.2445 1.03206 11.2489 3.00248 7.69894C3.88113 5.92364 5.23954 4.42999 6.92369 3.38723C8.60785 2.34447 10.5504 1.79413 12.5312 1.79894C18.477 1.58432 24.4346 1.56505 30.3692 1.17978C51.9286 -0.220845 73.4853 0.851516 95.0441 1.01954C99.4868 1.05432 102.819 2.54653 106.077 5.62673C112.927 12.1015 120.242 18.0819 127.325 24.3112C130.022 26.6832 132.51 29.2993 135.271 31.588C138.047 33.8891 138.926 36.8387 138.986 40.2293C139.192 51.9051 139.405 63.5808 139.626 75.2562C139.787 83.5654 139.982 91.874 140.161 100.183L140.495 100.178ZM92.9871 9.40128C90.9866 9.24638 89.326 9.02953 87.6629 9.00196C73.5188 8.76568 59.3742 8.5508 45.2292 8.35652C38.8352 8.26857 32.4398 8.22473 26.0451 8.18797C22.7962 8.16763 19.5396 8.06537 16.2993 8.23733C11.7889 8.47689 10.4007 9.78655 9.58816 14.2418C8.78047 18.436 8.59105 22.7253 9.02568 26.9744C9.29254 29.429 9.4265 31.8967 9.42676 34.3659C9.49502 73.9954 9.54615 113.625 9.58028 153.255C9.55915 154.04 9.59013 154.827 9.67289 155.608C10.3686 160.728 13.0609 164.103 18.8682 164.334C40.421 165.187 61.9725 165.19 83.5312 164.834C94.5328 164.653 105.536 164.554 116.538 164.426C119.229 164.395 121.926 164.497 124.611 164.368C129.29 164.143 131.63 161.788 131.581 157.184C131.529 152.251 131.162 147.323 131.078 142.39C130.982 136.666 131.175 130.935 131.013 125.215C130.606 110.854 129.913 96.4999 129.634 82.1372C129.413 70.5785 129.639 59.0111 129.654 47.4477C129.654 46.5873 129.561 45.7262 129.51 44.8513C129.122 44.7686 128.729 44.7131 128.333 44.6852C121.487 44.823 114.641 45.0387 107.794 45.0788C105.664 45.0946 103.538 44.848 101.468 44.3436C97.2546 43.2987 95.9341 41.6643 95.4884 37.3206C95.088 33.4148 94.8262 29.4953 94.4763 25.5848C94.0116 20.3459 93.5148 15.1035 92.9871 9.40128ZM105.09 36.9727L125.224 35.7106L101.671 14.3174C102.875 22.2926 103.955 29.4484 105.09 36.9727Z" fill="black"/>
<path d="M43.8629 37.4868C48.6857 37.4868 53.511 37.4617 58.3318 37.4952C61.7369 37.5188 62.9682 38.48 63.7092 41.8313C64.0279 43.3671 64.2018 44.929 64.2283 46.4974C64.3314 50.1473 62.8501 52.0062 59.2973 52.4525C56.1843 52.8463 53.041 53.0948 49.9051 53.1742C45.079 53.2983 40.2478 53.1796 35.4205 53.2505C33.1783 53.2362 30.938 53.3869 28.7178 53.7005C23.5026 54.5537 20.893 50.2404 21.0112 46.6115C21.1099 44.8181 21.3137 43.0323 21.6215 41.2627C21.7061 40.3559 22.0904 39.5033 22.7136 38.8393C23.337 38.1752 24.1638 37.7376 25.0634 37.5958C26.8171 37.2201 28.5999 36.997 30.3921 36.9299C34.8802 36.8373 39.3715 36.8997 43.8622 36.8997L43.8629 37.4868ZM54.5927 44.7021C54.6189 44.4395 54.6447 44.1769 54.6701 43.9143C45.6546 44.236 36.6385 42.5559 27.4524 43.7996V46.4666C28.4933 46.4069 29.3664 46.3952 30.2308 46.2993C32.3396 46.065 34.4385 45.6679 36.5525 45.5603C41.3674 45.3162 46.1889 45.2211 51.0064 45.0354C52.2042 44.9842 53.3975 44.815 54.5927 44.7021Z" fill="black"/>
<path d="M85.0915 137.935C77.0185 137.935 68.9455 137.955 60.8765 137.918C58.9766 137.944 57.0776 137.82 55.1972 137.547C53.1711 137.215 52.1124 136.011 52.1177 134.56C52.1243 133.16 53.2893 131.804 55.2025 131.485C57.7382 131.018 60.3049 130.739 62.8816 130.651C78.4585 130.368 94.036 130.149 109.613 129.995C111.29 129.985 112.963 130.18 114.594 130.577C116.644 131.069 117.559 132.365 117.5 134.13C117.434 135.973 116.187 137.224 114.012 137.561C113.345 137.648 112.672 137.684 112 137.669C103.03 137.675 94.0603 137.677 85.0901 137.673L85.0915 137.935Z" fill="black"/>
<path d="M83.1667 109.985C74.1945 109.985 65.2224 109.999 56.2503 109.97C54.9065 109.976 53.565 109.858 52.2433 109.615C51.1066 109.396 50.1366 108.747 50.0178 107.421C49.8865 105.949 50.8151 105.124 52.0248 104.653C52.7672 104.402 53.5427 104.263 54.326 104.24C60.2501 103.817 66.1708 103.219 72.1028 103.059C84.8824 102.711 97.6672 102.581 110.45 102.398C111.568 102.382 112.683 102.515 113.766 102.792C116.018 103.374 116.996 104.623 116.902 106.525C116.814 108.282 115.824 109.442 113.741 109.884C112.425 110.145 111.086 110.272 109.744 110.261C100.884 110.292 92.0233 110.277 83.1627 110.277L83.1667 109.985Z" fill="black"/>
<path d="M84.1245 83.0667C74.4711 83.0667 64.8175 83.0667 55.1637 83.0667C54.4903 83.0667 53.8102 83.1777 53.1453 83.1133C51.9842 83.0011 50.8889 82.6985 50.6953 81.2795C50.5843 80.7164 50.6879 80.1316 50.9858 79.6407C51.2837 79.1497 51.7542 78.7881 52.3052 78.626C54.0933 77.9887 55.948 77.5574 57.8336 77.3389C72.2651 76.1417 86.7479 75.6678 101.227 75.9212C105.045 75.9822 108.863 75.9619 112.68 75.9875C113.465 75.9678 114.252 75.9901 115.035 76.0557C117.678 76.3596 119.406 77.9591 119.315 79.9564C119.228 81.8637 117.597 83.284 115.089 83.5354C114.082 83.6174 113.07 83.6312 112.06 83.5767C105.778 83.3575 99.4979 83.0832 93.2155 82.9007C90.1878 82.8121 87.1555 82.8849 84.1245 82.8849V83.0667Z" fill="black"/>
<path d="M30.7175 147.751C29.6434 147.716 28.5717 147.627 27.5066 147.484C20.2869 146.201 17.1864 139.769 20.6467 133.307C24.164 126.735 29.4231 124.906 36.3173 127.863C40.8775 129.817 43.199 133.884 42.4508 138.609C41.5976 144.008 38.3814 147.15 33.1964 147.636C32.4199 147.707 31.6364 147.71 30.7175 147.751ZM26.7755 138.943C29.1383 140.484 31.6324 140.339 34.1094 139.554C35.4221 134.803 33.3172 132.884 27.9155 133.63C26.7079 135.12 25.9682 136.756 26.7795 138.947L26.7755 138.943Z" fill="black"/>
<path d="M41.4416 80.0225C41.4416 80.1347 41.4456 80.2469 41.4416 80.3592C41.2802 84.3523 40.4263 88.1046 36.3268 89.8262C31.7541 91.746 27.2326 91.36 23.3648 88.058C19.9925 85.1786 19.008 81.4776 20.1855 77.1116C21.7266 71.4015 23.8893 69.5631 30.0628 69.185C35.4507 68.8568 39.2654 70.9873 40.8077 75.3979C41.2117 76.9029 41.4943 78.4374 41.653 79.987L41.4416 80.0225ZM26.5875 76.3772C25.1561 79.053 25.1534 80.604 26.5218 82.2894C28.1548 84.2992 30.5012 84.7428 33.8019 83.6678C35.2846 80.8114 35.4855 78.4958 34.0317 77.1759C31.7785 75.1262 29.1597 75.39 26.5875 76.3772Z" fill="black"/>
<path d="M30.4704 117.967C28.8703 117.715 27.7577 117.598 26.6721 117.358C21.8343 116.287 18.8262 112.865 18.9273 108.605C19.052 103.466 21.9905 99.9621 26.9117 98.8575C31.4181 97.8461 35.3339 98.8017 38.6274 102.055C43.3668 106.736 42.0141 114.088 35.8511 116.647C34.035 117.401 31.9898 117.608 30.4704 117.967ZM26.4431 104.683C25.6785 106.436 24.8022 108.276 26.5336 109.619C27.5562 110.412 29.2306 110.566 30.6273 110.622C32.0588 110.679 33.5932 110.409 34.1157 108.634C32.9822 105.118 32.0699 104.62 26.4431 104.686V104.683Z" fill="black"/>
</g>
<defs>
<clipPath id="clip0_6_1824">
<rect width="141.113" height="173.93" fill="white"/>
</clipPath>
</defs>
</svg>
