<svg width="142" height="174" viewBox="0 0 142 174" fill="none" xmlns="http://www.w3.org/2000/svg">
<g clip-path="url(#clip0_6_1860)">
<path d="M140.313 92.5019C140.494 108.779 140.739 125.062 140.822 141.342C140.853 147.287 140.396 153.234 140.351 159.181C140.289 167.546 133.76 172.603 126.167 172.76C110.902 173.075 95.632 173.443 80.3662 173.361C61.8384 173.26 43.3113 172.783 24.7882 172.311C20.6402 172.101 16.5077 171.652 12.4115 170.967C7.27955 170.236 2.22657 164.345 2.04148 158.754C1.57417 144.62 1.03915 130.482 0.883593 116.343C0.540986 85.2323 0.474117 54.1218 0.14201 23.0114C0.0914718 18.2326 0.207668 13.6029 2.18522 9.18186C3.66263 5.87454 5.77867 3.19256 9.4456 2.20215C10.7449 1.86541 12.0775 1.67422 13.4191 1.63234C19.1397 1.40525 24.8716 1.38777 30.5843 1.04779C50.3467 -0.128368 70.105 0.305518 89.8667 0.963823C92.6712 1.05702 95.479 1.18828 98.2809 1.12855C100.209 1.09812 102.071 1.8334 103.458 3.17352C112.695 11.3729 121.927 19.5771 131.156 27.7862C132.498 28.9801 133.764 30.2691 135.178 31.3685C138.124 33.6578 138.954 36.7703 139.009 40.2909C139.215 53.4275 139.476 66.5628 139.677 79.6987C139.743 83.9649 139.687 88.2311 139.687 92.4973L140.313 92.5019ZM93.0066 9.29658C91.0684 9.13775 89.4125 8.90849 87.7559 8.88027C73.6118 8.64005 59.4672 8.4228 45.3223 8.22807C38.9282 8.13946 32.5329 8.10402 26.1382 8.06464C22.8893 8.04495 19.6333 7.9419 16.3917 8.10664C11.7566 8.34227 10.3939 9.68566 9.56564 14.3752C8.7741 18.572 8.61139 22.8636 9.08271 27.1083C9.30265 28.891 9.41784 30.6847 9.42781 32.4809C9.50264 72.5611 9.56499 112.64 9.61487 152.718C9.57437 153.727 9.61159 154.738 9.72586 155.742C10.5312 160.861 13.23 163.972 18.8148 164.197C40.4792 165.071 62.1436 165.067 83.8146 164.702C94.8161 164.516 105.819 164.426 116.821 164.301C119.512 164.27 122.21 164.377 124.894 164.232C129.314 163.994 131.65 161.57 131.601 157.13C131.546 152.198 131.181 147.269 131.098 142.336C131.003 136.612 131.198 130.882 131.033 125.161C130.629 110.912 129.934 96.671 129.662 82.4206C129.439 70.7496 129.662 59.0699 129.673 47.3937C129.673 46.4518 129.559 45.5098 129.525 44.9913C122.029 44.9913 114.958 45.0446 107.89 44.9586C105.761 44.9557 103.638 44.7134 101.562 44.2366C97.3135 43.2042 96.008 41.5753 95.5138 37.2691C95.3734 36.0444 95.3661 34.8036 95.2513 33.575C94.5267 25.6471 93.7903 17.7207 93.0066 9.29658ZM105.104 36.8128C110.563 36.503 115.707 36.217 120.85 35.9144C122.062 35.8435 123.27 35.7173 125.21 35.5532L102.347 14.804L101.828 15.1847C102.899 22.2528 103.969 29.3213 105.104 36.8128Z" fill="black"/>
<path d="M110.33 127.639C110.122 124.823 108.427 124.071 106.811 123.299C106.008 122.917 105.081 122.797 104.272 122.425C103.533 122.14 102.907 121.623 102.489 120.951C102.07 120.279 101.882 119.489 101.954 118.701C102.07 117.917 102.444 117.194 103.015 116.645C103.586 116.095 104.323 115.751 105.111 115.665C107.318 115.268 109.541 114.961 111.761 114.638C113.538 114.38 115.219 114.713 116.274 116.231C117.381 117.824 116.931 119.422 115.703 120.837C115.577 121.038 115.481 121.256 115.415 121.483C115.511 121.791 115.624 122.092 115.754 122.387C118.514 127.876 116.195 133.251 109.818 135.324C99.9117 138.544 87.7354 132.798 88.3792 119.506C88.7842 111.154 92.6986 104.521 100.062 100.209C101.333 99.4993 102.689 98.9526 104.097 98.5824C104.526 98.4085 104.989 98.3284 105.453 98.3475C105.917 98.3659 106.371 98.484 106.786 98.692C107.2 98.9008 107.565 99.1955 107.857 99.5564C108.149 99.9174 108.359 100.337 108.476 100.786C108.749 101.803 107.987 102.496 106.917 103.012C104.981 103.877 103.156 104.973 101.483 106.277C99.5659 107.851 97.9979 109.809 96.8801 112.024C95.763 114.239 95.1198 116.663 94.9925 119.141C94.476 126.445 100.752 131.419 107.517 129.166C108.5 128.744 109.442 128.234 110.33 127.639Z" fill="black"/>
<path d="M72.4209 125.032C73.8399 119.593 75.0463 114.955 76.2612 110.321C76.8026 108.26 77.3179 106.19 77.9447 104.156C78.3024 102.977 78.7749 101.837 79.3545 100.75C80.1086 99.3508 81.3189 98.5586 82.9775 98.9379C84.6971 99.3317 85.2346 100.673 85.2484 102.244C85.3035 103.367 85.213 104.492 84.98 105.591C82.7668 114.168 80.511 122.734 78.2125 131.291C77.9178 132.375 77.5016 133.422 76.9713 134.412C75.3305 137.493 72.0278 137.875 69.8671 135.145C68.6102 133.562 67.5279 131.847 66.6393 130.03C63.1634 122.869 59.7604 115.671 56.4306 108.436C55.8141 106.993 55.3827 105.478 55.1468 103.926C54.898 102.532 55.2656 101.217 56.7181 100.537C57.977 99.9467 59.4564 100.419 60.5406 101.847C61.1257 102.67 61.6335 103.545 62.0574 104.461C65.112 110.583 68.1561 116.712 71.1903 122.844C71.4331 123.331 71.7239 123.795 72.4209 125.032Z" fill="black"/>
<path d="M44.2832 103.423C38.7043 103.859 36.2674 105.935 35.5848 111.005C36.547 111.469 37.6101 112.006 38.6931 112.499C40.7317 113.43 42.8281 114.247 44.8155 115.274C47.2444 116.487 49.2704 118.376 50.649 120.715C54.4991 127.324 50.5637 135.19 42.9508 136.046C38.5534 136.54 34.805 134.93 31.4098 132.313C30.9355 132.012 30.5761 131.559 30.3886 131.029C30.2396 130.103 30.0308 128.888 30.487 128.249C30.9431 127.61 32.1606 127.384 33.0794 127.275C33.6774 127.203 34.3317 127.69 34.9736 127.882C36.4588 128.385 37.9684 128.813 39.4965 129.164C42.4284 129.727 44.8129 128.818 45.6989 126.97C46.539 125.214 45.4633 122.769 42.9351 121.073C41.7067 120.294 40.4184 119.614 39.0823 119.038C37.3535 118.241 35.5283 117.64 33.8369 116.775C29.784 114.702 28.4767 111.03 30.3052 106.871C31.7492 103.59 33.9209 100.822 37.324 99.5143C39.0867 98.8586 40.9816 98.6381 42.8478 98.8711C45.3058 99.1986 45.7179 100.813 44.2832 103.423Z" fill="black"/>
</g>
<defs>
<clipPath id="clip0_6_1860">
<rect width="141.113" height="173.93" fill="white"/>
</clipPath>
</defs>
</svg>
