<svg width="142" height="174" viewBox="0 0 142 174" fill="none" xmlns="http://www.w3.org/2000/svg">
<g clip-path="url(#clip0_6_1808)">
<path d="M140.488 100.102C140.602 113.788 140.781 127.472 140.798 141.161C140.805 147.103 140.353 153.04 140.33 158.986C140.299 167.396 133.898 172.517 126.285 172.69C110.122 173.058 93.9527 173.407 77.7884 173.334C60.2714 173.255 42.7543 172.762 25.242 172.28C20.8687 172.077 16.5119 171.608 12.1953 170.877C7.22553 170.131 2.33052 164.253 2.01088 158.856C1.76541 154.718 1.55144 150.573 1.49499 146.43C1.20358 125.785 0.944161 105.141 0.716635 84.4958C0.463724 62.7283 0.228081 40.9598 0.00973946 19.19C-0.00826139 15.0176 1.08894 10.9159 3.18775 7.30984C4.05571 5.65691 5.35495 4.27022 6.9477 3.29618C8.54044 2.32215 10.3672 1.79731 12.234 1.77776C18.6268 1.50604 25.0379 1.54038 31.4188 1.11245C52.5299 -0.302615 73.6364 0.84153 94.7456 0.969516C96.855 0.928114 98.9507 1.31825 100.904 2.1149C102.857 2.91155 104.628 4.09832 106.107 5.60298C112.933 12.0942 120.265 18.0545 127.352 24.2759C129.965 26.5731 132.382 29.0932 135.054 31.3136C137.891 33.6719 138.926 36.6556 138.982 40.1979C139.163 51.64 139.371 63.0821 139.608 74.524C139.774 83.0512 139.953 91.577 140.146 100.103L140.488 100.102ZM92.9741 9.43461C91.6168 9.28759 90.7301 9.12219 89.8401 9.10644C74.9117 8.829 59.983 8.56476 45.0549 8.31358C38.6608 8.21054 32.2655 8.17155 25.8708 8.13151C22.6219 8.11117 19.3638 8.01232 16.1254 8.20332C11.7837 8.45863 10.2243 9.72819 9.65661 14.0213C9.19185 18.018 8.97382 22.0394 9.00355 26.0629C8.97467 29.7568 9.39269 33.4524 9.42223 37.1482C9.50493 47.4685 9.49902 57.7893 9.50755 68.1096C9.53118 96.489 9.55816 124.868 9.58835 153.247C9.58638 154.814 9.79253 156.374 10.2013 157.887C11.3066 161.879 13.5638 163.699 17.6725 164.007C20.0222 164.183 22.3843 164.231 24.7412 164.245C44.9472 164.369 65.1532 164.526 85.3593 164.558C96.137 164.576 106.915 164.367 117.693 164.262C120.048 164.24 122.408 164.318 124.756 164.19C129.229 163.945 131.615 161.564 131.567 157.191C131.508 151.814 131.16 146.44 131.065 141.063C130.969 135.568 131.16 130.067 130.992 124.575C130.607 112.021 129.876 99.4741 129.663 86.9177C129.435 73.6852 129.645 60.4456 129.648 47.2093C129.625 46.4834 129.564 45.7594 129.467 45.0397C122.087 45.0397 115.024 45.0916 107.964 45.0082C105.834 45.0079 103.71 44.7735 101.631 44.3096C97.2534 43.2706 95.9073 41.6094 95.4616 37.0899C95.075 33.186 94.8118 29.2695 94.4601 25.3624C93.9875 20.1346 93.4861 14.9104 92.9741 9.43461ZM125.228 35.6497L102.322 14.8814L101.78 15.2756C102.877 22.4192 103.974 29.5632 105.099 36.8899L125.228 35.6497Z" fill="black"/>
<path d="M64.1363 149.234C57.1063 149.407 46.1022 149.734 35.096 149.92C31.5103 150.028 27.9213 149.879 24.357 149.472C20.4 148.964 19.4621 147.515 19.485 143.63C19.5907 125.902 19.6458 108.174 19.7804 90.4466C19.8106 86.5244 20.1551 82.6054 20.2326 78.6825C20.2792 76.3255 21.3675 74.7215 23.5511 74.2161C26.7015 73.4856 29.9175 72.7196 33.127 72.6061C49.3996 72.0272 65.6774 71.4759 81.9585 71.2731C92.8485 71.1372 103.746 71.6012 114.64 71.7981C115.314 71.8099 115.989 71.8257 116.66 71.8821C121.591 72.2937 121.602 72.4728 123.123 77.2293C124.789 82.4341 125.242 87.8029 125.442 93.1619C126.166 109.763 125.573 126.396 123.67 142.904C123.269 146.204 121.935 147.772 118.611 148.159C114.382 148.724 110.127 149.065 105.862 149.184C93.2804 149.317 80.6971 149.234 64.1363 149.234ZM80.873 118.588C84.7342 114.661 88.8179 110.653 92.7258 106.481C95.3702 103.659 98.2777 102.969 101.842 104.4C106.368 106.111 110.514 108.697 114.04 112.013C114.781 112.735 115.576 113.4 116.813 114.512C117.47 102.129 117.88 90.5188 117.098 78.9279C116.694 78.7816 116.276 78.6752 115.851 78.6116C107.319 78.5912 98.7818 78.5525 90.2474 78.586C70.4799 78.6621 50.7121 78.7665 30.944 78.899C29.0431 79.0178 27.1498 79.2371 25.272 79.5554C25.4538 89.2692 26.563 98.7257 26.8308 108.214C27.0933 117.649 27.3256 127.085 27.5855 137.077C30.0744 133.686 32.2705 130.735 34.4239 127.753C40.6099 119.063 47.3131 110.754 54.4974 102.87C57.1884 99.9603 59.5433 99.617 62.8073 101.847C64.3577 102.956 65.8192 104.186 67.1785 105.523C71.7531 109.837 76.2793 114.198 80.873 118.588ZM31.4028 143.154C33.467 143.154 34.8099 143.219 36.1449 143.142C41.5124 142.825 46.8727 142.32 52.2442 142.15C62.6616 141.818 73.0842 141.669 83.5042 141.428C84.7559 141.4 86.0049 141.296 87.6779 141.204C79.0254 129.31 69.4533 119.093 58.8732 109.056L31.4028 143.154ZM116.242 140.901C116.492 140.395 116.682 139.862 116.806 139.312C116.694 135.177 116.609 131.046 116.361 126.921C116.221 126.056 115.791 125.265 115.14 124.677C112.072 121.736 109.007 118.778 105.763 116.036C103.435 114.097 100.678 112.744 97.7205 112.087L84.5872 123.91L97.1889 140.901H116.242Z" fill="black"/>
<path d="M87.6365 95.2345C87.6398 98.2189 84.8674 100.866 81.7052 100.897C78.5909 100.928 75.4135 98.2196 75.47 95.585C75.5356 92.6315 78.8928 89.3807 81.8765 89.3872C83.3939 89.4647 84.828 90.1079 85.8939 91.1902C86.9605 92.2731 87.582 93.7158 87.6365 95.2345Z" fill="black"/>
</g>
<defs>
<clipPath id="clip0_6_1808">
<rect width="141.113" height="173.93" fill="white"/>
</clipPath>
</defs>
</svg>
