<svg width="142" height="174" viewBox="0 0 142 174" fill="none" xmlns="http://www.w3.org/2000/svg">
<g clip-path="url(#clip0_6_1852)">
<path d="M140.918 92.4334C141.098 108.714 141.341 124.993 141.424 141.274C141.454 147.219 141.002 153.165 140.951 159.112C140.879 167.496 134.281 172.506 126.732 172.656C111.467 172.958 96.1967 173.335 80.9309 173.256C62.5154 173.159 44.1006 172.692 25.6896 172.222C21.4293 172.014 17.1845 171.558 12.977 170.857C8.00193 170.147 3.01185 164.347 2.65743 158.949C2.38636 154.81 2.18491 150.661 2.12912 146.514C1.8294 123.944 1.55954 101.372 1.31976 78.8C1.09004 58.9235 0.862276 39.0473 0.636497 19.1708C0.631114 15.2276 1.58603 11.3423 3.41873 7.85086C5.47241 3.7645 8.82695 1.69347 13.3859 1.54579C19.3329 1.35414 25.2879 1.30092 31.2251 0.946498C50.9875 -0.234908 70.7459 0.211401 90.5075 0.864456C93.3114 0.957656 96.1192 1.08694 98.9218 1.02918C100.851 1.00715 102.71 1.75049 104.09 3.0969C113.326 11.2972 122.557 19.5028 131.783 27.7141C133.125 28.908 134.39 30.1996 135.807 31.2964C138.765 33.587 139.552 36.7173 139.608 40.2306C139.828 54.0406 140.093 67.8503 140.312 81.6603C140.37 85.2518 140.321 88.8439 140.321 92.4367L140.918 92.4334ZM93.6002 9.16164C91.5111 9.0028 89.84 8.78923 88.167 8.76298C73.9107 8.53411 59.6542 8.32618 45.3968 8.13801C39.1152 8.05269 32.8327 7.99001 26.5493 7.95023C23.3004 7.92792 20.0425 7.82592 16.8035 8.0156C12.3522 8.27289 10.9929 9.61477 10.1902 14.1264C9.44817 18.1025 9.24589 22.1604 9.58902 26.1905C9.887 29.4263 10.0485 32.688 10.0531 35.9362C10.1239 75.0044 10.1725 114.073 10.1988 153.142C10.1858 153.815 10.211 154.489 10.2742 155.16C10.8649 160.312 13.5761 163.882 19.6033 164.115C41.0445 164.944 62.4832 164.957 83.9297 164.61C95.0435 164.43 106.159 164.327 117.272 164.197C119.963 164.166 122.66 164.271 125.345 164.132C129.96 163.899 132.253 161.516 132.208 156.837C132.123 147.862 131.908 138.89 131.73 129.918C131.641 125.429 131.55 120.938 131.402 116.451C131.027 105.346 130.441 94.2449 130.268 83.1377C130.081 71.1267 130.272 59.1153 130.281 47.0997C130.281 46.2465 130.15 45.399 130.102 44.7846C126.352 44.7846 122.887 44.7714 119.421 44.7884C115.828 44.8055 112.233 44.9372 108.642 44.8538C106.513 44.8427 104.39 44.6123 102.308 44.1661C97.9104 43.135 96.5504 41.4751 96.0989 36.9739C95.7051 33.0674 95.4465 29.1478 95.0953 25.2374C94.6241 20.0031 94.1233 14.7707 93.6002 9.16164ZM125.862 35.4991L102.934 14.677L102.413 15.0219C103.506 22.1871 104.599 29.352 105.723 36.7214L125.862 35.4991Z" fill="black"/>
<path d="M58.48 110.947C58.6914 119.304 58.919 127.035 59.0601 134.769C59.1716 136.787 59.0394 138.81 58.6664 140.796C58.3146 142.182 57.5292 143.419 56.425 144.327C54.895 145.521 52.3838 144.686 51.6336 142.803C50.988 141.258 50.6423 139.605 50.615 137.931C50.7134 127.155 50.9558 116.38 51.1441 105.604C51.1671 104.278 51.1441 102.95 51.1441 101.882C54.1082 99.9129 56.352 99.7816 58.8481 101.886C61.4668 103.994 63.8246 106.407 65.871 109.074C69.6318 114.241 72.9863 119.703 76.5036 125.045C77.0386 125.858 77.5459 126.686 78.4799 128.164C78.6387 126.519 78.7706 125.588 78.8126 124.652C79.0673 118.932 79.2012 113.203 79.595 107.492C79.7886 105.263 80.2579 103.065 80.993 100.951C81.6428 98.9848 83.0848 98.1283 84.4604 98.335C85.9805 98.5648 86.9775 99.9444 87.1179 102.152C87.1626 103.162 87.1494 104.173 87.0792 105.182C86.6447 113.816 86.226 122.45 85.7383 131.081C85.6071 133.432 85.2789 135.773 84.9888 138.112C84.8969 138.666 84.723 139.202 84.4729 139.704C82.9916 142.967 79.6213 143.418 77.5997 140.475C75.441 137.332 73.5724 133.993 71.5247 130.773C67.6739 124.712 63.7987 118.666 59.8983 112.634C59.4551 112.048 58.9817 111.485 58.48 110.947Z" fill="black"/>
<path d="M108.731 132.564C109.387 131.508 109.812 130.326 109.977 129.094C110.141 127.862 110.042 126.61 109.685 125.419C109.007 125.06 108.307 124.73 107.651 124.332C105.952 123.305 105.127 121.743 105.508 120.158C105.646 119.314 106.063 118.541 106.691 117.961C107.319 117.381 108.123 117.026 108.975 116.955C111.876 116.651 114.79 116.382 117.704 116.332C120.279 116.289 121.895 117.587 122.208 119.526C122.544 121.613 121.646 122.869 119.043 123.962C118.631 124.136 118.226 124.325 117.84 124.497C117.699 126.871 117.72 129.219 117.394 131.52C116.552 137.482 112.463 141.25 106.113 140.184C103.905 139.813 101.631 139.679 99.495 139.061C92.87 137.145 89.5679 132.243 90.1803 125.375C90.9023 117.285 93.225 109.761 98.4009 103.327C101.211 99.8335 104.81 98.1171 109.35 98.8148C110.348 98.9658 111.321 99.25 112.243 99.6602C112.834 99.8702 113.334 100.281 113.654 100.82C113.975 101.359 114.097 101.993 114 102.614C113.935 103.237 113.649 103.816 113.193 104.245C112.738 104.675 112.143 104.927 111.517 104.954C110.85 105.055 110.174 105.077 109.502 105.02C106.969 104.787 105.192 105.939 103.878 107.987C100.203 113.716 98.5683 120.041 98.3648 126.789C98.2775 127.756 98.5486 128.722 99.1275 129.503C99.7057 130.282 100.55 130.822 101.501 131.019C103.84 131.677 106.261 132.05 108.731 132.564Z" fill="black"/>
<path d="M31.1801 127.945C31.1801 130.574 31.2456 133.034 31.1583 135.488C31.1168 137.168 30.9444 138.843 30.6425 140.496C30.1831 142.892 28.936 144.004 27.1836 143.874C25.3997 143.742 24.3338 142.415 24.2019 140.062C24.0942 138.157 24.026 136.25 23.9971 134.34C23.8868 126.263 23.7345 118.185 23.7254 110.107C23.7188 105.185 27.2361 102.486 30.9306 100.473C34.7768 98.3763 38.6097 99.71 41.8514 102.388C47.3889 106.964 48.321 113.534 44.4046 119.525C41.3008 124.272 37.4842 126.758 31.1801 127.945ZM30.8289 121.88C34.3005 121.048 37.3314 118.939 39.318 115.973C41.8836 112.178 41.0029 108.074 37.1226 105.599C34.3246 103.813 32.1915 104.155 29.7761 106.799C30.1148 111.651 30.4541 116.542 30.8289 121.882V121.88Z" fill="black"/>
</g>
<defs>
<clipPath id="clip0_6_1852">
<rect width="141.769" height="173.273" fill="white"/>
</clipPath>
</defs>
</svg>
