<svg width="142" height="174" viewBox="0 0 142 174" fill="none" xmlns="http://www.w3.org/2000/svg">
<g clip-path="url(#clip0_6_1804)">
<path d="M140.239 92.1373C140.42 108.628 140.66 125.118 140.747 141.61C140.778 147.438 140.323 153.268 140.288 159.098C140.236 167.474 133.724 172.537 126.137 172.697C110.648 173.025 95.1527 173.387 79.6618 173.309C61.4708 173.217 43.2804 172.743 25.094 172.273C20.8341 172.06 16.5897 171.607 12.3807 170.916C7.2429 170.2 2.16804 164.333 1.98033 158.744C1.50645 144.621 0.97487 130.496 0.819318 116.367C0.477366 85.2845 0.397955 54.1987 0.0875074 23.1158C0.0435326 18.7006 0.0494396 14.3867 1.72835 10.2294C3.20905 6.55394 5.27257 3.43232 9.35171 2.30211C10.6485 1.95696 11.9805 1.76181 13.3219 1.72012C19.1548 1.49106 25.0047 1.50994 30.8238 1.12467C52.1587 -0.287768 73.4903 0.809765 94.8246 0.982381C96.8789 0.937284 98.9208 1.31002 100.827 2.07777C102.733 2.84552 104.464 3.9921 105.913 5.44855C112.827 12.012 120.243 18.0461 127.4 24.3561C130.345 26.9519 133.136 29.7223 136.035 32.3712C136.845 33.0682 137.501 33.9256 137.962 34.8895C138.423 35.8535 138.678 36.9026 138.713 37.9706C138.948 43.9091 139.355 49.8454 139.409 55.7853C139.519 67.9027 139.442 80.0219 139.442 92.1412L140.239 92.1373ZM92.9409 9.36219C90.9797 9.20599 89.3225 8.98408 87.6613 8.95651C73.5172 8.71669 59.373 8.49937 45.2285 8.30464C38.8344 8.21603 32.439 8.17993 26.0443 8.14055C22.7955 8.12086 19.5394 8.01939 16.2984 8.18479C11.7651 8.41648 10.3618 9.71156 9.54795 14.1399C8.72983 18.3288 8.53667 22.6155 8.97491 26.8609C9.23665 29.2013 9.3695 31.5546 9.37271 33.9095C9.44228 73.6187 9.49584 113.327 9.53351 153.035C9.50431 153.932 9.54579 154.83 9.6575 155.721C10.4832 160.84 13.1788 163.92 18.7702 164.145C40.4339 165.018 62.0976 165.013 83.7692 164.646C94.7701 164.459 105.773 164.373 116.775 164.252C119.466 164.222 122.164 164.329 124.848 164.182C129.258 163.94 131.581 161.515 131.532 157.064C131.48 152.248 131.112 147.435 131.032 142.618C130.936 136.787 131.131 130.949 130.966 125.121C130.562 110.772 129.869 96.4297 129.588 82.0789C129.366 70.6416 129.588 59.1967 129.608 47.7528C129.608 46.7801 129.608 45.8083 129.608 44.8186C129.19 44.7162 128.764 44.6449 128.336 44.6058C121.49 44.7423 114.644 44.9488 107.797 45C105.779 45.0154 103.765 44.7974 101.797 44.3506C97.2399 43.3077 95.8596 41.6395 95.4041 36.9598C95.0359 33.1668 94.7714 29.3631 94.4321 25.5675C93.9661 20.3299 93.4699 15.0946 92.9409 9.36219ZM102.381 14.9373L101.742 15.1737C102.833 22.3318 103.925 29.4894 105.063 36.9585C111.626 36.251 118.025 36.2863 125.132 35.5984L102.381 14.9373Z" fill="black"/>
<path d="M79.6445 109.469C84.8473 105.674 89.8178 102.015 94.821 98.4113C98.744 95.589 101.207 95.6848 104.587 99.1982C107.148 101.866 109.515 104.713 111.669 107.719C114.409 111.538 116.689 115.688 119.444 119.495C122.522 123.75 124.121 128.561 125.555 133.494C126.47 136.644 124.952 139.348 121.599 139.982C119.824 140.26 118.028 140.385 116.231 140.356C112.864 140.404 109.495 140.334 106.127 140.353C82.6598 140.49 59.1927 140.64 35.725 140.801C32.2465 140.828 28.7679 141.176 25.2893 141.274C23.72 141.348 22.1474 141.253 20.5984 140.991C16.7175 140.252 15.2973 136.43 17.7605 133.369C22.049 128.039 26.4241 122.78 30.7428 117.471C33.7167 113.815 36.5317 110.021 39.6316 106.476C43.544 102.002 47.568 97.6158 51.7456 93.3896C54.7313 90.3705 58.2545 89.911 61.8499 92.4412C65.742 95.2733 69.4267 98.3804 72.8764 101.738C75.3101 104.03 77.3165 106.772 79.6445 109.469ZM25.6745 133.843C46.3144 132.875 66.59 133.087 87.4359 133.285C86.4639 132.022 85.8889 131.237 85.2753 130.484C80.8778 125.098 76.5506 119.655 72.054 114.359C68.7933 110.516 65.3777 106.796 61.888 103.159C60.5287 101.742 58.7763 100.703 57.1249 99.4312C52.9344 102.813 49.0672 106.578 45.5734 110.676C41.7955 115.122 37.9001 119.471 34.0914 123.89C31.2593 127.183 28.4797 130.524 25.6745 133.843ZM98.3069 105.538L83.5734 115.141L97.8028 132.381L116.616 131.808C112.993 124.917 101.191 107.95 98.3069 105.539V105.538Z" fill="black"/>
<path d="M83.4456 86.7796C79.7826 86.8334 76.5239 83.8399 76.5357 80.4328C76.5481 77.0133 80.2532 73.7027 84.0389 73.7297C87.169 73.752 90.1639 76.8801 90.1626 80.1257C90.1606 83.559 86.9649 86.7284 83.4456 86.7796Z" fill="black"/>
</g>
<defs>
<clipPath id="clip0_6_1804">
<rect width="141.113" height="173.93" fill="white"/>
</clipPath>
</defs>
</svg>
