<svg width="142" height="174" viewBox="0 0 142 174" fill="none" xmlns="http://www.w3.org/2000/svg">
<g clip-path="url(#clip0_6_1780)">
<path d="M140.383 92.4598C140.564 108.737 140.807 125.019 140.891 141.3C140.922 147.245 140.465 153.191 140.42 159.139C140.354 167.509 133.807 172.553 126.226 172.708C110.848 173.021 95.4663 173.394 80.085 173.315C61.7818 173.22 43.4791 172.748 25.1804 172.278C20.9202 172.067 16.6758 171.612 12.4678 170.914C7.33594 170.186 2.29122 164.285 2.10679 158.694C1.64145 144.559 1.10655 130.422 0.950995 116.282C0.608386 85.1712 0.541516 54.0605 0.209409 22.9541C0.158215 18.1746 0.280241 13.5459 2.25581 9.12548C3.73454 5.81751 5.85585 3.14033 9.52279 2.15123C10.8225 1.81605 12.1553 1.6261 13.4969 1.58526C19.2175 1.35882 24.952 1.36972 30.6615 0.994299C52.1086 -0.410919 73.5532 0.666432 94.9996 0.844956C97.054 0.806914 99.0952 1.18645 100.999 1.96086C102.903 2.73527 104.629 3.88859 106.073 5.35023C112.906 11.8414 120.229 17.8157 127.314 24.0431C129.927 26.3402 132.338 28.8742 135.025 31.0762C138.097 33.594 139.029 36.8074 139.083 40.5931C139.316 56.6498 139.641 72.7047 139.927 88.7601C139.949 89.994 139.927 91.2286 139.927 92.4631L140.383 92.4598ZM93.0753 9.24212C91.1318 9.08328 89.4766 8.85566 87.818 8.82744C73.6739 8.58762 59.5294 8.3703 45.3844 8.17557C38.9903 8.08696 32.595 8.05086 26.2003 8.01214C22.9507 7.99245 19.6948 7.88901 16.4538 8.05441C11.8207 8.29069 10.46 9.63467 9.62774 14.3268C8.83771 18.5238 8.6754 22.8146 9.14606 27.0594C9.36646 28.8417 9.48145 30.6359 9.49057 32.4318C9.56631 72.5124 9.62892 112.591 9.67841 152.668C9.63778 153.678 9.67507 154.689 9.78992 155.693C10.5979 160.812 13.2974 163.919 18.8828 164.144C40.5466 165.018 62.2109 165.014 83.8826 164.648C94.7712 164.463 105.662 164.37 116.552 164.245C119.243 164.214 121.94 164.316 124.625 164.189C129.462 163.96 131.72 161.629 131.676 156.736C131.598 148.211 131.378 139.688 131.204 131.165C131.103 126.226 131.018 121.288 130.853 116.351C130.487 105.358 129.901 94.3691 129.73 83.3735C129.545 71.3625 129.73 59.3515 129.742 47.3366C129.742 46.4703 129.663 45.6034 129.619 44.7055C129.249 44.6051 128.872 44.5369 128.491 44.5023C121.644 44.6388 114.799 44.8558 107.952 44.8965C105.821 44.9132 103.696 44.6704 101.623 44.1741C97.3769 43.141 96.0734 41.5113 95.5792 37.2038C95.4387 35.9784 95.4322 34.7386 95.3167 33.5093C94.5953 25.5906 93.8563 17.6649 93.0753 9.24212ZM124.481 35.6065L124.62 34.8951L102.392 14.7274L101.88 15.0627C102.972 22.2279 104.063 29.3932 105.187 36.7717L124.481 35.6065Z" fill="black"/>
<path d="M107.651 128.47C104.065 125.214 100.691 122.136 97.2984 119.083C96.0513 117.959 94.734 116.909 93.4969 115.774C92.918 115.244 92.4054 114.645 91.9696 113.992C90.7809 112.2 90.842 110.265 92.0509 109.055C92.7152 108.436 93.5855 108.084 94.4938 108.069C95.4022 108.054 96.2843 108.376 96.9689 108.973C100.761 111.94 104.513 114.966 108.159 118.111C110.447 120.084 112.506 122.322 114.678 124.43C117.721 127.383 117.94 129.877 114.789 132.746C109.735 137.344 104.439 141.672 99.2227 146.092C98.0433 147.128 96.793 148.08 95.4816 148.943C93.338 150.299 91.0185 149.983 89.7597 148.322C88.5126 146.673 88.934 144.4 90.9535 142.698C95.3261 139.014 99.759 135.402 104.143 131.733C105.241 130.808 106.246 129.783 107.651 128.47Z" fill="black"/>
<path d="M32.925 128.77C37.9487 131.688 42.591 134.378 47.2267 137.079C48.3181 137.645 49.3658 138.29 50.3612 139.012C51.8551 140.215 52.2141 141.673 51.6194 143.177C50.95 144.872 49.5922 145.695 47.589 145.433C46.7027 145.318 45.8452 145.041 45.0595 144.615C38.7967 141.136 32.5154 137.692 26.338 134.068C23.1022 132.171 22.7833 129.343 25.1862 126.455C25.685 125.855 26.2927 125.347 26.8447 124.792C32.3691 119.23 37.9158 113.691 43.4028 108.092C45.3337 106.123 46.928 105.571 48.2807 106.687C49.6525 107.819 49.7522 109.635 47.9736 111.785C44.2613 116.27 40.3397 120.582 36.4876 124.95C35.4578 126.115 34.3664 127.228 32.925 128.77Z" fill="black"/>
<path d="M79.4754 103.227C82.4145 102.617 83.5408 103.265 83.5447 105.869C83.4909 107.883 83.2454 109.887 82.8129 111.854C81.2285 120.13 78.3905 128.026 75.3621 135.857C74.1919 138.883 73.1011 141.953 71.6925 144.867C70.9364 146.328 69.8732 147.61 68.5756 148.622C67.4756 149.504 65.9614 149.277 64.8345 148.341C64.2868 147.933 63.8865 147.358 63.6938 146.703C63.501 146.048 63.5264 145.349 63.766 144.709C64.3072 143.242 64.943 141.81 65.6693 140.425C70.9443 130.142 75.4586 119.568 78.0813 108.265C78.4095 106.848 78.7141 105.425 79.0494 104.01C79.1636 103.735 79.3061 103.472 79.4754 103.227Z" fill="black"/>
</g>
<defs>
<clipPath id="clip0_6_1780">
<rect width="141.113" height="173.93" fill="white"/>
</clipPath>
</defs>
</svg>
