<svg width="142" height="174" viewBox="0 0 142 174" fill="none" xmlns="http://www.w3.org/2000/svg">
<g clip-path="url(#clip0_6_1833)">
<path d="M140.845 92.0884C141.026 108.593 141.268 125.096 141.355 141.601C141.387 147.435 140.923 153.269 140.896 159.104C140.861 167.483 134.456 172.62 126.817 172.787C110.205 173.151 93.5863 173.513 76.9724 173.443C59.9076 173.372 42.8376 172.861 25.7748 172.372C21.4013 172.169 17.0444 171.699 12.7282 170.965C7.75968 170.209 2.86742 164.308 2.57928 158.905C2.31675 153.978 2.10325 149.043 2.04024 144.11C1.71644 118.844 1.4246 93.5776 1.16469 68.3106C1.00323 53.3743 0.941517 38.4373 0.700641 23.503C0.631727 19.2152 0.359437 14.9201 2.1053 10.9112C3.03655 8.63953 4.3076 6.52258 5.87475 4.63269C7.69346 2.55276 10.3521 1.76431 13.1698 1.68686C19.3394 1.51818 25.5254 1.48365 31.6825 1.07475C52.9058 -0.335061 74.1252 0.782618 95.3472 0.927013C97.4567 0.891616 99.5511 1.28657 101.502 2.08778C103.454 2.889 105.222 4.07973 106.698 5.58708C113.528 12.0809 120.858 18.0468 127.944 24.2728C130.558 26.57 132.968 29.1041 135.646 31.3173C138.615 33.7693 139.496 36.9067 139.55 40.5572C139.779 55.9398 140.079 71.3212 140.343 86.7025C140.374 88.4982 140.347 90.2946 140.347 92.0903L140.845 92.0884ZM93.5502 9.37673C91.9487 9.22577 90.6321 9.01384 89.3122 8.99022C74.8327 8.72768 60.3523 8.48543 45.8713 8.26404C39.4773 8.16822 33.0826 8.13927 26.6872 8.10055C23.4383 8.08086 20.1822 7.97722 16.9412 8.14131C12.2989 8.37496 10.9297 9.71665 10.1047 14.3983C9.34644 18.4862 9.16706 22.6606 9.57176 26.7985C9.85268 29.4724 9.95959 32.1727 9.9865 34.863C10.0521 41.5983 10.0405 48.335 10.0464 55.071C10.077 87.8524 10.1066 120.634 10.1355 153.415C10.114 154.201 10.1541 154.987 10.255 155.767C11.0676 160.876 13.7559 164.007 19.3387 164.234C41.1153 165.112 62.8921 165.107 84.6752 164.729C95.5645 164.541 106.455 164.46 117.345 164.335C120.036 164.305 122.734 164.411 125.418 164.27C129.843 164.033 132.187 161.612 132.137 157.181C132.076 151.799 131.729 146.421 131.634 141.039C131.538 135.657 131.722 130.259 131.568 124.875C131.159 110.739 130.471 96.6092 130.202 82.4717C129.98 70.8 130.202 59.1206 130.213 47.445C130.213 46.4999 130.101 45.5546 130.068 45.0302C122.581 45.0302 115.511 45.0921 108.442 44.9936C106.202 44.9651 103.97 44.6967 101.787 44.1934C98.2489 43.3677 96.1421 41.1407 96.0384 37.3195C96.0062 36.0862 95.9071 34.8531 95.7942 33.6238C95.0663 25.6939 94.328 17.7667 93.5502 9.37673ZM105.654 36.8647L125.791 35.6235L102.213 14.2204C103.431 22.233 104.519 29.3975 105.654 36.8647Z" fill="black"/>
<path d="M43.3178 115.676C44.368 113.159 45.3867 110.695 46.4165 108.235C46.8848 106.974 47.419 105.739 48.0167 104.534C50.0146 100.889 53.6492 100.719 56.0757 104.121C56.477 104.662 56.8121 105.25 57.074 105.87C60.1522 113.592 62.7652 121.446 63.5397 129.786C63.6729 131.239 63.6676 132.702 63.5239 134.153C63.2837 136.577 62.0307 137.932 60.1234 138.091C58.216 138.251 56.671 137.155 56.035 134.82C55.2113 131.795 54.6102 128.71 53.9099 125.652C53.2359 122.711 52.5577 119.77 51.7294 116.168C51.0816 117.481 50.745 118.225 50.3578 118.941C49.6571 120.465 48.8305 121.927 47.8865 123.313C47.4601 123.912 46.9144 124.417 46.2838 124.795C45.6533 125.173 44.9515 125.416 44.2222 125.51C43.493 125.604 42.7523 125.546 42.0465 125.34C41.3407 125.134 40.685 124.784 40.1207 124.313C38.8404 123.225 37.6601 122.026 36.5942 120.727C34.2728 118.192 31.9862 115.626 29.685 113.072L29.0062 113.369C29.0062 115.324 28.9291 117.282 29.0223 119.231C29.2362 123.71 29.5714 128.184 29.7841 132.663C29.9318 135.783 28.751 137.578 26.6107 137.733C24.454 137.89 23.0344 136.175 22.9819 133.038C22.8537 125.41 22.7844 117.782 22.7739 110.154C22.8103 108.584 23.0494 107.024 23.4854 105.515C24.0157 103.532 24.9365 103.091 27.0164 103.516C29.7889 104.055 32.3568 105.355 34.4329 107.269C37.3155 109.936 40.1366 112.658 43.3178 115.676Z" fill="black"/>
<path d="M68.7578 115.975C68.8582 114.912 68.9061 113.786 69.0801 112.68C69.9451 107.184 72.3585 104.919 77.9367 104.308C81.0294 103.974 84.1516 104.561 86.9102 105.996C89.6694 107.433 91.9423 109.653 93.4427 112.377C96.2833 117.567 95.6742 125.353 92.0644 129.92C90.348 132.112 87.8874 133.599 85.1485 134.098C82.4096 134.596 79.5821 134.073 77.2036 132.626C70.9099 128.882 68.9659 122.895 68.7578 115.975ZM75.9933 111.288C73.4638 116.096 74.4227 122.249 78.1749 125.534C79.1069 126.323 80.1722 126.939 81.3208 127.352C82.2167 127.692 83.2005 127.721 84.1155 127.435C85.0297 127.15 85.8226 126.566 86.366 125.777C89.3648 121.473 89.1568 114.582 82.6866 111.757C80.5719 110.851 78.2143 110.685 75.9933 111.285V111.288Z" fill="black"/>
<path d="M107.46 118.237C108.927 114.398 110.365 110.547 111.876 106.724C112.355 105.469 112.955 104.263 113.666 103.122C114.867 101.254 116.548 100.658 118.243 101.3C119.118 101.577 119.851 102.185 120.287 102.993C120.723 103.802 120.826 104.748 120.577 105.632C118.336 113.95 115.831 122.194 111.896 129.906C111.484 130.844 110.787 131.628 109.904 132.146C109.02 132.665 107.996 132.891 106.977 132.794C104.478 132.601 103.261 130.851 102.606 128.714C101.425 124.862 100.447 120.948 99.2521 117.101C98.3582 114.223 97.2556 111.41 96.2468 108.569C96.0604 108.044 95.6593 107.482 95.742 107.003C95.9009 106.085 96.0886 104.858 96.722 104.417C97.1446 104.186 97.6159 104.058 98.0976 104.044C98.5794 104.031 99.0572 104.132 99.4924 104.339C100.716 105.11 101.729 106.172 102.442 107.43C103.695 109.793 104.624 112.327 105.642 114.809C106.102 115.924 106.451 117.09 106.85 118.233L107.46 118.237Z" fill="black"/>
</g>
<defs>
<clipPath id="clip0_6_1833">
<rect width="141.769" height="173.93" fill="white"/>
</clipPath>
</defs>
</svg>
