<svg width="142" height="174" viewBox="0 0 142 174" fill="none" xmlns="http://www.w3.org/2000/svg">
<g clip-path="url(#clip0_6_1857)">
<path d="M141.01 100.091C141.126 113.777 141.311 127.459 141.327 141.149C141.333 147.202 140.91 153.255 140.839 159.31C140.744 167.309 134.63 172.568 126.878 172.737C108.245 173.145 89.6039 173.494 70.9672 173.445C55.8097 173.405 40.6516 172.829 25.4994 172.322C21.2393 172.106 16.995 171.645 12.7875 170.945C7.53675 170.161 2.71463 164.067 2.48295 158.306C1.45775 132.631 1.27987 106.942 1.19783 81.2513C1.13701 61.8384 0.953666 42.4263 0.64781 23.0144C0.588083 18.9451 0.55461 14.9457 1.98609 11.0812C3.91309 5.88034 6.63626 1.97795 14.7079 1.66553C39.9651 0.688245 65.2151 -0.0727731 90.486 1.1047C93.177 1.2294 95.8739 1.34496 98.559 1.26686C99.5691 1.23827 100.575 1.41173 101.517 1.77642C102.46 2.1411 103.319 2.6899 104.047 3.39098C114.373 12.5548 124.663 21.7584 135.047 30.8552C137.935 33.3867 139.455 36.3164 139.52 40.1901C139.852 60.1592 140.276 80.1264 140.668 100.094L141.01 100.091ZM93.5032 9.41531C91.5401 9.2591 89.8816 9.03785 88.2204 9.00962C74.0763 8.77072 59.932 8.55419 45.7875 8.359C39.3934 8.27039 32.9981 8.23429 26.6034 8.19491C23.3545 8.17522 20.0984 8.07309 16.8574 8.2398C12.3287 8.47215 10.9241 9.76783 10.1103 14.1981C9.29259 18.3872 9.09989 22.6742 9.53859 26.9198C9.80046 29.2602 9.93304 31.6134 9.93567 33.9684C10.0052 73.6766 10.0588 113.385 10.0965 153.093C10.0673 153.991 10.1087 154.889 10.2205 155.779C11.0495 160.899 13.7451 163.974 19.3371 164.2C41.0008 165.074 62.6652 165.068 84.3362 164.701C95.337 164.514 106.34 164.427 117.342 164.306C120.033 164.276 122.731 164.384 125.415 164.237C129.824 163.995 132.144 161.569 132.095 157.115C132.043 152.299 131.674 147.486 131.595 142.67C131.499 136.839 131.694 131 131.529 125.172C131.125 110.823 130.432 96.481 130.151 82.1302C129.929 70.6935 130.151 59.248 130.171 47.804C130.171 46.832 130.171 45.8601 130.171 44.8723C129.751 44.7706 129.325 44.6998 128.895 44.6608C122.049 44.7973 115.203 45.0123 108.356 45.055C106.226 45.0724 104.101 44.8296 102.029 44.3326C97.7891 43.2949 96.4581 41.6707 96.0118 37.3507C95.6088 33.4488 95.3462 29.5323 94.9951 25.6244C94.5278 20.3777 94.0329 15.1393 93.5032 9.41209V9.41531ZM125.758 35.7092L102.836 14.9218L102.307 15.2845C103.403 22.4386 104.498 29.5882 105.624 36.9392L125.758 35.7092Z" fill="black"/>
<path d="M69.3808 151.769C55.1208 151.511 40.8608 151.248 26.6007 150.982C25.0324 150.907 23.4692 150.749 21.9178 150.507C19.8378 150.245 18.7431 148.975 18.5212 146.941C18.3756 145.831 18.303 144.712 18.304 143.593C18.7087 126.326 19.1244 109.058 19.551 91.7898C19.6127 89.1185 19.5228 86.4433 19.4782 83.7707C19.4493 82.0334 20.4974 81.377 22.0096 81.2674C25.5906 81.0049 29.1723 80.6944 32.7591 80.5914C49.5936 80.1051 66.4332 79.7894 83.263 79.1881C90.8851 78.9164 98.4868 78.0953 106.104 77.5801C108.902 77.3904 111.712 77.2677 114.516 77.2887C117.476 77.3104 119.163 78.5758 119.904 81.4007C120.387 83.3592 120.708 85.3538 120.864 87.3641C121.295 92.0497 121.796 96.7393 121.94 101.438C122.328 113.995 122.555 126.559 122.813 139.12C122.862 141.474 122.83 143.835 122.713 146.187C122.538 149.731 121.273 151.313 117.835 152.057C115.974 152.475 114.07 152.676 112.162 152.655C100.151 152.406 88.1363 152.05 76.1234 151.753C73.8787 151.697 71.6321 151.745 69.3861 151.745L69.3808 151.769ZM48.208 98.7129C40.185 98.4425 32.494 98.2259 24.5274 98.8389C24.7899 114.394 25.0472 129.68 25.3064 145.046H46.0139C46.7418 129.674 47.4605 114.491 48.208 98.7129ZM54.4656 92.7396C56.0467 92.7396 57.1565 92.7396 58.2638 92.7396C69.0494 92.7435 79.835 92.7474 90.6212 92.7507C96.3511 92.7507 102.081 92.7743 107.809 92.6989C109.537 92.6759 111.26 92.3523 113.066 92.158C112.771 89.2918 112.523 86.8824 112.285 84.576L53.9149 86.0351C54.0882 88.157 54.2595 90.2396 54.4656 92.7396ZM48.147 86.0167C43.2967 85.3722 26.371 85.5861 23.976 86.3002C24.1073 88.6821 24.2432 91.0915 24.3771 93.4891L48.147 92.6792V86.0167ZM95.2937 144.559V137.057C88.4186 136.867 81.7869 136.75 75.1573 137.004V144.559H95.2937ZM94.7686 130.453V124.048C88.1757 124.164 81.867 123.859 75.4651 124.627C75.3509 126.859 75.2511 128.807 75.1369 131.047L94.7686 130.453ZM75.7814 118.063H94.5127V111.922H75.7788L75.7814 118.063ZM75.7565 105.642H94.6308V99.5051H75.7539L75.7565 105.642ZM54.5056 111.574C54.1436 114.425 54.1449 117.31 54.5095 120.161L69.2161 118.797C69.3959 116.214 69.5482 114.036 69.7195 111.577L54.5056 111.574ZM69.7904 99.1395H54.7721V106.06H69.7878L69.7904 99.1395ZM68.8551 144.544C68.6917 141.966 68.5473 139.691 68.4022 137.408H54.1479V144.544H68.8551ZM113.781 136.996H101.408V144.649C105.739 144.649 109.868 144.66 114 144.633C114.423 144.565 114.834 144.437 115.219 144.252C114.719 141.738 114.248 139.364 113.778 136.998L113.781 136.996ZM68.565 131.254C68.756 128.922 68.9142 126.988 69.1071 124.625L54.3592 125.313V132.086L68.565 131.254ZM113.038 105.803V99.7834H99.4962V105.803H113.038ZM100.943 130.302C105.284 130.616 109.648 130.351 113.92 129.515C113.802 127.415 113.698 125.563 113.577 123.411L100.509 124.193C100.667 126.461 100.799 128.314 100.94 130.304L100.943 130.302ZM100.061 117.642H113.065V112.168H99.7286C99.8421 114.071 99.9426 115.726 100.059 117.643L100.061 117.642Z" fill="black"/>
</g>
<defs>
<clipPath id="clip0_6_1857">
<rect width="141.769" height="173.93" fill="white"/>
</clipPath>
</defs>
</svg>
