<svg width="142" height="174" viewBox="0 0 142 174" fill="none" xmlns="http://www.w3.org/2000/svg">
<g clip-path="url(#clip0_6_1812)">
<path d="M140.181 92.6945C140.361 108.975 140.605 125.254 140.687 141.534C140.718 147.48 140.265 153.427 140.215 159.374C140.145 167.753 133.56 172.772 126.003 172.923C110.737 173.228 95.4678 173.603 80.202 173.523C61.7856 173.427 43.3708 172.959 24.9592 172.49C20.6988 172.282 16.4543 171.826 12.2468 171.124C7.11755 170.391 2.08718 164.478 1.90471 158.888C1.44528 144.753 0.905905 130.615 0.750353 116.476C0.408401 85.3652 0.341546 54.2549 0.00812671 23.1478C-0.0430676 18.3677 0.0735758 13.7343 2.06687 9.32238C3.44518 6.26582 5.32561 3.62535 8.71166 2.59621C10.2082 2.14367 11.7554 1.87897 13.3172 1.80848C19.0366 1.55447 24.7696 1.55617 30.4823 1.21816C50.244 0.0367485 70.0032 0.481089 89.7649 1.13612C92.5687 1.22866 95.3765 1.35796 98.1791 1.3002C100.107 1.27694 101.967 2.01918 103.349 3.36471C112.585 11.5641 121.816 19.7694 131.042 27.9806C132.384 29.1745 133.649 30.4662 135.065 31.5629C138.018 33.8535 138.817 36.9799 138.871 40.4952C139.085 53.9685 139.348 67.4406 139.558 80.9139C139.62 84.8421 139.568 88.7723 139.568 92.7018L140.181 92.6945ZM92.8719 9.45056C90.918 9.29238 89.2621 9.06732 87.6029 9.0391C73.4588 8.79973 59.3141 8.58262 45.1692 8.38788C38.7751 8.29928 32.3804 8.26252 25.9851 8.2238C22.7362 8.20345 19.4803 8.09936 16.2393 8.26607C11.6108 8.50432 10.2507 9.85001 9.42503 14.5487C8.66125 18.6362 8.48581 22.8116 8.90397 26.9487C9.16355 29.291 9.29672 31.6457 9.30295 34.0024C9.37253 73.7448 9.42621 113.487 9.46382 153.229C9.43409 154.126 9.47472 155.025 9.58524 155.916C10.4089 161.041 13.1033 164.133 18.6907 164.358C40.3544 165.232 62.0186 165.228 83.6898 164.861C94.5791 164.676 105.47 164.584 116.36 164.459C119.051 164.428 121.748 164.531 124.433 164.403C129.264 164.173 131.521 161.843 131.473 156.94C131.395 148.415 131.175 139.892 131.001 131.369C130.901 126.43 130.816 121.491 130.65 116.555C130.286 105.674 129.697 94.7968 129.53 83.9134C129.345 71.7915 129.527 59.6645 129.54 47.5394C129.54 46.6736 129.458 45.8079 129.413 44.914C129.04 44.8169 128.661 44.7512 128.277 44.7172C121.431 44.8551 114.586 45.0627 107.739 45.1178C105.72 45.1337 103.706 44.9161 101.738 44.4698C97.1795 43.4282 95.7927 41.7579 95.3365 37.0802C94.9657 33.2846 94.7038 29.4778 94.3651 25.6782C93.8991 20.4335 93.4036 15.1896 92.8719 9.45056ZM104.972 37.0014L125.107 35.7477L101.554 14.3475C102.759 22.3253 103.837 29.4738 104.974 37.004L104.972 37.0014Z" fill="black"/>
<path d="M36.793 72.3046C37.0017 73.6908 37.2818 75.0101 37.3743 76.3424C37.4669 77.3342 37.3961 78.3344 37.1644 79.3025C36.9862 80.0737 36.5514 80.7616 35.9315 81.2545C35.3116 81.7467 34.543 82.0145 33.7513 82.0138C32.9615 81.9548 32.2106 81.6476 31.6047 81.1376C30.9989 80.6277 30.5688 79.9398 30.3757 79.1719C30.1952 78.1815 30.1109 77.1753 30.1238 76.1685C30.0851 75.1768 30.1152 74.1818 30.1152 73.0266C28.7001 72.7089 27.3857 72.5015 26.1262 72.1077C24.4004 71.6385 22.7174 71.0235 21.0953 70.27C19.1545 69.2855 18.4561 67.4556 19.0468 65.7997C19.5857 64.29 21.1032 63.4602 23.1746 63.6492C25.0747 63.8225 26.9623 64.2041 28.8631 64.2671C30.5381 64.3332 32.215 64.206 33.8609 63.8883C34.9414 63.5993 35.9533 63.0972 36.8369 62.4115C37.4191 62.0535 37.8696 61.5165 38.121 60.8809C38.3724 60.2453 38.4113 59.5452 38.2316 58.8857C38.0758 58.2803 37.7373 57.7375 37.2622 57.3313C36.787 56.9251 36.1983 56.6752 35.5761 56.6154C34.5837 56.452 33.5746 56.4136 32.5726 56.5007C31.1188 56.6044 29.6788 56.9182 28.225 57.0173C23.0708 57.3704 19.2536 53.8324 19.4715 48.6631C19.6861 43.5614 21.9589 39.6476 26.8434 37.5585C27.4571 37.296 28.0832 37.0623 28.8262 36.7663C29.0329 35.388 29.2419 33.9622 29.4604 32.5386C29.6704 31.1727 30.3602 30.2494 31.8173 30.0984C32.4945 29.9833 33.1905 30.1244 33.7693 30.4945C34.3481 30.8646 34.7683 31.437 34.948 32.1001C35.3589 33.5992 35.6866 35.1195 35.9293 36.6548C40.6917 38.7846 41.1044 39.4269 39.6795 43.063C38.7668 42.9137 37.8464 42.8154 36.9228 42.7688C34.9288 42.7623 32.8667 42.5512 30.9548 42.9758C27.4572 43.7516 26.2331 45.9157 26.6886 50.1629C27.4762 50.1629 28.3084 50.2018 29.138 50.1559C31.3735 50.0312 33.6175 49.6598 35.8392 49.7681C40.471 49.9945 44.5549 53.0766 45.8006 57.1006C47.2229 61.6949 45.7901 65.5426 42.3135 68.6068C40.7435 69.9897 38.8178 70.9703 36.793 72.3046Z" fill="black"/>
<path d="M66.1106 118.469C77.565 118.469 89.0194 118.474 100.474 118.485C101.819 118.455 103.162 118.582 104.477 118.864C106.225 119.289 107.238 120.602 107.053 121.934C106.985 122.615 106.689 123.252 106.212 123.742C105.735 124.233 105.106 124.548 104.428 124.635C102.889 124.954 101.324 125.136 99.7538 125.178C78.3027 125.217 56.852 125.224 35.4006 125.199C33.4972 125.199 31.5885 124.998 29.6904 124.814C28.9224 124.739 27.9927 124.671 27.4643 124.218C26.7699 123.623 25.9624 122.621 26.0135 121.849C26.0641 121.093 27.0212 120.23 27.7858 119.749C28.3824 119.373 29.3001 119.439 30.0772 119.425C42.089 119.203 54.0999 118.993 66.1099 118.792L66.1106 118.469Z" fill="black"/>
<path d="M24.5891 108.786C23.9203 106.286 24.6548 105.3 26.4866 105.113C29.1625 104.839 31.8372 104.523 34.521 104.367C55.5763 103.16 76.6379 102.14 97.7372 102.306C99.9779 102.317 102.213 102.508 104.423 102.879C106.503 103.237 107.391 104.441 107.217 106.02C107.05 107.543 105.835 108.554 103.865 108.688C102.749 108.765 101.621 108.688 100.5 108.699C76.5972 108.849 52.695 108.996 28.7925 109.137C27.3892 109.145 25.9851 108.908 24.5891 108.786Z" fill="black"/>
<path d="M25.2258 92.8519C25.0256 89.9995 25.1563 89.7849 27.0551 89.5092C27.3898 89.4718 27.7262 89.4534 28.0629 89.4547C36.8113 89.2178 45.5604 89.0012 54.3081 88.7419C68.3286 88.3258 82.348 87.8631 96.3693 87.4673C98.721 87.4017 101.081 87.5448 103.434 87.6406C104.12 87.6039 104.794 87.8323 105.316 88.2792C105.838 88.7255 106.167 89.3556 106.237 90.0395C106.425 91.2636 105.429 92.342 103.718 92.6892C102.613 92.8808 101.493 92.9694 100.371 92.9517C91.2788 93.0515 82.1859 93.083 73.0936 93.2195C61.8705 93.3862 50.6517 93.6658 39.429 93.8227C35.9504 93.8712 32.4717 93.7308 28.9984 93.5667C27.7257 93.4164 26.4651 93.1781 25.2258 92.8519Z" fill="black"/>
<path d="M40.3508 143.081C37.4301 143.081 34.5093 143.096 31.5893 143.073C30.804 143.089 30.0193 143.018 29.2501 142.859C27.8967 142.535 26.9313 141.533 27.1702 140.219C27.3402 139.284 28.2514 138.381 29.0363 137.701C29.4676 137.327 30.3167 137.388 30.9842 137.338C36.6904 136.903 42.3971 136.467 48.1073 136.083C49.4511 135.988 50.8007 136.007 52.1411 136.142C52.7662 136.19 53.3574 136.446 53.8192 136.87C54.281 137.294 54.587 137.861 54.688 138.48C55.0201 139.947 54.6222 141.294 53.2859 141.95C52.086 142.541 50.7802 142.887 49.445 142.967C46.4199 143.112 43.3838 143.014 40.3515 143.014L40.3508 143.081Z" fill="black"/>
</g>
<defs>
<clipPath id="clip0_6_1812">
<rect width="141.113" height="173.93" fill="white"/>
</clipPath>
</defs>
</svg>
