<svg width="142" height="174" viewBox="0 0 142 174" fill="none" xmlns="http://www.w3.org/2000/svg">
<g clip-path="url(#clip0_6_1792)">
<path d="M54.0556 173.738C52.9602 173.587 51.8693 173.341 50.77 173.301C42.5802 172.998 34.3832 172.849 26.2006 172.419C21.5025 172.172 16.8025 171.657 12.1491 170.96C7.18191 170.217 2.23442 164.285 2.04737 158.884C1.57349 145.214 1.03661 131.542 0.888282 117.867C0.545019 86.3457 0.466259 54.8219 0.149904 23.3C0.103304 18.6551 0.1499 14.1362 2.01653 9.79061C3.49329 6.35665 5.52925 3.50014 9.32748 2.43949C10.6199 2.08277 11.9494 1.87733 13.2891 1.82674C19.3445 1.59177 25.4163 1.62347 31.4585 1.2172C52.5631 -0.20312 73.6611 0.945603 94.7656 1.0749C96.8744 1.0315 98.9694 1.41953 100.923 2.21452C102.877 3.00951 104.647 4.19466 106.126 5.69811C112.952 12.1886 120.281 18.1438 127.363 24.3659C130.059 26.7346 132.548 29.343 135.304 31.6356C137.964 33.8488 138.914 36.6621 138.988 39.9373C139.197 49.4679 139.374 58.9996 139.609 68.5294C139.986 83.7794 140.546 99.0275 140.747 114.277C140.892 125.375 140.585 136.477 140.474 147.578C140.436 151.391 140.317 155.205 140.343 159.017C140.409 167.874 133.377 172.681 126.049 172.805C112.696 173.03 99.3409 173.127 85.9871 173.311C84.7735 173.388 83.5645 173.53 82.3654 173.734L54.0556 173.738ZM93.0079 9.49447C90.9588 9.32316 89.1939 9.07409 87.4251 9.04389C73.3933 8.80545 59.3608 8.59214 45.3283 8.40488C38.9342 8.31825 32.5389 8.28274 26.1442 8.24401C22.8953 8.22498 19.6392 8.12161 16.3982 8.28504C11.7559 8.51935 10.3927 9.85585 9.56311 14.5388C8.76913 18.7325 8.60564 23.0211 9.07807 27.263C9.29847 29.0441 9.41353 30.8364 9.42265 32.631C9.49833 72.6762 9.56114 112.721 9.61102 152.767C9.57151 153.775 9.60833 154.785 9.72128 155.787C10.5155 160.886 13.2123 164.019 18.7997 164.244C40.5764 165.12 62.3524 165.118 84.1356 164.737C95.0242 164.547 105.915 164.47 116.805 164.35C119.496 164.319 122.194 164.424 124.878 164.283C129.304 164.046 131.645 161.628 131.597 157.199C131.544 152.271 131.179 147.346 131.096 142.417C131.001 136.699 131.195 130.973 131.03 125.257C130.626 111.02 129.931 96.7907 129.658 82.5521C129.436 70.8909 129.658 59.2208 129.67 47.5544C129.67 46.6093 129.559 45.6637 129.527 45.1406C122.036 45.1406 114.966 45.2025 107.898 45.104C105.657 45.0755 103.425 44.8075 101.242 44.3041C97.704 43.4791 95.5939 41.2549 95.4955 37.4356C95.464 36.203 95.3642 34.9711 95.2506 33.7431C94.5267 25.8217 93.7903 17.9022 93.0079 9.49447ZM124.368 35.8237L124.572 35.1256L102.316 14.9419L101.805 15.2541C102.895 22.4121 103.985 29.5707 105.112 36.9735L124.368 35.8237Z" fill="black"/>
<path d="M101.01 133.415C102.054 128.907 102.934 124.92 103.915 120.96C104.339 119.11 104.914 117.297 105.637 115.541C106.13 114.415 106.884 113.424 107.838 112.648C108.262 112.271 108.773 112.007 109.325 111.877C109.877 111.749 110.453 111.761 111 111.911C111.546 112.061 112.047 112.345 112.456 112.738C112.864 113.132 113.168 113.621 113.34 114.161C113.87 115.625 114.016 117.202 113.763 118.739C112.183 126.522 110.437 134.271 108.659 142.011C108.349 143.431 107.797 144.788 107.025 146.02C104.908 149.264 100.932 149.427 98.5496 146.384C97.6091 145.128 96.8228 143.764 96.2084 142.32C92.4109 133.84 88.6835 125.328 84.907 116.837C84.2638 115.393 83.992 114.019 85.3822 112.889C86.5754 111.917 88.6179 112.197 89.926 113.623C90.8186 114.625 91.5852 115.732 92.21 116.92C94.7698 121.646 97.2573 126.415 99.7743 131.163C100.08 131.748 100.406 132.322 101.01 133.415Z" fill="black"/>
<path d="M63.6444 122.998C65.853 124.006 68.0051 124.904 70.0765 125.958C72.461 127.171 75.0699 128.177 77.0606 129.881C81.6825 133.837 83.1343 138.838 79.7936 144.574C76.8447 149.637 71.3859 151.597 65.5767 149.47C63.8989 148.845 62.2836 148.064 60.7519 147.137C60.109 146.778 59.5731 146.255 59.1987 145.621C58.8243 144.987 58.6249 144.264 58.6208 143.527C58.5637 140.971 60.341 139.59 62.8168 140.34C64.2805 140.893 65.7755 141.359 67.2936 141.736C70.3837 142.282 71.9536 141.308 73.3221 138.296C72.6953 135.983 70.7821 135.026 68.8104 134.155C66.4542 133.113 64.0074 132.251 61.7318 131.055C55.8327 127.962 54.3736 123.239 57.4072 117.272C59.3355 113.481 62.2077 110.796 66.6045 110.185C68.3261 109.946 69.9807 110.219 71.2645 111.551C71.737 111.957 72.0737 112.499 72.2293 113.102C72.3849 113.705 72.352 114.341 72.1354 114.925C71.6852 116.12 70.7479 116.508 69.5212 116.67C65.7046 117.181 64.6493 118.284 63.6444 122.998Z" fill="black"/>
<path d="M43.2083 142.673C44.8912 142.673 46.5747 142.657 48.2569 142.677C50.6965 142.705 52.105 143.704 52.5021 145.651C52.8959 147.575 51.7217 149.547 49.3832 150.174C45.1644 151.384 40.749 151.754 36.3877 151.264C34.8312 151.065 33.2943 150.736 31.7933 150.279C23.2964 147.683 19.168 141.504 20.1866 132.7C20.9637 125.981 23.7538 120.235 29.2146 116.035C31.5485 114.24 34.1587 112.753 37.2317 113.086C38.6403 113.287 39.9684 113.865 41.0759 114.759C41.4303 115.09 41.6791 115.519 41.7913 115.991C41.9035 116.463 41.8741 116.959 41.7066 117.414C41.5391 117.87 41.2412 118.266 40.8499 118.552C40.4586 118.84 39.9914 119.005 39.5066 119.028C35.3979 119.115 32.8946 121.507 30.9689 124.687C29.1036 127.65 28.1565 131.098 28.2471 134.598C28.3863 138.663 29.9615 140.808 33.8673 141.966C35.3787 142.38 36.9285 142.638 38.4925 142.736C40.0533 142.864 41.6325 142.763 43.2037 142.763L43.2083 142.673Z" fill="black"/>
</g>
<defs>
<clipPath id="clip0_6_1792">
<rect width="141.113" height="173.93" fill="white"/>
</clipPath>
</defs>
</svg>
