<svg width="142" height="174" viewBox="0 0 142 174" fill="none" xmlns="http://www.w3.org/2000/svg">
<g clip-path="url(#clip0_6_1785)">
<path d="M54.1608 173.875C53.075 173.675 51.9797 173.528 50.8791 173.436C42.6894 173.134 34.4924 172.986 26.3091 172.556C21.6111 172.309 16.9117 171.792 12.2576 171.097C7.29306 170.355 2.4126 164.413 2.14416 159.016C1.88162 153.753 1.66824 148.484 1.59998 143.216C1.274 118.069 0.980371 92.9221 0.719149 67.7752C0.559661 53.0687 0.504536 38.361 0.267598 23.6558C0.198026 19.3692 -0.0940003 15.0671 1.67417 11.07C2.67204 8.71081 4.02536 6.51821 5.68703 4.56878C7.43417 2.60568 10.0266 1.90475 12.7196 1.8319C19.0021 1.66256 25.2965 1.63475 31.5632 1.21338C52.6684 -0.201028 73.7656 0.935834 94.8708 1.07301C96.9797 1.02986 99.0753 1.41783 101.029 2.21327C102.983 3.00871 104.753 4.19477 106.232 5.69879C113.055 12.1966 120.387 18.1553 127.469 24.3827C130.165 26.7533 132.654 29.3642 135.41 31.6587C138.07 33.8732 139.02 36.6903 139.094 39.968C139.302 49.5066 139.479 59.0456 139.715 68.5844C140.092 83.8476 140.654 99.1035 140.854 114.372C141 125.478 140.69 136.592 140.578 147.701C140.539 151.518 140.422 155.335 140.447 159.151C140.513 167.976 133.522 172.821 126.149 172.947C112.684 173.176 99.2158 173.276 85.7497 173.457C84.6484 173.532 83.5529 173.672 82.468 173.876L54.1608 173.875ZM93.1027 9.44453C90.9827 9.28504 89.3103 9.07403 87.6347 9.04712C73.3784 8.81963 59.1218 8.61203 44.8645 8.42478C38.582 8.33946 32.2995 8.27599 26.017 8.23438C22.7681 8.21206 19.5101 8.11335 16.2711 8.3004C11.9281 8.55441 10.3719 9.82928 9.79043 14.1145C9.30953 18.0007 9.08388 21.9148 9.11499 25.8305C9.09924 30.2017 9.53386 34.5726 9.5634 38.9451C9.66054 53.0905 9.70425 67.2363 9.6946 81.383C9.71212 105.408 9.7181 129.432 9.71239 153.455C9.68548 154.689 9.80487 155.921 10.0681 157.127C11.262 162.015 14.0237 164.215 18.4691 164.319C24.7535 164.462 31.0354 164.953 37.3178 164.932C59.8853 164.854 82.4523 164.613 105.02 164.457C111.529 164.412 118.041 164.558 124.547 164.409C129.47 164.296 131.767 161.914 131.713 157.085C131.6 146.54 131.367 135.996 131.16 125.45C131.099 122.308 130.979 119.167 130.862 116.027C130.494 106.156 129.921 96.2891 129.787 86.4158C129.609 73.3954 129.779 60.3698 129.783 47.3467C129.76 46.6179 129.7 45.891 129.604 45.1681C122.233 45.1681 115.17 45.2194 108.109 45.1367C105.979 45.1367 103.855 44.9029 101.776 44.44C97.3958 43.4023 96.0457 41.7418 95.5954 37.2203C95.2069 33.3138 94.9457 29.3942 94.5945 25.4831C94.1246 20.2567 93.6231 15.0293 93.1027 9.44453ZM102.554 15.049L101.911 15.274C103.002 22.4392 104.094 29.604 105.175 36.7056C108.822 37.0863 122.39 36.0794 124.756 35.2288C117.297 28.4482 109.925 21.7482 102.554 15.049Z" fill="black"/>
<path d="M69.0091 90.4847C57.5586 90.4847 46.1082 90.4794 34.6582 90.4709C33.0871 90.488 31.5172 90.3816 29.9629 90.1519C27.438 89.741 26.3156 88.5813 26.4665 86.8387C26.6044 85.2484 27.7537 84.4477 30.2569 84.3446C32.4996 84.2534 34.7476 84.3059 36.991 84.2206C52.2423 83.641 67.4897 82.8935 82.7456 82.5023C92.1673 82.2608 101.602 82.5226 111.034 82.6211C114.081 82.6533 115.783 84.5324 114.66 86.7147C113.992 87.8475 112.905 88.6725 111.634 89.0119C108.591 89.7463 105.481 90.1723 102.352 90.2845C91.2406 90.4302 80.1255 90.3416 69.0104 90.3416L69.0091 90.4847Z" fill="black"/>
<path d="M26.8954 108.165C26.2797 104.255 27.0739 103.221 30.6424 103.004C35.6798 102.697 40.725 102.355 45.7683 102.338C65.9631 102.272 86.158 102.279 106.354 102.36C108.593 102.429 110.828 102.613 113.048 102.91C113.791 102.932 114.497 103.238 115.02 103.766C115.544 104.293 115.845 105.002 115.863 105.744C116 107.183 115.087 108.379 113.345 108.879C112.266 109.178 111.151 109.322 110.031 109.307C95.4485 109.185 80.8666 109.007 66.2841 108.88C55.8484 108.789 45.4126 108.786 34.9768 108.673C32.3134 108.642 29.6533 108.344 26.8954 108.165Z" fill="black"/>
<path d="M28.1747 124.687C27.3739 121.961 27.5256 121.159 29.3095 120.552C30.7925 120.055 32.3482 119.809 33.9123 119.825C47.8267 119.975 61.7457 120.105 75.6555 120.45C86.6504 120.723 97.6382 121.287 108.629 121.732C109.527 121.738 110.423 121.819 111.308 121.974C112.122 122.089 112.867 122.494 113.405 123.115C113.943 123.737 114.238 124.532 114.234 125.354C114.231 126.176 113.93 126.969 113.388 127.586C112.845 128.203 112.097 128.602 111.281 128.71C110.174 128.896 109.049 128.954 107.928 128.884C101.312 128.626 94.6945 128.398 88.0852 128.027C76.6584 127.384 65.24 126.59 53.8132 125.965C47.7637 125.637 41.7011 125.555 35.6477 125.295C33.195 125.188 30.7482 124.901 28.1747 124.687Z" fill="black"/>
<path d="M101.147 145.91C98.9155 145.812 96.6839 145.755 94.4524 145.595C93.458 145.486 92.4735 145.306 91.5048 145.058C90.9397 144.982 90.4264 144.687 90.0759 144.237C89.7254 143.786 89.5659 143.217 89.6309 142.65C89.6158 142.024 89.8429 141.415 90.2656 140.952C90.6889 140.488 91.2744 140.206 91.8999 140.164C93.672 139.941 95.4546 139.796 97.2372 139.686C100.585 139.48 103.927 139.293 107.275 139.161C108.28 139.135 109.286 139.212 110.275 139.393C112.112 139.708 113.031 140.64 113.145 142.141C113.212 142.877 113.01 143.613 112.575 144.211C112.14 144.809 111.503 145.23 110.782 145.393C109.042 145.778 107.273 146.017 105.493 146.106C104.049 146.216 102.594 146.128 101.142 146.128L101.147 145.91Z" fill="black"/>
<path d="M32.8912 66.5428C35.468 66.5428 38.0447 66.5316 40.6208 66.55C41.4025 66.5559 42.3175 66.4076 42.9305 66.7541C43.7654 67.2044 44.4296 67.9159 44.8208 68.7803C44.926 69.0454 44.9739 69.3296 44.9615 69.6145C44.9492 69.8993 44.8767 70.1789 44.749 70.4342C44.6214 70.6895 44.4413 70.9147 44.2206 71.0952C43.9998 71.2757 43.7434 71.4082 43.4681 71.4831C42.4249 71.8578 41.3243 72.0475 40.2159 72.0436C35.1785 71.8854 30.1431 71.6307 25.1097 71.3669C24.3318 71.2842 23.5639 71.1247 22.817 70.8917C21.7196 70.6114 20.8166 69.8888 21.2005 68.7724C21.6301 67.9356 22.3216 67.2621 23.1695 66.8546C23.6848 66.5586 24.4822 66.7371 25.1549 66.7351C27.7336 66.7266 30.3118 66.7351 32.8906 66.7351L32.8912 66.5428Z" fill="black"/>
</g>
<defs>
<clipPath id="clip0_6_1785">
<rect width="141.113" height="173.93" fill="white"/>
</clipPath>
</defs>
</svg>
