<svg width="142" height="174" viewBox="0 0 142 174" fill="none" xmlns="http://www.w3.org/2000/svg">
<g clip-path="url(#clip0_6_1874)">
<path d="M78.8851 173.922C63.278 173.609 47.6664 173.416 32.0646 172.922C26.13 172.734 20.2255 171.539 14.2923 171.377C7.61205 171.195 2.2445 162.888 2.31342 157.285C2.40727 149.676 2.05483 142.058 1.84611 134.445C1.74438 130.745 1.42015 127.049 1.39061 123.353C1.13901 91.5952 0.910607 59.8369 0.70539 28.0793C0.684387 25.1645 0.524902 22.2495 0.524902 19.3354C0.532707 15.1685 1.60808 11.0731 3.64842 7.43992C5.45203 4.15823 8.24935 2.15551 11.9504 1.8431C16.5297 1.45651 21.1392 1.37778 25.7335 1.21304C28.0858 1.12903 30.4519 1.27878 32.7944 1.09895C51.987 -0.371248 71.1862 0.57416 90.3835 0.895763C93.2924 0.944332 96.2006 1.25544 99.1069 1.22393C101.03 1.22402 102.874 1.98499 104.237 3.34101C114.224 12.2077 124.213 21.0701 134.206 29.9285C135.045 30.6734 135.775 31.5428 136.634 32.2622C138.77 34.0546 139.592 36.3685 139.672 39.0877C139.803 43.5685 140.131 48.0445 140.207 52.5253C140.494 69.6919 140.697 86.8591 140.965 104.026C141.153 116.027 141.491 128.025 141.573 140.026C141.617 146.411 141.121 152.8 141.12 159.187C141.12 167.245 134.805 172.732 126.73 172.963C119.66 173.166 112.582 173.05 105.509 173.154C96.6364 173.285 87.7653 173.494 78.8943 173.67L78.8851 173.922ZM39.4392 77.8633V69.4228C38.4481 69.2988 37.6756 69.2108 36.9064 69.1038C36.1243 69.0225 35.347 68.9004 34.5777 68.7383C32.591 68.2467 31.5992 67.0108 31.6596 65.2028C31.7187 63.4175 32.7911 62.2313 34.8186 61.8736C36.231 61.6249 37.6684 61.514 39.2206 61.3262V53.8726C37.8974 53.6915 36.7922 53.5679 35.7013 53.3855C33.3385 52.9917 32.0764 51.8555 32.0337 50.1346C31.9917 48.4747 33.2689 47.1155 35.5123 46.601C36.6891 46.3293 37.9073 46.2363 39.241 46.0434C39.3998 43.29 39.938 40.6841 39.0638 37.8494C37.3487 37.8494 35.7821 37.8957 34.2187 37.8347C33.0668 37.7894 32.1538 37.0746 32.2168 35.9739C32.2982 35.0093 32.7369 34.1099 33.4468 33.4518C34.1635 32.8558 35.2938 32.7197 36.2691 32.4775C37.3192 32.215 38.3936 32.0658 39.3709 31.8834V23.5272C37.4584 23.3349 35.7801 23.2437 34.1294 22.9792C32.3776 22.6983 31.3367 21.5791 31.3629 20.1148C31.339 19.4305 31.5589 18.7598 31.9835 18.2227C32.4082 17.6856 33.0098 17.3164 33.6811 17.1818C34.7745 16.9612 35.8786 16.7983 36.9891 16.694C37.7235 16.5844 38.4527 16.4467 39.2758 16.3056C39.2758 14.8781 39.3191 13.6524 39.2633 12.4336C39.2088 11.2384 39.0533 10.0484 38.9115 8.52505C34.7857 8.52505 30.9239 8.91878 27.1827 8.41734C23.1988 7.88308 19.3526 8.51041 15.4474 8.66924C14.3666 8.63767 13.3108 8.99715 12.4735 9.68132C11.6363 10.3655 11.074 11.3285 10.8898 12.3938C9.73392 16.7316 9.32509 21.2346 9.68082 25.7097C9.91579 28.1611 10.137 30.6239 10.1619 33.0839C10.2328 40.0411 10.1757 46.9981 10.2105 53.9553C10.3479 81.2212 10.4881 108.487 10.6312 135.752C10.6529 141.247 10.3897 146.741 10.3765 152.236C10.3246 154.138 10.5259 156.04 10.9751 157.89C11.7909 160.88 14.0297 163.817 17.7912 163.852C20.706 163.88 23.6168 164.246 26.5316 164.275C43.4888 164.461 60.4466 164.699 77.4037 164.707C91.4421 164.714 105.481 164.423 119.519 164.274C121.427 164.254 123.342 164.397 125.244 164.286C129.848 164.018 132.262 161.541 132.181 156.982C132.086 151.607 131.689 146.238 131.598 140.863C131.473 133.459 131.649 126.048 131.449 118.647C131.137 107.104 130.446 95.5687 130.237 84.0244C130.024 72.2457 130.198 60.4616 130.202 48.6777C130.202 47.4878 130.202 46.2981 130.202 45.2441C122.672 45.2441 115.604 45.3245 108.542 45.2005C106.083 45.1409 103.638 44.8184 101.247 44.2384C97.9071 43.4508 96.2157 41.0715 95.9374 37.6795C95.4058 31.2054 94.901 24.7288 94.334 18.2573C94.0826 15.3858 93.7065 12.5255 93.3698 9.50568C77.4766 8.85262 61.9227 8.46434 46.1306 8.67436L47.0081 15.9082C48.6286 16.0244 49.9872 16.0065 51.2999 16.2421C53.3083 16.6025 54.5737 17.943 54.6308 19.511C54.6885 21.0987 53.5229 22.4784 51.546 22.9811C50.2648 23.3093 48.943 23.4773 47.3257 23.774L47.8751 30.9328C49.98 30.9328 51.6569 30.8409 53.3188 30.961C53.933 31.0433 54.5033 31.3251 54.9421 31.7629C55.3808 32.2007 55.6637 32.7704 55.7473 33.3845C55.831 33.9986 55.7107 34.6227 55.405 35.1619C55.0993 35.701 54.6251 36.1252 54.0552 36.3688C53.2209 36.6901 52.3581 36.9316 51.4784 37.0905C50.3961 37.3176 49.2961 37.463 48.1567 37.6513V45.6934C49.7667 45.6161 51.3798 45.6271 52.9886 45.7267C55.2326 45.984 56.6385 47.4473 56.7842 49.3494C56.9293 51.2351 55.9966 52.6435 53.9278 53.4002C53.0764 53.664 52.1971 53.8265 51.3077 53.8854C50.3324 53.997 49.3466 54.0172 48.2472 54.0828V60.8994C50.3948 61.3018 52.35 61.4116 54.0795 62.0935C54.6129 62.3422 55.0833 62.7081 55.4556 63.1639C55.8279 63.6197 56.0924 64.1535 56.2296 64.7259C56.3366 65.6968 55.4985 67.0095 54.6951 67.7728C53.9397 68.4902 52.7156 68.7816 51.6471 69.0855C50.5031 69.4097 49.3 69.5292 48.1173 69.7418V77.2956C49.9198 77.5621 51.7073 77.9224 53.4723 78.3746C54.1928 78.5485 54.8359 78.9548 55.3025 79.5304C55.7691 80.1067 56.0333 80.8195 56.0544 81.5605C56.1443 83.3982 55.1742 84.5468 53.5682 85.1493C52.5038 85.4926 51.417 85.7624 50.3154 85.9553C49.5934 86.1168 48.8544 86.231 47.963 86.3964C47.963 87.371 47.9361 88.1442 47.9703 88.9141C48.0037 89.6676 48.1015 90.4178 48.1862 91.378C49.8205 91.378 51.2592 91.3045 52.6867 91.3957C54.9905 91.5427 56.3084 92.648 56.5105 94.4437C56.7199 96.2966 55.4427 97.8797 53.1396 98.3818C51.5224 98.7368 49.8579 98.8885 48.1573 99.1405C47.9138 100.476 47.7451 101.687 47.4669 102.872C46.9634 105.017 46.082 105.879 44.4772 105.928C42.7629 105.981 41.655 104.96 41.1588 102.77C40.8674 101.481 40.6724 100.17 40.4145 98.7605C39.0638 98.6627 37.9519 98.6115 36.846 98.4986C34.5731 98.261 33.3366 97.2515 33.3018 95.6494C33.2663 94.1635 34.281 93.1586 36.3741 92.6644C37.5397 92.3894 38.7172 92.1675 40.0017 91.8978L39.7102 85.8785C38.3372 85.7833 37.2391 85.7072 36.1404 85.6298C33.0931 85.4145 31.3492 84.0972 31.2967 81.9759C31.2474 79.8757 32.8804 78.5387 36.0144 78.1652C37.0993 78.0248 38.1987 77.9664 39.4385 77.8633H39.4392ZM125.505 35.5727L102.467 14.6411C103.659 22.4292 104.748 29.5594 105.863 36.8533L125.505 35.5727Z" fill="black"/>
</g>
<defs>
<clipPath id="clip0_6_1874">
<rect width="141.769" height="173.93" fill="white"/>
</clipPath>
</defs>
</svg>
