<svg width="142" height="174" viewBox="0 0 142 174" fill="none" xmlns="http://www.w3.org/2000/svg">
<g clip-path="url(#clip0_6_1797)">
<path d="M140.543 92.1814C140.723 108.686 140.963 125.189 141.05 141.694C141.081 147.527 140.623 153.361 140.591 159.196C140.545 167.565 134.079 172.665 126.461 172.83C110.86 173.168 95.2521 173.529 79.6496 173.451C61.5709 173.362 43.4927 172.885 25.4185 172.406C21.0446 172.213 16.6875 171.741 12.3737 170.992C7.41183 170.22 2.53924 164.289 2.27408 158.889C2.01154 153.512 1.79885 148.13 1.72862 142.748C1.40308 117.706 1.11026 92.6631 0.850355 67.6212C0.690208 52.9098 0.628586 38.1972 0.402806 23.4867C0.337172 19.317 0.0358881 15.1339 1.72333 11.2189C2.6282 8.93711 3.85622 6.79745 5.36988 4.86508C7.23324 2.64535 9.98271 1.80385 12.9224 1.72312C18.9824 1.55641 25.0529 1.51713 31.0985 1.11742C52.4334 -0.291741 73.7649 0.80924 95.0992 0.968074C99.6364 1.00155 103.087 2.48308 106.434 5.66435C113.266 12.1568 120.599 18.1202 127.682 24.3495C130.379 26.7208 132.881 29.317 135.618 31.6352C138.143 33.7755 139.124 36.4681 139.219 39.6382C139.386 45.2492 139.652 50.8619 139.731 56.4703C139.898 68.3734 139.97 80.2793 140.082 92.1833L140.543 92.1814ZM93.2411 9.35113C91.2576 9.19558 89.5997 8.97682 87.9379 8.9486C73.7938 8.71146 59.6494 8.49618 45.5044 8.30191C39.1104 8.2133 32.7156 8.17399 26.3209 8.13461C23.0714 8.11426 19.8152 8.01207 16.5742 8.1814C12.054 8.41703 10.6574 9.72327 9.84422 14.1647C9.03384 18.3584 8.84238 22.6486 9.2759 26.8979C9.54335 29.3525 9.6779 31.8196 9.67889 34.2888C9.74715 73.9188 9.79847 113.548 9.83299 153.178C9.81186 153.964 9.84225 154.75 9.9237 155.532C10.603 160.639 13.2971 164.049 19.0979 164.278C40.7629 165.131 62.4268 165.14 84.0976 164.773C94.9869 164.589 105.878 164.497 116.768 164.373C119.458 164.342 122.155 164.442 124.84 164.314C129.531 164.09 131.882 161.741 131.84 157.154C131.756 148.179 131.543 139.207 131.365 130.234C131.273 125.633 131.177 121.031 131.021 116.432C130.651 105.551 130.065 94.6741 129.905 83.7907C129.722 71.5566 129.909 59.3171 129.923 47.0803C129.923 46.3295 129.828 45.578 129.775 44.8094C129.394 44.7207 129.006 44.6607 128.616 44.6305C121.769 44.7684 114.924 44.9834 108.077 45.0241C105.946 45.04 103.822 44.7951 101.75 44.294C97.527 43.2531 96.1979 41.6209 95.7516 37.2891C95.3492 33.3839 95.088 29.4637 94.7375 25.5526C94.265 20.3117 93.7694 15.0704 93.2411 9.35303V9.35113ZM124.638 35.736L124.793 35.0284L102.556 14.8499L102.045 15.178C103.136 22.3433 104.227 29.5084 105.352 36.8949L124.638 35.736Z" fill="black"/>
<path d="M21.7987 38.9358C21.7987 35.6876 21.7115 32.4376 21.8204 29.1927C21.9648 24.9133 23.2158 23.6594 27.5253 23.3811C33.5544 22.9919 39.5895 22.6822 45.6219 22.3409C48.3358 22.188 50.3074 23.5222 50.9158 26.4449C51.4685 29.4136 51.8557 32.4105 52.0757 35.4221C52.4481 38.6483 52.6452 41.8927 52.6663 45.1403C52.5735 47.3568 52.1854 49.5506 51.5124 51.6645C50.8416 53.9493 48.9528 55.058 46.6464 55.1282C40.7131 55.31 34.7733 55.5417 28.8419 55.4334C23.2946 55.3316 22.2385 54.13 21.844 48.6732C21.7226 46.9982 21.634 45.3187 21.5881 43.6398C21.5454 42.0731 21.5789 40.5044 21.5789 38.9371L21.7987 38.9358ZM29.4779 47.0458C32.0692 47.8938 38.6352 47.6568 42.736 46.5817V29.6105C39.1917 28.8229 30.7558 28.8886 28.2361 29.7471L29.4779 47.0458Z" fill="black"/>
<path d="M68.6177 78.6089C81.959 78.878 95.3017 79.1221 108.642 79.4543C110.091 79.5094 111.518 79.8323 112.85 80.4066C113.484 80.6665 114.021 81.1194 114.383 81.7009C114.745 82.2831 114.915 82.9637 114.869 83.6476C114.881 84.3341 114.669 85.0049 114.265 85.5595C113.861 86.1148 113.287 86.523 112.631 86.7225C110.806 87.2122 108.925 87.4576 107.035 87.4517C96.6078 87.2174 86.1859 86.7475 75.7586 86.5722C66.2279 86.4114 56.692 86.5434 47.1587 86.5066C41.3271 86.4836 35.4942 86.4364 29.6653 86.2841C28.1047 86.1699 26.5593 85.9015 25.0519 85.4814C24.4917 85.3738 23.99 85.0653 23.6409 84.6144C23.2918 84.1635 23.1193 83.6003 23.1557 83.0313C23.1042 82.4629 23.2585 81.8952 23.5903 81.4305C23.9221 80.9665 24.4094 80.637 24.9639 80.5011C26.0347 80.188 27.1405 80.0095 28.2555 79.9695C41.7069 79.6072 55.1595 79.2679 68.6131 78.9515C68.6144 78.8366 68.6157 78.7231 68.6177 78.6089Z" fill="black"/>
<path d="M22.729 99.0951C23.5238 96.5978 25.4339 96.2912 27.3727 96.1626C31.5168 95.8883 35.6641 95.5463 39.8141 95.4853C62.0487 95.1584 84.2844 94.8801 106.521 94.6517C108.088 94.6104 109.654 94.7679 111.181 95.1203C111.994 95.2838 112.727 95.7176 113.263 96.351C113.798 96.9843 114.104 97.7798 114.129 98.6088C114.156 99.4377 113.9 100.251 113.405 100.916C112.911 101.582 112.206 102.06 111.405 102.274C110.019 102.704 108.583 102.943 107.133 102.986C101.855 103.019 96.5756 102.941 91.2973 102.855C71.8697 102.528 52.4421 102.183 33.0145 101.818C30.5533 101.769 28.0921 101.445 25.642 101.151C24.1225 100.964 24.1323 100.879 22.729 99.0951Z" fill="black"/>
<path d="M74.8536 72.8778C65.3092 72.8778 55.7634 72.7846 46.2209 72.9192C41.8503 72.9802 37.4915 73.5145 33.1196 73.7842C30.9924 73.9155 28.8534 74.0212 26.7275 73.9811C24.6725 73.9398 23.5207 73.0918 23.3907 71.8152C23.2594 70.4914 24.1784 69.4655 26.2616 69.1859C31.9323 68.4259 37.605 67.5339 43.3066 67.1848C63.4877 65.9489 83.6978 65.6745 103.914 65.8334C105.709 65.8117 107.505 65.9174 109.286 66.1504C111.281 66.4536 112.317 67.6599 112.286 69.2056C112.255 70.7513 111.198 71.9018 109.196 72.1362C106.744 72.4289 104.278 72.5858 101.809 72.6068C92.8235 72.6599 83.8382 72.6278 74.853 72.6278L74.8536 72.8778Z" fill="black"/>
<path d="M99.2134 136.218C96.185 136.218 93.1567 136.264 90.1296 136.206C87.3212 136.153 85.937 135.175 85.9153 133.389C85.8936 131.604 87.2404 130.657 90.0535 130.473C95.6481 130.107 101.242 129.716 106.84 129.405C108.291 129.317 109.748 129.383 111.186 129.602C111.868 129.67 112.504 129.978 112.979 130.473C113.455 130.967 113.739 131.614 113.781 132.299C113.949 133.916 113.357 135.286 111.85 135.87C110.494 136.386 109.066 136.683 107.618 136.75C104.822 136.881 102.015 136.789 99.2127 136.789C99.2127 136.6 99.2134 136.409 99.2134 136.218Z" fill="black"/>
</g>
<defs>
<clipPath id="clip0_6_1797">
<rect width="141.113" height="173.93" fill="white"/>
</clipPath>
</defs>
</svg>
