<svg width="142" height="174" viewBox="0 0 142 174" fill="none" xmlns="http://www.w3.org/2000/svg">
<g clip-path="url(#clip0_6_1819)">
<path d="M140.507 91.908C140.687 108.412 140.928 124.917 141.016 141.422C141.047 147.254 140.584 153.089 140.557 158.923C140.519 167.302 134.095 172.43 126.464 172.594C109.74 172.955 93.0096 173.322 76.2834 173.251C59.3283 173.181 42.373 172.666 25.4224 172.176C21.0491 171.973 16.6922 171.503 12.3764 170.767C7.41057 170.007 2.51901 164.097 2.24007 158.695C1.97753 153.543 1.76412 148.385 1.69718 143.227C1.37032 117.961 1.07588 92.6943 0.81378 67.4273C0.654292 52.7163 0.599839 38.0031 0.361588 23.2932C0.292673 19.0054 0.0235565 14.7106 1.77073 10.7023C2.70396 8.43157 3.97688 6.31619 5.54595 4.42803C7.36731 2.35006 10.0275 1.56732 12.8445 1.49053C19.0141 1.32316 25.2001 1.28731 31.3578 0.878412C52.5812 -0.532712 73.7999 0.588569 95.0225 0.730992C99.5637 0.761184 103.017 2.21771 106.369 5.40292C113.2 11.8947 120.53 17.8614 127.616 24.0874C130.23 26.3846 132.639 28.919 135.318 31.1321C138.288 33.5855 139.157 36.7274 139.211 40.376C139.443 55.8708 139.745 71.3647 140.013 86.8588C140.041 88.5417 140.016 90.2258 140.016 91.9093L140.507 91.908ZM93.1999 9.11403C91.1547 8.95651 89.487 8.74163 87.8179 8.71406C73.6732 8.47909 59.5283 8.26519 45.3837 8.07315C38.9897 7.9852 32.595 7.94208 26.1996 7.90007C22.9507 7.87973 19.6934 7.77661 16.4537 7.95645C11.9795 8.2052 10.6077 9.53711 9.79583 14.0199C8.98243 18.2136 8.80115 22.5051 9.25822 26.7525C9.48971 28.6473 9.61284 30.5539 9.62708 32.4627C9.75573 70.6342 9.8673 108.805 9.96182 146.975C9.96904 149.666 9.68878 152.379 9.90668 155.049C10.3241 160.177 13.13 163.824 19.1499 164.059C40.7027 164.896 62.2542 164.903 83.813 164.548C94.8145 164.367 105.817 164.269 116.82 164.142C119.511 164.111 122.207 164.214 124.892 164.082C129.543 163.852 131.85 161.488 131.807 156.836C131.722 147.862 131.51 138.89 131.33 129.918C131.238 125.316 131.138 120.715 130.981 116.115C130.614 105.347 130.028 94.582 129.869 83.8108C129.687 71.4644 129.874 59.1127 129.885 46.7631C129.862 46.1173 129.803 45.4731 129.708 44.8338C122.399 44.8338 115.344 44.8838 108.291 44.8031C106.161 44.8039 104.037 44.5763 101.956 44.1243C97.5396 43.1017 96.156 41.4454 95.7025 36.9738C95.3087 33.0679 95.0462 29.1484 94.695 25.2372C94.2244 19.999 93.725 14.7631 93.1999 9.11403ZM124.573 35.5086C124.639 35.2766 124.705 35.0448 124.77 34.8125L102.508 14.609L101.999 14.9205C103.09 22.0857 104.18 29.2509 105.308 36.6603L124.573 35.5086Z" fill="black"/>
<path d="M103.751 100.987L101.585 99.4068C100.974 99.7554 100.123 99.9903 99.6636 100.548C97.944 102.465 96.3911 104.526 95.0219 106.707C92.2227 111.625 90.9677 117.27 91.4199 122.91C91.8203 128.512 97.05 132.099 102.498 130.779C106.201 129.881 107.622 126.984 106.579 121.817C105.004 121.135 103.137 120.424 101.36 119.537C98.6193 118.17 98.0404 115.136 100.104 113.157C100.567 112.669 101.165 112.33 101.821 112.184C105.821 111.69 109.828 111.032 113.843 110.96C116.846 110.907 118.569 113.566 117.491 115.998C116.981 116.848 116.292 117.578 115.473 118.135C114.946 118.491 114.381 118.785 113.786 119.009C113.983 120.937 114.407 122.714 114.301 124.457C113.715 134.069 107.986 138.716 98.8077 138.246C94.8749 138.1 91.1509 136.438 88.4159 133.608C85.6809 130.778 84.1471 127 84.1359 123.065C84.109 113.174 87.1944 104.293 94.4404 97.1937C96.5112 95.1636 98.9035 93.7558 101.923 93.9185C103.568 94.0078 104.988 94.6057 105.609 96.347C106.215 98.0732 105.787 99.229 103.751 100.987Z" fill="black"/>
<path d="M63.796 124.923C63.796 128.034 63.9221 130.716 63.7455 133.378C63.6162 134.817 63.2296 136.222 62.6041 137.524C61.9327 138.978 60.5444 139.528 58.9423 139.316C57.4623 139.119 56.3636 138.304 56.1582 136.813C55.8911 135.063 55.801 133.29 55.8892 131.523C56.3427 124.706 56.9577 117.9 57.4197 111.083C57.551 109.101 57.7268 107.093 56.5618 105.204C56.1641 104.559 56.3052 103.441 56.4929 102.605C56.8828 100.87 57.469 99.1779 58.0163 97.3277C63.9536 94.6485 69.8835 93.9016 75.7538 97.7727C81.9089 101.831 83.8826 109.496 79.9399 115.726C78.1731 118.302 76.036 120.603 73.5984 122.556C71.0544 124.736 67.8489 125.459 63.796 124.923ZM64.1464 117.454C68.9942 116.904 72.2595 114.528 74.2711 110.483C75.2885 108.438 74.8874 106.312 73.6437 104.427C71.6189 101.358 66.9077 99.9635 63.2564 101.329C63.5498 106.614 63.8427 111.915 64.1485 117.454H64.1464Z" fill="black"/>
<path d="M43.3335 103.993C43.7752 107.123 44.2524 110.097 44.6062 113.089C45.3281 119.205 46.224 125.31 44.9265 131.483C44.0686 135.567 42.4278 139.022 38.1557 140.309C33.5456 141.696 29.2696 140.968 25.7391 137.436C23.5894 135.431 22.1442 132.786 21.6186 129.893C21.272 127.742 21.8733 126.258 23.3251 125.582C24.8498 124.872 26.1533 125.293 27.6812 127.079C28.6277 128.185 29.5229 129.338 30.4037 130.498C31.8746 132.435 33.7241 133.032 36.0935 132.181C37.5518 130.635 37.9109 128.588 37.9739 126.613C38.1373 121.473 38.0974 116.325 38.0646 111.182C38.0495 108.852 37.8591 106.522 37.7364 103.925C36.7066 103.925 35.85 103.929 34.9928 103.925C31.9697 103.909 28.9348 104.042 25.9255 103.825C23.2496 103.632 22.3301 102.725 22.3937 101.088C22.4594 99.4397 23.5496 98.7047 26.087 98.5517C28.2101 98.4231 30.3322 98.2747 32.4535 98.1067C36.3613 97.8035 40.264 97.4589 44.177 97.1885C45.1833 97.1445 46.1914 97.1852 47.1908 97.3112C47.8178 97.3237 48.4171 97.5725 48.8685 98.0076C49.3198 98.4428 49.5898 99.0328 49.6245 99.659C49.7366 100.277 49.6276 100.915 49.3167 101.46C49.0057 102.005 48.5127 102.423 47.924 102.641C46.418 103.17 44.8858 103.622 43.3335 103.993Z" fill="black"/>
</g>
<defs>
<clipPath id="clip0_6_1819">
<rect width="141.113" height="173.273" fill="white"/>
</clipPath>
</defs>
</svg>
