<svg width="142" height="174" viewBox="0 0 142 174" fill="none" xmlns="http://www.w3.org/2000/svg">
<g clip-path="url(#clip0_6_1771)">
<path d="M140.597 92.319C140.777 108.824 141.017 125.328 141.103 141.833C141.133 147.666 140.679 153.5 140.644 159.335C140.591 167.688 134.105 172.776 126.484 172.937C110.994 173.265 95.4995 173.629 80.0093 173.551C61.8183 173.459 43.6277 172.983 25.4413 172.512C21.1814 172.297 16.937 171.843 12.7281 171.152C7.59361 170.434 2.52272 164.553 2.33632 158.962C1.86442 144.827 1.33142 130.69 1.17587 116.55C0.833263 85.4393 0.765719 54.3288 0.434928 23.2223C0.38439 18.4448 0.493902 13.8135 2.46948 9.39048C3.94493 6.08316 6.0472 3.39199 9.71548 2.39699C11.0137 2.05699 12.3458 1.86334 13.687 1.81949C19.4076 1.59108 25.1388 1.57234 30.8523 1.23301C50.6139 0.0581675 70.3729 0.488131 90.1346 1.14841C92.8256 1.23833 95.5231 1.38564 98.2115 1.30031C99.2774 1.27 100.338 1.4539 101.331 1.84128C102.325 2.22866 103.23 2.81136 103.994 3.55519C114.147 12.5811 124.241 21.6782 134.514 30.5676C138.064 33.6406 139.282 37.2119 139.33 41.7991C139.504 58.6413 139.968 75.4813 140.323 92.3223L140.597 92.319ZM93.2949 9.46031C91.3193 9.30476 89.6607 9.08475 87.9989 9.05653C73.8554 8.81894 59.7114 8.60254 45.566 8.40787C39.172 8.31992 32.7766 8.28127 26.3819 8.24189C23.1331 8.2222 19.8762 8.12 16.6358 8.28803C12.1117 8.52299 10.7125 9.82688 9.89926 14.2604C9.08757 18.454 8.89545 22.7443 9.32897 26.9937C9.59616 29.4483 9.73051 31.9153 9.73183 34.3845C9.80009 74.0144 9.85154 113.645 9.88613 153.274C9.86539 154.06 9.89545 154.846 9.97605 155.628C10.6495 160.731 13.3444 164.153 19.1431 164.382C40.8075 165.236 62.4719 165.244 84.1429 164.877C95.0315 164.693 105.923 164.6 116.813 164.476C119.392 164.447 121.976 164.548 124.55 164.431C129.712 164.197 131.944 161.984 131.901 156.928C131.821 148.068 131.6 139.207 131.421 130.347C131.328 125.745 131.233 121.143 131.077 116.544C130.707 105.663 130.124 94.7862 129.957 83.9028C129.771 71.7809 129.957 59.6538 129.967 47.5286C129.967 46.6655 129.88 45.8027 129.832 44.9179C129.452 44.8269 129.066 44.7655 128.677 44.7346C121.83 44.8718 114.985 45.0875 108.138 45.1282C106.007 45.1444 103.883 44.9002 101.812 44.4001C97.584 43.3611 96.2523 41.7294 95.8054 37.4008C95.4024 33.4956 95.1411 29.5754 94.7906 25.6643C94.3187 20.4248 93.8232 15.1829 93.2949 9.46031ZM124.701 35.8388C124.747 35.6021 124.793 35.3652 124.84 35.128L102.612 14.9597L102.1 15.2943C103.19 22.4595 104.282 29.6248 105.406 37.0034L124.701 35.8388Z" fill="black"/>
</g>
<defs>
<clipPath id="clip0_6_1771">
<rect width="141.113" height="173.93" fill="white"/>
</clipPath>
</defs>
</svg>
