<svg width="149" height="144" viewBox="0 0 149 144" fill="none" xmlns="http://www.w3.org/2000/svg">
<g clip-path="url(#clip0_8_2370)">
<path d="M144.119 2.66593C143.433 2.47473 142.729 2.35489 142.018 2.30804C128.53 1.61528 115.043 0.932719 103.91 0.369692L98.9649 0.120114C98.946 0.118816 98.9278 0.118816 98.9089 0.120114C94.5528 0.262816 90.5981 0.375749 86.9121 0.482128C79.5565 0.692939 73.2035 0.874956 66.8934 1.19539C52.3409 1.94198 37.5489 2.79171 23.2462 3.6142C18.021 3.91431 12.7959 4.21353 7.57073 4.51148C6.6492 4.54758 5.73125 4.64908 4.82421 4.81553C3.99315 4.94128 3.20084 5.25145 2.50594 5.72294C1.81103 6.19444 1.2313 6.81534 0.809087 7.54001C0.45971 8.26254 0.277743 9.05409 0.276617 9.8562C0.27549 10.6583 0.455069 11.4505 0.802412 12.174C1.58608 13.9391 2.54995 15.6191 3.67889 17.1874C18.1074 38.1537 33.7155 58.2887 50.4279 77.4954C51.2407 78.4872 51.7592 79.6859 51.9246 80.9559C52.4269 85.0807 52.7514 89.212 53.0839 94.1449C53.6868 103.101 54.2742 112.059 54.8459 121.017C55.14 125.554 55.4344 130.091 55.7294 134.628L55.7789 135.435C55.844 136.494 55.9058 137.59 56.0782 138.667C56.4153 140.778 57.3632 142.299 58.8194 143.063C59.4964 143.414 60.2497 143.594 61.0128 143.587C62.0928 143.56 63.1534 143.294 64.1177 142.808C64.9271 142.424 65.73 142.024 66.533 141.625C67.9872 140.9 69.4902 140.151 71.0017 139.523C76.7274 137.148 82.5696 134.774 88.218 132.479C90.7048 131.467 93.1909 130.456 95.6771 129.443C99.3709 127.936 100.269 126.577 100.251 122.519C100.239 120.036 100.234 117.553 100.236 115.069C100.236 110.309 100.23 105.388 100.153 100.546L100.126 98.8003C100.031 92.5966 99.9304 86.1808 99.4541 79.8902C99.2323 76.9655 99.7665 74.9605 101.298 72.9614C103.152 70.5445 104.962 68.0368 106.713 65.6115C108.092 63.6999 109.518 61.7242 110.954 59.8094C116.249 52.7469 121.556 45.6937 126.875 38.6498C130.58 33.7313 134.284 28.812 137.987 23.8917C140.98 19.9084 144.168 15.6541 147.314 11.3179C148.588 9.55873 148.97 7.70165 148.391 6.08844C147.802 4.4519 146.284 3.23415 144.119 2.66593ZM89.4282 82.7851C89.6885 91.5951 89.8349 100.558 89.9734 109.227C90.0281 112.617 90.0847 116.007 90.1426 119.396C90.1543 120.041 90.1511 120.687 90.1478 121.45V122.321L65.6637 131.953L65.6598 131.93C65.5778 131.558 65.527 131.179 65.5075 130.798C65.3956 119.887 63.9959 109.06 62.6445 98.5888C61.9572 93.6701 61.5508 88.7164 61.4267 83.751C61.32 77.1263 59.3445 71.9021 55.2134 67.3103C48.2072 59.5221 42.2369 52.4563 36.9621 45.7038C31.3131 38.4746 25.7668 30.9659 20.4034 23.7043C18.2055 20.7291 16.0039 17.7573 13.7987 14.7891C13.7241 14.6823 13.6611 14.5681 13.6106 14.4481C15.0672 14.3715 16.508 14.297 17.9329 14.2244C21.7965 14.0266 25.4467 13.839 29.1561 13.6191C35.1239 13.265 41.0912 12.8973 47.0577 12.5163L54.4875 12.0508C70.9951 11.0227 90.6026 10.069 110.84 10.7727L134.71 11.6083L134.49 11.9697C134.099 12.6451 133.672 13.2992 133.211 13.9293C131.422 16.2691 129.621 18.5994 127.806 20.9203C124.488 25.1903 121.055 29.605 117.802 34.043C115.962 36.5555 114.108 39.0599 112.243 41.5564C105.66 50.4078 98.8529 59.5611 92.9834 69.1694C90.4439 73.2448 89.2037 77.9923 89.4269 82.7851H89.4282Z" fill="black"/>
</g>
<defs>
<clipPath id="clip0_8_2370">
<rect width="149" height="144" fill="white"/>
</clipPath>
</defs>
</svg>
