<svg width="131" height="155" viewBox="0 0 131 155" fill="none" xmlns="http://www.w3.org/2000/svg">
<path d="M99.1642 72.939C101.373 70.7482 103.168 68.7175 105.222 66.9946C107.71 64.869 110.342 62.9173 113.098 61.1531C116.646 58.9288 119.513 60.0459 120.553 64.1605C121.997 69.8706 123.153 75.6556 124.294 81.4366C126.428 92.2846 126.952 103.122 123.364 113.802C116.902 133.038 103.824 145.25 84.0986 150.032C76.6758 151.839 69.1628 153.253 61.5909 154.268C23.5738 159.312 2.65172 129.486 0.322373 106.133C-1.42414 88.6353 4.05561 73.239 13.6139 59.2925C19.8793 50.1503 27.7461 42.1089 34.8385 33.5273C39.1467 28.3146 43.5323 23.1499 47.5321 17.7056C50.6746 13.4276 52.1074 8.34029 53.0132 3.10731C53.2208 1.89103 53.8797 0.797902 54.8581 0.0461882C55.3176 -0.245226 56.7615 0.914488 57.7053 1.50388C59.2772 2.48445 60.8013 3.54245 62.3541 4.55386C79.9046 15.982 90.4658 32.3118 95.4992 52.3583C96.9832 58.2653 97.6927 64.3692 98.754 70.3826C98.8774 71.0875 98.9804 71.799 99.1642 72.939ZM57.8405 8.08168C56.1925 17.2763 51.7852 24.6371 46.2555 31.3817C40.9215 37.8906 35.4515 44.2873 30.0144 50.7109C21.3934 60.8953 14.5971 72.0234 10.6072 84.9178C1.7394 113.577 20.4522 149.411 58.168 146.975C68.3741 146.318 78.5394 146.241 88.12 141.451C103.524 133.749 113.948 122.337 117.58 105.236C120.212 92.8451 116.519 81.0829 114.19 68.6781C107.85 73.6663 103.076 79.1795 100.302 86.2903C99.7464 87.7126 99.2672 89.1736 98.5997 90.542C97.7557 92.2708 96.321 93.2592 94.3428 92.8549C92.1611 92.408 91.3584 90.7796 91.4332 88.7115C91.5119 86.5278 91.7463 84.3508 91.8658 82.1684C92.9211 62.8682 88.7291 44.8379 78.5217 28.356C73.4056 19.9956 66.3009 13.0306 57.8405 8.08168Z" fill="black"/>
<path d="M122.711 7.4531C123.488 9.78507 124.245 12.1236 125.045 14.4477C126.706 19.2705 128.918 23.9757 129.953 28.9278C132.08 39.1076 126.747 47.1084 116.76 49.7403C113.386 50.6284 111.036 49.3596 109.765 46.1429C109.211 44.7528 108.503 43.4289 107.655 42.1957C102.219 34.2737 100.925 26.0643 105.431 17.2175C108.363 11.4634 112.669 6.84736 117.189 2.40855C118.022 1.5914 119.923 1.05646 120.926 1.44239C121.954 1.83619 122.645 3.45468 123.177 4.67088C123.498 5.40401 123.236 6.39252 123.236 7.2661L122.711 7.4531ZM116.336 12.4413C108.835 19.806 104.416 31.3937 114.251 41.9515C120.385 40.1105 122.757 36.542 122.233 30.3297C121.689 23.8865 118.785 18.2729 116.336 12.4426V12.4413Z" fill="black"/>
<path d="M69.1931 94.3423C70.8622 90.3885 72.398 86.7997 73.8911 83.1925C74.684 81.2767 75.7066 79.6411 78.0523 79.5826C80.2045 79.5315 81.4128 80.9235 82.3441 82.6267C86.907 90.9707 91.2808 99.4171 93.2426 108.819C96.5433 124.632 86.7534 139.624 71.0978 143.4C60.3384 145.994 50.1698 144.269 40.6076 139.348C29.6848 133.728 24.8168 123.845 24.1138 112.054C22.7703 89.49 37.6895 66.679 58.796 58.2667C60.4165 57.6209 61.9668 56.6968 63.6437 56.3286C65.0037 56.0299 66.9989 55.8285 67.8161 56.5701C68.3314 57.1514 68.7184 57.8347 68.9519 58.5755C69.1855 59.3163 69.2603 60.098 69.1714 60.8697C68.7691 63.6519 67.6723 66.3285 66.9399 69.0694C64.3427 78.8331 64.9558 86.2477 69.1931 94.3423ZM59.839 64.7487C59.297 64.9523 58.7655 65.1829 58.2467 65.4398C41.6538 74.4763 33.4975 89.1678 31.7306 107.296C30.1974 123 40.093 135.004 55.5997 138.078C56.3396 138.269 57.1135 138.289 57.8621 138.135C62.7721 136.704 67.7629 135.465 72.5266 133.64C81.6753 130.134 86.7691 120.994 85.3751 111.341C84.3138 104.008 81.2848 97.3726 78.0983 90.7935C78.0326 90.6622 77.7379 90.6478 76.9352 90.3525C75.824 94.1251 74.598 97.8203 73.668 101.588C72.8627 104.853 69.7713 106.21 67.039 104.222C66.4214 103.77 65.8865 103.215 65.4579 102.581C61.2573 96.3061 58.1981 89.5018 58.225 81.8778C58.2447 76.2674 59.245 70.6629 59.839 64.75V64.7487Z" fill="black"/>
</svg>
