<svg width="163" height="132" viewBox="0 0 163 132" fill="none" xmlns="http://www.w3.org/2000/svg">
<g clip-path="url(#clip0_6_2218)">
<path d="M160.215 77.8102C158.527 65.6423 156.781 53.0602 157.06 40.431C157.157 36.0644 155.294 32.2818 151.524 29.1879C147.159 25.5628 141.649 23.602 135.975 23.6537C131.435 23.6392 126.831 23.7561 122.375 23.8663C120.055 23.9241 117.734 23.9819 115.417 24.0226C113.916 24.0495 112.416 24.0423 110.827 24.0351L109.371 24.0298L109.183 22.7322C108.533 18.0952 107.517 12.6731 104.908 7.61732C102.242 2.45393 98.016 -0.100453 92.3715 0.0249071C90.4222 0.0686627 88.4715 0.108812 86.5209 0.145567C79.4935 0.285367 72.2272 0.429742 65.0838 0.782194C62.2072 1.00934 59.3556 1.48578 56.5612 2.20592C55.9351 2.34834 55.3097 2.49068 54.6855 2.62654C53.0023 2.95328 51.4499 3.76089 50.216 4.95145C48.982 6.14201 48.1196 7.66451 47.7329 9.33496C47.0506 11.9908 46.6207 14.7053 46.4491 17.442C46.3001 19.6237 46.3335 21.7602 46.3677 24.0226C46.3782 24.6979 46.3887 25.3778 46.3946 26.0644L42.1613 26.4818C38.1819 26.8756 34.2753 27.2602 30.3688 27.6435C24.4434 28.2244 18.3165 28.8249 12.2979 30.7473C5.51331 32.9132 1.88239 37.5642 1.19718 44.9631C1.03309 46.7352 0.983268 48.5367 0.934699 50.2793L0.913066 51.0531C0.879593 52.18 0.830243 53.3077 0.781674 54.4353C0.659595 57.207 0.533623 60.0732 0.663579 62.902C1.10004 72.4111 1.63168 82.0724 2.14691 91.416C2.37663 95.5831 2.60377 99.7509 2.82824 103.918C2.91291 105.505 2.96939 107.094 3.02517 108.684C3.14003 111.878 3.25879 115.181 3.60796 118.422C4.32993 125.133 7.80393 128.862 14.5393 130.155C17.1438 130.654 19.7898 130.905 22.4416 130.904H22.7586C44.3554 130.741 66.6857 130.518 89.1285 130.239C102.064 130.079 115.439 129.911 128.891 129.5C134.921 129.315 141.025 128.617 146.412 128C152.193 127.339 156.368 124.217 158.484 118.971C159.45 116.734 160.128 114.384 160.501 111.977C161.899 100.624 161.803 89.1379 160.215 77.8102ZM125.872 30.4802C129.472 30.3045 133.08 30.3565 136.673 30.6358C139.136 30.8839 141.697 32.0206 143.876 33.0996C147.06 34.6749 148.434 37.1034 148.618 41.476C148.992 50.305 149.852 59.6302 151.407 71.7121L151.633 73.4547C152.856 82.9106 154.122 92.6893 153.559 102.381C153.423 105.697 153.058 109.001 152.466 112.267C151.257 118.277 149.315 120.056 143.445 120.546C131.959 121.503 122.362 122.092 113.254 122.399C103.007 122.744 92.5789 122.931 82.4943 123.111C77.4825 123.201 72.4707 123.296 67.4582 123.398C61.5951 123.525 55.7306 123.667 49.8648 123.823L42.853 123.999L42.8498 123.823H41.8836C40.1521 123.823 38.4203 123.826 36.688 123.832C32.429 123.842 28.0243 123.853 23.6964 123.798C21.3842 123.765 19.0765 123.581 16.7885 123.244C12.5525 122.626 11.375 121.367 11.0619 117.123C10.8887 114.769 10.7725 112.364 10.6602 110.038C10.5703 108.176 10.4772 106.251 10.3551 104.356C10.1582 101.284 9.9304 98.2144 9.70331 95.144C9.27603 89.3637 8.83425 83.3864 8.60322 77.5076C8.13262 65.5149 8.00214 56.2953 8.18198 47.6139C8.24105 44.7739 9.20849 39.7688 15.0263 38.1496C19.0606 36.9408 23.1718 36.0052 27.332 35.3496C42.3089 33.2856 57.395 32.1111 72.5107 31.8317C83.2221 31.6485 94.1042 31.3433 104.635 31.0473C111.099 30.8661 117.563 30.6933 124.028 30.5288C124.641 30.5143 125.256 30.4981 125.872 30.4802ZM99.0629 9.90203C101.279 14.5233 101.743 19.4092 101.825 24.058H97.3944C97.3511 23.7574 97.3052 23.4546 97.2579 23.1496C97.061 21.8271 96.8543 20.4586 96.6062 19.0954C95.264 11.7123 91.2531 8.03154 83.9828 7.51237C77.7253 7.0788 71.4382 7.51776 65.3018 8.81658C59.9284 9.94155 57.7262 12.408 57.1762 17.9173C56.9938 19.7491 56.8776 21.5875 56.7542 23.5348C56.7148 24.164 56.6735 24.8084 56.6302 25.4677H52.9677L52.9593 25.3253C52.6462 20.1402 52.3508 15.24 54.5647 10.5643C55.0518 9.66792 55.8538 8.98388 56.8159 8.64449C59.7325 7.72601 62.7437 7.14082 65.7918 6.89995C73.1834 6.57965 80.7143 6.4582 87.997 6.34072C89.7822 6.31184 91.5675 6.28209 93.3521 6.25146C96.0581 6.20618 97.846 7.36398 99.0629 9.90203ZM64.6008 17.1508C64.6912 16.674 64.9354 16.24 65.2958 15.9151C65.6566 15.5903 66.1134 15.3922 66.5964 15.3516L67.8645 15.1665C70.6867 14.753 73.6107 14.3258 76.4809 14.1164C77.6032 14.0337 78.7682 13.9925 79.9923 13.9925C81.3791 13.9925 82.8421 14.0456 84.4022 14.1512C87.5717 14.3665 88.6684 15.3832 89.2939 18.6846L89.3248 18.8446C89.4232 19.2831 89.4843 19.729 89.5079 20.1777C89.5295 21.3591 89.5256 22.5405 89.5217 23.846V24.5876L63.5414 25.3056C63.4951 22.5502 63.852 19.8029 64.6008 17.1508Z" fill="black"/>
<path d="M98.3765 48.8603C87.9657 45.047 79.2318 43.8786 70.8937 45.1847C63.2081 46.3878 56.9362 49.9282 52.2539 55.7059C46.8932 62.2834 43.9045 70.475 43.77 78.9595C43.4852 89.1695 47.9896 96.8513 57.1593 101.79C62.6259 104.735 68.458 105.453 75.5366 105.623H75.5904L75.6436 105.619C76.1988 105.572 76.8119 105.533 77.4649 105.493C79.0861 105.39 80.9238 105.275 82.7655 104.983C91.8479 103.539 98.9514 100.153 104.482 94.623C115.698 83.4095 113.262 64.7838 107.29 56.1956C104.729 52.5195 101.814 50.1198 98.3765 48.8603ZM61.9985 95.9475C54.5451 92.78 50.6945 86.592 51.1572 78.5237C51.4317 73.1693 52.9678 67.9566 55.6405 63.3095C57.2211 60.4753 59.3629 57.9932 61.935 56.0146C64.5072 54.0361 67.4558 52.6026 70.6003 51.802C71.9228 51.4405 73.286 51.2521 74.6564 51.2415C75.3627 51.2377 76.0669 51.3014 76.7607 51.4318C82.3533 52.5207 87.8469 54.0157 92.008 55.1965C98.1894 56.9502 102.173 61.309 103.847 68.1509C106.96 80.8767 101.85 91.0932 90.1788 95.4808C87.2673 96.485 84.2797 97.2549 81.2448 97.7833C79.8435 98.0294 78.4271 98.1797 77.0048 98.2342C76.3485 98.2749 75.6954 98.3149 75.0437 98.3727C70.572 98.5065 66.1234 97.6796 61.9985 95.9475Z" fill="black"/>
<path d="M79.3224 90.1112C81.1602 89.9419 82.3416 88.5321 82.3317 86.5191C82.3252 84.747 82.2385 82.9585 82.1545 81.2277C82.1092 80.3016 82.0646 79.3762 82.0311 78.4501C82.0095 77.8325 82.0147 77.1984 82.0206 76.5277V76.4122C82.335 76.3872 82.6415 76.3642 82.9395 76.3413C84.1721 76.2468 85.3358 76.1582 86.4837 76.0328C86.8841 75.9888 87.2884 75.9534 87.6934 75.9173C89.1485 75.847 90.5885 75.6003 91.9838 75.1835C93.2676 74.7444 94.1832 73.0064 94.3499 71.9202C94.4129 71.5605 94.3985 71.1916 94.3066 70.8385C94.2147 70.4848 94.0487 70.1553 93.8183 69.8717C93.5019 69.5134 93.1154 69.2239 92.6815 69.0224C92.2483 68.821 91.7778 68.7113 91.2993 68.7002C90.0181 68.647 88.735 68.6969 87.461 68.8492C85.832 69.0224 84.2089 69.2338 82.4906 69.4576C82.0705 69.5127 81.6432 69.5685 81.2087 69.6243C81.1989 69.5094 81.1884 69.3959 81.1785 69.2843C81.0998 68.393 81.0263 67.5516 80.9035 66.7207C80.5321 64.2036 80.1107 61.6557 79.7031 59.1918L79.6874 59.096C79.243 56.4089 77.761 55.9581 76.5993 56.0526C74.1708 56.2495 74.1203 58.4639 74.0967 59.5311L74.0888 59.8338C74.0809 60.3007 74.1026 60.7676 74.1544 61.2317C74.1754 61.4633 74.1971 61.6957 74.2089 61.9281C74.3264 64.2909 74.4412 66.6485 74.5581 69.0579L74.6237 70.4362L74.4183 70.4762C73.821 70.5944 73.3498 70.6869 72.8798 70.7512C71.6328 70.9212 70.3779 71.0794 69.1262 71.2428C66.8599 71.5336 64.517 71.8335 62.2152 72.1899C59.0038 72.6868 58.2214 73.6385 58.2305 77.0416V77.8791L59.0575 78.0103C62.2815 78.5249 65.3644 78.156 68.6287 77.7662C70.7244 77.4767 72.8339 77.3067 74.9486 77.2575C74.9486 77.3737 74.944 77.4885 74.9414 77.6021C74.9066 78.5052 74.9223 79.4096 74.9873 80.3115C75.1461 82.5581 75.4198 84.7956 75.8071 87.0146C76.1858 88.9837 77.3613 90.1263 78.9838 90.1263C79.0986 90.1263 79.2095 90.1217 79.3224 90.1112Z" fill="black"/>
</g>
<defs>
<clipPath id="clip0_6_2218">
<rect width="162.115" height="131.268" fill="white"/>
</clipPath>
</defs>
</svg>
