<svg width="177" height="142" viewBox="0 0 177 142" fill="none" xmlns="http://www.w3.org/2000/svg">
<g clip-path="url(#clip0_6_2215)">
<path d="M175.763 76.9036C175.841 63.2931 175.415 51.3891 174.464 40.5123C173.133 25.2853 164.649 16.8966 149.93 16.2475C143.68 15.9712 137.316 16.1818 131.162 16.3787C128.365 16.4706 125.473 16.5651 122.63 16.6124C121.717 16.6274 120.805 16.6215 120.022 16.6183H119.587C119.266 15.6994 118.958 14.8067 118.655 13.9272C117.89 11.7081 117.167 9.6131 116.364 7.53513C114.526 2.77997 111.109 0.446677 106.203 0.562193C101.592 0.682302 96.9016 0.768421 92.365 0.850463C85.4288 0.97648 78.2537 1.10636 71.2027 1.36627C64.5855 1.60977 63.1855 3.42461 61.8098 9.54038L60.0379 17.4256H57.8641C56.0742 17.4256 54.413 17.4204 52.7544 17.4302C50.7416 17.4416 48.7259 17.4454 46.707 17.4419C41.8416 17.4419 36.8093 17.442 31.8606 17.6093C25.8183 17.8315 19.8713 19.1839 14.3272 21.5966C6.52664 24.9439 2.62728 30.4434 2.4061 38.4021C2.25711 43.8011 2.04712 49.2914 1.84366 54.6005C1.66842 59.2185 1.48584 63.9935 1.34276 68.6928C1.26596 71.2158 1.2621 73.7808 1.2575 76.2617C1.24963 80.6224 1.24159 85.1308 0.840566 89.5151C-0.174789 100.607 0.00463749 109.514 1.40461 117.534C2.67003 124.78 6.06456 130.635 11.224 134.468C15.9205 138.056 21.6228 140.083 27.5306 140.265C30.6167 140.352 33.7033 140.448 36.7898 140.55C44.4571 140.796 52.3863 141.05 60.1901 141.111C76.7297 141.242 92.2344 141.308 107.123 141.308C113.944 141.308 120.637 141.294 127.237 141.267C134.69 141.237 142.736 140.894 151.834 140.217C163.32 139.364 171.127 133.063 174.401 121.991C175.516 118.284 176.111 114.441 176.168 110.57C176.2 104.942 176.08 99.2224 175.964 93.6914C175.852 88.1867 175.732 82.4956 175.763 76.9036ZM109.585 17.1951H68.175C69.8316 9.93208 69.9412 9.92748 77.5364 9.64723C83.0706 9.44245 88.7085 9.39139 94.1607 9.34282C97.6321 9.31131 101.222 9.27712 104.755 9.20689C106.62 9.17145 107.398 9.76937 107.777 11.5881C108.122 13.0559 108.571 14.4974 109.121 15.9015C109.272 16.3163 109.428 16.7462 109.585 17.1951ZM166.328 110.894C166.379 115.064 165.401 119.183 163.481 122.885C161.731 126.298 159.149 128.325 155.761 128.907C152.072 129.644 148.33 130.083 144.57 130.22C131.237 130.319 117.68 130.304 104.568 130.291C99.8315 130.286 95.0954 130.283 90.3586 130.281C85.5194 130.278 80.6861 130.28 75.8601 130.287C64.1643 130.295 52.071 130.305 40.1795 130.24C35.7151 130.207 31.2556 129.938 26.8197 129.433C18.5801 128.506 12.7278 122.767 11.165 114.081C9.42772 104.432 9.62711 94.5348 9.81876 84.9648C9.85224 83.2944 9.88453 81.6253 9.90947 79.9569C10.0525 69.9149 10.4572 59.703 10.8478 49.831C10.9467 47.3207 11.0451 44.8109 11.1427 42.302C11.5056 32.7444 13.2561 30.5116 22.1587 28.2473C27.6418 26.8317 33.2729 26.0704 38.9351 25.9796C50.6835 25.8391 62.6289 25.8569 74.1844 25.8759C83.6035 25.889 93.3443 25.9061 102.927 25.8352C108.369 25.7952 113.894 25.5464 119.237 25.3101C123.491 25.1191 127.889 24.9216 132.213 24.831C138.138 24.7063 144.266 24.5769 150.273 25.2018C159.08 26.1154 163.137 30.2083 164.271 39.3262C164.965 44.3048 165.399 49.3162 165.571 54.3399C165.833 67.8337 165.988 81.5564 166.139 94.8275C166.199 100.178 166.262 105.533 166.328 110.891V110.894Z" fill="black"/>
<path d="M120.137 64.6858L119.69 64.6944C119.047 64.7062 118.403 64.718 117.759 64.7501L110.24 65.1334C105.685 65.3671 101.132 65.5965 96.5781 65.8216C95.8023 65.859 95.02 65.8504 94.1149 65.8412C93.8523 65.838 93.5819 65.8347 93.2984 65.8327L93.2045 62.0578C93.1212 58.7663 93.0411 55.585 92.9729 52.4044C92.9578 51.7054 92.9729 50.9795 92.9952 50.2779C93.0923 48.7091 93.0175 47.1342 92.7714 45.5818C92.5633 44.8122 92.1846 44.0993 91.6641 43.4953C91.1443 42.8913 90.4952 42.4114 89.7647 42.0913C89.3709 41.9391 88.9488 41.8738 88.5275 41.8997C88.1055 41.9255 87.6946 42.0418 87.3224 42.241C86.8394 42.532 86.4219 42.9205 86.0971 43.3816C85.7722 43.8426 85.5471 44.3661 85.4355 44.9189C84.9964 46.592 84.747 48.3093 84.6925 50.0383C84.6269 53.8832 84.6387 57.7549 84.6492 61.8524C84.6531 63.2793 84.6577 64.7402 84.659 66.2449L60.238 65.4905C59.9551 65.482 59.6663 65.4537 59.3769 65.4248C58.5911 65.2935 57.787 65.3259 57.0143 65.52C56.1283 65.8084 54.7786 66.7089 54.5508 67.807C54.4948 68.4042 54.5822 69.0068 54.8056 69.564C55.029 70.1212 55.3819 70.6174 55.8353 71.0106C56.8618 71.7161 58.0605 72.129 59.3035 72.2064C62.6692 72.6002 66.0637 72.9028 69.3893 73.1154C73.0766 73.3504 76.8007 73.5381 80.4014 73.7193C81.7035 73.7849 82.9972 73.8499 84.2823 73.9155L84.2856 79.8888C84.2902 84.9531 84.2941 89.8868 84.2731 94.8205C84.2606 97.755 84.7102 101.159 88.3227 101.446C88.4645 101.457 88.6036 101.461 88.7414 101.461C89.768 101.483 90.7663 101.123 91.5434 100.453C92.7333 99.4077 93.4008 97.6506 93.5242 95.2294C93.7493 90.8175 93.8123 86.3288 93.872 81.9878C93.8963 80.2334 93.9206 78.479 93.956 76.7246C93.9705 75.9876 93.9672 75.2498 93.9633 74.4485V73.8847L94.5448 73.8505C95.3278 73.8046 96.0675 73.7613 96.7888 73.758C98.6325 73.7481 100.477 73.7521 102.321 73.758C106.144 73.7672 110.093 73.7718 113.981 73.6556C116.488 73.5447 118.976 73.1627 121.401 72.5169C123.815 71.917 125.051 70.0805 124.625 67.7256C124.058 64.6084 121.114 64.6726 120.137 64.6858Z" fill="black"/>
</g>
<defs>
<clipPath id="clip0_6_2215">
<rect width="176.555" height="141.769" fill="white"/>
</clipPath>
</defs>
</svg>
