<svg width="158" height="155" viewBox="0 0 158 155" fill="none" xmlns="http://www.w3.org/2000/svg">
<g clip-path="url(#clip0_8_2374)">
<path d="M59.0938 94.7658L11.1087 96.4275C11.1087 97.2523 11.1191 98.4251 11.1087 99.5973C10.9455 115.173 10.7985 130.75 10.5846 146.327C10.5381 148.083 10.3047 149.831 9.88818 151.54C9.67947 152.408 9.19155 153.187 8.49824 153.756C7.80492 154.325 6.94386 154.654 6.04536 154.694C5.14684 154.733 4.25973 154.481 3.51812 153.976C2.7765 153.471 2.22075 152.739 1.9349 151.892C1.38953 150.337 1.0745 148.712 0.999836 147.067C0.79112 138.564 0.555149 130.057 0.614968 121.553C0.782719 97.911 1.03843 74.2696 1.38216 50.6293C1.59023 37.8199 2.15207 25.0148 2.62607 12.2098C2.71509 10.0028 2.99374 7.80762 3.45899 5.64776C4.10919 2.60459 5.42973 1.56735 8.5364 1.42462C11.6431 1.28189 14.7621 1.21529 17.8766 1.17202C37.8965 0.896467 57.917 0.629284 77.938 0.370089C78.7183 0.358895 79.4966 0.341622 80.2736 0.318372C85.5786 0.158205 87.4655 1.33209 88.2217 7.67484C88.5728 10.6192 88.7418 13.5843 89.0149 16.7644C89.7555 16.8771 90.5032 16.9417 91.2523 16.958C106.254 16.3389 121.256 15.706 136.257 15.0594C140.702 14.8656 145.143 14.5725 149.586 14.4239C153.798 14.2831 155.391 15.8907 155.568 20.0428C156.103 32.3976 156.933 44.7451 157.175 57.1044C157.421 69.7985 157.098 82.5027 157.051 95.2024C157.056 96.0652 157.175 96.9242 157.406 97.7566C158.357 101.28 157.024 103.591 153.355 104.272C151.16 104.634 148.946 104.86 146.723 104.947C132.07 105.807 117.422 106.772 102.759 107.424C90.6528 107.963 78.5303 108.577 66.4125 107.52C66.3013 107.51 66.1914 107.493 66.0802 107.487C60.4586 107.192 59.2005 105.892 59.0991 100.225C59.0672 98.4813 59.0938 96.7369 59.0938 94.7658ZM148.662 23.4249L65.1439 26.4526C65.3175 29.9356 65.4339 33.3436 65.6673 36.7439C66.3696 46.9868 67.2928 57.217 67.7961 67.4709C68.2701 77.1739 68.3163 86.8969 68.5529 96.6109C68.5816 97.7831 68.6492 98.9547 68.7135 100.486C95.3681 99.8717 121.563 97.508 148.035 95.6293C148.246 71.4738 148.452 47.6624 148.662 23.4249ZM11.2367 8.27365C11.2367 9.63701 11.225 10.9462 11.2367 12.2553C11.3498 23.0769 11.5787 33.8991 11.5547 44.7207C11.5248 58.4123 11.2842 72.1087 11.1567 85.8029C11.189 86.5476 11.2723 87.2896 11.4064 88.0239L59.0789 85.3922C58.8657 78.837 58.7661 72.6621 58.4423 66.4996C57.7414 53.1551 57.2069 39.8175 57.8617 26.4481C57.9026 24.6284 58.3664 22.8424 59.2168 21.23C60.0672 19.6177 61.2813 18.2226 62.7642 17.1532C65.1387 15.33 67.5471 13.5508 69.9132 11.7172C70.8352 11.0029 71.683 10.1937 72.8716 9.16103L11.2367 8.27365ZM81.849 10.9481L74.9568 17.3456H81.535C81.6728 16.7414 81.7729 16.1293 81.8347 15.5128C81.8731 14.2082 81.8477 12.9056 81.8477 10.9481H81.849Z" fill="black"/>
</g>
<defs>
<clipPath id="clip0_8_2374">
<rect width="158" height="155" fill="white"/>
</clipPath>
</defs>
</svg>
