<svg width="155" height="153" viewBox="0 0 155 153" fill="none" xmlns="http://www.w3.org/2000/svg">
<g clip-path="url(#clip0_8_2372)">
<path d="M11.2836 95.1263C11.2836 96.6945 11.2836 97.9957 11.2836 99.2962C11.3169 114.808 11.345 130.32 11.3679 145.833C11.3824 146.936 11.2571 148.038 10.9949 149.111C10.3762 151.485 8.88856 152.694 6.8314 152.701C4.77425 152.707 3.18595 151.469 2.63405 149.159C2.33703 147.754 2.18494 146.323 2.18011 144.888C1.26567 111.545 1.16705 78.1984 1.4323 44.8448C1.53282 32.2229 0.93032 19.5959 0.608644 6.97208C0.526928 3.77205 1.6768 2.1805 5.08355 1.4732C11.8287 0.0364486 18.7886 -0.0776449 25.5773 1.13733C34.639 2.70302 43.4626 5.42344 51.8326 9.23168C61.4062 13.657 71.268 17.1649 81.7762 18.835C97.8554 21.3919 113.593 19.9721 129.211 15.7445C134.765 14.2411 140.412 13.0617 146.045 11.8714C147.345 11.6788 148.67 11.7255 149.954 12.0094C150.847 12.1312 151.67 12.5624 152.277 13.2278C152.886 13.8933 153.24 14.7508 153.281 15.6511C153.584 18.1749 153.917 20.711 153.965 23.2471C154.205 35.7633 154.582 48.2833 154.474 60.7982C154.367 73.1999 153.795 85.6007 153.306 97.9976C153.129 102.529 150.937 105.849 146.359 107.021C139.606 108.75 132.837 110.435 126.022 111.899C111.021 115.118 96.0129 113.969 81.0388 111.602C69.2945 109.746 57.973 106.351 46.8447 102.202C36.7425 98.4359 26.351 95.7875 15.5308 95.1353C14.2357 95.0588 12.9348 95.1263 11.2836 95.1263ZM146.086 22.5393C145.699 22.5577 145.314 22.5995 144.932 22.6644C141.318 23.7146 137.713 24.7927 134.094 25.8274C113.873 31.6109 93.5426 32.6763 73.0022 27.4795C64.352 25.2908 56.2479 21.7742 48.2741 17.9265C39.9747 13.9664 31.1519 11.2119 22.0733 9.74572C18.155 9.12588 14.1698 9.05068 10.231 9.52258C10.231 13.9311 10.135 18.0103 10.2492 22.081C10.5533 32.9297 11.0748 43.7737 11.2667 54.6257C11.4334 64.0391 11.2667 73.458 11.2485 82.8746C11.2485 84.0532 11.2485 85.2312 11.2485 86.6348C12.7674 86.6348 13.853 86.6017 14.9361 86.6413C17.8156 86.7469 20.7133 86.7119 23.5688 87.0393C33.3014 88.1557 42.6059 90.9577 51.8203 94.207C78.5893 103.648 105.801 107.266 133.759 99.9192C137.472 98.9435 141.172 97.9166 144.883 96.9117C146.315 71.9254 145.125 47.3551 146.084 22.5393H146.086Z" fill="black"/>
</g>
<defs>
<clipPath id="clip0_8_2372">
<rect width="155" height="153" fill="white"/>
</clipPath>
</defs>
</svg>
