<svg width="154" height="74" viewBox="0 0 154 74" fill="none" xmlns="http://www.w3.org/2000/svg">
<path d="M126.739 1.32562C125.179 0.255129 123.086 0.0963096 120.843 0.880633C119.541 1.35674 118.286 1.95149 117.093 2.65736L114.238 4.28443C108.938 7.30358 103.458 10.4251 98.129 13.6044C95.4019 15.2266 92.7942 17.0416 90.3264 19.0356C89.2198 20.0559 87.7673 20.6189 86.2624 20.6108H86.2236C76.3412 20.5629 66.294 20.5681 56.58 20.5734L46.4834 20.5774V20.7959L36.3206 20.9829C26.7902 21.158 17.2591 21.3376 7.72735 21.5218C3.97832 21.5966 1.8774 23.2769 1.11539 26.8113C0.573489 29.1496 0.262399 31.5352 0.18665 33.9344C0.0671967 40.7215 0.121034 47.6913 0.172228 53.8398C0.205702 58.0365 1.95297 60.0574 6.01373 60.6002C9.26705 61.0706 12.5492 61.3129 15.8363 61.3254C21.0267 61.2696 26.2998 61.1002 31.3989 60.9375C34.0715 60.8515 36.7434 60.7662 39.416 60.696L43.4964 60.5883C58.0527 60.2043 73.1054 59.8065 87.9104 59.4895C89.4758 59.4205 91.0379 59.686 92.493 60.268C97.8441 62.6525 103.253 65.1545 108.485 67.574C111.403 68.9235 114.323 70.269 117.245 71.6105C118.403 72.1244 119.604 72.5327 120.835 72.832C121.512 73.019 122.21 73.1208 122.912 73.1339C124.782 73.1339 125.943 72.1776 126.719 70.1147C127.537 67.8451 128.002 65.4623 128.097 63.0509L128.145 62.1596C128.697 51.6359 129.268 40.7531 129.511 30.037C129.691 22.0875 129.434 14.1229 129.183 6.42073C129.116 4.16686 128.249 2.36263 126.739 1.32562ZM121.095 10.8247L118.811 61.095L96.4126 51.8937L94.6707 25.2018L121.095 10.8247ZM11.3378 53.5759L7.70313 53.3312C6.65956 48.3798 6.7521 33.7401 7.86 28.6266L12.5462 28.414L11.3378 53.5759ZM86.9541 26.3814V51.2408L21.7434 53.5596C21.0567 48.4856 20.6658 43.3759 20.5725 38.2565C20.4498 35.0404 20.3238 31.7213 20.0475 28.3792C30.9151 27.5916 41.8918 27.526 52.5126 27.4604C63.7924 27.3915 75.4485 27.3218 86.9515 26.3846L86.9541 26.3814Z" fill="black"/>
<path d="M148.502 28.9619C144.723 29.2986 140.991 29.953 138.162 30.4853C137.329 30.6059 136.569 31.0284 136.027 31.6725C135.485 32.3166 135.198 33.1374 135.221 33.979C135.234 35.7511 136.371 37.0092 138.264 37.3524C139.539 37.5572 140.825 37.6905 142.114 37.7516C142.728 37.7923 143.369 37.8351 144.045 37.8935L144.117 37.9L144.19 37.8895C144.662 37.8238 145.168 37.7739 145.695 37.7207C147.099 37.6185 148.491 37.3916 149.855 37.0427C152.183 36.3765 153.41 34.4298 152.909 32.1976C152.74 31.1909 152.185 30.2899 151.362 29.6857C150.539 29.0815 149.513 28.8219 148.502 28.9619Z" fill="black"/>
<path d="M135.965 13.8998C136.136 13.978 136.302 14.0656 136.462 14.1623L136.702 14.3185L136.979 14.2495C137.312 14.1669 137.612 14.1091 137.885 14.0526C138.416 13.9795 138.932 13.826 139.415 13.5972L139.974 13.2986C142.802 11.7851 145.725 10.221 148.516 8.52504C149.641 7.80418 150.582 6.83136 151.265 5.68368C151.594 5.20389 151.785 4.64294 151.818 4.06191C151.85 3.48088 151.722 2.90208 151.447 2.38886C151.142 1.91887 150.712 1.5433 150.205 1.30404C149.698 1.06478 149.135 0.971297 148.577 1.0342C147.144 1.14312 145.755 1.58325 144.52 2.31995C142.381 3.57684 140.303 4.99914 138.294 6.37352L136.837 7.36457C136.005 7.83286 135.288 8.48027 134.736 9.26007C134.457 9.75199 134.28 10.2954 134.216 10.8575C134.152 11.4196 134.202 11.989 134.362 12.5313C134.704 13.1739 135.277 13.6629 135.965 13.8998Z" fill="black"/>
<path d="M146.744 56.7888C144.518 55.6074 142.186 54.5573 139.931 53.5459L138.852 53.0602C138.007 52.6399 137.03 52.5709 136.134 52.8685C135.827 52.987 135.548 53.1668 135.313 53.397C135.078 53.6272 134.893 53.9031 134.768 54.2075C134.328 55.2334 134.157 57.2693 134.996 58.2683C137.681 61.4614 141.292 63.5964 146.36 64.9879L146.626 65.0607L146.865 64.9209C147.072 64.8002 147.334 64.6827 147.612 64.558C148.376 64.216 149.242 63.828 149.618 63.0647C150.129 62.029 149.873 60.4295 149.356 59.3853C148.762 58.2796 147.853 57.3757 146.744 56.7888Z" fill="black"/>
<path d="M54.1564 49.0127C55.3378 49.0448 56.5337 49.0368 57.6902 49.0303L58.5952 49.0252L58.6196 49.3105L59.2812 49.245C59.9946 49.1755 60.7086 49.1138 61.4234 49.0521C63.1213 48.905 64.8777 48.7534 66.5993 48.4954C66.9945 48.4625 67.3791 48.3485 67.7282 48.1605C68.0774 47.9725 68.3846 47.7144 68.6294 47.4026C68.8749 47.0907 69.0534 46.7317 69.1538 46.3479C69.2542 45.9641 69.2739 45.5637 69.2129 45.1717C69.1879 44.776 69.0836 44.3892 68.9051 44.035C68.7272 43.6807 68.4784 43.3663 68.1759 43.1106C67.8726 42.8549 67.5208 42.663 67.1415 42.5468C66.7621 42.4307 66.3637 42.3927 65.9693 42.4349C62.3174 42.6318 57.9942 42.9133 53.6118 43.4777C52.9785 43.6586 52.4057 44.0069 51.9538 44.4861C51.5019 44.9652 51.1876 45.5574 51.0441 46.2001C50.9986 46.5194 51.0216 46.8448 51.1114 47.1545C51.2013 47.4643 51.3559 47.7513 51.5652 47.9966C51.9042 48.3348 52.3094 48.5996 52.7551 48.7744C53.201 48.9492 53.6779 49.0303 54.1564 49.0127Z" fill="black"/>
<path d="M75.8071 47.9277H75.815C76.9715 47.9277 79.3769 47.9244 79.7386 45.2537C79.7937 44.896 79.7707 44.5305 79.6697 44.1827C79.5692 43.8349 79.394 43.5133 79.1564 43.2402C78.7232 42.8103 78.2047 42.4762 77.6337 42.2595C77.0633 42.0429 76.4536 41.9486 75.8439 41.9826C74.2805 41.9629 73.1181 42.3068 72.4152 43.0124C72.1723 43.2598 71.9833 43.5546 71.8592 43.8783C71.7345 44.202 71.6781 44.5477 71.6932 44.894C71.7286 46.7377 73.3426 47.9277 75.8071 47.9277Z" fill="black"/>
</svg>
