<svg width="161" height="155" viewBox="0 0 161 155" fill="none" xmlns="http://www.w3.org/2000/svg">
<g clip-path="url(#clip0_6_2222)">
<path d="M72.8626 154.081C65.679 154.081 58.4943 154.012 51.3114 154.098C41.0974 154.219 30.8848 154.509 20.6709 154.609C17.3236 154.642 13.9697 154.313 10.6197 154.136C10.1711 154.109 9.72554 154.043 9.28849 153.938C1.20239 152.059 -1.44527 146.719 2.31424 139.35C4.12056 135.865 6.18267 132.517 8.48375 129.335C21.6013 110.97 35.2026 92.9736 49.9965 75.9089C50.5872 75.2302 51.104 74.4885 51.721 73.8388C52.4937 73.0505 53.0841 72.1028 53.4512 71.0618C53.8183 70.0209 53.9529 68.9117 53.8454 67.8136C53.6295 62.7778 54.0527 57.7182 54.1242 52.6677C54.306 39.7582 54.4158 26.8474 54.6107 13.9372C54.6547 11.025 54.9474 8.116 55.0898 5.2045C55.2067 2.82002 56.5732 1.52247 58.7535 0.998711C60.0466 0.63191 61.3786 0.419615 62.7217 0.366089C72.8291 0.404813 82.9368 0.426402 93.0365 0.656122C98.7099 0.787389 100.103 2.15452 100.563 7.86994C101.15 15.1402 101.579 22.4274 101.91 29.7148C102.471 42.0487 102.946 54.3864 103.335 66.7274C103.401 68.8106 104.55 70.0025 105.752 71.3165C112.872 79.1052 120.15 86.7581 127.083 94.7084C137.488 106.637 147.501 118.9 156.421 132.001C157.787 134.043 158.815 136.291 159.464 138.66C160.884 143.793 159.125 147.897 154.202 149.982C150.855 151.4 147.138 152.07 143.521 152.696C133.625 154.412 123.625 154.171 113.626 154.08C100.04 153.957 86.4508 154.049 72.8633 154.049L72.8626 154.081ZM10.8146 143.678C13.8729 145.091 17.2391 145.707 20.5994 145.468C30.1281 145.114 39.6724 145.202 49.211 145.098C56.9557 145.014 64.6967 144.818 72.4386 144.835C78.1606 144.848 83.8806 145.211 89.6025 145.263C99.1437 145.349 108.69 145.159 118.227 145.372C127.427 145.602 136.631 145.121 145.756 143.933C152.723 143.01 153.611 141.523 149.546 135.848C143.868 127.919 137.835 120.246 131.996 112.431C130.414 110.314 128.896 108.323 125.756 108.973C125.062 109.117 124.237 108.666 123.481 108.457C119.914 107.473 116.318 106.573 112.79 105.46C106.394 103.443 100.175 103.96 94.0446 106.462C92.5705 107 91.1252 107.619 89.7174 108.312C82.4478 112.25 74.661 112.574 66.781 111.318C61.7064 110.453 56.6851 109.298 51.7418 107.86C43.6078 105.587 34.8246 108.421 29.9788 115.205C25.4153 121.594 20.8164 127.959 16.3704 134.429C14.4106 137.28 12.7889 140.365 10.8146 143.678ZM60.3511 7.50889C60.6038 13.3739 60.8367 18.8524 61.0776 24.3309C61.6532 37.4517 62.0298 50.5843 62.9021 63.6868C63.1329 66.4793 62.8077 69.2897 61.9452 71.9551C61.0826 74.6211 59.7001 77.0896 57.8773 79.2175C57.0969 80.1738 56.3677 81.1707 55.5971 82.1369C51.1248 87.7597 46.653 93.3819 42.1817 99.0041C41.6841 99.6322 41.3167 100.363 40.7023 101.344C45.2556 100.441 49.9528 100.562 54.4531 101.701C58.7729 102.897 63.1631 103.823 67.5975 104.473C73.7625 105.304 79.9032 105.27 85.6468 102.143C87.9505 100.981 90.3278 99.9702 92.7628 99.1176C99.2093 96.6373 105.824 95.9469 112.584 97.5805C115.358 98.2513 118.097 99.0763 120.847 99.8311C117.037 94.7891 112.978 90.1547 108.842 85.5892C105.074 81.4319 101.377 77.1881 97.3388 73.3098C95.5627 71.6033 94.548 69.8962 94.4653 67.5432C94.252 61.4848 94.0059 55.4275 93.8582 49.3682C93.5747 37.4695 93.3666 25.5687 93.0929 13.6693C93.047 11.6753 92.8238 9.68537 92.6696 7.50633L60.3511 7.50889Z" fill="black"/>
</g>
<defs>
<clipPath id="clip0_6_2222">
<rect width="160.146" height="154.896" fill="white"/>
</clipPath>
</defs>
</svg>
