<svg width="157" height="156" viewBox="0 0 157 156" fill="none" xmlns="http://www.w3.org/2000/svg">
<g clip-path="url(#clip0_8_2376)">
<path d="M147.792 103.397C144.336 96.8778 140.762 90.1373 137.322 83.4702L135.919 80.7519C131.777 72.7374 127.495 64.4499 123.739 56.1039C118.241 43.8911 111.225 32.6208 105.728 24.1669C103.843 21.2672 101.771 20.2636 99.2065 21.0137C96.6419 21.7638 95.5598 23.5402 95.48 27.1445C95.4729 27.4695 95.4729 27.7945 95.4729 28.1592V65.8591C95.3204 65.891 95.1841 65.9748 95.0875 66.0964C94.9902 66.2186 94.9389 66.37 94.9422 66.526C95.0103 69.8248 95.0713 73.1229 95.1245 76.4216C95.2542 83.9915 95.3911 91.8195 95.661 99.5168C95.8076 103.681 96.0898 107.906 96.3629 111.992C96.6147 115.754 96.8748 119.645 97.0273 123.473C97.2219 128.306 98.7789 130.382 103.704 132.359C104.847 132.808 106.064 133.039 107.291 133.039C107.38 133.039 107.468 133.039 107.555 133.039C112.222 132.909 116.888 132.749 121.554 132.59C128.843 132.343 136.38 132.088 143.792 131.94C148.508 131.847 151.745 129.299 154.917 126.468C155.69 125.79 156.246 124.899 156.515 123.905C156.784 122.912 156.754 121.861 156.429 120.885C155.982 119.359 155.399 117.875 154.686 116.454C152.402 112.094 150.104 107.743 147.792 103.397ZM144.044 121.293L108.427 123.854C106.949 107.78 106.597 91.5172 106.257 75.7827C106.017 64.6677 105.769 53.2062 105.125 41.8715C105.197 42.0015 105.267 42.1368 105.333 42.272C106.026 43.6812 106.741 45.0812 107.457 46.4826C109.181 49.8626 110.963 53.3512 112.394 56.9002C117.389 69.2963 123.588 81.3298 129.583 92.9674C130.959 95.6376 132.33 98.3104 133.697 100.986C135.254 104.041 136.866 107.126 138.427 110.111C139.618 112.387 140.804 114.665 141.984 116.946C142.513 117.974 142.997 119.022 143.556 120.237C143.713 120.576 143.875 120.928 144.044 121.293Z" fill="black"/>
<path d="M6.56841 131.061C6.74033 131.066 6.91232 131.065 7.08748 131.065H7.25746L18.5135 131.074C25.9785 131.08 33.4435 131.085 40.9085 131.087C45.2358 131.087 49.563 131.084 53.8902 131.079C56.3554 131.093 58.8198 130.98 61.2732 130.74C64.6345 130.39 66.108 128.928 66.5284 125.523C66.5667 125.211 66.6108 124.898 66.6581 124.586C66.8112 123.664 66.8975 122.732 66.9176 121.797C66.9047 117.407 66.8768 113.017 66.8353 108.628C66.8054 104.906 66.7808 101.184 66.7606 97.4616C66.7405 92.8343 66.7451 88.2057 66.7503 83.5776L66.7542 77.4677C67.3147 61.6681 66.7775 46.0318 65.7979 27.4177C65.7129 25.8148 65.5974 23.6204 63.4374 22.57C61.5774 21.6652 59.5715 22.0825 57.7861 23.7465C56.083 25.2476 54.5612 26.9436 53.2519 28.7996C52.633 29.7374 52.0123 30.6744 51.3899 31.6109C47.8866 36.8921 44.264 42.3528 41.0929 47.959C32.563 63.039 24.0214 78.5493 15.7068 94.0563C11.6041 101.709 7.70964 109.631 3.94425 117.293C3.07059 119.069 2.19574 120.846 1.31991 122.623C-0.143691 125.587 0.30732 127.475 0.943108 128.538C1.87148 130.101 3.82029 130.975 6.56841 131.061ZM11.7891 121.018L57.4306 42.2813L55.4298 121.567C47.5869 121.912 39.8863 121.647 31.7456 121.366C26.3869 121.181 20.8872 120.991 15.3085 120.991C14.1394 120.991 12.9664 121 11.7891 121.018Z" fill="black"/>
<path d="M74.9149 99.3112C74.5224 114.532 74.1649 130.359 73.8516 146.354C73.8042 148.089 74.0293 149.821 74.5198 151.485C74.8306 152.601 75.4981 153.582 76.4213 154.28C77.3439 154.977 78.4701 155.351 79.6255 155.344C79.7105 155.347 79.7949 155.348 79.8786 155.348C80.9886 155.392 82.0837 155.075 82.9991 154.444C83.9151 153.814 84.6028 152.904 84.9603 151.849C85.4968 150.436 85.7991 148.945 85.8536 147.433L85.8621 147.108C86.0846 138.138 86.3162 128.858 86.3564 119.727C86.5361 80.6185 86.6432 42.2827 86.7236 9.94195C86.7359 7.89509 86.54 5.85222 86.1397 3.84497C85.9678 2.8047 85.4371 1.85784 84.6398 1.16975C83.8425 0.48166 82.8291 0.0960565 81.7768 0.0801731C80.731 0.0224377 79.6969 0.326771 78.8483 0.942188C77.9997 1.5576 77.3886 2.44663 77.1168 3.46014C76.7016 4.90459 76.4732 6.39632 76.4362 7.89899L76.3279 12.2709C76.1015 21.3377 75.8679 30.712 75.7868 39.9368C75.7096 48.7424 75.7284 57.3958 75.7466 65.7647C75.7544 69.1726 75.7615 72.4798 75.7615 75.6447C75.6558 78.5593 75.5487 81.2997 75.4469 83.9211C75.2393 89.2843 75.0427 94.3497 74.9149 99.3112Z" fill="black"/>
</g>
<defs>
<clipPath id="clip0_8_2376">
<rect width="157" height="156" fill="white"/>
</clipPath>
</defs>
</svg>
