<svg width="158" height="159" viewBox="0 0 158 159" fill="none" xmlns="http://www.w3.org/2000/svg">
<g clip-path="url(#clip0_8_2380)">
<path d="M85.9785 158.412C71.5186 158.165 57.0487 158.167 42.6032 157.584C32.8462 157.19 23.0711 156.501 13.4468 154.522C7.89986 153.381 4.49664 150.239 3.63967 144.648C3.11107 141.363 2.80528 138.045 2.72469 134.718C2.42299 116.176 2.40286 97.6297 1.95161 79.0923C1.61156 65.1133 0.732387 51.1482 0.16736 37.1744C-0.079068 31.0863 -0.10355 25.0638 1.39062 19.0029C3.51224 10.402 9.10274 5.78061 17.2381 3.78046C20.4903 3.03398 23.8107 2.62403 27.1471 2.55713C39.2663 2.14373 51.394 1.96337 63.5145 1.58761C72.5193 1.3079 81.5162 0.651702 90.5202 0.556949C97.7427 0.481667 104.972 0.981383 112.197 1.2598C114.88 1.37652 117.473 2.26253 119.666 3.81167C127.036 8.84519 133.558 14.8716 140.076 20.9207C144.307 24.8464 148.616 28.7084 153.134 32.2941C156.101 34.6492 157.599 37.434 157.555 41.1267C157.456 49.4538 157.402 57.7815 157.211 66.1069C156.894 79.982 156.333 93.8527 156.159 107.729C156.093 119.946 154.547 132.109 151.552 143.954C151.136 145.56 150.603 147.134 150.126 148.727C148.802 153.136 145.71 155.582 141.283 156.269C137.344 156.978 133.362 157.425 129.364 157.608C116.909 157.867 104.448 157.875 91.9897 157.974C89.9877 157.991 87.9851 157.974 85.9831 157.974C85.9818 158.124 85.9798 158.268 85.9785 158.412ZM26.5528 12.1316C23.3668 12.6242 20.6105 12.85 17.9636 13.5061C13.8855 14.5166 11.0623 16.8983 10.3894 21.3477C10.1007 22.9857 9.66556 24.5944 9.08896 26.1547C7.75408 30.0363 7.8022 34.0327 8.12665 38.0162C9.0636 49.5148 10.4673 60.9868 11.0291 72.5019C11.7573 87.4661 11.8746 102.461 12.1997 117.444C12.3596 124.769 12.362 132.098 12.5044 139.423C12.6215 145.452 13.0895 146.208 18.955 146.877C28.4481 147.959 37.9697 149.327 47.4952 149.459C71.293 149.79 95.1035 149.568 118.908 149.394C124.9 149.35 130.898 148.762 136.875 148.225C140.854 147.869 141.127 147.577 141.947 143.813C142.821 139.808 143.55 135.765 144.195 131.717C145.825 121.486 145.874 111.154 146.08 100.832C146.234 93.0635 146.47 85.2959 146.662 77.5276C146.925 66.7623 147.144 55.9967 147.462 45.2328C147.553 44.144 147.357 43.0502 146.895 42.06C146.433 41.0697 145.719 40.2172 144.825 39.5867C140.572 36.2042 136.6 32.47 132.515 28.8785C126.848 23.8924 121.131 18.9608 115.545 13.887C113.024 11.6 110.13 11.2502 106.645 11.2911C106.775 13.68 106.993 15.8678 106.984 18.0549C106.965 23.0423 107.119 28.0549 106.678 33.0112C106.076 39.7541 103.074 42.8756 96.5424 44.4773C95.5814 44.7483 94.6041 44.9558 93.6165 45.0984C86.2184 45.907 78.8315 46.902 71.4113 47.4056C61.6517 48.0682 51.8711 48.6424 42.0783 47.7365C34.9989 47.0816 31.2057 44.1159 29.1654 37.2497C27.4923 31.7205 26.6145 25.9823 26.5582 20.2068C26.5406 17.6836 26.5528 15.1604 26.5528 12.131V12.1316ZM95.9104 10.5616C90.7673 10.5616 86.0091 10.4508 81.2574 10.5845C70.3716 10.8908 59.4897 11.3424 48.6039 11.6812C44.494 11.811 40.3781 11.7739 36.2662 11.8531C35.3989 11.9177 34.5359 12.0314 33.6816 12.1933C34.1413 19.9843 35.1526 27.4195 37.3672 34.6621C38.4777 38.2964 39.1089 38.8092 43.0114 39.0571C44.4523 39.1493 45.9022 39.2141 47.3444 39.1693C55.8972 38.902 64.4652 38.8326 72.9946 38.2323C79.5181 37.7741 86.0065 36.715 92.4845 35.7525C95.571 35.2937 96.0203 34.7524 96.0912 31.603C96.2212 25.8368 96.1562 20.0666 96.1406 14.2978C96.138 13.203 96.0099 12.1095 95.9104 10.561V10.5616Z" fill="black"/>
<path d="M93.737 67.0347C99.5629 67.2105 110.345 67.5221 121.126 67.8783C122.459 67.9458 123.785 68.1178 125.092 68.3923C128.808 69.1062 131.387 71.1771 132.22 74.9542C132.864 77.8707 133.375 80.8268 133.753 83.79C135.002 93.6039 135.764 103.445 134.865 113.339C134.73 114.663 134.482 115.972 134.125 117.254C132.885 121.889 129.775 124.637 125.164 125.657C123.217 126.12 121.225 126.368 119.224 126.395C103.206 126.326 87.1849 126.318 71.1736 125.978C62.6204 125.796 54.0735 125.048 45.5376 124.436C43.2132 124.225 40.9098 123.825 38.6511 123.238C31.6939 121.559 28.4865 117.828 27.9916 110.656C27.8109 107.553 27.8109 104.442 27.9916 101.339C28.2985 94.9083 28.7291 88.4834 29.1504 82.0585C29.2452 80.9559 29.4268 79.863 29.694 78.789C30.8059 73.9028 33.8274 71.0538 38.8502 70.482C44.8172 69.8071 50.779 68.9693 56.7674 68.6182C67.4212 67.9965 78.0989 67.6843 93.737 67.0347ZM123.376 77.7571C118.765 77.4845 114.659 77.0023 110.558 77.0432C96.2136 77.1873 81.8597 77.2639 67.5298 77.8571C58.2139 78.2425 48.9296 79.4406 39.6401 80.3628C37.1088 80.6139 36.8983 80.9683 36.5465 83.4324C36.437 84.2015 36.3848 84.9777 36.3904 85.7545C36.4419 93.8511 36.505 101.948 36.5796 110.044C36.5702 111.043 36.6295 112.041 36.7571 113.032C36.8002 113.648 37.0383 114.235 37.4365 114.707C37.8346 115.181 38.3724 115.515 38.9731 115.663C39.9202 115.981 40.8935 116.216 41.8815 116.364C50.5202 117.048 59.155 118.043 67.8068 118.241C82.2615 118.571 96.728 118.416 111.189 118.381C114.412 118.347 117.631 118.149 120.834 117.788C124.739 117.381 125.425 116.717 125.526 112.776C125.755 103.789 125.916 94.7948 124.518 85.8622C124.111 83.2559 123.78 80.6386 123.376 77.7571Z" fill="black"/>
</g>
<defs>
<clipPath id="clip0_8_2380">
<rect width="158" height="159" fill="white"/>
</clipPath>
</defs>
</svg>
