<svg width="145" height="162" viewBox="0 0 145 162" fill="none" xmlns="http://www.w3.org/2000/svg">
<g clip-path="url(#clip0_6_2080)">
<path d="M2.65027 123.426L4.01358 125.312C8.47993 131.49 13.0992 137.88 17.8136 144.035C21.2594 148.532 24.9173 152.807 28.9971 157.53C31.3651 160.27 32.9758 160.651 35.8886 159.159C41.8506 156.188 47.2881 152.264 51.9871 147.542C53.4823 146.021 53.8247 144.406 53.0995 142.307C52.9104 141.79 52.6945 141.283 52.4525 140.79C52.3717 140.617 52.2884 140.439 52.2038 140.253C52.973 139.68 53.7474 139.121 54.518 138.565C56.3938 137.212 58.3331 135.813 60.0869 134.27C62.7528 132.005 65.1991 129.494 67.3926 126.769C68.7446 124.906 69.9418 122.935 70.9722 120.877C71.3542 120.166 71.7467 119.433 72.1576 118.701C74.3537 125.615 78.7761 131.424 86.0155 136.931C87.2297 137.854 88.4164 138.844 89.5597 139.801C90.0349 140.195 90.5068 140.589 90.9774 140.978C90.9544 141.1 90.9367 141.213 90.921 141.317C90.9072 141.505 90.8612 141.69 90.7851 141.862C89.1856 144.502 89.5381 146.902 91.8523 149.197C96.3469 153.643 101.426 157.456 106.948 160.532C107.771 161.019 108.706 161.287 109.663 161.308C110.389 161.284 111.102 161.107 111.755 160.789C112.408 160.471 112.987 160.019 113.453 159.461L114.337 158.519C115.943 156.812 117.602 155.046 119.114 153.202C127.002 143.583 133.943 135.031 140.335 127.059C141.501 125.517 142.501 123.858 143.32 122.108C144.221 120.307 143.82 118.792 142.129 117.605C140.411 116.401 138.727 115.081 137.098 113.804C136.372 113.235 135.646 112.667 134.915 112.107C134.162 111.528 133.416 110.943 132.669 110.358C130.967 109.024 129.207 107.644 127.403 106.385C124.187 104.14 122.787 104.244 119.913 106.946C119.509 107.326 119.088 107.678 118.555 108.127C118.359 108.294 118.143 108.472 117.913 108.667C117.796 108.511 117.685 108.361 117.577 108.214C117.235 107.752 116.911 107.313 116.559 106.912C110.389 99.7976 105.67 91.5461 102.666 82.6212C96.2937 64.2869 92.1411 45.255 90.2974 25.9326C89.6936 20.2317 88.6106 14.5918 87.0604 9.07257C86.5281 7.05827 85.1334 4.84772 82.9156 2.50394C80.7234 0.188379 77.7194 0.105706 74.8768 2.28409C74.5788 2.5125 74.29 2.75205 74.0078 2.98702L73.8634 3.10648C71.664 1.1099 69.5578 0.218593 67.596 0.458812C65.6618 0.695753 63.8965 2.03006 62.3456 4.42504C60.6898 7.00137 59.4978 9.84784 58.8242 12.8354C57.5647 18.5868 56.5223 24.7315 55.7255 31.0966C54.0978 44.0994 50.6062 56.4438 46.8611 68.9956C42.803 82.6048 38.2413 92.2759 32.0698 100.353C30.2623 102.72 28.2914 104.957 26.1714 107.048L25.6856 106.527C25.257 106.068 24.9047 105.684 24.5443 105.311C21.8428 102.512 20.45 102.345 17.0967 104.411C16.2671 104.922 15.4664 105.499 14.6919 106.056L14.5797 106.136C13.2566 107.088 11.9362 108.043 10.6183 109.001C7.72252 111.102 4.72761 113.273 1.74652 115.354C0.25204 116.398 -0.197028 117.693 0.412053 119.205C0.982031 120.699 1.73382 122.116 2.65027 123.426ZM70.3966 63.4462L70.3572 63.4712C70.3001 63.5073 70.205 63.567 70.1958 63.5742C64.1636 62.721 60.36 64.7169 57.8679 70.0425C56.8617 72.1986 56.1049 74.4629 55.6121 76.7909C53.5728 86.5126 53.0011 95.1881 53.8642 103.312L53.886 103.518C53.9282 104.492 54.1425 105.451 54.5192 106.35C54.8438 106.88 55.2902 107.324 55.8213 107.646C56.0281 107.796 56.2349 107.946 56.42 108.105L56.6824 108.333L56.9016 108.063C57.0919 107.84 57.2944 107.627 57.5076 107.426C58.0631 107.002 58.4626 106.407 58.6438 105.732C58.8269 104.077 58.8597 102.385 58.8906 100.749C58.9076 99.8297 58.9254 98.9056 58.9687 97.9861C59.2404 90.7211 60.3031 83.5066 62.1386 76.472C62.7287 74.4826 63.6638 72.6127 64.9011 70.9476C65.0349 70.7014 65.2225 70.4888 65.4497 70.326C65.6769 70.1626 65.9381 70.0523 66.2138 70.0038C66.7572 70.0136 67.2554 70.5945 67.5783 71.0762C68.9678 73.1621 70.1833 75.282 69.8 78.2756C68.6055 87.6054 67.7332 96.9812 66.7979 107.396C65.9329 117.022 61.5768 124.316 53.4815 129.694C52.0914 130.617 50.7525 131.632 49.3355 132.706C48.7343 133.162 48.1153 133.63 47.4674 134.112L29.8232 111.324C30.6496 110.405 31.476 109.512 32.2951 108.624C34.2359 106.52 36.069 104.532 37.8083 102.395C45.5845 92.8364 49.8429 81.3643 53.2867 70.3917C58.3061 54.4302 61.9664 38.0729 64.2284 21.4944C64.7038 18.5467 65.3929 15.6373 66.2899 12.7894C66.4822 12.1226 66.6745 11.457 66.8609 10.7915C67.134 9.97865 67.5048 9.20207 67.9655 8.47924C68.0968 8.25543 68.2281 8.02637 68.3593 7.78681C71.6942 17.3418 71.1927 50.9889 70.3966 63.4462ZM6.59598 118.776L18.9866 109.952L46.1589 144.776L34.2753 153.545L6.59598 118.776ZM76.9154 77.7492L77.1438 74.2424C77.151 74.0586 77.1713 73.8755 77.2041 73.695L77.2862 73.2841C77.5146 72.1119 77.7305 71.0053 78.9349 70.7389C79.0787 70.706 79.2257 70.6896 79.3727 70.689C80.2811 70.689 81.0135 71.3716 81.5576 72.7236C82.5054 74.9722 83.2425 77.3042 83.7603 79.6887C85.2679 87.7268 85.9321 95.9002 85.7431 104.076C85.7431 104.295 85.7228 104.519 85.7063 104.744C85.6184 105.341 85.6545 105.949 85.8114 106.532C86.0575 107.233 86.6928 108.47 87.5178 108.652C88.3159 108.829 89.4258 107.827 89.8255 107.217C90.2738 106.383 90.5311 105.458 90.5797 104.512C91.8582 94.7628 91.36 84.8633 89.1082 75.2919C88.3875 72.5549 87.2258 69.9539 85.6689 67.5904C84.1436 65.2078 81.6318 63.8617 77.7784 63.3694V62.4899C77.7784 61.6682 77.7784 60.8662 77.7784 60.0615L77.7371 53.4981C77.6905 46.1432 77.6367 38.7885 77.575 31.434C77.5527 29.0804 77.4562 27.1481 77.2704 25.3517C76.7552 20.1285 77.1155 14.8558 78.337 9.75123C78.4322 9.39195 78.5483 9.03864 78.6848 8.69321C78.7216 8.59279 78.761 8.48646 78.8023 8.37292C78.9041 8.49171 79.0025 8.60395 79.097 8.71093C79.4154 9.01147 79.6674 9.37403 79.8393 9.77617C80.0362 10.4719 80.245 11.1669 80.451 11.8627C81.2511 14.3583 81.8884 16.9029 82.3597 19.4808C82.9202 23.0027 83.3836 26.6066 83.8325 30.0911C84.5407 35.5939 85.2725 41.283 86.4053 46.8015C89.4297 61.5264 92.6353 75.8773 98.5693 89.5469C101.934 97.5863 106.847 104.885 113.028 111.029C113.399 111.404 113.749 111.799 114.079 112.21C114.214 112.373 114.355 112.543 114.505 112.72L96.2544 134.872C86.8635 128.774 78.1539 121.256 77.5664 107.866C77.4496 105.198 77.2094 102.494 76.9757 99.8803C76.536 94.9236 76.0818 89.7989 76.4507 84.7294C76.6154 82.402 76.7651 80.0726 76.9154 77.7466V77.7492ZM97.3931 145.569C97.5007 145.408 97.6071 145.246 97.7134 145.084C98.0619 144.531 98.4419 143.999 98.8508 143.489C106.186 134.715 113.532 125.949 120.994 117.044L125.343 111.855L137.201 120.839C129.649 130.557 121.905 139.46 113.71 148.881C112.008 150.838 110.301 152.803 108.591 154.778L97.6957 146.311L97.5276 145.923C97.4824 145.83 97.4443 145.735 97.4154 145.636C97.4003 145.613 97.3957 145.588 97.3905 145.566L97.3931 145.569Z" fill="black"/>
<path d="M36.8796 147.79C37.4021 147.786 37.9184 147.675 38.3964 147.463C38.8744 147.252 39.3043 146.946 39.6591 146.562C40.0138 146.178 40.2859 145.725 40.459 145.233C40.6321 144.74 40.7024 144.216 40.6654 143.695C40.6352 142.652 40.2039 141.661 39.461 140.928C38.7182 140.196 37.7211 139.778 36.678 139.763H36.6328C36.1582 139.743 35.6844 139.821 35.241 139.991C34.7975 140.161 34.3936 140.42 34.0539 140.752C33.6856 141.184 33.4084 141.684 33.2386 142.225C33.0689 142.766 33.0103 143.336 33.0662 143.9C33.0444 144.453 33.1344 145.007 33.3306 145.525C33.5268 146.044 33.8253 146.518 34.2084 146.919C34.8854 147.52 35.7704 147.833 36.6748 147.791C36.7417 147.794 36.8107 147.792 36.8796 147.79Z" fill="black"/>
<path d="M106.543 149.082H106.629C108.861 149.037 110.193 147.487 110.196 144.935C110.196 142.606 108.896 141.172 106.711 141.101C106.168 141.083 105.627 141.177 105.123 141.377C104.618 141.578 104.16 141.88 103.778 142.266C103.388 142.657 103.081 143.123 102.876 143.636C102.672 144.149 102.575 144.699 102.59 145.251C102.614 146.281 103.041 147.26 103.782 147.977C104.521 148.694 105.514 149.091 106.543 149.082Z" fill="black"/>
</g>
<defs>
<clipPath id="clip0_6_2080">
<rect width="144.394" height="161.459" fill="white"/>
</clipPath>
</defs>
</svg>
