<svg width="158" height="141" viewBox="0 0 158 141" fill="none" xmlns="http://www.w3.org/2000/svg">
<g clip-path="url(#clip0_8_2393)">
<path d="M135.416 0.381787C138.142 0.684579 140.875 0.939373 143.595 1.2987C152.419 2.46828 156.798 7.3546 157.148 16.35C157.712 30.8522 157.342 45.3297 156.716 59.8313C156.159 72.7545 156.651 85.7206 156.553 98.6667C156.501 105.301 156.516 111.967 155.882 118.559C154.528 132.659 146.549 139.965 132.463 140.481C129.05 140.606 125.627 140.51 122.213 140.506C104.581 140.487 86.9496 140.531 69.3188 140.425C54.2202 140.334 39.1199 140.184 24.0273 139.804C19.8476 139.634 15.6965 139.028 11.6408 137.997C5.57875 136.543 2.07498 132.377 1.02831 126.226C0.675105 124.267 0.506465 122.279 0.524642 120.288C0.812913 105.68 1.23405 91.0747 1.49781 76.4666C1.66033 67.3919 1.65135 58.313 1.62684 49.2363C1.52564 47.4686 1.30348 45.7097 0.961949 43.9728C0.236438 38.8598 2.03371 34.871 6.8724 33.0568C11.1637 31.3529 15.667 30.2507 20.256 29.7813C32.767 28.7917 45.3219 28.2147 57.8696 27.7781C65.6854 27.5065 73.5203 27.7882 81.3442 27.8194C82.4108 27.8239 83.4775 27.8194 84.5983 27.8194C84.5983 24.8161 84.5338 22.1859 84.6157 19.5601C84.6996 16.798 84.7924 14.0246 85.1097 11.2826C85.7546 5.68285 88.0202 2.98578 93.5405 2.26193C99.538 1.47571 105.61 1.28066 111.654 0.886248C115.158 0.657529 118.67 0.544924 122.178 0.379883L135.416 0.381787ZM95.3146 12.761C95.3146 16.7857 95.2811 20.5308 95.3288 24.2748C95.3539 26.265 95.6345 28.2556 95.6003 30.2426C95.5306 34.3186 94.1815 36.081 90.2367 37.0005C87.8996 37.5994 85.5025 37.93 83.0918 37.9866C75.2654 37.9807 67.4382 37.7788 59.6121 37.6001C47.0456 37.2955 34.4722 37.751 21.9598 38.9644C18.7905 39.3153 15.6515 39.9033 12.5688 40.7233C9.66674 41.4582 9.36564 41.9785 9.26117 44.8466C9.18055 47.0558 9.2295 49.2745 9.28109 51.4877C9.57517 64.2134 9.98216 76.9377 10.1653 89.6654C10.3291 101.066 10.1853 112.472 10.3194 123.871C10.3685 128.045 11.6898 129.462 15.792 129.924C20.9325 130.503 26.1007 131.152 31.2605 131.18C50.6635 131.285 70.0681 131.127 89.4718 131.115C99.0608 131.108 108.649 131.208 118.238 131.253C123.75 131.279 129.266 131.474 134.772 131.262C140.925 131.026 144.048 128.444 145.557 122.454C146.262 119.667 146.632 116.806 146.661 113.93C146.711 106.182 146.403 98.4321 146.395 90.6829C146.385 79.8383 146.457 68.9936 146.609 58.1491C146.72 49.7365 147.086 41.3266 147.146 32.9141C147.182 27.9362 146.915 22.9516 146.657 17.9763C146.416 13.3461 145.915 12.8958 141.456 12.4819C140.359 12.3799 139.256 12.2508 138.156 12.2521C125.148 12.269 112.138 12.304 99.1292 12.3581C97.8516 12.4253 96.5786 12.5598 95.3152 12.761H95.3146Z" fill="black"/>
<path d="M80.1563 86.3898C73.1947 86.3898 66.231 86.4593 59.2712 86.3476C57.1391 86.2722 55.0215 85.9649 52.9552 85.4301C52.063 85.2625 51.261 84.7758 50.6974 84.0591C50.1338 83.3424 49.8467 82.4444 49.8893 81.5315C49.8467 79.5172 50.6438 78.0227 52.5469 77.3119C53.6863 76.807 54.8942 76.4763 56.1306 76.3307C71.6327 75.5211 87.1373 74.7583 102.645 74.0422C103.537 73.9968 104.432 74.0669 105.307 74.2502C108.144 74.861 110.143 77.3463 110.002 79.9753C109.934 81.2482 109.425 82.4574 108.562 83.3898C107.699 84.3222 106.538 84.9187 105.282 85.0753C101.034 85.575 96.7457 85.7901 92.4674 85.9376C88.3678 86.076 84.2605 85.9675 80.1563 85.9675V86.3898Z" fill="black"/>
</g>
<defs>
<clipPath id="clip0_8_2393">
<rect width="158" height="141" fill="white"/>
</clipPath>
</defs>
</svg>
