<svg width="158" height="141" viewBox="0 0 158 141" fill="none" xmlns="http://www.w3.org/2000/svg">
<g clip-path="url(#clip0_8_2388)">
<path d="M135.573 0.381298C138.311 0.68409 141.056 0.938884 143.786 1.29821C152.647 2.46779 157.043 7.35411 157.394 16.3495C157.961 30.8517 157.589 45.3292 156.961 59.8308C156.402 72.754 156.896 85.7202 156.797 98.6662C156.746 105.3 156.76 111.967 156.124 118.558C154.764 132.658 146.751 139.965 132.608 140.481C129.182 140.606 125.745 140.509 122.316 140.505C104.613 140.487 86.9083 140.531 69.2052 140.424C54.0451 140.333 38.8836 140.184 23.7286 139.803C19.5319 139.633 15.364 139.028 11.2918 137.996C5.20494 136.543 1.68683 132.377 0.635226 126.225C0.281227 124.266 0.111899 122.278 0.129492 120.287C0.418943 105.679 0.841794 91.0743 1.10729 76.4661C1.27047 67.3915 1.26137 58.3125 1.23676 49.2359C1.13547 47.4681 0.912389 45.7092 0.569144 43.9723C-0.158692 38.8593 1.64601 34.8705 6.50449 33.0563C10.8132 31.3523 15.3348 30.2502 19.9424 29.7808C32.5047 28.7912 45.111 28.2143 57.7102 27.7776C65.5582 27.506 73.4245 27.7877 81.2805 27.8189C82.3515 27.8234 83.4226 27.8189 84.5474 27.8189C84.5474 24.8156 84.4826 22.1854 84.5648 19.5596C84.6497 16.7975 84.7429 14.0241 85.0609 11.2821C85.7084 5.68236 87.9832 2.98529 93.5268 2.26145C99.5489 1.47522 105.646 1.28017 111.714 0.885759C115.233 0.65704 118.759 0.544436 122.282 0.379395L135.573 0.381298ZM95.3082 12.7605C95.3082 16.7852 95.2739 20.5303 95.3218 24.2743C95.3477 26.2646 95.6287 28.2551 95.5951 30.2421C95.5251 34.3181 94.1705 36.0806 90.2095 37C87.8628 37.5989 85.4565 37.9295 83.0353 37.9861C75.1768 37.9802 67.3176 37.7783 59.4598 37.5997C46.8415 37.295 34.2164 37.7505 21.6525 38.9639C18.4702 39.3149 15.3184 39.9028 12.223 40.7228C9.30906 41.4577 9.00672 41.978 8.90182 44.8461C8.82088 47.0553 8.87074 49.2741 8.92189 51.4872C9.21782 64.2129 9.62564 76.9372 9.80954 89.6649C9.97402 101.065 9.83026 112.472 9.96495 123.87C10.0142 128.044 11.341 129.462 15.4594 129.924C20.621 130.503 25.8111 131.151 30.992 131.179C50.4739 131.285 69.9576 131.126 89.4408 131.114C99.0691 131.108 108.697 131.208 118.326 131.253C123.86 131.279 129.399 131.473 134.927 131.262C141.105 131.025 144.241 128.444 145.756 122.454C146.464 119.667 146.836 116.805 146.865 113.929C146.915 106.181 146.606 98.4316 146.598 90.6824C146.588 79.8378 146.659 68.9931 146.812 58.1486C146.924 49.736 147.291 41.3261 147.352 32.9136C147.388 27.9357 147.12 22.9511 146.86 17.9758C146.619 13.3456 146.116 12.8953 141.638 12.4814C140.537 12.3794 139.43 12.2503 138.326 12.2516C125.263 12.2685 112.201 12.3035 99.1384 12.3576C97.8556 12.4247 96.5774 12.5593 95.3082 12.7605Z" fill="black"/>
<path d="M103.477 107.302C101.612 109.167 98.6658 109.206 96.1469 107.406C95.1549 106.644 94.238 105.789 93.4078 104.853L92.8963 104.314C90.2672 101.572 87.6512 98.8102 84.8991 95.9122L80.9103 91.7011L77.6402 95.1449C75.7364 97.1591 73.8974 99.102 72.0649 101.045C71.5404 101.597 71.0353 102.163 70.5302 102.735C69.5278 103.916 68.4483 105.03 67.299 106.068C66.0356 107.234 64.5453 108.126 62.9216 108.686C62.1534 108.962 61.324 109.017 60.5259 108.848C59.7278 108.678 58.9924 108.29 58.4018 107.725C57.3593 106.627 57.1003 105.003 57.6961 103.281C58.2659 101.637 59.4054 99.8953 61.2898 97.8096C63.349 95.5354 65.57 93.3125 67.7199 91.1683C68.8466 90.0442 69.9733 88.9201 71.0871 87.7765C71.6116 87.2437 72.0713 86.6784 72.6476 85.9701C72.9455 85.6062 73.2693 85.2105 73.6513 84.7557L74.2471 84.0468L70.0575 80.0962C67.1371 77.3412 64.2426 74.6193 61.3611 71.8708L60.6487 71.195C59.4245 70.1014 58.2878 68.9124 57.2491 67.6401C56.8095 67.1508 56.5642 66.5173 56.5594 65.8584C56.5546 65.1996 56.7909 64.562 57.2234 64.0664C57.5088 63.6612 57.8805 63.3251 58.3118 63.0823C58.7431 62.8395 59.2229 62.6967 59.7163 62.6635C60.1772 62.6689 60.6301 62.7845 61.0373 63.0011C63.232 64.0362 65.3227 65.2808 67.2795 66.7174C70.2906 69.0696 73.1916 71.5069 76.2674 74.093C77.5431 75.1651 78.8381 76.2496 80.1656 77.3542L80.8585 77.926L81.4801 77.2833C82.5162 76.2177 83.5458 75.1514 84.5689 74.0858C87.0749 71.4867 89.665 68.7967 92.2487 66.2041C93.6047 64.7771 95.0875 63.4768 96.6779 62.319C98.4068 61.1299 100.252 61.1233 101.502 62.2929C102.131 62.9061 102.507 63.7334 102.558 64.6115C102.607 65.4894 102.328 66.3549 101.774 67.0358C99.3004 70.5576 96.5354 73.9825 93.8611 77.2898L92.9222 78.4588C91.9638 79.6479 90.8953 80.7921 89.7621 82.0007C89.2053 82.592 88.6354 83.2021 88.0462 83.8519L87.3857 84.5861L88.1239 85.2359C89.3542 86.321 90.5606 87.3827 91.7436 88.4204C94.7094 91.026 97.5067 93.4879 100.298 96.0156C101.669 97.1695 102.899 98.4827 103.963 99.9278C105.623 102.397 105.435 105.359 103.477 107.302Z" fill="black"/>
</g>
<defs>
<clipPath id="clip0_8_2388">
<rect width="158" height="141" fill="white"/>
</clipPath>
</defs>
</svg>
