<svg width="159" height="141" viewBox="0 0 159 141" fill="none" xmlns="http://www.w3.org/2000/svg">
<g clip-path="url(#clip0_8_2383)">
<path d="M136.392 0.381298C139.137 0.68409 141.887 0.938884 144.624 1.29821C153.504 2.46779 157.911 7.35411 158.262 16.3495C158.83 30.8517 158.457 45.3292 157.828 59.8308C157.268 72.754 157.763 85.7202 157.664 98.6662C157.612 105.3 157.627 111.967 156.989 118.558C155.626 132.658 147.596 139.965 133.422 140.481C129.988 140.606 126.543 140.509 123.103 140.505C105.36 140.487 87.6171 140.531 69.8747 140.424C54.6809 140.333 39.485 140.184 24.2963 139.803C20.0904 139.633 15.9133 139.028 11.832 137.996C5.7316 136.543 2.2057 132.377 1.15175 126.225C0.796846 124.266 0.627362 122.278 0.645548 120.287C0.935643 105.679 1.35943 91.0743 1.62486 76.4661C1.7884 67.3915 1.7793 58.3125 1.75464 49.2359C1.6529 47.4681 1.42913 45.7092 1.08491 43.9723C0.355456 38.8593 2.16415 34.8705 7.03347 33.0563C11.352 31.3524 15.8837 30.2502 20.5017 29.7808C33.0919 28.7912 45.7263 28.2143 58.3528 27.7776C66.2183 27.506 74.1028 27.7877 81.9755 27.8189C83.049 27.8234 84.1224 27.8189 85.2503 27.8189C85.2503 24.8156 85.1854 22.1854 85.2672 19.5596C85.3522 16.7975 85.4456 14.0241 85.7643 11.2821C86.4133 5.68236 88.6931 2.98529 94.249 2.26145C100.285 1.47522 106.395 1.28017 112.477 0.885759C116.003 0.65704 119.537 0.544436 123.068 0.379395L136.392 0.381298ZM96.0383 12.7605C96.0383 16.7852 96.0039 20.5303 96.0519 24.2743C96.0779 26.2646 96.3602 28.2551 96.3258 30.2421C96.2557 34.3181 94.898 36.0806 90.9282 37C88.5763 37.5989 86.1647 37.9295 83.7382 37.9861C75.8622 37.9802 67.9855 37.7783 60.1103 37.5997C47.4641 37.295 34.8112 37.7505 22.2196 38.9639C19.0302 39.3148 15.8713 39.9028 12.7691 40.7228C9.84874 41.4577 9.54502 41.978 9.43988 44.8461C9.35876 47.0553 9.40873 49.2741 9.46065 51.4872C9.75659 64.2129 10.1654 76.9372 10.3498 89.6649C10.5152 101.065 10.3705 112.472 10.5055 123.87C10.5548 128.044 11.8846 129.462 16.0121 129.924C21.1851 130.503 26.3867 131.151 31.5792 131.179C51.105 131.285 70.6314 131.126 90.1585 131.114C99.8076 131.108 109.457 131.208 119.107 131.253C124.654 131.279 130.204 131.473 135.745 131.262C141.937 131.025 145.08 128.444 146.598 122.454C147.308 119.667 147.681 116.805 147.709 113.929C147.759 106.181 147.45 98.4316 147.442 90.6824C147.432 79.8378 147.504 68.9931 147.657 58.1486C147.769 49.736 148.137 41.3261 148.198 32.9136C148.234 27.9357 147.965 22.9511 147.705 17.9758C147.463 13.3456 146.959 12.8953 142.471 12.4814C141.368 12.3794 140.258 12.2503 139.151 12.2516C126.06 12.2685 112.969 12.3035 99.877 12.3576C98.5914 12.4247 97.3103 12.5593 96.0383 12.7605Z" fill="black"/>
</g>
<defs>
<clipPath id="clip0_8_2383">
<rect width="159" height="141" fill="white"/>
</clipPath>
</defs>
</svg>
