<svg width="179" height="141" viewBox="0 0 179 141" fill="none" xmlns="http://www.w3.org/2000/svg">
<g clip-path="url(#clip0_8_2391)">
<path d="M156.183 0.381836C158.926 0.684628 161.676 0.940059 164.411 1.29938C173.29 2.46897 177.622 7.35699 178.052 16.3608C178.836 32.7597 177.981 49.1215 177.375 65.5031C176.967 76.5557 177.494 87.6408 177.436 98.7102C177.401 105.346 177.4 112.016 176.76 118.61C175.394 132.687 167.333 140.015 153.148 140.475C148.497 140.626 143.834 140.461 139.177 140.44C126.984 140.383 114.791 140.324 102.599 140.264C83.085 140.146 63.5707 140.078 44.0584 139.814C40.292 139.681 36.5459 139.199 32.8683 138.373C27.2376 137.228 23.2172 133.594 20.1301 128.976C16.8374 124.05 14.8509 118.483 13.3904 112.804C10.1429 100.179 7.04283 87.516 4.09019 74.8163C2.63225 68.5785 1.40518 62.2722 0.393444 55.9454C-0.644237 49.4211 2.22366 45.5278 8.72991 44.2984C12.5259 43.5837 16.3828 43.174 20.374 42.6035C20.4875 42.0051 20.6127 41.3765 20.7255 40.7456C21.4078 36.9353 23.5629 34.0877 27.1611 32.9337C31.5523 31.451 36.0693 30.3729 40.6561 29.7128C60.8494 27.1436 81.1614 27.6772 101.452 27.8143C102.447 27.8214 103.444 27.7963 104.439 27.7496C104.633 27.7405 104.817 27.5612 105.081 27.4215C105.081 24.9465 105.022 22.4288 105.096 19.9149C105.177 17.1508 105.253 14.3763 105.556 11.631C106.229 5.53678 108.539 2.90655 114.714 2.12682C120.531 1.39258 126.423 1.24432 132.285 0.886297C135.812 0.670573 139.344 0.546877 142.874 0.381836H156.183ZM9.49001 52.2879C9.56725 53.949 9.72738 55.6056 9.96994 57.2506C13.0006 71.7253 15.9729 86.2139 19.1794 100.649C21.0762 109.52 24.3826 118.029 28.9725 125.85C31.0349 129.313 33.9786 131.057 37.9341 131.113C42.02 131.172 46.1104 131.123 50.1989 131.118C70.9292 131.094 91.6595 131.073 112.39 131.053C120.814 131.053 129.237 131.151 137.661 131.21C143.426 131.249 149.19 131.34 154.955 131.323C157.749 131.388 160.488 130.53 162.75 128.884C165.831 126.577 166.357 124.006 164.522 120.622C163.868 119.468 163.276 118.281 162.747 117.066C157.688 104.815 152.447 92.6342 147.701 80.2646C144.907 72.8072 141.255 65.7006 136.819 59.0896C133.241 53.8316 128.49 50.2105 122.04 49.3392C118.32 48.7513 114.563 48.4317 110.798 48.3823C100.046 48.4882 89.2968 48.8599 78.5471 49.1374C59.7079 49.6227 40.8662 50.0409 22.033 50.6647C17.9932 50.7986 13.9793 51.6856 9.49001 52.2879ZM166.882 102.702L167.54 102.673C167.54 101.353 167.613 100.029 167.529 98.7148C166.417 81.3341 167.083 63.9767 167.818 46.5979C168.225 36.9924 167.72 27.3419 167.45 17.7168C167.327 13.3543 166.681 12.893 162.326 12.4908C161.002 12.3686 159.672 12.2312 158.345 12.2312C145.706 12.2412 133.067 12.2729 120.429 12.3271C118.904 12.3349 117.38 12.6002 115.817 12.7497C115.817 16.6197 115.777 20.2431 115.832 23.8649C115.865 26.0741 116.188 28.2893 116.129 30.4927C116.026 34.3725 114.638 36.1186 110.823 36.9809C108.363 37.5954 105.841 37.9318 103.307 37.9841C91.3339 37.9334 79.3552 37.3991 67.3914 37.6401C57.4367 37.8429 47.4918 38.7973 37.558 39.6186C34.9314 39.8357 32.1322 40.1554 29.5808 42.4855C30.1188 42.6011 30.6636 42.6817 31.2119 42.7266C46.8394 42.4377 62.4667 42.1391 78.0938 41.8306C91.2782 41.5493 104.461 40.991 117.646 40.9442C127.657 40.9085 136.494 44.4093 142.675 52.5106C146.799 57.8452 150.373 63.585 153.341 69.6428C157.448 78.1912 160.674 87.1625 164.258 95.9585C165.169 98.195 166.01 100.454 166.882 102.702Z" fill="black"/>
</g>
<defs>
<clipPath id="clip0_8_2391">
<rect width="179" height="141" fill="white"/>
</clipPath>
</defs>
</svg>
