<svg width="159" height="141" viewBox="0 0 159 141" fill="none" xmlns="http://www.w3.org/2000/svg">
<g clip-path="url(#clip0_8_2385)">
<path d="M80.1107 78.16C81.2717 78.16 82.29 78.1912 83.3056 78.1548C88.3274 77.9742 93.3479 77.7266 98.371 77.611C99.9727 77.5733 101.574 77.7221 103.142 78.0548C105.001 78.4557 105.952 79.6181 106.051 81.0879C106.145 82.4855 105.244 83.7701 103.549 84.5252C100.989 85.6662 98.2451 85.9306 95.4954 85.9858C91.4192 86.0684 87.341 86.0333 83.2634 86.0463C82.3237 86.0495 81.3814 86.0463 80.2366 86.0463C80.1464 86.891 80.0231 87.6057 80.001 88.3205C79.8024 94.6642 79.6383 101.009 79.417 107.352C79.3767 108.295 79.208 109.228 78.9153 110.125C78.6992 110.912 78.2371 111.608 77.5966 112.113C76.956 112.618 76.1701 112.903 75.3556 112.928C74.5418 113.04 73.715 112.87 73.0109 112.448C72.3061 112.026 71.7668 111.376 71.4812 110.606C70.8881 109.022 70.6096 107.339 70.6622 105.649C70.9218 99.6862 71.4001 93.7343 71.7882 87.7799C71.818 87.3309 71.7921 86.8773 71.7921 86.3172C71.4021 86.2321 71.0062 86.1788 70.6084 86.158C64.3558 86.4023 58.1055 86.6869 51.8526 86.9001C50.2503 86.9845 48.6437 86.915 47.0546 86.6928C45.2174 86.3991 44.2406 85.2334 44.1342 83.6993C44.02 82.0242 44.8877 80.6636 46.8769 80.2835C49.5769 79.8007 52.3037 79.4836 55.0423 79.3322C59.676 79.0216 64.3188 78.8572 68.958 78.6214C69.8932 78.5739 70.8271 78.4804 71.9433 78.3939C72.0679 77.6525 72.1549 76.9047 72.2029 76.1542C72.2529 71.9846 72.2431 67.8144 72.3119 63.6457C72.3333 62.3207 72.454 60.9992 72.6741 59.6925C72.8136 59.1167 73.1206 58.5954 73.5567 58.1949C73.9928 57.7945 74.5386 57.5326 75.1233 57.443C75.708 57.3534 76.3064 57.4402 76.8424 57.6918C77.3779 57.9433 77.8269 58.3485 78.1326 58.8561C78.6057 59.7779 78.8997 60.7813 78.999 61.8131C79.3624 66.4382 79.6162 71.0717 79.9134 75.7019C79.9608 76.4368 80.0309 77.1704 80.1107 78.16Z" fill="black"/>
<path d="M136.215 0.381298C138.959 0.68409 141.71 0.938884 144.446 1.29821C153.326 2.46779 157.732 7.35411 158.085 16.3495C158.653 30.8517 158.279 45.3292 157.65 59.8308C157.09 72.754 157.585 85.7202 157.486 98.6662C157.434 105.3 157.449 111.967 156.811 118.558C155.449 132.658 147.418 139.965 133.244 140.481C129.81 140.606 126.365 140.509 122.929 140.505C105.186 140.487 87.4421 140.531 69.6996 140.424C54.5055 140.333 39.3102 140.184 24.1215 139.803C19.9156 139.633 15.7385 139.028 11.6572 137.996C5.55681 136.543 2.03089 132.377 0.976945 126.225C0.622159 124.266 0.452454 122.278 0.470086 120.287C0.76018 105.679 1.18397 91.0743 1.45005 76.4661C1.61359 67.3915 1.60455 58.3125 1.57989 49.2359C1.47805 47.4682 1.25449 45.7092 0.910795 43.9723C0.18134 38.8593 1.99005 34.8705 6.85932 33.0563C11.1776 31.3523 15.7091 30.2502 20.3269 29.7808C32.9171 28.7912 45.5514 28.2143 58.1786 27.7776C66.0439 27.506 73.9284 27.7877 81.8018 27.8189C82.8752 27.8234 83.9486 27.8189 85.0759 27.8189C85.0759 24.8156 85.011 22.1854 85.0934 19.5596C85.1784 16.7975 85.2719 14.0241 85.5905 11.2821C86.2395 5.68236 88.5194 2.98529 94.0753 2.26145C100.111 1.47522 106.221 1.28017 112.303 0.885759C115.83 0.65704 119.363 0.544436 122.894 0.379395L136.215 0.381298ZM95.8606 12.7605C95.8606 16.7852 95.8262 20.5303 95.8743 24.2743C95.8996 26.2646 96.1819 28.2551 96.1481 30.2421C96.078 34.3181 94.7204 36.0806 90.7506 37C88.3987 37.5989 85.9864 37.9295 83.5605 37.9861C75.6839 37.9802 67.8078 37.7783 59.9322 37.5997C47.2859 37.295 34.6327 37.7505 22.0409 38.9639C18.8516 39.3149 15.6927 39.9028 12.5905 40.7228C9.67005 41.4577 9.36691 41.978 9.26178 44.8461C9.18066 47.0553 9.23069 49.2741 9.28196 51.4872C9.57855 64.2129 9.9874 76.9372 10.1717 89.6649C10.3366 101.065 10.1925 112.472 10.3275 123.87C10.3768 128.044 11.7065 129.462 15.8341 129.924C21.0071 130.503 26.2086 131.151 31.4005 131.179C50.9263 131.285 70.4537 131.126 89.9802 131.114C99.6299 131.108 109.28 131.208 118.929 131.253C124.475 131.279 130.027 131.473 135.567 131.262C141.759 131.025 144.902 128.444 146.42 122.454C147.129 119.667 147.503 116.805 147.532 113.929C147.582 106.181 147.272 98.4316 147.264 90.6824C147.254 79.8378 147.325 68.9931 147.479 58.1486C147.591 49.736 147.959 41.3261 148.02 32.9136C148.056 27.9357 147.787 22.9511 147.527 17.9758C147.285 13.3456 146.781 12.8953 142.293 12.4814C141.19 12.3794 140.08 12.2503 138.974 12.2516C125.881 12.2685 112.79 12.3035 99.6994 12.3576C98.4131 12.4247 97.132 12.5592 95.8606 12.7605Z" fill="black"/>
</g>
<defs>
<clipPath id="clip0_8_2385">
<rect width="159" height="141" fill="white"/>
</clipPath>
</defs>
</svg>
