<svg width="45" height="159" viewBox="0 0 45 159" fill="none" xmlns="http://www.w3.org/2000/svg">
<g clip-path="url(#clip0_6_1961)">
<path d="M22.7213 52.9981C23.0324 49.4427 23.5488 45.8919 23.6177 42.3319C23.8481 30.4365 23.9078 18.537 24.0679 6.63956C24.0767 5.40845 24.2234 4.18233 24.5051 2.98386C24.633 2.3096 24.9949 1.70203 25.5268 1.26834C26.0587 0.83466 26.7266 0.60265 27.4128 0.613129C28.099 0.592802 28.7711 0.809148 29.3167 1.22588C29.8623 1.64262 30.248 2.23441 30.4089 2.90182C30.7207 4.09402 30.8491 5.32664 30.7896 6.55751C30.5684 19.5786 30.3786 32.6009 30.0058 45.6174C29.9132 48.8335 29.1895 52.0365 28.6847 55.7724C29.9111 54.7629 30.8387 53.4378 31.3678 51.94C33.0254 48.0001 33.9303 43.7846 34.0357 39.5116C34.3337 29.6376 34.495 19.7559 34.7648 9.88325C34.7895 8.09191 34.9818 6.30671 35.3391 4.55115C35.4973 3.71258 35.9282 2.94973 36.5646 2.3812C37.2011 1.81268 38.0076 1.47029 38.8586 1.40727C39.7069 1.40165 40.5349 1.66559 41.2234 2.16103C41.912 2.65648 42.4254 3.35778 42.6896 4.16386C43.0551 5.10504 43.2826 6.09414 43.3655 7.10038C44.1413 18.5364 44.6402 29.998 43.2514 41.3986C42.655 45.7233 41.516 49.9558 39.8614 53.9957C37.3988 60.2421 33.7537 63.2316 25.6191 66.872C25.7936 70.3171 25.9596 73.8751 26.1578 77.4312C26.7518 88.0776 27.5197 98.7162 27.9207 109.369C28.4569 123.616 28.7255 137.873 29.0655 152.126C29.0648 153.353 28.9175 154.576 28.6264 155.769C28.2398 157.514 26.9198 158.382 25.2698 158.65C23.791 158.89 21.9538 157.638 21.4327 155.923C21.0776 154.627 20.8999 153.289 20.9039 151.946C20.7332 143.864 20.7161 135.778 20.468 127.699C20.172 118.051 19.6148 108.41 19.3194 98.7622C19.0378 89.6725 18.9389 80.5777 18.7676 71.4848C18.7426 70.157 18.764 68.8286 18.764 67.445C17.7651 67.0932 17.0577 66.7946 16.3239 66.5911C8.96245 64.5712 4.20001 59.7846 2.3511 52.5052C1.24758 48.0417 0.600076 43.4778 0.418303 38.8836C0.00415344 29.5813 -0.310376 20.2533 0.861847 10.9661C1.08697 9.1855 1.29364 7.39704 1.64413 5.63934C2.20005 2.84793 3.48203 1.62445 5.47993 1.77935C7.50079 1.93621 8.48057 3.3034 8.47926 6.24248C8.47926 10.7338 8.37949 15.2245 8.34208 19.7158C8.26569 28.8111 8.95136 37.8969 10.3919 46.8777C10.9826 50.5801 12.0079 54.123 15.052 56.6762C15.6284 57.0873 16.2261 57.4679 16.8424 57.8163C12.699 48.8677 13.1136 39.8516 13.1057 30.9221C13.0985 23.1773 13.3769 15.4358 13.539 7.69298C13.5476 6.79564 13.603 5.89953 13.705 5.008C13.8756 3.65332 14.5478 2.60973 16.0134 2.55394C17.7001 2.4883 18.3107 3.68011 18.5371 5.14244C18.6039 5.58628 18.6456 6.03352 18.6625 6.48203C19.095 17.5847 19.4776 28.69 19.9751 39.7893C20.1753 44.2616 20.6103 48.7253 21.9932 53.021L22.7213 52.9981Z" fill="black"/>
</g>
<defs>
<clipPath id="clip0_6_1961">
<rect width="44.631" height="158.834" fill="white"/>
</clipPath>
</defs>
</svg>
