<svg width="90" height="101" viewBox="0 0 90 101" fill="none" xmlns="http://www.w3.org/2000/svg">
<g clip-path="url(#clip0_8_2396)">
<path d="M2.96214 99.4465C3.94559 100.135 5.11794 100.504 6.31874 100.501C7.24012 100.495 8.15002 100.297 8.99026 99.9185C11.3294 98.7836 13.5045 97.3372 15.4567 95.6202C21.567 90.5896 28.7948 84.5956 36.0699 78.2857C40.7855 74.1959 46.3117 69.3181 51.5447 64.1503C54.1039 61.5218 56.5096 58.7479 58.7493 55.8424C59.3104 55.144 59.8715 54.448 60.4326 53.7544C61.6182 52.2964 62.6749 50.4415 61.5218 47.7332C61.4685 47.6076 61.3776 47.5014 61.2617 47.4293C61.1459 47.3571 61.0107 47.3224 60.8743 47.3299C59.1028 47.4315 58.1283 46.2551 56.9991 44.8975L56.6565 44.4876C46.6691 32.692 37.9249 23.4958 29.1385 15.5473C24.8729 11.6892 20.3866 7.8091 15.8005 4.01256C13.7091 2.28067 10.7714 0.322157 6.57891 0.597318C2.99577 0.827161 1.95923 1.07258 1.86793 5.09056C1.82779 6.85614 1.82653 8.64824 1.82589 10.3821C1.82589 11.831 1.82583 13.2799 1.80122 14.7289L1.73642 18.9372C1.42045 39.1094 1.09419 59.9691 0.734841 80.4844C0.66556 84.4208 0.493971 88.6356 0.209078 93.3684C0.104416 94.5331 0.302989 95.705 0.785429 96.77C1.26786 97.8351 2.01771 98.757 2.96214 99.4465ZM11.2978 13.4671L14.3968 16.4006C20.1011 21.8003 25.9996 27.383 31.7744 32.9024C37.2379 38.1246 43.6882 43.2744 52.0795 49.1097C52.6325 49.4947 53.1843 49.8812 53.7351 50.2692C51.6407 51.7423 49.5447 53.2036 47.4468 54.653C42.1815 58.3078 36.7369 62.0862 31.548 66.0084C26.4205 69.8853 21.5119 73.9201 16.3139 78.1925C14.3514 79.8059 12.3643 81.44 10.3306 83.0916C9.81256 59.784 9.55739 36.4724 9.54509 11.9223L9.55092 11.9274C10.2042 12.481 10.7682 12.962 11.2978 13.4632V13.4671Z" fill="black"/>
<path d="M80.2547 88.7741C80.5784 91.1599 80.919 93.6266 81.1858 96.0493C81.4189 98.1632 82.6426 98.6177 83.6281 98.6261H83.6591C85.0389 98.6261 85.8431 97.7592 86.0503 96.0493C86.3669 93.4324 86.7314 90.7727 87.0863 88.1998C87.8419 82.6798 88.6227 76.972 88.9905 71.3205C89.4399 64.4052 89.5584 57.4706 89.6956 49.4424C89.7604 45.605 89.8284 41.6376 89.9378 37.2551V37.222L89.8076 31.7894C89.6607 25.4115 89.4787 17.4745 89.2385 9.53763C89.1524 7.50636 88.872 5.48801 88.4019 3.51007C88.242 2.69813 87.7927 1.97179 87.1381 1.46604C86.4828 0.9603 85.6663 0.709509 84.8408 0.760365H84.822C84.003 0.722276 83.1968 0.974731 82.5455 1.47308C81.8948 1.97143 81.4409 2.68367 81.2641 3.48415C80.908 4.69523 80.6768 5.93929 80.5726 7.19721C80.4645 8.74782 80.3466 10.2977 80.2294 11.8477C79.8779 16.5163 79.514 21.3437 79.4 26.1062L79.2453 32.3864C78.915 45.6724 78.5745 59.411 78.7415 72.9235C78.9209 78.2332 79.4259 83.5266 80.2547 88.7741Z" fill="black"/>
</g>
<defs>
<clipPath id="clip0_8_2396">
<rect width="90" height="101" fill="white"/>
</clipPath>
</defs>
</svg>
