<svg width="167" height="163" viewBox="0 0 167 163" fill="none" xmlns="http://www.w3.org/2000/svg">
<g clip-path="url(#clip0_8_2880)">
<path d="M0.632329 142.2C-1.53031 152.242 2.42023 158.866 12.0586 161.364C14.1252 161.891 16.2505 162.151 18.383 162.138C20.5031 162.126 22.6176 161.921 24.7009 161.528C28.8457 160.774 32.1424 158.524 34.8393 156.334C45.1813 164.21 55.9833 161.489 64.3392 158.106C68.4125 160.709 73.1571 162.065 77.9911 162.006C82.7869 161.924 87.0978 160.089 91.1579 156.397C99.559 161.118 107.973 161.282 116.178 156.88C124.619 161.076 131.729 161.146 138.494 157.106C142.921 159.651 146.846 160.407 150.816 159.48C159.173 157.533 164.993 147.981 163.27 139.037C162.414 134.713 160.443 130.688 157.552 127.36C163.122 124.144 165.776 119.758 165.661 113.982C165.55 108.469 163.347 103.797 158.929 99.7192L159.149 99.4895C159.571 99.0478 159.932 98.6704 160.287 98.2884C165.699 92.4687 165.839 84.8571 160.642 78.8956C160.314 78.5156 159.972 78.1421 159.618 77.7522L159.525 77.6499C162.329 74.7876 164.846 71.4566 165.027 66.7297C165.202 62.1355 163.422 58.5513 159.59 55.7862C162.961 51.9013 164.453 48.2442 164.411 44.0141C164.43 41.8693 163.991 39.745 163.123 37.7837C162.255 35.8224 160.978 34.0692 159.377 32.6416C165.945 24.3508 165.633 15.2567 158.469 6.97172C151.095 -1.55608 138.97 -2.08899 128.847 5.60985C121.403 0.999078 113.933 1.04302 106.631 5.74109C103.567 3.3087 99.9928 2.77374 96.8765 2.57749C91.935 2.26507 87.6878 3.6532 84.2512 6.70124C75.3454 0.505406 68.2261 0.435203 59.1351 6.44726C51.5675 0.265866 42.999 0.141152 35.4715 6.09217C31.5013 1.86929 26.9817 0.0972217 21.6758 0.68924C15.4157 1.38233 10.633 3.4694 7.054 7.07142C3.74013 10.4069 1.87214 14.9993 1.65161 20.3531C1.41861 26.0192 1.60113 31.436 6.17186 35.4147C2.66305 38.9607 0.599443 43.6855 0.382918 48.6694C0.0783768 54.0028 2.92691 57.7657 6.48361 61.7077C3.64704 65.4931 1.92625 69.997 1.5158 74.7088C1.0439 80.2306 3.93572 84.0452 7.25222 87.3105C2.03627 94.7737 1.93192 102.21 6.94111 109.424C1.30183 117.432 1.13835 123.489 6.35886 131.428C3.47426 134.04 1.64899 137.482 0.632329 142.2ZM12.0953 31.5661C7.83564 26.3995 9.35834 20.9687 11.6358 15.869C13.4191 11.8784 16.9732 10.084 23.1592 10.0505H23.1855C24.6576 10.1722 26.0955 10.5591 27.4299 11.1926C27.8408 11.3553 28.2484 11.5168 28.6534 11.6651C29.1269 11.8637 29.5773 12.1137 29.9962 12.4107C30.4924 12.7599 31.0257 13.053 31.5865 13.2843C35.8862 14.891 36.2669 14.9541 38.5753 12.4968C38.7807 12.2782 39.0071 12.0373 39.2604 11.7747C43.102 7.79208 49.3791 7.74219 53.8626 11.6566C54.8832 12.5479 55.9347 13.3933 57.0472 14.2879C57.5762 14.7139 58.1184 15.1497 58.6783 15.6072C58.8116 15.7155 58.9812 15.769 59.1525 15.7568C59.324 15.7446 59.4844 15.6676 59.6011 15.5415C68.4958 5.89328 77.3019 9.49002 85.4937 14.8155C85.5711 14.8665 85.6591 14.9008 85.7509 14.9162C85.8428 14.9316 85.9367 14.9277 86.0266 14.9048C86.1172 14.882 86.2012 14.8407 86.2747 14.7835C86.3482 14.7264 86.4086 14.6547 86.4532 14.5728C88.4649 10.8704 91.7866 9.37772 97.2231 9.7584C98.3251 9.86046 99.4185 10.0359 100.498 10.2835C101.036 10.3938 101.575 10.5034 102.116 10.5973C102.667 10.6253 103.198 10.8106 103.647 11.1312C104.096 11.4518 104.444 11.8942 104.65 12.4062C105.367 13.9775 106.261 14.3857 106.886 14.452C107.489 14.5104 108.411 14.3207 109.37 13.031C111.244 10.5087 113.922 9.37982 118.053 9.37063H118.094C119.893 9.41651 121.687 9.59189 123.461 9.89557C124.105 9.98943 124.752 10.0834 125.4 10.1667C125.409 10.3498 125.415 10.5251 125.422 10.6918C125.424 11.3502 125.488 12.0069 125.61 12.6536C125.673 13.0914 125.844 13.5066 126.108 13.8618C126.371 14.217 126.719 14.501 127.12 14.6882C127.549 14.8264 128.005 14.8564 128.449 14.7751C128.892 14.6937 129.308 14.5037 129.661 14.2222C130.095 13.9085 130.5 13.5554 130.87 13.1675C131.067 12.9706 131.264 12.7737 131.473 12.5952C134.02 10.3711 137.127 8.88573 140.458 8.29943C142.042 8.00224 143.671 8.03348 145.243 8.39125C146.815 8.74902 148.297 9.4257 149.597 10.3794C150.995 11.4139 152.169 12.7206 153.049 14.2208C153.929 15.7209 154.496 17.3836 154.716 19.1087C155.355 23.9301 152.856 27.4769 150.06 30.5906C148.707 32.1001 148.197 33.3257 148.454 34.4533C148.702 35.5448 149.675 36.4268 151.428 37.1508C154.108 38.2587 155.879 40.0274 156.416 42.1329C156.958 44.2621 156.232 46.7 154.372 48.9998C153.652 49.9323 152.818 50.7688 151.886 51.4892C149.25 53.4359 148.69 55.7551 150.174 58.5833C150.254 58.7378 150.39 58.8554 150.555 58.9115C150.913 59.0322 151.286 59.1459 151.666 59.2614C152.495 59.4918 153.306 59.7826 154.094 60.1312C156.008 61.0383 157.269 62.349 157.74 63.9209C158.219 65.5184 157.875 67.3447 156.746 69.2041C155.224 71.8721 152.852 73.9527 150.007 75.1111C149.891 75.1577 149.79 75.2352 149.716 75.3356C149.642 75.436 149.597 75.5548 149.586 75.6795L149.219 79.9621C149.208 80.0868 149.232 80.2122 149.288 80.3238C149.344 80.4354 149.43 80.5292 149.537 80.5948C149.695 80.6913 149.835 80.7917 149.966 80.8843C150.266 81.1258 150.608 81.3083 150.975 81.4231C152.138 81.6673 153.222 82.1937 154.133 82.9557C155.045 83.7184 155.755 84.6937 156.2 85.7957C156.568 86.8937 156.661 88.0666 156.469 89.2093C156.278 90.352 155.807 91.4303 155.1 92.3479C154.791 92.7844 154.475 93.2156 154.158 93.6468C152.536 95.8593 150.857 98.1466 150.029 101.283C149.995 101.412 150 101.548 150.043 101.673C150.086 101.799 150.165 101.909 150.27 101.99C150.499 102.166 150.73 102.354 150.972 102.547C151.535 102.999 152.117 103.466 152.756 103.888C156.049 106.058 157.854 109.331 157.707 112.868C157.56 116.405 155.492 119.508 152.035 121.396C151.408 121.738 150.768 122.056 150.128 122.375C149.375 122.749 148.597 123.136 147.844 123.56C146.547 124.293 145.831 125.286 145.831 126.355C145.831 127.4 146.519 128.366 147.771 129.074C151.664 131.277 153.759 134.934 154.363 140.584C154.54 141.876 154.414 143.192 153.995 144.427C153.576 145.662 152.874 146.781 151.946 147.698C150.942 148.622 149.74 149.304 148.431 149.69C147.122 150.077 145.743 150.157 144.398 149.926C142.965 149.718 141.51 149.585 140.096 149.458C139.291 149.384 138.486 149.311 137.683 149.224C135.255 148.962 134.976 150.823 134.795 152.054V152.06C130.941 153.303 126.818 153.449 122.886 152.484C121.004 152.01 119.38 151.601 118.502 149.764C118.346 149.395 118.104 149.071 117.795 148.817C117.487 148.562 117.121 148.386 116.73 148.303C116.29 148.242 115.842 148.286 115.423 148.432C115.003 148.578 114.624 148.821 114.317 149.141C111.757 151.565 108.427 152.075 105.811 152.248C103.17 152.35 100.524 152.216 97.9076 151.845C97.0531 151.781 96.2274 151.508 95.5022 151.051C94.7776 150.595 94.175 149.967 93.7484 149.224C93.2818 148.553 92.6825 147.984 91.9868 147.554C91.7295 147.37 91.4736 147.188 91.2419 146.993C91.1113 146.882 90.9439 146.826 90.7732 146.834C90.6026 146.843 90.4411 146.916 90.323 147.039C84.1318 153.443 77.9235 155.182 70.7851 152.507C69.4022 151.956 68.1152 151.189 66.9744 150.232C65.2252 148.817 64.0281 148.351 62.9707 148.678C61.9133 149.005 61.1749 150.071 60.5205 152.238C60.4814 152.329 60.4345 152.417 60.3801 152.5L60.3242 152.594C55.7489 153.841 50.8646 154.95 45.7773 154.007C41.8603 153.285 38.2549 152.264 37.1792 147.823C37.0175 147.383 36.6907 147.023 36.2682 146.82C36.1084 146.719 35.9539 146.609 35.8055 146.492C35.6851 146.394 35.5347 146.34 35.3795 146.34C35.2719 146.34 35.1658 146.366 35.0704 146.416C34.3676 146.779 33.6634 147.139 32.9576 147.497C31.4047 148.29 29.7993 149.108 28.2359 149.949C23.6171 152.516 18.1869 153.203 13.0745 151.868C9.54868 150.984 8.36202 149.439 8.37449 145.757C8.42109 144.331 8.58261 142.911 8.85755 141.511L8.9646 140.868C9.53299 137.41 11.437 135.265 14.7863 134.31C15.1065 134.208 15.4158 134.074 15.7097 133.911L15.8088 133.861C15.977 133.765 16.1193 133.63 16.223 133.466C16.2755 133.396 16.3457 133.303 16.4494 133.176C16.5443 133.059 16.5975 132.914 16.6008 132.764C16.604 132.614 16.5569 132.466 16.4671 132.345C16.0963 131.849 15.6999 131.356 15.3002 130.859C14.3756 129.779 13.5519 128.617 12.8396 127.386C11.9207 125.667 10.9612 123.645 10.8417 121.686C10.7724 119.556 11.1892 117.438 12.0605 115.493C12.6762 114.251 13.4648 113.101 14.403 112.08C14.8151 111.583 15.2418 111.068 15.6329 110.54C15.7165 110.428 15.763 110.293 15.7661 110.153C15.7691 110.013 15.7286 109.876 15.65 109.76C9.57952 100.807 9.84797 92.7607 16.3877 87.6787C16.5145 87.5796 16.6019 87.4391 16.6342 87.2816C16.6664 87.1241 16.6415 86.96 16.5637 86.8189C16.4646 86.6397 16.3667 86.4533 16.2709 86.2643C16.0403 85.7937 15.7782 85.3382 15.4866 84.9024C14.972 84.166 14.4364 83.444 13.8982 82.7214C12.9846 81.4907 12.0401 80.2175 11.2361 78.9061C9.19819 75.5798 9.93992 68.152 12.5817 65.4352C13.1336 64.9724 13.7653 64.6139 14.4456 64.3776C14.867 64.1945 15.3441 63.9877 15.8338 63.7344C15.9192 63.6903 15.9941 63.6286 16.0537 63.5533C16.1132 63.4779 16.156 63.3908 16.1792 63.2976C16.2023 63.2043 16.2052 63.1071 16.1877 63.0127C16.1703 62.9182 16.1328 62.8286 16.0779 62.7499C15.5128 61.9334 14.9681 61.1308 14.4325 60.3405C13.2747 58.634 12.1812 57.0228 10.9992 55.443C6.39894 49.2938 6.65357 43.804 11.8006 38.1648C12.6778 37.3082 13.1965 36.1502 13.2512 34.9253C13.3059 33.7005 12.8927 32.5006 12.0953 31.5693V31.5661Z" fill="black"/>
<path d="M26.8616 130.57C27.47 132.75 29.1318 133.965 31.5425 133.993C32.6015 134.005 33.6599 134.021 34.7179 134.04C36.6062 134.072 38.5391 134.105 40.4714 134.105C41.3159 134.105 42.1593 134.098 43.0016 134.084C51.9934 133.924 61.1276 133.723 69.9637 133.53L80.3929 133.303C80.5111 133.301 80.6259 133.268 80.727 133.207C80.8274 133.146 80.9108 133.061 80.9679 132.957C83.1994 132.957 85.4329 132.963 87.6684 132.973C93.1226 132.992 98.7605 133.009 104.307 132.934C114.007 132.803 121.932 132.575 129.248 132.222C130.154 132.179 133.26 131.901 135.208 130.167C136.751 128.822 137.973 127.148 138.783 125.268C139.593 123.388 139.971 121.349 139.887 119.304C139.807 113.699 139.841 107.996 139.876 102.479C139.904 97.8414 139.933 93.0456 139.894 88.3265C139.844 82.3538 139.627 75.9558 139.23 68.7729C138.989 64.4156 138.943 59.9675 138.902 55.6671C138.819 47.5942 138.733 39.245 137.358 31.065C136.728 27.3134 136.05 26.3472 132.16 26.1812C131.657 26.1601 131.157 26.1713 130.674 26.1812C130.374 26.1884 130.074 26.1989 129.775 26.1943C126.388 26.1833 123.002 26.1698 119.616 26.1536C112.675 26.1227 105.5 26.088 98.435 26.0972C78.2651 26.1123 57.2172 26.1556 34.0846 26.2284C30.6717 26.2396 28.5451 27.9782 27.7581 31.3964C27.4268 32.8589 27.2308 34.3489 27.1727 35.8472C27.0852 37.9068 26.9977 39.9666 26.9101 42.0267C26.6029 49.0495 26.286 56.3104 26.1462 63.4605C25.9034 75.906 25.8495 88.5595 25.797 100.863C25.7642 108.638 25.8167 116.573 25.9591 125.121C26.0245 126.968 26.3279 128.8 26.8616 130.57ZM130.192 79.7114C130.266 93.9664 130.343 108.701 129.529 123.259L35.6617 126.678L34.9365 33.353L130.709 34.6813C130.724 34.7522 130.739 34.8211 130.753 34.8881C130.836 35.195 130.88 35.5109 130.884 35.8287C130.04 50.4427 130.117 65.3221 130.192 79.7114Z" fill="black"/>
</g>
<defs>
<clipPath id="clip0_8_2880">
<rect width="166.053" height="162.772" fill="white"/>
</clipPath>
</defs>
</svg>
