<svg width="162" height="160" viewBox="0 0 162 160" fill="none" xmlns="http://www.w3.org/2000/svg">
<g clip-path="url(#clip0_6_1753)">
<path d="M70.2691 84.6197V100.563C73.8665 100.394 77.0812 100.253 80.2946 100.088C82.8714 99.9564 85.4449 99.747 88.023 99.6676C89.0311 99.6302 90.0386 99.745 91.0126 100.007C92.8989 100.537 94.2077 101.713 94.1821 103.829C94.2201 104.689 93.9406 105.534 93.3958 106.201C92.851 106.868 92.0792 107.311 91.2286 107.446C88.81 107.876 86.3605 108.111 83.9045 108.145C79.5523 108.251 75.1962 108.175 70.5861 108.175C70.3833 111.121 70.2789 113.902 69.975 116.662C69.7604 119.003 69.3679 121.323 68.8002 123.603C67.9988 126.581 66.0304 127.911 63.7464 127.41C61.5916 126.936 60.3128 124.692 60.3942 121.863C60.5091 117.837 60.5121 113.808 60.5397 109.78C60.4773 109.19 60.3712 108.606 60.2231 108.031C56.6461 108.031 53.0742 108.084 49.5057 108.002C48.2816 108.058 47.0619 107.819 45.9503 107.303C45.508 107.016 45.1367 106.632 44.8639 106.181C44.591 105.73 44.4242 105.223 44.3755 104.698C44.472 104.183 44.6899 103.699 45.0113 103.285C45.3326 102.872 45.7477 102.54 46.2227 102.32C47.8334 101.86 49.5029 101.639 51.1779 101.664C54.1879 101.572 57.2021 101.637 60.5186 101.637C60.5186 99.7024 60.5363 98.3792 60.5186 97.0567C60.2792 81.5671 60.0388 66.0795 59.7968 50.594C59.7778 49.3601 59.753 48.1202 59.8449 46.8915C60.1698 42.5735 62.4133 40.3321 66.7307 40.2573C78.1773 40.0604 89.6258 39.8983 101.074 39.8635C102.972 39.8372 104.851 40.2422 106.57 41.0481C107.151 41.424 107.648 41.9162 108.029 42.4937C108.411 43.0712 108.668 43.7214 108.786 44.4034C109.013 45.9169 107.789 47.1659 106.202 47.4593C104.344 47.8368 102.453 48.0274 100.558 48.0284C90.6825 47.8433 80.8092 47.5459 70.9346 47.3103C69.8444 47.2841 68.751 47.4002 67.4074 47.4612C68.0953 57.1173 68.7621 66.4798 69.4592 76.2744C70.4784 76.2744 71.4282 76.2941 72.3812 76.2711C81.0232 76.0637 89.6645 75.8031 98.3065 75.6692C100.324 75.6364 102.338 75.8405 104.308 76.2783C106.307 76.7279 107.737 78.0642 107.703 80.3109C107.669 82.5372 106.278 83.8892 104.224 84.2574C102.129 84.6112 100.006 84.772 97.8819 84.7379C90.0248 84.6906 82.1691 84.5324 74.3128 84.4445C72.985 84.4274 71.6526 84.5554 70.2691 84.6197Z" fill="black"/>
<path d="M160.653 73.1404C158.806 56.934 152.301 41.6108 141.925 29.0257C133.373 18.5316 124.173 11.0527 113.8 6.16947C105.706 2.26986 96.8395 0.239225 87.8556 0.227661C85.095 0.23216 82.3377 0.412296 79.6008 0.767105C68.2094 2.24452 56.6624 5.54924 43.2751 11.1741C25.1668 18.7876 12.5584 31.8716 5.81066 50.0542C1.07746 62.5401 -0.746755 75.941 0.476631 89.2378C1.89957 104.176 5.49397 115.754 11.7863 125.665C20.8778 139.973 32.3294 149.391 46.8029 154.456C55.5769 157.531 65.2349 159.075 77.1855 159.318C84.2194 159.318 90.769 158.469 97.1021 157.646L98.3025 157.491C112.128 155.704 123.869 150.713 134.204 142.249C143.921 134.435 151.276 124.074 155.448 112.324C160.396 98.29 162.097 85.4691 160.653 73.1404ZM144.332 117.7C136.509 133.542 123.35 143.935 105.208 148.588C103.029 149.148 100.777 149.553 98.3963 149.978C97.2149 150.187 95.9817 150.409 94.6867 150.659C89.0422 151.508 81.4287 151.637 77.2327 151.637C75.3648 151.637 74.1709 151.61 74.1374 151.61C63.1172 151.478 53.6349 149.606 45.157 145.891C33.8607 140.94 24.8303 132.584 17.5593 120.35C13.1691 112.972 10.3839 104.238 8.79881 92.8673C6.76541 78.4036 8.54349 63.6599 13.9578 50.0948C19.6568 35.6416 29.9069 24.6762 44.4218 17.5064C47.7737 15.8478 61.3975 11.8546 64.9785 11.1268C70.0209 10.1205 75.1338 9.50494 80.2709 9.28573C100.591 8.80004 108.617 12.0706 121.027 21.5468C134.022 31.4673 143.182 43.9371 148.253 58.6062C155.143 78.59 153.828 98.4718 144.329 117.7H144.332Z" fill="black"/>
</g>
<defs>
<clipPath id="clip0_6_1753">
<rect width="161.459" height="159.49" fill="white"/>
</clipPath>
</defs>
</svg>
