<svg width="142" height="144" viewBox="0 0 142 144" fill="none" xmlns="http://www.w3.org/2000/svg">
<g clip-path="url(#clip0_6_2084)">
<path d="M139.281 66.2087C137.085 60.5426 131.86 57.6376 125.966 58.8072C124.555 59.1576 123.197 59.693 121.926 60.3995C121.428 60.6476 120.918 60.9029 120.407 61.1332C116.262 54.5758 114.389 53.6156 104.885 53.1516C104.885 52.9639 104.887 52.775 104.891 52.5851C104.898 51.9288 104.905 51.2482 104.879 50.5708C104.775 47.8956 104.678 45.2199 104.587 42.5438C104.351 35.8038 104.106 28.8349 103.7 21.988C103.283 14.9468 101.469 9.18219 98.1527 4.36404C95.5431 0.572373 91.2113 -0.554574 87.1138 1.4932C84.8822 2.53213 83.0793 4.31062 82.0094 6.52726C81.1811 8.3046 80.4526 10.1719 79.7483 11.9782C79.514 12.5798 79.2771 13.1833 79.0382 13.7884C78.9194 13.5945 78.8013 13.4003 78.6838 13.2055C78.1725 12.3621 77.6448 11.4905 77.0429 10.6832C74.392 7.13901 70.7618 6.35996 66.8198 8.48319C65.6255 9.09824 64.5753 9.95942 63.7381 11.01C62.9009 12.0605 62.2959 13.2766 61.963 14.578C61.431 16.4371 61.1112 18.3504 61.0099 20.2815L60.8865 23.5717C60.6063 30.9883 60.3168 38.655 60.3102 46.2003C60.305 52.3456 60.4887 58.3537 60.6836 64.7149C60.7604 67.2228 60.8385 69.7444 60.9034 72.2851L60.75 72.1624C60.2656 71.7719 59.8069 71.4037 59.3252 71.0624C52.5202 66.2449 45.3738 64.5896 38.0826 66.1398C36.5385 66.4404 35.0927 67.1178 33.8732 68.1115C32.6536 69.1052 31.698 70.3844 31.0914 71.8355C30.477 73.3477 30.2454 74.9886 30.4171 76.6124C30.5888 78.2361 31.1586 79.7917 32.0759 81.1424C33.3186 82.8751 34.7802 84.4392 36.4241 85.7971L36.4754 85.8438C41.778 90.6291 45.7067 95.5576 48.4863 100.913C52.6678 108.972 57.3526 117.446 62.8087 126.821C64.2376 129.275 66.5205 131.284 68.3504 132.759C71.806 135.547 75.9377 137.827 81.3531 139.936C86.149 141.825 91.2572 142.795 96.4115 142.794C102.255 142.723 108.042 141.638 113.514 139.585C117.659 138.03 121.488 135.736 124.814 132.815C129.395 128.882 132.911 123.859 135.038 118.208C140.233 104.885 142.257 90.3508 141.224 73.7704C140.962 71.1661 140.307 68.6169 139.281 66.2087ZM72.3928 126.251C71.2251 125.445 70.2091 124.44 69.3913 123.281C67.6271 120.655 65.5779 117.519 63.7631 114.153C61.2447 109.482 58.7434 104.54 56.3274 99.4621C52.0612 90.4919 46.7575 83.6365 40.116 78.5039C40.0398 78.4475 39.9678 78.3858 39.9006 78.3188C39.6886 78.0944 39.4661 77.8732 39.2443 77.652C37.9782 76.3971 36.7832 75.2117 37.4218 73.2355C38.1129 71.0998 40.0419 70.7467 42.0818 70.7467C42.1816 70.7467 42.2827 70.7467 42.3824 70.7467C49.5365 70.8543 54.8737 73.5033 58.2532 78.6227C58.8925 79.7306 59.3641 80.9265 59.652 82.1729C59.7518 82.5201 59.8488 82.8666 59.9558 83.2059C60.3989 84.6394 61.1214 86.1306 63.1212 86.3209C64.7621 86.4811 66.1668 85.253 66.7141 83.202C66.9439 82.3048 67.0495 81.3807 67.0279 80.4546C66.8835 72.4919 66.7122 64.3382 66.5199 56.2193C66.4759 54.3815 66.4011 52.5123 66.3282 50.7061C66.1884 47.2202 66.0434 43.6176 66.1195 40.0806C66.2606 33.4726 66.6728 26.7569 67.0718 20.2624L67.1952 18.2455C67.3436 15.8269 67.9487 13.2522 71.2882 12.4278C73.4501 14.0615 74.7622 16.417 75.2958 19.6239C76.1838 24.954 76.7666 29.742 77.0777 34.2602C77.5253 40.7448 77.8653 47.3482 78.1935 53.7337C78.3687 57.0977 78.5473 60.4612 78.7297 63.8243C78.775 64.5329 78.9457 65.2279 79.2344 65.8766C79.4878 66.5369 79.9833 67.0764 80.6193 67.3856C81.2553 67.6947 81.9852 67.7505 82.6612 67.5418C83.2985 67.4315 83.8695 67.0804 84.2561 66.5619C84.6427 66.0427 84.8159 65.3955 84.7398 64.753C84.7221 63.821 84.7398 62.8667 84.7595 61.9439C84.8258 60.2894 84.7923 58.6324 84.6591 56.982C83.6982 47.4775 84.2338 37.8169 84.7523 28.4785L84.8264 27.1311C85.0233 23.5415 85.3069 20.0131 85.5825 16.736C85.7401 13.8634 86.7357 11.1001 88.4475 8.78773C89.4602 7.46258 90.3016 6.84628 91.0229 6.90469C91.7442 6.96311 92.4741 7.70864 93.2597 9.18343C95.6586 13.6813 96.2789 18.6446 96.7081 23.342C97.7097 34.3114 97.7195 45.916 96.7409 60.9691C96.6838 61.8427 96.5742 62.7321 96.4686 63.5945C96.3721 64.3729 96.2717 65.1789 96.2113 65.9771L96.1863 66.2882C96.0669 67.7321 95.9166 69.5285 98.0431 70.2689C99.9832 70.9455 102.583 69.8344 103.608 67.8949C103.978 67.1663 104.231 66.384 104.356 65.576C104.564 64.3592 104.67 63.1115 104.774 61.869C104.91 60.24 105.411 59.1196 106.26 58.5381C107.089 57.9717 108.267 57.9087 109.763 58.3511C112.684 59.2155 114.505 61.1208 115.027 63.8642C115.292 65.4669 115.446 67.0863 115.487 68.7101C115.504 69.0861 115.522 69.4609 115.542 69.835C115.632 71.4713 115.973 73.0616 117.849 73.6155C120.033 74.26 121.105 72.7734 121.934 71.3275L122.168 70.9193C122.883 69.5909 123.697 68.3182 124.604 67.1125C126.109 65.221 127.896 64.2785 129.527 64.5259C131.058 64.7596 132.339 66.0178 133.132 68.0701C134.558 71.5579 135.408 75.2544 135.649 79.0152C136.069 89.1313 134.219 98.9738 132.354 107.267C131.107 112.6 128.833 117.638 125.659 122.101C122.225 127.028 116.965 130.643 110.026 132.845C96.9943 136.978 84.3342 134.762 72.3941 126.251H72.3928Z" fill="black"/>
<path d="M38.4614 42.5864C38.4701 42.239 38.4076 41.8934 38.2781 41.5709C38.1487 41.2483 37.9551 40.9556 37.7087 40.7105C36.0396 39.1353 34.195 40.3457 33.5892 40.7434C32.7911 41.2685 32.0424 41.8664 31.176 42.5589C30.9063 42.7741 30.6242 42.9999 30.3229 43.2355L29.3442 29.4347H42.8491C42.6023 29.8515 42.3601 30.2419 42.1271 30.6161C41.436 31.62 40.877 32.7089 40.4644 33.8557C40.1363 34.94 40.3294 36.7318 41.0855 37.507C42.1068 38.5532 43.7198 38.4082 45.1972 37.1395C45.7371 36.6832 46.2077 36.1505 46.5936 35.5583L47.3778 34.3264C48.5487 32.4887 49.7598 30.5944 50.8191 28.6497C52.5544 25.4691 52.117 23.4521 49.2042 21.2088C48.154 20.3975 47.0384 19.6427 45.9561 18.9116C45.0255 18.2822 44.0633 17.6311 43.1516 16.9505C42.0857 16.155 40.6947 15.3989 39.3991 16.6354C38.2781 17.7039 38.2941 19.1603 39.4434 20.7362C39.9369 21.4129 40.4548 22.0666 41.0028 22.7577L41.3349 23.1771H29.09V11.0657C29.411 11.2403 29.7269 11.4188 30.04 11.5954C31.1346 12.2649 32.2943 12.8214 33.5014 13.2566C34.0661 13.4049 34.6564 13.4276 35.2307 13.323C35.8051 13.2184 36.3495 12.9892 36.8257 12.6514C37.5595 12.0279 38.1174 10.8669 36.6085 8.87881C36.3268 8.48547 35.9887 8.1359 35.605 7.8412C34.9835 7.39489 34.3705 6.93145 33.7575 6.46809C32.1562 5.18295 30.445 4.04094 28.6439 3.05517C27.1442 2.29382 24.812 1.84292 23.2506 2.45331C18.8197 4.18933 16.4399 8.15093 14.1395 11.982L14.0331 12.1586C13.6484 12.7992 13.9204 14.3284 14.4888 14.7183C14.901 14.9736 15.3665 15.1301 15.8492 15.1756C16.3319 15.2212 16.8188 15.1544 17.2715 14.9808C18.2568 14.3988 19.1577 13.6844 19.9488 12.8575C20.1096 12.7046 20.2696 12.5517 20.4291 12.4027C21.1268 11.7516 21.7893 11.0644 22.5552 10.2689L23.1692 9.63235V23.4718L9.49382 24.2464C9.77146 23.9077 10.0366 23.59 10.2879 23.2888C11.1114 22.3503 11.8714 21.358 12.5624 20.3182C12.7534 19.9294 12.842 19.4983 12.8198 19.0658C12.7974 18.6332 12.6648 18.2134 12.4348 17.8464C12.1158 17.5686 11.7396 17.3645 11.3327 17.2486C10.9258 17.1328 10.4982 17.1081 10.0806 17.1763C9.35409 17.3611 8.70261 17.7662 8.21541 18.336L7.2309 19.3206C5.20875 21.3408 3.1183 23.4298 1.17357 25.5911C-0.325498 27.2556 -0.265238 29.1354 1.34279 30.8786C2.79461 32.4538 4.404 33.924 5.96215 35.3476C6.47293 35.9024 7.15214 36.2736 7.89492 36.4036C8.89058 36.4752 10.2821 36.4929 10.8892 35.832C11.5239 35.1415 11.4512 33.6228 11.1972 32.765C10.9176 32.0109 10.5148 31.3085 10.0053 30.6864C9.86617 30.4895 9.72039 30.2893 9.57075 30.074H23.5003L24.1009 45.7132L20.3497 42.9999C20.0051 42.7498 19.6685 42.4827 19.3325 42.2122C18.5384 41.5255 17.6602 40.9427 16.719 40.4775C15.892 40.1133 14.2216 40.2951 13.709 40.9711C13.3034 41.5067 13.3387 42.5187 13.8126 43.9784C14.0747 44.5373 14.4905 45.0101 15.0111 45.3417C15.1096 45.4198 15.208 45.4966 15.2986 45.5728C17.9279 47.7531 20.7566 50.0909 23.6288 52.4111C24.4149 53.0967 25.4143 53.4889 26.457 53.521C27.3996 53.5049 28.3062 53.1562 29.0167 52.5365C31.8927 50.1691 34.6906 47.6829 37.3317 45.1468C37.6823 44.8176 37.9629 44.4213 38.157 43.9814C38.351 43.5415 38.4547 43.0671 38.4614 42.5864Z" fill="black"/>
</g>
<defs>
<clipPath id="clip0_6_2084">
<rect width="141.769" height="143.082" fill="white"/>
</clipPath>
</defs>
</svg>
