<svg width="134" height="135" viewBox="0 0 134 135" fill="none" xmlns="http://www.w3.org/2000/svg">
<g clip-path="url(#clip0_6_2004)">
<path d="M124.293 44.7856L99.0655 69.7003C101.027 73.4749 103.193 76.9043 104.663 80.6087C109.717 93.3357 108.814 105.905 102.69 118.039C99.626 124.152 94.2913 128.824 87.8277 131.056C78.087 134.745 67.4556 135.392 57.3395 132.91C44.0526 129.621 36.3531 120.614 32.9178 107.672C32.2319 105.089 31.8133 102.435 31.2482 99.7009C29.4104 99.2834 27.6516 98.9566 25.936 98.4847C12.8702 94.8893 5.30715 86.0418 1.87319 73.2498C-1.29036 61.4639 0.166729 50.3349 6.63102 39.9438C7.55882 38.4055 8.69035 36.9998 9.99475 35.7645C15.8586 30.3391 23.0922 26.6172 30.9155 25.0003C38.1921 23.4811 45.732 23.7908 52.8596 25.9015C56.3677 26.8787 59.6722 28.5847 62.3152 29.6558L85.4301 7.26605C81.9928 7.26605 78.9921 7.28929 75.9926 7.2545C74.8703 7.28285 73.7479 7.18913 72.6453 6.97536C71.9863 6.81397 71.4002 6.43628 70.9815 5.90239C70.5621 5.36851 70.335 4.70944 70.335 4.03081C70.335 3.35217 70.5621 2.6931 70.9815 2.15922C71.4002 1.62533 71.9863 1.24732 72.6453 1.08594C73.5228 0.901938 74.4187 0.8217 75.3146 0.846543C81.9364 0.696898 88.5588 0.572728 95.1813 0.427677C98.2556 0.362043 99.8354 1.41231 100.377 4.4971C101.29 9.68676 102.033 14.9093 102.709 20.1364C103.103 23.1555 101.15 25.6548 98.6468 25.6916C96.2964 25.7263 94.4232 23.5145 94.3884 20.561C94.4285 17.2525 94.292 13.9441 93.9776 10.6503C84.6687 18.3425 76.6115 27.1336 67.8107 35.5748C72.6584 42.5162 75.9801 50.0101 76.7244 58.6494C82.7227 59.9149 88.801 60.7374 93.2891 64.4799L116.125 42.1577C115.413 41.9813 114.689 41.8545 113.959 41.7783C111.268 41.689 108.567 41.6956 105.872 41.5997C102.796 41.4901 101.256 40.3318 101.33 38.2873C101.402 36.2841 102.965 35.2683 106.108 35.2178C107.683 35.1928 109.254 35.2459 110.827 35.2098C115.877 35.0943 120.927 34.9793 125.975 34.8159C129.264 34.7083 130.832 35.7072 131.409 38.9863C132.335 44.2869 133.118 49.6123 133.757 54.9624C133.845 55.5515 133.813 56.1521 133.664 56.7289C133.515 57.3055 133.252 57.8464 132.89 58.3194C132.528 58.7923 132.075 59.1877 131.557 59.4821C131.039 59.7764 130.467 59.9637 129.875 60.033C127.599 60.2168 125.685 58.2905 125.424 55.4873C125.416 54.815 125.448 54.1429 125.519 53.4744C125.551 52.3534 125.631 51.2277 125.565 50.1119C125.467 48.4481 125.259 46.791 125.098 45.1311L124.293 44.7856ZM67.6263 58.4171C67.7273 58.017 67.7877 57.608 67.8068 57.1958C67.6565 56.0841 67.4386 54.9825 67.155 53.8971C63.9154 43.2539 58.1465 35.2873 46.3206 33.0039C36.8693 31.1786 27.8924 31.2975 19.4972 36.6794C15.8309 39.0298 12.7702 41.8642 10.7677 45.7989C4.26998 58.5811 6.01603 70.8778 13.4261 82.5127C17.3694 88.7046 23.6604 91.666 31.1991 92.6039C34.085 71.3038 47.2006 60.8692 67.6263 58.4171ZM76.7618 67.5311C76.4888 68.8753 76.2617 69.951 76.0517 71.0307C73.1021 86.1921 65.171 96.1908 48.6956 98.8818C45.2977 99.437 41.8653 99.7796 37.9253 100.288C39.087 104.178 39.8751 107.923 41.3092 111.401C44.7675 119.794 51.13 124.889 60.0411 126.698C68.2819 128.371 76.3733 127.536 84.2638 124.824C89.1305 123.151 93.0101 119.992 95.1898 115.342C101.419 102.056 101.019 89.0492 92.6301 76.714C88.9658 71.3202 83.6777 68.3896 76.7618 67.5311ZM67.9059 66.5401C50.5623 65.2811 37.8019 79.6451 38.4195 92.7673C56.3408 93.2038 67.0638 84.9536 67.9059 66.5401Z" fill="black"/>
</g>
<defs>
<clipPath id="clip0_6_2004">
<rect width="133.893" height="134.549" fill="white"/>
</clipPath>
</defs>
</svg>
