<svg width="78" height="77" viewBox="0 0 78 77" fill="none" xmlns="http://www.w3.org/2000/svg">
<g clip-path="url(#clip0_6_2006)">
<path d="M76.8079 38.8234C76.9136 44.8676 75.7676 50.8683 73.4428 56.4487C69.9308 65.2206 63.6864 71.0941 54.6132 73.8415C45.9005 76.5929 36.6275 77.0635 27.681 75.208C15.0038 72.521 6.86004 64.6806 2.80582 52.5987C-1.45709 39.8914 -0.497482 27.5802 6.82394 16.1403C8.4432 13.7169 10.4415 11.5696 12.7422 9.78041C18.8954 4.85785 25.9649 2.05131 33.8107 0.825925C42.0766 -0.46509 49.9013 0.967215 57.5575 3.74484C61.8847 5.3148 65.1457 8.50325 67.8561 12.1564C73.7763 20.1381 77.0534 29.0308 76.8079 38.8234ZM37.171 8.2264C28.105 8.84927 25.0097 9.77195 19.5988 13.0444C15.808 15.2762 12.7166 18.523 10.6729 22.4184C5.20035 32.803 6.10853 43.2326 10.4213 53.6073C13.9111 62.0038 20.3827 66.9868 29.2846 68.7464C37.4114 70.3525 45.3904 69.515 53.1753 66.8686C58.0499 65.212 61.9564 62.101 64.1564 57.4601C70.5018 44.0708 70.0351 30.9919 61.5535 18.5608C59.6484 15.6114 56.9376 13.2698 53.7429 11.8132C48.0104 9.33877 42.001 8.13845 37.171 8.2264Z" fill="black"/>
</g>
<defs>
<clipPath id="clip0_6_2006">
<rect width="77.4479" height="76.7915" fill="white"/>
</clipPath>
</defs>
</svg>
