<svg width="160" height="154" viewBox="0 0 160 154" fill="none" xmlns="http://www.w3.org/2000/svg">
<g clip-path="url(#clip0_8_2399)">
<path d="M13.188 26.3929C12.5681 26.4007 11.9481 26.3891 11.3282 26.3781C10.1605 26.3371 8.99145 26.3561 7.82571 26.4349C3.46942 26.7979 1.69518 28.6135 1.49567 32.9093C1.1964 39.3929 0.937889 45.9857 0.687848 52.3619L0.409352 59.4195C0.390567 59.8841 0.393766 60.3506 0.417734 60.8093C0.731255 66.7514 2.96289 69.1992 8.94442 70.1639C9.45422 70.2455 9.97172 70.3031 10.4919 70.3581C12.261 70.5522 13.9354 70.7392 15.4609 71.9142C15.5004 72.7101 15.5472 73.5092 15.5906 74.3083C15.7013 76.2165 15.8166 78.1907 15.8341 80.1286C15.9158 89.1674 15.9882 98.2062 16.0517 107.245C16.1269 117.237 16.2085 127.229 16.2966 137.221C16.2975 140.34 16.4638 143.457 16.7947 146.559C17.298 150.852 18.5359 152.078 22.8138 152.525L24.3686 152.69C28.4883 153.198 32.6311 153.499 36.7811 153.589C41.1338 153.609 45.4739 153.619 49.8014 153.62C61.1511 153.62 72.3776 153.55 83.3146 153.41C89.1899 153.335 95.1585 153.127 100.931 152.925C105.174 152.777 109.562 152.623 113.877 152.525C118.059 152.428 122.315 152.404 126.432 152.38C129.498 152.362 132.668 152.344 135.788 152.296C139.341 152.242 141.294 150.598 141.926 147.119C142.091 146.065 142.175 145 142.177 143.934C142.191 143.427 142.205 142.921 142.237 142.416C142.496 138.382 142.764 134.348 143.039 130.316C143.633 121.479 144.246 112.341 144.74 103.346C144.898 100.462 145.201 97.5183 145.494 94.6752C146.362 86.244 147.258 77.5339 144.637 68.7281C144.855 68.6809 145.064 68.6336 145.265 68.5884C145.967 68.4156 146.679 68.2855 147.396 68.2001C148.279 68.1166 149.191 68.0707 150.071 68.0286C151.375 67.9639 152.724 67.8992 154.048 67.7051C157.595 67.1875 159.624 64.9635 159.916 61.2785C159.963 60.4115 159.945 59.5422 159.862 58.6779L159.852 58.5291C159.274 50.3348 158.686 42.1416 158.097 33.8521L157.595 26.8148C157.584 26.6623 157.521 26.5183 157.416 26.4068C157.312 26.2954 157.172 26.2233 157.02 26.2028C156.626 26.1497 156.247 26.0913 155.879 26.0337C155.094 25.912 154.352 25.7975 153.592 25.7509C151.146 25.6016 148.701 25.4588 146.254 25.3225C141.923 25.0747 137.445 24.8192 133.047 24.5118C132.301 24.4103 131.574 24.2007 130.888 23.8894C130.732 23.8286 130.575 23.7672 130.416 23.7071C130.614 23.2748 130.809 22.8627 130.999 22.4661C131.563 21.3419 132.052 20.1817 132.463 18.9932C133.078 17.1872 133.321 15.2759 133.18 13.3737C133.039 11.4715 132.515 9.61755 131.64 7.92206C130.711 6.22992 129.45 4.742 127.932 3.54746C126.414 2.35292 124.671 1.47617 122.807 0.969338C119.73 0.0439655 116.479 -0.145334 113.316 0.416744C104.286 2.00139 96.1503 6.12259 88.4418 13.0176C87.4701 13.8873 86.4984 14.7957 85.4775 15.7572C85.1537 16.0633 84.8168 16.3783 84.469 16.7032C84.228 16.3149 83.9993 15.9475 83.7791 15.5936C83.0788 14.4638 82.4738 13.4886 81.8306 12.5232C79.827 9.44497 77.0811 6.91879 73.8455 5.17648C64.9898 0.465246 55.5211 0.0518385 45.7035 3.94713C42.902 5.10813 40.5011 7.0614 38.7958 9.56688C35.1851 14.6256 35.3308 18.8347 39.2841 23.6404C39.8248 24.2666 40.3996 24.8624 41.0059 25.4255C41.195 25.6099 41.4017 25.8137 41.6304 26.035L36.235 26.1035C28.0789 26.2057 20.6335 26.3036 13.188 26.3929ZM26.4925 78.0781C26.4083 76.5834 26.2737 75.1016 26.1318 73.5403C26.0851 73.0324 26.0386 72.516 25.9925 71.9912C26.168 71.9589 26.3364 71.9265 26.499 71.8948C27.0383 71.768 27.5884 71.6936 28.1418 71.6703C41.6868 71.6515 55.2329 71.6515 69.2716 71.6528H77.3635C77.3603 75.3741 77.3273 79.0539 77.2955 82.6192C77.2191 91.2594 77.1465 99.4194 77.4659 107.673C77.7852 115.945 78.4848 124.015 79.2252 132.56C79.5252 136.023 79.8348 139.599 80.1146 143.165C79.77 143.265 79.4422 143.368 79.1281 143.467C78.3792 143.75 77.5941 143.924 76.7961 143.984C61.6427 144.096 46.7115 144.144 28.9554 144.178H28.9476C28.3941 144.153 27.8445 144.074 27.3068 143.94C27.1027 143.896 26.8897 143.852 26.6643 143.81C26.6312 143.469 26.5961 143.133 26.5611 142.8C26.4392 141.822 26.3713 140.838 26.3578 139.852C26.4143 130.616 26.4791 121.38 26.5521 112.144C26.6177 103.234 26.6798 94.3245 26.7381 85.4145C26.7524 82.9278 26.6227 80.4295 26.4931 78.0781H26.4925ZM65.7515 35.6309C66.9357 35.6212 68.1211 35.5831 69.3033 35.5449C71.588 35.4725 73.9439 35.3968 76.2027 35.5449C76.9464 40.2083 77.2813 53.6179 76.8064 60.0975C73.5112 60.9096 70.0327 60.8552 66.663 60.7983C64.8634 60.7705 63.001 60.7394 61.1678 60.8391C56.1742 61.1089 51.0762 61.1465 46.146 61.1834L42.1758 61.2169C37.552 61.2602 32.7702 61.3056 28.0887 61.0915C26.8145 61.0332 25.5138 61.0117 24.2565 60.9916C20.206 60.9269 16.022 60.8579 11.6845 59.5541L10.5994 36.0255C12.9579 35.7968 15.3346 35.8364 17.6842 36.1433C18.8761 36.2559 20.1087 36.3732 21.3245 36.4062C24.8821 36.502 28.5738 36.5523 32.6114 36.5588C36.1871 36.5633 40.0337 36.5531 43.9047 36.4334C45.8001 36.3745 47.7214 36.26 49.5786 36.15C51.1935 36.0536 52.8634 35.9556 54.5016 35.8909C58.2917 35.7479 62.076 35.6613 65.7515 35.6315V35.6309ZM49.8395 25.2539L45.7321 19.5205C46.056 15.9849 47.7707 13.9338 51.2738 12.8856C56.456 11.3326 61.2359 11.3053 65.8759 12.7962C71.1397 14.4882 74.4997 18.0373 76.9911 24.5933L49.8395 25.2539ZM89.5864 23.7886C95.5135 16.8719 103.615 12.1696 112.566 10.4519C115.793 9.78863 119.462 9.57186 122.294 12.9443C122.917 19.2603 122.914 19.4647 121.115 23.5289C120.931 23.5599 120.743 23.5938 120.552 23.6293C119.868 23.7755 119.173 23.8646 118.474 23.8954C109.383 24.0248 99.8179 24.1242 90.0366 24.1902C89.9388 24.1163 89.8461 24.0361 89.7593 23.9497C89.703 23.896 89.6447 23.8416 89.5864 23.7892V23.7886ZM86.5665 107.324C86.7919 99.0609 86.7401 90.9682 86.6856 82.3998C86.6623 78.8721 86.6403 75.321 86.6377 71.7369C93.245 70.9456 132.936 69.1293 139.549 69.3066C139.42 69.9155 139.285 70.5237 139.151 71.13C138.736 73.0026 138.309 74.9379 138.061 76.8772C137.159 83.9948 136.457 89.9736 135.965 96.0211C135.394 103.036 134.95 110.175 134.52 117.08C134.393 119.109 134.266 121.139 134.137 123.169C133.954 126.049 133.779 128.93 133.615 131.811C133.421 135.111 133.226 138.407 133.012 141.703C132.953 142.066 132.838 142.418 132.67 142.746C132.621 142.864 132.569 142.983 132.518 143.109H84.7041C84.8984 139.563 85.1109 136.042 85.3221 132.539C85.8215 124.263 86.3378 115.705 86.5665 107.325V107.324ZM148.475 32.2648C148.521 32.3329 148.553 32.4108 148.565 32.4926C148.388 40.0276 148.201 47.5629 148.009 55.3179L147.96 57.2726C147.613 57.3412 147.273 57.4128 146.938 57.484C145.967 57.7143 144.981 57.8765 143.988 57.9693C125.203 59.2433 106.322 59.9189 87.8607 59.9752C86.9201 54.7748 86.6332 41.4195 87.3425 35.5488C91.1903 34.6914 95.2453 34.602 99.1767 34.5134C100.243 34.4901 101.308 34.4669 102.372 34.4281C104.806 34.3421 107.29 34.3276 109.692 34.314C112.293 34.2992 114.982 34.2837 117.629 34.1763C122.965 33.9608 128.196 33.5647 133.531 33.1409C137.043 32.864 140.553 32.5249 143.946 32.1969C145.317 32.0649 146.668 31.9357 147.999 31.8089C148.084 31.8872 148.156 31.9532 148.22 32.0108C148.312 32.0883 148.396 32.1725 148.475 32.2629V32.2648Z" fill="black"/>
</g>
<defs>
<clipPath id="clip0_8_2399">
<rect width="160" height="154" fill="white"/>
</clipPath>
</defs>
</svg>
