<svg width="185" height="171" viewBox="0 0 185 171" fill="none" xmlns="http://www.w3.org/2000/svg">
<g clip-path="url(#clip0_8_2401)">
<path d="M184.919 74.2188C184.598 55.2226 176.881 39.0104 161.966 26.0344C150.007 15.6176 135.319 8.031 118.324 3.47659C111.747 1.71949 104.797 0.214102 97.5266 0.214102C93.7027 0.202117 89.8904 0.649697 86.1741 1.5472C69.1119 5.72476 56.5989 10.5515 45.6132 17.2153C29.1845 27.1811 18.7525 37.0811 11.7887 49.3214C2.37644 65.8443 -1.05097 82.8985 1.30989 101.46C2.7042 112.387 6.71313 123.169 13.9301 135.389C19.6196 145.017 26.9165 151.926 36.2418 156.501C41.144 158.915 45.9662 161.249 50.9625 163.377C64.1891 169.013 77.7563 171.294 94.9587 170.77C96.0324 170.624 97.3462 170.465 98.8405 170.286C102.829 169.808 108.292 169.159 113.608 168.197C128.463 165.519 140.629 160.977 150.803 154.313C154.2 152.128 157.302 149.521 160.034 146.555C165.095 140.901 169.414 134.631 172.887 127.896C181.317 111.788 185.252 94.2303 184.919 74.2188ZM31.5589 36.3977C44.3856 24.7542 58.3133 16.6586 74.1342 11.6525L76.8761 10.7838L74.795 12.7596C65.0699 22.0291 58.7663 33.5797 54.3574 42.604L54.1778 42.9822L53.7505 42.9758C48.3141 42.9229 36.3618 39.939 31.6992 37.4721L30.8658 37.0282L31.5589 36.3977ZM7.87389 84.6646C9.41426 69.2088 15.1303 55.4904 25.3494 42.7332L25.6292 42.3878L51.1093 49.9138L50.8626 50.5772C46.8048 61.4626 43.9402 72.7514 42.3182 84.2471L42.2377 84.8111L7.79983 85.4073L7.87389 84.6646ZM20.3135 133.281L20.0066 132.81C11.4953 119.595 7.43301 106.155 7.59334 91.7266L7.59983 91.0704H40.8571L41.6243 124.217L20.3135 133.281ZM49.9622 155.401C40.5636 151.264 30.8456 146.987 23.8676 138.321L23.3742 137.71L24.0611 137.333C30.2978 133.838 36.7345 131.803 42.204 130.271L42.9309 130.072L43.0445 130.808C44.6388 140.714 47.3665 148.339 51.6221 154.797L52.8625 156.674L49.9622 155.401ZM84.9466 163.403L84.3533 163.449C83.2498 163.542 82.1587 163.589 81.0779 163.589C76.6048 163.497 72.1531 162.936 67.7975 161.917C66.9945 161.671 66.3155 161.131 65.8968 160.406L64.9361 158.848C62.4047 154.73 59.8536 152.583 57.3324 146.216C54.8203 139.871 52.8035 133.816 52.1498 128.261L52.0849 127.67L52.6652 127.541C63.4808 125.066 74.4964 123.552 85.5821 123.019L86.3092 122.979L84.9466 163.403ZM86.6142 116.371L51.2695 121.437L51.1762 120.781C49.715 110.61 49.9428 100.252 50.3556 91.4601L50.3822 90.8303H87.6749L86.6142 116.371ZM87.8813 84.0335H51.3157L51.3806 83.3108C52.3212 73.2857 54.736 62.9085 58.7579 51.5837L58.9313 51.0991L87.882 53.4003L87.8813 84.0335ZM88.0949 46.617L61.5147 45.0038L61.8951 44.1352C68.8315 28.1967 77.6427 16.8101 89.6359 8.32202L90.7894 7.50645L88.0949 46.617ZM119.545 12.9468C130.41 16.1422 144.371 21.182 156.03 31.9182L156.731 32.5635L155.01 33.4384C149.5 36.2435 144.299 38.8891 138.014 39.8706L137.574 39.9436L137.341 39.5564C136.42 38.0574 135.523 36.539 134.626 35.0206C130.216 27.6076 125.661 19.9359 118.917 14.0812L116.616 12.0854L119.545 12.9468ZM96.9126 14.3193C96.9931 12.668 97.0729 11.0039 97.1463 9.33976L97.193 8.37829L98.0804 8.75578C111.24 14.3852 120.639 24.3316 128.556 41.0076L128.923 41.7819L125.821 42.3588C116.036 44.196 106.792 45.9331 96.9353 46.2512L96.2615 46.2712L96.2485 45.6013C95.9395 35.1026 96.4128 25.0065 96.9132 14.318L96.9126 14.3193ZM96.1336 53.6326L132.29 48.1818L132.49 48.6458C136.786 58.3005 138.813 69.1081 138.686 81.6841V82.3203L96.131 83.9051L96.1336 53.6326ZM95.7266 90.5651L138.582 89.219L138.562 89.9288C138.269 99.4016 137.206 108.834 135.382 118.136L135.268 118.713L94.7069 115.821L95.7266 90.5651ZM111.615 161.367C107.213 162.077 102.798 162.674 98.1284 163.303C96.5341 163.522 94.9133 163.741 93.2522 163.967L92.4583 164.079L94.2525 122.737L94.8665 122.717C106.139 122.292 117.759 123.162 132.533 125.528L133.34 125.658L133.053 126.414C132.753 127.209 132.453 127.999 132.159 128.788C129.563 135.717 126.394 141.844 123.128 148.195C119.536 155.177 112.817 161.174 111.614 161.366L111.615 161.367ZM160.501 133.565C153.97 146.097 142.711 151.673 131.526 155.837L129.678 156.527L130.725 154.862C135.621 147.119 138.816 138.677 142.197 129.739L143.091 127.373L160.867 132.862L160.501 133.565ZM176.382 88.5821C175.201 102.719 171.773 114.561 165.603 125.847L165.356 126.304L145.246 121.066L148.694 88.7944L176.442 87.8401L176.382 88.5821ZM176.736 80.307L176.662 80.871L148.641 81.8531L148.561 81.2556C148.321 79.4488 148.106 77.622 147.894 75.8513C147.427 71.8467 146.94 67.7156 146.106 63.7506C145.279 59.8453 144.112 56.0859 142.871 52.1071C142.345 50.3964 141.791 48.6329 141.277 46.8623L141.111 46.2925L161.808 37.7587L162.114 37.9838C171.505 44.9187 178.609 65.4952 176.735 80.3057L176.736 80.307Z" fill="black"/>
</g>
<defs>
<clipPath id="clip0_8_2401">
<rect width="185" height="171" fill="white"/>
</clipPath>
</defs>
</svg>
