<svg width="172" height="169" viewBox="0 0 172 169" fill="none" xmlns="http://www.w3.org/2000/svg">
<g clip-path="url(#clip0_8_2282)">
<path d="M161.577 76.6969C160.415 76.5767 159.248 76.517 158.08 76.5183C154.26 76.5682 150.441 76.6135 146.573 76.6588C134.658 76.7979 122.338 76.9423 110.221 77.241C105.667 77.4608 101.136 78.0181 96.6641 78.9094C93.2446 79.5093 91.3091 81.838 91.6156 84.9877C91.8873 87.7896 93.9292 89.5998 97.0776 89.8308C101.037 90.1229 105.118 90.0783 108.633 90.012C116.361 89.8663 124.089 89.7061 131.817 89.5322L133.301 89.5C140.124 89.3517 146.946 89.2093 153.769 89.0728C155.016 89.0465 156.267 89.1266 157.853 89.2257L158.073 89.2395L159.312 89.3143C158.261 114.098 148.719 131.726 130.162 143.192C110.281 155.474 88.6332 159.922 65.8195 156.41C50.7186 154.085 38.6269 146.995 29.8798 135.335C18.0382 119.553 11.7807 102.421 11.2799 84.4147C10.4562 54.8566 24.5379 31.9385 50.9279 19.8822C61.1222 15.2268 69.7694 12.5923 78.1429 11.5914C101.512 8.79739 120.422 14.2418 135.941 28.2441C136.104 28.3905 136.264 28.5427 136.456 28.7258C136.974 29.2526 137.544 29.7252 138.157 30.1368C140.702 31.7429 143.326 31.5434 145.357 29.5882C147.543 27.4879 147.797 24.6222 146.006 22.2928C144.401 20.2583 142.525 18.4535 140.43 16.9287C127.381 7.12405 111.748 1.3519 95.4584 0.323448C72.2477 -1.24454 50.4423 5.18671 30.6373 19.4477C14.8852 30.7918 5.14181 46.7423 1.68488 66.8577C-1.73923 86.7775 1.57396 106.837 11.5299 126.479C16.5568 136.395 22.1581 144.172 28.6545 150.257C41.2418 162.048 57.0588 168.003 77.0075 168.459C77.7826 168.476 78.5544 168.485 79.3296 168.485C93.7841 168.485 108.22 165.413 123.458 159.095C138.81 152.728 150.727 143.198 158.877 130.76C166.838 118.615 171.019 104 171.31 87.3217C171.445 79.6484 169.352 77.363 161.577 76.6969Z" fill="black"/>
</g>
<defs>
<clipPath id="clip0_8_2282">
<rect width="171.961" height="168.679" fill="white"/>
</clipPath>
</defs>
</svg>
