<svg width="158" height="157" viewBox="0 0 158 157" fill="none" xmlns="http://www.w3.org/2000/svg">
<g clip-path="url(#clip0_8_2403)">
<path d="M0.43728 83.9128C0.437019 84.0151 0.460757 84.1167 0.505857 84.2086C0.550956 84.3011 0.616465 84.3812 0.697615 84.4444L0.861441 94.0312C1.05065 105.171 1.24671 116.687 1.46973 128.015C1.46408 129.843 1.66244 131.665 2.06089 133.449C5.68839 147.94 18.241 156.455 34.0416 155.168C38.675 154.788 42.7918 154.633 46.6247 154.701C59.7589 154.928 73.1105 155.222 86.023 155.502C91.9061 155.632 97.7891 155.759 103.672 155.883C104.582 155.9 105.513 155.883 106.41 155.869C108.032 155.804 109.657 155.846 111.275 155.992C113.678 156.268 116.094 156.405 118.512 156.405C123.504 156.386 128.479 155.834 133.354 154.757C147.042 151.804 157.82 137.933 157.379 123.835C157.159 116.847 157.042 109.202 157.018 100.463C157.002 94.4116 157.025 88.2567 157.048 82.3044C157.092 70.7379 157.137 58.7763 156.894 47.015C156.726 38.8816 155.491 30.8427 154.304 24.0513C152.874 15.8541 149.098 9.7526 143.088 5.91555C136.698 1.83681 131.017 0.0472583 125.193 0.26354C123.381 0.332594 121.548 0.47589 119.775 0.613998C117.626 0.780769 115.403 0.954108 113.224 0.995149C104.846 1.1541 96.3248 1.23419 88.0841 1.31237C69.3042 1.48891 49.8862 1.67132 30.8014 2.79834C26.7619 3.0115 22.7641 3.72056 18.897 4.90967C9.1732 7.97147 1.46244 17.5003 0.96113 27.0702C0.917781 27.8719 0.874308 28.674 0.830959 29.4766C0.655403 32.6342 0.473143 35.8992 0.460139 39.118C0.417225 49.9641 0.424413 60.9913 0.431566 71.6557C0.434599 75.7403 0.436413 79.8256 0.43728 83.9128ZM66.1078 10.3441C69.0656 10.2794 72.024 10.2116 74.9825 10.1409H75.0696C75.3473 10.1409 75.6496 10.1728 76.0241 10.2119L76.1828 10.2282C74.5091 32.3124 74.4279 54.4977 74.4929 73.6583L9.50715 75.055C9.48179 74.7527 9.45565 74.4615 9.43095 74.1782C9.34642 73.2264 9.2736 72.4043 9.26774 71.5789C9.24265 67.9464 9.22581 64.3134 9.21761 60.6805C9.19616 54.1757 9.17366 47.4495 9.07028 40.8327C8.95454 35.4746 9.82302 30.1408 11.633 25.0976C13.791 19.0768 17.8436 15.2814 24.0199 13.4945C30.3965 11.6509 37.0951 11.333 43.5737 11.0262L43.6601 11.0223C51.1329 10.6666 58.7439 10.5031 66.1046 10.3441H66.1078ZM9.37633 120.872V120.427C9.38413 112.575 9.42991 104.593 9.47412 96.8715C9.49148 93.8084 9.50826 90.7446 9.52432 87.6802C9.52432 87.3857 9.51996 87.0939 9.51411 86.7975C9.50435 86.305 9.49577 85.8385 9.51918 85.3727C9.6024 83.7643 10.0019 83.2881 11.405 83.2881C11.5045 83.2881 11.6089 83.2881 11.7181 83.2952C12.5413 83.3298 13.3891 83.4294 14.209 83.5272C15.263 83.6718 16.3242 83.7558 17.3877 83.7799C23.3586 83.8014 29.7418 83.7695 38.0793 83.6757C45.0336 83.5975 51.9872 83.5083 58.9405 83.4092C63.4391 83.348 67.9375 83.2887 72.4369 83.2308C72.8771 83.2301 73.3167 83.2516 73.7542 83.2959L74.1294 83.3246L73.5553 146.351L73.251 146.378C72.6918 146.427 72.2107 146.471 71.7328 146.472L65.5896 146.487C54.3726 146.516 42.7763 146.543 31.3671 146.538C25.8957 146.538 21.3386 145.084 17.4334 142.108C13.3371 138.981 10.8316 134.464 9.78082 128.297C9.43686 125.838 9.30051 123.354 9.37314 120.872H9.37633ZM85.7753 83.2555C86.7467 83.2555 87.6062 83.2588 88.4665 83.2555C92.6252 83.2268 96.7845 83.2008 100.943 83.1773C111.951 83.1122 123.333 83.047 134.528 82.9018C137.784 82.8601 140.991 82.6412 144.387 82.4099C145.729 82.3181 147.09 82.2256 148.477 82.1428V82.2392C148.477 82.9167 148.477 83.6724 148.477 84.4327L148.513 96.2168C148.541 105.771 148.579 115.327 148.627 124.885C148.679 133.409 141.484 143.197 133.231 145.831C127.236 147.692 120.972 148.536 114.7 148.33C107.662 148.161 100.504 147.809 93.5842 147.474C90.9613 147.343 88.3377 147.218 85.7135 147.098C84.8351 147.059 83.9644 146.973 83.0431 146.882L82.4046 146.817C84.4657 124.397 84.7928 102.16 84.8253 83.2549L85.7753 83.2555ZM148.616 65.1862C148.576 67.9972 148.534 70.9033 148.545 73.7371H85.1062L83.0138 10.2138L83.3662 10.1526C83.8942 10.0424 84.4293 9.97553 84.9677 9.9526C88.3345 9.91481 91.7012 9.87136 95.068 9.82231C104.431 9.69202 114.12 9.56173 123.634 9.64251C129.773 9.65358 135.666 12.0567 140.067 16.3433C141.796 18.0693 143.084 20.1863 143.826 22.5158C145.134 26.8459 146.188 31.249 146.984 35.7025C148.891 45.4437 148.75 55.4806 148.612 65.1862H148.616Z" fill="black"/>
</g>
<defs>
<clipPath id="clip0_8_2403">
<rect width="158" height="157" fill="white"/>
</clipPath>
</defs>
</svg>
