<svg width="157" height="157" viewBox="0 0 157 157" fill="none" xmlns="http://www.w3.org/2000/svg">
<g clip-path="url(#clip0_8_2405)">
<path d="M0.760477 102.414C0.955105 110.42 1.15014 118.7 1.22994 126.84C1.28379 132.42 2.5089 137.116 4.97678 141.198C10.0371 149.569 17.1781 154.168 26.1914 154.864C28.9856 155.023 31.7865 155.014 34.5796 154.839C36.1983 154.77 37.8725 154.698 39.5106 154.697C44.5742 154.697 49.9663 154.75 56.4746 154.881C68.8169 155.128 81.0453 155.409 92.422 155.677C98.5632 155.821 104.704 155.981 111.528 156.16L121.485 156.42H121.502C121.534 156.42 121.565 156.418 121.596 156.414C122.245 156.321 123.045 156.225 123.96 156.116C126.405 155.825 129.754 155.424 133.012 154.741C146.539 151.908 157.24 138.155 156.867 124.085C156.641 115.527 156.528 107.663 156.524 100.047C156.52 92.8879 156.563 85.6079 156.604 78.5677C156.64 72.461 156.676 66.1471 156.682 59.9358C156.682 58.6512 156.571 57.3569 156.462 56.1054C156.283 54.5128 156.223 52.9091 156.282 51.3075C156.88 41.8744 155.39 32.5762 153.947 24.6024C152.701 17.7192 150.162 12.5878 146.188 8.91292C139.854 3.05763 132.489 0.183417 124.298 0.322176C122.34 0.359309 120.362 0.52346 118.449 0.682417C116.555 0.838765 114.595 1.00164 112.675 1.03812C104.228 1.19838 95.6366 1.28307 87.3279 1.36385C68.678 1.54821 49.393 1.73913 30.4368 2.79709C28.0768 2.87463 25.7265 3.13816 23.4075 3.58532C11.1751 6.22631 3.68551 13.3747 1.14821 24.8337C0.715888 27.2266 0.554281 29.661 0.666705 32.0903C0.673193 32.8264 0.67959 33.5606 0.670507 34.2902C0.627259 37.9609 0.574803 41.6307 0.513388 45.2997C0.357036 55.6037 0.194648 66.2585 0.278338 76.7404C0.349053 85.2992 0.558061 94 0.760477 102.414ZM147.947 57.3152V94.4599L110.312 95.2573L109.165 57.9392L147.947 57.3152ZM110.189 105.78C111.991 105.763 113.779 105.75 115.551 105.74C120.147 105.712 124.49 105.684 128.923 105.574C133.37 105.464 137.733 105.275 142.352 105.076C144.183 104.996 146.032 104.918 147.899 104.841C147.905 104.882 147.91 104.922 147.917 104.963C148.008 105.49 148.062 106.024 148.079 106.56C148.09 108.449 148.143 110.374 148.195 112.233C148.412 116.665 148.351 121.106 148.011 125.53C147.094 134.79 142.458 141.453 134.23 145.334C129.683 147.479 115.489 149.243 110.188 147.953L110.189 105.78ZM143.16 21.8605C144.279 25.3225 145.198 28.8463 145.914 32.4141C146.547 35.5971 147.002 38.8816 147.442 42.0555C147.572 43.0053 147.705 43.955 147.842 44.9044C147.931 45.6292 147.983 46.3583 147.997 47.0887C148.003 47.2496 148.009 47.4143 148.016 47.5765L108.523 48.3753L106.799 9.38783C108.745 9.45297 110.67 9.50183 112.539 9.54613C117.665 9.66665 122.5 9.78189 127.336 10.3278C130.306 10.6614 133.255 12.2132 136.106 13.7154L136.604 13.9759C138.163 14.7885 139.545 15.904 140.67 17.2575C141.796 18.611 142.643 20.1756 143.162 21.8605H143.16ZM59.4828 49.6632C59.4504 49.4619 59.4177 49.2678 59.3852 49.0769C59.261 48.4571 59.1843 47.8284 59.1565 47.1968C59.1046 42.8537 59.0618 38.5107 59.0273 34.1677C58.984 29.3743 58.9352 24.5816 58.8815 19.7896C58.8536 17.6046 58.7628 15.4248 58.6674 13.1167C58.6311 12.2412 58.5941 11.3467 58.5597 10.4268L99.9126 9.69003L100.461 48.6215L59.4828 49.6632ZM59.569 123.713C59.7947 118.175 60.0277 112.456 60.1056 106.751C73.2622 105.748 86.144 105.774 99.7751 105.8L101.397 105.804L100.589 147.622L59.0286 146.215C58.9578 138.748 59.2692 131.107 59.5702 123.71L59.569 123.713ZM60.2823 96.4299L59.7704 59.0676C64.1612 58.4859 94.4195 57.8233 100.801 58.4246C101.395 67.5145 101.389 76.4752 101.385 85.9506C101.385 88.961 101.385 91.985 101.4 95.024L60.2823 96.4299ZM46.9365 10.9279C47.6858 10.9279 48.4464 10.9415 49.2268 10.9552C49.8756 10.9669 50.5335 10.9787 51.1972 10.9826C51.6604 12.2321 51.5144 13.5708 51.3606 14.9818C51.2957 15.5636 51.2312 16.1648 51.2117 16.7648C50.971 23.7353 50.6885 30.8252 50.416 37.6804C50.2862 40.9351 50.1583 44.1894 50.0321 47.4436C50.0094 48.0358 50.0135 48.6105 50.02 49.3329C50.02 49.5284 50.0244 49.7277 50.0257 49.9427C35.9009 50.5596 22.4896 50.912 9.07777 51.0175C9.05746 50.1141 9.03424 49.2136 9.00874 48.3159C8.7927 40.2777 8.58867 32.6857 11.3738 25.2689C13.6983 19.0801 17.8222 15.2287 23.9815 13.4906C29.496 11.9336 35.2654 11.5761 40.8493 11.2288C41.9892 11.1578 43.1294 11.0874 44.2686 11.0066C45.1529 10.9473 46.036 10.9279 46.9365 10.9279ZM9.43128 99.8018V59.1646H50.1645C50.7127 71.6076 50.7327 84.137 50.2247 97.4246L9.43128 99.8018ZM9.33753 108.118V107.527H50.2037L48.7656 146.705C46.5416 146.654 44.3297 146.637 42.1842 146.62C36.7774 146.576 31.6701 146.536 26.5443 146.003C19.2593 145.246 13.8935 140.964 11.0253 133.616C9.50504 129.636 8.85109 125.376 9.10754 121.122C9.2373 118.554 9.2672 115.944 9.29445 113.42C9.30483 112.417 9.3156 111.413 9.33312 110.41C9.34415 109.671 9.34136 108.935 9.34136 108.116L9.33753 108.118Z" fill="black"/>
</g>
<defs>
<clipPath id="clip0_8_2405">
<rect width="157" height="157" fill="white"/>
</clipPath>
</defs>
</svg>
