<svg width="159" height="155" viewBox="0 0 159 155" fill="none" xmlns="http://www.w3.org/2000/svg">
<path d="M81.1052 127.489C72.9876 127.663 65.134 126.369 57.871 122.628C46.3832 116.709 39.9631 107.479 40.1128 94.2585C40.1703 89.2022 42.0765 87.4809 47.1653 87.3089C59.5456 86.8905 71.9441 86.7245 84.2973 85.9004C92.0012 85.3865 99.6739 84.0661 107.293 82.724C113.633 81.6074 119.036 86.0664 118.473 92.7458C117.755 102.855 113.344 112.347 106.081 119.414C100.483 124.948 93.474 127.032 85.8398 127.477C84.2655 127.565 82.683 127.489 81.1052 127.489ZM53.7221 111.518C69.8172 99.0581 86.2251 95.9283 103.94 107.772C107.022 103.092 108.692 97.6242 108.751 92.0212C108.775 90.0399 107.878 89.0804 105.783 89.5436C104.354 89.8596 102.916 90.1304 101.468 90.3561C83.8924 93.1507 66.1762 92.4498 48.4884 92.4512C46.0683 92.4512 44.997 93.2848 45.3735 95.4984C46.4244 101.738 48.6076 107.432 53.7221 111.517V111.518ZM98.019 114.571C89.2574 105.891 68.6274 106.667 60.608 115.835C70.2688 121.64 92.809 121.04 98.019 114.571Z" fill="black"/>
<path d="M58.0355 59.904L49.9645 52.3124C46.3601 48.9233 46.5111 49.2707 42.9073 45.8795C41.3343 44.402 40.0633 42.7897 41.6851 40.6445C42.8363 39.1148 45.0654 39.511 47.2817 41.5093C54.3837 47.9104 57.7355 50.5662 64.8164 56.9903C67.8229 59.7185 67.8805 62.9017 65.0378 65.7768C64.5789 66.2738 64.0551 66.7067 63.4804 67.0635C55.2193 71.7541 46.4258 73.8404 36.9315 72.4177C36.4939 72.3128 36.062 72.1856 35.6375 72.0365C33.795 71.5577 32.6445 70.4452 32.6506 68.4801C32.604 67.6181 32.8958 66.7719 33.4638 66.1218C34.0318 65.4718 34.8311 65.069 35.6916 64.9995C40.0179 64.3129 44.3876 63.8883 48.6983 63.1251C51.7522 62.5834 54.7398 61.6639 57.7565 60.913L58.0355 59.904Z" fill="black"/>
<path d="M105.019 62.8136C110.058 63.1427 114.629 63.4075 119.193 63.7549C121.324 63.8834 123.446 64.1426 125.545 64.5309C127.193 64.8634 128.713 65.9529 128.254 67.7765C127.961 68.9398 126.419 70.1282 122.533 70.8527C121.687 71.0112 108.046 71.0044 99.613 68.9127C96.3579 68.1055 95.821 64.3575 98.4205 61.4641C102.702 56.699 101.693 56.9272 106.319 52.4973C109.236 49.7055 112.617 47.3957 115.804 44.8889C116.421 44.4033 117.071 43.7228 117.767 43.6328C118.823 43.4973 122.211 44.5943 120.234 46.8269C117.278 49.593 105.77 61.5785 105.019 62.8136Z" fill="black"/>
<path d="M2.80593 55.9067C-4.2039 83.4578 1.93438 107.763 21.0631 128.158C21.5608 128.685 22.0687 129.211 22.5759 129.716C32.8516 139.991 45.6503 146.336 55.7913 150.75C60.144 152.651 82.4777 154.96 88.5205 154.059C124.432 148.697 148.064 128.442 156.295 94.5562C157.866 87.9184 158.649 81.1185 158.627 74.2973C158.665 58.2286 151.899 39.5475 137.947 25.5563C136.51 24.3692 135.078 23.1381 133.694 21.9464C130.693 19.3651 127.59 16.6939 124.344 14.4146C99.5459 -3.0382 73.7804 -3.13639 47.7664 6.11954C24.2139 14.4945 9.08782 31.2477 2.80593 55.9067ZM47.8674 14.3698C70.692 4.88431 93.5937 3.2104 115.931 17.4169C120.015 20.0172 130.903 28.8181 132.618 30.1392L132.727 30.2212L132.818 30.3214C141.533 39.5625 151.511 56.4593 151.291 73.8288C151.219 81.256 150.213 88.6447 148.298 95.8212C142.625 116.444 129.06 131.474 106.829 141.754C84.2281 152.575 51.8171 141.636 43.1936 135.942C33.6624 129.426 25.3226 121.319 18.5388 111.976C7.89943 96.9127 5.51178 75.261 11.2289 55.4666C13.9046 46.3274 18.5805 37.8981 24.9175 30.7899C31.2546 23.6818 39.094 18.0728 47.8674 14.3698Z" fill="black"/>
</svg>
