<svg width="161" height="151" viewBox="0 0 161 151" fill="none" xmlns="http://www.w3.org/2000/svg">
<g clip-path="url(#clip0_8_2888)">
<path d="M159.192 16.4842C159.008 16.3055 158.814 16.1366 158.612 15.9782C158.272 15.7212 157.968 15.4197 157.708 15.0816C156.825 13.8063 155.954 12.5187 155.091 11.2303C153.621 9.04533 152.097 6.779 150.506 4.62093C149.432 3.23082 148.141 2.0237 146.681 1.04648C144.766 -0.288507 142.77 -0.160412 140.901 1.4043L140.645 1.6195C137.692 4.10177 134.636 6.65757 131.675 9.22714C127.622 12.7346 125.659 16.6438 125.68 21.1915C125.636 22.7224 125.454 24.2462 125.133 25.7439L125.039 26.2565C124.931 26.9804 124.585 27.6474 124.054 28.152C121.788 29.9458 119.482 31.6791 117.256 33.358L114.97 35.0914L114.767 34.9602C113.965 34.4207 113.176 33.91 112.401 33.4086C110.772 32.4071 109.2 31.3151 107.693 30.138C102.639 25.9111 96.2546 23.604 89.6657 23.6232C88.2014 23.6243 86.7391 23.7279 85.2885 23.933C73.9582 25.4846 65.9922 29.8683 60.9217 37.3341C58.0722 41.7306 55.5996 46.36 53.53 51.173C51.3989 55.9144 47.9997 58.7472 43.1507 59.8262C42.3683 60.0014 41.586 60.1702 40.8036 60.3389C39.7174 60.5745 38.6377 60.8106 37.5593 61.0535C31.3077 62.4764 23.2006 64.6818 16.0249 69.1737C6.5493 75.1083 -2.18457 88.1044 1.01901 102.632C5.05221 120.902 14.9255 135.301 30.3632 145.438C40.7091 152.229 51.6548 152.647 62.8979 146.692C72.6567 141.519 79.5489 133.211 83.9798 121.292C85.5695 116.754 86.9044 112.13 87.9795 107.443C88.3425 105.734 89.1596 104.153 90.3456 102.869C91.531 101.584 93.0412 100.644 94.7168 100.146C96.6117 99.4985 98.5472 98.8848 100.416 98.2915L102.088 97.752C114.14 93.9006 122.443 85.8348 126.772 73.7897C130.71 62.8433 129.065 53.098 121.883 44.8295C121.497 44.3728 121.139 43.8933 120.81 43.3934C120.642 43.1571 120.473 42.9078 120.291 42.6512L120.102 42.3951L120.345 42.1923C121.087 41.5786 121.808 40.9649 122.523 40.3578C124.492 38.692 126.354 37.1143 128.303 35.6172C129.005 35.0777 130.192 35.098 130.981 35.1111C132.141 35.1315 133.321 35.199 134.467 35.266C136.651 35.4459 138.845 35.4641 141.031 35.3204C143.409 35.1716 145.706 34.3969 147.688 33.0745C151.584 30.0049 155.309 26.7244 158.846 23.2479L159.244 22.8704C159.676 22.4968 160.028 22.0405 160.281 21.5285C160.534 21.0165 160.681 20.4592 160.715 19.8893C160.699 19.2492 160.556 18.6187 160.295 18.0342C160.034 17.4497 159.659 16.9228 159.192 16.4842ZM116.69 69.278C113.385 79.7926 106.998 86.186 97.165 88.8166C94.6709 89.4841 92.3022 90.2192 90.1172 91.0015C83.6628 93.3282 79.4885 97.6174 77.6941 103.748C77.465 104.531 77.2287 105.313 76.9931 106.095C76.4024 108.064 75.7854 110.108 75.307 112.138C73.2972 120.615 69.3041 127.67 63.444 133.106C58.1427 138.022 52.7883 140.451 47.2036 140.451C45.5417 140.443 43.8867 140.237 42.2738 139.837C40.5054 139.378 38.8129 138.665 37.2495 137.719C23.1737 129.356 14.5009 116.832 11.466 100.497C9.84021 91.7228 13.3037 84.1356 21.4948 78.5514C26.5256 75.1188 32.5685 73.4123 37.4313 72.0432C39.0026 71.5982 40.6211 71.2136 42.1858 70.8428C42.894 70.6813 43.6022 70.5146 44.3039 70.3374C52.6531 68.287 58.3994 63.438 61.8858 55.5134C63.5516 51.723 65.878 46.8333 69.075 42.5711C76.9793 32.0296 93.4153 29.6622 104.255 37.5061C105.105 38.1711 105.888 38.9165 106.595 39.7318C106.959 40.1256 107.337 40.5272 107.741 40.9387L107.984 41.175L80.9666 67.6464L80.7441 67.5112C74.1551 63.5863 68.7462 63.8896 63.7288 68.4557C57.7732 73.8711 56.4586 80.8782 60.0258 88.1825L60.1406 88.4116L41.0878 105.608L40.8653 105.446C40.5621 105.23 40.2858 104.986 40.0121 104.751C39.5835 104.306 39.0573 103.966 38.4749 103.759C37.4248 103.53 36.0602 103.517 35.3862 104.009C34.9202 104.346 34.6577 106.019 34.9878 106.532C37.2069 109.931 40.188 114.368 43.513 118.523C43.7326 118.816 44.0097 119.063 44.3273 119.246C44.645 119.429 44.9965 119.545 45.3606 119.588C46.1694 119.648 46.9693 119.386 47.5862 118.86C48.6856 117.949 48.8608 116.216 48.0108 114.645C47.5193 113.781 46.9696 112.952 46.3654 112.163C46.0753 111.769 45.7786 111.36 45.4885 110.936L45.3133 110.686L46.7704 109.431C47.64 108.683 48.5038 107.941 49.3531 107.193L52.705 104.272C56.2663 101.163 59.9483 97.9594 63.53 94.763C64.8177 93.6098 65.9167 93.0972 67.7243 93.8796C71.9189 95.7002 76.1143 95.2283 80.1947 92.4901C88.8945 86.6428 90.1284 83.0749 86.804 73.4169L86.7299 73.2148L111.913 49.1987L112.142 49.4955C117.391 56.1672 118.841 62.46 116.69 69.278ZM81.5756 77.7829L81.6229 78.4911C81.7135 79.5635 81.5829 80.6425 81.2396 81.6618C80.8963 82.6818 80.347 83.6203 79.6263 84.4191C78.6379 85.4646 77.4486 86.3008 76.1307 86.8777C74.8121 87.4547 73.3911 87.7605 71.9518 87.7776L71.048 87.8183L81.5756 77.7829ZM64.1554 83.6971L63.9664 83.2187C62.6852 80.0026 63.9599 76.0022 67.2169 73.0349C69.9283 70.5599 72.2885 70.2429 75.3706 71.929L75.7644 72.1443L64.1554 83.6971ZM149.649 20.083C148.785 20.9061 147.943 21.7015 147.12 22.518C146.608 23.0431 146.126 23.5968 145.676 24.1765C144.644 25.4649 143.571 26.7933 142.202 27.1576C139.883 27.7785 137.427 27.7982 134.831 27.8186C133.725 27.8251 132.578 27.8323 131.418 27.8842L130.993 27.9046L131.067 27.493C131.256 26.4428 131.438 25.4223 131.606 24.4247C132.059 21.821 132.483 19.3662 133.057 16.9423C133.272 16.032 134.264 15.2897 135.059 14.6898L135.201 14.5815C136.934 13.2735 138.68 12.0258 140.529 10.7039C141.251 10.185 141.984 9.65658 142.728 9.11884L142.883 9.01114L143.052 9.08537C144.522 9.67607 145.25 10.906 145.958 12.0934C146.25 12.6157 146.579 13.1161 146.943 13.5905C147.82 14.6695 148.683 15.7622 149.594 16.922L151.044 18.75L149.649 20.083Z" fill="black"/>
</g>
<defs>
<clipPath id="clip0_8_2888">
<rect width="160.803" height="150.958" fill="white"/>
</clipPath>
</defs>
</svg>
