<svg width="114" height="143" viewBox="0 0 114 143" fill="none" xmlns="http://www.w3.org/2000/svg">
<g clip-path="url(#clip0_6_2087)">
<path d="M6.52287 85.4827C7.46869 86.5368 8.45976 87.5869 9.41933 88.6023C11.9631 91.1475 14.2871 93.9035 16.3667 96.8406C18.4647 100.147 20.3673 103.572 22.0649 107.1C23.01 108.972 23.9881 110.907 25.0127 112.774L25.5855 113.818C27.9483 118.122 30.3874 122.572 33.0804 126.767C34.5537 128.922 36.3699 130.823 38.457 132.391C42.3174 135.353 46.6009 137.717 51.1638 139.407C56.0112 141.344 61.1838 142.339 66.4038 142.337C72.2958 142.265 78.1293 141.164 83.6425 139.085C87.6784 137.559 91.4103 135.326 94.6638 132.492C98.972 128.844 102.239 124.174 105.258 117.349C108.408 110.226 109.487 102.55 110.529 95.1276C110.839 92.9282 111.158 90.654 111.526 88.4329C111.862 86.0983 112.048 83.7454 112.084 81.3871C112.141 79.8343 112.2 78.2289 112.347 76.6661C113.539 64.0363 113.213 52.7012 111.349 42.0115C110.731 38.3416 109.762 34.7395 108.456 31.2548C106.246 25.479 100.862 21.8744 95.3549 22.4802C94.3166 22.6304 93.296 22.8839 92.3075 23.237C91.9538 23.3492 91.5967 23.4634 91.2344 23.5698C91.1596 23.1904 91.0939 22.8169 91.0296 22.4507C90.8806 21.4359 90.647 20.4352 90.3319 19.4591C90.135 18.9019 89.9447 18.3387 89.7537 17.7743C89.0915 15.5391 88.1791 13.3858 87.0338 11.3553C86.3775 10.2709 85.4941 9.34166 84.4439 8.63157C83.3938 7.92155 82.2025 7.44741 80.9516 7.24204C79.6041 7.02965 78.2264 7.10756 76.9111 7.47045C75.5958 7.83333 74.3737 8.47287 73.3256 9.34626C72.8661 9.72103 72.4264 10.1161 72.0214 10.4791C71.9558 10.5362 71.8954 10.5926 71.8331 10.6478C71.4583 9.96519 71.0953 9.28981 70.7363 8.62166C69.7787 6.84102 68.8743 5.15815 67.8438 3.51731C66.1374 0.798094 63.3965 -0.36297 59.9205 0.155537C58.4088 0.345567 56.9635 0.889851 55.7019 1.7441C54.4404 2.59836 53.3986 3.73842 52.6609 5.0715C51.6209 7.04835 50.6877 9.07952 49.8656 11.1564C49.5774 11.8502 49.2892 12.542 48.9938 13.2272C48.9013 13.0789 48.8075 12.9259 48.7117 12.7677C48.1684 11.8511 47.5784 10.963 46.9441 10.107C44.3358 6.70253 40.8928 5.95362 36.9908 7.94104C32.5107 10.2212 31.5595 14.5504 31.2333 17.6082C30.7953 21.4101 30.5664 25.233 30.5475 29.06C30.5692 37.8983 30.6722 46.8829 30.7713 55.5715C30.8151 59.2982 30.8556 63.0249 30.8928 66.7515C30.9053 68.0189 30.9019 69.2862 30.8986 70.5536V71.9208C30.7417 71.7895 30.5883 71.6583 30.434 71.5204C30.1314 71.2579 29.8176 70.9809 29.4815 70.7361C22.7797 65.8628 15.6448 64.1465 8.27605 65.635C6.67656 65.9199 5.17492 66.6038 3.91083 67.6244C2.64673 68.645 1.66115 69.9682 1.04575 71.4718C0.441699 73.0569 0.24192 74.7673 0.46457 76.4482C0.687217 78.1297 1.32536 79.7292 2.3211 81.1023C3.0652 82.0934 3.91123 83.0031 4.84533 83.8169C5.41372 84.3518 6.00305 84.9032 6.52287 85.4827ZM37.0216 79.9038C36.8903 72.1879 36.7236 64.1518 36.5143 55.3332C36.4723 53.5388 36.3955 51.7161 36.322 49.9513C36.1835 46.6427 36.0398 43.2218 36.1159 39.8679C36.278 32.7276 36.7249 25.4718 37.1568 18.4548L37.2041 17.6975C37.4102 14.343 38.6573 12.5781 41.2432 11.992C43.3547 13.3703 44.6641 15.6412 45.243 18.9393C46.1146 23.8922 46.7279 28.8871 47.0806 33.9038C47.5151 40.1699 47.8459 46.5508 48.1662 52.721C48.3513 56.3033 48.5371 59.8849 48.7432 63.4653C48.7995 64.2983 49.044 65.1078 49.4585 65.8326C49.775 66.3957 50.2806 66.8283 50.8856 67.054C51.4907 67.2792 52.1562 67.2838 52.7639 67.0652C53.3403 66.9569 53.8575 66.6425 54.219 66.1805C54.5806 65.7184 54.7618 65.141 54.729 64.5554C54.7244 63.7081 54.7454 62.8588 54.7664 62.0095C54.8464 60.2658 54.8153 58.5188 54.6732 56.7791C53.7346 47.7288 54.2013 38.527 54.6522 29.6284L54.7546 27.6009C54.9515 23.6629 55.275 19.7978 55.5973 16.2037C55.8992 12.8294 56.9192 10.1568 58.7149 8.0322C59.6738 6.89871 60.4542 6.38026 61.0876 6.4413C61.74 6.50693 62.3917 7.16328 63.138 8.51993C65.632 13.0447 66.2739 18.1418 66.7149 22.9751C67.7145 33.9268 67.7231 45.5308 66.7432 60.599C66.6893 61.4305 66.5869 62.2786 66.4885 63.099C66.3625 64.1413 66.2325 65.2196 66.1977 66.2907C66.1479 67.7826 66.5226 68.8504 67.3096 69.4661C68.0965 70.0817 69.2221 70.1881 70.653 69.7765C71.6578 69.5317 72.5576 68.9692 73.2179 68.1724C73.8789 67.3763 74.2654 66.3885 74.3206 65.3555L74.4276 64.2161C74.7741 61.1277 74.9618 58.0234 74.9894 54.9158C74.9198 46.812 74.6868 38.573 74.4643 30.609L74.4098 28.6682C74.3856 27.8051 74.3009 26.9315 74.2195 26.0862C73.9878 23.6899 73.7692 21.4262 74.7669 19.1946L75.0905 18.4595C75.5912 17.1762 76.2404 15.956 77.0247 14.8234C77.3023 14.3947 77.6882 14.0471 78.1437 13.8158C78.5992 13.5846 79.1072 13.4779 79.6172 13.5067C80.1082 13.5981 80.5663 13.8183 80.9443 14.1445C81.3224 14.4707 81.6072 14.8913 81.7693 15.3636C82.5976 17.4216 83.2297 19.5532 83.6576 21.73C85.2486 28.8926 85.0044 36.3007 84.7682 43.462L84.7577 43.7758C84.4774 52.2708 84.3579 60.7631 84.27 68.6745C84.2418 71.2651 85.0898 72.3835 87.6304 73.1068C88.0741 73.2774 88.5513 73.345 89.0252 73.303C89.499 73.2617 89.9572 73.112 90.3648 72.8666C90.7284 72.5699 91.0198 72.1932 91.2154 71.7665C91.4116 71.3399 91.5068 70.8733 91.4943 70.404C91.5901 68.9036 91.5882 67.3776 91.5869 65.9015C91.5869 65.2636 91.5869 64.6256 91.5921 63.9883C91.6065 62.5999 91.6197 61.2118 91.6308 59.8239C91.6571 56.8454 91.684 53.8663 91.7345 50.8878C91.7601 49.4045 91.8093 47.9205 91.8586 46.4372C91.9465 43.8119 92.0364 41.0933 91.9898 38.4201C91.938 35.6713 93.189 33.4706 94.5496 31.5023C94.7261 31.1915 94.9631 30.9195 95.2459 30.7021C95.5295 30.4847 95.8537 30.3265 96.1996 30.2368C96.5993 30.2033 97.0023 30.2495 97.3843 30.3726C97.7656 30.4958 98.1194 30.6935 98.4246 30.9542C100.131 32.1484 101.301 33.9644 101.683 36.0119L102.145 38.2914C103.244 43.6957 104.377 49.2844 105.117 54.8252C106.03 62.3878 106.057 70.0312 105.196 77.6001C105.1 78.5163 105.091 79.4391 105.17 80.3567C105.997 89.4043 104.097 98.5786 102.57 105.95C101.356 111.751 98.9122 117.224 95.4028 122C91.8533 126.881 86.6847 130.317 79.6008 132.501C66.665 136.495 54.5583 134.339 42.5867 125.911C41.4059 125.127 40.373 124.14 39.5354 122.996C37.4896 120.063 35.5973 117.026 33.866 113.896C31.2315 109.007 28.5732 103.763 25.9663 98.3095C21.9626 89.9425 16.8497 83.3535 10.325 78.1665C9.22059 77.2837 8.29075 76.2021 7.58348 74.9774C7.38396 74.6669 7.25308 74.3164 7.19959 73.9515C7.14603 73.5859 7.17111 73.2131 7.2731 72.858C7.4343 72.4564 7.67754 72.0921 7.98733 71.7895C8.29705 71.4863 8.66651 71.252 9.07212 71.0997C10.3612 70.5254 11.7577 70.232 13.1689 70.2379C13.9327 70.2406 14.6945 70.3147 15.4445 70.4591C21.1809 71.5355 25.0224 73.6693 27.5348 77.1748C28.4196 78.5682 29.1024 80.0804 29.563 81.6654C29.7015 82.0697 29.8406 82.4727 29.985 82.8692C30.5455 84.4096 31.3305 85.8365 33.2608 85.8489C34.9902 85.8437 36.2018 84.8067 36.654 82.961C36.906 81.9614 37.0296 80.9343 37.0216 79.9032V79.9038Z" fill="black"/>
</g>
<defs>
<clipPath id="clip0_6_2087">
<rect width="113.546" height="142.425" fill="white"/>
</clipPath>
</defs>
</svg>
