<svg width="149" height="140" viewBox="0 0 149 140" fill="none" xmlns="http://www.w3.org/2000/svg">
<path d="M96.2262 39.2303C99.3569 37.8224 102.194 36.5349 105.042 35.2714C106.474 34.6361 107.893 33.9522 109.374 33.4534C113.263 32.144 115.116 32.5902 117.497 36.0031C119.762 39.2084 121.794 42.5725 123.576 46.0693C128.401 55.6853 133.051 65.3892 137.688 75.099C138.788 77.4027 139.555 79.866 140.491 82.2951C141.677 82.177 142.876 81.961 144.076 81.961C144.81 81.9275 145.537 82.1166 146.162 82.5025C146.787 82.8891 147.281 83.4555 147.579 84.1276C147.959 84.7629 148.114 85.5072 148.018 86.2417C147.923 86.9754 147.583 87.6561 147.054 88.1732C145.58 89.5214 143.909 90.6371 142.098 91.4818C130.431 96.9518 118.705 102.294 107.022 107.729C103.062 109.572 99.2001 111.629 95.2286 113.444C94.6602 113.639 94.1686 114.009 93.826 114.503C93.484 114.996 93.3081 115.587 93.3259 116.187C93.167 118.648 92.7712 121.088 92.1444 123.472C90.984 127.614 88.5674 131.293 85.2286 134.003C81.8892 136.714 77.7916 138.321 73.4999 138.605C70.1558 138.96 66.7776 138.816 63.4759 138.18C49.6732 135.067 44.3489 120.992 52.3838 109.357C53.2102 108.161 54.1415 107.037 55.2514 105.582C43.3336 76.3913 30.2672 47.5423 17.105 18.3432C15.4576 18.9864 14.0399 19.5528 12.6117 20.0936C10.411 20.9272 8.23132 21.8342 5.98664 22.5273C4.9385 22.9265 3.79329 22.9951 2.70495 22.7241C1.6158 22.2812 0.735598 21.441 0.242401 20.3738C-0.2341 19.1359 0.636195 17.9767 1.89899 17.4484C3.34293 16.8426 4.90961 16.5025 6.31549 15.8252C9.54597 14.2684 12.7601 12.6636 15.8895 10.9151C19.3241 8.99666 21.7532 9.47145 23.7655 12.9573C25.1629 15.3792 26.2727 17.9662 27.5224 20.474C27.716 20.8619 27.97 21.2198 28.3271 21.8072C29.4816 21.2821 30.5757 20.8136 31.6514 20.3029C44.8176 14.0474 57.9647 7.751 71.1548 1.54728C75.4708 -0.482774 77.7004 0.188011 80.1472 4.29537C81.8452 7.19534 83.3712 10.1927 84.718 13.2717C88.0502 20.7401 91.2459 28.2696 94.5138 35.7676C94.9569 36.7842 95.4977 37.762 96.2262 39.2303ZM112.438 41.2461C90.9099 50.3751 70.5923 60.2582 50.1766 70.1804L63.0592 100.033C72.8389 97.7276 81.9725 99.1439 90.01 105.928L132.341 86.1379L112.438 41.2461ZM87.7844 43.003C83.3298 31.4127 78.6718 20.0968 73.5786 8.8734L31.3384 28.3732C37.2231 40.0179 41.1526 52.264 47.0091 63.4007L87.7844 43.003ZM68.5583 130.558C77.4189 130.582 82.6748 126.69 84.2303 118.952C85.2805 113.717 83.6882 110.576 78.7821 108.522C76.6161 107.615 74.3524 106.946 72.1465 106.134C65.9933 103.862 64.4532 104.221 60.2789 109.225C59.1878 110.503 58.2483 111.903 57.479 113.397C56.1571 116.049 55.51 118.869 56.2188 121.864C57.5387 127.454 61.9073 130.539 68.555 130.557L68.5583 130.558Z" fill="black"/>
<path d="M101.786 58.1548C99.9485 57.637 98.408 57.226 97.7779 55.5208C97.4458 54.7863 97.4012 53.9536 97.6532 53.1877C97.9059 52.4219 98.4369 51.779 99.1405 51.386C101.157 50.1898 103.298 49.216 105.524 48.4812C106.394 48.1994 107.338 48.2422 108.179 48.602C109.02 48.9618 109.702 49.6143 110.099 50.4384C110.466 51.2197 110.521 52.1117 110.253 52.932C109.985 53.7524 109.414 54.4394 108.655 54.8529C106.517 56.1971 104.089 57.0778 101.786 58.1548Z" fill="black"/>
<path d="M63.4963 23.6174C61.7294 23.0628 60.1543 22.8483 59.4513 21.1235C59.1159 20.3977 59.059 19.5742 59.2912 18.8093C59.5234 18.0443 60.0287 17.3913 60.7108 16.9745C62.6504 15.7133 64.7681 14.75 66.9932 14.1168C67.8267 13.9151 68.7049 14.0278 69.4604 14.4331C70.2158 14.8384 70.7953 15.5079 71.0881 16.3137C71.4747 17.0803 71.5528 17.9659 71.3066 18.7884C71.0605 19.6109 70.5092 20.3081 69.7656 20.7369C67.811 21.921 65.5979 22.6762 63.4963 23.6174Z" fill="black"/>
</svg>
