<svg width="158" height="156" viewBox="0 0 158 156" fill="none" xmlns="http://www.w3.org/2000/svg">
<g clip-path="url(#clip0_8_2407)">
<path d="M157.566 106.168C157.005 95.9832 156.426 85.4509 155.671 75.1031C154.905 64.2057 152.61 53.4699 148.853 43.2113C146.063 35.3901 141.84 28.1573 136.399 21.8828C125.06 9.08111 110.221 1.84879 92.2915 0.387182C80.3903 -0.583772 68.9101 1.90563 59.249 4.46507C41.8671 9.07451 27.853 18.7116 17.5972 33.1089C6.9847 48.0059 1.32584 65.2803 0.776728 84.4405C0.732048 85.9817 0.677 87.5248 0.621956 89.0674C0.442587 94.0969 0.257397 99.2941 0.466553 104.408C0.656285 109.036 1.25849 113.71 1.84127 118.23C2.04266 119.79 2.24338 121.35 2.42858 122.91C2.77242 125.807 4.72024 127.649 7.91198 128.097C9.06823 128.236 10.2318 128.306 11.3964 128.306C12.2259 128.322 13.0832 128.339 13.9095 128.41C14.7431 128.502 15.5699 128.648 16.3851 128.845C16.6221 128.897 16.8615 128.948 17.1032 128.999C17.1381 129.57 17.1751 130.121 17.212 130.656C17.3084 132.08 17.3997 133.425 17.4062 134.746C17.4257 138.656 18.5252 142.57 20.8673 147.062C23.8331 152.753 28.9059 155.772 35.5367 155.795H35.6144C42.5684 155.795 47.7448 152.612 50.5875 146.587C53.1175 141.224 54.2455 137.012 54.2455 132.929C54.3201 124.72 53.9707 116.511 53.1984 108.337C52.1954 98.8371 45.2369 92.724 35.4487 92.724H35.2868C29.8584 92.7615 25.268 94.5701 22.0122 97.9555C18.7292 101.37 17.0876 106.082 17.2664 111.584C17.2819 112.052 17.3117 112.523 17.3408 112.997C17.4703 115.004 17.5875 116.908 16.6538 118.799C16.253 118.77 15.8541 118.756 15.4649 118.742C13.7431 118.678 12.1126 118.624 10.6459 117.373C10.2962 105.662 10.8272 93.7946 11.4016 82.6377C11.8815 73.1884 13.8497 63.873 17.2333 55.0363C22.6079 41.0196 30.8362 30.5435 42.3935 23.0102C58.1119 12.7654 75.6769 10.7484 90.7872 10.129C116.569 12.8638 132.638 25.5614 139.912 48.9479C142.774 58.4415 144.481 68.2449 144.997 78.1467L145.135 80.3307C145.501 86.1293 145.88 92.1252 146.094 98.0228C146.127 98.9213 146.184 99.8217 146.241 100.727C146.51 103.431 146.474 106.156 146.132 108.852L139.962 110.38C139.906 110.265 139.852 110.156 139.8 110.05C139.614 109.727 139.477 109.378 139.391 109.014C138.576 103.215 135.312 98.7672 128.81 94.5902C125.793 92.7861 122.306 91.9259 118.796 92.1214C115.286 92.3162 111.915 93.5571 109.117 95.6848C105.407 98.6423 103.123 103.112 102.512 108.609C102.159 112.393 102.082 116.197 102.282 119.992C102.325 121.167 102.363 122.344 102.396 123.522C102.462 128.78 102.816 134.031 103.456 139.251C104.758 148.433 110.973 154.257 120.508 155.231C126.71 155.862 131.692 153.597 134.917 148.673C139.107 142.272 140.518 136.344 139.228 130.552C138.534 127.533 138.72 124.378 139.764 121.46C140.795 121.467 141.807 121.491 142.807 121.516C145.284 121.629 147.765 121.585 150.236 121.387C155.785 120.821 158.223 117.912 157.906 112.229L157.566 106.168ZM43.7696 122.729C43.7437 123.326 43.7197 123.912 43.7197 124.481C43.7198 124.54 43.7274 124.598 43.7424 124.655C45.0505 129.277 44.5295 134.224 42.2873 138.471L42.0931 138.86C41.7128 139.694 41.2537 140.49 40.7222 141.236C39.9498 142.261 38.9315 143.076 37.7612 143.605C36.5909 144.133 35.3063 144.358 34.026 144.259C32.7796 144.158 31.5797 143.741 30.5404 143.045C29.5011 142.35 28.6569 141.401 28.0881 140.288C27.2842 138.832 26.7947 137.224 26.6512 135.567C26.2141 127.966 25.8961 120.181 25.7064 112.429C25.5957 107.918 27.9022 105.012 32.1999 104.249C32.9146 104.118 33.6394 104.05 34.366 104.045C37.7941 104.045 40.1168 105.787 41.4332 109.327C42.4784 112.405 43.2269 115.575 43.6685 118.795C43.8351 120.1 43.869 121.418 43.7696 122.729ZM127.82 116.496C127.838 117.258 127.832 118.028 127.828 118.8C127.706 121.177 127.904 123.561 128.416 125.886C129.662 130.482 127.84 134.356 126.076 138.1C124.767 140.883 123.028 142.092 120.592 141.903C116.965 141.623 114.796 140.265 113.772 137.627C112.927 135.662 112.387 133.579 112.169 131.451C111.659 122.385 111.405 115.033 111.371 108.312C111.362 106.648 112.365 104.958 114.123 103.674C115.65 102.554 117.489 101.937 119.383 101.91C120.088 101.905 120.79 102.011 121.463 102.224C122.979 102.793 124.426 103.534 125.773 104.432C126.421 104.824 127.087 105.227 127.801 105.629C127.801 106.807 127.795 107.931 127.79 109.017C127.775 111.617 127.764 114.075 127.819 116.496L127.82 116.496Z" fill="black"/>
</g>
<defs>
<clipPath id="clip0_8_2407">
<rect width="158" height="156" fill="white"/>
</clipPath>
</defs>
</svg>
