<svg width="142" height="131" viewBox="0 0 142 131" fill="none" xmlns="http://www.w3.org/2000/svg">
<g clip-path="url(#clip0_8_2409)">
<path d="M66.6185 125.449L67.3421 125.669C70.0026 126.474 72.5154 127.233 74.1716 130.561C74.2136 130.645 74.2723 130.719 74.3446 130.779C74.4169 130.838 74.5008 130.882 74.5905 130.907C74.6473 130.922 74.7054 130.929 74.7642 130.929C74.8926 130.929 75.0178 130.892 75.1256 130.821C76.3468 130.018 77.497 129.291 78.5891 128.6C80.8773 127.152 82.8536 125.903 84.7435 124.447C91.5221 119.338 97.7075 113.475 103.183 106.965C110.379 98.2636 117.82 89.2656 124.824 79.8467C129.208 73.9503 132.946 67.3678 136.105 61.663C139.264 55.8907 141.145 49.4951 141.618 42.9172C142.476 32.1074 139.929 22.3639 134.051 13.9577C127.509 4.60191 118.807 0.0455045 108.208 0.396793C96.2513 0.80022 85.7356 5.41512 76.9522 14.1139C76.5263 14.5557 76.1319 15.0275 75.7724 15.5256C75.0895 16.425 74.4414 17.2788 73.4661 17.617C63.2209 7.5411 55.3876 3.59962 43.6694 2.58942C31.6433 1.55185 21.9073 5.45696 14.7305 14.1903C11.1688 18.5071 8.04708 23.1754 5.41267 28.1245C-0.202785 38.7407 -1.37292 50.0327 1.9402 61.6891C4.89495 72.0929 9.82176 81.8182 16.4473 90.3254C29.694 107.388 46.5745 119.207 66.6185 125.449ZM17.0121 30.135C18.551 27.207 20.2654 24.3766 22.1455 21.6592C26.6153 15.072 32.9149 11.7475 40.9037 11.7475C41.8934 11.7475 42.9089 11.7985 43.9502 11.9006C54.6209 12.9479 63.1809 17.6946 69.392 26.0082C70.1382 27.0067 70.9508 27.931 71.6673 28.7456C71.959 29.078 72.2333 29.3903 72.4754 29.6765C72.5761 29.7957 72.7155 29.8751 72.8685 29.9011C75.7491 30.403 76.9135 28.8948 77.7778 27.4466C82.7659 19.0932 90.5294 14.1069 102.211 11.7555C104.978 11.2734 107.8 11.2019 110.587 11.5435C115.012 11.9652 118.808 14.1611 121.871 18.0683C125.361 22.5501 127.429 27.9912 127.805 33.6798C128.423 40.2551 127.227 46.8749 124.35 52.8066C122.182 57.4039 119.714 61.8512 116.963 66.1184C111.855 73.717 106.4 81.2714 101.125 88.5767L99.2921 91.1185C95.3638 96.5645 91.3013 102.054 87.3738 107.363C85.9563 109.278 84.5402 111.194 83.1247 113.112C82.5141 113.939 81.8784 114.75 81.2058 115.609C80.9838 115.892 80.7585 116.18 80.5294 116.474C78.6453 115.692 76.8109 114.927 75.012 114.18C70.7662 112.417 66.7179 110.735 62.6793 109.028C51.5007 104.38 41.3752 97.4841 32.9181 88.7612C24.247 79.7528 18.2373 70.1155 14.5465 59.2979C11.1811 49.4305 11.9873 39.8909 17.0121 30.135Z" fill="black"/>
</g>
<defs>
<clipPath id="clip0_8_2409">
<rect width="142" height="131" fill="white"/>
</clipPath>
</defs>
</svg>
