<svg width="159" height="145" viewBox="0 0 159 145" fill="none" xmlns="http://www.w3.org/2000/svg">
<g clip-path="url(#clip0_6_2226)">
<path d="M7.5087 83.6526C3.35519 76.4611 0.867758 68.4295 0.229377 60.1497C-1.2802 40.2627 4.90374 23.4073 20.7294 10.7275C27.8202 5.05613 36.6457 1.99611 45.7253 2.06062C50.4338 2.00182 55.138 2.36923 59.7802 3.15858C68.0748 4.62156 75.832 7.4864 81.7017 14.1272C84.8429 12.1379 87.8371 10.1926 90.8799 8.32599C97.799 4.0754 105.609 1.48725 113.697 0.764935C125.151 -0.304897 134.831 3.9265 143.158 11.5131C154.875 22.1891 158.662 35.7701 157.473 51.1514C156.781 59.3296 154.603 67.3131 151.044 74.7087C150.716 75.4077 150.458 76.1402 150.11 77C150.92 77.3826 151.7 77.825 152.444 78.3225C154.216 79.7008 154.043 81.5478 152.02 82.5972C151.226 83.0186 150.358 83.2831 149.463 83.3763C146.736 83.6054 145.165 85.1767 143.653 87.3491C134.374 100.62 123.377 112.604 110.951 122.988C104.427 128.475 97.6343 133.649 90.8576 138.825C88.5643 140.436 86.1713 141.9 83.693 143.208C82.5431 143.938 81.2147 144.338 79.8528 144.363C78.4909 144.389 77.148 144.04 75.9712 143.354C73.1647 141.746 70.5426 139.813 67.8615 137.991C64.6161 135.784 61.4683 133.424 58.1479 131.339C43.4268 122.094 29.8814 111.431 18.2787 98.4275C16.0399 95.9183 13.9881 93.2319 12.002 90.516C11.6652 89.9443 11.1759 89.4783 10.589 89.1692C10.0021 88.86 9.34067 88.7202 8.67895 88.7662C6.99583 88.7662 5.31513 88.6401 3.65079 88.3894C2.29152 88.2293 1.21445 87.5027 1.26564 86.0404C1.32078 84.4553 2.40972 83.69 3.9764 83.6579C4.97206 83.6362 5.97287 83.6526 7.5087 83.6526ZM72.6297 78.5332C75.7638 76.3673 79.1688 76.2491 82.7045 76.6876C85.4815 77.0873 88.2808 77.3157 91.0853 77.3702C106.578 77.3636 122.071 77.2205 137.563 77.2126C139.635 77.2126 140.779 76.3994 141.777 74.6529C147.647 64.3798 150.791 53.4472 150.189 41.5406C149.445 26.8386 142.247 16.397 129.204 9.87757C124.941 7.78365 120.177 6.91991 115.45 7.38342C108.822 7.87692 102.37 9.74683 96.5053 12.8737C92.8561 14.8427 89.3401 17.0612 85.7519 19.1464C82.3606 21.1154 80.1238 20.8759 77.3416 18.1271C74.6119 15.2684 71.1806 13.1741 67.3902 12.0526C63.1813 10.9119 58.9236 9.68644 54.6108 9.23882C41.4034 7.86773 29.5611 11.0615 20.394 21.2085C6.02018 37.1214 3.5261 60.3702 13.0647 79.0018C13.7138 80.2705 14.523 81.4572 15.184 82.5579C20.818 81.8976 21.6928 81.3482 24.5997 77.2153C25.8765 75.2384 27.3147 73.3704 28.8995 71.6311C31.5288 68.971 34.5093 69.4652 36.4034 72.72C37.1742 74.2381 37.8658 75.7956 38.4755 77.3859C39.0104 75.8416 39.3943 74.838 39.7074 73.8135C40.6309 70.8147 41.3017 67.7095 42.5094 64.8346C43.4126 62.5599 44.7326 60.4739 46.4014 58.6836C49.1199 55.927 52.4455 56.6527 53.9453 60.2068C54.8891 62.4811 55.528 64.8705 55.8454 67.3124C56.673 73.5378 57.2382 79.798 57.9399 86.0404C58.1106 86.9947 58.3327 87.9392 58.6053 88.8692C59.5649 85.7798 60.1622 83.1427 61.2175 80.7037C61.9853 78.9716 63.0808 77.4043 64.4434 76.0877C66.3781 74.2204 68.4699 74.3845 70.4415 76.1743C71.1773 76.8451 71.8034 77.634 72.6297 78.5332ZM50.1963 63.8797L49.1751 63.7674C48.6881 65.1155 48.1368 66.4454 47.7259 67.8165C46.5681 71.681 45.5697 75.5967 44.3036 79.4245C43.6642 81.4539 42.7535 83.3875 41.5963 85.1734C40.0342 87.4922 37.3302 87.4771 35.6795 85.2127C34.8375 83.8981 34.1752 82.4771 33.7105 80.9866C33.2648 79.7907 33.0423 78.5109 32.6164 76.8628C30.5568 79.5105 29.0976 82.1686 26.9245 83.9637C24.6837 85.8153 21.7493 86.8267 18.7538 88.3966C21.5288 91.6081 24.267 95.1569 27.3886 98.3185C37.711 108.816 49.3696 117.91 62.0642 125.366C66.4064 127.913 70.5426 130.811 74.8856 133.356C77.1742 134.698 79.7655 135.242 82.2103 133.607C85.1907 131.614 88.1141 129.53 91.0052 127.411C104.551 117.572 116.934 106.223 127.914 93.585C130.451 90.6459 132.848 87.5861 135.615 84.2085C134.921 84.0517 134.219 83.9329 133.511 83.8528C115.801 83.2621 98.0287 84.202 80.3942 81.6469C79.1807 81.576 77.9697 81.8195 76.8776 82.3544C75.2846 83.0291 73.6805 84.8242 72.3252 84.6083C70.7946 84.3648 69.5345 82.4227 67.9652 81.0522C67.4847 82.4417 66.8664 83.8745 66.5002 85.3676C65.8071 88.1984 65.3767 91.0962 64.6094 93.904C64.1383 95.8612 63.3867 97.7403 62.3779 99.4828C60.5185 102.448 56.9559 102.274 55.365 99.179C54.3299 97.3149 53.6054 95.2941 53.22 93.1971C52.3727 87.3261 51.8089 81.4132 51.2024 75.5094C50.804 71.6377 50.5271 67.7561 50.1963 63.8797Z" fill="black"/>
</g>
<defs>
<clipPath id="clip0_6_2226">
<rect width="158.177" height="144.394" fill="white"/>
</clipPath>
</defs>
</svg>
