<svg width="149" height="145" viewBox="0 0 149 145" fill="none" xmlns="http://www.w3.org/2000/svg">
<g clip-path="url(#clip0_8_2411)">
<path d="M38.2704 34.6819C38.2704 32.648 36.8091 31.3404 35.7648 29.8367C32.7392 25.4822 29.5927 21.2073 26.6648 16.7887C24.2769 13.3537 22.5981 9.48112 21.7258 5.39577C21.5899 4.65114 21.6341 3.88511 21.8551 3.16096C22.076 2.4368 22.4676 1.77545 22.9966 1.23164C23.5077 0.680395 24.1737 0.2951 24.9082 0.126166C25.6427 -0.0427667 26.4112 0.0124123 27.1137 0.28452C29.2947 1.24255 30.8087 2.93279 32.2669 4.66437C38.128 11.6244 43.9596 18.6093 49.7618 25.6194C55.3366 32.325 60.992 38.9673 66.4266 45.7822C72.3333 53.1883 78.0233 60.7644 83.8147 68.2613C85.4375 70.3612 86.9906 72.5232 88.7369 74.517C96.4921 83.3697 103.448 92.8362 110.54 102.207C113.281 105.829 116.365 109.191 119.147 112.784C125.64 121.172 132.077 129.603 138.458 138.076C139.955 140.067 139.354 142.991 137.526 144.107C136.682 144.547 135.723 144.719 134.778 144.6C133.833 144.481 132.948 144.075 132.242 143.439C131.171 142.372 130.144 141.259 129.145 140.126C120.622 130.453 112.1 120.779 103.581 111.104C103.1 110.514 102.469 110.062 101.754 109.795C101.039 109.527 100.265 109.453 99.5118 109.58C96.8909 110.015 94.289 110.56 91.6753 111.042C77.4539 113.666 63.6604 111.717 50.156 107.064C38.2438 102.959 26.9191 97.6374 16.6778 90.2495C13.5744 88.0674 10.6457 85.649 7.91811 83.0169C5.80075 80.8536 3.9601 78.4384 2.43774 75.8265C-0.910535 70.2531 -0.515062 67.6586 4.08312 62.6825C12.6054 53.4909 22.3108 45.4595 32.947 38.7964C34.8398 37.6027 37.18 36.9449 38.2704 34.6819ZM59.1267 58.3091C56.0849 53.4872 52.1939 49.3917 48.0792 45.5194C47.3928 44.8721 45.9384 44.7744 44.8733 44.8592C43.7479 45.0207 42.6651 45.3989 41.6852 45.9725C30.5264 51.7621 20.4966 59.1519 11.1135 67.4463C10.7471 67.7421 10.4447 68.1085 10.2243 68.5241C10.004 68.939 9.8702 69.3941 9.83129 69.8621C9.79238 70.3301 9.84899 70.8014 9.99779 71.2467C10.1466 71.6921 10.3844 72.1031 10.6971 72.4553C13.2142 75.2821 16.1192 77.7426 19.3262 79.7642C30.4485 87.1618 42.5655 92.4517 55.3476 96.2165C65.6602 99.2518 76.2164 99.7949 86.8728 98.4303C87.6757 98.3572 88.4448 98.0749 89.1026 97.6108C89.7604 97.1467 90.2829 96.5181 90.6173 95.7886C89.5704 94.4053 88.4279 92.921 87.312 91.4172C84.4758 87.5948 81.2974 84.5556 75.9086 86.0814C75.1571 86.1843 74.3959 86.1888 73.6437 86.0943C65.5795 86.1008 55.8156 79.4521 57.2119 67.2087C57.547 64.2612 58.4487 61.38 59.1267 58.3066V58.3091Z" fill="black"/>
<path d="M120.123 100.556C117.372 99.0719 115.583 96.7189 113.971 94.0221C113.466 93.1955 113.271 92.2168 113.421 91.2607C113.571 90.3046 114.056 89.432 114.791 88.7976C115.114 88.5193 115.458 88.2662 115.821 88.0415C120.03 85.462 123.925 82.4066 127.427 78.9357C141.077 65.4895 140.336 68.7837 127.427 56.1423C119.424 48.3097 109.302 43.807 98.5963 40.7465C92.0103 38.8641 85.2787 37.6969 78.3681 37.9629C76.4714 38.0367 74.5702 37.9939 72.6722 38.0399C69.8015 38.1105 67.5451 36.8244 65.6842 34.8125C64.6673 33.712 63.8494 32.4284 62.9378 31.2309C62.373 30.4884 63.0621 28.8028 63.9951 28.4946C71.3996 26.0484 78.9901 26.3124 86.5533 27.2284C107.309 29.7426 124.756 39.1391 139.832 53.1951C142.298 55.4943 144.326 58.2926 146.369 60.9997C147.922 63.1812 148.742 65.7957 148.712 68.4685C148.742 69.9372 148.697 71.6591 147.984 72.8508C141.317 84.0022 133.623 94.2209 121.484 100.128C121.04 100.3 120.586 100.443 120.123 100.556Z" fill="black"/>
<path d="M96.2142 66.2163C96.0295 67.6812 94.9376 70.9754 94.3924 70.3009C90.13 65.0576 83.693 57.3836 79.6063 52.0017C79.4384 51.7187 79.344 51.3985 79.3317 51.0701C79.3193 50.7417 79.3889 50.4155 79.5347 50.1206C79.793 49.8652 80.1047 49.6689 80.4469 49.5453C80.7892 49.4218 81.1548 49.374 81.5172 49.4053C84.8883 49.9392 88.0231 51.4571 90.5256 53.7664C94.3807 57.2775 96.7556 61.9193 96.2142 66.2163Z" fill="black"/>
</g>
<defs>
<clipPath id="clip0_8_2411">
<rect width="149" height="145" fill="white"/>
</clipPath>
</defs>
</svg>
