<svg width="161" height="158" viewBox="0 0 161 158" fill="none" xmlns="http://www.w3.org/2000/svg">
<g clip-path="url(#clip0_8_2417)">
<path d="M150.469 50.9812C147.986 48.2069 145.351 45.5736 142.575 43.094C141.625 42.2123 140.675 41.3318 139.739 40.4398C137.16 37.982 134.57 35.5344 131.97 33.097C127.844 29.2127 123.577 25.1966 119.447 21.1809C114.188 16.0716 107.107 9.50842 98.9203 4.05968C93.3555 0.353513 87.5069 -0.54956 81.5369 1.36139C78.5863 2.30484 75.4857 3.37699 72.8682 5.15596C65.1506 10.3999 58.5424 15.2008 52.6659 19.8316C45.5157 25.4669 38.3232 31.2916 31.3684 36.9243C25.8503 41.3932 20.1432 46.0148 14.4946 50.5135C8.71677 55.1137 5.13257 60.2206 3.53945 66.125C2.35708 70.3306 1.68293 74.6629 1.53148 79.0297C1.43085 83.4992 1.55745 88.0402 1.68015 92.4311C1.78272 96.1314 1.88984 99.9578 1.85933 103.714C1.85154 104.726 1.84743 105.739 1.84701 106.755C1.83467 112.325 1.82233 118.086 0.797253 123.523C-1.15033 133.844 2.80973 142.44 12.5613 149.076C19.6641 153.907 27.9615 154.885 35.9849 155.831C47.1614 157.12 58.4043 157.746 69.6547 157.706C75.4572 157.706 81.5064 157.562 87.8828 157.277L98.919 156.85C108.203 156.49 118.055 156.109 127.904 155.722C133.963 155.541 139.964 154.483 145.721 152.584C151.317 150.702 155.394 147.096 157.501 142.157C159.55 137.36 160.605 133.21 160.727 129.467C161.317 110.099 160.656 90.7126 158.747 71.4294C157.96 63.3245 155.174 56.4461 150.469 50.9812ZM58.5677 144.063C58.7021 142.632 58.8274 141.28 58.8624 139.931C59.0122 133.826 59.1509 127.72 59.2786 121.614C59.405 115.826 59.5361 110.039 59.672 104.253C59.7661 100.368 59.907 97.4006 60.1303 94.6301C60.4685 90.4135 61.9312 88.7132 65.9251 87.8803C70.3234 86.8861 74.7963 86.2574 79.2985 86.0012C82.8995 85.8711 86.5915 86.0239 90.1588 86.1754C92.3622 86.2678 94.6383 86.3646 96.8845 86.3926C98.9145 86.4186 99.9175 87.3029 100.236 89.3582C100.495 91.0377 100.807 92.7393 101.107 94.3849C101.913 98.2361 102.427 102.143 102.645 106.072C102.904 115.106 102.854 123.987 102.802 133.39C102.782 136.988 102.768 140.62 102.76 144.286C87.9723 145.353 73.4564 145.755 58.4346 145.529C58.4775 145.024 58.5236 144.54 58.5677 144.063ZM114.063 107.529C113.518 101.02 112.068 94.5007 110.665 88.1956L110.222 86.1962C108.937 80.384 105.064 76.9269 99.0197 76.1987C84.3362 74.4295 73.1376 74.7221 62.7083 77.1512C53.6617 79.2585 48.9233 84.6865 48.2234 93.7445C47.7924 99.3245 47.8424 105.022 47.8911 110.531C47.9047 112.062 47.9177 113.592 47.9216 115.12C47.9359 120.887 48.0066 126.747 48.0748 132.415C48.115 135.769 48.1518 139.124 48.1851 142.478C48.1903 143.088 48.1345 143.719 48.0689 144.45C48.0514 144.645 48.0332 144.852 48.0151 145.066C40.6013 144.722 34.3632 144.184 28.2185 142.771C25.2608 142.092 21.8655 141.236 19 139.677C13.7909 136.844 11.3583 132.947 11.5628 127.763C11.7323 123.476 11.781 118.885 11.7115 113.728C11.5817 104.017 11.3869 94.1443 11.1993 84.5987L11.1103 80.0531C11.0013 74.5465 12.0763 69.9463 14.3959 65.9917C15.5865 63.9606 16.8934 61.8538 18.6118 60.3615C27.3908 52.7392 35.3876 46.0077 43.0572 39.7788C51.3896 33.0166 61.1106 25.1775 71.0459 17.7756C74.5405 15.1715 78.5116 13.195 83.4046 11.0272C84.7523 10.4092 86.2156 10.0835 87.6984 10.0709C90.0744 10.0709 92.4531 10.9557 94.8849 12.7321C101.725 17.7309 107.819 23.7529 113.712 29.5761C115.277 31.123 116.842 32.6706 118.423 34.2019C119.908 35.6397 121.39 37.0795 122.871 38.5213C127.993 43.5018 133.289 48.6526 138.623 53.5883C143.672 58.1274 146.87 64.3733 147.604 71.1284C148.475 78.7481 149.221 85.628 149.532 92.6547C149.963 102.384 150.196 113.065 150.246 125.308C150.19 128.691 149.734 132.055 148.889 135.33C148.596 136.862 147.836 138.265 146.715 139.346C145.593 140.428 144.164 141.134 142.625 141.369C141.702 141.548 140.779 141.743 139.857 141.938C137.458 142.5 135.025 142.907 132.575 143.159C128.503 143.484 124.434 143.614 120.126 143.755C118.481 143.809 116.808 143.863 115.097 143.929C115.064 143.055 115.029 142.209 114.995 141.384C114.909 139.25 114.826 137.236 114.781 135.233C114.717 132.351 114.698 129.414 114.68 126.574C114.635 120.322 114.593 113.858 114.063 107.529Z" fill="black"/>
</g>
<defs>
<clipPath id="clip0_8_2417">
<rect width="161" height="158" fill="white"/>
</clipPath>
</defs>
</svg>
