<svg width="157" height="160" viewBox="0 0 157 160" fill="none" xmlns="http://www.w3.org/2000/svg">
<g clip-path="url(#clip0_8_2415)">
<path d="M151.109 66.6515C150.172 65.8042 149.203 64.9277 148.278 64.0429C140.553 56.6493 132.83 49.2525 125.108 41.8532C111.885 29.1867 98.6566 16.5271 85.424 3.87434C80.6559 -0.681452 78.5806 -0.64129 73.7382 4.10365L70.3139 7.45858C53.4749 23.9548 36.0627 41.0132 18.878 57.7297C15.2276 61.2801 11.4112 64.7904 7.72005 68.1815C5.93381 69.8223 4.15124 71.4683 2.37233 73.1188C1.60542 73.8314 -0.728912 76.0066 1.27978 78.3451C2.62494 79.9114 4.4198 79.8162 6.61394 78.0633C8.04374 76.9193 9.47224 75.7313 10.8542 74.5783C11.7458 73.8346 12.6394 73.0949 13.5349 72.3571C13.9264 72.0332 14.3341 71.7404 14.953 71.2934L15.1559 71.1464C15.1559 72.5268 15.1649 73.867 15.1714 75.1729C15.1882 78.746 15.2037 82.1216 15.1397 85.4758C15.017 91.8557 14.8787 98.2349 14.725 104.615C14.535 112.937 14.3373 121.543 14.1984 130.008C14.1092 135.384 14.0582 141.095 14.4891 146.655C14.9543 152.657 17.2499 154.832 23.5874 155.271C27.4368 155.539 31.3508 155.842 35.1363 156.137C42.6238 156.72 50.3659 157.32 57.9969 157.671C76.2237 158.509 94.738 159.145 113.026 159.562C113.672 159.576 114.326 159.584 114.987 159.584C120.335 159.543 125.675 159.157 130.973 158.427C138.914 157.395 141.79 154.615 142.807 146.983C144.084 137.412 144.944 127.332 145.437 116.166C145.872 106.29 146.036 96.5948 146.208 86.3315C146.274 82.4532 146.345 78.5433 146.421 74.6016C147.095 75.2383 147.677 75.7883 148.289 76.3188C150.72 78.4254 153.336 78.6068 155.112 76.7917C155.513 76.3946 155.829 75.9205 156.042 75.3984C156.256 74.8756 156.362 74.3153 156.355 73.7511C156.26 72.1828 155.549 70.7169 154.377 69.6746C153.309 68.6427 152.19 67.6277 151.109 66.6515ZM61.3669 96.701L91.8287 93.8158L92.7843 151.767L60.1768 150.51L61.3669 96.701ZM100.843 102.118C100.835 99.1814 100.677 96.2048 100.525 93.3268C100.486 92.5928 100.448 91.8583 100.411 91.1243C100.309 89.0625 99.7427 87.6102 98.6811 86.6832C97.6015 85.7407 96.0373 85.3702 93.9001 85.5639C81.5345 86.6592 70.1989 87.5953 59.2458 88.4244C54.601 88.7762 53.0355 90.4675 53.0394 95.1282C53.0588 115.043 53.0536 130.32 53.0213 144.664C52.9948 145.92 52.9043 147.174 52.75 148.421C52.7022 148.879 52.6524 149.348 52.6065 149.832L21.8223 147.912C21.7667 147.435 21.706 146.97 21.6452 146.514C21.4556 145.3 21.3476 144.075 21.3222 142.846C21.3532 137.491 21.4159 132.047 21.4766 126.781C21.5483 120.498 21.6226 114.001 21.6446 107.611C21.6659 101.591 21.6498 95.4715 21.6349 89.5535C21.6168 82.3982 21.5981 74.9993 21.6433 67.7235C21.6412 66.417 22.1016 65.1525 22.9425 64.1542C36.8406 50.7745 51.0475 37.2502 64.7879 24.1717L71.1997 18.0672C73.2523 16.1128 75.3185 14.1741 77.4286 12.1932L80.0388 9.74069C81.8944 11.5234 83.7448 13.2968 85.5894 15.0614C89.8575 19.1475 94.2709 23.3738 98.5545 27.5513C104.009 32.8716 109.455 38.1994 114.893 43.535C121.825 50.3262 128.991 57.3473 136.067 64.2273C137.523 65.6435 138.187 66.7758 137.779 69.0366C137.538 70.8581 137.544 72.7036 137.797 74.5238C137.931 75.7002 137.996 76.8837 137.991 78.0678L137.922 80.7885C137.641 91.7624 137.351 103.109 136.819 114.254C136.502 120.91 135.979 127.673 135.48 134.213C135.253 137.162 135.028 140.112 134.816 143.061L134.807 143.195C134.787 143.47 134.768 143.746 134.733 144.019C133.993 149.882 133.481 150.408 127.895 151.052C118.924 152.092 109.88 152.374 100.862 151.894L100.866 139.013C100.872 126.899 100.877 114.374 100.844 102.118H100.843Z" fill="black"/>
</g>
<defs>
<clipPath id="clip0_8_2415">
<rect width="157" height="160" fill="white"/>
</clipPath>
</defs>
</svg>
