<svg width="127" height="142" viewBox="0 0 127 142" fill="none" xmlns="http://www.w3.org/2000/svg">
<g clip-path="url(#clip0_6_2089)">
<path d="M125.518 74.9801C125.373 71.7673 124.418 68.5631 123.496 65.4631L123.383 65.0865C122.936 63.5731 122.15 62.1822 121.082 61.02C120.014 59.8578 118.696 58.9552 117.226 58.3813C112.67 56.4641 108.393 57.0857 104.505 60.2269C102.712 56.1347 99.7828 53.5184 95.7923 52.4486C91.1146 51.195 87.3137 52.194 84.4869 55.4206C79.6923 48.8375 76.1474 48.147 68.5681 52.3358C68.4841 51.0826 68.4033 49.8355 68.3272 48.5946C68.1303 45.4868 67.9334 42.2727 67.6197 39.1341C67.0014 32.8989 66.2971 26.2043 65.3405 19.4217C64.7871 15.7965 63.3326 12.3681 61.1108 9.4506C58.4855 5.89327 54.8587 5.11091 50.8898 7.24596C49.6979 7.86305 48.6492 8.72391 47.8116 9.77267C46.9741 10.8215 46.3663 12.0347 46.0282 13.3335C45.5213 15.082 45.2115 16.8817 45.1042 18.6991C45.0491 19.8831 44.9921 21.0669 44.9334 22.2505C44.6472 28.1438 44.3507 34.2373 44.3559 40.2342C44.3612 47.5248 44.5299 54.669 44.7085 62.2333C44.778 65.1697 44.8435 68.1299 44.9052 71.113C44.8573 71.0696 44.8108 71.0276 44.7655 70.9856C44.4176 70.6581 44.0532 70.349 43.6739 70.0589C36.8749 65.0706 29.6434 63.336 22.1789 64.9001C20.6362 65.1956 19.1903 65.8668 17.9687 66.854C16.7472 67.8418 15.7877 69.1144 15.1752 70.561C14.5544 72.0719 14.3153 73.7127 14.4791 75.3385C14.6429 76.9635 15.2044 78.5237 16.1142 79.881C17.2756 81.5684 18.6676 83.0859 20.2493 84.388C25.4335 88.8059 29.7114 94.1878 32.8463 100.235C36.6681 107.651 40.9851 115.462 46.8396 125.546C48.2333 127.762 50.0148 129.709 52.0993 131.293C56.2801 134.584 60.9739 137.166 65.9926 138.934C70.6217 140.676 75.5272 141.567 80.4734 141.566C86.2957 141.497 92.0617 140.418 97.5145 138.378C101.553 136.867 105.293 134.659 108.566 131.852C114.493 126.948 118.622 120.244 121.193 111.358C124.615 99.5508 126.076 87.2608 125.518 74.9801ZM51.0891 79.1229C50.9579 71.2928 50.784 63.0248 50.5818 54.5495C50.5405 52.8057 50.4632 51.0342 50.3851 49.3212C50.2492 46.1832 50.1074 42.9383 50.1803 39.757C50.3372 32.9055 50.7394 25.9424 51.1286 19.2084L51.2423 17.2446C51.3959 14.5648 51.9977 11.9841 55.3063 11.2116C57.4223 12.5958 58.7324 14.8746 59.31 18.1687C60.1782 23.122 60.7891 28.1169 61.1409 33.1332C61.5958 39.6848 61.9379 46.3565 62.2693 52.8076C62.4383 56.1051 62.6131 59.4023 62.7943 62.6993C62.9091 64.7549 63.7454 65.9423 65.3488 66.3302C66.9679 66.724 68.3022 65.859 69.311 63.7626L69.7633 62.8182C70.6985 60.8629 71.6666 58.8407 72.7647 56.9465C73.4276 55.8032 74.628 54.5233 76.6043 54.9191C77.4332 55.0776 78.1887 55.5003 78.757 56.124C79.3254 56.7476 79.6766 57.5386 79.758 58.3786C80.0907 60.454 80.2555 62.5527 80.2522 64.6545C80.2627 67.528 80.6368 68.9359 82.7312 69.1649C84.7849 69.3881 85.4963 68.1804 86.3069 65.3811C86.8674 63.2456 87.6498 61.1745 88.6408 59.2017C89.9095 56.8494 91.4198 56.3236 94.2151 57.2642C96.9717 58.1922 98.6218 60.0254 99.1081 62.7118C99.3562 64.2862 99.5026 65.8747 99.5472 67.4683C99.5669 67.8759 99.5892 68.2828 99.6128 68.6884C99.7001 70.2249 100.053 71.8677 102.008 72.4046C103.964 72.9415 105.028 71.7194 105.881 70.3175C106.127 69.9138 106.367 69.5049 106.607 69.0954C107.291 67.8569 108.074 66.6774 108.952 65.5682C110.336 63.9182 111.924 63.1134 113.421 63.3025C114.918 63.4915 116.256 64.6663 117.187 66.6098C119.55 71.5376 120.408 77.2333 119.742 83.5394C119.069 89.9137 118.093 96.6773 116.668 104.824C115.545 110.759 113.085 116.361 109.474 121.204C105.957 126.083 100.792 129.524 93.6822 131.722C80.7221 135.725 68.614 133.576 56.6648 125.143C55.4015 124.281 54.2982 123.205 53.4043 121.964C51.4208 119.123 49.5939 116.177 47.9321 113.137C45.2175 108.077 42.5602 102.832 40.0346 97.5463C36.031 89.1741 30.9166 82.5818 24.3953 77.3967C23.29 76.514 22.3589 75.433 21.6497 74.2089C21.4504 73.8978 21.3198 73.548 21.2665 73.1824C21.2132 72.8168 21.2386 72.4447 21.3408 72.0896C21.5001 71.6872 21.7417 71.323 22.05 71.0191C22.3584 70.7159 22.7267 70.4802 23.1314 70.3273C24.4172 69.7504 25.8115 69.4544 27.2209 69.4596C27.9867 69.4623 28.7505 69.5384 29.5018 69.6867C35.6057 70.8596 39.4569 73.0918 41.9937 76.9242C42.734 78.1824 43.3009 79.5344 43.6791 80.9442C43.8005 81.3262 43.9228 81.7076 44.0502 82.083C44.5503 83.5538 45.3306 85.0588 47.3213 85.0726H47.3502C49.0389 85.0726 50.2649 84.0225 50.7158 82.1887C50.9716 81.1871 51.0976 80.1566 51.0911 79.1229H51.0891Z" fill="black"/>
<path d="M16.6169 5.39119C17.1262 4.80048 18.4789 3.22529 16.905 1.66583C15.9297 0.699047 14.659 0.791564 13.4172 1.92506C9.4339 5.56183 5.20981 9.44932 1.20221 13.4766C0.398201 14.2839 -0.154563 16.4006 0.414482 17.2328C3.49074 21.7327 6.84655 26.2621 10.3973 30.695C10.6431 30.9869 10.951 31.2204 11.2982 31.3785C11.6455 31.5367 12.0236 31.6154 12.4051 31.6093H12.4301C12.8379 31.6109 13.2405 31.5195 13.6075 31.3419C13.9746 31.1644 14.2964 30.9054 14.5481 30.5847C14.8959 30.0535 15.1298 29.4559 15.2349 28.8297C15.3401 28.2035 15.3144 27.5623 15.1593 26.9466C14.7733 25.8746 14.1772 24.8902 13.4066 24.0509C13.2524 23.8573 13.0989 23.6649 12.9519 23.4733C11.9103 22.116 10.8411 20.7981 9.70962 19.404C9.33157 18.9385 8.94827 18.4654 8.55972 17.985L8.7158 17.9312C8.88743 17.8541 9.07074 17.806 9.25806 17.7888C12.1586 17.8032 15.0589 17.822 17.959 17.8452C22.4589 17.878 26.959 17.9108 31.4582 17.9187H31.7908C34.2648 17.9749 36.7399 17.8793 39.2022 17.6325C40.0291 17.5701 40.8041 17.2051 41.3788 16.6073C41.9537 16.0096 42.2879 15.221 42.3179 14.3922C42.3726 13.5598 42.0986 12.7391 41.5548 12.1064C41.011 11.4738 40.2407 11.0797 39.4096 11.0088C36.969 10.6902 34.5065 10.5747 32.0469 10.6635C27.0666 10.8572 22.0049 11.1335 17.1152 11.4C15.2232 11.5037 13.3312 11.6057 11.4392 11.7058L11.2678 11.4275C11.746 10.8906 12.2255 10.3548 12.7064 9.82015C13.9974 8.3749 15.3331 6.88501 16.6169 5.39119Z" fill="black"/>
<path d="M94.4036 9.77569C92.4727 9.83214 90.5418 9.88248 88.6115 9.92671C84.9944 10.016 81.2533 10.1071 77.5751 10.2594C75.9756 10.2886 74.3945 10.6059 72.9073 11.196C72.0987 11.5419 71.4961 12.9845 71.5355 13.948C71.5696 14.7776 72.839 15.6 73.54 15.8278C74.3479 16.0383 75.1854 16.1122 76.0183 16.0463C76.229 16.0411 76.439 16.0365 76.6458 16.0365C79.9366 16.0365 83.2269 16.0339 86.5171 16.0287C90.0731 16.0238 93.6305 16.0214 97.1872 16.0214C97.7122 16.0214 98.2577 16.0687 98.9442 16.1271C99.1411 16.1441 99.3537 16.1625 99.5808 16.1809C99.277 16.5196 98.9901 16.8373 98.7118 17.1464C97.8409 18.1119 97.0881 18.946 96.3786 19.8203C96.2105 20.0264 96.0399 20.2325 95.8686 20.4386C94.9733 21.4204 94.2159 22.5199 93.618 23.7065C93.2071 24.6312 93.2531 26.3443 93.9265 27.084C94.5329 27.7502 95.7642 27.7856 96.8498 27.8171L97.1839 27.827H97.2259C97.8737 27.7531 98.4697 27.4357 98.893 26.9389C99.615 26.136 100.34 25.3351 101.067 24.5361C103.758 21.5688 106.544 18.4978 109.108 15.3363C110.564 13.5405 110.4 11.7014 108.634 10.0198C105.3 6.84252 101.839 3.74792 98.3482 0.821962C97.6486 0.235849 96.0622 0.256847 95.2529 0.685437C94.5474 1.05955 94.2717 2.6341 94.4726 3.42368C94.8119 4.53788 95.3973 5.56162 96.1856 6.41922C96.8984 7.21893 97.6604 7.97339 98.467 8.67829C98.7512 8.94083 99.0577 9.2178 99.382 9.52234C98.853 9.55122 98.362 9.57944 97.9 9.60635C96.5545 9.68249 95.4912 9.74419 94.4036 9.77569Z" fill="black"/>
</g>
<defs>
<clipPath id="clip0_6_2089">
<rect width="126.017" height="141.769" fill="white"/>
</clipPath>
</defs>
</svg>
