<svg width="90" height="157" viewBox="0 0 90 157" fill="none" xmlns="http://www.w3.org/2000/svg">
<g clip-path="url(#clip0_6_1963)">
<path d="M29.8585 17.589C30.1965 15.2143 30.2921 12.9499 30.8677 10.8142C32.1574 6.0295 35.1747 2.78523 40.0519 1.41283C43.1733 0.455055 46.4667 0.192826 49.7002 0.644806C55.476 1.5512 59.4139 5.66193 59.9324 11.4712C60.0309 12.5784 59.9468 13.7028 59.9468 14.7299C60.2429 15.0016 60.574 15.2322 60.9314 15.4158C71.8394 18.6462 78.9883 26.1383 83.5137 36.1468C85.9001 41.4251 87.1446 47.2088 89.2232 52.6419C90.2773 55.3985 90.02 57.6413 88.813 60.2647C84.5947 69.4316 80.7466 78.768 76.5309 87.9364C69.2193 103.835 61.8051 119.685 54.2878 135.489C51.4886 141.353 48.2668 147.023 45.0914 152.699C42.8494 156.706 41.1127 156.522 36.9417 154.658C32.9728 152.886 31.6555 149.77 30.4091 146.295C21.7402 122.128 13.095 97.9528 4.47382 73.7694C2.89861 69.3365 1.64644 64.7869 0.33902 60.2634C0.138123 59.4032 0.155061 58.5063 0.388694 57.6544C2.87789 47.3583 7.67191 37.7616 14.409 29.5875C17.6992 25.5902 21.6927 22.2282 26.1922 19.6676C27.4511 18.9384 28.7224 18.2315 29.8585 17.589ZM39.2584 145.781H40.0263C43.8042 138.03 47.4987 130.237 51.377 122.537C61.1118 103.209 70.8904 83.9032 80.7125 64.6195C81.3576 63.3455 81.9634 62.0518 82.5666 60.8127C82.2266 60.577 82.1334 60.4563 82.0415 60.4576C69.1366 60.6473 56.2315 60.7858 43.3292 61.0628C32.4425 61.2978 21.5591 61.6895 10.675 62.0381C9.74626 62.1313 8.82398 62.2807 7.91318 62.4851C18.4362 90.4476 28.8476 118.114 39.2584 145.781ZM81.884 52.8198C80.3206 45.0993 78.0385 38.4144 73.8111 32.4076C69.2226 25.8902 63.0092 22.1439 55.3025 20.5897C51.3848 19.8021 47.4851 20.0888 43.5746 20.5594C35.2225 21.4616 27.4796 25.3576 21.7777 31.5268C16.0032 37.6885 11.5448 44.9624 8.67499 52.9044C8.4563 53.6649 8.28545 54.4383 8.16317 55.22C9.13127 55.22 9.7928 55.2521 10.4498 55.2154C16.387 54.878 22.3191 54.3622 28.261 54.2152C43.7466 53.8306 59.2368 53.6179 74.724 53.3002C76.9359 53.2536 79.1432 53.0088 81.884 52.8198ZM53.6886 13.4158C53.8389 8.2662 51.7288 5.99929 46.6737 6.19291C45.1103 6.26624 43.5621 6.53276 42.0642 6.9864C38.4123 8.06805 36.4769 10.9206 36.4533 14.9492L53.6886 13.4158Z" fill="black"/>
</g>
<defs>
<clipPath id="clip0_6_1963">
<rect width="89.9183" height="156.208" fill="white"/>
</clipPath>
</defs>
</svg>
