<svg width="154" height="150" viewBox="0 0 154 150" fill="none" xmlns="http://www.w3.org/2000/svg">
<path d="M79.4437 58.3848C79.3819 58.308 79.304 58.2457 79.2155 58.2023C79.127 58.1589 79.0301 58.1356 78.9315 58.1338C76.7417 58.1763 75.3999 59.208 74.9427 61.1989C74.4289 63.2356 74.0508 65.3042 73.8106 67.391C72.1876 83.9242 71.6241 100.544 72.1239 117.149C72.2034 119.515 72.4955 122.249 74.0552 124.603C74.5317 125.203 75.1446 125.681 75.843 125.995C76.1544 126.17 76.4764 126.35 76.7848 126.556C76.9116 126.641 77.0649 126.676 77.2161 126.655C77.3672 126.635 77.5055 126.559 77.605 126.444C77.8703 126.136 78.1514 125.857 78.4288 125.587C79.0483 125.087 79.5249 124.433 79.8104 123.689L79.9003 123.36C80.5305 121.06 81.1818 118.682 81.2055 116.288C81.3488 101.837 81.3823 87.1443 81.4157 72.9355L81.4388 63.7361C81.5048 62.7345 81.3943 61.729 81.1121 60.7658C80.8219 60.0794 80.4065 59.4528 79.8875 58.9181C79.726 58.7334 79.5718 58.5561 79.4437 58.3848Z" fill="black"/>
<path d="M84.6216 46.0559C86.5552 42.3596 86.1774 38.5223 83.5286 34.9529C80.7165 31.1654 77.0448 30.2699 72.6142 32.29C72.4709 32.3556 72.3577 32.473 72.2973 32.6187C72.072 33.16 71.8408 33.6922 71.6119 34.2184C70.337 37.1432 69.1367 39.9056 69.5022 43.1724C69.915 46.8657 72.2543 49.5748 75.6073 50.2413C76.1746 50.3546 76.7516 50.412 77.3302 50.4126C78.8281 50.4266 80.3011 50.0274 81.5873 49.2589C82.8735 48.4904 83.9233 47.3822 84.6216 46.0559ZM77.1292 40.015L77.0079 41.7975C76.6352 41.4719 76.3764 41.2015 76.3697 41.0478C76.3636 40.8595 76.6605 40.4956 77.1298 40.015H77.1292Z" fill="black"/>
<path d="M2.72331 54.3553C-4.08016 81.1435 1.8775 104.775 20.4431 124.606C20.9262 125.119 21.4191 125.631 21.9114 126.125C31.8846 136.115 44.3066 142.284 54.149 146.577C58.3736 148.425 80.0498 150.669 85.9148 149.794C120.769 144.58 143.706 124.886 151.694 91.9386C153.219 85.4847 153.979 78.873 153.957 72.2407C153.994 56.6169 147.428 38.453 133.886 24.8492C132.491 23.6943 131.102 22.498 129.759 21.3386C126.845 18.8294 123.834 16.2313 120.683 14.0158C96.6155 -2.95442 71.6085 -3.04921 46.3603 5.94978C23.5005 14.0889 8.82029 30.379 2.72331 54.3553ZM46.4583 13.9684C68.611 4.74554 90.8386 3.11798 112.518 16.9312C116.482 19.4594 127.05 28.016 128.713 29.3012L128.82 29.3802L128.908 29.4784C137.367 38.4635 147.051 54.8925 146.838 71.7811C146.767 79.0027 145.791 86.1868 143.933 93.1646C138.426 113.216 125.261 127.83 103.684 137.825C81.7487 148.347 50.2918 137.71 41.9222 132.175C32.6714 125.838 24.5769 117.956 17.9924 108.872C7.66624 94.2259 5.34952 73.173 10.8984 53.9274C13.4949 45.041 18.0331 36.8448 24.1836 29.9334C30.3342 23.022 37.943 17.5685 46.4583 13.9684Z" fill="black"/>
</svg>
