<svg width="151" height="132" viewBox="0 0 151 132" fill="none" xmlns="http://www.w3.org/2000/svg">
<g clip-path="url(#clip0_6_2228)">
<path d="M118.342 23.1541L133.579 9.56776C132.966 8.54978 132.282 7.53317 131.728 6.45547C131.222 5.46703 130.527 4.40778 130.52 3.37536C130.512 2.29306 130.933 0.707346 131.701 0.257756C132.499 -0.208243 133.977 0.295817 135.082 0.627267C135.653 0.79857 136.071 1.50478 136.538 1.9885C140.124 5.70271 143.753 9.37814 147.263 13.1632C148.455 14.4906 149.497 15.9449 150.372 17.4998C151.336 19.1577 150.889 20.8102 149.575 22.1045C148.295 23.366 146.677 23.2374 145.169 22.5877C144.056 22.0044 142.985 21.3451 141.962 20.6146L126.835 32.9682C128.728 35.0948 130.194 36.9299 131.854 38.5694C135.404 42.0756 134.628 46.758 131.178 49.6268C113.916 63.9809 96.8774 78.6063 79.6827 93.0431C76.8381 95.4118 73.7947 97.5318 70.5872 99.3807C66.8526 101.547 64.8718 100.972 62.1821 97.5928C61.0007 96.1102 59.8909 94.5737 58.5986 92.8672C55.9076 94.449 53.4004 96.1397 50.7022 97.432C48.9491 98.2715 46.9138 98.5176 45.0124 99.0565C44.2875 99.1936 43.5883 99.4431 42.9403 99.7962C30.8684 108.04 19.6547 117.365 8.73193 127.054C7.64739 128.031 6.49771 128.932 5.29082 129.753C3.45964 130.976 1.92188 130.953 1.02991 129.851C0.137948 128.748 0.379387 127.099 1.93622 125.716C10.0748 118.485 18.197 111.231 26.4544 104.137C30.7862 100.414 35.3872 97.0028 40.1666 93.2124C39.5517 90.2504 41.43 88.3076 44.0659 86.6038C46.3919 85.1001 48.4857 83.2368 50.8105 81.4331C49.6619 79.6906 48.674 78.2171 47.7092 76.7246C45.3398 73.0668 45.4778 71.1956 48.7444 68.2073C52.7192 64.5709 56.7955 61.0418 60.9108 57.5646C75.2314 45.4666 89.5698 33.3899 103.927 21.3348C105.042 20.3949 106.079 19.3624 107.185 18.4101C109.904 16.0669 111.603 16.0617 114.194 18.5669C115.634 19.9525 116.893 21.5336 118.342 23.1541ZM68.0714 94.6564C81.0774 84.9833 92.7543 73.9089 105.049 63.7394C99.5809 55.8391 94.3197 48.2393 88.8931 40.3987L51.205 72.0928L68.0714 94.6564ZM94.4687 35.8018L112.203 57.7017L127.29 43.9475C121.842 36.7225 116.67 29.8598 111.242 22.6598L94.4687 35.8018ZM53.2546 85.1703C47.8641 89.2528 46.6912 90.5155 46.2049 93.1632L54.8687 87.5568L53.2546 85.1703ZM130.874 21.6695L130.381 21.1444C127.985 23.1587 125.565 25.1481 123.222 27.2208C122.943 27.4669 123.081 28.1829 123.015 28.7861C125.792 26.2683 128.333 23.9693 130.873 21.6695H130.874Z" fill="black"/>
</g>
<defs>
<clipPath id="clip0_6_2228">
<rect width="150.958" height="131.268" fill="white"/>
</clipPath>
</defs>
</svg>
