<svg width="161" height="159" viewBox="0 0 161 159" fill="none" xmlns="http://www.w3.org/2000/svg">
<g clip-path="url(#clip0_8_2284)">
<path d="M156.812 26.0871C154.477 6.9155 138.344 -0.780163 123.397 0.105234C114.526 0.62571 105.741 0.902818 95.28 1.15945C85.8018 1.39179 76.0821 1.59133 67.507 1.76723C55.2022 2.02057 42.4785 2.28302 29.8439 2.6322C15.3389 3.03387 3.64297 12.3774 1.3937 25.3545C0.490577 30.5632 0.464289 35.8191 0.520077 41.6559C0.683508 58.701 0.932916 75.9244 1.17642 92.581L1.20269 94.3846C1.29896 101.085 1.3934 107.786 1.48616 114.488C1.50191 115.616 1.54129 116.748 1.58198 117.88L1.58534 117.97C1.75038 120.774 1.72256 123.586 1.50202 126.386C0.721635 133.863 3.58392 141.836 9.15953 147.711C15.3573 154.243 24.141 157.563 33.8994 157.066C44.5478 156.514 55.4096 156.619 65.9135 156.72L66.6741 156.728C79.1393 156.847 91.8158 157.164 104.091 157.472L110.281 157.627C111.323 157.69 112.357 157.846 113.371 158.096C113.902 158.209 114.434 158.32 114.964 158.412C115.04 158.425 115.117 158.432 115.194 158.432H121.91C121.977 158.431 122.042 158.427 122.107 158.418C123.449 158.221 124.798 158.042 126.142 157.866L126.243 157.853C129.257 157.459 132.374 157.054 135.411 156.394C148.514 153.548 159.616 139.957 159.652 126.718C159.661 123.6 159.673 120.479 159.685 117.359L159.691 115.792C159.757 98.6908 159.829 81.0071 159.461 63.5942C159.193 50.9315 158.302 38.3095 156.812 26.0871ZM149.526 125.796C149.566 136.021 140.647 145.595 129.221 147.591C120.466 149.12 111.517 148.6 102.861 148.099C99.6486 147.913 96.3262 147.72 93.0248 147.633C89.2771 147.534 85.4599 147.341 81.7476 147.152L81.4194 147.135C79.8219 147.054 78.2231 146.974 76.6374 146.901H76.5639C72.5247 146.901 68.4856 146.897 64.446 146.886C59.7578 146.878 54.9948 146.871 50.212 146.871C43.921 146.871 38.7491 146.884 33.9316 146.913H33.7196C26.6535 146.913 20.8246 144.817 16.863 140.85C12.7438 136.726 10.5943 130.565 10.6488 123.033C10.7761 105.323 10.6992 87.3933 10.6244 70.0528C10.5824 60.1529 10.5391 49.9161 10.5339 39.8013C10.4353 33.976 11.7528 28.2138 14.3733 23.0102C17.3452 17.2948 22.6538 14.2619 31.0786 13.4658C42.9005 12.35 52.4398 11.7421 61.0988 11.5538C86.0972 11.0064 105.336 10.8128 123.476 10.925C136.709 11.007 144.351 17.2318 146.842 29.9588C149.598 44.0635 149.559 58.5608 149.518 72.5883L149.514 73.7775C149.458 93.6712 149.461 110.199 149.525 125.796H149.526Z" fill="black"/>
<path d="M83.4698 41.8736C75.1763 41.7187 67.7958 43.4042 61.5231 46.8618C53.9686 51.023 45.9219 56.6412 43.5138 66.7441C40.4172 79.7324 41.8257 92.229 47.7 103.887C51.9058 112.236 58.4987 117.373 66.766 118.742C71.7128 119.606 76.722 120.059 81.7436 120.098C83.3188 120.098 84.8816 120.043 86.382 119.935C97.5128 119.132 106.354 114.67 112.661 106.67C122.427 94.2834 124.125 80.1012 117.71 64.5179C111.507 49.4477 99.6406 41.6143 83.4698 41.8736ZM110.616 81.6948C110.664 98.6283 99.3098 109.937 81.6885 110.499C77.2057 110.575 72.7275 110.184 68.3254 109.333C62.6914 108.321 58.4146 104.93 55.6114 99.2551C50.9363 89.7848 49.8022 79.9962 52.2392 70.161C54.117 62.583 59.6505 57.025 69.1551 53.1691C72.6868 51.7489 76.4614 51.0277 80.2682 51.0453C83.5656 51.0608 86.8447 51.5437 90.0069 52.4794C102.486 56.111 110.575 67.5783 110.616 81.6948Z" fill="black"/>
<path d="M126.187 25.3843H125.999C124.154 25.4305 122.397 26.1827 121.09 27.4859C119.784 28.7892 119.027 30.5442 118.976 32.3889C118.93 33.288 119.068 34.1869 119.379 35.0316C119.691 35.8763 120.17 36.6491 120.788 37.3034C121.434 37.9604 122.206 38.4795 123.058 38.8292C123.911 39.179 124.824 39.3521 125.746 39.3382C127.563 39.2795 129.287 38.5245 130.563 37.2294C131.839 35.9344 132.567 34.1984 132.599 32.3809C132.658 28.754 129.661 25.4854 126.187 25.3843Z" fill="black"/>
</g>
<defs>
<clipPath id="clip0_8_2284">
<rect width="160.146" height="158.834" fill="white"/>
</clipPath>
</defs>
</svg>
