<svg width="102" height="146" viewBox="0 0 102 146" fill="none" xmlns="http://www.w3.org/2000/svg">
<g clip-path="url(#clip0_6_2010)">
<path d="M92.8389 11.0678L68.0517 33.8502C70.0062 37.554 71.9805 40.7083 73.4028 44.0943C78.7152 56.7413 78.0044 69.3225 72.0901 81.5449C67.6927 90.6273 59.8518 95.2781 50.2141 97.2373C48.253 97.6357 46.2762 97.9625 44.0276 98.3734C44.2659 104.051 44.4989 109.597 44.7496 115.517C47.2726 115.327 49.4753 115.152 51.6806 114.997C53.5729 114.866 55.4871 114.538 57.3531 114.695C58.2104 114.724 59.0251 115.077 59.6336 115.681C60.2421 116.286 60.5995 117.098 60.6348 117.955C60.7387 118.806 60.5383 119.668 60.0688 120.385C59.5993 121.103 58.8911 121.632 58.0694 121.878C56.6795 122.296 55.2348 122.506 53.7833 122.498C51.003 122.589 48.2177 122.525 45.2714 122.525C45.492 127.053 45.7215 131.188 45.881 135.323C45.9857 137.116 45.9713 138.914 45.8377 140.705C45.5811 143.409 44.1064 145.109 42.1519 145.277C40.0352 145.46 38.2192 143.918 37.8293 140.989C37.3567 137.435 37.2261 133.831 37.064 130.243C36.9531 127.806 37.0422 125.36 37.0422 122.487C33.5393 122.487 30.5307 122.531 27.5253 122.464C26.4034 122.466 25.2878 122.294 24.218 121.957C23.4995 121.761 22.8803 121.303 22.4816 120.674C22.0829 120.044 21.9336 119.289 22.0627 118.556C22.278 116.817 23.4264 116.045 25.0922 116.023C28.2374 115.982 31.3832 115.995 34.5284 115.968C35.0843 115.963 35.6397 115.872 36.6288 115.781C36.8257 110.237 37.0291 104.689 37.2444 98.7127C36.0866 98.5723 34.8079 98.3583 33.5202 98.2684C15.7912 97.0325 4.82648 85.9095 1.34067 69.4302C-1.03702 58.1899 0.833212 47.7667 6.95161 38.161C8.58845 35.7466 10.6085 33.6153 12.9317 31.8514C18.9394 27.0921 26.1297 24.059 33.731 23.0771C44.2376 21.62 53.9988 23.4709 63.0983 28.9185L87.2305 6.70871C85.759 6.70871 84.6872 6.68626 83.6167 6.71317C80.9257 6.7788 78.2295 6.88375 75.5359 6.94939C73.9259 6.98877 72.4813 6.55561 72.4189 4.67783C72.3651 3.06915 73.5446 2.36043 75.0548 2.18387C75.7236 2.10446 76.3852 1.96573 77.0547 1.89288C82.6335 1.28249 88.2019 0.559199 93.7913 0.115515C98.4276 -0.252034 99.5401 0.863958 99.8604 5.57581C100.119 9.38256 100.311 13.1952 100.51 17.0066C100.574 17.7887 100.559 18.575 100.466 19.3541C100.366 20.3123 99.9195 21.201 99.2094 21.8516C98.4992 22.5021 97.5751 22.8695 96.6116 22.8835C95.7045 22.8059 94.8532 22.4109 94.208 21.7682C93.5635 21.1256 93.1651 20.2765 93.0844 19.3695C93.0332 18.479 93.0759 17.5857 93.2111 16.7041C93.3423 14.932 93.4953 13.1598 93.6384 11.3877L92.8389 11.0678ZM37.1886 30.4298C28.1226 31.0592 24.9314 32.011 19.5685 35.2671C15.7853 37.5108 12.7012 40.7628 10.6608 44.6593C5.24536 54.9271 6.1209 65.2612 10.3057 75.5446C13.7246 83.9458 20.0955 89.0599 29.0046 90.8859C37.3585 92.5976 45.5548 91.747 53.5385 88.9372C55.8508 88.1864 57.9869 86.9741 59.8176 85.3746C61.6482 83.7745 63.1356 81.8199 64.1895 79.629C70.4624 66.3598 70.0502 53.3756 61.7407 41.001C59.8014 37.9371 57.0112 35.5047 53.7112 34.0019C47.978 31.5353 41.9674 30.3228 37.1886 30.4285V30.4298Z" fill="black"/>
</g>
<defs>
<clipPath id="clip0_6_2010">
<rect width="101.076" height="145.707" fill="white"/>
</clipPath>
</defs>
</svg>
