<svg width="148" height="140" viewBox="0 0 148 140" fill="none" xmlns="http://www.w3.org/2000/svg">
<g clip-path="url(#clip0_8_2422)">
<path d="M49.4876 78.9446C54.0314 74.208 58.2144 69.448 62.8102 65.1248C76.7949 51.9671 90.94 38.9827 105.02 25.9277C112.915 18.6081 120.876 11.3586 127.674 2.95275C129.869 0.238957 132.478 -0.352783 135.283 1.75694C138.974 4.58496 142.452 7.68047 145.689 11.0184C146.82 12.1649 147.37 14.1547 147.611 15.8412C148 18.5433 146.048 20.2376 143.516 19.3017C141.277 18.4032 139.176 17.1909 137.279 15.7013C135.341 14.2527 133.694 12.4144 131.93 10.7565C125.629 17.2613 119.185 23.9139 112.443 30.8757C115.3 33.4631 118.786 36.639 122.294 39.7929C123.283 40.6828 124.42 41.4243 125.325 42.3855C126.16 43.2667 126.862 44.2648 127.408 45.3483C127.859 46.1896 128.015 47.1574 127.852 48.0978C127.689 49.0382 127.216 49.8971 126.507 50.5378C125.898 51.2065 125.085 51.656 124.195 51.8166C123.303 51.9771 122.385 51.8398 121.58 51.4259C119.888 50.6118 118.358 49.4978 117.065 48.1378C114.059 44.8776 111.282 41.4069 108.411 38.0222C107.709 37.1939 107.003 36.3693 106.107 35.3193C88.6784 50.8956 71.3923 66.3006 55.3791 83.249C56.0587 84.1564 56.6597 84.9348 57.2323 85.7281C64.0175 95.1619 66.8497 105.586 63.3911 116.83C59.4964 129.492 49.9543 136.166 37.3451 138.885C30.8917 140.234 24.1884 139.743 18.0012 137.468C8.62334 134.183 2.97795 127.526 0.937756 117.869C-0.692191 110.156 0.25422 102.645 3.2337 95.3784C5.37061 90.1712 8.75121 86.0969 13.9241 83.5821C17.7915 81.7025 21.3844 79.0736 25.4194 77.7572C33.5088 75.1206 41.7533 74.5567 49.4876 78.9446ZM30.0139 131.642C32.0989 131.353 33.9787 131.182 35.8222 130.824C49.4629 128.171 58.0301 117.093 55.5401 104.08C53.4168 92.9868 46.2932 83.7461 31.7821 85.5013C28.049 85.955 24.3522 86.6991 20.6217 87.1787C16.3946 87.7219 13.5399 90.0837 11.5451 93.6667C8.98672 98.2432 7.67744 103.41 7.74839 108.651C7.88405 120.374 11.8327 127.901 23.315 130.596C25.5649 131.128 27.8958 131.321 30.0139 131.644V131.642Z" fill="black"/>
<path d="M30.7155 121.782C26.565 121.653 22.1399 119.172 19.4766 114.191C16.7464 109.086 17.8538 104.015 20.8501 99.3913C22.6151 96.6645 25.1545 94.9754 28.7467 95.5899C29.6639 95.7467 30.6889 95.3566 31.6509 95.1524C35.1415 94.3766 38.784 94.6507 42.1186 95.9405C45.644 97.2984 47.5473 100.058 48.1737 103.679C49.8529 113.373 42.3789 121.842 30.7155 121.782ZM31.0836 114.816C36.3414 114.886 39.6877 112.376 40.4504 108.612C40.9736 106.028 39.9408 103.709 37.6014 102.993C34.8581 102.138 32.0554 101.487 29.216 101.045C28.2073 100.894 26.5397 101.361 26.0613 102.111C24.406 104.703 23.7134 107.69 25.146 110.62C25.6702 111.785 26.4974 112.789 27.5416 113.527C28.5857 114.264 29.8088 114.71 31.0836 114.816Z" fill="black"/>
</g>
<defs>
<clipPath id="clip0_8_2422">
<rect width="148" height="140" fill="white"/>
</clipPath>
</defs>
</svg>
