<svg width="159" height="155" viewBox="0 0 159 155" fill="none" xmlns="http://www.w3.org/2000/svg">
<path d="M82.0319 122.026C70.3173 121.478 59.2798 118.959 50.0943 111.047C44.2796 106.036 41.445 99.6709 41.4721 92.0117C41.4951 85.6377 43.9241 82.7836 50.3848 82.2188C60.4743 81.3385 70.582 80.5204 80.6986 80.0011C90.5958 79.4925 100.513 79.3483 110.425 79.1207C118.416 78.9393 121.157 82.0569 118.754 89.7703C116.977 95.7907 114.428 101.556 111.17 106.921C104.41 117.619 94.784 122.197 82.0319 122.026ZM54.7151 105.858C70.4249 90.6899 87.7822 91.5783 106.588 99.6154C107.948 95.654 109.303 91.7048 111.063 86.5768L47.5956 88.0428C47.2841 95.6282 49.2194 101.607 54.7151 105.858ZM60.2758 109.365C71.0526 115.807 94.698 117.783 101.553 105.768C92.8934 97.0516 68.8241 99.0215 60.2758 109.365Z" fill="black"/>
<path d="M152.723 74.3334C152.68 80.7941 146.887 85.6566 140.241 85.2321C132.251 84.7222 124.527 78.3252 122.319 70.538C121.527 67.7468 122.742 65.8845 124.903 64.5979C132.025 60.3563 139.332 59.9663 146.628 64.1423C150.668 66.4575 152.456 70.2048 152.723 74.3334ZM131.535 70.5575L131.295 71.7635C132.347 73.3035 133.733 74.5857 135.35 75.5141C136.967 76.4425 138.774 76.993 140.634 77.1245C141.958 77.2328 143.399 75.9057 144.787 75.238C143.844 73.8878 143.094 71.6106 141.923 71.3635C138.553 70.6545 135.01 70.7675 131.535 70.5569V70.5575Z" fill="black"/>
<path d="M18.3917 93.7309C16.6599 93.5687 14.9935 92.988 13.5359 92.0389C12.0782 91.0898 10.8732 89.8006 10.0242 88.2825C7.67453 84.2636 9.00849 80.3877 11.411 76.9166C15.9479 70.3551 22.46 67.226 30.3088 66.8718C33.553 66.7256 35.2675 68.2633 34.6642 71.328C33.6375 76.933 32.175 82.4493 30.2899 87.8267C28.7798 91.9478 25.0711 93.8298 18.3917 93.7309ZM27.7926 73.0779C22.4384 74.5995 19.0885 77.0357 16.9514 80.7783C15.9174 82.5904 14.5435 84.5629 17.2812 86.2436C19.9478 87.881 23.0837 87.5166 24.1949 84.8283C25.6866 81.2171 26.5276 77.3384 27.7926 73.0751V73.0779Z" fill="black"/>
<path d="M51.9883 51.4764C48.7305 48.5457 45.724 45.8711 42.7541 43.1564C41.5081 42.0174 40.2919 40.8378 39.1482 39.5972C37.9097 38.2545 36.4904 36.7227 38.1528 34.9161C39.8308 33.0918 41.3991 34.4009 42.8529 35.5669C46.0152 38.1028 49.1592 40.6631 52.3709 43.1354C54.2426 44.5757 56.2435 45.844 58.1632 47.2267C61.4907 49.6184 62.3223 52.9235 59.544 55.8827C55.7145 59.8386 51.6234 63.5326 47.2984 66.9397C45.5087 68.3935 42.987 68.7517 41.1641 66.6722C39.2058 64.4376 40.1152 62.0521 41.888 60.3226C44.9419 57.3459 48.2958 54.6793 51.9883 51.4764Z" fill="black"/>
<path d="M106.657 52.6375C109.357 54.0121 111.492 54.9824 113.507 56.1586C115.491 57.1968 117.34 58.4739 119.014 59.9614C119.41 60.4643 119.679 61.0558 119.797 61.6854C119.915 62.3149 119.879 62.9638 119.691 63.5761C119.271 64.4855 117.236 65.6028 116.535 65.2784C110.888 62.6714 105.17 60.088 99.9494 56.7531C97.7412 55.3426 98.2396 51.94 100.329 50.1489C106.208 45.1109 112.282 40.2945 118.436 35.5944C119.128 35.0655 121.092 35.4921 121.937 36.1517C122.4 36.5133 122.14 38.5987 121.531 39.3666C120.29 40.9241 118.591 42.1153 117.077 43.452C113.728 46.405 110.38 49.3546 106.657 52.6375Z" fill="black"/>
<path d="M2.80591 55.9068C-4.20391 83.4579 1.93445 107.763 21.0632 128.158C21.5609 128.685 22.0687 129.211 22.5758 129.716C32.8516 139.991 45.6503 146.336 55.7913 150.75C60.144 152.651 82.4777 154.96 88.5205 154.059C124.432 148.697 148.064 128.442 156.295 94.5564C157.866 87.9187 158.649 81.1188 158.627 74.2976C158.665 58.2289 151.899 39.5476 137.947 25.5564C136.51 24.3694 135.078 23.1384 133.694 21.9466C130.693 19.3654 127.59 16.694 124.344 14.4147C99.5458 -3.03808 73.7804 -3.13625 47.7664 6.119C24.2139 14.4946 9.0878 31.2478 2.80591 55.9068ZM47.8673 14.3701C70.6919 4.8846 93.5937 3.21069 115.931 17.4172C120.015 20.0175 130.903 28.8183 132.618 30.1394L132.727 30.2207L132.818 30.3216C141.533 39.5626 151.511 56.4594 151.291 73.8289C151.219 81.2561 150.213 88.6448 148.298 95.8213C142.625 116.444 129.06 131.474 106.829 141.754C84.2281 152.575 51.8172 141.636 43.1937 135.942C33.6624 129.426 25.3224 121.319 18.5381 111.977C7.89943 96.9128 5.51177 75.2611 11.2289 55.4667C13.9046 46.3275 18.5805 37.8982 24.9175 30.7901C31.2546 23.6819 39.094 18.0731 47.8673 14.3701Z" fill="black"/>
</svg>
