<svg width="156" height="150" viewBox="0 0 156 150" fill="none" xmlns="http://www.w3.org/2000/svg">
<g clip-path="url(#clip0_8_2425)">
<path d="M3.08013 101.836C1.26768 103.067 0.365908 104.225 0.237742 105.481C0.117344 106.668 0.705145 107.912 2.036 109.284C4.26542 111.675 6.79354 113.766 9.55759 115.505C20.1941 121.903 30.9141 128.157 41.4218 134.093C47.5854 137.575 53.9296 140.969 60.0641 144.252C62.7116 145.668 65.3568 147.087 68.0004 148.511C69.3351 149.325 70.8498 149.795 72.4104 149.881C73.4112 149.879 74.3938 149.612 75.2579 149.106C79.9185 146.449 84.9752 143.508 90.7181 140.112L98.4035 135.566C115.751 125.307 133.69 114.703 151.3 104.212C153.865 102.684 155.335 100.427 155.333 98.0195C155.333 95.5662 153.815 93.261 151.174 91.6942C148.904 90.3468 146.573 89.0318 144.106 87.6429C143.223 87.1448 142.315 86.6325 141.373 86.0994C142.459 85.3026 143.518 84.5286 144.55 83.7766C147.325 81.75 149.945 79.8364 152.541 77.8974C154.838 76.1831 156.03 74.0091 155.898 71.776C155.762 69.4825 154.256 67.3961 151.658 65.9C149.373 64.5837 147.096 63.255 144.733 61.8738L142.273 60.4394C143.127 59.7901 143.972 59.151 144.807 58.522C147.285 56.6512 149.628 54.8856 151.947 53.0161C153.873 51.4642 154.839 49.5602 154.668 47.6544C154.49 45.6842 153.13 43.9135 150.837 42.6681C147.744 40.9882 144.963 39.4576 142.259 37.7381L141.083 36.9895C121.706 24.6583 101.669 11.9077 80.5199 1.79471C75.6165 -0.550739 71.3372 -0.291026 67.056 2.61092C61.6345 6.2856 56.2405 9.83813 50.7319 13.455C44.9347 17.2646 39.1353 21.0685 33.3338 24.8668C23.9188 31.0356 14.1826 37.4181 4.62521 43.722C2.05283 45.42 0.783391 47.0408 0.62998 48.8252C0.4811 50.5629 1.45082 52.3895 3.59405 54.4096C6.07867 56.6621 8.68567 58.7749 11.4031 60.7383C12.455 61.5285 13.5063 62.3186 14.5426 63.1245C15.2307 63.6596 15.9543 64.1505 16.7214 64.6707L17.1097 64.9357C15.828 65.9046 14.5671 66.852 13.3268 67.7786C9.97704 70.2883 6.81244 72.6598 3.70736 75.1637C1.52853 76.9169 0.518685 78.4838 0.5271 80.087C0.536162 81.702 1.57961 83.2721 3.81087 85.0312C5.55858 86.4084 7.4435 87.6474 9.2663 88.8461C10.3667 89.5688 11.5021 90.3162 12.5902 91.0825C13.3242 91.6227 14.0284 92.2026 14.6998 92.8195C14.8539 92.9565 15.0099 93.0955 15.1704 93.2357C14.0376 94.0461 12.9263 94.8461 11.8367 95.6344C8.83326 97.8071 5.99493 99.8559 3.08013 101.836ZM29.8784 101.044C35.5099 104.187 41.3356 107.437 47.0863 110.553C50.0639 112.165 53.1146 113.74 56.0683 115.264C59.8873 117.234 63.836 119.271 67.6411 121.401C71.4867 123.552 75.3686 123.69 80.2305 121.849C93.1293 116.965 104.763 110.059 114.437 103.949C119.071 101.021 123.563 98.0656 128.324 94.9377C130.337 93.6143 132.371 92.2799 134.427 90.9338L145.543 97.787C142.713 99.5351 139.905 101.273 137.121 103C130.138 107.327 123.544 111.414 116.769 115.525C110.854 119.117 104.823 122.742 98.99 126.247C91.2871 130.877 83.3182 135.662 75.5182 140.436C74.0378 141.339 73.0545 141.112 71.6473 140.337C66.7058 137.61 61.7617 134.887 56.8159 132.169C46.9846 126.76 36.8194 121.168 26.8458 115.624C22.916 113.44 19.0543 111.168 14.9659 108.763C13.3347 107.804 11.6737 106.827 9.96675 105.831L22.6759 97.0318C25.0843 98.3695 27.4843 99.7072 29.8758 101.044H29.8784ZM135.435 54.6355C128.62 59.4459 122.184 63.9902 115.449 68.2877C107.639 73.2721 99.546 78.1065 91.7188 82.7818C87.2091 85.4753 82.5459 88.2611 77.985 91.0455C76.1823 92.1494 74.8734 92.1234 72.9911 90.9552C63.4113 85.0136 53.6467 79.0201 44.2019 73.2279C36.2957 68.3766 28.121 63.3577 20.099 58.3993C17.5098 56.7986 15.05 55.0642 12.4472 53.2265C11.4978 52.5577 10.5375 51.8841 9.56613 51.2057C11.7808 49.6906 13.9585 48.1947 16.0994 46.7181C21.4331 43.0466 26.4717 39.5752 31.6346 36.1557C37.6701 32.1551 43.8375 28.1331 49.8024 24.2441C55.6087 20.4577 61.6118 16.5427 67.489 12.6505L67.6767 12.5259C75.7246 7.19469 75.7253 7.19664 84.3448 11.7817C101.51 20.9109 119.045 31.6414 141.202 46.5751C141.823 46.994 142.427 47.4765 143.19 48.0882C143.42 48.272 143.665 48.4674 143.928 48.6765C141.043 50.6759 138.195 52.6855 135.433 54.6355H135.435ZM24.4112 69.2513C26.0856 70.3604 27.7629 71.4799 29.4429 72.6091C33.4341 75.2818 37.5607 78.0468 41.7157 80.652C48.1972 84.7182 54.83 88.7779 61.246 92.7039C64.914 94.9494 68.5823 97.1994 72.2499 99.4539C75.5382 101.484 78.5074 100.222 80.4551 99.0974C82.9945 97.6305 85.5365 96.1675 88.0816 94.7091C96.059 90.1286 104.308 85.3916 112.3 80.5247C119.223 76.3091 125.799 71.7636 133.063 66.6864C134.948 65.3682 136.163 65.3468 137.877 66.5929C139.79 67.9844 141.799 69.2598 143.923 70.6097C144.616 71.0487 145.326 71.502 146.053 71.9675C144.574 73.0214 143.137 74.0656 141.723 75.0929C138.15 77.6903 134.774 80.1422 131.236 82.3786C115.516 92.3247 101.674 100.895 88.918 108.58C86.3896 110.01 83.7564 111.245 81.0409 112.275C79.578 112.873 78.064 113.492 76.6082 114.165C75.6114 114.658 74.5064 114.889 73.3969 114.836C72.2868 114.782 71.2091 114.446 70.2646 113.86C61.052 108.877 51.8308 103.909 42.6012 98.9578C33.5053 94.0656 24.4137 89.1688 15.3264 84.2669C13.6661 83.3688 12.053 82.2942 10.3422 81.1572C9.74926 80.7624 9.14008 80.3572 8.50572 79.9429L24.4112 69.2513Z" fill="black"/>
</g>
<defs>
<clipPath id="clip0_8_2425">
<rect width="156" height="150" fill="white"/>
</clipPath>
</defs>
</svg>
