<svg width="110" height="121" viewBox="0 0 110 121" fill="none" xmlns="http://www.w3.org/2000/svg">
<g clip-path="url(#clip0_8_2432)">
<path d="M3.38091 54.7611C3.51032 38.6278 3.64618 22.4933 3.78854 6.3573C3.82662 5.13897 3.95641 3.92525 4.17678 2.72662C4.22725 2.10442 4.51349 1.5255 4.97637 1.10941C5.43926 0.693303 6.04342 0.4718 6.66408 0.490711C8.16784 0.44062 9.32284 1.16535 9.63084 2.63752C10.0262 4.59922 10.294 6.58476 10.4325 8.58146C12.4307 34.7044 11.7435 60.8488 11.088 86.9968C10.8939 94.785 10.8065 102.571 9.70978 110.3C9.54711 111.847 9.2659 113.379 8.86861 114.883C8.4838 116.272 7.86838 117.585 7.04843 118.768C5.19785 121.261 2.16508 120.854 1.0489 117.99C0.577577 116.868 0.39082 115.645 0.505376 114.431C1.88555 104.82 2.00589 95.1389 2.25242 85.4648C2.51125 75.2292 2.72349 64.9928 2.95643 54.7592L3.38091 54.7611Z" fill="black"/>
<path d="M65.1859 100.74C56.8965 101.138 48.609 101.602 40.3163 101.91C35.7869 102.079 31.2445 102.003 26.7086 101.988C25.8231 101.972 24.9431 101.843 24.0893 101.607C23.2705 101.434 22.5325 100.992 21.9925 100.35C21.4524 99.7071 21.1412 98.9017 21.1083 98.0619C21.1194 97.2195 21.4071 96.4037 21.9269 95.7427C22.4466 95.0818 23.169 94.6114 23.9819 94.4065C24.8435 94.2107 25.7243 94.1138 26.6077 94.1164C44.9596 93.3188 63.3118 92.5291 81.6646 91.7471C88.8514 91.4414 96.039 91.1434 103.228 90.8923C104.437 90.8201 105.651 90.9242 106.831 91.202C107.711 91.3835 108.501 91.8662 109.066 92.5688C109.631 93.2707 109.937 94.1483 109.929 95.0519C109.943 95.8963 109.689 96.7224 109.203 97.412C108.719 98.1016 108.028 98.6181 107.232 98.8868C106.301 99.2309 105.33 99.4508 104.343 99.5412C101.698 99.7722 99.0459 99.9751 96.3923 100.055C85.9934 100.364 75.5926 100.62 65.1924 100.897L65.1859 100.74Z" fill="black"/>
<path d="M46.789 56.9219C51.9914 56.9219 57.1937 56.8874 62.3948 56.9479C63.6058 56.9694 64.8081 57.1622 65.965 57.5209C66.7363 57.7598 67.4202 58.2203 67.934 58.8457C68.4471 59.4711 68.7674 60.2339 68.8548 61.0402C68.9415 61.8463 68.792 62.6605 68.4245 63.3822C68.0563 64.1038 67.4862 64.7014 66.7842 65.1011C65.5353 65.7854 64.1371 66.1491 62.7144 66.1595C51.8736 65.9422 41.038 65.5994 30.1978 65.267C29.2029 65.2383 28.2142 65.0991 27.2498 64.8519C26.483 64.701 25.7884 64.2968 25.2764 63.7035C24.7644 63.11 24.4644 62.3616 24.4241 61.5771C24.3951 60.8451 24.5962 60.1226 24.9987 59.5119C25.4013 58.9013 25.985 58.4337 26.6668 58.1755C27.686 57.7553 28.7665 57.5053 29.8658 57.4352C35.5037 57.1685 41.1454 56.9941 46.7864 56.7847L46.789 56.9219Z" fill="black"/>
</g>
<defs>
<clipPath id="clip0_8_2432">
<rect width="110" height="121" fill="white"/>
</clipPath>
</defs>
</svg>
