<svg width="91" height="75" viewBox="0 0 91 75" fill="none" xmlns="http://www.w3.org/2000/svg">
<g clip-path="url(#clip0_8_2427)">
<path d="M46.3842 66.0321C58.9353 65.6015 71.4864 65.176 84.0366 64.7564C85.1481 64.7202 86.2602 64.7952 87.3568 64.9795C89.5076 65.3441 90.7582 66.6185 90.8609 68.3764C90.9604 70.0788 90.0809 71.3952 88.1452 72.1025C87.0045 72.5377 85.8085 72.8163 84.591 72.9288C80.6039 73.2262 76.6084 73.5611 72.6141 73.5935C54.6093 73.7396 36.6043 73.7435 18.5993 73.8967C13.7243 73.9387 8.84926 74.304 3.97947 74.5652C2.25827 74.6571 1.16629 74.0777 0.593634 72.5752C-0.0654661 70.8443 0.500701 68.7902 2.2518 68.0596C3.88249 67.384 5.62154 67.0038 7.38683 66.9366C17.4937 66.6133 27.6018 66.4045 37.7145 66.1918C40.6018 66.131 43.4911 66.1827 46.379 66.1827L46.3842 66.0321Z" fill="black"/>
<path d="M12.6782 30.0558C10.036 30.0558 7.58483 30.185 5.15383 30.0202C2.77938 29.8605 1.54637 28.676 1.48592 26.9426C1.43327 25.4271 2.54732 23.9207 4.59222 23.5806C7.97873 23.0161 11.4172 22.7498 14.8427 22.4246C36.3525 20.3783 57.9455 20.6395 79.5113 20.1694C81.1786 20.1314 82.8445 20.2789 84.4786 20.609C86.5287 21.0293 87.5804 22.3004 87.6461 23.9491C87.7111 25.656 86.8407 26.9232 84.7685 27.5135C83.1578 27.9341 81.5081 28.188 79.8454 28.2707C77.6289 28.4259 75.3994 28.4342 73.1751 28.4432C52.9328 28.5253 32.6833 28.327 12.6782 30.0558Z" fill="black"/>
<path d="M21.9922 51.1987C16.5491 50.9976 11.1041 50.8242 5.66236 50.583C2.92391 50.4615 2.0223 49.7595 1.8429 47.8631C1.6557 45.9028 2.75686 44.5145 5.10076 43.9287C5.96814 43.7419 6.8536 43.6507 7.74105 43.6566C17.6328 43.4154 27.5244 43.1542 37.4174 43.0049C39.0689 43.0192 40.7093 43.2764 42.2852 43.7679C42.9529 43.9889 43.5362 44.4087 43.9558 44.9706C44.3754 45.5324 44.6112 46.209 44.6312 46.9086C44.6512 47.6083 44.4544 48.2971 44.0676 48.8818C43.6807 49.4664 43.1226 49.9187 42.4686 50.1771C40.8273 50.812 39.0928 51.1767 37.3336 51.2568C32.224 51.3945 27.1085 51.306 21.9936 51.306L21.9922 51.1987Z" fill="black"/>
<path d="M18.4534 8.07649C14.9044 8.25559 11.3567 8.47095 7.80577 8.5938C6.71163 8.71367 5.60429 8.58882 4.56483 8.22843C3.72819 7.75774 3.10566 6.98498 2.82614 6.07023C2.69335 5.52016 2.77448 4.94051 3.0533 4.44746C3.33212 3.9544 3.78803 3.58442 4.32958 3.41165C5.35031 2.98295 6.43133 2.71343 7.53466 2.61254C16.3825 1.87977 25.2338 1.19007 34.0885 0.543521C35.524 0.451891 36.9653 0.558501 38.3714 0.860323C39.0295 0.993726 39.6243 1.34145 40.0616 1.84854C40.4989 2.35563 40.7539 2.99317 40.7863 3.6605C40.8188 4.32782 40.6267 4.98694 40.2406 5.53362C39.8545 6.0803 39.2963 6.48339 38.6541 6.67929C37.6074 7.02604 36.5213 7.24192 35.421 7.32197C29.7712 7.67563 24.1175 7.96082 18.4645 8.26988L18.4534 8.07649Z" fill="black"/>
</g>
<defs>
<clipPath id="clip0_8_2427">
<rect width="91" height="75" fill="white"/>
</clipPath>
</defs>
</svg>
