<svg width="120" height="125" viewBox="0 0 120 125" fill="none" xmlns="http://www.w3.org/2000/svg">
<g clip-path="url(#clip0_6_2012)">
<path d="M78.8193 101.025H45.3796C45.3796 102.43 45.3387 103.498 45.3867 104.562C45.5672 108.597 45.8383 112.631 45.9433 116.668C45.9966 118.121 45.8227 119.573 45.428 120.972C44.918 122.679 43.7408 123.926 41.7528 123.86C40.9556 123.848 40.185 123.571 39.5629 123.072C38.9409 122.574 38.5027 121.882 38.3179 121.107C37.9311 119.942 37.6901 118.733 37.6 117.508C37.2718 112.257 37.0296 107.003 36.729 101.211C35.1032 101.211 33.477 101.252 31.8538 101.201C29.7227 101.136 27.5798 101.113 25.469 100.852C23.1718 100.568 21.9838 99.2505 22.0363 97.4305C22.0895 95.5521 23.24 94.626 25.801 94.5873C29.2691 94.5354 32.7386 94.5741 36.6142 94.5741C36.8256 88.7701 37.0271 83.2195 37.243 77.2888C36.0616 77.1464 34.7686 76.9344 33.4697 76.8432C15.8077 75.6014 4.81967 64.5082 1.33254 47.9882C0.126994 42.667 0.000818431 37.1578 0.961429 31.7871C1.92204 26.4163 3.94993 21.2929 6.9252 16.7195C8.14303 14.8324 9.63561 13.1374 11.3536 11.6906C17.695 6.27497 25.4532 2.78601 33.7126 1.63496C42.3185 0.322285 50.4387 1.79117 58.3823 4.91665C59.6517 5.41612 60.6519 5.91554 62.1313 5.16534C72.1574 0.0826604 82.63 -0.574282 93.5153 1.93621C100.514 3.40115 106.649 7.57583 110.58 13.5487C120.406 28.1155 121.274 43.4591 113.993 59.2126C109.706 68.4854 101.72 73.188 91.9526 75.1544C90.0853 75.5305 88.2016 75.8258 85.8539 76.242C86.0718 81.8333 86.291 87.4653 86.5273 93.522C89.7768 93.1991 92.645 92.8867 95.5191 92.6412C96.7366 92.4962 97.9653 92.4771 99.1861 92.5841C99.9829 92.6301 100.739 92.9543 101.322 93.499C101.906 94.0438 102.28 94.775 102.381 95.5672C102.578 96.404 102.456 97.2848 102.039 98.037C101.623 98.7891 100.941 99.3595 100.127 99.6365C98.6492 100.128 97.1035 100.385 95.5454 100.398C92.7724 100.513 89.9915 100.43 87.057 100.43C87.2768 104.873 87.4993 108.892 87.6628 112.915C87.7691 114.707 87.7717 116.504 87.6693 118.297C87.4475 121.205 85.9747 123.019 83.9282 123.187C81.7282 123.367 79.9114 121.665 79.555 118.555C79.1337 114.879 79.005 111.17 78.8376 107.471C78.7412 105.366 78.8193 103.251 78.8193 101.025ZM53.5681 67.6026C38.8661 49.4877 38.3121 30.9789 51.7677 11.7482C49.7541 11.1772 47.8696 10.5184 45.9321 10.1154C37.2796 8.31572 28.8791 8.40512 20.9118 13.0389C16.0963 15.8395 12.3363 19.4281 10.0168 24.5456C4.74448 36.1693 6.46776 47.3115 12.3794 58.0794C14.9729 62.7565 19.2041 66.3096 24.2592 68.0555C33.9671 71.6154 43.6331 70.6874 53.5681 67.6026ZM67.0885 67.6118C67.8131 67.9216 68.5541 68.192 69.3076 68.4204C78.308 70.6427 87.1331 69.8131 95.758 66.6621C100.137 65.0599 103.757 61.8751 105.904 57.7358C111.988 46.5124 111.921 29.8802 103.297 18.544C100.344 14.5436 96.1308 11.6537 91.3356 10.3397C85.8217 8.81474 80.0978 8.1903 74.385 8.49031C71.4066 8.62158 68.9322 9.60608 66.2944 10.8137C80.6787 28.0984 79.8169 52.8008 67.0892 67.6085L67.0885 67.6118ZM58.0481 15.7613C44.8885 26.2161 46.1974 55.5149 59.9674 63.4467C70.2685 55.1913 72.6477 28.1298 58.0487 15.7571L58.0481 15.7613ZM78.7687 93.1249V76.6555C78.4399 76.5373 78.0979 76.4553 77.7507 76.4126C72.2467 76.1888 66.8247 74.9995 61.7323 72.8992C60.8791 72.533 59.6088 72.9137 58.5974 73.19C55.3629 74.0728 52.1713 75.1111 48.9395 76.0031C47.3577 76.4395 45.7236 76.6856 43.983 77.044C44.2514 82.5966 44.5078 87.8979 44.7591 93.1243L78.7687 93.1249Z" fill="black"/>
</g>
<defs>
<clipPath id="clip0_6_2012">
<rect width="119.453" height="124.048" fill="white"/>
</clipPath>
</defs>
</svg>
