<svg width="161" height="160" viewBox="0 0 161 160" fill="none" xmlns="http://www.w3.org/2000/svg">
<g clip-path="url(#clip0_8_2288)">
<path d="M111.615 53.8533C103.88 46.3179 93.9314 45.5047 85.653 51.732C82.3989 54.1795 79.2695 57.6154 76.0862 62.2334C72.0327 68.1194 70.9865 75.2945 70.0643 81.6235C68.4314 92.8206 69.6823 103.939 70.8913 114.687C71.0705 116.276 71.482 119.929 75.0505 119.928C75.1647 119.928 75.2829 119.925 75.4043 119.917C78.9485 119.69 78.9616 116.658 78.9702 114.651C78.9702 114.458 78.9702 114.27 78.9754 114.087C79.0201 111.68 78.9616 109.236 78.9045 106.873C78.8238 103.497 78.7391 100.006 78.961 96.6057C79.3725 89.474 80.2093 82.3731 81.4669 75.3404C82.5603 69.4583 85.8374 64.2064 90.6412 60.6387C95.7468 56.7551 100.304 57.2139 104.58 62.0373C107.816 65.6588 109.974 70.114 110.81 74.8987C111.758 80.4585 112.411 86.1726 113.041 91.7003C113.287 93.8544 113.534 96.0098 113.797 98.1606L113.684 98.1757C113.53 98.1967 113.387 98.2696 113.281 98.3831C113.175 98.4967 113.11 98.643 113.1 98.7979C113.033 99.7732 112.964 100.749 112.893 101.724C112.724 104.072 112.55 106.5 112.427 108.894L112.412 109.184C112.268 110.919 112.286 112.662 112.463 114.394C112.876 117.457 115.031 119.659 117.827 119.873C120.518 120.078 123.019 118.256 124.049 115.339C124.282 114.648 124.427 113.93 124.481 113.202C125.507 101.537 126.092 86.1844 121.469 70.8799C119.33 63.8003 116.106 58.2291 111.615 53.8533Z" fill="black"/>
<path d="M47.5186 113.229C47.5613 115.322 48.0826 117.378 49.0426 119.239C49.6451 120.403 51.6476 121.008 52.8848 121.008C52.9248 121.008 52.9636 121.008 53.0023 121.008C54.164 120.97 55.5996 119.572 55.9159 118.497C56.4021 116.714 56.5992 114.866 56.5 113.021C56.1062 102.224 55.6526 91.2487 55.2155 80.635L54.3446 59.4077C54.2789 57.7911 54.155 54.7809 50.4946 54.479C50.3743 54.4706 50.2536 54.4932 50.1446 54.5447C47.3328 55.9079 47.4216 58.4723 47.4931 60.5332C47.5056 60.8856 47.5179 61.236 47.5166 61.5779C47.4654 75.7289 47.4169 94.3886 47.5186 113.229Z" fill="black"/>
<path d="M50.6938 33.5646C50.2495 33.2227 49.7901 32.8695 49.3865 32.5019C49.2928 32.4159 49.1766 32.3583 49.0514 32.3359C48.9262 32.3135 48.7972 32.3272 48.6795 32.3753C44.2335 34.1743 43.95 37.2701 44.4947 39.5502C44.7626 40.462 45.2213 41.3066 45.8402 42.0278C46.4591 42.749 47.2242 43.3305 48.0848 43.7337C48.3409 43.8268 48.612 43.8715 48.8843 43.8651C50.2961 43.8651 52.2008 42.8845 52.8191 41.8836C53.2898 41.0628 53.5813 40.1517 53.6746 39.2102C53.7679 38.2686 53.661 37.3182 53.3605 36.4211C52.8768 35.2456 51.7669 34.3922 50.6938 33.5646Z" fill="black"/>
<path d="M156.707 26.6253C154.373 7.45371 138.239 -0.241834 123.293 0.643565C114.422 1.16404 105.637 1.44164 95.1757 1.69761C85.6976 1.92996 75.9778 2.12966 67.4028 2.30556C55.0978 2.55891 42.3734 2.82136 29.7396 3.17053C15.2345 3.57221 3.5386 12.9159 1.28933 25.8937C0.386208 31.1017 0.359918 36.3577 0.415707 42.1945C0.579135 59.2402 0.828546 76.4632 1.07205 93.1191L1.09896 94.9227C1.19566 101.623 1.2901 108.325 1.38243 115.026C1.39818 116.155 1.43756 117.286 1.47825 118.418L1.48162 118.508C1.64665 121.312 1.61883 124.124 1.39829 126.924C0.617905 134.401 3.48019 142.374 9.0558 148.25C15.2536 154.781 24.0372 158.101 33.7957 157.604C44.4441 157.052 55.3059 157.158 65.8099 157.259L66.5706 157.266C79.0357 157.386 91.7122 157.703 103.988 158.011L110.177 158.165C111.219 158.228 112.254 158.384 113.267 158.634C113.798 158.747 114.33 158.859 114.86 158.95C114.936 158.964 115.013 158.97 115.09 158.97H121.807C121.872 158.97 121.939 158.965 122.004 158.956C123.346 158.759 124.695 158.581 126.039 158.405L126.14 158.392C129.153 157.998 132.27 157.592 135.308 156.932C148.411 154.086 159.512 140.496 159.549 127.258C159.558 124.138 159.569 121.017 159.582 117.897L159.587 116.331C159.653 99.2296 159.725 81.5453 159.358 64.1324C159.089 51.4671 158.197 38.8477 156.707 26.6253ZM149.422 126.334C149.463 136.559 140.544 146.133 129.118 148.129C120.363 149.658 111.414 149.138 102.758 148.637C99.545 148.451 96.2226 148.258 92.9212 148.171C89.1729 148.072 85.3563 147.879 81.644 147.69L81.3158 147.674C79.7183 147.593 78.1195 147.512 76.5338 147.44H76.4603C72.4212 147.44 68.3814 147.435 64.3417 147.425C59.6541 147.417 54.8937 147.409 50.1083 147.409C43.8173 147.409 38.6454 147.423 33.8311 147.451H33.6191C26.553 147.451 20.7241 145.355 16.7625 141.388C12.6433 137.264 10.4938 131.103 10.5482 123.571C10.6756 105.861 10.5987 87.9321 10.5239 70.5923C10.4819 60.6914 10.4386 50.4543 10.4333 40.3395C10.3347 34.5141 11.6524 28.752 14.273 23.5484C17.2449 17.833 22.5533 14.8001 30.978 14.004C42.8 12.8882 52.3392 12.2804 60.9983 12.092C85.9968 11.5446 105.235 11.351 123.376 11.4632C136.608 11.5453 144.247 17.77 146.742 30.4938C149.498 44.5985 149.459 59.0958 149.417 73.1231L149.414 74.3124C149.354 94.2093 149.357 110.74 149.42 126.334H149.422Z" fill="black"/>
</g>
<defs>
<clipPath id="clip0_8_2288">
<rect width="160.146" height="159.49" fill="white"/>
</clipPath>
</defs>
</svg>
