<svg width="159" height="160" viewBox="0 0 159 160" fill="none" xmlns="http://www.w3.org/2000/svg">
<g clip-path="url(#clip0_8_2436)">
<path d="M13.2559 123.863C13.8678 119.927 15.5039 116.417 17.0238 113.502C19.5873 108.585 23.291 104.396 26.8734 100.346C27.4588 99.6834 28.0428 99.0201 28.6256 98.3561C35.5807 90.3885 42.7733 82.1566 50.9738 74.7597C56.9049 69.4104 63.7588 67.3621 71.9213 68.4963C72.48 68.5747 73.0401 68.6453 73.6015 68.7159C76.8094 69.1214 79.8401 69.5043 82.6035 71.0997C83.2544 71.447 83.9566 71.6873 84.6841 71.8123C85.1183 71.8913 85.5641 71.881 85.9944 71.7831C86.4247 71.6847 86.8309 71.5007 87.1879 71.241C87.6103 70.9501 87.9705 70.577 88.2464 70.1443C88.5228 69.7116 88.7084 69.2277 88.7941 68.7218C88.957 67.7365 88.8596 66.7253 88.5124 65.7886C88.1652 64.8526 87.5792 64.0222 86.8128 63.3804C84.3992 61.2042 81.434 59.7303 78.2391 59.1192C74.7385 58.3851 71.1977 57.8563 67.6354 57.5355C59.7526 56.8087 52.8968 58.8562 47.2571 63.6245C41.7817 68.166 36.54 72.9809 31.5518 78.051C26.2983 83.4988 21.2863 89.341 16.4397 94.9903L14.2981 97.4849C10.0811 102.44 6.59349 107.969 3.94042 113.906C1.78978 118.655 0.619943 123.788 0.500801 128.999V129.015C0.481332 139.891 4.6134 148.112 12.7834 153.451C19.1363 157.602 25.7176 159.682 32.4566 159.682C36.5872 159.657 40.6822 158.918 44.56 157.497C47.0774 156.598 49.3215 155.734 51.4203 154.855C58.8148 151.76 65.3549 146.758 72.6248 138.637C76.8691 133.898 81.0446 128.961 85.0852 124.185C87.1372 121.76 89.1945 119.338 91.2576 116.922C91.9462 116.119 92.6756 115.321 93.3817 114.548C94.5973 113.219 95.8543 111.843 96.9667 110.377C98.1134 108.928 98.9331 107.249 99.3712 105.454C99.5068 104.775 99.4581 104.071 99.2303 103.417C99.0019 102.763 98.6028 102.182 98.0732 101.733C97.5008 101.222 96.8038 100.87 96.0523 100.713C95.3001 100.557 94.52 100.6 93.7906 100.84C92.4491 101.287 91.2109 101.997 90.1492 102.929C88.8655 104.139 87.6629 105.433 86.5499 106.8L86.045 107.393C83.44 110.437 80.8408 113.486 78.2475 116.538C73.8786 121.673 69.3604 126.983 64.873 132.166C57.7991 140.334 48.9815 145.356 38.6543 147.092C35.0218 147.769 31.2844 147.636 27.7093 146.703C17.1225 143.753 12.8295 138.063 12.8911 127.065C12.9225 126.139 13.0227 125.217 13.1909 124.306L13.2559 123.863Z" fill="black"/>
<path d="M140.344 1.13861C135.588 0.0153755 130.745 0.0373656 126.059 0.0671629L124.944 0.072382C119.579 0.0931108 114.569 1.7203 109.628 5.04597C101.61 10.3326 94.2201 16.5121 87.6012 23.4654C83.1563 28.2052 78.5064 33.4062 73.3885 39.3644C70.8835 42.2794 68.5731 46.0285 70.437 51.7108C70.4649 51.7949 70.5097 51.8727 70.5681 51.9395C70.6265 52.0062 70.6979 52.0606 70.7777 52.0995C70.8582 52.1382 70.9458 52.1606 71.0347 52.1655C71.1236 52.1703 71.2132 52.1576 71.2969 52.128C75.7748 50.5221 78.9847 48.6385 81.6987 46.0189L81.8454 45.877C85.2584 42.5818 88.7895 39.1739 92.0746 35.6384C100.078 27.0269 107.283 20.588 114.746 15.3721C118.432 12.7145 122.862 11.2813 127.409 11.2756C130.919 11.2106 134.426 11.5049 137.876 12.1539C142.981 13.1807 148.519 16.9248 148.742 24.3522C148.927 30.4373 147.695 35.12 144.867 39.0909C143.715 40.7071 142.578 42.3376 141.44 43.9687C137.819 49.1612 134.075 54.5275 129.884 59.3436C124.609 65.403 117.339 73.004 107.852 78.0527C100.077 82.1933 91.2465 83.9403 82.4768 83.0742C78.8224 82.8352 75.3666 81.3291 72.7065 78.8164C71.5649 77.7171 70.3396 76.7086 69.0417 75.7984C67.2726 74.5852 65.2075 74.6415 63.9026 75.9416C63.207 76.5544 62.7372 77.3823 62.5687 78.293C62.4002 79.2038 62.5427 80.1444 62.9732 80.9651C63.6374 82.4051 64.4327 83.7816 65.349 85.0771C68.3304 89.0797 72.6175 91.7544 78.4584 93.252C81.1289 93.927 83.8748 94.2626 86.629 94.2503C90.8708 94.1712 95.0878 93.5863 99.1907 92.5091C107.563 90.488 115.303 86.0216 122.855 78.854C135.604 66.7542 145.764 52.6495 153.192 41.7138C156.527 36.7991 158.367 31.0271 158.491 25.0926C158.635 20.3853 158.257 14.3758 154.029 9.65613C149.979 5.14374 145.506 2.35772 140.344 1.13861Z" fill="black"/>
</g>
<defs>
<clipPath id="clip0_8_2436">
<rect width="159" height="160" fill="white"/>
</clipPath>
</defs>
</svg>
