<svg width="142" height="107" viewBox="0 0 142 107" fill="none" xmlns="http://www.w3.org/2000/svg">
<g clip-path="url(#clip0_8_2439)">
<path d="M45.5315 14.6432C46.7057 15.4402 48.0427 15.9723 49.4477 16.2018C51.8995 16.5122 54.3677 16.6771 56.8394 16.6955C60.8376 16.7733 64.8353 16.8605 68.8328 16.9572C79.0152 17.1906 89.5193 17.4316 99.8983 17.4316C100.662 17.4316 101.424 17.4303 102.187 17.4277C110.368 17.3987 118.676 16.9373 126.711 16.4906C129.198 16.3526 131.685 16.2185 134.172 16.0883C135.261 15.9799 136.331 15.7274 137.353 15.3374C137.931 15.1492 138.525 14.9506 139.2 14.7695C139.299 14.7422 139.391 14.6928 139.467 14.625C139.544 14.5571 139.604 14.4727 139.642 14.3783C139.68 14.2838 139.697 14.1819 139.689 14.0804C139.681 13.979 139.65 13.8806 139.598 13.793C137.877 10.9233 135.73 10.6449 134.006 10.4206C133.757 10.389 133.515 10.356 133.281 10.3174C122.984 8.58861 113.675 7.15384 104.055 7.11323C100.828 7.0997 97.6054 7.06811 94.3772 7.03653C89.4606 6.98818 84.3766 6.943 79.3747 6.95653C70.204 6.9907 61.0023 7.12026 52.0231 7.34328C49.9715 7.37906 47.9431 7.77921 46.0345 8.52479C45.4797 8.76503 45.0026 9.15223 44.656 9.64352C44.3094 10.1349 44.1066 10.7113 44.0699 11.3094C43.9851 11.944 44.0764 12.5895 44.3338 13.1768C44.5913 13.764 45.0052 14.2709 45.5315 14.6432Z" fill="black"/>
<path d="M141.483 57.7644C141.267 57.1521 141.061 56.574 140.51 56.3464C139.229 55.7998 137.876 55.4401 136.49 55.279C133.666 54.9993 130.843 54.6924 128.022 54.385C120.792 53.5973 113.318 52.7831 105.934 52.4756C92.1567 51.9019 78.1391 51.6487 64.5831 51.405C60.1399 51.3251 55.6975 51.2414 51.256 51.1537C49.6286 51.0811 48.0018 51.3117 46.4605 51.8337C45.8897 52.1135 45.3835 52.5071 44.9736 52.9896C44.5637 53.472 44.259 54.033 44.0784 54.6375C43.8428 55.4445 43.9274 56.31 44.3148 57.0574C44.7021 57.8048 45.3633 58.3776 46.163 58.659C48.0618 59.4137 50.054 59.9143 52.0866 60.1474C59.6693 60.7392 67.3868 61.211 74.8497 61.6667L77.3627 61.8201C85.6039 62.3248 93.5819 62.5775 101.383 62.5775C111.641 62.5775 121.591 62.1404 131.412 61.2644C131.919 61.2193 132.43 61.1807 132.943 61.142C135.732 60.9319 138.618 60.7147 141.452 59.3694C141.61 59.2939 141.733 59.1596 141.792 58.9954C141.852 58.8311 141.843 58.6503 141.769 58.4923C141.661 58.2546 141.566 58.0116 141.483 57.7644Z" fill="black"/>
<path d="M138.306 94.0158C138.063 93.9436 137.836 93.8624 137.619 93.7857C137.144 93.5898 136.644 93.4621 136.132 93.4067C133.686 93.2468 131.241 93.0696 128.795 92.891C122.694 92.4489 116.387 91.9886 110.165 91.8314C92.1176 91.3711 73.7631 91.1487 56.0145 90.9328L53.495 90.9025C51.6373 90.8929 49.7991 91.277 48.1043 92.0305C47.5039 92.298 46.9898 92.7247 46.619 93.263C46.2482 93.8012 46.035 94.4309 46.0029 95.082C45.9456 95.7749 46.0802 96.4704 46.3922 97.0937C46.7043 97.717 47.1819 98.2443 47.774 98.6188C48.7849 99.255 49.9192 99.6746 51.1039 99.8512L52.4763 100.035C55.556 100.505 58.6591 100.81 61.7721 100.949C67.2904 101.095 72.9 101.152 78.3253 101.207C82.0792 101.245 85.9608 101.284 89.7765 101.352C90.9451 101.374 92.1117 101.384 93.2777 101.384C106.127 101.384 118.848 100.166 129.755 98.9469L131.002 98.8096C132.775 98.6162 134.607 98.4177 136.401 98.1108C138.23 97.7982 139.028 96.6064 138.775 94.5657C138.759 94.4387 138.706 94.3194 138.623 94.2221C138.539 94.1241 138.43 94.0526 138.306 94.0158Z" fill="black"/>
<path d="M11.1991 85.4813C5.95558 85.0301 2.84068 88.3065 0.485954 91.5622C0.433091 91.6351 0.395713 91.7176 0.376225 91.8046C0.356736 91.8923 0.3555 91.9825 0.372567 92.0708C0.476788 92.62 0.578316 93.1286 0.674719 93.6101C0.870132 94.5724 1.03366 95.4039 1.16198 96.2451C1.40433 98.1634 2.10231 99.9978 3.1988 101.598C4.2953 103.199 5.75919 104.52 7.47059 105.453C9.12007 106.313 10.9577 106.76 12.8224 106.755C14.7505 106.744 16.6513 106.303 18.3837 105.466C19.6643 104.915 20.8087 104.094 21.7373 103.062C22.6658 102.03 23.3566 100.811 23.7615 99.488C24.0811 98.1827 24.1098 96.8252 23.8458 95.5083C23.5818 94.1915 23.0314 92.9468 22.2328 91.862C21.0263 90.0178 19.3994 88.4805 17.4832 87.3725C15.5668 86.2645 13.4145 85.616 11.1991 85.4813Z" fill="black"/>
<path d="M12.1751 25.1569C12.489 25.1801 12.7999 25.1915 13.1073 25.1911C15.5844 25.2519 18.0064 24.4624 19.9622 22.9567C21.9179 21.4509 23.2867 19.3218 23.8361 16.9307C25.0085 11.865 23.5234 7.31042 19.5422 3.75946C15.7388 0.36769 11.2045 -0.288483 6.42735 1.8657C5.43707 2.33809 4.47737 2.87067 3.55357 3.46039C3.06699 3.75625 2.55296 4.06883 1.99017 4.39176C1.89752 4.44538 1.81926 4.52016 1.76181 4.60987C1.70435 4.69959 1.66948 4.80166 1.66003 4.90746C1.56754 6.02193 1.44572 7.099 1.32782 8.13548C1.02553 10.2781 0.892405 12.4407 0.929775 14.6038C1.18577 20.2594 5.9147 24.696 12.1751 25.1569ZM10.3773 7.63335C11.3586 7.92683 12.2637 8.42825 13.0293 9.1028C13.7951 9.77735 14.4032 10.6089 14.8113 11.5395C15.6274 13.2528 15.5414 14.5967 14.5409 15.7679C13.7482 16.6968 12.6024 16.934 10.931 16.5131C10.1782 16.3604 9.49303 15.9771 8.97258 15.4177C8.45213 14.8582 8.12279 14.1509 8.03114 13.3959C7.65595 11.0619 8.4023 9.22288 10.3773 7.63335Z" fill="black"/>
<path d="M15.1927 45.5459H15.1139C7.15795 45.6239 2.44858 49.8498 2.19259 57.1381C2.13917 58.4108 2.34662 59.6811 2.80246 60.8724C3.2583 62.0637 3.95311 63.1513 4.84501 64.0698C5.94776 65.1577 7.26119 66.0143 8.70653 66.588C10.1519 67.1617 11.6993 67.4408 13.2563 67.4086H13.3285C14.8854 67.4337 16.4315 67.1495 17.8754 66.5726C19.3193 65.9957 20.6315 65.1384 21.7345 64.0504C22.7123 63.0731 23.4803 61.9103 23.9924 60.6318C24.5045 59.3533 24.7501 57.9855 24.7146 56.6107C24.5778 50.4898 20.3145 45.5459 15.1927 45.5459ZM14.1109 57.1909H11.0428C10.2741 55.3216 10.6592 54.0247 12.3619 52.7433C13.8471 53.569 14.6776 54.717 14.1109 57.1909Z" fill="black"/>
</g>
<defs>
<clipPath id="clip0_8_2439">
<rect width="142" height="107" fill="white"/>
</clipPath>
</defs>
</svg>
