<svg width="37" height="141" viewBox="0 0 37 141" fill="none" xmlns="http://www.w3.org/2000/svg">
<g clip-path="url(#clip0_8_2446)">
<path d="M15.8217 33.4326C14.774 33.1077 14.0236 32.9245 13.3089 32.647C11.4164 32.0309 9.57221 31.2751 7.79141 30.3858C1.26642 26.6484 -1.10679 20.063 1.35468 12.9779C4.5224 3.86093 12.4949 -0.875189 21.9967 0.751834C23.7429 1.05073 25.469 1.47419 27.2002 1.85625C31.3598 2.77503 34.0159 5.33598 35.3849 9.33338C36.9407 13.7686 37.0182 18.5888 35.6057 23.0718C35.0539 25.0627 34.0162 26.885 32.586 28.3747C31.1557 29.8643 29.3779 30.9746 27.4124 31.6054C25.9603 32.1187 24.4731 32.532 22.7225 33.0785C22.7225 33.7932 22.7186 34.5378 22.7225 35.2876C22.9094 65.7297 23.0877 96.1727 23.2573 126.616C23.2716 129.715 22.9257 132.82 22.6732 135.916C22.5836 136.794 22.3703 137.655 22.0396 138.473C21.799 139.225 21.3021 139.868 20.636 140.289C19.9699 140.711 19.1768 140.885 18.3954 140.781C17.6633 140.773 16.9551 140.519 16.3849 140.059C15.8146 139.599 15.4155 138.961 15.2517 138.247C14.8861 136.97 14.6876 135.651 14.6611 134.323C14.7818 106.324 14.9376 78.3255 15.1284 50.3272C15.1661 45.4468 15.5828 40.5688 15.8164 35.689C15.8489 35.0314 15.8217 34.3721 15.8217 33.4326ZM28.5017 17.0291C28.5017 16.4748 28.5367 15.9185 28.4958 15.3675C28.2212 11.6755 26.6393 9.0493 22.7446 8.28127C20.2513 7.79005 17.7833 7.13618 15.2718 6.78661C14.3046 6.72248 13.3436 6.98258 12.5403 7.52553C9.91852 9.24872 8.50083 11.8661 7.64724 14.8174C6.48533 18.8368 7.62581 21.7827 11.2583 23.8002C12.8952 24.7389 14.7011 25.3451 16.5723 25.5842C18.4436 25.8234 20.3436 25.6909 22.1636 25.194C27.1022 23.9302 28.5562 22.1863 28.5017 17.0291Z" fill="black"/>
</g>
<defs>
<clipPath id="clip0_8_2446">
<rect width="37" height="141" fill="white"/>
</clipPath>
</defs>
</svg>
