<svg width="101" height="161" viewBox="0 0 101 161" fill="none" xmlns="http://www.w3.org/2000/svg">
<path d="M26.7623 120.118C20.1661 121.457 11.7379 123.815 5.06094 130.221C1.71362 133.437 0.0446173 137.29 0.368192 141.074C0.677986 144.705 2.83267 148.044 6.43531 150.478C10.2967 153.099 14.5537 155.084 19.0437 156.357C28.7733 159.075 38.8266 160.46 48.9287 160.475C56.4675 160.471 63.9857 159.692 71.3647 158.149C78.5188 156.659 86.7985 154.408 93.9264 149.026C97.3702 146.427 99.3963 143.231 99.7875 139.784C100.181 136.305 98.9053 132.7 96.0936 129.348C92.1707 124.672 86.9836 121.464 80.2358 119.541C77.7109 118.819 75.0875 118.337 72.5508 117.868C71.7172 117.714 70.8843 117.561 70.0514 117.398C71.072 115.807 72.0972 114.222 73.127 112.645C75.7287 108.641 78.4197 104.499 80.8967 100.327C88.3029 87.8481 97.0256 71.0583 98.7491 51.8327C100.565 31.5716 94.181 17.0677 79.2303 7.49433C68.8602 0.853515 57.2885 -1.37994 44.8417 0.860138C26.0232 4.24487 13.7254 15.249 8.28956 33.5674C5.04926 44.4902 6.23526 55.535 7.63322 63.9381C9.92253 77.726 15.0951 91.5229 24.4066 108.674C25.8584 111.348 27.3922 113.898 29.0166 116.598C29.5824 117.536 30.1495 118.483 30.7179 119.437L29.996 119.553C28.8684 119.735 27.8091 119.906 26.7623 120.118ZM50.9561 126.831C50.5233 127.391 50.0877 127.955 49.6493 128.523C40.8944 121.055 35.29 111.508 30.5388 102.284C24.4243 90.4124 17.8898 76.1272 15.7882 60.1754C13.9911 46.5235 15.3359 36.446 20.1495 27.4896C26.1294 16.364 38.0164 9.33805 51.9471 8.69419C52.6293 8.66268 53.3076 8.6468 53.9818 8.6468C66.8006 8.6468 78.1349 14.3099 84.5873 24.0342C88.694 30.2267 90.5075 37.4432 90.2975 46.7435C90.0612 57.0992 87.1982 67.7759 81.2879 80.3409C74.6182 94.525 65.908 108.185 54.6604 122.102C53.4055 123.654 52.2156 125.197 50.9561 126.831ZM33.9116 125.232C34.6139 125.264 35.2828 125.541 35.8019 126.015C39.765 130.555 44.672 134.172 50.1797 136.617C52.5904 137.681 54.7372 137.029 56.5553 134.681L57.7938 133.076C59.4714 130.899 61.2068 128.647 63.0137 126.533C63.5489 125.866 64.3187 125.43 65.1652 125.313C71.3602 125.817 77.8736 126.763 83.5319 130.249C85.9171 131.771 88.0541 133.65 89.8676 135.822C90.2614 136.213 90.5705 136.681 90.7773 137.196C90.984 137.711 91.0838 138.263 91.07 138.819C90.9748 139.384 90.7654 139.923 90.455 140.405C90.1445 140.887 89.7396 141.3 89.2644 141.621C87.1215 143.327 84.7718 144.755 82.2698 145.871C72.8796 150.041 62.0547 152.119 48.206 152.409C38.1588 152.039 28.3708 151.445 19.0823 148.316C16.0546 147.328 13.1724 145.94 10.5119 144.189C8.64661 142.932 7.61413 141.462 7.52683 139.936C7.44413 138.5 8.21993 137.04 9.76954 135.714C13.1077 132.858 16.8468 130.508 20.8676 128.739C24.0784 127.339 27.6614 126.565 31.1268 125.816C31.9755 125.632 32.8242 125.448 33.6669 125.256C33.7474 125.24 33.8294 125.232 33.9116 125.232Z" fill="black"/>
<path d="M70.8224 43.3754C70.8224 43.1956 70.8296 43.0159 70.8342 42.8367C70.8664 42.0491 70.8559 41.2602 70.8014 40.4738C70.575 37.4464 69.5891 34.5251 67.9339 31.9799C66.2792 29.4347 64.009 27.3479 61.3337 25.913C58.7338 24.5427 55.8267 23.8607 52.8888 23.9321C49.9509 24.0034 47.08 24.8258 44.5498 26.3206C38.5771 29.7086 34.8282 35.4142 33.7098 42.8204C32.2573 52.437 39.0917 61.8476 48.9434 63.7976C50.2701 64.0627 51.6195 64.1975 52.9726 64.2004C61.2641 64.2004 68.033 58.9123 70.0939 50.3609C70.4128 48.9212 70.655 47.4656 70.8191 46.0002C70.9058 45.3406 70.9911 44.6811 71.0915 44.0247C71.1053 43.935 71.1007 43.8432 71.0777 43.7552C71.0554 43.6672 71.0154 43.5847 70.9602 43.5126C70.9208 43.4606 70.8742 43.4144 70.8224 43.3754ZM63.3716 44.1737L63.3578 44.4487C63.344 44.7454 63.3251 45.1457 63.2922 45.5461C62.9477 49.7138 61.4222 52.9568 58.8809 54.9232C56.6211 56.6724 53.6658 57.2912 50.329 56.7163C48.5871 56.3528 46.9364 55.6417 45.4758 54.6255C44.0151 53.6093 42.7744 52.3086 41.828 50.8019C40.9649 49.429 40.4105 47.8851 40.2033 46.2767C39.9961 44.6684 40.1412 43.034 40.6282 41.4872C41.8851 37.1967 43.742 33.0518 48.7767 31.7825C49.9923 31.4687 51.242 31.3064 52.4974 31.2989C54.8759 31.2418 57.2026 31.9983 59.0929 33.4432C61.9177 35.6774 63.4372 39.4885 63.3716 44.1708V44.1737Z" fill="black"/>
</svg>
