<svg width="109" height="156" viewBox="0 0 109 156" fill="none" xmlns="http://www.w3.org/2000/svg">
<g clip-path="url(#clip0_8_2448)">
<path d="M59.3012 0.40332C60.8058 0.691268 62.313 0.966224 63.8143 1.26977C76.7153 3.88212 85.1381 11.5638 89.2431 24.0061C91.2733 30.1597 92.0947 36.5556 92.5073 43.0017C92.8479 48.3258 93.1276 53.6539 93.4455 58.9793C93.4915 59.7476 93.5999 60.512 93.6927 61.4116C94.6536 61.7659 95.547 62.1825 96.4826 62.4263C103.175 64.1644 106.215 68.9263 107.217 75.3749C107.439 76.8049 107.619 78.2414 107.699 79.6818C108.713 98.0027 109.01 116.33 107.893 134.656C107.718 139.123 106.336 143.459 103.894 147.201C101.96 150.221 98.9967 152.434 95.5554 153.429C89.9958 155.007 84.2395 155.781 78.4612 155.725C60.4861 155.735 42.5111 155.587 24.5361 155.282C20.7649 155.165 17.0124 154.704 13.3253 153.902C5.53954 152.327 1.56365 147.987 0.650127 140.097C0.24985 136.452 0.103501 132.785 0.212169 129.12C0.552794 115.011 0.95052 100.902 1.49098 86.7993C1.7252 80.6718 2.6186 74.6762 6.11244 69.3176C8.67266 65.3909 11.9946 62.7487 16.5284 61.6125C17.3829 61.3987 18.2154 61.084 19.4182 60.7024C19.5817 59.2145 19.779 57.6033 19.9334 55.9867C20.6127 48.9115 20.9559 41.7829 22.0602 34.7753C22.837 29.8456 24.1825 25.0231 26.0698 20.4045C30.2663 10.1949 38.4945 4.54054 48.8755 1.72474C50.7733 1.20994 52.7113 0.841359 54.6304 0.405859L59.3012 0.40332ZM51.0042 148.792C51.0042 148.644 51.0101 148.496 51.0133 148.348C56.6748 148.348 62.3428 148.509 67.9972 148.308C75.3061 148.048 82.6447 148.105 89.8666 146.561C95.5917 145.337 97.9917 143.1 98.645 137.35C99.0213 133.596 99.1985 129.824 99.1758 126.051C99.2043 121.939 98.6632 117.802 98.95 113.718C99.6851 103.244 98.841 92.8281 98.2901 82.3962C98.1909 80.5112 98.137 78.6113 97.8918 76.7412C97.5674 74.2511 96.4585 72.3212 93.7186 71.8084C88.9304 70.9146 84.1811 69.5158 79.3533 69.198C69.723 68.5629 60.0558 68.4381 50.4002 68.247C40.3715 68.0481 30.4817 69.4755 20.6198 71.122C19.3603 71.2884 18.1531 71.7317 17.0846 72.42C16.0161 73.1084 15.1128 74.0255 14.4393 75.1045C12.0633 78.7146 11.5475 82.8213 11.3308 86.8799C10.4517 103.308 9.79445 119.748 9.10022 136.185C9.03015 137.842 9.27475 139.512 9.35066 141.176C9.48627 144.13 11.0337 145.945 13.8651 146.562C16.2249 147.169 18.6317 147.574 21.0597 147.775C31.0371 148.207 41.0223 148.468 51.0042 148.792ZM82.9906 59.3329C82.6175 53.0435 82.4929 47.267 81.874 41.5438C81.2796 36.0435 80.623 30.4768 79.184 25.1592C77.1149 17.5106 72.2372 12.15 64.2698 10.1031C60.1881 8.96486 55.8791 8.92457 51.777 9.98621C43.0868 12.3548 36.831 17.3578 34.0106 26.2719C31.2519 34.9923 29.7726 43.9429 28.6755 52.9818C28.4296 55.0117 28.2667 57.052 28.0318 59.429L35.013 58.5588C35.3374 53.5655 35.6034 48.918 35.9389 44.275C36.2925 39.3896 36.988 34.5457 38.7359 29.9489C41.5024 22.6735 48.9319 17.3072 56.8007 17.4398C64.6695 17.5724 70.5691 21.2389 73.6088 28.7978C74.5366 31.0499 75.3437 33.3499 76.0269 35.6879C77.6775 41.5158 77.863 47.5126 77.8559 53.5244C77.8559 55.2619 77.9772 56.9988 78.0505 58.8832L82.9906 59.3329ZM67.3789 58.0394C67.3101 51.9203 67.9466 45.7207 66.8813 39.5795C66.3609 36.5269 65.5188 33.5382 64.3697 30.6634C62.629 26.3617 58.3267 24.6431 53.9206 26.1413C52.2134 26.6576 50.6541 27.5751 49.3726 28.8175C48.0911 30.0598 47.1246 31.5911 46.5534 33.2836C43.7836 41.1817 43.3742 49.4731 42.2064 58.0394H67.3789Z" fill="black"/>
<path d="M48.4926 123.088C48.346 120.342 48.4517 117.728 46.3723 115.319C44.3474 112.974 44.9001 109.264 46.9374 106.674C48.8728 104.214 51.7113 103.489 54.956 104.623C60.5073 106.564 61.9463 110.858 58.4739 115.707C58.0574 116.268 57.7691 116.914 57.6296 117.599C57.4901 118.284 57.5028 118.992 57.6668 119.672C58.094 122.292 58.2309 124.952 58.0749 127.602C57.853 130.482 55.7392 132.354 53.4034 132.401C50.9529 132.451 48.8851 130.429 48.5205 127.414C48.425 125.973 48.4156 124.529 48.4926 123.088Z" fill="black"/>
</g>
<defs>
<clipPath id="clip0_8_2448">
<rect width="109" height="156" fill="white"/>
</clipPath>
</defs>
</svg>
