<svg width="146" height="156" viewBox="0 0 146 156" fill="none" xmlns="http://www.w3.org/2000/svg">
<g clip-path="url(#clip0_8_2451)">
<path d="M23.5359 80.7455C26.4079 80.9397 29.3292 81.0601 32.1544 81.1772C33.0577 81.2148 33.961 81.2523 34.8642 81.2912L35.7337 81.3293C39.1599 81.4795 42.7034 81.6362 46.1912 81.7494C49.3902 81.8537 52.8806 81.9352 56.8615 82C59.4571 82.042 62.0572 82.0653 64.6553 82.088L68.1944 82.1197C69.3578 82.1314 70.5213 82.1449 71.6835 82.1611C74.255 82.1941 76.9161 82.222 79.5305 82.2265C82.8911 82.2233 86.8668 82.2026 90.8783 82.0802C92.5478 82.0284 94.2395 81.9307 95.8747 81.8355C97.726 81.7287 99.6383 81.6187 101.517 81.5773C102.651 81.552 103.806 81.4588 104.923 81.3701C107.313 81.0976 109.726 81.0834 112.119 81.3268C111.126 83.1625 109.987 84.9161 108.713 86.5706C107.801 87.7739 106.951 89.0232 106.166 90.3133L106.015 90.5722C104.077 93.8799 102.073 97.2996 100.27 100.761C99.8076 101.647 99.2969 102.54 98.7999 103.403C97.4372 105.77 96.035 108.216 95.3608 111.022C95.3309 111.146 95.3374 111.276 95.3796 111.396C95.4211 111.516 95.497 111.622 95.597 111.701L97.2932 113.034C97.3892 113.11 97.5047 113.158 97.626 113.173C97.7474 113.187 97.8707 113.168 97.9823 113.118C98.1854 113.025 98.3911 112.949 98.5922 112.874C99.0932 112.718 99.563 112.475 99.9796 112.156C108.489 104.882 116.096 95.9746 124.646 83.2738C125.142 82.499 125.579 81.6886 125.954 80.849C127.389 77.8358 127.091 75.0932 125.068 72.6969C124.842 72.4289 124.62 72.1551 124.399 71.882C123.923 71.2936 123.43 70.6864 122.883 70.1271C121.369 68.5788 119.86 67.0252 118.356 65.4659C114.374 61.3447 110.256 57.0833 106.002 53.0959C103.248 50.6241 100.342 48.3269 97.3003 46.2177C96.327 45.5115 95.3536 44.8059 94.3894 44.0887L94.2836 44.009C93.7398 43.5941 92.4667 42.6253 90.9782 44.0539C90.8562 44.1711 90.7835 44.3304 90.7744 44.4989C90.6492 46.9198 92.0722 48.5235 93.4524 50.0737C93.9949 50.6541 94.4958 51.2717 94.9507 51.9227C96.6319 54.3527 98.4683 56.6723 100.449 58.8661L100.798 59.27C101.767 60.3911 102.805 61.4704 103.809 62.5216C104.769 63.5224 105.761 64.5577 106.68 65.6141C107.313 66.341 108.015 67.0252 108.692 67.6855C110.075 68.9193 111.279 70.3394 112.27 71.9053L112.061 71.9312C111.501 72.0192 110.935 72.0639 110.369 72.0645C106.731 71.9622 103.092 71.8496 99.454 71.7273C93.6438 71.5408 87.6357 71.3479 81.7231 71.2198C79.8737 71.1803 78.0244 71.1389 76.1744 71.0955C59.6278 70.7155 42.5236 70.322 25.7116 71.8146C19.6769 72.3493 13.5839 73.2575 7.69198 74.1359L5.21644 74.5035C4.27823 74.7275 3.39527 75.1392 2.62088 75.7127C2.05375 76.0629 1.41135 76.4603 0.5918 76.905C0.481559 76.9652 0.390534 77.0552 0.329159 77.1646C0.267784 77.2733 0.238556 77.3983 0.24486 77.5232C0.251164 77.6488 0.292733 77.7692 0.364784 77.8715C0.436834 77.9744 0.536446 78.0546 0.652159 78.1032C4.26971 79.6185 7.3883 79.6677 10.1396 79.7111C11.1012 79.726 12.009 79.7402 12.9116 79.8114C14.469 79.9338 16.0224 80.0839 17.5765 80.2335C19.5264 80.4166 21.5432 80.6108 23.5359 80.7455Z" fill="black"/>
<path d="M144.502 7.24664C143.809 3.37709 141.417 1.20535 137.585 0.963905C136.093 0.870046 134.484 0.748068 132.856 0.625083C130.638 0.457432 128.344 0.284369 126.247 0.17627C111.739 0.254593 86.9291 1.70015 84.9837 1.97785C84.5963 2.01406 84.2212 2.13403 83.8851 2.32931C83.549 2.5246 83.2596 2.79056 83.037 3.10873C82.7885 3.55468 82.6399 4.04896 82.6016 4.55758C82.5627 5.06619 82.6347 5.57693 82.8132 6.0551C82.8391 6.14836 82.8845 6.2349 82.9475 6.30858C83.0104 6.38226 83.0889 6.44143 83.1772 6.48179C86.9408 8.21009 107.263 8.69174 122.101 9.04258C127.898 9.1791 132.576 9.29056 134.839 9.44333C134.917 10.2518 134.998 11.0135 135.076 11.7424C135.271 13.5548 135.436 15.124 135.474 16.7008C135.625 23.0043 135.779 30.4577 135.779 37.9392C135.779 42.9196 135.785 47.8997 135.798 52.8796C135.829 68.4476 135.863 84.5461 135.572 100.369C135.402 109.698 134.8 119.184 134.217 128.356C133.973 132.214 133.72 136.203 133.504 140.127C133.447 140.853 133.349 141.576 133.212 142.291C133.168 142.55 133.123 142.818 133.076 143.095C132.733 143.146 132.395 143.2 132.059 143.254C131.064 143.432 130.061 143.557 129.054 143.628C125.932 143.79 122.809 143.925 119.686 144.059C114.251 144.293 108.63 144.536 103.108 144.925C97.2036 145.341 87.3203 145.93 81.9547 146.244C80.9281 146.303 79.9632 146.751 79.2573 147.496C78.5506 148.241 78.1561 149.227 78.1528 150.252C78.1502 151.278 78.5402 152.266 79.243 153.015C79.9451 153.763 80.908 154.216 81.9339 154.281C90.0308 154.799 107.81 155.823 121.702 155.823C124.963 155.823 128.013 155.766 130.669 155.634L131.63 155.589C133.786 155.566 135.934 155.32 138.039 154.855C141.765 153.895 143.437 151.672 143.629 147.422C143.781 144.046 143.961 140.671 144.141 137.296C144.428 131.923 144.725 126.373 144.9 120.903C145.285 108.884 145.509 98.0171 145.585 87.6816C145.617 83.0676 145.661 78.4537 145.715 73.8384C145.917 54.4195 146.126 34.3388 145.195 14.5863C145.124 12.1274 144.892 9.67564 144.502 7.24664Z" fill="black"/>
</g>
<defs>
<clipPath id="clip0_8_2451">
<rect width="146" height="156" fill="white"/>
</clipPath>
</defs>
</svg>
