<svg width="140" height="156" viewBox="0 0 140 156" fill="none" xmlns="http://www.w3.org/2000/svg">
<g clip-path="url(#clip0_8_2454)">
<path d="M40.0466 73.1949C36.0354 73.4046 32.0244 73.6066 28.0137 73.8033C27.7846 73.8143 27.5543 73.8202 27.324 73.826C26.641 73.826 25.9591 73.8817 25.2853 73.993C23.1427 74.4073 22.0595 75.6119 22.3117 77.2897C22.4646 78.3008 23.3208 79.9553 24.4704 80.3036C26.823 81.057 29.2632 81.5011 31.7298 81.6241C36.0575 81.7697 40.6975 81.7503 46.3279 81.5626C61.7937 81.0479 77.2588 80.5146 92.7239 79.9618C101.061 79.6698 109.399 79.3786 117.737 79.0886C118.705 79.0536 119.694 79.0614 120.943 79.0711L121.71 79.0763C121.09 79.7132 120.49 80.3262 119.911 80.9172C117.923 82.9497 116.207 84.7052 114.492 86.5332C112.865 88.268 111.244 90.0584 109.676 91.7899C108.601 92.9784 107.522 94.1649 106.439 95.3501C104.691 97.2499 102.929 99.1375 101.18 101.011L98.8575 103.498C98.762 103.601 98.702 103.732 98.6852 103.872C98.6684 104.012 98.6955 104.152 98.7639 104.275L99.9484 106.387C100.006 106.49 100.09 106.576 100.192 106.635C100.293 106.695 100.408 106.726 100.526 106.726C100.603 106.726 100.679 106.713 100.752 106.687C100.967 106.609 101.182 106.545 101.389 106.484C101.888 106.366 102.366 106.167 102.802 105.897C114.425 97.8092 125.561 89.0408 136.153 79.6362C137.194 78.7319 138.117 77.7001 138.901 76.5641C140.629 74.0163 140.225 71.2562 137.819 69.19C137.205 68.689 136.552 68.2372 135.867 67.8404L132.05 65.479C124.342 60.7048 116.373 55.7697 108.51 50.9466C107.352 50.1343 106.041 49.5689 104.657 49.286C104.016 49.242 103.372 49.3495 102.779 49.5995C102.187 49.8495 101.66 50.2354 101.242 50.726C100.613 51.6412 100.447 53.5737 101.151 54.5181C102.369 56.1716 103.854 57.609 105.545 58.7705C108.305 60.6328 111.158 62.455 113.91 64.2163C116.274 65.7269 118.719 67.2895 121.092 68.8683C121.543 69.1699 122.03 69.4353 122.498 69.6917C123.654 70.2095 124.668 70.996 125.46 71.9857C124.696 71.9152 123.941 71.8394 123.193 71.763C120.794 71.4769 118.383 71.3196 115.967 71.2931L114.068 71.308C98.8581 71.4271 83.1304 71.5501 67.6665 71.9792C58.4556 72.2356 49.0969 72.723 40.0466 73.1949Z" fill="black"/>
<path d="M60.9175 1.97721C58.982 1.69952 34.3149 0.253946 19.8524 0.17627C17.8066 0.283722 15.5259 0.4568 13.3207 0.624451C11.702 0.747436 10.1014 0.869414 8.61752 0.963273C4.80719 1.20472 2.42914 3.37646 1.74011 7.24601C1.35441 9.67527 1.12578 12.1269 1.05561 14.5857C0.1298 34.3362 0.338156 54.4132 0.539446 73.8306C0.587618 78.4478 0.630637 83.0657 0.668483 87.6829C0.743322 98.0184 0.965903 108.885 1.34913 120.904C1.52397 126.376 1.81816 131.931 2.10332 137.304C2.28203 140.677 2.46075 144.05 2.61236 147.424C2.80591 151.673 4.46528 153.897 8.16913 154.857C10.2626 155.321 12.3982 155.567 14.542 155.59L15.4969 155.635C18.142 155.764 21.1691 155.824 24.413 155.824C38.2253 155.824 55.9033 154.8 63.953 154.283C64.9728 154.217 65.9302 153.765 66.6283 153.017C67.327 152.268 67.7148 151.279 67.7122 150.254C67.7096 149.228 67.3167 148.243 66.6141 147.498C65.9122 146.753 64.9528 146.305 63.9324 146.245C58.5949 145.93 48.7653 145.339 42.9001 144.927C37.4098 144.538 31.822 144.294 26.4175 144.06C23.3124 143.926 20.2072 143.792 17.1033 143.629C16.1019 143.558 15.105 143.433 14.1169 143.255C13.7827 143.201 13.4459 143.147 13.1046 143.096C13.0595 142.816 13.0137 142.548 12.9698 142.29C12.8322 141.576 12.7353 140.854 12.6795 140.129C12.4627 136.208 12.2117 132.223 11.9698 128.369C11.3891 119.193 10.7911 109.704 10.6227 100.371C10.3362 84.5539 10.3646 68.4632 10.3975 52.9018C10.407 47.915 10.4132 42.9281 10.4162 37.9405C10.4162 30.4441 10.5698 22.9977 10.7195 16.7021C10.7569 15.1246 10.9233 13.5581 11.1156 11.743C11.193 11.0148 11.2737 10.2543 11.3504 9.44457C13.6007 9.29181 18.2537 9.18041 24.0149 9.04383C38.7685 8.69299 58.9743 8.21133 62.7162 6.48303C62.8038 6.44258 62.8814 6.38352 62.9438 6.30985C63.0062 6.23617 63.0518 6.15018 63.0775 6.05699C63.2548 5.57891 63.3267 5.06748 63.2884 4.55884C63.2501 4.0502 63.1024 3.55593 62.8556 3.10999C62.6341 2.79112 62.346 2.52496 62.0112 2.32931C61.6765 2.13367 61.3032 2.01324 60.9175 1.97721Z" fill="black"/>
</g>
<defs>
<clipPath id="clip0_8_2454">
<rect width="140" height="156" fill="white"/>
</clipPath>
</defs>
</svg>
