<svg width="162" height="121" viewBox="0 0 162 121" fill="none" xmlns="http://www.w3.org/2000/svg">
<g clip-path="url(#clip0_6_2230)">
<path d="M67.4404 42.8464L76.3803 37.0312C76.8818 30.1069 77.4883 22.9699 77.8801 15.8204C78.0822 12.1449 77.9359 8.4504 77.8801 4.76508C77.8545 3.0586 78.541 1.82014 80.1937 1.54251C83.4964 0.928153 86.8319 0.505293 90.1831 0.276308C92.3044 0.169325 94.0168 2.45877 94.1993 5.32302C94.4493 9.24135 94.5675 13.1721 94.6088 17.0996C94.6744 23.2633 94.6252 29.4283 94.6252 35.6215L100.331 38.4437C100.331 37.1061 100.361 36.2653 100.326 35.4279C100.006 29.1388 100.608 22.8367 102.114 16.7222C103.044 12.9779 105.241 9.67073 108.332 7.36219C112.249 4.35948 115.969 4.15277 120.212 6.71117C125.123 9.72974 129.149 13.9934 131.879 19.0699C134.162 23.0651 136.225 27.1825 138.056 31.4038C145.032 47.9369 151.831 64.5437 156.812 81.822C158.237 86.7636 159.856 91.6605 161.027 96.6618C162.596 103.368 159.685 108.099 153.073 110.022C151.04 110.673 148.938 111.082 146.809 111.24C136.49 111.695 126.148 112.244 115.906 110.315C107.436 108.72 101.957 104.014 100.566 95.1706C98.8409 84.2098 96.0974 73.3146 96.7879 62.1448C97.0504 57.9397 95.4837 56.0256 92.1521 54.4583C88.0927 52.5477 84.3417 52.28 80.4693 55.1062C76.0456 58.3347 71.3745 61.2238 67.231 63.9811C67.3813 67.2559 67.7036 70.13 67.6077 72.9903C67.3373 81.0699 66.9658 89.1454 66.492 97.2171C66.2813 101.939 65.1783 106.579 63.2413 110.891C61.4252 114.816 58.6221 117.491 54.3356 118.39C51.705 118.941 49.0402 119.728 46.3939 119.724C37.9783 119.712 29.5588 119.469 21.1498 119.113C18.8014 118.939 16.4852 118.463 14.2583 117.698C3.43395 114.313 -1.54318 105.931 1.41034 95.0275C3.24809 88.2364 5.98967 81.6763 8.52513 75.0886C12.1895 65.5656 16.132 56.1492 19.7734 46.6178C23.0708 37.9883 26.4911 29.4217 32.6837 22.3989C35.386 19.4023 38.3634 16.6659 41.5769 14.2256C44.9899 11.5819 49.1065 10.8336 53.3944 11.3187C58.0931 11.8503 61.2782 14.4376 62.8738 18.8206C63.5988 20.9427 64.1413 23.1228 64.4951 25.3373C65.5019 30.9648 66.3988 36.6125 67.4404 42.8464ZM60.1127 69.6647L59.2719 69.3647C57.9632 70.1976 56.6623 71.041 55.3437 71.8582C54.1898 72.5736 52.9191 72.8433 52.0147 71.6494C51.0459 70.3715 51.5218 69.0681 52.6447 68.0658C53.6453 67.1627 54.6972 66.3187 55.7952 65.5374C62.9493 60.5019 70.2968 55.7153 77.248 50.4121C83.7149 45.4778 90.1936 45.061 96.8837 49.2924C101.71 52.345 106.274 55.8209 110.876 59.2149C111.677 59.7588 112.242 60.5867 112.457 61.5313C112.671 62.4758 112.52 63.4665 112.031 64.3034C111.064 65.8743 108.956 66.3574 106.933 65.3917C105.994 64.9428 105.125 64.3467 103.757 63.5433C105.039 74.2321 106.133 84.3542 108.251 94.341C109.206 98.8468 111.897 101.399 116.389 102.118C124.637 103.437 132.94 103.424 141.242 102.966C144.154 102.808 147.047 102.414 149.894 101.789C153.089 101.084 153.907 98.9111 152.619 95.951C151.628 93.7037 150.775 91.398 150.066 89.047C148.48 83.6755 147.298 78.1721 145.482 72.8834C141.005 59.8455 136.438 46.8323 131.541 33.9478C129.6 28.8421 126.834 24.0241 124.166 19.2295C122.471 16.1621 120.007 13.5885 117.016 11.7622C115.287 10.7035 113.882 10.9281 112.46 12.2309C110.383 14.1569 108.998 16.7144 108.522 19.5071C107.207 26.8934 106.776 34.4104 107.241 41.8986C109.872 43.4036 112.443 44.7865 114.914 46.3283C116.063 47.0196 117.082 47.905 117.928 48.9451C118.4 49.5179 118.666 50.2317 118.686 50.9733C118.706 51.7149 118.477 52.4418 118.037 53.0388C117.159 54.3272 115.78 54.5241 114.422 54.1861C113.343 53.8911 112.315 53.4389 111.368 52.8444C105.219 49.142 99.2124 45.1837 92.9306 41.7248C88.0599 39.0423 86.4788 35.3386 87.3642 30.0203C88.1557 25.2671 88.5882 20.4516 89.0844 15.6531C89.3909 12.6845 89.5209 9.69679 89.7506 6.42627L83.4347 6.7243C83.3644 7.65958 83.2752 8.31192 83.2719 8.96432C83.2299 17.3799 83.2496 25.7962 83.1249 34.2104C83.1006 35.8447 83.0002 37.8202 82.1069 39.0252C80.409 41.3601 78.3579 43.4167 76.0272 45.1214C69.8997 49.4722 63.5617 53.527 57.2923 57.6776C56.5526 58.1679 55.7348 58.827 54.9295 58.8591C53.9187 58.9018 52.4032 58.6872 51.9759 58.0243C51.4371 57.1802 51.4831 55.6825 51.8231 54.6455C52.1 53.8021 53.1258 53.1504 53.9167 52.5393C56.7331 50.3642 59.5908 48.2436 62.4491 46.0908C60.5976 38.6834 58.8145 31.5088 57.0016 24.3416C56.7431 23.3665 56.4109 22.4123 56.0085 21.4872C55.6807 20.6432 55.1062 19.9175 54.3598 19.4049C53.6134 18.8924 52.7298 18.6167 51.8243 18.6139C49.0017 18.4008 46.2022 19.2565 43.9812 21.0113C36.8638 26.3894 32.1802 33.5679 28.7075 41.5929C26.3939 46.9388 24.4164 52.4303 22.299 57.8608C17.8195 69.347 13.2619 80.806 8.93271 92.3497C7.91815 95.2008 7.27822 98.1714 7.02927 101.188C6.77422 103.331 7.24343 105.498 8.36216 107.344C9.48082 109.19 11.1847 110.609 13.2028 111.375C15.6631 112.458 18.2838 113.133 20.9614 113.372C29.2451 113.794 37.5536 114.115 45.8425 113.958C54.2311 113.799 57.3364 111.294 58.206 102.875C59.3473 91.8574 59.5226 80.7397 60.1127 69.6647Z" fill="black"/>
</g>
<defs>
<clipPath id="clip0_6_2230">
<rect width="161.459" height="120.11" fill="white"/>
</clipPath>
</defs>
</svg>
