<svg width="135" height="145" viewBox="0 0 135 145" fill="none" xmlns="http://www.w3.org/2000/svg">
<g clip-path="url(#clip0_8_2457)">
<path d="M117.454 50.9024C116.502 52.5667 115.873 54.117 114.861 55.3521C111.567 59.3745 108.123 63.2733 104.755 67.235C83.9339 91.7167 60.9478 114.113 38.1051 136.645C36.2965 138.43 34.3927 140.133 32.4207 141.735C31.3053 142.634 30.0707 143.374 28.752 143.933C27.7385 144.408 26.5971 144.536 25.5037 144.298C24.4103 144.06 23.4255 143.467 22.7008 142.613C15.9538 135.595 9.21467 128.57 2.4832 121.539C0.174634 119.113 -0.0695964 117.569 1.96122 114.779C5.07849 110.497 8.18228 106.132 11.8363 102.328C22.4858 91.2376 33.2082 80.2028 44.2724 69.5317C56.2951 57.9362 68.7183 46.7576 81.0046 35.4385C83.6064 33.0434 86.3271 30.7694 89.0787 28.5426C91.4816 26.5961 92.2858 26.7787 94.9147 28.5219C102.559 33.5911 108.65 40.3272 114.829 46.9655C115.833 48.0491 116.501 49.4543 117.454 50.9024ZM26.765 134.932L89.8868 69.2436L74.8592 52.8243C52.6185 74.1749 29.6601 94.6956 9.22921 118.01L26.765 134.932ZM96.299 62.0699L106.906 50.7237C102.409 45.2089 97.2924 40.2313 91.6586 35.8891L80.5892 46.9945C86.0713 52.2553 91.2174 57.1943 96.299 62.0699Z" fill="black"/>
<path d="M121.184 14.1689C119.686 13.7844 118.407 13.5034 117.156 13.1221C116.617 12.9745 116.145 12.6477 115.815 12.1954C115.486 11.743 115.32 11.1919 115.344 10.6326C115.305 9.31009 115.756 8.16562 117.084 7.74163C118.536 7.2775 120.055 7.01786 121.875 6.59062C122.114 5.59248 122.388 4.44284 122.665 3.2932C123.178 1.1661 123.968 0.380288 125.625 0.351806C127.253 0.323324 128.144 1.12401 128.699 3.20968C128.849 3.93395 128.961 4.66554 129.035 5.4015C129.858 5.47658 130.705 5.5142 131.538 5.63784C133.584 5.94143 134.685 6.96873 134.89 8.69966C135.098 10.4662 134.358 11.7693 132.517 12.6218C131.633 12.9792 130.73 13.2855 129.812 13.539C129.597 14.8706 129.307 16.189 128.944 17.4876C128.263 19.4943 127.006 20.4654 125.418 20.4602C123.745 20.4602 122.249 19.2302 121.686 17.2488C121.459 16.2327 121.292 15.2044 121.184 14.1689Z" fill="black"/>
<path d="M67.4148 23.484C67.0453 27.7712 66.046 29.2328 63.6152 29.2121C61.328 29.1927 60.3211 27.7413 59.6939 23.4599C58.6016 23.1525 57.4423 22.8508 56.299 22.4987C55.703 22.3407 55.1852 21.9699 54.8431 21.4559C54.5011 20.9419 54.3584 20.3202 54.4419 19.7081C54.4575 19.1456 54.6696 18.6063 55.0412 18.1843C55.4127 17.7624 55.9202 17.4845 56.4753 17.3991C57.6328 17.0923 58.8443 16.9906 60.1853 16.7744C60.4475 15.9381 60.7667 15.129 60.9501 14.2901C61.2731 12.8239 62.0947 11.895 63.603 11.7597C64.9699 11.6373 65.8994 12.5701 66.4174 14.4706C66.5331 14.9836 66.6222 15.5021 66.6855 16.0242C68.0013 16.3375 69.2802 16.3964 70.2801 16.9563C71.136 17.4347 72.2076 18.4834 72.214 19.2867C72.0868 20.4475 71.5216 21.5157 70.6341 22.2721C69.8803 22.9434 68.633 23.058 67.4148 23.484Z" fill="black"/>
<path d="M129.635 64.6847C131.62 65.1727 134.326 64.6589 134.787 67.648C135.214 70.427 132.836 70.9623 131.416 71.6387C130.87 73.3723 130.218 75.0702 129.464 76.7235C129.201 77.2277 128.149 77.5087 127.437 77.5507C125.198 77.6802 124.143 76.1551 123.245 71.6239C121.67 70.8743 119.046 71.038 119.083 68.3633C119.12 65.6886 121.464 65.629 123.276 65.3435C124.154 63.5403 123.69 60.9354 126.57 60.8842C127.966 60.859 128.328 61.3387 129.635 64.6847Z" fill="black"/>
</g>
<defs>
<clipPath id="clip0_8_2457">
<rect width="135" height="145" fill="white"/>
</clipPath>
</defs>
</svg>
