<svg width="159" height="168" viewBox="0 0 159 168" fill="none" xmlns="http://www.w3.org/2000/svg">
<g clip-path="url(#clip0_8_2464)">
<path d="M152.77 63.9977C151.924 63.4286 151.125 62.7937 150.38 62.0986C147.936 59.8932 145.494 57.6823 143.055 55.4665C137.684 50.5873 132.127 45.5488 126.609 40.6495C125.909 40.0609 125.346 39.3268 124.961 38.499C124.576 37.6711 124.378 36.7698 124.38 35.8575C124.278 32.3425 123.881 28.8423 123.195 25.393C122.485 22.1802 121.219 21.1869 117.543 20.967C116.418 20.8938 115.262 20.8874 114.141 20.8809C113.271 20.8809 112.401 20.8734 111.53 20.8404C110.954 20.8079 110.381 20.7365 109.816 20.6269C109.582 20.5873 109.36 20.5472 109.146 20.5135C109.094 20.5084 109.044 20.4907 109.001 20.4616C108.957 20.4325 108.922 20.393 108.898 20.3469C108.873 20.3013 108.858 20.2507 108.856 20.1987C108.854 20.1467 108.864 20.0949 108.885 20.0473C109.253 19.2411 109.635 18.4676 110.01 17.7074C110.821 16.1783 111.509 14.5871 112.066 12.9489C113.184 9.32296 111.637 5.98996 108.026 4.25677C105.476 3.00084 102.569 2.65992 99.7961 3.29077C95.3969 4.22417 91.5731 6.33942 87.1875 9.20971C87.1328 9.24558 87.0689 9.26478 87.0031 9.26478C86.938 9.26478 86.8741 9.24558 86.8194 9.20971C82.2188 6.21034 77.7062 6.08357 73.4073 8.8429C73.348 8.88214 73.277 8.90166 73.206 8.89803C73.1349 8.8944 73.0665 8.86774 73.0118 8.82266C72.3158 8.24925 71.6433 7.67676 70.9917 7.10984C69.6252 5.8936 68.1968 4.74789 66.713 3.67717C63.5927 1.5042 60.7868 0.45166 58.0414 0.45166C57.2578 0.45302 56.4766 0.537599 55.7112 0.704405C51.7675 1.55803 48.4461 4.53144 46.8326 8.64973C45.3729 12.3691 45.627 16.1813 47.5155 18.8609C47.7359 19.2043 47.9177 19.5706 48.0577 19.9535C48.1515 20.1669 48.2532 20.4008 48.3724 20.6674C48.3934 20.7152 48.403 20.7668 48.4007 20.8188C48.3983 20.8709 48.384 20.922 48.3588 20.9677C48.3337 21.0134 48.2983 21.0524 48.2555 21.0824C48.2127 21.1123 48.1635 21.1319 48.1118 21.14C46.9734 21.2937 45.8616 21.4339 44.7701 21.5669C42.3929 21.8666 40.1501 22.1467 37.9201 22.5735C33.2733 23.4732 32.677 24.1864 32.6503 28.939C32.6301 32.0648 32.6503 35.2445 32.6705 38.3172C32.6842 39.63 32.6907 40.9424 32.6973 42.2553C32.7038 43.7018 32.6034 44.9951 31.3047 46.0946C25.3253 51.1735 19.4123 56.3528 14.9264 60.292L14.8123 60.3915C11.3169 63.4648 7.70949 66.637 4.31313 69.9165C3.36238 70.8363 2.29306 72.2893 2.15035 73.6093L2.08512 74.1756C1.42241 80.1542 0.732348 86.3397 0.658713 92.4188C0.444972 109.673 0.411132 127.644 0.558403 147.359C0.578603 150.512 1.53581 153.785 2.37316 156.678C3.93319 162.03 7.84373 165.296 13.6831 166.122C18.3965 166.851 23.1504 167.292 27.9181 167.442C36.4624 167.582 45.1604 167.562 53.564 167.542C56.7244 167.528 59.8915 167.542 63.0454 167.522L64.1433 167.528C65.9721 167.528 67.8671 167.536 69.7216 167.449C72.4937 167.315 75.2723 167.155 78.0444 166.995C82.9662 166.708 88.0483 166.415 93.064 166.288C97.9383 166.162 102.901 166.175 107.701 166.182C111.237 166.188 114.899 166.195 118.495 166.148C120.009 166.128 121.528 166.115 123.041 166.101C129.001 166.055 135.155 166.002 141.175 165.509C149.765 164.802 153.609 161.569 155.356 153.591C156.335 149.175 156.926 144.682 157.124 140.164C157.479 131.392 157.62 122.461 157.76 113.822C157.794 111.743 157.827 109.661 157.86 107.577C157.907 104.991 157.915 102.358 157.921 99.8121C157.928 96.7927 157.935 93.6668 158.001 90.5942C158.055 88.2681 158.189 85.9018 158.309 83.616C158.436 81.2231 158.57 78.7511 158.618 76.3239C158.73 70.6768 156.822 66.6441 152.77 63.9977ZM124.661 86.7652C125.92 81.4463 125.826 75.9405 125.725 70.6216C125.712 69.635 125.692 68.6556 125.679 67.6761C125.658 65.0095 125.478 62.297 125.31 59.6713C125.217 58.2579 125.13 56.8513 125.056 55.4386C125.022 54.6848 125.029 53.9393 125.043 53.1525C125.043 52.7925 125.049 52.419 125.049 52.0389C125.049 51.9823 125.063 51.9267 125.09 51.8767C125.117 51.8268 125.155 51.7843 125.203 51.7526C125.25 51.7232 125.305 51.706 125.361 51.7025C125.417 51.699 125.473 51.7092 125.525 51.7323C128.538 53.1457 140.363 63.9228 146.972 71.2819C147.032 71.3513 147.064 71.4428 147.059 71.5349C147.054 71.5803 147.039 71.6251 147.017 71.6646C146.994 71.7049 146.964 71.7399 146.929 71.7684L125.615 88.0495C125.558 88.0962 125.487 88.1222 125.414 88.1228C125.35 88.1196 125.288 88.0995 125.234 88.0657C125.18 88.0313 125.136 87.984 125.106 87.9282C125.012 87.7148 124.925 87.5552 124.858 87.4352C124.706 87.2471 124.635 87.0065 124.659 86.7665L124.661 86.7652ZM86.9627 19.3524C90.9377 14.6822 95.7142 10.3683 103.656 10.3683H103.957C104.011 10.3696 104.064 10.3833 104.111 10.4088C104.159 10.4343 104.2 10.4705 104.231 10.5146C104.261 10.5593 104.279 10.6107 104.285 10.6641C104.291 10.7175 104.284 10.7711 104.265 10.8211C103.045 13.9543 100.978 16.6906 98.2921 18.7266C96.966 19.8001 95.292 20.3534 93.5847 20.283C92.6659 20.2656 91.749 20.1949 90.8393 20.0701C89.6514 19.8957 88.4491 19.8394 87.2501 19.9029C87.1836 19.9072 87.1185 19.893 87.0605 19.8611C87.0025 19.8292 86.9556 19.7815 86.9243 19.7236C86.893 19.6651 86.88 19.5988 86.8871 19.533C86.8936 19.4671 86.9197 19.4046 86.9627 19.3537V19.3524ZM83.9222 27.7779C87.3576 26.5714 104.975 27.0979 115.34 28.7306C115.418 28.7413 115.49 28.7805 115.542 28.8402C115.593 28.8999 115.622 28.976 115.621 29.0549V30.7075C115.628 31.9873 115.635 33.2144 115.615 34.4475C115.601 35.1071 115.554 35.78 115.507 36.4928C115.48 36.8327 115.454 37.1927 115.433 37.5728C115.427 37.6572 115.389 37.736 115.327 37.7939C115.265 37.8519 115.184 37.885 115.099 37.8864H84.8931C84.8097 37.8869 84.7295 37.8563 84.6676 37.8009C84.6057 37.7455 84.5666 37.6692 84.5588 37.5868L83.7013 28.1212C83.6961 28.0481 83.715 27.9758 83.7547 27.9141C83.7944 27.8524 83.8531 27.8051 83.9222 27.7792V27.7779ZM84.465 47.3602C84.4676 47.2959 84.4884 47.2341 84.5249 47.181C84.5621 47.1279 84.6129 47.0857 84.6722 47.06C87.0357 46.1201 109.515 45.8003 115.119 46.6267C115.194 46.6369 115.262 46.6727 115.314 46.7274C115.364 46.7822 115.395 46.8523 115.4 46.9269C116.401 58.948 116.692 71.0179 116.271 83.0724C116.268 83.1392 116.246 83.2028 116.207 83.2566C116.167 83.3098 116.112 83.3507 116.05 83.3728C113.365 84.3256 97.5434 85.3388 88.4856 85.3388C86.7438 85.3661 85.0026 85.2967 83.2692 85.1319C83.1858 85.1209 83.1096 85.0787 83.0548 85.0145C83.0007 84.9509 82.9721 84.8692 82.9747 84.7855L84.465 47.3602ZM54.2124 10.8547C55.1292 8.77518 56.3348 8.08891 58.4976 8.42231C59.5306 8.55963 60.5242 8.9062 61.4169 9.44153C65.8972 12.3008 68.9436 15.4935 71.0262 19.4924C71.0523 19.5404 71.0666 19.5941 71.0666 19.6489C71.0666 19.7037 71.0523 19.758 71.0262 19.806C70.9989 19.8544 70.9604 19.8955 70.9135 19.9257C70.8672 19.9559 70.8138 19.9739 70.7584 19.9789C69.6936 20.0658 68.6621 20.1926 67.6644 20.3197C66.047 20.5535 64.4166 20.6891 62.7827 20.7257C62.3207 20.7257 61.8659 20.7127 61.4104 20.6725C58.3705 20.4195 55.672 18.9211 54.3792 16.7534C53.8662 15.8598 53.5827 14.8543 53.5536 13.8256C53.5245 12.7969 53.7507 11.7769 54.2124 10.856V10.8547ZM39.5811 28.7775C45.7554 27.3712 70.4169 26.4513 76.2354 27.4042C76.313 27.4171 76.3833 27.4565 76.4348 27.5156C76.4863 27.5748 76.515 27.6503 76.5169 27.7285V37.3531C76.5163 37.426 76.4915 37.4968 76.4472 37.5545C76.4022 37.6123 76.3397 37.6539 76.2693 37.6729C74.8761 38.0466 66.7938 38.2329 58.5647 38.2329C50.2479 38.2329 41.7778 38.0462 39.95 37.659C39.877 37.6459 39.8107 37.6089 39.762 37.5533C39.7133 37.4975 39.6851 37.4268 39.6821 37.3531L39.3204 29.1151C39.3159 29.0371 39.3398 28.9603 39.3876 28.8985C39.4355 28.8366 39.5042 28.7942 39.5811 28.7787V28.7775ZM40.8336 50.8461C40.827 49.0399 40.8225 47.205 40.8199 45.3408C40.8227 45.2499 40.8613 45.1636 40.9275 45.1007C40.9971 45.0428 41.0843 45.0095 41.1751 45.007L75.7871 46.4867C75.8744 46.4903 75.9572 46.5277 76.0171 46.5912C76.0771 46.6548 76.1097 46.7396 76.1084 46.8269L75.271 84.9788C75.271 85.0249 75.2612 85.0703 75.2417 85.1118C75.2221 85.1533 75.1935 85.1896 75.1576 85.2188C75.0964 85.2733 75.0182 85.3038 74.9367 85.3057C74.923 85.3057 74.9165 85.3057 74.91 85.2986C70.7584 84.9386 66.5462 84.9055 62.468 84.8789C55.545 84.8257 48.3803 84.7719 41.2898 83.0724C41.2271 83.0588 41.17 83.0264 41.1258 82.9803C41.0815 82.9336 41.0522 82.8759 41.0415 82.813C40.9548 82.3336 40.8408 81.8737 40.7339 81.4138C40.465 80.4603 40.3166 79.477 40.2921 78.4871C40.3319 75.888 40.4394 73.2486 40.5462 70.6956C40.6531 68.1425 40.7606 65.4967 40.801 62.9037C40.8669 58.9256 40.8538 54.9994 40.8336 50.8474V50.8461ZM12.1947 72.9548L31.6735 56.3451C31.7191 56.3066 31.7741 56.2808 31.8329 56.2703C31.8917 56.2598 31.9523 56.2651 32.0084 56.2855C32.0633 56.3053 32.1119 56.3386 32.1495 56.3831C32.1871 56.4274 32.2124 56.4811 32.2228 56.5382C32.3029 56.9514 32.3831 57.3049 32.4567 57.6182C32.6017 58.1215 32.6806 58.6411 32.6913 59.1645C32.6177 61.4639 32.5238 63.7633 32.4365 66.0629C32.2827 69.8951 32.1225 73.8545 32.0554 77.747C31.9913 79.9271 32.2302 82.1047 32.765 84.2192C33.1002 85.6949 33.8315 87.0519 34.8811 88.1462C35.9306 89.2398 37.259 90.0298 38.7243 90.4314C41.5579 91.3252 44.4777 91.9219 47.436 92.2106C53.884 92.6238 60.4525 92.7905 66.8075 92.9572L68.7891 93.0039L73.9117 93.144C80.9898 93.3438 88.3129 93.5371 95.5064 93.4839C99.5511 93.4573 103.669 93.144 107.653 92.8437C109.668 92.6906 111.751 92.5304 113.806 92.4104C114.738 92.3572 115.648 92.3708 116.813 92.3838C117.416 92.3903 118.078 92.3974 118.842 92.3974C118.911 92.3987 118.979 92.4208 119.035 92.461C119.091 92.5012 119.134 92.5583 119.157 92.6238C119.18 92.688 119.183 92.7574 119.165 92.8236C119.147 92.8891 119.109 92.9475 119.056 92.9903C105.716 103.828 91.5894 113.668 76.7913 122.43C76.7385 122.462 76.6785 122.478 76.6173 122.477C76.5678 122.48 76.5189 122.468 76.4765 122.444C62.8902 116.022 17.1901 81.1797 12.1347 73.3881C12.0901 73.3213 12.0716 73.2409 12.0827 73.1611C12.0937 73.0813 12.1335 73.008 12.1947 72.9561V72.9548ZM9.97908 146.259C9.9493 146.262 9.91939 146.257 9.89183 146.246C9.82764 146.231 9.76958 146.196 9.72534 146.148C9.68116 146.098 9.65287 146.037 9.64421 145.973C9.61097 145.713 9.56399 145.454 9.52359 145.206C9.41411 144.664 9.3513 144.113 9.33598 143.56C9.32295 140.706 9.31858 137.855 9.32295 135.008C9.32946 130.616 9.3294 126.077 9.27597 121.611C9.18213 114.066 9.05513 106.395 8.92805 98.9734C8.84725 94.5542 8.77362 90.1395 8.70715 85.7293C8.69347 84.9963 8.74032 84.2562 8.78724 83.5434C8.80744 83.2099 8.8277 82.8765 8.84074 82.5367C8.84321 82.475 8.86335 82.4147 8.89893 82.3641C8.93451 82.3129 8.98397 82.2733 9.04138 82.2499C9.09807 82.2247 9.16082 82.2156 9.22247 82.224C9.28411 82.2318 9.34217 82.2571 9.39007 82.2967L40.0373 107.585C40.1044 107.641 40.1472 107.72 40.1571 107.807C40.1671 107.894 40.1433 107.981 40.0907 108.051L10.2404 146.127C10.2096 146.168 10.17 146.2 10.1247 146.224C10.0793 146.246 10.0294 146.259 9.97843 146.261L9.97908 146.259ZM144.428 157.317C144.405 157.371 144.368 157.419 144.321 157.456C144.274 157.492 144.219 157.515 144.16 157.524C143.49 157.603 142.881 157.69 142.312 157.777C141.278 157.956 140.233 158.063 139.184 158.096C134.671 158.117 130.151 158.11 125.63 158.103C117.903 158.09 109.915 158.077 102.061 158.203C95.8335 158.31 89.4989 158.63 83.3787 158.943C80.6066 159.083 77.828 159.223 75.056 159.343L74.8683 159.35C74.7073 159.356 74.547 159.37 74.3796 159.37C70.8907 159.437 67.3972 159.514 63.9003 159.603C56.3941 159.783 48.6467 159.963 40.986 159.963H38.9576C33.2459 159.936 27.447 159.483 21.8422 159.043C20.3226 158.923 18.8023 158.803 17.2892 158.696C16.1485 158.565 15.0245 158.316 13.9346 157.957C13.3924 157.79 12.8229 157.624 12.2338 157.477C12.1858 157.468 12.1407 157.446 12.1023 157.417C12.0639 157.386 12.0333 157.347 12.0129 157.303C11.9904 157.259 11.978 157.21 11.9769 157.161C11.9758 157.112 11.9859 157.062 12.0064 157.017C13.8962 152.818 42.3323 117.845 47.3943 113.513C47.4517 113.465 47.5234 113.437 47.5985 113.433C47.6735 113.429 47.7476 113.45 47.8094 113.493C48.4122 113.933 49.0214 114.386 49.6339 114.839C50.9868 115.845 52.3793 116.879 53.8123 117.845C57.3407 120.218 60.8784 122.578 64.4255 124.924C67.5536 127.003 70.6867 129.075 73.8002 131.169C76.2374 132.802 78.3402 131.875 80.2515 130.636C85.7963 127.05 91.3404 123.466 96.8846 119.885L105.201 114.512C105.904 114.053 106.607 113.593 107.397 113.073L108.529 112.326C108.6 112.282 108.684 112.266 108.767 112.279C108.849 112.293 108.924 112.336 108.978 112.4L144.379 156.983C144.416 157.029 144.441 157.085 144.449 157.144C144.458 157.203 144.45 157.263 144.428 157.318L144.428 157.317ZM150.032 87.6979C149.814 89.0802 149.727 90.4787 149.772 91.8772C149.967 94.9836 149.865 98.1561 149.764 101.222L149.711 102.882C149.658 104.641 149.557 106.428 149.457 108.16C149.357 109.907 149.249 111.713 149.196 113.486C149.143 115.367 149.143 117.278 149.136 119.13C149.136 120.769 149.136 122.462 149.096 124.129C149.055 125.895 148.975 127.688 148.9 129.421C148.82 131.274 148.739 133.194 148.7 135.08C148.653 137.526 148.666 140.025 148.679 142.438C148.679 143.518 148.686 144.597 148.686 145.677C148.685 145.749 148.661 145.819 148.617 145.877C148.574 145.934 148.513 145.976 148.445 145.997L147.533 146.264C147.501 146.271 147.47 146.275 147.439 146.277C147.392 146.277 147.346 146.267 147.304 146.249C147.262 146.23 147.223 146.203 147.191 146.17C140.414 139.059 134.214 131.24 128.214 123.675C124.023 118.383 119.691 112.917 115.151 107.679C115.121 107.644 115.098 107.604 115.084 107.56C115.071 107.517 115.066 107.471 115.071 107.425C115.084 107.336 115.131 107.254 115.204 107.199L149.514 80.9046C149.559 80.8709 149.61 80.8489 149.665 80.8411C149.72 80.8326 149.777 80.8391 149.829 80.8579C149.882 80.8768 149.929 80.9085 149.966 80.9507C150.004 80.9922 150.03 81.0435 150.043 81.0979C150.428 83.282 150.425 85.5159 150.032 87.6979H150.032Z" fill="black"/>
</g>
<defs>
<clipPath id="clip0_8_2464">
<rect width="159" height="168" fill="white"/>
</clipPath>
</defs>
</svg>
