<svg width="159" height="156" viewBox="0 0 159 156" fill="none" xmlns="http://www.w3.org/2000/svg">
<g clip-path="url(#clip0_8_2468)">
<path d="M0.396116 108.145C0.396116 99.2499 0.226109 90.3508 0.455848 81.462C0.607709 75.5957 1.55325 69.751 1.71744 63.8849C1.81025 60.5621 3.08031 58.2718 5.47245 56.1827C12.0745 50.4133 18.5559 44.5056 25.132 38.7057C26.2128 37.7812 26.8986 36.4772 27.0478 35.0615C28.5261 25.6605 32.4648 17.6735 40.9359 12.6269C45.8234 9.71688 51.0762 8.12685 56.8431 9.4093C58.7147 9.8253 60.232 9.2977 61.8402 8.29085C65.1261 6.23231 68.4871 4.26395 71.952 2.5291C77.8902 -0.444654 83.8978 -0.566209 89.8204 2.71889C91.5668 3.68804 93.3716 4.56397 95.0583 5.62803C96.0324 6.26398 97.1376 6.66916 98.2915 6.81314C99.4447 6.95705 100.616 6.8355 101.716 6.4583C106.327 5.08769 111.248 5.1762 115.808 6.71096C122.773 9.00416 127.213 13.9255 129.641 20.5952C130.8 23.7802 131.217 27.2658 131.66 30.6556C131.754 32.0857 132.402 33.4221 133.466 34.3804C140.157 40.3792 146.664 46.5956 153.538 52.3735C157.497 55.6995 158.478 59.8934 158.423 64.5286C158.312 73.8544 157.918 83.1761 157.709 92.501C157.445 104.382 157.392 116.27 156.951 128.144C156.77 132.802 156.154 137.433 155.111 141.976C153.385 149.525 150.005 152.851 141.137 153.891C136.063 154.376 130.968 154.59 125.871 154.53C114.325 154.639 102.775 154.478 91.2306 154.692C84.0393 154.822 76.857 155.459 69.6689 155.831C67.7869 155.929 65.8951 155.901 64.0085 155.901C52.0173 155.901 40.0242 156.018 28.0362 155.832C23.2763 155.687 18.5298 155.249 13.8236 154.521C8.07944 153.717 3.87335 150.65 2.22818 144.908C1.1883 141.638 0.556216 138.253 0.346206 134.828C0.0866145 125.941 0.257874 117.041 0.257874 108.147L0.396116 108.145ZM108.434 100.55C107.171 101.377 106.162 102.04 105.153 102.698C96.8689 108.085 88.586 113.473 80.3031 118.86C78.1355 120.272 75.9698 121.103 73.5115 119.454C66.9679 115.062 60.3794 110.735 53.8474 106.323C51.6727 104.855 49.6167 103.211 47.6042 101.721C42.4319 105.994 13.7489 141.571 12.6165 145.22C14.1909 145.625 15.736 146.273 17.3208 146.39C24.6115 146.922 31.9125 147.629 39.2129 147.666C50.8575 147.724 62.5048 147.299 74.1514 147.078C74.3734 147.074 74.5953 147.06 74.8166 147.05C84.2268 146.654 93.637 146.069 103.047 145.906C114.927 145.699 126.812 145.852 138.694 145.8C140.178 145.793 141.66 145.484 143.671 145.255L108.434 100.55ZM82.8328 71.0873C90.6115 65.1074 98.0423 59.4747 105.383 53.7261C110.302 49.8736 114.734 45.5054 118.146 40.2164C122.538 33.4083 122.541 25.4974 118.235 19.5694C117.429 18.3592 116.366 17.3414 115.123 16.5898C113.879 15.8381 112.485 15.3708 111.041 15.2206C108.635 15.0061 106.044 14.8378 103.772 15.4904C91.6447 18.9802 83.5785 26.6481 80.4673 39.1399C80.1136 40.6501 79.658 42.1345 79.1044 43.5832C78.5852 44.8767 77.382 45.2227 76.0743 45.1987C75.4552 45.222 74.8478 45.0281 74.3565 44.6509C73.8646 44.2737 73.52 43.737 73.3811 43.1325C73.1546 42.3919 73.0066 41.6294 72.9411 40.8575C72.3102 32.9438 68.4988 26.7141 62.4684 21.8774C57.5063 17.8988 50.5986 17.9482 45.371 21.5765C35.809 28.2117 34.5293 42.5906 41.8978 51.4683C47.2395 57.9033 54.2283 62.0507 61.8999 64.8555C68.6435 67.3245 75.6778 68.993 82.8328 71.0873ZM129.319 42.7752C126.104 46.928 123.458 50.7778 120.376 54.2371C113.612 61.8278 105.524 67.9323 97.3245 73.8505C93.7032 76.4056 89.9515 78.7684 86.0835 80.9303C84.8278 81.6284 83.3754 81.8897 81.9554 81.6726C69.7072 79.2182 57.79 75.7323 47.0533 69.0945C40.4674 65.0229 34.6441 60.0858 30.8436 53.1516C29.9519 51.5266 29.2764 49.7782 28.277 47.5975L12.377 61.1472C13.0987 62.2555 13.9047 63.3065 14.7879 64.2905C17.4526 66.7987 20.0965 69.3538 22.965 71.6197C32.6303 79.2644 42.2456 86.9857 52.1568 94.3008C59.8258 99.961 67.9102 105.057 75.5337 110.217C83.792 106.895 142.361 64.0556 146.016 58.829L129.319 42.7752ZM146.956 133.935L147.661 133.745C148.245 112.349 148.829 90.9539 149.428 68.9034L115.075 95.413C126.19 108.299 135.587 121.933 146.956 133.935ZM39.8041 95.7795L9.28129 70.4413C9.23391 71.4897 9.13008 72.5472 9.1463 73.6022C9.33061 85.6987 9.57138 97.7945 9.7174 109.892C9.80437 117.112 9.74148 124.333 9.77393 131.554C9.82513 132.355 9.92592 133.151 10.0756 133.94L39.8041 95.7795ZM68.4423 14.3713C70.2309 16.3109 71.732 17.7819 73.0436 19.4069C74.3883 21.0709 75.5474 22.8853 76.6253 24.4063C80.5763 20.1813 84.3021 16.1977 87.9825 12.2607C84.073 8.75066 79.793 8.58322 75.3111 10.7068C73.128 11.7396 71.0383 12.9758 68.4423 14.3687V14.3713Z" fill="black"/>
</g>
<defs>
<clipPath id="clip0_8_2468">
<rect width="159" height="156" fill="white"/>
</clipPath>
</defs>
</svg>
