<svg width="177" height="144" viewBox="0 0 177 144" fill="none" xmlns="http://www.w3.org/2000/svg">
<g clip-path="url(#clip0_8_2462)">
<path d="M175.805 68.1415C175.416 60.8736 175.105 53.4759 174.804 46.3229C174.51 39.3568 174.207 32.1533 173.831 25.0713C173.288 14.7867 167.996 7.29417 158.53 3.40359C155.188 2.0307 151.074 1.30472 145.964 1.18222C132.426 0.860342 118.661 0.711559 105.349 0.56691C100.61 0.515217 95.8717 0.46112 91.1341 0.40465C91.0148 0.305737 90.8651 0.251378 90.7101 0.251299H79.6752C70.7078 0.251299 61.7412 0.253954 52.7758 0.258298C51.1348 0.258298 49.4886 0.254587 47.8483 0.250025C42.917 0.233084 37.817 0.219024 32.8014 0.401468C25.9535 0.649721 20.6804 1.98858 16.2081 4.61576C7.15063 9.93791 2.31915 17.5349 1.84779 27.1972C1.59948 32.2854 1.51583 37.4607 1.43543 42.4661L1.38292 45.6C1.3103 49.801 1.23443 54.001 1.15534 58.2003C0.900533 72.0374 0.636656 86.3455 0.532272 100.423C0.490129 106.027 0.772808 112.656 3.18403 119.34C6.74995 129.227 13.3275 135.618 23.2926 138.88C32.5641 141.843 42.2324 143.363 51.9615 143.384C76.1449 143.698 101.511 143.846 131.364 143.846H137.163C142.649 143.94 148.126 143.344 153.465 142.073C165.704 138.926 172.958 131.387 175.024 119.662C175.681 115.685 176.137 111.676 176.39 107.652C177.285 95.4416 176.614 83.0674 175.964 71.0991L175.805 68.1415ZM62.7111 132.736C52.2357 132.704 41.0426 132.306 30.1678 129.625C25.792 128.547 22.6624 127.284 20.1618 125.576L74.1305 75.696L75.6373 77.325C77.1388 78.9494 78.689 80.6259 80.2548 82.2874C84.7868 87.0981 89.2332 87.4923 94.2449 83.5293C96.2957 81.9089 98.244 80.0753 100.128 78.3082C100.841 77.6371 101.562 76.9614 102.294 76.2889L155.115 129.871C153.29 131.379 151.083 131.695 148.758 132.028L148.09 132.124C145.592 132.458 143.074 132.613 140.555 132.587L125.78 132.641C105.107 132.718 83.7332 132.799 62.7111 132.736ZM145.181 21.38C137.278 28.5507 129.106 35.9648 121.314 43.5212C113.537 51.0613 105.913 58.9635 98.5396 66.6077C95.4878 69.7718 92.3368 73.0388 89.2254 76.2264L23.5902 11.5338C24.0601 11.4082 24.5263 11.2814 24.9887 11.1532C26.7782 10.6639 28.4684 10.2004 30.195 9.85959C38.7798 8.16547 47.6188 8.39587 56.1673 8.62197C58.0767 8.67149 59.9855 8.72049 61.8936 8.75176C64.7969 8.79737 67.752 8.89466 70.6086 8.98914C73.0899 9.07058 75.6554 9.15529 78.182 9.20546C85.2873 9.34666 92.3926 9.48219 99.4985 9.61211C114.858 9.90011 130.739 10.1989 146.357 10.5755C148.553 10.6973 150.735 11.0061 152.879 11.4988C153.722 11.6675 154.595 11.8407 155.463 11.9919V12.0135C152.047 15.1509 148.557 18.3175 145.18 21.3826L145.181 21.38ZM34.6375 100.077C28.0548 106.367 21.2555 112.866 14.6806 119.507C11.9497 113.032 10.5344 107.718 10.1129 102.389C8.94592 87.6069 9.43088 72.8929 10.0313 59.0891C10.3055 52.7942 10.4151 46.3916 10.5214 40.1996C10.594 35.9904 10.6692 31.6377 10.795 27.3633C10.9247 22.8296 12.4334 19.6483 15.8074 16.8367L67.092 67.4697C56.6516 79.036 45.4611 89.7318 34.6336 100.082L34.6375 100.077ZM163.925 118.401C163.685 119.7 163.364 120.982 162.964 122.24C162.82 122.728 162.677 123.217 162.541 123.706L162.334 123.775L107.972 70.5361C126.764 51.0534 144.587 34.4378 162.413 19.7771C162.489 20.1218 162.567 20.4573 162.643 20.7844C162.961 21.9717 163.172 23.1849 163.274 24.4102C163.875 36.7407 164.365 48.9096 164.725 58.1347C165.062 66.7915 165.35 75.3324 165.581 83.5222C165.87 93.8921 165.902 106.148 163.921 118.404L163.925 118.401Z" fill="black"/>
</g>
<defs>
<clipPath id="clip0_8_2462">
<rect width="177" height="144" fill="white"/>
</clipPath>
</defs>
</svg>
