<svg width="158" height="156" viewBox="0 0 158 156" fill="none" xmlns="http://www.w3.org/2000/svg">
<g clip-path="url(#clip0_8_2466)">
<path d="M0.599781 108.343C0.599781 99.3338 0.429524 90.3196 0.660396 81.3165C0.810658 75.4489 1.83603 69.6002 1.90568 63.7363C1.9463 60.2984 3.39603 58.1195 5.73314 56.0779C17.3136 45.9639 28.8457 35.793 40.4461 25.7024C46.2876 20.6213 52.0884 15.4707 58.1969 10.7296C61.9283 7.83317 66.1421 5.53523 70.2566 3.18093C77.5607 -0.997923 84.6481 -0.332438 91.891 3.86266C100.333 8.69975 108.392 14.1848 115.998 20.2701C124.078 26.7941 131.813 33.7561 139.644 40.5915C143.808 44.2269 147.664 48.2472 152.008 51.6415C156.312 55.0033 157.748 59.355 157.652 64.4523C157.484 73.4476 157.124 82.4397 156.926 91.4343C156.658 103.654 156.608 115.88 156.172 128.094C155.994 132.754 155.381 137.387 154.342 141.931C152.629 149.471 149.28 152.986 140.442 153.803C132.669 154.518 124.811 154.38 116.989 154.485C108.492 154.599 99.9883 154.413 91.4943 154.631C84.1238 154.82 76.7642 155.411 69.3976 155.782C67.4151 155.883 65.4256 155.855 63.4393 155.855C51.6293 155.855 39.818 155.97 28.0112 155.78C23.281 155.632 18.5644 155.192 13.8879 154.461C8.16378 153.652 4.02934 150.522 2.40356 144.792C1.37841 141.519 0.757608 138.13 0.555263 134.704C0.297304 125.925 0.469494 117.132 0.469494 108.346L0.599781 108.343ZM76.0091 110.104C100.967 95.6093 122.591 76.5858 145.212 59.618C143.313 57.4424 141.756 55.4353 139.975 53.6569C130.643 44.1967 120.711 35.358 110.241 27.1967C102.608 21.3389 94.8336 15.7126 86.3674 11.0482C82.1601 8.7303 78.3113 8.86225 74.4581 10.9682C70.3372 13.0971 66.4117 15.5911 62.7292 18.421C53.8761 25.5769 45.2977 33.0796 36.616 40.4506C29.8734 46.1758 23.1383 51.9093 16.4107 57.6514C15.1029 58.7688 13.8653 59.9684 12.6536 61.0766C17.7734 68.9099 59.0662 100.807 76.0091 110.104ZM107.907 100.447C105.779 101.908 103.983 103.192 102.138 104.398C94.7356 109.234 87.3264 114.059 79.9094 118.872C77.7296 120.295 75.5647 120.985 73.1534 119.347C66.5716 114.876 59.9738 110.429 53.3602 106.005C51.2868 104.616 49.5688 102.653 46.8357 101.728C42.8703 106.415 38.9035 111.009 35.0425 115.695C31.1009 120.481 27.116 125.243 23.4279 130.224C19.8584 135.045 15.6246 139.393 12.2847 145.087C14.398 145.613 15.9471 146.233 17.5322 146.352C24.5577 146.872 31.591 147.583 38.6255 147.612C50.4181 147.661 62.2127 147.244 74.006 147.022C74.2266 147.018 74.4471 147.002 74.6677 146.992C83.357 146.597 92.0425 145.999 100.736 145.856C113.203 145.652 125.675 145.796 138.145 145.748C139.611 145.743 141.219 146.027 142.588 144.682L107.907 100.447ZM114.562 95.3363C125.631 108.282 134.974 121.986 146.915 134.553C147.518 112.296 148.097 90.9001 148.694 68.8599L114.562 95.3363ZM9.28591 70.2652C9.28591 71.5359 9.2685 72.6338 9.28591 73.7309C9.47035 83.828 9.71992 93.9239 9.83278 104.021C9.93338 113.019 9.87857 122.019 9.91081 131.017C9.91081 131.944 10.0398 132.869 10.1249 133.981L39.7548 95.7178L9.28591 70.2652Z" fill="black"/>
</g>
<defs>
<clipPath id="clip0_8_2466">
<rect width="158" height="156" fill="white"/>
</clipPath>
</defs>
</svg>
