<svg width="104" height="100" viewBox="0 0 104 100" fill="none" xmlns="http://www.w3.org/2000/svg">
<g clip-path="url(#clip0_6_2014)">
<path d="M93.4616 10.1038C85.0204 18.4384 76.6035 26.7495 68.211 35.0373C70.1104 38.676 72.1864 42.0096 73.6586 45.5913C78.8738 58.273 77.9956 70.8359 72.0427 83.0222C69.0714 89.1825 63.7996 93.9292 57.3631 96.2421C47.4428 100.099 36.5686 100.775 26.2469 98.177C13.2652 94.8953 5.67129 86.0466 2.15922 73.4232C-1.17694 61.4439 0.255913 50.0866 6.87375 39.4907C7.75029 38.0519 8.81467 36.7366 10.0391 35.5796C15.8718 30.1213 23.0917 26.3698 30.9109 24.7342C38.1781 23.1878 45.7156 23.4699 52.8469 25.5553C56.3589 26.5438 59.6851 28.1884 62.7929 29.4164L85.4365 7.50156C84.6713 7.31884 83.8948 7.18527 83.1124 7.10224C80.6433 7.01823 78.1715 7.01502 75.7017 6.94873C72.0394 6.84962 70.4117 5.79238 70.4937 3.60743C70.5731 1.47564 72.2002 0.555966 75.9465 0.536932C77.294 0.530369 78.6421 0.565811 79.9896 0.536932C85.0375 0.418792 90.0854 0.306493 95.132 0.143065C98.4209 0.0347697 99.9981 1.03394 100.57 4.30447C101.497 9.60374 102.28 14.9271 102.919 20.2745C103.008 20.8632 102.978 21.4637 102.831 22.0406C102.684 22.6176 102.423 23.159 102.063 23.6331C101.703 24.1072 101.251 24.5041 100.734 24.8003C100.218 25.0965 99.6476 25.286 99.0562 25.3576C96.7813 25.5545 94.8557 23.6356 94.5885 20.8357C94.578 20.1636 94.6082 19.4917 94.6791 18.8234C94.7119 17.703 94.7946 16.578 94.7296 15.4622C94.6318 13.7951 94.4244 12.1345 94.2636 10.474L93.4616 10.1038ZM34.4845 31.5476C30.7755 31.0547 25.8425 33.0197 21.0434 35.5991C16.2312 38.1105 12.3878 42.1469 10.1147 47.076C5.40356 57.0648 6.4444 66.9727 10.4612 76.762C13.9069 85.1585 20.3135 90.2274 29.2213 92.0291C37.4617 93.6962 45.5509 92.86 53.4401 90.1441C55.866 89.3735 58.1047 88.1061 60.0134 86.4226C61.9222 84.7385 63.4592 82.6756 64.5264 80.3646C70.4333 67.419 70.1124 54.7131 62.1808 42.582C60.1278 39.442 57.501 36.7622 54.0356 35.2126C48.437 32.7113 42.5155 31.5607 34.4819 31.5476H34.4845Z" fill="black"/>
</g>
<defs>
<clipPath id="clip0_6_2014">
<rect width="103.045" height="99.7634" fill="white"/>
</clipPath>
</defs>
</svg>
