<svg width="157" height="156" viewBox="0 0 157 156" fill="none" xmlns="http://www.w3.org/2000/svg">
<g clip-path="url(#clip0_8_2475)">
<path d="M106.21 153.403C108.307 153.82 110.433 154.083 112.568 154.188C113.756 154.249 114.944 154.313 116.132 154.378C121.508 154.669 127.067 154.968 132.546 155C132.831 155 133.116 155 133.402 155C138.498 155 143.803 154.744 149.184 154.238C154.206 153.766 155.551 152.342 155.722 147.315C156.088 136.59 156.356 125.683 156.614 115.136L156.757 109.327C156.774 108.273 156.662 107.221 156.424 106.194C155.87 103.716 154.233 102.164 152.045 102.047C150.937 101.988 149.844 102.32 148.955 102.985C148.067 103.65 147.438 104.606 147.18 105.687C146.7 107.453 146.448 109.275 146.43 111.106C146.365 116.409 146.368 121.798 146.37 127.011C146.37 128.825 146.37 130.639 146.37 132.452C146.37 135.106 146.37 137.76 146.37 140.495V143.828L146.046 143.908C145.79 143.985 145.528 144.038 145.262 144.065C143.896 144.125 142.531 144.191 141.166 144.26C137.505 144.438 133.72 144.622 130.001 144.678C125.914 144.743 121.757 144.722 117.736 144.703C115.28 144.691 112.824 144.679 110.37 144.686C108.995 144.645 107.619 144.744 106.264 144.982C103.916 145.477 102.417 147.091 102.35 149.194C102.315 150.47 102.762 152.703 106.21 153.403Z" fill="black"/>
<path d="M42.782 144.772C35.7754 144.669 28.6519 144.642 21.7621 144.616C19.5563 144.607 17.3506 144.598 15.1448 144.588C14.0296 144.584 12.9143 144.584 11.7134 144.588H10.5379C10.5152 144.365 10.4932 144.159 10.4731 143.966C10.4082 143.341 10.355 142.848 10.3388 142.374C10.1792 137.768 10.0221 133.163 9.8677 128.558C9.65581 122.28 9.44088 116.003 9.22289 109.724C9.20642 108.249 9.08198 106.778 8.85057 105.321C8.75014 104.557 8.38645 103.851 7.82229 103.327C7.25812 102.802 6.52879 102.492 5.76038 102.449C4.02949 102.311 2.71124 103.216 2.06248 104.996C1.82669 105.68 1.68182 106.392 1.63167 107.113L1.55263 108.005C1.40212 109.683 1.24707 111.418 1.20101 113.14C0.854569 125.986 0.564438 137.653 0.314665 148.808C0.230326 152.553 2.43621 154.951 6.36575 155.389C7.64667 155.508 8.93309 155.556 10.2193 155.534C10.6203 155.534 11.0206 155.534 11.4209 155.54L17.1903 155.61C25.8798 155.716 34.8645 155.825 43.7032 155.87H43.7447C45.1436 155.834 46.5224 155.528 47.8053 154.967C48.7559 154.641 49.5813 154.024 50.1671 153.206C50.7528 152.388 51.07 151.407 51.0746 150.4C51.0792 149.393 50.7711 148.41 50.1929 147.585C49.6146 146.762 48.7949 146.139 47.8474 145.802C46.2328 145.162 44.518 144.813 42.782 144.772Z" fill="black"/>
<path d="M4.96423 55.6845H5.06861C7.24974 55.6845 8.98589 54.0335 9.61454 51.3509C9.76343 50.652 9.8394 49.9395 9.84148 49.2248C9.85251 48.6398 9.86743 48.0547 9.8817 47.4697C9.92776 45.6308 9.97525 43.7298 9.90583 41.8533C9.70945 36.5753 9.49497 31.298 9.26226 26.0213C9.10007 22.1871 8.94106 18.352 8.78536 14.5162C8.7393 13.3416 8.75098 12.1541 8.76395 10.897C8.76784 10.496 8.77167 10.0876 8.77427 9.66969C9.32766 9.66644 9.86483 9.65877 10.3897 9.65162C11.8818 9.62952 13.2968 9.61041 14.6819 9.68841C24.4678 10.2403 32.7 10.4035 41.0723 9.38818C42.5849 9.2249 44.0517 8.77042 45.3923 8.04976C45.9537 7.74303 46.4237 7.29277 46.7548 6.74469C47.0858 6.19665 47.2661 5.57045 47.277 4.92992C47.2799 4.27537 47.1096 3.63188 46.7836 3.06466C46.4576 2.49744 45.9873 2.02687 45.4208 1.70086C44.2729 1.06602 43.0015 0.687687 41.6938 0.591928C40.3121 0.49185 38.9256 0.472504 37.5417 0.534482C37.1264 0.544882 36.7112 0.555926 36.2967 0.561776C30.3869 0.648443 24.4771 0.736775 18.5673 0.826475L5.00827 1.02992C2.78626 1.06307 1.505 2.10365 1.09368 4.21485C0.771465 5.78135 0.594501 7.37454 0.564986 8.97367C0.459887 19.6792 0.378048 31.446 0.305386 46.004C0.265357 47.7067 0.355592 49.4098 0.575281 51.0986C1.00087 53.9138 2.64037 55.6286 4.96423 55.6845Z" fill="black"/>
<path d="M145.884 16.5952C145.708 18.7617 145.525 21.003 145.394 23.2137L145.217 26.1453C144.916 31.0775 144.605 36.1774 144.538 41.2045C144.544 43.41 145.073 45.5824 146.081 47.5432C146.381 48.2103 146.859 48.782 147.461 49.1959C148.064 49.6098 148.768 49.8499 149.498 49.8903H149.551C150.287 49.8588 151.002 49.6285 151.618 49.2238C152.235 48.8191 152.731 48.2551 153.054 47.5912C154.098 45.6688 154.731 43.5499 154.914 41.3689C155.868 29.8028 155.266 18.0688 154.684 6.7237L154.613 5.34247C154.483 2.85232 153.172 1.24777 150.813 0.698522C149.043 0.24206 147.221 0.0211604 145.394 0.0418577C136.083 0.341508 126.26 0.730119 114.481 1.26442C113.088 1.3607 111.718 1.66924 110.419 2.17911C109.698 2.43595 109.087 2.9347 108.691 3.59083C108.294 4.24696 108.137 5.02018 108.244 5.77951C108.243 6.5597 108.547 7.30941 109.09 7.86822C109.633 8.42702 110.374 8.75053 111.152 8.76957C111.548 8.81182 111.943 8.85986 112.337 8.90796C113.369 9.03276 114.435 9.16204 115.502 9.19324C117.946 9.26474 120.429 9.30381 122.833 9.34151C124.493 9.36751 126.153 9.39331 127.813 9.43036C132.134 9.52526 136.456 9.63186 140.937 9.74171L146.236 9.87184C146.236 10.0824 146.242 10.28 146.245 10.4685C146.255 11.1634 146.264 11.7119 146.225 12.2481C146.119 13.695 146.002 15.1451 145.884 16.5952Z" fill="black"/>
</g>
<defs>
<clipPath id="clip0_8_2475">
<rect width="157" height="156" fill="white"/>
</clipPath>
</defs>
</svg>
