<svg width="151" height="161" viewBox="0 0 151 161" fill="none" xmlns="http://www.w3.org/2000/svg">
<g clip-path="url(#clip0_6_2232)">
<path d="M70.7766 32.4616V22.7897C67.5605 21.4114 64.6026 19.4694 63.4258 15.7145C62.7397 13.3192 62.8734 10.7632 63.8062 8.45267C65.5626 3.50061 71.8825 -0.201134 77.6314 0.3305C82.2658 0.759086 85.4287 3.81973 86.0909 8.51515C87.2434 16.6833 85.1248 20.6048 77.7804 23.4632C77.6616 25.404 77.5349 27.4799 77.3682 30.2004C79.3319 28.7145 80.793 27.5547 82.3104 26.4737C84.4501 24.8412 86.6718 23.3189 88.9663 21.9129C96.3829 17.7045 103.56 18.5091 110.505 23.1901C113.666 25.32 116.867 27.3946 120.121 29.3788C125.982 32.9597 132.551 35.2284 139.373 36.0288C141.152 36.261 142.91 36.6304 144.632 37.134C150.836 38.893 152.397 44.4581 147.79 48.9041C141.409 55.0632 133.511 58.2084 124.821 59.0557C115.965 59.8576 107.038 59.2275 98.3821 57.1898C92.3642 55.8265 86.3101 54.6235 80.2672 53.3745C79.0819 53.129 77.8729 52.999 76.5294 52.7936V82.788C81.1113 81.0291 85.2127 79.5989 88.0704 76.1039C89.095 74.782 89.8183 73.2521 90.1891 71.6211C90.8395 68.915 90.065 68.0644 87.6208 66.6474C85.6052 65.4557 83.7314 64.0383 82.0361 62.4227C81.3974 61.8517 80.9695 61.0826 80.8205 60.239C80.6722 59.3953 80.8113 58.5262 81.2163 57.7713C81.53 56.9724 82.1161 56.3104 82.8716 55.9031C83.627 55.4957 84.5019 55.3694 85.342 55.5464C87.2585 55.9224 89.4514 56.4186 90.8553 57.6341C101.286 66.6697 99.4579 78.5927 90.619 85.3189C88.8469 86.6696 86.8956 87.7933 84.7625 89.1952C85.7667 89.53 86.5733 89.8076 87.3878 90.0681C91.3863 91.2423 95.0978 93.231 98.2896 95.9096C103.6 100.555 104.163 106.489 99.79 112.007C95.9176 116.895 90.7398 119.987 85.048 122.298C83.4183 122.959 81.7525 123.531 79.6719 124.304C81.1723 125.376 82.3629 126.137 83.4524 127.023C87.5309 130.336 90.0814 134.318 88.8423 139.872C88.5135 141.355 87.8702 142.75 86.956 143.963C86.0423 145.176 84.8787 146.18 83.5443 146.905C82.0492 147.796 80.6998 148.93 79.0615 150.115C81.0266 151.014 82.6058 151.592 84.0346 152.435C85.3092 153.189 86.4893 154.284 85.7916 156.005C85.1143 157.677 83.5804 157.893 82.0958 157.429C79.5512 156.635 77.0715 155.636 74.4048 154.666C73.5634 156.784 73.6356 159.912 70.6742 159.907C69.3044 159.907 67.9379 158.122 66.2203 156.898C65.3495 157.212 63.9192 157.821 62.4346 158.234C61.2053 158.576 59.8348 158.573 59.2375 157.188C58.6527 155.831 59.5271 154.782 60.587 154.06C62.1446 152.999 63.7913 152.069 65.0292 151.31C61.9877 149.587 58.7855 147.991 55.811 146.045C48.1318 141.023 49.2165 132.874 53.5622 127.68C54.208 126.908 54.9221 126.193 55.8731 125.161C49.2441 121.433 43.5151 116.911 43.4219 108.595C43.332 100.528 47.8002 94.9625 54.6556 90.6989C53.7367 89.952 53.0412 89.4617 52.4341 88.8795C50.9992 87.6305 49.6567 86.2791 48.4173 84.8352C44.1917 79.3928 43.7813 73.6387 47.186 67.5735C50.0082 62.5416 54.2375 59.2211 59.3759 56.9108C61.5793 55.9204 63.3036 56.3371 64.4706 57.972C64.7724 58.3835 64.9884 58.8515 65.1058 59.3482C65.2231 59.8448 65.2393 60.36 65.1535 60.8631C65.0678 61.3662 64.882 61.8468 64.6068 62.2766C64.3316 62.7063 63.9729 63.0763 63.5517 63.3646C61.8401 64.6312 59.9767 65.6786 58.005 66.4826C56.6402 66.9933 55.4179 67.8235 54.4409 68.9045C53.464 69.9855 52.761 71.2851 52.3909 72.6942C52.0879 73.659 51.9839 74.6751 52.0854 75.6806C52.1869 76.6867 52.4919 77.6614 52.9815 78.5455C55.4198 83.0526 59.6103 85.2204 64.2565 86.3559C65.8921 86.7556 67.8946 85.6562 70.0835 85.1614C70.3677 74.6344 70.6479 64.2651 70.94 53.4513C69.6844 53.4685 68.4308 53.5549 67.1844 53.7099C58.1269 55.3619 49.0754 57.0158 40.0383 58.7637C31.8374 60.3474 23.6359 61.5262 15.3109 59.7522C10.8806 58.8083 6.62606 57.4221 3.09562 54.4358C1.11873 52.7621 -0.40859 50.7425 0.594294 48.0036C1.04514 46.6371 1.89369 45.4363 3.03089 44.5546C5.2783 43.083 7.67291 41.8499 10.1763 40.8752C18.8248 37.4833 26.7986 33.0182 33.7387 26.7875C35.2417 25.4381 36.833 24.1852 38.4049 22.9152C41.7666 20.1967 45.547 19.4064 49.7863 20.2695C56.1528 21.5645 61.2767 25.1794 66.3607 28.8884C67.7725 29.9169 69.0885 31.0885 70.7766 32.4616ZM76.255 46.8603C81.994 47.7326 87.315 48.4355 92.5978 49.3675C101.434 50.9329 110.234 52.5389 119.292 52.2291C126.045 52.0241 132.628 50.0573 138.386 46.5236C139.183 45.9478 139.939 45.3186 140.651 44.6405C137.915 44.0695 135.614 43.7178 133.386 43.1028C123.971 40.5031 115.544 35.9375 107.756 30.1027C101.945 25.7492 97.8138 25.633 91.7203 29.5422C90.7706 30.1388 89.8544 30.7865 88.9749 31.4823C85.4845 34.2974 82.0886 37.2345 78.5122 39.934C77.1043 40.9959 76.3909 42.0999 76.4559 43.832C76.4427 44.8449 76.3765 45.8564 76.255 46.8622V46.8603ZM71.322 42.9499C68.7196 41.011 66.6784 39.6622 64.8334 38.0837C60.5302 34.3108 55.6821 31.2095 50.4526 28.8845C46.7593 27.2877 43.4053 27.5115 40.2614 30.5038C31.5367 38.8071 21.3459 44.7831 10.0622 48.9429C8.93827 49.4571 7.84599 50.0376 6.79106 50.6815C9.00423 51.6496 10.4928 52.4149 12.0562 52.9649C19.0285 55.4196 26.1463 55.3277 33.2846 53.9087C42.0795 52.1629 50.8378 50.2661 59.6301 48.5268C63.4486 47.7707 67.3092 47.243 71.322 46.5841V42.9499ZM69.773 95.5308C64.785 95.5387 56.9149 99.268 54.2285 102.775C51.2631 106.648 51.2256 111.439 54.9155 114.137C58.0922 116.462 61.895 118.022 65.5849 119.519C67.5704 120.323 68.9776 119.066 69.101 116.875C69.3819 111.855 69.5814 106.833 69.7573 101.807C69.8341 99.7137 69.773 97.6187 69.773 95.5308ZM76.828 116.62C79.3372 115.679 81.6744 114.941 83.8928 113.94C87.4922 112.317 90.8054 110.215 93.3533 107.124C95.1339 104.963 95.1254 103.702 93.0967 101.932C88.5207 97.9389 82.9989 96.5908 76.828 96.2167V116.62ZM68.0416 129.484C63.9068 128.946 59.25 132.044 58.5411 135.342C58.3671 136.056 58.404 136.805 58.6472 137.497C58.8903 138.19 59.3292 138.797 59.9108 139.246C62.1024 141.103 64.3464 142.897 66.939 145.021C67.3256 139.574 67.6767 134.626 68.0416 129.486V129.484ZM79.1757 12.9709C79.2066 8.66467 77.655 7.27861 72.9773 6.97079C70.8645 6.83165 69.414 7.90863 68.8706 11.6373C68.4328 14.6368 70.8914 16.8224 74.7048 17.0639C78.2063 17.289 79.1541 16.424 79.1757 12.9737V12.9709ZM75.4084 132.412C75.18 134.654 74.8656 136.858 74.752 139.074C74.6391 141.326 74.7271 143.587 74.7271 146.176C77.4929 144.594 78.717 142.447 79.6306 140.007C81.1795 135.881 80.1045 133.819 75.4084 132.414V132.412Z" fill="black"/>
</g>
<defs>
<clipPath id="clip0_6_2232">
<rect width="150.958" height="160.146" fill="white"/>
</clipPath>
</defs>
</svg>
