<svg width="157" height="139" viewBox="0 0 157 139" fill="none" xmlns="http://www.w3.org/2000/svg">
<g clip-path="url(#clip0_8_2480)">
<path d="M7.23002 93.1378C11.4547 97.046 16.8781 99.1602 23.8109 99.6013C27.459 99.8325 31.1684 99.8007 34.7592 99.7727C36.352 99.7604 37.9448 99.7494 39.5376 99.7565C40.062 99.7604 40.5857 99.7565 41.0723 99.7565H41.2359L41.2567 99.8039C41.2939 99.8871 41.3257 99.9475 41.3368 99.9455C41.2065 102.963 41.075 105.982 40.9421 109.001C40.6887 114.751 40.4261 120.697 40.202 126.547C40.1635 128.454 40.2477 130.362 40.4541 132.259C40.5322 133.105 40.8485 133.913 41.3666 134.588C41.8846 135.263 42.5834 135.778 43.3824 136.075C47.4511 137.803 51.8391 138.658 56.261 138.584C57.8632 138.58 59.4642 138.495 61.0576 138.328C63.8771 138.041 64.5357 136.724 64.8172 134.236C65.8988 124.36 65.9106 114.396 64.8536 104.517C64.7181 103.218 64.621 101.916 64.5077 100.411C64.4797 100.03 64.4498 99.637 64.4185 99.2304C65.2096 99.6636 65.9751 100.083 66.7158 100.489C68.891 101.679 70.945 102.803 72.9417 103.946C78.0054 106.844 83.1083 109.878 88.043 112.81C98.5314 119.045 109.377 125.487 120.507 131.044C121.231 131.404 121.947 131.783 122.662 132.16C126.321 134.094 130.103 136.089 134.844 135.738C138.166 135.488 139.616 134.983 139.518 131.197C139.488 130.083 139.428 128.954 139.37 127.863C139.278 126.126 139.183 124.331 139.213 122.578C139.409 111.407 139.684 100.49 139.93 91.2879C139.972 89.729 140.114 88.148 140.251 86.6178C140.299 86.0871 140.346 85.559 140.39 85.0329C144.433 84.525 148.197 82.7043 151.099 79.8516C154.001 76.9988 155.881 73.2731 156.448 69.2486C157.176 64.0734 156.612 60.0255 154.672 56.518C151.47 50.7203 145.736 48.3008 140.51 46.5444V46.008C140.51 45.3072 140.516 44.6342 140.505 43.96C140.446 40.1745 140.384 36.3887 140.318 32.6024C140.165 23.5583 140.007 14.2063 139.931 5.00957C139.911 2.57707 138.931 1.37219 138.113 0.78761C136.884 -0.088612 135.095 -0.230923 133.205 0.397824C132.475 0.667408 131.774 1.012 131.116 1.42604C130.889 1.5592 130.66 1.69241 130.432 1.81582C129.77 2.17761 129.114 2.54846 128.457 2.91999C127.298 3.57537 126.099 4.25286 124.898 4.86082C121.375 6.64008 117.842 8.40343 114.302 10.1511C107.191 13.682 99.8369 17.3325 92.7113 21.1329C84.3167 25.6114 75.5625 30.681 66.693 36.2021C66.3321 36.4262 65.9764 36.6567 65.6259 36.8789C62.8146 38.6813 60.3873 40.2401 57.0037 39.0327C56.5781 38.9102 56.1315 38.8785 55.6929 38.9397C55.6004 38.9469 55.5079 38.9541 55.4167 38.958C53.9184 39.0275 52.42 39.0801 50.9178 39.1321C47.4586 39.2536 43.882 39.3789 40.3733 39.7166C32.5214 40.4753 26.6401 41.6944 21.3021 43.6683C13.428 46.5802 8.32714 50.5612 5.24969 56.1972C1.60967 62.6454 -0.0106531 70.0326 0.597592 77.4074C1.0256 82.2672 2.16175 88.4455 7.23002 93.1378ZM56.2153 98.1463V130.895H49.3751L48.4631 99.6117L56.2153 98.1463ZM13.3035 57.8275C15.7321 53.9453 19.753 51.0899 24.9268 49.5693C29.2545 48.2582 33.6751 47.2741 38.1512 46.6256C42.7394 45.9988 47.2996 45.6144 52.1275 45.2072C53.9562 45.0532 55.8024 44.8974 57.6747 44.7259L57.0108 89.5192L56.4102 89.6056C55.5566 89.7492 54.6952 89.8394 53.8304 89.8778C50.6904 89.9479 47.5074 90.1597 44.4287 90.3656C37.6953 90.8118 30.7325 91.2743 23.9021 90.2707L23.7522 90.2493C22.4083 90.0544 21.0161 89.8485 19.6976 89.5264C14.1309 88.1714 10.8255 84.8491 9.5903 79.3657C8.72263 75.7115 8.60452 71.9201 9.24308 68.2184C9.88163 64.5175 11.2636 60.983 13.3062 57.8275H13.3035ZM66.5138 44.5843C74.1293 39.2373 123.53 14.4343 132.597 11.349C133.108 37.3102 132.727 63.7246 132.365 89.2789C132.194 101.161 132.019 113.436 131.932 125.595C123.612 121.25 115.409 116.621 107.467 112.137C94.1706 104.632 80.4256 96.8732 66.2168 90.5338C67.0298 72.6496 67.1242 58.0251 66.5164 44.5843H66.5138ZM140.624 75.5016V53.8135C145.408 55.2256 148.518 59.9716 148.272 65.656C148.064 70.5431 144.895 74.5585 140.626 75.5004L140.624 75.5016Z" fill="black"/>
</g>
<defs>
<clipPath id="clip0_8_2480">
<rect width="157" height="139" fill="white"/>
</clipPath>
</defs>
</svg>
