<svg width="116" height="83" viewBox="0 0 116 83" fill="none" xmlns="http://www.w3.org/2000/svg">
<g clip-path="url(#clip0_8_2482)">
<path d="M0.0867238 77.0341C-0.205544 78.923 1.34345 81.0778 3.46839 81.7405C4.58091 82.0874 5.73408 82.2871 6.89844 82.3345C7.87051 82.3701 8.84258 82.4129 9.81464 82.457C12.0899 82.5575 14.4198 82.6613 16.7489 82.6613C17.6846 82.6613 18.6203 82.6444 19.5509 82.6036C24.0813 82.409 28.6812 82.1185 33.1294 81.8378C38.4576 81.5025 43.9666 81.1562 49.3862 80.9682C63.4954 80.4799 77.6584 78.5379 91.3555 76.66L93.1324 76.4162C96.3435 75.9772 99.6641 75.522 102.902 74.8794C103.045 74.8515 103.193 74.8262 103.343 74.8009C104.644 74.5791 106.609 74.2452 107.115 71.2566C107.142 71.0944 107.109 70.9284 107.021 70.7897C106.934 70.6509 106.798 70.5491 106.64 70.5044C106.3 70.4071 105.985 70.3001 105.686 70.1983C105.075 69.9577 104.432 69.8008 103.779 69.7327L101.715 69.6108C96.9527 69.3294 92.0288 69.0389 87.1763 68.9092C73.4254 68.5331 59.6641 68.891 45.951 69.9811C37.1169 70.6944 28.122 71.2779 19.4227 71.8427C15.016 72.1287 10.609 72.4205 6.20233 72.7181C5.26126 72.7596 4.32939 72.9204 3.42884 73.1967C2.56276 73.4483 1.78737 73.9437 1.19485 74.6245C0.602339 75.3047 0.217523 76.1412 0.0867238 77.0341Z" fill="black"/>
<path d="M2.44521 43.1126C2.42373 43.8194 2.60294 44.5179 2.96194 45.1271C3.32093 45.7363 3.84493 46.2312 4.47352 46.5545C5.54122 47.0793 6.70165 47.3888 7.88874 47.4655C9.46284 47.5621 11.1146 47.6451 12.7918 47.6451C13.6122 47.6451 14.4381 47.625 15.2637 47.5771C20.1888 47.2943 25.1878 46.9598 30.0248 46.6369C39.0799 46.0325 48.4429 45.4049 57.6575 45.0891C70.2008 44.6572 82.8117 43.1159 95.0073 41.6251C98.2047 41.236 101.4 40.8518 104.593 40.4728C104.847 40.4436 105.105 40.4197 105.367 40.3957C107.236 40.2238 109.563 40.0099 111.938 37.4647C112.011 37.3858 112.065 37.2902 112.093 37.1862C112.121 37.0823 112.125 36.9732 112.101 36.8679C112.079 36.7626 112.03 36.6644 111.961 36.5818C111.892 36.4992 111.804 36.4346 111.704 36.3935C107.365 34.6077 103.613 34.3631 99.8332 34.2535L96.5341 34.1582C86.085 33.8541 75.2821 33.5396 64.6129 33.9501C46.6789 34.6413 29.1163 36.3877 9.66263 38.4303C7.83391 38.63 6.05151 39.1354 4.38998 39.9255C3.79831 40.219 3.30164 40.674 2.95751 41.2381C2.61337 41.802 2.43581 42.4519 2.44521 43.1126Z" fill="black"/>
<path d="M6.13647 9.30705C7.40124 9.92436 8.76926 10.3015 10.1716 10.4192C10.9406 10.4762 11.71 10.5351 12.4799 10.5956C16.0331 10.8705 19.698 11.1544 23.3283 11.1544C23.6089 11.1544 23.89 11.1545 24.1706 11.1493C31.0334 11.0631 38.0085 10.9028 44.754 10.7479C53.7035 10.543 62.9581 10.3309 72.058 10.2887C85.0837 10.2284 98.169 8.7383 110.825 7.29747L111.23 7.25156C112.028 7.0986 112.79 6.79844 113.478 6.36646C113.939 6.12265 114.461 5.84767 115.103 5.55069C115.218 5.49796 115.315 5.41372 115.384 5.30784C115.452 5.20196 115.489 5.07879 115.491 4.95259C115.493 4.82639 115.458 4.70237 115.392 4.59497C115.325 4.48757 115.23 4.4011 115.117 4.34579C114.456 4.02157 113.9 3.71035 113.409 3.43282C112.639 2.91444 111.775 2.55407 110.864 2.37262L108.378 2.07309C103.547 1.4895 98.552 0.883162 93.6093 0.676958C66.9792 -0.435762 39.9389 0.608936 13.7896 1.61985L9.09665 1.8008C8.38691 1.82876 7.68184 1.92888 6.99239 2.09969C6.20371 2.24831 5.48312 2.6449 4.9353 3.23176C4.38749 3.81863 4.04091 4.56515 3.94647 5.36261C3.82496 6.16975 3.97405 6.99446 4.37016 7.708C4.76629 8.42154 5.38742 8.9838 6.13647 9.30705Z" fill="black"/>
</g>
<defs>
<clipPath id="clip0_8_2482">
<rect width="116" height="83" fill="white"/>
</clipPath>
</defs>
</svg>
