<svg width="104" height="19" viewBox="0 0 104 19" fill="none" xmlns="http://www.w3.org/2000/svg">
<g clip-path="url(#clip0_8_2486)">
<path d="M50.0989 18.6863C51.2242 18.6845 52.338 18.4583 53.375 18.0209C54.4122 17.5834 55.352 16.9434 56.1396 16.1384C56.8912 15.3799 57.4813 14.4767 57.8748 13.4834C58.2683 12.4901 58.4569 11.4273 58.4289 10.359C58.3046 6.08141 54.2884 1.98389 50.0028 1.76309C49.1368 1.74871 48.277 1.9096 47.4745 2.23608C46.6721 2.56255 45.944 3.04801 45.3334 3.66319C44.376 4.58877 43.6106 5.69473 43.0815 6.91759C42.5523 8.14047 42.2696 9.45619 42.2499 10.7888C42.2182 11.8216 42.393 12.8504 42.7637 13.8147C43.1344 14.779 43.6936 15.6594 44.4085 16.4044C45.1546 17.1436 46.0406 17.7261 47.0143 18.118C47.9881 18.5098 49.0301 18.703 50.0794 18.6863H50.0989Z" fill="black"/>
<path d="M89.1941 13.7806C90.6403 15.0221 92.492 15.6866 94.396 15.6472C95.0737 15.6456 95.7487 15.5745 96.4113 15.435C97.7751 15.1892 99.0636 14.6304 100.176 13.8025C101.288 12.9745 102.193 11.8997 102.822 10.6626C103.307 9.64799 103.512 8.52234 103.417 7.4016C103.322 6.28084 102.931 5.20563 102.282 4.28712C100.386 1.28774 96.1627 -0.194179 92.6673 0.912408C89.1516 2.0262 86.7092 5.85831 86.8609 10.0233C86.8649 10.1403 86.9002 10.2543 86.9617 10.354C87.082 10.5466 87.207 10.7997 87.3482 11.0807C87.7898 12.0884 88.4157 13.0041 89.1941 13.7806Z" fill="black"/>
<path d="M6.8156 18.4293C7.10111 18.4651 7.38858 18.4831 7.67631 18.483C9.34456 18.469 10.9587 17.8886 12.2549 16.8366C13.1069 16.1561 13.8162 15.3133 14.3414 14.357C14.8667 13.4006 15.1978 12.3495 15.3155 11.2643C15.7577 7.10986 12.9829 3.12839 9.2579 2.56822C8.28788 2.43339 7.3008 2.49744 6.35632 2.75648C5.41183 3.01552 4.5297 3.46418 3.7636 4.07514C2.82045 4.8133 2.03463 5.73321 1.45226 6.78064C0.869878 7.82799 0.502702 8.98175 0.372756 10.1736C0.239723 11.1416 0.302136 12.1265 0.556079 13.07C0.810023 14.0135 1.25036 14.8963 1.85116 15.6662C2.45196 16.4361 3.20085 17.0773 4.0536 17.5519C4.90634 18.0265 5.84562 18.3248 6.8156 18.4293Z" fill="black"/>
</g>
<defs>
<clipPath id="clip0_8_2486">
<rect width="104" height="19" fill="white"/>
</clipPath>
</defs>
</svg>
