<svg width="157" height="133" viewBox="0 0 157 133" fill="none" xmlns="http://www.w3.org/2000/svg">
<g clip-path="url(#clip0_8_2495)">
<path d="M7.27759 128.783C11.6977 131.352 16.7086 132.6 22.5977 132.6H22.6388C33.3056 132.59 43.9737 132.588 54.6427 132.597C59.9182 132.597 65.2337 132.598 70.59 132.6C85.488 132.6 100.611 132.587 115.547 132.523C124.135 132.588 132.72 132.191 141.265 131.335C150.206 130.329 153.99 126.179 154.329 117.013C155.166 94.3686 155.862 71.7403 156.399 49.7552C156.594 41.7641 151.479 36.0852 143.37 35.2904C139.986 34.9592 136.905 34.8156 133.966 34.8091C128.725 34.8221 118.102 34.8646 106.548 34.9109C90.4078 34.9761 72.231 35.049 64.6725 35.0568C65.1471 34.2829 65.5959 33.5569 66.0233 32.871C67.2474 30.9008 68.3034 29.1985 69.2499 27.4389C69.8884 26.253 70.5359 25.0701 71.1841 23.8875C73.7163 19.4633 75.999 14.9008 78.0211 10.2211C79.0028 7.82321 78.5383 3.94384 77.0276 1.91755C75.7814 0.247879 71.7665 0.124964 69.4675 0.682389C65.5243 1.65282 61.7224 3.12761 58.1554 5.06975C48.181 10.4921 38.0906 16.0948 28.3299 21.5133C21.7503 25.1643 14.9432 28.9454 8.23522 32.6342C3.53822 35.2166 1.43604 39.1321 1.41975 45.3277C1.38132 59.5502 1.16243 74.0137 0.951359 87.997C0.864501 93.7629 0.781298 99.5282 0.70182 105.293C0.686837 106.474 0.659502 107.655 0.632791 108.836C0.559177 112.051 0.483594 115.375 0.650366 118.645C0.866651 122.943 3.0972 126.353 7.27759 128.783ZM58.5957 20.5519C55.7899 25.2727 52.889 30.1538 49.9965 34.9275C49.8493 35.1707 49.6976 35.4133 49.5471 35.6552C48.1549 37.8869 46.5771 40.4145 48.2533 43.5615C50.1086 47.0398 53.502 47.5165 56.5919 47.495C70.5795 47.465 84.5682 47.4234 98.5562 47.3695C109.972 47.3313 121.387 47.2958 132.803 47.2632C134.058 47.258 135.324 47.3229 136.558 47.3829C137.953 47.452 139.394 47.5235 140.822 47.502C143.167 47.4368 144.209 48.5542 144.432 51.2527C144.452 51.4494 144.459 51.6472 144.457 51.8448L143.943 70.3758C143.579 83.5187 143.216 96.6615 142.857 109.806C142.787 112.391 142.758 115.087 142.772 117.825C142.786 120.461 141.869 121.462 139.385 121.516C134.76 121.619 130.064 121.792 125.522 121.96C119.777 122.171 113.836 122.391 107.998 122.467C89.4313 122.711 72.5964 122.793 56.5274 122.717C44.9902 122.662 32.5377 122.397 18.4578 121.904C12.0697 121.681 10.5166 120.044 10.5433 113.565C10.5746 105.892 10.4905 63.1367 9.85727 49.2401C9.71916 46.2215 10.3576 44.9606 12.7041 43.6195C23.5104 37.4415 34.4445 31.0698 45.0162 24.9081C49.8275 22.1047 54.6397 19.304 59.453 16.5058C60.0591 16.1732 60.6868 15.881 61.3318 15.6323L61.5924 15.524C60.5909 17.1992 59.592 18.8755 58.5957 20.5519Z" fill="black"/>
<path d="M41.491 74.3984H41.4258C39.5285 74.5086 37.751 75.3627 36.4793 76.7761C34.9766 78.3096 34.1414 80.3763 34.1563 82.5238C34.2723 86.416 37.521 89.3407 41.7203 89.3407H41.7581C45.6993 89.3244 48.7358 86.7146 48.8205 83.2716C48.8771 80.9898 47.2017 78.2574 45.5164 76.5656C44.7059 75.7519 43.1124 74.3984 41.491 74.3984Z" fill="black"/>
<path d="M107.657 91.0887C107.722 91.0887 107.792 91.0926 107.86 91.0926C109.464 91.0809 111.001 90.4433 112.143 89.3154C112.72 88.7586 113.178 88.0904 113.49 87.3517C113.802 86.613 113.961 85.8189 113.958 85.017C113.906 81.5525 109.602 77.8454 105.585 77.7998C104.122 77.8415 102.735 78.4563 101.722 79.5132C100.709 80.57 100.151 81.9828 100.17 83.4471C100.118 87.1672 103.827 90.9538 107.657 91.0887Z" fill="black"/>
<path d="M74.5569 89.7438H74.6963C76.8357 89.6467 78.8525 88.715 80.3151 87.149C80.872 86.6033 81.315 85.952 81.6193 85.2336C81.9228 84.5144 82.0818 83.7432 82.0857 82.9628C82.0486 82.1804 81.857 81.4124 81.5215 80.7044C81.186 79.9964 80.7137 79.362 80.1313 78.8385C78.8076 77.6219 77.0591 76.9745 75.263 77.0352C74.3256 77.0534 73.4018 77.2575 72.5452 77.6369C71.6879 78.0164 70.9153 78.5634 70.2723 79.2453C69.7022 79.8705 69.2625 80.6033 68.9791 81.4013C68.6958 82.1987 68.5739 83.0449 68.6215 83.8899C68.6788 85.4389 69.3257 86.9071 70.4286 87.9953C71.5315 89.0834 73.0084 89.7086 74.5569 89.7438Z" fill="black"/>
</g>
<defs>
<clipPath id="clip0_8_2495">
<rect width="157" height="133" fill="white"/>
</clipPath>
</defs>
</svg>
