<svg width="157" height="141" viewBox="0 0 157 141" fill="none" xmlns="http://www.w3.org/2000/svg">
<g clip-path="url(#clip0_8_2490)">
<path d="M24.5671 106.878C27.0055 108.544 27.3247 109.755 26.0511 112.511C23.3867 118.28 20.3131 125.117 17.719 132.108C17.0278 133.97 16.9783 137.607 18.4734 139.067C19.6968 140.262 21.7724 140.426 23.7795 140.584C24.373 140.631 24.9332 140.675 25.4609 140.744C25.5462 140.756 25.6322 140.761 25.7182 140.761C26.4482 140.692 27.1513 140.45 27.769 140.056L28.0296 139.92C30.2293 138.785 32.4312 137.654 34.6353 136.526C40.9264 133.301 47.4311 129.963 53.7652 126.559L53.8245 126.528C61.4465 122.434 68.6394 118.566 77.4725 120.266C77.8412 120.325 78.2151 120.34 78.5877 120.309C78.7057 120.303 78.8249 120.298 78.9415 120.297C99.9261 120.106 116.096 115.762 129.829 106.626C150.862 92.6322 160.307 72.6056 155.74 51.6818C151.512 32.3089 143.175 20.2547 128.71 12.5985C114.005 4.81623 97.433 0.344555 82.0489 0.00732422C82.043 0.00829458 82.0372 0.00829458 82.032 0.00732422C63.0432 0.0820479 47.179 3.20238 32.1083 9.82936C13.839 17.8612 3.8216 29.4004 1.48484 45.106C0.477552 51.4949 0.357401 57.9916 1.12783 64.4132C3.65742 83.9408 11.325 97.831 24.5671 106.878ZM30.9989 122.668C32.2692 118.148 33.4679 113.879 34.963 109.789C37.3082 103.379 33.847 99.7777 30.5722 97.356C25.5912 93.6744 20.5528 89.436 17.435 83.4113C9.38305 67.8526 8.2873 53.2775 14.0826 38.8533C17.2259 31.0307 23.6069 25.2225 34.1636 20.5741C48.7347 14.1583 63.2373 10.9506 77.5754 10.9506C91.8507 11.014 105.947 14.1301 118.913 20.088C133.884 26.8151 142.186 37.9101 145.041 55.0055C147.386 69.0345 143.489 80.7193 132.782 91.7764C123.247 101.622 110.392 107.416 92.3269 110.01C83.2215 111.317 72.4517 112.4 61.6126 110.52C60.2595 110.291 58.7462 111.136 57.5221 111.82C50.1848 115.933 42.9166 120.058 35.2223 124.425L29.5944 127.618C30.0856 125.919 30.5481 124.273 30.9989 122.668V122.668Z" fill="black"/>
<path d="M49.6953 69.7116H49.7859C50.8082 69.7084 51.8196 69.5011 52.7608 69.1028C53.7019 68.7038 54.5538 68.1223 55.2665 67.3913C55.8788 66.761 56.3568 66.0131 56.6715 65.1938C56.9862 64.3742 57.1312 63.4996 57.0978 62.6226C56.9823 60.8352 56.2089 59.1535 54.9258 57.9004C53.6428 56.6472 51.9408 55.9107 50.1468 55.833C49.1936 55.839 48.2512 56.034 47.374 56.406C46.4968 56.778 45.7024 57.3195 45.0368 58C44.3111 58.6916 43.7296 59.5195 43.3259 60.436C42.922 61.3525 42.7038 62.34 42.6837 63.3409C42.6783 64.1543 42.8358 64.9604 43.1471 65.7123C43.4583 66.4641 43.9169 67.1457 44.4961 67.7188C45.8965 69.043 47.7662 69.7597 49.6953 69.7116Z" fill="black"/>
<path d="M80.5488 71.5141H80.614C82.382 71.4998 84.0725 70.7896 85.3181 69.5382C86.6282 68.2679 87.3832 66.533 87.419 64.7109C87.434 62.8915 86.4243 60.7403 84.7839 59.0997C83.6719 57.855 82.1208 57.0869 80.4544 56.9556H80.4335C77.0688 56.9751 73.7183 60.6551 73.6695 64.3848C73.6526 65.3173 73.8219 66.2438 74.1679 67.11C74.5131 67.9768 75.0278 68.7662 75.6825 69.4323C76.315 70.0833 77.0707 70.6025 77.9059 70.9599C78.7417 71.3172 79.6394 71.5057 80.5488 71.5141Z" fill="black"/>
<path d="M109.92 70.7603H109.963C111.639 70.6959 113.234 70.0228 114.448 68.8681C115.662 67.7128 116.411 66.1554 116.555 64.4883C116.51 62.8406 115.816 61.2767 114.625 60.1347C113.022 58.3543 110.798 57.2516 108.408 57.0521C107.802 57.0402 107.2 57.1519 106.638 57.3796C106.077 57.6072 105.568 57.9462 105.142 58.3764C104.471 59.0638 103.944 59.8774 103.593 60.7699C103.241 61.6623 103.07 62.6157 103.092 63.5745C103.051 65.4283 103.745 67.2223 105.024 68.5679C106.302 69.913 108.062 70.7018 109.92 70.7603Z" fill="black"/>
</g>
<defs>
<clipPath id="clip0_8_2490">
<rect width="157" height="141" fill="white"/>
</clipPath>
</defs>
</svg>
