<svg width="113" height="174" viewBox="0 0 113 174" fill="none" xmlns="http://www.w3.org/2000/svg">
<g clip-path="url(#clip0_8_2502)">
<path d="M90.0903 24.8682C88.0771 19.5039 85.267 13.3777 79.6664 8.60271C71.2492 1.42664 60.9064 -1.00283 48.0498 1.17508C33.3857 3.66024 23.1281 12.8009 18.3866 27.609C14.5434 39.5272 13.1445 52.0931 14.2731 64.5603C14.7187 69.4905 15.0901 74.5139 15.4492 79.373C15.8687 85.0393 16.302 90.8997 16.8566 96.6546C17.3398 101.406 18.1702 106.116 19.3413 110.747C21.2499 118.431 25.9875 123.844 33.4227 126.834C41.0443 129.99 49.2074 131.646 57.4612 131.711C61.8082 131.711 66.1408 131.217 70.375 130.237C82.2342 127.499 89.6753 120.705 92.4925 110.045C93.5829 106.168 94.2791 102.192 94.5707 98.1766C94.9837 91.1539 95.2026 84.0108 95.4149 77.0961C95.5013 74.2804 95.5922 71.4647 95.6864 68.6497C95.6922 68.5015 95.6474 68.3553 95.5598 68.2357C95.4727 68.1154 95.3468 68.028 95.2039 67.9873C95.2039 67.1884 95.2 66.389 95.1922 65.5895C95.1792 63.4277 95.1662 61.1909 95.2162 58.9994C95.513 46.016 93.8368 34.8521 90.0903 24.8682ZM83.5207 66.5455L83.5162 71.8586C83.5162 71.9919 83.5564 72.1219 83.6318 72.2319C83.7071 72.3425 83.8136 72.4272 83.9383 72.4764C83.7883 74.9952 83.6461 77.5146 83.5123 80.034C83.1414 86.7896 82.7589 93.7749 82.1485 100.619C81.8588 103.869 80.7899 107.143 79.756 110.309L79.519 111.037C78.5948 113.883 76.5219 116.052 73.1812 117.679C67.6397 120.379 61.3175 121.422 54.3894 120.784C49.1707 120.3 43.8688 118.973 38.889 117.653C34.0001 116.359 30.7439 112.852 29.4723 107.514C28.6533 104.343 28.0971 101.11 27.8092 97.848C26.7461 82.3944 25.6472 65.8023 24.8133 49.1824C24.556 44.6985 24.8313 40.1999 25.6335 35.7804C28.2384 22.0486 38.8169 12.2495 51.9573 11.3944C52.838 11.3375 53.7309 11.3092 54.6297 11.3092C57.3435 11.3101 60.0512 11.5617 62.7183 12.0608C70.2328 13.4761 75.3535 17.8674 77.5252 24.7582C79.7592 31.834 81.5413 39.2022 83.1752 46.1415C83.5064 47.9206 83.6207 49.7328 83.5162 51.5392C83.5071 52.1214 83.4973 52.6985 83.5012 53.2723C83.5311 57.6954 83.5259 62.1948 83.5207 66.5455Z" fill="black"/>
<path d="M19.2656 136.726C25.2631 141.572 32.2392 144.083 38.8847 146.074C42.1143 147.045 45.4595 147.766 48.695 148.468C49.9854 148.747 51.2738 149.027 52.5571 149.321V163.377L52.3564 163.41C52.0109 163.476 51.6618 163.522 51.3108 163.549L50.8361 163.573C43.3567 163.948 35.6233 164.337 28.016 164.689C26.0079 164.782 23.8824 165.227 23.3492 167.824C22.8719 170.153 24.1344 172.065 26.6444 172.81C28.2757 173.274 29.9653 173.503 31.6619 173.491H31.7417C35.7896 173.474 39.903 173.421 43.8814 173.369C48.8612 173.304 54.0125 173.24 59.0702 173.244C64.6267 173.249 70.2784 173.339 75.7446 173.425C79.1865 173.479 82.6239 173.533 86.0639 173.569C86.1808 173.569 86.2997 173.569 86.4205 173.569C87.5829 173.598 88.7435 173.472 89.8715 173.194C90.8911 172.906 91.7821 172.281 92.3991 171.422C93.0154 170.564 93.3206 169.522 93.2648 168.467C93.0245 166.221 91.8308 164.706 89.9033 164.199C88.5623 163.866 87.1861 163.696 85.8035 163.693C81.6387 163.641 77.474 163.617 73.3092 163.593C70.5816 163.577 67.856 163.558 65.1317 163.536C64.5163 163.531 63.898 163.472 63.1765 163.407L62.5992 163.353L62.0075 149.692L64.6559 149.421C66.7695 149.206 68.6912 149.011 70.6128 148.801C83.9578 147.345 94.863 140.742 103.024 129.177C109.101 120.567 112.047 110.382 112.572 96.1538C112.549 94.5406 112.294 92.939 111.814 91.3982C111.121 88.7171 109.574 87.2319 107.462 87.2157C106.419 87.1659 105.388 87.4622 104.532 88.0586C103.676 88.6543 103.043 89.5172 102.732 90.5101C101.906 92.9273 101.257 95.4015 100.792 97.9119C100.445 99.8369 100.204 101.816 99.9707 103.733C99.5473 107.215 99.1102 110.816 98.016 114.105C93.757 126.912 85.3833 134.791 73.1287 137.521C61.3789 140.136 49.5093 139.167 36.8384 134.557C18.8604 128.014 8.01172 111.457 9.20147 92.3762L9.22874 91.9442C9.42143 90.0573 9.39766 88.1543 9.15795 86.2727C8.97612 85.6135 8.65218 85.0016 8.20862 84.4796C7.765 83.9576 7.21241 83.5385 6.58948 83.2506C5.05618 82.5993 3.44947 83.3574 2.49807 85.1873C2.21252 85.7274 1.99906 86.3031 1.86299 86.8982C0.635578 92.5438 -0.632779 98.3815 0.646588 104.557C3.52419 118.402 9.6119 128.927 19.2656 136.726Z" fill="black"/>
</g>
<defs>
<clipPath id="clip0_8_2502">
<rect width="113" height="174" fill="white"/>
</clipPath>
</defs>
</svg>
