<svg width="163" height="151" viewBox="0 0 163 151" fill="none" xmlns="http://www.w3.org/2000/svg">
<g clip-path="url(#clip0_8_2500)">
<path d="M129.153 130.486C128.842 131.763 128.553 132.823 128.329 133.896C126.888 140.816 122.782 145.182 115.861 146.649C113.267 147.246 110.615 147.551 107.954 147.561C99.1874 147.424 90.4302 147.055 81.0743 146.756C76.1485 151.476 69.4357 150.523 62.9311 150.124C61.4749 150.057 60.0493 149.682 58.7485 149.023C57.4475 148.364 56.3007 147.436 55.3838 146.3C54.4766 145.164 53.8456 143.832 53.541 142.409C53.2364 140.986 53.2665 139.512 53.6289 138.103C53.9913 136.694 54.6759 135.389 55.6288 134.292C56.5816 133.194 57.7764 132.333 59.1185 131.778C65.1931 129.335 71.4982 129.521 77.7831 131.035C78.552 131.182 79.2559 131.566 79.7962 132.134C81.3067 134.1 83.3478 134.096 85.5051 134.087C93.0635 134.058 100.622 134.108 108.18 134.103C109.401 134.131 110.623 134.057 111.833 133.881C115.977 133.174 117.141 131.71 117.56 127.448C119.868 104.017 118.592 80.5212 118.684 57.0587C118.703 52.3074 117.932 47.5378 117.349 42.7989C116.48 35.7175 113.068 29.7757 108.773 24.2493C102.69 16.4285 94.8974 11.3006 84.9927 10.3568C72.1904 9.1371 60.179 11.3043 50.3931 20.6403C47.1539 23.7628 45.064 27.8918 44.4634 32.3558C43.4828 38.8261 42.925 45.364 42.2788 51.8817C41.6099 58.624 40.8625 65.3665 40.4988 72.1283C40.1475 78.663 40.2774 85.223 40.1254 91.7707C40.0501 94.9899 39.7026 98.2045 39.6877 101.422C39.6754 104.081 40.1644 106.747 40.0884 109.401C39.9546 114.058 39.7884 118.739 39.1981 123.352C38.7266 127.041 37.0213 128.678 33.5177 128.828C25.9029 129.153 18.4172 128.464 11.6913 124.294C5.73957 120.604 2.36918 115.268 1.34377 108.348C0.130042 100.154 -0.394026 91.9855 1.98473 83.9044C3.73812 77.9457 7.02472 72.979 12.2303 69.5359C15.251 67.4636 18.4619 65.6848 21.8194 64.2239C24.6274 63.0621 27.7744 62.7233 31.1344 61.9345C31.3981 59.6903 31.7377 57.0775 32.0079 54.4578C32.7027 47.7207 33.2807 40.9706 34.0606 34.2433C35.6069 20.9201 42.9049 11.7139 54.7428 5.96158C64.0086 1.48267 74.3036 -0.423309 84.5544 0.442282C94.4143 1.10551 103.763 5.08185 111.09 11.7288C121.629 21.1923 128.399 32.803 129.72 47.2008C129.973 49.9643 130.123 52.737 130.391 55.4986C130.503 56.6604 130.796 57.8038 131.048 59.1778C135.409 58.2616 139.935 58.5411 144.151 59.9863C152.473 62.6867 158.005 68.2459 160.558 76.6063C162.517 83.0264 163.519 89.5259 162.498 96.3404C161.344 104.045 159.363 111.375 154.945 117.851C149.498 125.841 141.906 130.03 132.216 130.315C131.339 130.342 130.465 130.412 129.153 130.486ZM131.243 67.9277C131.006 84.9152 130.768 101.968 130.532 118.989C138.455 119.779 144.162 115.704 147.092 110.285C152.539 100.217 153.596 89.6528 150.832 78.6051C148.583 69.6147 138.541 65.7941 131.244 67.9277H131.243ZM30.6669 70.0657C29.1466 70.2844 27.8796 70.1894 26.8841 70.6645C24.3917 71.8543 21.9941 73.2537 19.6108 74.6563C13.1168 78.4749 10.4925 84.5071 10.3893 91.7225C10.3279 95.9447 10.5816 100.166 11.1484 104.35C11.516 107.041 12.1427 110.023 13.6525 112.17C17.8477 118.137 24.4125 118.763 30.6669 119.078V70.0657Z" fill="black"/>
</g>
<defs>
<clipPath id="clip0_8_2500">
<rect width="163" height="151" fill="white"/>
</clipPath>
</defs>
</svg>
