<svg width="130" height="160" viewBox="0 0 130 160" fill="none" xmlns="http://www.w3.org/2000/svg">
<g clip-path="url(#clip0_6_2234)">
<path d="M41.21 111.735C42.1511 113.69 43.5207 115.408 45.2172 116.762C46.9137 118.114 48.8936 119.068 51.0092 119.55C63.666 122.741 75.6665 121.012 85.9631 112.728C94.523 105.841 97.3335 96.0029 97.361 85.4056C97.3007 78.5489 95.7064 71.7932 92.6938 65.6334C86.3044 66.4407 85.4741 66.2747 80.757 63.3088C71.0399 70.0289 61.3517 76.7288 51.6921 83.4077C51.3226 83.663 50.9426 83.9039 50.5567 84.1297C46.4769 86.5431 44.6412 86.2142 41.5276 82.3576C37.6985 84.9934 33.8669 87.6647 29.9945 90.2763C28.628 91.2543 27.177 92.1082 25.6588 92.8282C23.1746 93.9183 21.2461 93.3401 19.8921 91.0291C18.1364 88.0323 16.607 84.9042 14.9498 81.8489C13.983 80.0657 14.321 78.6506 15.9724 77.4843C21.0966 73.8633 26.2086 70.2377 31.3079 66.6068C31.3159 66.4801 31.302 66.3535 31.2665 66.2314C27.5667 59.8229 28.5801 59.9641 33.2125 55.9382C45.2754 45.3418 57.9199 35.4264 71.0872 26.2382C76.3497 22.606 81.4009 18.6666 86.5525 14.8729C90.3336 12.0881 91.5026 12.167 94.9227 15.3896C95.2424 15.6909 95.6021 15.9488 95.9794 16.256C102.567 11.4647 109.139 6.76539 115.616 1.93866C118.832 -0.460918 120.807 -0.427557 123.351 2.70908C125.047 4.80228 126.632 6.98415 128.097 9.24556C130.648 13.1836 129.904 15.9403 126.032 18.6477C120.79 22.3121 115.639 26.1089 110.473 29.8829C109.409 30.6613 108.454 31.5893 107.282 32.5896C107.962 33.5085 108.45 34.2193 108.989 34.8868C111.543 38.0497 111.168 40.3744 107.775 42.7431C105.574 44.2796 103.429 45.8934 101.321 47.4299C101.547 49.5427 101.715 51.4205 101.967 53.2871C102.029 53.8332 102.232 54.3536 102.558 54.7968C108.601 62.2567 111.545 71.0305 113.027 80.3085C114.536 89.7407 114.153 99.1034 110.64 108.154C105.652 121.003 96.0615 129.12 83.6882 134.378C82.5816 134.848 81.4527 135.266 80.3113 135.718L84.592 146.224C85.7327 146.323 87.3834 146.421 89.0236 146.618C94.101 147.224 96.8425 151.829 94.8486 156.475C94.0045 158.444 92.1576 158.627 90.3047 158.681C84.695 158.845 79.086 159.147 73.4762 159.158C63.8222 159.177 54.1682 159.022 44.5141 158.916C43.7266 158.904 42.9436 158.793 42.1832 158.588C39.7614 157.941 38.9561 156.465 39.6236 154.019C40.8477 149.511 44.0952 146.809 48.7985 146.405C49.9097 146.31 51.0253 146.265 52.1293 146.198L54.9517 139.341C47.0474 138.228 39.2034 136.922 32.5481 132.204C25.82 127.434 21.5534 120.793 18.5487 112.864C15.6648 112.864 12.654 112.952 9.65193 112.832C7.63585 112.775 5.62992 112.525 3.66155 112.085C2.76641 111.906 1.96122 111.422 1.38392 110.714C0.80662 110.007 0.492902 109.121 0.496518 108.208C0.429359 107.299 0.676902 106.394 1.1974 105.646C1.71791 104.897 2.47972 104.35 3.35549 104.096C4.83687 103.595 6.38632 103.324 7.94985 103.292C20.7511 103.229 33.5529 103.227 46.3549 103.283C47.5794 103.335 48.7905 103.558 49.9529 103.946C51.3503 104.361 52.5369 105.418 52.2652 106.849C51.9183 108.09 51.173 109.183 50.1439 109.959C49.3386 110.602 48.0752 110.747 46.9844 110.944C45.1394 111.273 43.265 111.462 41.21 111.735ZM102.228 37.69C96.0405 32.7977 93.7748 25.5004 88.9954 20.0692C79.4345 25.2739 37.9845 56.9161 35.0376 61.2499L47.3362 77.5926L76.8419 57.1149C75.887 51.3825 74.9018 45.5836 80.9697 41.7487C86.4173 38.3075 91.9305 37.121 97.5297 41.5657L102.228 37.69ZM96.0018 63.6107C100.549 72.0511 101.906 75.6689 102.152 85.6839C102.46 98.1688 98.6796 109.369 88.3095 117.025C76.4199 125.803 62.8369 127.592 48.6383 124.165C42.6335 122.717 38.2308 118.637 34.6235 113.701C34.0716 112.947 33.1797 111.863 32.4859 111.895C30.1113 112.002 27.6041 111.721 25.3896 112.91C26.9445 120.55 33.7055 128.578 41.2337 131.537C47.3344 133.853 53.8283 134.956 60.3515 134.785C68.6804 134.632 76.8656 132.586 84.2868 128.8C96.177 122.867 104.375 113.805 106.963 100.483C108.998 89.9993 107.729 79.7053 104.048 69.7185C102.872 66.5241 101.45 63.4177 100.045 60.0481L96.0018 63.6107ZM104.534 26.9654L121.321 13.1168L117.978 7.58306C111.695 11.9733 105.593 16.237 99.3064 20.6305C100.665 22.3587 101.749 23.767 102.868 25.1473C103.351 25.7439 103.906 26.2854 104.533 26.9654H104.534ZM81.1029 48.6167C81.708 51.0989 81.9693 53.3529 82.8094 55.3685C84.7915 60.148 88.3686 60.9362 92.4175 57.7136C95.1827 55.5129 95.6086 52.913 93.7899 49.3353C92.4641 46.727 90.1289 45.6926 87.0296 46.5347C85.2083 47.0276 83.4631 47.7746 81.1003 48.6167H81.1029ZM60.1198 139.645L58.8616 144.921H76.2178C75.589 142.23 75.0646 139.987 74.5474 137.775L60.1198 139.645ZM45.8438 153.722C60.0824 154.017 74.3242 154.174 88.6429 152.75C87.7897 151.992 86.8439 151.349 85.8863 151.336C83.4526 151.304 81.0143 151.687 78.5806 151.664C70.7452 151.599 62.9111 151.423 55.0764 151.284C51.8256 151.227 48.6082 151.314 45.8463 153.722H45.8438ZM34.7363 71.6954L20.5722 81.1663L24.2679 85.5461C28.8767 82.2467 33.6615 79.7559 37.2024 75.4267L34.7363 71.6954Z" fill="black"/>
</g>
<defs>
<clipPath id="clip0_6_2234">
<rect width="129.955" height="159.49" fill="white"/>
</clipPath>
</defs>
</svg>
