<svg width="162" height="158" viewBox="0 0 162 158" fill="none" xmlns="http://www.w3.org/2000/svg">
<g clip-path="url(#clip0_8_2505)">
<path d="M158.869 47.5043C157.586 46.9179 156.206 46.5705 154.798 46.4783C143.429 46.0686 131.239 45.6792 116.434 45.2553C114.25 45.1903 112.065 45.2092 109.754 45.2254C108.832 45.2319 107.887 45.2394 106.912 45.2413C106.874 44.9526 106.835 44.671 106.796 44.3962C106.666 43.4742 106.547 42.6027 106.515 41.7503C106.293 35.8118 106.079 29.8707 105.872 23.9274C105.677 18.4249 105.479 12.9226 105.278 7.4202C105.248 6.15739 105.096 4.90017 104.822 3.6669C104.327 1.56543 103.009 0.470412 101.148 0.554288C99.2213 0.65117 97.9643 1.86941 97.6995 3.89675C97.6585 4.20885 97.6149 4.5214 97.5694 4.83523C97.3866 5.9744 97.2721 7.12338 97.2259 8.27613C96.9956 20.0982 96.7321 34.0971 96.5284 48.2898C96.4848 51.3653 97.0756 53.4098 98.3885 54.7271C99.7411 56.0828 101.797 56.6775 105.071 56.6332C114.328 56.5273 124.819 56.4073 135.097 56.486C138.604 56.5133 142.175 56.6722 145.628 56.8256C148.296 56.944 151.051 57.0668 153.767 57.1286C153.852 57.1286 153.936 57.1286 154.022 57.1286C155.558 57.1105 157.083 56.8516 158.539 56.3622C159.426 56.0291 160.195 55.4421 160.749 54.6738C161.303 53.9055 161.617 52.9907 161.652 52.0443C161.688 51.098 161.443 50.1621 160.948 49.3546C160.453 48.5472 159.73 47.9045 158.87 47.5062L158.869 47.5043Z" fill="black"/>
<path d="M18.404 107.624C24.8755 107.395 31.4524 107.115 37.8127 106.843C41.5741 106.683 45.3354 106.526 49.0968 106.372C49.672 106.367 50.247 106.395 50.8189 106.457L51.3134 106.5V107.015C51.3134 107.806 51.3134 108.546 51.3134 109.285C51.329 111.904 51.3464 114.523 51.3654 117.141C51.4045 122.751 51.4357 128.361 51.4591 133.969C51.4663 136.617 51.4494 139.265 51.4318 141.912C51.4155 144.377 51.3986 146.842 51.4032 149.308C51.3641 150.581 51.4767 151.853 51.7389 153.099C52.4122 155.838 54.7674 157.87 57.2475 157.87H57.3562C59.9208 157.809 62.1056 155.736 62.6644 152.831C62.8354 151.792 62.8754 150.735 62.7835 149.686C62.5727 146.373 62.3523 143.061 62.1225 139.749C61.7126 133.738 61.2904 127.521 60.9677 121.405C60.8089 118.389 60.7679 115.309 60.7289 112.331C60.6938 109.623 60.6567 106.822 60.5337 104.066C60.4088 101.332 59.8181 99.6308 58.6255 98.5508C57.4329 97.4708 55.6562 97.0488 52.8813 97.2062C39.8888 97.9214 26.8985 98.6561 13.9103 99.4097L9.55707 99.6594C9.34888 99.6711 9.13093 99.6718 8.91167 99.6731C8.12451 99.6048 7.3337 99.7543 6.62546 100.104C6.0204 100.485 4.56047 101.524 4.06731 102.953C3.5195 104.542 4.33991 106.128 6.159 106.994C6.96156 107.337 7.82673 107.509 8.69958 107.5C9.33717 107.517 9.97456 107.536 10.6117 107.556C13.1614 107.635 15.8029 107.718 18.404 107.624Z" fill="black"/>
<path d="M9.06705 58.7076H9.41447C13.7674 58.7076 18.121 58.6959 22.4752 58.6721C32.8725 58.6292 43.6198 58.5838 54.1869 58.7978C54.3248 58.8004 54.4604 58.8016 54.5935 58.8016C59.6825 58.8016 61.8992 56.7631 62.2186 51.8449C62.6473 45.2239 62.8692 38.4824 63.0833 31.9634L63.1197 30.8517C63.4014 22.2845 63.5692 15.1944 63.6493 8.53893C63.7069 6.79001 63.3966 5.04831 62.7384 3.42679C62.4892 2.8063 62.0799 2.26322 61.5523 1.85208C61.0247 1.44093 60.3976 1.17664 59.7346 1.0863C59.0496 1.02947 58.3615 1.15206 57.7383 1.44189C57.115 1.73172 56.5781 2.17878 56.1804 2.73913C55.2955 3.98519 54.6729 5.3976 54.3502 6.89118C53.0575 12.3458 53.1544 17.9255 53.2442 23.3209C53.2761 25.1707 53.3093 27.0836 53.2859 28.9575C53.2208 33.7873 53.0366 38.5332 52.8389 43.558C52.7604 45.5645 52.6836 47.5905 52.6086 49.6365L51.9801 49.7127C51.5349 49.7776 51.0867 49.8198 50.6372 49.8384C44.9067 49.9424 39.1756 50.0433 33.4438 50.1413C27.1602 50.2509 20.8772 50.3621 14.5946 50.4753L12.9681 50.5026C10.3188 50.5448 7.57847 50.5889 4.88559 50.7807C1.37234 51.0298 0.624136 52.948 0.613076 54.513C0.604618 55.7556 1.12512 57.9236 4.71189 58.4841C6.15571 58.6701 7.61171 58.7447 9.06705 58.7076Z" fill="black"/>
<path d="M153.627 93.955C153.15 93.9134 152.67 93.9082 152.192 93.94C150.205 94.046 148.218 94.1455 146.229 94.2378C141.623 94.4595 136.861 94.693 132.18 95.0447C125.869 95.5239 119.466 96.0929 113.272 96.6442C109.71 96.9609 106.149 97.273 102.586 97.5792C98.3632 97.9368 96.6437 99.7015 96.4563 103.873C96.3971 105.193 96.3672 106.533 96.3386 107.829C96.3132 108.957 96.2878 110.085 96.2436 111.21C96.0959 114.993 95.9456 118.776 95.792 122.558C95.5116 129.541 95.2215 136.763 94.9658 143.867C94.8988 145.685 94.9912 147.505 95.2416 149.306C95.6684 152.34 97.1381 154.183 99.1023 154.183C99.1726 154.183 99.2428 154.183 99.3138 154.175C102.195 153.986 102.47 150.299 102.561 149.087C102.896 144.598 103.219 140.107 103.53 135.616C103.878 130.684 104.234 125.753 104.599 120.823C104.844 117.572 105.144 114.359 105.461 110.957C105.591 109.579 105.721 108.181 105.851 106.754C107.67 106.585 109.459 106.411 111.218 106.234C115.484 105.813 119.514 105.414 123.599 105.152C130.009 104.742 136.536 104.427 142.848 104.122C145.646 103.987 148.444 103.849 151.24 103.709C151.517 103.695 151.795 103.689 152.074 103.682C152.828 103.687 153.582 103.622 154.324 103.487C157.079 102.907 158.794 100.858 158.59 98.39C158.389 95.9706 156.441 94.2242 153.627 93.955Z" fill="black"/>
</g>
<defs>
<clipPath id="clip0_8_2505">
<rect width="162" height="158" fill="white"/>
</clipPath>
</defs>
</svg>
