<svg width="109" height="157" viewBox="0 0 109 157" fill="none" xmlns="http://www.w3.org/2000/svg">
<g clip-path="url(#clip0_6_1906)">
<path d="M59.7024 85.5043V111.177C60.0269 111.023 60.3292 110.826 60.601 110.591C69.7064 99.3681 81.785 93.6068 95.8044 91.3896C97.6874 91.0917 99.5599 90.7254 101.44 90.4051C104.978 89.8085 107.282 91.3608 108.004 94.9568C108.707 98.7209 108.598 102.593 107.683 106.311C105.189 117.389 98.3103 125.266 89.1662 131.384C82.2897 136.075 74.5331 139.322 66.365 140.927C64.2909 141.321 62.1512 141.372 59.623 141.62C59.6807 143.335 59.6102 145.053 59.4123 146.758C58.9928 149.05 58.3751 151.301 57.5661 153.486C57.313 154.186 56.8275 154.778 56.1906 155.163C55.5537 155.549 54.8039 155.704 54.0665 155.602C53.2673 155.567 52.5057 155.253 51.9136 154.716C51.3214 154.178 50.936 153.45 50.8242 152.658C50.3575 150.476 50.0962 148.246 49.8455 146.025C49.7772 144.905 49.7702 143.784 49.8245 142.664C46.7397 142.231 43.9332 142.062 41.2376 141.42C23.8007 137.269 10.5427 127.624 2.42583 111.417C1.46587 109.517 0.756122 107.5 0.314357 105.418C-0.579576 101.063 1.44262 97.4161 5.73507 96.3214C18.808 92.9859 31.5658 93.7439 43.5762 100.359C46.0873 101.741 48.1876 103.87 50.8209 105.924C51.6853 99.3189 51.7508 92.7227 52.2582 86.0326C48.3005 85.5732 44.6054 85.3835 41.0073 84.6878C25.2683 81.6457 14.5359 72.7779 10.5152 56.998C7.61613 45.623 9.69737 34.6863 15.4311 24.5197C18.5018 19.0112 22.5682 14.1206 27.4237 10.0961C32.9612 5.52996 39.5955 3.55172 46.3703 1.8866C56.2488 -0.541857 66.0342 0.270103 75.5806 3.35358C83.183 5.76137 89.5206 11.0851 93.204 18.1579C99.088 29.0531 101.598 40.6906 99.09 52.9294C95.7656 69.151 85.4382 78.9731 69.6959 83.3364C66.4766 84.2356 63.1535 84.7679 59.7024 85.5043ZM49.3874 7.97745C39.9033 7.83896 35.3733 9.52897 28.9976 16.4441C21.4242 24.6556 16.9512 34.3058 16.8075 45.5856C16.6388 58.8298 22.9889 72.2988 39.7176 76.3969C50.3801 79.0105 61.5868 78.3003 71.8343 74.3623C82.9507 70.2273 89.4543 62.0491 91.2743 50.2304C92.6986 40.9833 90.4618 32.3985 86.4968 24.1877C82.9526 16.8419 76.8887 12.3021 69.014 10.6921C62.5569 9.37151 55.9357 8.85169 49.3874 7.97745ZM50.1619 133.942C50.1619 129.745 50.1941 125.513 50.1265 121.283C50.0409 120.627 49.7655 120.011 49.3343 119.51C47.5149 117.094 45.599 114.751 43.7908 112.326C41.064 108.727 37.2832 106.067 32.9744 104.717C26.0519 102.363 18.6958 101.564 11.4294 102.375C10.565 102.522 9.71122 102.726 8.87367 102.986C14.5982 122.049 36.4563 134.746 50.1619 133.942ZM99.9176 98.4276C99.2377 98.3436 98.5531 98.312 97.8686 98.3331C91.1608 99.2349 84.6545 100.813 78.716 104.216C72.2044 107.949 66.4746 112.536 62.6815 119.172C60.2402 123.245 59.1625 127.99 59.6052 132.719C60.5965 132.785 61.5914 132.779 62.5818 132.7C75.8228 130.505 86.9504 124.496 95.1677 113.794C98.5932 109.433 100.285 103.96 99.9176 98.4276Z" fill="black"/>
<path d="M58.8223 65.6889C58.6306 67.3029 58.5184 68.8617 58.2474 70.3922C57.8319 72.7314 56.6433 73.9516 54.9197 73.9916C53.233 74.031 51.9282 72.8555 51.3637 70.5655C50.9653 68.9496 50.7592 67.2838 50.4691 65.6561C47.975 64.7961 45.5466 64.0019 43.1503 63.1054C42.3246 62.7545 41.5425 62.309 40.8196 61.7777C39.3553 60.7932 38.6997 59.3932 39.3422 57.7084C40.0235 55.9225 41.6394 56.1266 43.0774 56.4233C45.4842 56.9195 47.8608 57.5607 50.773 58.2682L51.3722 45.7499C49.7084 45.2248 48.317 44.8257 46.9544 44.3446C39.9067 41.8571 38.9596 36.1141 41.8173 30.5884C43.5638 27.2122 45.7678 25.4034 51.6407 22.3711C51.5842 21.0748 51.5093 19.6552 51.4621 18.2362C51.4135 16.8579 51.9511 15.5143 53.332 15.5137C53.9051 15.572 54.4595 15.7507 54.9589 16.038C55.4582 16.3252 55.8913 16.7147 56.2298 17.1808C57.0049 18.3366 57.1979 19.8823 57.6422 21.2606C59.9755 22.2451 62.362 23.12 64.6086 24.2706C65.017 24.5173 65.3714 24.8436 65.6509 25.2302C65.9305 25.6169 66.1287 26.056 66.235 26.5211C66.4641 27.8088 65.4356 28.5623 64.2174 28.7526C62.2484 29.0657 60.265 29.2647 58.1647 29.5266C58.1043 30.0687 58.0177 30.492 58.0163 30.9154C58.0052 34.1583 58.0104 37.4012 58.0104 40.6665C59.1466 41.0688 59.8547 41.3465 60.58 41.5703C61.8618 41.9674 63.1719 42.2811 64.4399 42.7176C73.2486 45.7492 73.1955 52.2102 69.6368 58.1415C67.7846 61.2263 64.9427 63.2156 61.6741 64.6116C60.7592 65.0061 59.8107 65.3192 58.8223 65.6889ZM58.5296 46.8519V58.2774C61.6059 57.308 63.8735 55.8719 65.1862 53.2137C66.2941 50.9704 65.899 49.5691 63.7002 48.5669C62.0095 47.9012 60.2833 47.3293 58.5296 46.8538V46.8519ZM51.4871 30.8484C47.8838 32.2706 45.9292 34.2068 46.3119 36.2184C46.8133 38.849 49.1341 38.9233 51.4871 39.5192V30.8484Z" fill="black"/>
</g>
<defs>
<clipPath id="clip0_6_1906">
<rect width="108.952" height="156.208" fill="white"/>
</clipPath>
</defs>
</svg>
