<svg width="159" height="157" viewBox="0 0 159 157" fill="none" xmlns="http://www.w3.org/2000/svg">
<g clip-path="url(#clip0_8_2510)">
<path d="M141.206 55.3211C139.182 53.1238 136.64 51.3916 134.182 49.7159C133.693 49.3824 133.208 49.0503 132.723 48.7149C132.11 48.2887 131.296 48.3969 130.36 48.5202C129.929 48.578 129.441 48.6434 128.929 48.6648C128.813 48.6695 128.7 48.7041 128.602 48.7654C128.504 48.8267 128.424 48.9125 128.369 49.0142C128.314 49.116 128.286 49.2303 128.289 49.3459C128.292 49.4615 128.324 49.5746 128.384 49.6738C129.008 50.7118 129.583 51.6984 130.133 52.6385C131.286 54.612 132.375 56.4766 133.561 58.2263C134.644 59.8235 135.833 61.3753 136.984 62.8759C137.828 63.9788 138.701 65.1145 139.519 66.2557C140.113 67.0829 140.783 67.864 141.431 68.6191C142.675 69.9238 143.712 71.412 144.506 73.0313L144.322 73.1676C144.18 73.2746 144.004 73.407 143.98 73.4232C126.958 73.8086 108.906 74.1946 85.4555 74.674C85.4152 74.6513 85.3555 74.6091 85.3133 74.5806L85.192 74.4988C85.081 74.4242 84.9752 74.3425 84.874 74.2549V62.1377C84.874 51.2684 84.8727 40.3791 84.8707 29.47C84.8707 27.6881 84.8649 25.9064 84.8539 24.1249C84.8422 21.4689 84.8299 18.8128 84.8396 16.1859C84.911 16.0405 84.996 15.902 85.0933 15.7721L85.1628 15.6696C85.5457 15.9291 85.9299 16.1795 86.3134 16.4325C87.5231 17.2299 88.7744 18.0544 89.9114 18.9549C94.9844 22.9707 100.765 25.8966 106.355 28.7304C107.821 29.4732 109.288 30.216 110.744 30.9783C111.128 31.2148 111.556 31.3699 112.003 31.434C112.449 31.4982 112.904 31.47 113.34 31.3514C113.707 31.2165 114.044 31.0072 114.327 30.7363C114.61 30.4655 114.834 30.139 114.985 29.7775C115.021 29.704 115.043 29.6248 115.05 29.5433C115.055 29.4901 115.065 29.4363 115.075 29.3831C115.142 29.1211 115.133 28.8454 115.05 28.5883L114.939 28.2963C114.749 27.7227 114.489 27.175 114.164 26.6661C107.048 16.4196 97.265 8.85047 87.7503 2.19611C84.1887 -0.295778 80.6115 -0.189327 77.1258 2.51146C76.7118 2.83195 76.2899 3.14264 75.8681 3.4534C75.0439 4.06064 74.1911 4.68603 73.402 5.38669C72.3299 6.33821 71.2532 7.28372 70.1707 8.22312C66.9466 11.0381 63.6119 13.9491 60.5324 17.0287C56.9631 20.5969 53.5884 24.4577 50.3228 28.192C49.6889 28.9173 49.0545 29.6419 48.4194 30.3659L48.2337 30.5728C47.5198 31.363 46.1849 32.8338 47.8683 34.8592C47.9518 34.9596 48.063 35.0335 48.1881 35.0713C48.3131 35.1091 48.4466 35.1094 48.5718 35.0721C51.1437 34.3059 53.1906 32.68 55.17 31.1081C56.0851 30.3815 57.0307 29.6309 58.0003 28.9912C60.6663 27.2344 63.2381 25.2616 65.7233 23.3523C66.3748 22.8527 67.027 22.3537 67.6799 21.8555C68.7663 21.0302 69.7768 20.1577 70.8456 19.2345C72.4791 17.7652 74.208 16.405 76.0206 15.1623C76.0531 15.3011 76.0855 15.4335 76.1154 15.5607C76.2627 16.0448 76.3438 16.5466 76.3561 17.0527C76.02 23.188 75.7883 29.4291 75.565 35.4639C75.0861 48.3911 74.5916 61.7529 73.034 74.7434C66.4547 76.3063 47.2888 77.4682 20.1867 77.9412C19.0269 77.9405 17.8679 77.8808 16.7141 77.7628C16.352 77.7336 15.9742 77.7031 15.5764 77.6719C15.7927 77.3372 15.9974 77.0167 16.1903 76.7098C16.7977 75.7036 17.4642 74.7343 18.1865 73.8073C22.3037 68.7709 24.8711 62.8728 27.0323 57.25C27.3183 56.3371 27.4498 55.3828 27.4215 54.4265C27.439 53.8965 27.4586 53.297 27.517 52.6424C27.5274 52.5264 27.5071 52.4097 27.4583 52.304C27.4095 52.1982 27.3338 52.1071 27.2388 52.0396C27.1439 51.9721 27.0328 51.9308 26.9169 51.9196C26.801 51.9083 26.6841 51.9276 26.578 51.9754C26.0432 52.2174 25.5545 52.401 25.1222 52.5639C24.3511 52.7837 23.6347 53.163 23.0195 53.6772C15.9592 60.4823 9.40609 67.7939 3.41261 75.5544C-0.373544 80.533 -0.324799 83.8676 3.59893 88.2999C8.57598 93.9208 13.0987 98.6619 17.4261 102.793C19.3607 104.64 21.793 105.964 24.1456 107.245C24.5449 107.461 24.9414 107.678 25.3352 107.896C25.7131 108.14 26.1369 108.304 26.5804 108.378C27.0238 108.452 27.4776 108.434 27.9141 108.327C28.3571 108.166 28.7628 107.917 29.1066 107.595C29.4503 107.273 29.7249 106.884 29.9137 106.452C29.9676 106.349 29.9934 106.233 29.9886 106.117C29.9838 106 29.9486 105.887 29.8864 105.788C29.4795 105.143 29.0713 104.467 28.6534 103.777C27.6564 102.059 26.5712 100.395 25.402 98.7891C24.3163 97.3488 23.0974 95.9916 21.9188 94.6785C21.0498 93.7112 20.1516 92.7108 19.3229 91.6949C18.792 91.0461 18.2009 90.4305 17.6292 89.8381C16.3545 88.6697 15.3038 87.2788 14.5289 85.7334L14.6543 85.7036C15.0215 85.5933 15.4014 85.5304 15.7847 85.5167C27.6266 85.821 39.6276 85.2637 51.2346 84.7233C57.0851 84.4508 63.135 84.1686 69.0856 84.0019C69.9183 84.0045 70.7496 84.072 71.5725 84.2037C71.8256 84.2374 72.0833 84.2718 72.3474 84.3036C72.1494 88.0891 71.9197 91.9109 71.6984 95.6134C70.7782 110.883 69.828 126.657 71.0085 142.861C70.5354 142.54 70.0922 142.234 69.671 141.944C68.2432 140.962 67.0141 140.115 65.7434 139.381C57.9626 134.891 50.0197 130.394 43.1853 126.531C42.0308 125.879 41.0851 125.729 40.2927 126.077C39.5224 126.413 38.9844 127.205 38.695 128.43C38.6727 128.524 38.671 128.621 38.6899 128.715C38.7089 128.809 38.748 128.899 38.8047 128.976C38.9416 129.163 39.0772 129.365 39.2168 129.571C39.5579 130.102 39.94 130.606 40.3596 131.077C48.234 139.599 57.0068 147.244 66.5254 153.881C69.1518 155.703 71.7412 156.614 74.33 156.614C77.1258 156.535 79.8288 155.596 82.071 153.924C87.1584 150.421 92.5508 146.645 97.6394 142.403C100.23 140.124 102.642 137.649 104.853 135C105.523 134.237 106.192 133.475 106.87 132.725C107.366 132.106 107.749 131.403 107.997 130.65C108.117 130.347 108.237 130.041 108.377 129.751C108.445 129.61 108.461 129.45 108.422 129.299C108.385 129.148 108.294 129.015 108.168 128.923C106.23 127.512 104.74 128.214 103.496 128.982C98.5233 132.054 93.5495 135.12 88.5745 138.183L80.25 143.308C80.4084 141.468 80.5674 139.665 80.7244 137.887C81.1599 132.943 81.5681 128.275 81.9133 123.559C82.1574 120.203 82.3475 116.79 82.5318 113.49C82.7122 110.253 82.8985 106.905 83.1354 103.62C83.3301 100.905 83.3697 98.1449 83.4073 95.4746C83.3807 91.5236 83.602 87.5753 84.0693 83.6529C84.2639 83.577 84.4431 83.5004 84.6124 83.4297C84.9376 83.2617 85.2887 83.1494 85.6508 83.0975C104.384 82.6745 122.889 82.2879 144.909 81.837H144.912C144.912 81.8662 144.912 81.8973 144.912 81.9317C144.916 82.0167 144.92 82.1121 144.927 82.221C144.457 82.7245 143.977 83.2435 143.487 83.7735C142.193 85.1729 140.854 86.6203 139.478 88.0476C134.835 92.862 131.225 98.4277 128.015 103.723C127.524 104.535 127.062 105.492 127.361 106.442C127.491 106.786 127.694 107.098 127.957 107.356C128.219 107.614 128.535 107.811 128.883 107.934C129.007 107.99 129.145 108.005 129.278 107.977C129.408 107.953 129.538 107.939 129.668 107.924C130.059 107.907 130.441 107.806 130.788 107.625C140.621 101.768 148.484 93.8754 155.517 86.2161C159.289 82.1108 159.411 77.1581 155.857 72.6272C150.858 66.257 146.064 60.5936 141.206 55.3211Z" fill="black"/>
</g>
<defs>
<clipPath id="clip0_8_2510">
<rect width="159" height="157" fill="white"/>
</clipPath>
</defs>
</svg>
