<svg width="146" height="160" viewBox="0 0 146 160" fill="none" xmlns="http://www.w3.org/2000/svg">
<g clip-path="url(#clip0_8_2883)">
<path d="M144.433 92.8013L144.242 85.5461C144.176 82.9293 143.957 80.2823 143.748 77.7219L143.617 76.1054C143.432 73.7885 142.15 72.5132 140.007 72.5132H139.669C136.355 72.5178 132.93 72.5224 129.558 72.636C126.004 72.7567 122.392 72.9215 118.9 73.081C112.14 73.3895 105.147 73.7084 98.2769 73.7183C87.6718 73.7347 76.8889 73.5778 66.459 73.4282C59.1114 73.3232 51.5129 73.2142 44.0379 73.1656C40.1727 73.1414 36.2537 73.3291 32.462 73.5109C31.3156 73.566 30.1688 73.6198 29.0215 73.671C29.5217 73.44 30.0231 73.2116 30.5311 72.993C37.9114 69.7927 45.2904 66.5891 52.668 63.3825C72.4238 54.8015 92.851 45.9278 112.982 37.2937C123.752 32.675 132.838 29.7379 141.578 28.0498C143.497 27.6797 144.532 26.3479 144.345 24.4885C144.164 23.1911 143.725 21.9431 143.054 20.8182C141.966 18.8308 140.779 16.9 139.495 15.0333C136.434 10.5991 133.306 6.23844 130.924 2.9364C129.399 0.820367 127.486 0.103568 125.245 0.806506C123.726 1.28235 122.168 1.73852 120.663 2.18023C117.821 3.01313 114.887 3.8742 112.051 4.9099C90.3628 12.8418 61.8804 23.5605 33.9054 36.1517C25.0034 40.1586 16.03 44.3979 7.35189 48.4974L4.00458 50.0765C2.1524 50.9508 0.985402 52.1191 0.525963 53.5492C0.0763717 54.9662 0.350043 56.573 1.34045 58.3228C4.29435 63.6728 6.5137 69.3969 7.93859 75.3394C8.08955 75.936 8.28324 76.5208 8.47029 77.0853C8.63175 77.5697 8.79255 78.054 8.92513 78.5456C9.01571 78.8804 9.12204 79.2171 9.22311 79.5538C9.5373 80.407 9.72396 81.3023 9.777 82.2093C9.77371 83.7478 9.67789 85.3223 9.586 86.845C9.47049 88.7451 9.35175 90.7102 9.40623 92.653C9.67992 102.486 10.0691 113.07 10.6289 125.961C10.7602 128.988 10.9571 132.059 11.1448 135.03C11.4041 139.104 11.6699 143.316 11.7775 147.457C11.9501 154.26 13.1434 155.577 19.7547 156.263C20.2141 156.311 20.6775 156.336 21.1396 156.355C25.9965 156.559 30.9394 156.801 35.7182 157.036C46.4959 157.566 57.6398 158.114 68.6124 158.242C83.0322 158.409 97.6921 158.285 111.87 158.163C119.121 158.102 126.619 158.038 133.992 158.014C135.47 158.064 136.936 158.299 138.356 158.71C138.917 158.868 139.496 158.952 140.078 158.958C141.91 158.958 143.267 157.99 144.051 156.099C144.444 155.205 144.675 154.247 144.733 153.271C144.794 151.486 144.868 149.701 144.941 147.915C145.151 142.821 145.369 137.554 145.3 132.367C145.128 119.176 144.775 105.768 144.433 92.8013ZM14.7579 73.1295L7.0421 55.7078L28.1 46.5388L26.3988 67.252L14.7579 73.1295ZM136.201 79.0858L135.535 149.7C123.62 150.319 111.762 150.342 100.29 150.365L97.0424 150.372C84.8515 150.403 72.7579 150.236 58.3448 149.978C49.3457 149.818 40.5298 149.584 31.1966 149.333C27.3282 149.23 23.4289 149.128 19.4987 149.026L19.011 144.27C16.9048 123.786 14.7278 102.61 15.3355 81.4729C15.6525 81.4296 15.9709 81.383 16.2912 81.3371C17.3676 81.1822 18.4814 81.0213 19.5775 80.9524C36.5478 79.8865 53.7898 80.2646 69.9947 80.7437C81.3999 81.0811 93.8197 81.1172 109.087 80.8599C114.456 80.7687 119.899 80.3348 125.162 79.9121C127.494 79.7257 129.907 79.5328 132.277 79.3726C133.247 79.307 134.217 79.2341 135.29 79.1534L136.201 79.0858ZM79.1001 43.4469L59.6463 52.077L60.0401 47.7675C60.4687 43.0419 60.873 38.5879 61.2641 34.132C61.26 33.6418 61.4181 33.164 61.7139 32.773C62.0095 32.382 62.4263 32.0996 62.8991 31.9701C67.7178 30.1008 72.4743 28.1869 77.5098 26.1601C78.9773 25.5699 80.4652 24.9724 81.9728 24.3677C81.6539 25.9862 81.2876 27.5766 80.9306 29.1236C79.8227 33.9017 78.7798 38.4238 79.1007 43.4488L79.1001 43.4469ZM86.0776 40.259C86.2456 39.0899 86.4097 37.9405 86.5698 36.8112C87.2616 31.9543 87.9147 27.3653 88.6485 22.8195C88.7456 22.526 88.8998 22.2548 89.1026 22.0218C89.3055 21.7888 89.5529 21.5984 89.8299 21.4621C94.627 19.5449 99.4072 17.7145 104.466 15.777L107.966 14.4354C107.919 14.8626 107.848 15.2866 107.754 15.706L107.265 17.6993C106.144 22.2786 104.985 27.0141 103.758 31.6459C103.578 32.2677 103.169 32.7983 102.614 33.1311C98.3399 35.0345 94.0061 36.8815 89.4183 38.8361L86.0776 40.259ZM113.184 28.5683L115.787 11.558C118.395 10.1456 121.948 9.31467 125.093 8.64455C125.49 8.58174 125.896 8.66385 126.237 8.87611L126.914 9.72488C129.813 13.3544 132.806 17.1013 134.801 21.6406L113.184 28.5683ZM33.1466 62.0861C33.2276 59.7955 33.315 57.5053 33.4091 55.2156C33.5292 52.2384 33.6493 49.2607 33.7438 46.2822C33.7911 44.7727 33.8798 43.9634 35.2535 43.4121C39.5853 41.6656 43.9551 39.8114 48.1833 38.0176C50.1821 37.1692 52.1819 36.3236 54.1828 35.4809C54.223 35.4649 54.2649 35.4537 54.3076 35.4474L51.5103 55.675L33.253 63.9154C33.2484 63.8629 33.243 63.8104 33.2384 63.7585C33.1738 63.203 33.1443 62.644 33.1499 62.0848L33.1466 62.0861Z" fill="black"/>
<path d="M120.739 119.821C120.726 119.145 120.713 118.446 120.654 117.754C120.549 116.539 120.448 115.324 120.353 114.107C120.048 110.349 119.734 106.462 119.227 102.657C118.731 98.9289 117.096 97.4935 113.194 97.3596C111.97 97.3176 110.747 97.269 109.524 97.2204C106.533 97.1023 103.441 96.9796 100.393 96.9579C85.9073 96.843 70.9238 96.7243 55.9452 96.7505C52.8761 96.7558 49.7664 96.929 46.7564 97.0964C44.6909 97.2113 42.5558 97.3301 40.4555 97.3931C37.9011 97.4692 36.2622 98.6657 35.5842 100.948C35.1908 102.176 34.9935 103.458 34.9994 104.746C35.1083 108.918 35.3007 113.432 35.5901 118.548C35.7214 120.908 35.8993 123.44 36.2964 125.978C36.8779 129.699 38.9578 131.848 42.655 132.541C44.9947 133.02 47.367 133.322 49.7519 133.445C57.945 133.722 66.2763 133.943 74.3335 134.157C77.2456 134.233 80.1578 134.311 83.07 134.39L83.7178 134.409L83.7263 134.199C85.9329 134.199 88.1389 134.2 90.3455 134.205C97.686 134.214 105.277 134.223 112.744 134.143C113.734 134.132 116.178 133.968 117.487 132.678C120.42 129.791 121.58 126.443 120.937 122.734C120.796 121.769 120.73 120.796 120.739 119.821ZM112.916 126.101C105.637 127.429 50.3381 127.245 43.5981 125.857L41.2353 104.037C61.9034 103.142 86.3648 102.481 111.807 104.164C112.327 108.11 112.555 112.088 112.488 116.067C112.456 119.416 112.599 122.766 112.916 126.101Z" fill="black"/>
<path d="M105.637 117.345C104.79 116.96 103.851 116.821 102.929 116.946C102.725 116.953 102.522 116.961 102.328 116.962C100.555 116.973 98.7833 117.003 97.0152 117.033C95.0823 117.064 93.1493 117.098 91.2164 117.104C87.1084 117.121 82.9997 117.133 78.8917 117.138C72.6663 117.151 66.229 117.164 59.8973 117.209C58.2807 117.248 56.6671 117.369 55.0628 117.571C54.6414 117.619 54.2202 117.663 53.7993 117.707C53.4068 117.732 53.0246 117.842 52.6788 118.03C52.333 118.217 52.0319 118.476 51.7961 118.791C51.6231 119.047 51.5088 119.339 51.4614 119.644C51.4139 119.95 51.4346 120.262 51.5218 120.558C51.7935 121.546 52.7741 122.292 53.6713 122.913C54.1576 123.175 54.719 123.261 55.261 123.156C55.41 123.144 55.5576 123.132 55.6954 123.132C62.0317 123.132 68.3667 123.132 73.9862 123.132H77.8855L84.5762 123.455C90.568 123.748 96.2269 124.023 101.778 124.243C102.031 124.254 102.297 124.261 102.573 124.261C103.747 124.305 104.916 124.094 106.001 123.644C107.043 123.153 108.22 121.544 108.056 120.435C107.874 119.198 106.674 117.966 105.637 117.345Z" fill="black"/>
<path d="M55.5672 113.661L58.1269 114.009C61.3193 114.444 64.6194 114.894 67.883 115.228C68.198 115.261 68.515 115.277 68.8321 115.276C69.9373 115.265 71.0367 115.106 72.1 114.803C73.0188 114.545 73.7054 113.353 73.8439 112.592C73.9928 111.773 73.2046 110.775 72.5784 110.37C71.8204 109.924 70.9704 109.658 70.0935 109.59C67.9933 109.377 65.8497 109.206 63.78 109.041C62.9872 108.978 62.1947 108.914 61.4027 108.85L60.7825 108.799L60.7628 108.944C60.3808 108.944 59.9988 108.94 59.6168 108.935C58.0836 108.921 56.4979 108.907 54.9338 108.995C54.227 109.034 52.8447 109.819 52.8467 110.673C52.9466 111.543 53.3201 112.358 53.9132 113.002C54.3629 113.421 54.9529 113.655 55.5672 113.661Z" fill="black"/>
</g>
<defs>
<clipPath id="clip0_8_2883">
<rect width="145.707" height="159.49" fill="white"/>
</clipPath>
</defs>
</svg>
