<svg width="155" height="157" viewBox="0 0 155 157" fill="none" xmlns="http://www.w3.org/2000/svg">
<g clip-path="url(#clip0_6_2093)">
<path d="M127.724 2.66605C121.645 1.47955 115.499 0.665287 109.321 0.227784C104.113 -0.225746 99.6769 0.227768 95.7599 1.60608C92.5872 2.72185 90.2933 4.78667 89.3022 7.41134C88.321 10.0072 88.6675 13.025 90.2775 15.9096C90.4088 16.1459 90.5315 16.3881 90.6884 16.6972L90.7009 16.7216C89.3495 17.3933 88.153 18.3399 87.1888 19.5006C86.224 20.6613 85.5125 22.0105 85.0997 23.4621C84.1644 26.6125 84.8299 29.4768 87.1343 32.2157C85.3517 33.5474 83.5317 35.2145 83.3276 37.9259C83.1753 40.0419 83.7168 42.1499 84.8686 43.9313C84.9047 43.993 84.9408 44.0553 84.975 44.1151C84.2438 44.1702 83.4214 44.2241 82.6043 44.2786C81.7432 44.335 80.888 44.3915 80.1404 44.4486C76.1879 44.7511 72.0996 45.0642 68.0382 45.4816C62.5564 46.0448 57.6641 46.7405 53.31 49.5634C50.9209 51.1117 49.6375 53.3898 49.7892 55.8136C49.9401 58.227 51.4958 60.3195 54.0477 61.5547C55.7459 62.3382 57.576 62.7958 59.4432 62.9034C64.0317 63.2014 69.3653 63.5151 74.6173 63.4665C80.4955 63.4121 86.2929 63.2277 92.4848 63.0315C94.7019 62.9606 96.9472 62.8914 99.2221 62.824L99.167 62.9034C98.7594 63.4902 98.4312 63.9634 98.1168 64.4458C95.4147 68.6608 94.2464 73.6772 94.8076 78.6522C95.1272 82.1308 96.7109 84.4116 99.5227 85.4322C100.61 85.8437 101.76 86.0616 102.923 86.0774C104.8 86.0747 106.612 85.3948 108.028 84.1622C108.956 83.3457 109.823 82.4616 110.619 81.5171L111.115 80.9599C114.804 76.8519 118.317 74.0428 122.17 72.1184C126.174 70.1198 130.162 67.9552 134.021 65.8622L136.166 64.6999C140.684 62.2563 146.282 58.6352 149.501 52.2694C151.383 48.5486 153.202 44.4938 153.761 40.0615C155.156 28.995 152.567 19.9382 145.846 12.3746C141.528 7.5157 135.6 4.33906 127.724 2.66605ZM108.213 63.4167C110.075 63.1075 111.081 61.9858 110.969 60.3397C110.856 58.6208 109.628 57.5648 107.6 57.4421C106.567 57.3999 105.531 57.4161 104.499 57.4906C103.851 57.5261 103.179 57.5628 102.52 57.5655C99.1643 57.5819 95.8072 57.5779 92.4507 57.576H92.0851C91.9978 57.5819 83.281 58.1667 81.0888 58.1365C74.3325 58.0249 67.3464 57.9093 60.4534 57.7374C58.957 57.7371 57.4734 57.4622 56.0763 56.9262C55.0918 56.5147 54.5116 55.9095 54.4893 55.2656C54.4683 54.6486 54.9751 54.035 55.8795 53.5828C57.8875 52.498 60.0738 51.7821 62.3346 51.4693C66.9716 50.983 71.7097 50.6752 76.2916 50.3772C78.2337 50.2512 80.1758 50.1252 82.116 49.9835C85.6996 49.7262 89.2819 49.4575 92.8622 49.1774L93.1044 49.1603C95.8538 49.1603 96.4878 47.3706 96.4996 46.6814C96.516 45.7625 96.1524 44.2825 95.0826 43.9602L94.9946 43.9339C93.2251 43.4458 91.5075 42.7863 89.8667 41.9649C89.2274 41.6226 88.741 41.0515 88.5048 40.3661C88.2685 39.6805 88.3 38.9312 88.5927 38.2678L88.6367 38.1818C89.1014 37.2695 89.5405 36.4097 90.4534 36.1018C91.6591 35.789 92.9068 35.6713 94.1499 35.7533C94.4125 35.7533 94.6704 35.7573 94.9257 35.7573H95.0859C96.4642 35.7573 98.3511 35.7527 98.6176 33.4975C98.8703 31.3605 97.133 30.8912 95.9549 30.5722C95.8164 30.5348 95.6772 30.4967 95.5394 30.456L94.8174 30.2473C93.6833 29.9596 92.578 29.57 91.5147 29.083C90.9844 28.8679 90.5086 28.5389 90.1194 28.1193C89.7308 27.6996 89.4394 27.1995 89.2655 26.6545C89.022 25.6451 89.3541 24.4841 90.2263 23.2961C90.7534 22.5979 91.432 22.0286 92.2111 21.6314C92.9902 21.2341 93.8493 21.0191 94.7242 21.0028C95.118 20.9726 95.5368 20.9706 95.9391 20.9693C96.8101 21.008 97.6823 20.9177 98.527 20.7016C99.0626 20.5245 99.5542 20.235 99.969 19.8524C100.384 19.4698 100.711 19.0029 100.931 18.4832C101.229 17.5827 100.286 16.3093 99.6185 15.718C99.0613 15.2588 98.4516 14.8675 97.8024 14.5523C97.427 14.3515 97.0385 14.1434 96.6945 13.913C95.1147 12.8517 93.8277 11.8187 94.0803 9.90943C94.3134 8.15373 95.7553 7.55712 97.4277 6.86599C100.808 5.46799 104.618 4.96714 109.078 5.33075C113.804 5.71536 118.555 6.38092 123.413 7.08646C128.348 7.85752 133.058 9.68536 137.221 12.4449C141.368 15.1194 144.253 19.2602 146.042 25.1029C148.95 34.6028 147.408 43.804 141.461 52.4499C140.606 53.7949 139.47 54.9395 138.132 55.8058C132.873 58.8905 127.204 62.1493 121.396 65.091C113.66 69.0093 108.473 73.0327 104.578 78.135C104.137 78.708 103.606 79.2068 103.007 79.6105C102.739 79.8389 102.423 80.0036 102.083 80.0916C101.742 80.1802 101.386 80.19 101.041 80.1205C100.709 79.9629 100.417 79.7326 100.187 79.4457C99.9572 79.1589 99.7951 78.8242 99.7137 78.4658C99.4151 77.6953 99.2549 76.8775 99.2392 76.0512C99.3041 71.5507 102.197 64.4156 108.215 63.4167H108.213Z" fill="black"/>
<path d="M99.7761 93.7789C98.2508 93.2072 96.65 92.8606 95.0242 92.751L94.3725 92.711C89.9475 92.4399 85.3721 92.1597 80.8624 92.1997C75.8598 92.2424 70.7771 92.4156 65.8375 92.5843C63.4401 92.6664 61.0419 92.7484 58.6436 92.8154C57.7293 92.8416 56.8201 92.8357 55.766 92.8285H55.2523C55.5536 92.4242 55.7884 92.1065 56.0128 91.7783C58.9062 87.5482 60.219 82.4354 59.7207 77.335C59.4365 73.6142 57.8742 71.2901 54.9463 70.2288C51.6173 69.0218 48.6638 69.5318 46.1684 71.7443C45.3775 72.4754 44.6323 73.2539 43.9369 74.0763C43.7444 74.2948 43.5517 74.5127 43.3588 74.7293C39.6833 78.8281 36.1679 81.6353 32.2994 83.5649C27.541 85.9382 22.8331 88.4442 18.3077 91.0124L17.2924 91.5847C14.0908 93.3824 10.7796 95.2412 8.43187 98.3142C0.219094 109.072 -1.79002 120.789 2.45911 133.141C4.39677 139.099 8.32614 144.208 13.5868 147.61C18.0733 150.591 23.1539 152.562 28.4771 153.386L30.2798 153.644C35.0487 154.33 39.9805 155.038 44.865 155.435C46.3463 155.555 47.6953 155.612 48.9889 155.612C52.5462 155.692 56.0852 155.083 59.4115 153.82C60.7494 153.373 61.9686 152.629 62.9777 151.643C63.9869 150.657 64.7596 149.456 65.2381 148.129C65.7168 146.802 65.8881 145.384 65.7404 143.981C65.5923 142.578 65.1288 141.227 64.384 140.029L63.7841 138.936C65.1421 138.267 66.3442 137.321 67.3123 136.158C68.2804 134.995 68.9926 133.64 69.4021 132.184C70.3144 129.113 69.6423 126.191 67.4062 123.493C71.8621 119.545 72.3432 117.086 69.6771 111.586C71.2248 111.463 72.7593 111.343 74.28 111.228C78.4806 110.906 82.4462 110.601 86.484 110.189C91.5968 109.664 96.5476 108.974 100.914 106.284C103.014 104.988 105.115 103.235 104.686 100.059C104.558 98.6509 104.026 97.31 103.156 96.1962C102.285 95.0824 101.112 94.2429 99.7761 93.7789ZM63.1021 106.336C62.1563 106.316 61.2138 106.455 60.3139 106.747C59.4325 107.091 58.0862 108.084 57.9956 109.126C57.9103 110.104 58.8976 111.17 59.741 111.892C60.1648 112.206 60.652 112.425 61.169 112.532C61.4597 112.6 61.7422 112.7 62.0112 112.83L62.6111 113.159C63.6727 113.679 64.673 114.316 65.5935 115.058C65.9708 115.336 66.2694 115.707 66.4591 116.136C66.6488 116.564 66.7229 117.036 66.675 117.502C66.5543 117.942 66.3206 118.344 65.9964 118.666C65.6728 118.988 65.2701 119.22 64.8288 119.339C63.7526 119.665 62.6378 119.845 61.5138 119.874C61.12 119.902 60.7306 119.931 60.3454 119.97C60.0591 119.986 59.7719 119.979 59.4868 119.948C58.9474 119.867 58.3967 119.904 57.8729 120.056C57.0892 120.342 55.9533 121.225 55.95 122.073C55.9684 122.598 56.1138 123.11 56.3743 123.566C56.6348 124.022 57.0023 124.408 57.445 124.69C58.2695 125.052 59.1266 125.335 60.0047 125.534C60.6665 125.69 61.318 125.888 61.9554 126.125C64.0262 126.947 65.3744 127.642 65.2484 129.734C65.1826 130.798 64.7827 131.815 64.1059 132.639C63.4289 133.462 62.5095 134.051 61.4782 134.322C60.428 134.545 59.3593 134.667 58.286 134.688C57.8213 134.713 57.3577 134.737 56.8976 134.776C55.474 134.899 53.919 135.186 53.4845 137.047C53.035 138.983 54.5073 139.828 55.585 140.445L56.1279 140.755C56.8395 141.142 57.5282 141.569 58.1902 142.035C59.8218 143.239 60.6388 144.547 60.4918 145.721C60.35 146.852 59.2954 147.872 57.5226 148.592C55.744 149.408 53.8406 149.918 51.8925 150.102C38.7795 150.627 29.0276 149.029 20.278 144.922C14.7582 142.331 11.0092 137.994 8.81576 131.664C5.16851 121.132 6.83546 111.27 13.771 102.353C15.6146 99.9819 18.5491 98.3056 21.3884 96.6838C21.763 96.4698 22.135 96.2572 22.5043 96.0452C25.4139 94.3597 28.4823 92.818 31.4588 91.3196C33.114 90.4886 34.8258 89.6295 36.5185 88.7395C41.2866 86.2651 45.5072 82.8554 48.929 78.7139L49.0184 78.6043C49.6486 77.7819 50.3573 77.0226 51.1345 76.3373C51.6486 75.8503 52.3101 75.5491 53.0147 75.4802C53.1392 75.4795 53.2631 75.4959 53.383 75.5294C53.9875 75.7007 54.4947 76.3314 54.8498 77.3547C55.068 77.9303 55.2007 78.5354 55.2437 79.1497C55.4248 83.792 52.3926 91.1187 46.4357 92.2207C43.7604 92.7156 43.389 94.3013 43.5479 95.5438C43.6712 96.5073 44.2948 98.1415 47.0744 98.2603C48.2912 98.3142 49.5167 98.2485 50.765 98.1822C51.3426 98.1507 51.9212 98.1166 52.4988 98.1015C54.538 98.0359 56.5768 97.9604 58.6161 97.8829L58.7683 97.877C63.5503 97.6946 68.4957 97.5062 73.3546 97.499C80.4542 97.499 87.878 97.7615 94.4283 97.9958L95.5513 98.0359C97.8537 98.1192 99.5018 98.6226 100.039 100.784C98.9301 102.54 97.0576 103.147 95.5408 103.483C92.3982 104.209 89.2071 104.711 85.993 104.986C81.0134 105.364 75.9392 105.642 71.0016 105.905C68.6079 106.036 66.2136 106.17 63.82 106.307C63.5811 106.319 63.3424 106.327 63.1021 106.336Z" fill="black"/>
</g>
<defs>
<clipPath id="clip0_6_2093">
<rect width="154.239" height="156.208" fill="white"/>
</clipPath>
</defs>
</svg>
