<svg width="140" height="156" viewBox="0 0 140 156" fill="none" xmlns="http://www.w3.org/2000/svg">
<g clip-path="url(#clip0_8_2514)">
<path d="M10.6296 151.273C14.4341 154.173 19.0581 155.76 23.8212 155.802C27.4103 155.759 30.9463 154.921 34.1811 153.348C41.6114 149.865 45.3973 143.589 45.4347 134.692C45.4377 134.048 45.4424 133.404 45.4489 132.759C45.4572 131.839 45.4656 130.919 45.4656 129.999V115.932C45.4656 103.874 45.4695 91.8169 45.4772 79.7599C45.479 79.5066 45.4937 79.2534 45.5212 79.0021C46.4696 78.6209 47.3978 78.2704 48.2952 77.931C50.3523 77.2064 52.3608 76.3475 54.3082 75.3606C64.5663 69.864 74.9727 64.2374 85.0379 58.7964C94.8702 53.4813 105.038 47.9847 115.053 42.6141C118.058 41.0039 121.103 39.5965 124.328 38.107C125.501 37.5646 126.682 37.0195 127.868 36.4602V91.4847C127.559 91.2308 127.255 90.9801 126.955 90.7321C125.66 89.6075 124.291 88.5729 122.858 87.6356C117.116 84.0633 111.121 83.9569 105.524 87.3256C98.1605 91.7595 93.7934 98.7253 92.8953 107.47C91.7889 118.262 97.6985 126.903 107.605 128.972C117.173 130.97 126.315 128.151 132.675 121.231C138.599 114.789 140.964 106.082 138.844 98.5073C138.643 97.5863 138.567 96.6425 138.617 95.7006C138.617 95.4754 138.617 95.2515 138.617 95.0283C138.548 86.1892 138.482 77.3494 138.417 68.5096C138.277 49.6497 138.126 30.7897 137.965 11.9296C138.002 9.52764 137.731 7.13105 137.157 4.80008C136.734 3.28707 135.386 1.39277 133.946 0.969807C131.034 0.114745 127.566 -0.490788 123.939 1.49217C115.27 6.227 105.962 11.038 96.2721 15.7918C74.5721 26.437 57.4979 35.9001 42.5482 45.5702C41.3747 46.3293 40.058 48.1016 39.976 49.6427C39.1631 65.1291 38.4275 81.4478 37.7907 98.147C37.6494 101.843 37.6843 105.553 37.7211 109.481C37.736 111.048 37.7514 112.66 37.756 114.323L36.7322 113.916C35.7057 113.509 34.9638 113.215 34.2367 112.884C33.4663 112.534 32.6881 112.133 31.9372 111.746C30.4416 110.915 28.8727 110.227 27.2508 109.69C18.6263 107.145 11.7212 108.683 6.72505 114.259C4.47706 116.904 2.78805 119.984 1.76237 123.314C0.736677 126.643 0.395997 130.15 0.761232 133.618C1.12646 137.085 2.18997 140.441 3.88607 143.476C5.58218 146.512 7.87499 149.164 10.6231 151.269L10.6296 151.273ZM37.7605 131.273C37.7676 131.729 37.774 132.162 37.7495 132.592C37.2431 141.268 33.4166 145.712 25.3437 147.01C18.8663 148.043 12.0637 143.664 9.52176 136.809C7.30692 130.84 8.10699 124.938 11.8986 119.266C13.7663 116.472 16.512 115.118 20.4056 115.118C23.772 115.137 27.0878 115.949 30.0915 117.486C36.3334 120.554 38.7714 124.691 37.7631 130.509C37.7566 130.547 37.7534 130.586 37.7534 130.625C37.7534 130.84 37.7567 131.057 37.7605 131.273ZM45.7605 71.9508V50.2425L128.386 8.60424V25.7107L45.7605 71.9508ZM128.507 111.92C127.12 115.439 123.904 117.323 121.451 118.283C119.442 119.067 117.308 119.675 115.244 120.261C114.348 120.516 113.451 120.77 112.56 121.04C105.151 120.449 100.479 115.307 100.921 108.211C101.065 105.397 101.818 102.651 103.128 100.166C104.437 97.6803 106.271 95.5165 108.499 93.8279C110.193 92.4076 112.314 91.6146 114.513 91.5793C115.965 91.5904 117.394 91.9383 118.691 92.5969C125.454 95.9304 128.53 100.005 128.66 105.81C128.675 106.38 128.717 106.965 128.76 107.554C128.873 109.096 128.99 110.691 128.506 111.92H128.507Z" fill="black"/>
</g>
<defs>
<clipPath id="clip0_8_2514">
<rect width="140" height="156" fill="white"/>
</clipPath>
</defs>
</svg>
