<svg width="129" height="149" viewBox="0 0 129 149" fill="none" xmlns="http://www.w3.org/2000/svg">
<g clip-path="url(#clip0_8_2512)">
<path d="M26.8829 32.7641C26.8509 32.8322 26.8303 32.9051 26.822 32.9798C26.8 33.18 26.7708 33.3977 26.7397 33.6277C26.6445 34.2423 26.5856 34.8619 26.5634 35.4835C26.359 46.5173 26.1584 57.552 25.9618 68.5872C25.7691 79.2647 25.5746 89.9422 25.3784 100.62C25.3544 101.952 25.2786 103.283 25.206 104.571C25.1814 105.006 25.1567 105.436 25.1346 105.855C14.2442 110.146 5.93763 118.258 1.71628 128.739C0.555931 131.62 -0.417725 134.759 0.308305 138.186C0.695166 140.041 1.4735 141.793 2.59131 143.324C3.70912 144.855 5.14072 146.131 6.79069 147.066C8.99316 148.326 11.4886 148.984 14.0264 148.975C15.6382 148.974 17.2398 148.717 18.7716 148.216C23.7287 146.596 27.5513 143.309 30.4586 138.16C33.4331 132.807 35.0114 126.792 35.0482 120.669C35.152 114.843 35.2697 109.017 35.4015 103.191C35.6523 91.4924 35.9116 79.3955 35.9849 67.495C36.0186 62.1785 35.7341 56.7823 35.4599 51.5634C35.2985 48.5076 35.1358 45.348 35.032 42.2436C35.0014 41.6361 34.9389 41.0308 34.8446 40.4298C34.6385 38.9483 34.4434 37.5451 35.196 36.0985C60.8754 28.8642 87.1898 19.9571 115.601 8.88123C115.662 10.8539 115.586 12.6977 115.513 14.4889C115.472 15.4931 115.432 16.4814 115.416 17.4687C115.36 20.8996 115.3 24.33 115.233 27.7596C115.047 37.8929 114.854 48.3702 114.865 58.6778C114.872 64.5491 115.114 70.5119 115.348 76.2789C115.478 79.4454 115.607 82.7195 115.702 85.9392C115.715 87.1066 115.666 88.2747 115.557 89.4375C115.523 89.891 115.488 90.3445 115.46 90.7979C114.913 91.1432 114.376 91.482 113.85 91.815C112.508 92.6604 111.24 93.4605 109.981 94.2962C103.629 98.59 98.3137 104.245 94.4229 110.85C90.3202 117.647 90.1056 124.459 93.7857 131.097C97.786 138.314 105.26 140.884 112.824 137.64C116.41 136.084 119.515 133.6 121.819 130.444C124.93 126.273 126.817 121.293 127.749 114.771C128.981 106.166 128.754 97.4647 128.371 90.0879C128.178 86.3487 127.977 82.6088 127.769 78.8689C127.305 70.3649 126.825 61.5715 126.478 52.921C126.082 43.0605 125.787 33.033 125.502 23.3298C125.369 18.7989 125.232 14.268 125.092 9.73753L125.065 8.7917C125.032 7.56083 125 6.29457 124.866 5.04297C124.63 2.82417 123.434 1.23169 121.584 0.675205C121.47 0.640618 121.35 0.637172 121.234 0.665397C120.034 0.958214 118.927 1.22142 117.885 1.46759C115.76 1.9716 113.925 2.40623 112.089 2.91413C106.74 4.39441 101.312 5.93177 96.0636 7.41915L89.7018 9.21875C71.2522 14.4247 52.9195 20.279 35.2128 26.618C32.1635 27.7109 28.709 28.9484 26.8829 32.7641ZM25.5184 113.964C25.7786 114.56 25.9532 115.189 26.037 115.834C26.4143 121.908 24.8684 127.948 21.6186 133.096C20.4465 135.088 18.67 136.654 16.5468 137.57C14.6915 138.354 13.2265 138.118 11.9482 136.822C11.1372 134.568 11.9481 132.546 12.936 130.506C15.0221 126.179 20.9244 118.364 25.4711 113.837C25.4866 113.88 25.5022 113.922 25.5184 113.964ZM109.317 125.464C108.172 126.417 107.038 126.796 106.038 126.566C104.983 126.319 104.079 125.409 103.424 123.935C102.527 122.065 102.406 119.914 103.09 117.955L103.214 117.589C103.426 116.899 103.694 116.227 104.017 115.581C106.811 110.394 110.814 106.095 115.449 101.117L115.52 101.04C116.148 109.157 115.312 115.404 112.85 121.136C112.01 122.823 110.803 124.302 109.317 125.464Z" fill="black"/>
</g>
<defs>
<clipPath id="clip0_8_2512">
<rect width="129" height="149" fill="white"/>
</clipPath>
</defs>
</svg>
