<svg width="157" height="127" viewBox="0 0 157 127" fill="none" xmlns="http://www.w3.org/2000/svg">
<g clip-path="url(#clip0_8_2518)">
<path d="M5.40459 100.18C6.74549 100.552 8.13092 100.742 9.52303 100.744C15.6421 100.715 22.8343 100.373 29.9038 98.0817C30.4657 98.4557 31.0105 98.8238 31.5438 99.1848C32.8588 100.074 34.1013 100.914 35.3942 101.699C50.8996 111.101 67.4877 118.272 86.0072 126.013C86.5295 126.251 87.0932 126.383 87.6667 126.405C88.0547 126.411 88.4368 126.31 88.7696 126.111C89.4657 125.687 89.8492 124.861 89.9439 123.573C89.9692 122.886 90.0671 122.203 90.2371 121.537C93.7047 110.09 95.7094 100.622 96.545 91.7401C96.8642 88.3356 97.2548 84.8763 97.6323 81.5305C98.3019 75.6086 98.9947 69.4848 99.3191 63.4334C100.214 46.7925 99.0596 29.9331 97.945 13.6294C97.8069 11.6043 97.67 9.57893 97.5337 7.55338C97.4474 6.07065 97.1899 4.60273 96.7656 3.17862C96.6333 2.65812 96.3919 2.17143 96.0558 1.75077C95.7204 1.33011 95.2988 0.985058 94.8193 0.738517C94.2783 0.517834 93.697 0.413322 93.1124 0.431765C92.5285 0.450208 91.9544 0.591201 91.4289 0.845545C90.494 1.23235 89.5248 1.59147 88.5873 1.94153C87.6842 2.27869 86.7812 2.6158 85.8891 2.9781C84.6922 3.46418 83.4887 3.93997 82.2872 4.41445C79.1083 5.67026 75.8256 6.9686 72.6895 8.4681C67.8795 10.7676 62.9296 13.3883 57.9776 16.2558C50.3982 20.6453 43.0002 25.0349 35.1671 29.683C32.0401 31.5383 28.8805 33.4108 25.6882 35.3006C25.1329 35.2826 24.7195 35.2974 24.4613 35.3135C22.9043 35.4109 21.3415 35.4952 19.7806 35.5803C15.8627 35.7931 11.8116 36.013 7.84313 36.4288C4.17506 36.8117 2.30339 38.7174 1.774 42.606C1.623 43.8344 1.54238 45.0702 1.53261 46.3077C1.33237 56.662 1.1362 67.0157 0.943729 77.3698L0.638672 93.5626C0.539483 95.0434 0.960337 96.5126 1.82944 97.7194C2.69854 98.9263 3.96218 99.7959 5.40459 100.18ZM84.5793 116.286C84.6442 116.876 84.6805 117.47 84.7246 118.163C77.9451 112.923 70.3299 107.146 62.0051 102.803C56.1923 99.7734 50.3778 96.679 44.7544 93.6948C42.4409 92.466 40.1544 91.2528 37.8946 90.055C37.9406 87.4531 38.0034 84.8886 38.065 82.3505C38.2148 76.2481 38.3565 70.4841 38.2598 64.6221C38.1664 58.7447 37.8412 52.982 37.4973 46.8815C37.3546 44.337 37.2102 41.7692 37.0811 39.1674C37.4484 38.9015 37.829 38.6543 38.2215 38.4266C42.3614 36.0968 46.5034 33.771 50.6477 31.4494C60.2403 26.0689 70.1593 20.506 79.8693 14.9515C82.1678 13.5787 84.3885 12.0799 86.5197 10.4621C87.2522 9.92828 88.0015 9.38102 88.769 8.83498C88.8008 9.19941 88.8124 9.5652 88.8047 9.93092C88.6269 14.5059 88.4569 19.0813 88.2934 23.6572C87.8763 35.0717 87.4455 46.875 86.8525 58.4694C86.2563 70.1379 85.3961 82.8127 84.1459 98.357C83.7262 104.334 83.8708 110.336 84.5793 116.285V116.286ZM29.3698 88.3073L29.2937 88.353C29.0528 88.5335 28.7753 88.6605 28.4803 88.7237C23.7242 88.7695 18.8839 88.7572 14.2018 88.7444L11.5523 88.7373C11.4443 88.7244 11.3374 88.7031 11.233 88.6728L11.1959 88.6638C11.181 88.5767 11.1656 88.4884 11.15 88.3995C11.0455 87.8792 10.9805 87.3525 10.9555 86.8226C10.869 82.7554 10.7887 78.6881 10.7147 74.6196C10.607 68.8846 10.49 63.1495 10.3638 57.4141C10.3132 55.2519 10.1873 53.0593 10.0666 50.9397C9.99462 49.6858 9.92319 48.4319 9.8661 47.1767C9.8369 46.543 9.84469 45.8938 9.85247 45.2086C9.85247 45.068 9.85559 44.9268 9.85688 44.7831L28.3383 43.6871C27.5922 57.0312 27.1705 72.6727 29.3685 88.3079L29.3698 88.3073Z" fill="black"/>
<path d="M154.881 77.1667C151.871 73.6417 148.756 70.1069 145.744 66.6889L143.554 64.2014C143.093 63.6773 142.603 63.1699 142.21 62.7683L143.55 61.3165C144.768 59.9975 145.935 58.7327 147.097 57.462C147.727 56.7744 148.362 56.0883 149 55.4036C150.598 53.6843 152.252 51.9063 153.779 50.0645C156.223 47.1177 156.574 44.4184 154.742 42.6604C153.686 41.6456 151.329 40.4827 147.418 44.1044C146.744 44.7278 146.088 45.3706 145.433 46.0133C145.059 46.3795 144.686 46.7456 144.309 47.1092L134.694 56.3448C134.564 56.2443 134.434 56.1463 134.304 56.0515C133.776 55.6512 133.32 55.305 132.891 54.9336C131.147 53.42 129.405 51.9032 127.666 50.3836C124.99 48.0499 122.308 45.7215 119.621 43.3985C118.449 42.3289 117.18 41.3704 115.83 40.5356C114.901 39.9415 113.795 39.6824 112.696 39.8019C111.598 39.9214 110.574 40.4121 109.796 41.1919C108.438 42.6694 108.344 44.7949 109.541 46.8785C110.15 47.9905 110.892 49.0245 111.753 49.9574C114.444 52.765 118.013 56.4564 121.753 60.1116C122.871 61.2037 124.084 62.1978 125.366 63.2512C125.776 63.586 126.195 63.9298 126.622 64.2826L126.46 64.4038C125.978 64.7355 125.531 65.114 125.125 65.5336C120.267 70.907 115.35 76.3905 110.593 81.6942L109.629 82.7676C109.321 83.0416 109.083 83.3852 108.935 83.7694C108.787 84.153 108.734 84.5669 108.78 84.975C108.926 85.6905 109.499 86.2753 110.532 86.7639C110.621 86.8065 110.719 86.8284 110.819 86.8284C110.926 86.8284 111.031 86.8032 111.126 86.7542C119.392 82.4762 126.362 76.5162 133.92 69.7311L135.115 70.5756C140.828 74.6138 146.428 78.5702 152.027 82.5336C152.13 82.6122 152.228 82.6986 152.319 82.7908C152.59 83.0957 152.945 83.3149 153.341 83.4219L153.438 83.4413C154.285 83.6037 155.34 83.8075 156.017 83.2975C156.373 82.9423 156.628 82.5001 156.756 82.0153C156.885 81.5305 156.881 81.0205 156.747 80.537C156.342 79.3077 155.71 78.1647 154.881 77.1667Z" fill="black"/>
</g>
<defs>
<clipPath id="clip0_8_2518">
<rect width="157" height="127" fill="white"/>
</clipPath>
</defs>
</svg>
