<svg width="149" height="152" viewBox="0 0 149 152" fill="none" xmlns="http://www.w3.org/2000/svg">
<g clip-path="url(#clip0_8_2521)">
<path d="M78.1169 78.2301C67.2399 78.2301 56.496 78.4516 45.7648 78.1651C35.2473 77.8865 24.7384 77.1726 14.2371 76.4762C11.2624 76.1735 8.31404 75.6506 5.41622 74.9121C4.22615 74.647 3.09625 74.1605 2.08513 73.4778C-0.287215 71.8539 -0.107788 69.0074 2.3559 67.5375C2.64029 67.3679 2.94282 67.2276 3.24017 67.0828C27.3737 55.1606 51.4482 43.1137 75.6604 31.3564C93.7917 22.5514 112.085 14.0817 130.345 5.54506C134.048 3.8133 137.877 2.31732 141.732 0.951265C146.146 -0.612255 149.1 1.77158 148.396 6.40238C147.613 11.5529 146.493 16.6519 145.499 21.7693C141.141 44.1997 136.972 66.6703 132.326 89.0409C130.075 99.8803 126.874 110.519 124.197 121.272C122.617 127.619 121.39 134.058 119.668 140.363C118.679 143.639 117.384 146.815 115.8 149.847C114.736 152.015 113.306 152.185 111.076 151.151C106.247 148.917 103.282 144.993 101.407 140.217C95.9801 126.398 89.5782 112.967 85.1789 98.7351C83.0508 91.8607 80.5035 85.1168 78.1169 78.2301ZM138.676 10.7396C96.6804 29.0225 56.1307 49.1138 15.3183 68.7255C16.3856 69.0633 17.4955 69.2458 18.6144 69.2679C31.6947 69.3374 44.7769 69.4972 57.8558 69.3809C65.2783 69.316 72.6959 68.7522 80.118 68.478C83.1479 68.3663 85.3007 69.8694 85.5326 72.6912C85.8688 76.79 87.5182 80.4061 89.0399 84.0782C96.0014 100.874 102.998 117.655 110.029 134.42C110.186 134.738 110.375 135.039 110.592 135.318C122.503 94.6376 131.331 53.1574 138.676 10.7416V10.7396Z" fill="black"/>
</g>
<defs>
<clipPath id="clip0_8_2521">
<rect width="149" height="152" fill="white"/>
</clipPath>
</defs>
</svg>
