<svg width="102" height="150" viewBox="0 0 102 150" fill="none" xmlns="http://www.w3.org/2000/svg">
<g clip-path="url(#clip0_8_2523)">
<path d="M100.286 135.696C99.1458 130.148 97.9669 124.411 96.3272 118.898C89.8612 97.1501 82.0646 71.9443 71.3391 48.0083C68.6542 42.0154 66.2656 35.757 63.9552 29.7044C62.9223 27.007 61.8603 24.2166 60.7822 21.4841C60.0023 19.5088 59.2277 17.5314 58.4581 15.5518C57.156 12.2213 55.8113 8.77695 54.4556 5.4003C52.9334 1.6081 50.2652 0.026423 46.304 0.564735C46.209 0.577506 46.1179 0.610704 46.0369 0.662389C45.956 0.714077 45.8872 0.78298 45.8353 0.864045C45.599 1.23288 45.3415 1.59989 45.0813 1.96807C44.4338 2.83093 43.8737 3.75666 43.4093 4.73161L42.6488 6.45899C41.1351 9.72877 39.797 13.0777 38.6404 16.4919C35.4068 26.6425 32.6541 35.816 30.2254 44.5348C29.2971 47.866 28.3718 51.1992 27.4495 54.5347C20.5703 79.3871 13.4568 105.087 4.08954 129.612C2.99724 132.474 2.18123 135.478 1.39235 138.384L1.16704 139.213C0.418552 141.699 0.44334 144.357 1.23807 146.829C1.44303 147.475 1.78565 148.068 2.24203 148.566C2.6984 149.066 3.25753 149.458 3.88038 149.717C4.35078 149.901 4.85126 149.996 5.35616 149.996C6.10713 149.99 6.84445 149.794 7.5001 149.426C8.89892 148.606 10.2272 147.67 11.471 146.627L11.8945 146.291C16.2211 142.877 20.544 139.459 24.8633 136.035C30.7724 131.36 36.6855 126.688 42.6023 122.02C43.8605 121.029 45.1846 120.11 46.59 119.137C47.1581 118.744 47.7385 118.341 48.333 117.922C49.1671 118.405 49.9908 118.874 50.8056 119.336C52.8372 120.49 54.7571 121.58 56.6202 122.792C61.9139 126.234 67.5012 129.966 73.6993 134.203C81.0724 139.241 89.2337 142.668 96.3046 145.485C97.067 145.757 97.854 145.953 98.6545 146.07C99.1638 146.164 99.7519 146.273 100.447 146.425C100.54 146.444 100.634 146.444 100.727 146.424C100.819 146.404 100.906 146.364 100.982 146.309C101.058 146.253 101.121 146.181 101.167 146.098C101.213 146.015 101.241 145.924 101.248 145.829C101.304 145.168 101.383 144.601 101.453 144.101C101.624 143.29 101.651 142.454 101.53 141.634C101.1 139.656 100.693 137.676 100.286 135.696ZM86.2266 127.29C85.5268 126.809 84.9555 126.414 84.4138 126.007C82.7902 124.788 81.1815 123.549 79.5721 122.309C76.1435 119.668 72.5999 116.938 68.9634 114.452C64.5568 111.452 59.9637 108.738 55.2129 106.327C49.8443 103.6 45.0509 104.516 40.1265 109.225C34.3765 114.725 28.1745 119.956 22.1765 125.014C19.8145 127.006 17.4593 129.005 15.1107 131.011C14.9305 131.097 14.7389 131.157 14.542 131.188L14.5207 131.193C14.509 131.128 14.4974 131.07 14.4864 131.012C14.4429 130.83 14.4172 130.645 14.4096 130.459C24.8278 102.425 32.2693 74.182 40.1472 44.2821C42.5649 35.1061 45.06 25.636 47.6358 16.2392C49.1464 19.8664 50.3251 23.6247 51.1574 27.4671C51.75 29.8697 52.3091 32.1427 53.0715 34.409C53.7868 36.5332 54.4982 38.6584 55.2058 40.7848C56.5802 44.9056 58.0017 49.1672 59.4465 53.3438C60.7273 57.0451 62.0695 60.7933 63.3677 64.4173C64.2934 67.0001 65.214 69.5839 66.1294 72.1696C67.0822 74.8761 68.0261 77.5852 68.9608 80.2982C70.181 83.8196 71.4424 87.4592 72.7148 91.0307C75.0234 97.5086 77.3261 103.823 79.5579 109.807C81.144 114.055 82.7799 118.314 84.512 122.817C85.0691 124.275 85.6404 125.762 86.2266 127.29Z" fill="black"/>
</g>
<defs>
<clipPath id="clip0_8_2523">
<rect width="102" height="150" fill="white"/>
</clipPath>
</defs>
</svg>
