<svg width="78" height="141" viewBox="0 0 78 141" fill="none" xmlns="http://www.w3.org/2000/svg">
<g clip-path="url(#clip0_6_2016)">
<path d="M37.148 110.76V93.7656C34.7196 93.4919 32.0396 93.3619 29.4281 92.8677C14.1354 89.9798 4.56736 79.886 1.39527 63.9608C-0.804114 52.9225 1.18324 42.7845 7.01675 33.3096C9.36316 29.4989 12.8162 26.7929 16.5724 24.4597C17.4171 23.9346 18.279 23.4423 19.4689 22.7368C17.9009 22.0417 16.6258 21.5212 15.3893 20.9206C9.70865 18.164 4.8876 14.4379 1.90323 8.71266C1.36109 7.73623 0.958121 6.68911 0.705601 5.60116C0.377436 3.96032 0.669903 2.37582 2.41182 1.62628C4.07958 0.904311 5.49025 1.52923 6.57385 2.89441C7.05101 3.51876 7.48734 4.17308 7.88042 4.85349C10.3572 8.91777 14.0751 12.0781 18.4851 13.8682C24.1662 16.3289 30.2995 17.5734 36.4905 17.522C41.8068 17.478 46.9917 17.0541 51.9916 15.0129C56.321 13.3395 59.9277 10.2025 62.1847 6.14662C63.0616 4.58793 64.1086 3.13123 65.3068 1.80351C66.477 0.512488 67.9846 -0.225345 69.84 0.591139C71.7841 1.44766 71.9541 3.09179 71.6646 4.82978C71.4671 6.26428 71.0864 7.66777 70.5318 9.00559C68.6363 13.2062 65.5496 16.4281 61.821 19.0686C60.8233 19.7748 59.8088 20.4584 58.7508 21.187C75.986 31.7763 82.0361 56.3824 72.6321 76.0169C68.1611 85.352 60.3521 90.3119 50.444 92.3269C48.4802 92.7266 46.5007 93.0489 44.2088 93.4683C44.4379 99.1049 44.6623 104.649 44.9071 110.682C47.9657 110.39 50.7084 110.102 53.4559 109.876C54.7837 109.711 56.1244 109.671 57.4596 109.76C58.317 109.788 59.1333 110.135 59.7488 110.733C60.3642 111.33 60.7349 112.136 60.7881 112.992C60.9198 113.842 60.7398 114.71 60.2814 115.437C59.823 116.164 59.117 116.701 58.2938 116.948C56.9091 117.38 55.4669 117.599 54.0164 117.599C51.2342 117.695 48.4462 117.627 45.4356 117.627C45.6443 121.888 45.8545 125.784 46.0186 129.681C46.0941 131.475 46.1623 133.276 46.0731 135.063C46.0011 136.064 45.7686 137.046 45.3849 137.974C45.1594 138.678 44.7149 139.292 44.1159 139.726C43.5169 140.159 42.795 140.391 42.0555 140.385C41.3149 140.415 40.5842 140.205 39.9734 139.785C39.3627 139.365 38.9048 138.758 38.6687 138.055C38.1812 136.806 37.8831 135.492 37.7846 134.155C37.4977 129.787 37.352 125.41 37.1432 121.038C37.0966 120.053 37.0122 119.069 36.9164 117.635C33.9884 117.635 31.214 117.675 28.4417 117.616C27.2063 117.618 25.9751 117.476 24.7722 117.194C23.9868 117.047 23.2861 116.608 22.8112 115.966C22.3363 115.322 22.1226 114.524 22.2125 113.73C22.3694 112.099 23.4153 111.176 25.5169 111.117C28.6595 111.029 31.8067 111.086 34.9512 111.055C35.688 110.994 36.4213 110.896 37.148 110.76ZM38.2828 87.1563C42.0798 86.4953 46.6576 85.9552 51.101 84.8663C58.6541 83.0148 63.5615 78.106 66.1718 70.8148C68.3705 64.5434 69.0354 57.8369 68.1099 51.2561C66.4691 38.277 58.5316 29.1932 45.9391 26.6197C37.1087 24.8154 28.3879 24.9336 20.3294 29.967C16.1321 32.5924 12.7888 35.8367 10.5362 40.3182C5.45029 50.4382 6.38155 60.558 10.4574 70.6034C13.8664 79.0045 20.2159 84.1555 29.1322 85.9545C31.8705 86.5052 34.6809 86.6955 38.2835 87.1563H38.2828Z" fill="black"/>
</g>
<defs>
<clipPath id="clip0_6_2016">
<rect width="77.4479" height="140.456" fill="white"/>
</clipPath>
</defs>
</svg>
