<svg width="134" height="155" viewBox="0 0 134 155" fill="none" xmlns="http://www.w3.org/2000/svg">
<g clip-path="url(#clip0_6_2096)">
<path d="M130.827 32.474C128.673 30.9317 125.629 30.843 122.477 32.2332C120.212 33.2751 118.075 34.5758 116.11 36.1094C110.934 40.0232 106.54 45.2707 102.283 52.6243C101.909 53.2701 101.521 53.9073 101.133 54.5447L101.122 54.5657C100.98 52.4683 100.958 50.3646 101.056 48.2648C101.076 47.5901 101.095 46.9193 101.106 46.2479L101.158 43.2144C101.251 38.0293 101.346 32.6637 101.205 27.3914C101.077 22.6467 100.18 18.7651 98.4621 15.5241C97.0838 12.9263 95.1148 11.2579 92.7664 10.7059C90.418 10.154 87.9154 10.7624 85.525 12.4695C84.6856 13.1018 83.8927 13.7941 83.153 14.5409C82.9141 14.7706 82.6693 15.0056 82.4146 15.2445C82.3772 14.9885 82.3431 14.7404 82.309 14.4982C82.2072 13.6339 82.0543 12.7765 81.8495 11.9306C81.7262 11.4653 81.61 10.9954 81.4925 10.5241C81.1249 8.78983 80.5789 7.09819 79.8635 5.4762C78.4655 2.59226 76.3324 0.747329 73.8573 0.281983C71.3127 -0.198456 68.5554 0.79324 66.0961 3.0727C62.5894 6.32289 61.1158 10.6573 60.2245 14.0709C57.613 24.0709 56.7965 34.195 56.0673 45.4439C55.8146 49.3459 55.7136 53.2136 55.6079 57.3098C55.5633 59.0078 55.5179 60.7333 55.4608 62.4949L54.8761 62.176C54.3005 61.8616 53.8581 61.6194 53.4059 61.3969C49.2775 59.359 44.3024 57.3145 38.7446 57.6229L38.0679 57.659C35.4707 57.7282 32.8835 58.0083 30.3317 58.4965C20.3409 60.7037 13.3285 66.6805 9.4896 76.2604C8.31607 79.189 8.35211 81.9318 9.59455 84.1929C10.8633 86.5012 13.3436 88.106 16.5781 88.7104C19.6703 89.3136 22.8761 88.7288 25.5568 87.0742C26.2131 86.6804 26.8649 86.2748 27.516 85.8705C28.2944 85.3861 29.0722 84.9024 29.8611 84.437C33.9113 82.0493 38.2733 81.7565 42.8243 83.5674C44.3881 84.2008 45.7981 85.1623 46.9597 86.3857C48.1213 87.6098 49.0075 89.0675 49.559 90.6624C50.1174 92.1989 50.3406 93.8378 50.2135 95.4674C50.0863 97.0978 49.6119 98.6822 48.822 100.114C47.7856 101.931 46.4858 103.584 44.9647 105.02C43.0025 106.959 40.4079 108.128 37.6554 108.311C34.9029 108.494 32.1761 107.681 29.9738 106.02C28.1299 104.553 26.4055 102.942 24.8171 101.201C24.0721 100.427 23.3009 99.626 22.5199 98.8653C21.8773 98.2411 21.2426 97.5743 20.6282 96.9291C19.277 95.4149 17.7824 94.036 16.1652 92.8106C12.8756 90.4865 8.98888 90.0021 5.7682 91.5156C2.54755 93.0292 0.451791 96.3069 0.144625 100.298C-0.0304549 102.898 0.123883 105.509 0.604029 108.07C1.6102 113.722 4.16334 118.854 6.91473 124.051C12.7844 135.137 20.7761 142.977 30.6677 147.356C40.1328 151.545 49.5886 153.643 58.9447 153.643C65.3564 153.635 71.7295 152.655 77.8472 150.736C89.171 147.213 97.158 139.751 101.585 128.555C104.641 120.827 106.573 112.24 107.492 102.301C108.135 95.3506 108.796 89.1148 109.512 83.2386C109.638 81.6207 110.132 80.0534 110.956 78.656C113.483 74.8611 116.12 71.0425 118.671 67.3558C121.013 63.9678 123.435 60.4642 125.767 56.9856C128.025 53.6262 130.091 50.1421 131.956 46.5499C132.944 44.615 133.555 42.5092 133.753 40.3455C134.059 36.8853 132.991 34.0217 130.827 32.474ZM55.493 104.494C58.6631 99.6582 59.0135 93.6048 56.4545 87.8854C53.5981 81.5032 47.7311 76.7756 41.5071 75.8403C35.4688 74.9339 30.2181 75.9421 25.4596 78.9251C25.0934 79.1548 24.7337 79.4003 24.3734 79.6471C23.5671 80.2443 22.6956 80.7478 21.7756 81.1481C20.5011 81.6804 19.1236 81.92 17.7443 81.8504C16.6285 81.7329 15.8653 81.3831 15.4846 80.8101C15.075 80.1938 15.0573 79.2526 15.4314 78.0135C17.025 72.7411 20.5902 68.8464 26.0293 66.4389C33.2234 63.2537 39.9436 63.2228 46.568 66.3372L46.9159 66.5006C50.2724 68.0758 53.4432 69.5638 55.3794 72.9131C56.3777 74.6405 58.0152 75.3559 59.7624 74.8256C61.9283 74.1693 62.0327 72.1727 62.1081 70.7169C62.2722 67.5508 62.4173 64.3825 62.5631 61.2144C62.8945 53.9717 63.2384 46.4829 63.81 39.1385C64.383 31.819 65.3145 23.1894 67.8794 14.6787C68.52 12.6839 69.4001 10.7743 70.5008 8.99159C70.9386 8.37365 71.4873 7.84234 72.1187 7.42484C72.3438 7.25288 72.5676 7.0823 72.779 6.9064C74.4566 8.09634 74.7099 9.67615 74.8451 11.4601C74.9265 12.5293 75.0151 13.5991 75.1037 14.6696C75.5664 19.1657 75.7594 23.6854 75.6819 28.2046C75.3367 37.3027 74.7388 46.5459 74.1605 55.4852C73.9446 58.8238 73.7326 62.1624 73.5246 65.5009C73.4911 66.053 73.4025 66.6168 73.3165 67.1662C73.2476 67.6079 73.1787 68.0489 73.134 68.4926C72.8459 71.3772 73.8324 73.3699 75.7712 73.8234C76.1657 73.9127 76.5746 73.9179 76.971 73.8391C77.3674 73.7597 77.7428 73.5976 78.0723 73.364C78.6722 72.8993 79.1717 72.3178 79.5419 71.6555C79.9114 70.9926 80.1437 70.2621 80.2244 69.508C80.695 66.559 81.0304 63.3738 81.2483 59.7698C81.6454 53.1946 81.9966 46.5065 82.3365 40.039C82.479 37.316 82.6227 34.5931 82.7691 31.8701C83.008 27.432 84.7893 23.3378 88.2167 19.3485C89.2517 18.1435 90.1857 17.5955 90.9313 17.7661C91.6414 17.9289 92.2184 18.7717 92.5984 20.2038C93.43 23.0813 93.8835 26.0547 93.9478 29.0493C93.9603 35.9887 93.6853 43.0482 93.4181 49.8755L93.365 51.2473C93.2213 54.9589 93.0073 58.7295 92.8012 62.3807C92.6752 64.6077 92.5492 66.8347 92.4376 69.063C92.393 69.9792 92.4277 70.8981 92.5406 71.8084C92.5715 72.5042 92.8347 73.1703 93.2882 73.6987C93.7417 74.2277 94.3593 74.5893 95.0426 74.7259C96.583 75.0462 97.7795 74.4325 98.6997 72.8514C101.867 67.409 105.192 61.7512 108.583 56.0352C112.409 49.586 116.334 45.0285 120.934 41.6923C122.043 40.9202 123.193 40.2092 124.38 39.5625C124.862 39.2881 125.344 39.0137 125.824 38.7308L126.385 39.1149C126.24 39.554 126.109 40.0002 125.978 40.4465C125.694 41.5736 125.28 42.664 124.744 43.6954C122.598 47.4175 120.26 50.9559 118.463 53.6232L117.924 54.4233C114.526 59.4686 111.012 64.6858 107.38 69.6858C102.606 76.2578 100.948 83.6002 99.9192 92.5986C98.8402 102.07 97.6174 112.804 94.1244 122.848C90.3176 133.787 82.689 140.41 71.4446 142.532C59.9651 144.769 48.0894 143.763 37.1497 139.627C27.6984 136.072 20.2352 129.396 14.9727 119.783C12.1504 114.627 9.54146 109.515 8.64752 103.697C8.44084 102.403 8.4203 101.086 8.58648 99.7875C8.59561 99.5551 8.66177 99.3293 8.77925 99.1285C8.89674 98.9283 9.06174 98.7603 9.25982 98.6389C9.39306 98.5759 9.53909 98.5437 9.68651 98.5457C9.9959 98.5581 10.2964 98.652 10.5581 98.8174C11.5764 99.4455 12.504 100.21 13.3148 101.09L13.7492 101.542C15.5213 103.38 17.3506 105.279 18.9717 107.284C22.0178 111.054 26.1455 113.782 31.5918 115.628C37.6078 117.662 43.5253 116.562 48.707 112.438C51.673 110.072 54.0005 106.771 55.493 104.494Z" fill="black"/>
</g>
<defs>
<clipPath id="clip0_6_2096">
<rect width="133.893" height="154.239" fill="white"/>
</clipPath>
</defs>
</svg>
