<svg width="126" height="80" viewBox="0 0 126 80" fill="none" xmlns="http://www.w3.org/2000/svg">
<g clip-path="url(#clip0_6_2018)">
<path d="M96.2531 36.2299L111.182 37.1144C110.646 36.2215 110.065 35.3562 109.442 34.5214C107.839 32.643 106.149 30.8385 104.555 28.9521C102.553 26.5847 102.383 24.6789 103.959 23.355C105.481 22.0771 107.386 22.5391 109.48 24.7818C111.548 26.9976 113.536 29.2898 115.609 31.4996C117.99 34.0374 120.402 36.5443 122.845 39.02C125.475 41.6742 125.771 43.3956 123.464 46.3576C120.294 50.4269 116.943 54.3585 113.602 58.2906C112.992 58.9468 112.236 59.451 111.395 59.7622C110.62 60.1248 109.745 60.2129 108.914 60.0125C108.083 59.8121 107.345 59.3351 106.82 58.6594C106.283 58.0677 105.956 57.3148 105.891 56.518C105.825 55.7213 106.025 54.9255 106.459 54.2542C107.161 53.2532 107.978 52.3372 108.892 51.525C110.854 49.5678 112.856 47.6526 115.436 45.1362C108.603 44.0966 102.618 43.991 96.2603 43.7258C96.1231 44.9952 96.0851 46.0748 95.8757 47.1204C95.6256 48.6547 95.2404 50.164 94.7251 51.6307C94.3851 52.3398 93.8417 52.932 93.1644 53.3321C92.487 53.7323 91.7066 53.9226 90.921 53.8789C90.1354 53.8351 89.3806 53.5593 88.7525 53.0863C88.1237 52.6134 87.6498 51.9644 87.3899 51.2218C87.0296 49.8239 86.8281 48.3899 86.7887 46.947C86.8261 45.733 86.9488 44.5235 87.1562 43.3269L78.9002 42.8016C78.5064 44.2068 78.173 45.471 77.7988 46.722C73.0437 62.6237 62.4491 72.7706 46.8066 77.7201C43.528 78.7801 40.0712 79.1765 36.6379 78.8851C33.2045 78.5943 29.8635 77.6216 26.81 76.0248C17.0601 71.2131 9.08216 63.4408 4.01804 53.8196C-1.26614 43.8584 -0.987871 33.6752 4.06002 23.7409C10.5531 10.962 20.6941 2.7724 35.0646 0.322288C36.5003 0.0557473 37.964 -0.0289086 39.4209 0.0707127C47.398 0.68492 55.0546 3.47153 61.5604 8.12851C67.6991 12.5224 72.6433 18.3795 75.9453 25.168C77.5383 28.3335 78.5096 31.8125 80.0022 35.7853C81.8504 35.8569 84.2743 35.975 86.6968 36.0347C88.0095 36.0668 88.3521 35.1252 88.5096 34.0435C88.7354 32.4893 88.8942 30.9179 89.2375 29.3886C89.8282 26.758 91.3667 25.3357 93.1755 25.5746C94.9424 25.8076 96.0772 27.2759 96.2275 29.8408C96.3496 31.8282 96.2531 33.8303 96.2531 36.2299ZM6.87831 39.0702C6.87241 44.0656 8.47964 48.5531 11.0531 52.7412C14.8894 58.9843 20.1514 63.7932 26.2803 67.6998C32.8384 71.8787 39.709 72.3138 46.8473 69.3157C53.7389 66.4232 59.5805 62.0961 63.781 55.9325C72.2029 43.5638 72.1222 33.7613 65.2103 23.4351C64.8986 22.9697 64.6491 22.4625 64.3367 21.9978C59.6216 14.994 53.6134 9.62319 45.1664 7.74934C42.0435 7.05625 38.6686 6.55791 35.5431 6.97795C19.3473 9.15568 9.42083 23.8736 7.25164 35.0569C7.05881 36.3866 6.93423 37.7252 6.87831 39.0677V39.0702Z" fill="black"/>
</g>
<defs>
<clipPath id="clip0_6_2018">
<rect width="125.361" height="79.4169" fill="white"/>
</clipPath>
</defs>
</svg>
