<svg width="140" height="140" viewBox="0 0 140 140" fill="none" xmlns="http://www.w3.org/2000/svg">
<g clip-path="url(#clip0_6_2098)">
<path d="M136.444 62.6022C134.579 57.5484 130.049 54.8102 124.606 55.4481C122.879 55.7339 121.197 56.247 119.604 56.9742C118.939 57.24 118.256 57.5149 117.56 57.7617C116.805 55.9351 115.626 54.3144 114.121 53.0334C112.616 51.7524 110.827 50.8481 108.903 50.395C104.315 49.1939 100.557 50.2086 97.7241 53.4141C93.0096 46.8029 88.7716 46.0159 81.8407 50.4882C81.7508 49.1716 81.6694 47.8812 81.5887 46.6105C81.3858 43.3945 81.1949 40.3589 80.8929 37.3017C80.1053 29.3082 79.4083 23.2279 78.641 17.5886C78.0983 13.9645 76.6727 10.5295 74.4897 7.58601C71.8158 3.84489 68.095 3.04348 64.0159 5.32032C62.8381 5.96096 61.8068 6.83995 60.9874 7.90112C60.168 8.96235 59.5786 10.1825 59.2568 11.484C58.8274 13.0178 58.5496 14.5901 58.4277 16.1782C58.3569 17.3091 58.2795 18.4406 58.2027 19.5728C57.9179 23.7517 57.6243 28.073 57.6506 32.3274C57.7018 40.5415 57.8961 48.8907 58.0845 56.9656C58.165 60.4179 58.2419 63.8703 58.3149 67.3226C58.3248 67.7938 58.3227 68.2651 58.3194 68.8506V69.2089L58.1534 69.0639C57.7465 68.7101 57.4243 68.4298 57.0849 68.1706C50.6213 63.2218 43.5104 61.4025 35.9507 62.7618C34.271 63.0089 32.6853 63.692 31.3518 64.7429C30.0184 65.794 28.9837 67.1762 28.3509 68.7514C27.7392 70.4409 27.574 72.2596 27.8711 74.031C28.1684 75.8031 28.918 77.4683 30.0475 78.8656C30.7423 79.7202 31.5151 80.5078 32.3559 81.2186C32.9684 81.7502 33.5525 82.3134 34.1057 82.906C34.9957 83.8978 35.927 84.8869 36.8275 85.8445C39.3472 88.3727 41.6465 91.1116 43.7002 94.031C45.7878 97.3382 47.6866 100.76 49.3873 104.282C50.3364 106.155 51.3176 108.089 52.3409 109.962L52.9415 111.057C55.2918 115.342 57.7201 119.774 60.4 123.953C61.8711 126.109 63.684 128.012 65.767 129.584C69.5304 132.484 73.7021 134.812 78.1468 136.491C83.1186 138.505 88.4336 139.539 93.7979 139.536C99.655 139.481 105.454 138.376 110.922 136.274C114.72 134.86 118.141 132.436 121.606 129.865C127.628 125.395 131.726 118.826 134.501 109.19C137.88 97.4879 139.329 85.3128 138.79 73.1443C138.55 69.5312 137.759 65.9758 136.444 62.6022ZM34.7662 69.9703C35.4711 67.8437 37.4773 67.4952 39.426 67.4952C39.5316 67.4952 39.6373 67.4952 39.7417 67.4952C46.9003 67.6186 52.2373 70.2774 55.6043 75.3962C56.235 76.4936 56.6992 77.6783 56.9824 78.9122C57.0854 79.2725 57.1884 79.6342 57.2974 79.984C57.7417 81.4148 58.4676 82.9008 60.4826 83.078C62.1097 83.225 63.5164 81.9865 64.0572 79.9315C64.2848 79.0343 64.3876 78.1095 64.3629 77.1841C64.2317 69.904 64.0644 61.9761 63.8563 52.9481C63.8117 51.0205 63.7407 49.0928 63.6704 47.1651C63.5293 43.3256 63.3837 39.3547 63.4605 35.4594C63.5766 29.4729 63.9776 23.3873 64.3655 17.5026L64.5316 14.9731C64.6891 12.5597 65.303 9.99215 68.6352 9.1796C70.8103 10.8579 72.1197 13.2234 72.6356 16.404C73.5085 21.7919 74.0913 26.6914 74.4162 31.3815C74.8389 37.4697 75.1611 43.6682 75.4742 49.6632C75.6639 53.3124 75.8542 56.963 76.0649 60.6116C76.1962 62.8825 77.2115 64.2162 78.9193 64.3658C81.1844 64.5719 82.0041 62.8727 82.6703 61.5141C82.9407 60.9608 83.2039 60.3982 83.4658 59.8358C84.2567 57.9691 85.2425 56.1915 86.4081 54.5326C87.3795 53.2593 88.6397 52.637 89.8526 52.8261C91.1443 53.023 92.2213 54.0817 92.8107 55.7225C93.2354 57.1268 93.4756 58.5803 93.5248 60.0465C93.5478 60.3379 93.5708 60.628 93.5964 60.9155C93.6357 61.5817 93.6213 62.2501 93.5524 62.914C93.5196 63.3583 93.4867 63.8027 93.4822 64.2451C93.4441 64.5961 93.4776 64.9512 93.5799 65.2889C93.683 65.6267 93.8536 65.9403 94.0814 66.2101C94.3085 66.4799 94.5887 66.701 94.9044 66.8599C95.2195 67.0181 95.5641 67.1113 95.9165 67.1329C96.2604 67.2064 96.6155 67.2097 96.9607 67.1441C97.306 67.0784 97.6348 66.9439 97.9275 66.7496C98.2203 66.5547 98.471 66.304 98.6659 66.0106C98.8602 65.7179 98.9941 65.3892 99.0597 65.0438C99.1253 64.7964 99.191 64.5476 99.2566 64.2982C99.357 63.9044 99.4581 63.5047 99.5795 63.1169C99.701 62.729 99.8086 62.3503 99.9195 61.965C100.183 60.959 100.52 59.9736 100.927 59.0166L101.024 58.806C101.976 56.7195 102.867 54.7511 105.531 54.9001C107.727 55.0248 110.596 55.859 111.786 59.1249C112.332 60.8701 112.662 62.6752 112.771 64.5003L112.85 65.2761C112.887 65.6253 112.9 65.983 112.916 66.3394C112.97 67.8772 113.032 69.6211 115.183 70.3746C117.067 71.0355 118.082 69.9808 119.782 67.2091C120.692 65.571 121.804 64.0536 123.093 62.6929C123.553 62.1931 124.121 61.8056 124.755 61.5602C125.388 61.3149 126.069 61.2183 126.745 61.2778C127.421 61.4121 128.059 61.6996 128.607 62.1185C129.155 62.5373 129.599 63.0762 129.906 63.6937C132.143 67.4237 133.227 71.7325 133.02 76.0775C132.553 83.4882 131.718 90.7519 130.755 98.7993C130.013 104.998 127.539 110.548 125.212 115.165C121.703 122.13 115.75 126.873 107.012 129.664C94.3288 133.714 81.8742 131.531 69.9984 123.174C68.7271 122.324 67.6185 121.254 66.7226 120.015C64.687 117.075 62.8081 114.03 61.0938 110.892C58.5813 106.232 56.0793 101.287 53.6574 96.2008C49.3912 87.2352 44.0834 80.3831 37.44 75.2479C37.3638 75.1908 37.2917 75.1284 37.2246 75.0608C37.0166 74.841 36.7993 74.625 36.5814 74.4084C35.3107 73.1423 34.1092 71.9504 34.7662 69.9703Z" fill="black"/>
<path d="M37.3485 43.284C37.703 42.9503 37.9877 42.5493 38.1853 42.1043C38.383 41.6594 38.49 41.1796 38.5 40.6928C38.5104 40.3514 38.4516 40.0114 38.3276 39.6932C38.2035 39.3749 38.0167 39.0849 37.778 38.8406C36.655 37.7471 35.3082 37.7426 33.6608 38.8288C32.8608 39.3539 32.1099 39.959 31.2403 40.656C30.9659 40.8759 30.6795 41.1056 30.3737 41.3471L29.3892 27.7216H42.7787C42.5707 28.0688 42.3624 28.4022 42.1602 28.7264C41.4784 29.7156 40.9269 30.7886 40.5194 31.9188C40.1833 33.0103 40.3376 34.7838 41.095 35.5845C42.1031 36.6485 43.717 36.523 45.2089 35.2655C45.7529 34.8134 46.2262 34.2825 46.6129 33.6904L47.3587 32.5227C48.544 30.6679 49.7694 28.7501 50.8458 26.7863C52.5956 23.5919 52.1702 21.573 49.2764 19.3355C48.2263 18.525 47.1144 17.7728 46.0373 17.0449C45.1034 16.4142 44.1339 15.7618 43.2242 15.0759C42.134 14.2588 40.5333 13.3596 39.2134 14.9801C38.2362 16.1785 38.4212 17.7157 39.7083 19.092C40.2795 19.6783 40.8809 20.2346 41.51 20.7585C41.6708 20.8983 41.8379 21.0427 42.0106 21.1949C41.0713 21.252 40.1546 21.3217 39.2541 21.3919C35.7099 21.6603 32.3547 21.9169 28.8236 21.3183V18.8091C28.8236 15.7834 28.8237 12.8621 28.8322 9.94137C28.8433 9.67233 28.878 9.40481 28.9363 9.14195C28.9396 9.12226 28.9436 9.10257 28.9475 9.08288C29.3413 9.29028 29.7293 9.50096 30.1093 9.70837C31.2937 10.3989 32.534 10.9891 33.8169 11.4726C34.7089 11.7804 36.4318 11.432 36.863 10.7015C37.2942 9.97097 37.1254 8.90245 36.9778 7.96454C36.9495 7.78864 36.9222 7.61537 36.8986 7.44866C36.7398 6.92576 36.3914 6.481 35.9218 6.20157C35.3127 5.76379 34.7076 5.32016 34.1024 4.87648C32.2896 3.54805 30.416 2.1743 28.4627 0.990926C26.0139 -0.492395 23.328 -0.298812 21.4529 1.49496C18.9006 4.02001 16.5284 6.72072 14.3533 9.57716C13.7804 10.305 13.9219 12.0331 14.4424 12.7446C14.5907 12.9532 14.7799 13.1296 14.9981 13.2632C15.2164 13.3967 15.4593 13.4847 15.7125 13.5218C16.5225 13.5934 17.3282 13.3437 17.9558 12.8266C18.7021 12.2355 19.4042 11.5907 20.0563 10.8971C20.263 10.687 20.4696 10.4777 20.6783 10.2722C21.2998 9.65986 21.9103 9.037 22.6415 8.2914L23.2321 7.6921V21.5671L9.5074 22.3547C9.78109 22.0358 10.0416 21.7384 10.2884 21.4569C11.0769 20.613 11.7926 19.7037 12.4276 18.739C12.847 18.0551 13.0183 16.3584 12.4414 15.9574C11.6846 15.4323 10.5098 15.4612 9.56988 15.5471C8.99966 15.695 8.49651 16.032 8.14248 16.5028L8.02552 16.6229C7.53327 17.1235 7.04016 17.6231 6.54619 18.122C4.77801 19.9098 2.94946 21.7587 1.24036 23.6634C-0.269217 25.3443 -0.224563 27.2228 1.36246 28.9529C2.59047 30.2918 3.94429 31.5473 5.25434 32.7596L5.97253 33.4258C6.39586 33.9117 6.96704 34.2452 7.59831 34.3749L7.97741 34.4005C9.06956 34.4799 10.3083 34.5685 10.8944 33.9516C11.7437 33.0583 11.1931 30.8491 11.1268 30.6003C10.8788 29.9032 10.4926 29.2634 9.99132 28.7192C9.8397 28.5223 9.67608 28.3163 9.50609 28.0892H23.5402L24.149 43.8084L23.0988 43.0543C22.1045 42.3383 21.2614 41.7325 20.4219 41.1234C20.0734 40.8707 19.7319 40.5983 19.3906 40.3278C18.602 39.6443 17.7302 39.063 16.796 38.5977C15.952 38.2223 14.3019 38.3707 13.7723 39.0382C13.2426 39.7057 13.5153 41.0393 13.831 42.0501C14.0895 42.6128 14.5051 43.0887 15.0279 43.4206C15.1264 43.498 15.2249 43.5741 15.3142 43.6502C18.4738 46.2756 21.1189 48.45 23.6379 50.4945C24.4306 51.1841 25.4386 51.5762 26.4888 51.6031C27.5346 51.5788 28.5375 51.1833 29.3184 50.4873C32.0796 48.1914 34.7849 45.767 37.3485 43.284Z" fill="black"/>
</g>
<defs>
<clipPath id="clip0_6_2098">
<rect width="139.144" height="139.8" fill="white"/>
</clipPath>
</defs>
</svg>
