<svg width="153" height="159" viewBox="0 0 153 159" fill="none" xmlns="http://www.w3.org/2000/svg">
<g clip-path="url(#clip0_8_2896)">
<path d="M128.779 16.1831C132.225 16.1831 135.053 15.9205 137.813 16.2388C143.288 16.8767 147.558 19.4884 149.824 24.7561C152.95 31.6756 153.583 39.4635 151.616 46.7969C150.221 52.0273 146.88 55.6288 142.182 58.0467C136.563 60.8969 130.481 62.7215 124.22 63.4345C114.539 64.6015 104.801 65.3143 95.079 66.1693C91.5164 66.483 87.9413 66.6563 84.2054 66.9037C82.0251 74.6557 82.8567 82.4097 82.3716 90.5286C83.7611 90.5286 84.9471 90.4564 86.1213 90.545C87.6834 90.629 89.2376 90.8246 90.7708 91.1324C92.1255 91.437 92.6899 92.4845 92.7398 93.8996C93.0023 101.06 93.3495 108.218 93.593 115.38C93.8247 122.223 93.9022 129.071 94.1608 135.913C94.3813 141.728 94.7383 147.539 95.0888 153.349C95.1906 154.246 94.9917 155.151 94.5224 155.922C94.0538 156.693 93.3417 157.286 92.4983 157.608C91.6509 157.907 90.757 158.053 89.8585 158.041C83.0089 157.964 76.16 157.85 69.3112 157.698C68.3011 157.655 67.2995 157.491 66.3274 157.213C63.516 156.462 62.1994 154.854 62.0662 151.917C61.3737 136.665 60.9373 121.411 62.0439 106.158C62.2795 102.915 62.3681 99.6524 62.7829 96.433C63.1852 93.3154 65.2717 91.4803 68.3838 91.162C70.2622 90.9697 72.1544 90.908 74.3774 90.7682C74.5999 87.875 74.8001 85.1079 75.0272 82.3428C75.4479 77.203 75.6461 72.0297 76.3747 66.9333C77.2706 60.6701 79.9799 58.4334 86.2125 58.0265C96.1829 57.3747 106.162 56.8318 116.121 56.0396C122.958 55.5771 129.705 54.2228 136.189 52.0105C143.493 49.4291 145.981 46.3063 146.039 38.595C146.064 35.291 145.232 31.946 144.52 28.6787C143.745 25.1234 141.193 23.1658 137.749 22.4477C135.228 21.9227 132.652 21.6599 129.677 21.2117C129.831 22.7941 129.997 24.2032 130.099 25.6169C130.301 28.4129 130.559 31.2096 130.628 34.0102C130.759 39.2734 127.597 43.3303 121.802 43.5528C104.757 44.2091 87.7378 45.4629 70.6927 46.1692C56.2254 46.7691 41.7413 47.0794 27.2618 47.2139C21.9009 47.2638 16.5275 46.4919 11.1685 45.9951C9.83094 45.836 8.51872 45.5094 7.26262 45.0231C3.5451 43.6842 1.19673 40.9938 0.903343 37.0814C0.247004 28.3304 0.287033 19.5709 2.51202 10.9972C3.83914 5.88173 6.91739 2.44307 12.5048 1.97707C18.3167 1.49204 24.1304 0.825867 29.9528 0.711664C48.3618 0.350023 66.7731 0.0126561 85.1867 0.0625378C95.0514 0.0894478 104.92 0.83243 114.774 1.46383C117.683 1.70276 120.554 2.28161 123.328 3.18864C128.553 4.80585 130.169 7.91431 129.007 13.2307C128.864 14.2084 128.788 15.1949 128.779 16.1831ZM63.3533 5.6382L63.346 6.01813C51.2248 6.28526 39.1002 6.46966 26.9848 6.86017C21.9514 7.02229 16.9291 7.58752 11.9088 8.04565C9.93976 8.22483 8.526 9.24215 8.18602 11.3273C7.37019 16.3464 7.95834 21.1922 10.5587 25.5929C12.3 28.5385 13.6973 28.5272 16.0391 26.0521C17.6589 24.3417 19.2309 22.5738 20.9794 20.9985C23.3422 18.8753 26.024 17.2743 29.2834 16.8891C34.4074 16.2833 38.1761 18.5345 41.1034 22.5086C42.7646 24.7651 44.2151 27.1902 46.0049 29.3345C49.3286 33.3185 52.416 33.1412 55.6287 29.1002C57.3726 26.906 59.0516 24.5919 61.1322 22.7528C63.2683 20.9742 65.5937 19.4363 68.0661 18.1664C69.0224 17.6647 70.0968 17.4343 71.1745 17.5005C72.2516 17.5667 73.2905 17.9268 74.1772 18.5417C75.7367 19.6167 77.1688 20.8639 78.448 22.26C80.2549 24.0977 81.838 26.1567 83.6889 27.9439C85.7892 29.9733 86.332 29.8158 88.3581 27.7378C89.928 25.9901 91.6509 24.3863 93.5064 22.9464C97.0926 20.4038 100.935 20.0587 104.843 22.4471C106.071 23.2261 107.36 23.905 108.696 24.4777C113.252 26.3377 116.842 25.3177 119.374 21.1303C120.8 18.595 122.023 15.9517 123.033 13.2247C123.952 10.9649 123.597 10.3369 121.344 9.44358C120.619 9.14154 119.86 8.92914 119.083 8.81094C114.084 8.14672 109.095 7.18453 104.074 6.95744C90.5082 6.35296 76.9273 6.05891 63.3533 5.6382ZM125.083 23.3233L124.296 23.1262C123.725 23.7825 123.154 24.4389 122.583 25.0952C121.335 26.622 119.715 27.8031 117.88 28.5253C116.044 29.2475 114.054 29.4869 112.1 29.2204C108.992 28.9066 106.336 27.5794 103.717 26.0265C100.473 24.1028 98.3351 24.2481 95.4675 26.7001C93.9409 28.0063 92.6315 29.567 91.2361 31.0247C88.5865 33.7925 86.1416 34.1175 82.8704 32.0441C82.0126 31.515 81.223 30.8813 80.5208 30.1578C78.8307 28.364 77.1951 26.5162 75.5982 24.6398C72.3428 20.8153 70.5615 20.5745 66.5303 23.679C65.2995 24.6505 64.1639 25.7372 63.1393 26.9245C61.3613 28.9427 59.7106 31.0719 57.9785 33.1315C55.5829 35.9793 52.6563 36.9529 48.963 35.9821C45.9043 35.1702 43.2467 33.2703 41.4887 30.6388C40.1878 28.8136 39.0149 26.8977 37.6767 25.1C33.9815 20.1407 29.9457 19.5774 25.0632 23.4951C23.0151 25.2372 21.0767 27.1043 19.2591 29.0858C15.3473 33.1137 11.8425 33.0278 8.16305 28.7301C7.50671 27.9628 6.87144 27.1784 5.88953 25.9964C5.88953 28.6709 5.88953 30.6892 5.88953 32.7068C5.88953 33.1558 5.88231 33.6059 5.91184 34.0528C6.20916 38.577 7.14448 39.9011 11.5872 40.5095C16.3559 41.2011 21.1635 41.591 25.9814 41.677C33.9428 41.7531 41.91 41.486 49.8721 41.253C58.2804 41.0069 66.6911 40.7528 75.0889 40.2848C88.8595 39.5176 102.622 38.6008 116.384 37.6832C119.372 37.4863 122.342 37.0144 125.082 36.6987L125.083 23.3233ZM86.9036 150.306C88.0568 142.322 88.0883 102.11 86.9982 97.2666L68.1704 96.5695C68.5117 114.345 68.8478 131.874 69.1871 149.552L86.9036 150.306Z" fill="black"/>
</g>
<defs>
<clipPath id="clip0_8_2896">
<rect width="152.927" height="158.177" fill="white"/>
</clipPath>
</defs>
</svg>
