<svg width="176" height="153" viewBox="0 0 176 153" fill="none" xmlns="http://www.w3.org/2000/svg">
<g clip-path="url(#clip0_8_2528)">
<path d="M149.049 56.4919C149.363 56.6266 149.654 56.7764 149.96 56.8825C164.436 61.8026 171.968 72.6828 175.152 87.0551C176.146 91.5402 175.561 96.1706 174.117 100.58C173.542 102.42 172.581 104.115 171.299 105.549C170.017 106.984 168.444 108.125 166.686 108.896C164.928 109.667 163.026 110.049 161.109 110.017C159.192 109.986 157.304 109.54 155.572 108.711C153.013 107.494 150.798 105.532 148.455 103.865C146.862 102.73 145.325 101.515 143.461 100.107C142.992 103.528 142.787 106.488 142.16 109.357C138.979 123.91 131.658 135.936 119.955 145.12C117.472 146.98 114.812 148.588 112.013 149.92C104.708 153.581 97.473 153.03 90.4116 149.101C86.2698 146.714 82.5951 143.586 79.5695 139.87C78.8577 139.024 78.146 138.182 77.3436 137.224C75.02 138.431 72.8252 139.708 70.5191 140.731C67.7975 141.938 64.9796 142.926 62.2037 144.008C61.5884 144.247 60.8294 144.327 60.381 144.745C58.5783 146.426 56.5084 146.127 54.4197 145.722C52.3589 145.323 50.303 144.888 48.2635 144.392C44.5887 143.564 41.0831 142.106 37.8998 140.082C22.2112 129.788 11.6601 115.477 5.23284 97.9194C1.58936 87.9613 -0.00470173 77.3614 0.547034 66.764C0.636504 62.7311 1.82801 58.8006 3.99117 55.4039C5.30017 53.4234 6.83826 51.7326 9.28867 51.1134C10.1359 50.8613 10.9323 50.4598 11.6402 49.9278C29.0202 37.721 47.7584 27.8379 66.2783 17.5843C75.4885 12.4852 84.8618 7.67438 93.9549 2.37473C99.002 -0.568077 103.932 -0.0165961 108.952 1.62408C113.849 3.22505 118.075 6.14376 121.958 9.50192C135.038 20.8018 143.259 35.1988 148.258 51.6089C148.629 53.217 148.894 54.8483 149.049 56.4919ZM133.752 95.78C132.915 95.071 132.432 94.6413 131.928 94.2369C127.691 90.8338 123.404 87.5076 119.828 83.3368C108.073 69.7947 99.2271 53.9538 93.8456 36.8082C91.7614 30.2158 90.816 23.3126 91.0509 16.3987C91.0994 15.0158 91.214 13.6349 91.3207 11.8849C89.9671 12.5613 88.9758 13.0098 88.0278 13.5379C83.2836 16.1786 78.5348 18.8115 73.8171 21.4985C57.3535 30.8738 40.9019 40.2708 24.4623 49.6895C20.2416 52.1219 16.3436 55.137 12.0633 57.4444C11.0824 57.9095 10.2391 58.6244 9.61725 59.5181C8.9953 60.4119 8.61625 61.4536 8.51744 62.5402C7.5378 68.712 8.45662 74.7728 9.62068 80.7743C12.7835 97.0815 20.591 110.929 31.9825 122.853C38.4673 129.639 45.8571 134.917 54.9916 137.415C56.0177 137.778 57.118 137.876 58.1915 137.7C63.6883 136.197 68.3585 133.046 73.0905 130.24C64.7493 108.521 64.8275 86.6488 68.8419 64.5103C64.4421 61.3005 63.6139 58.9373 65.2002 54.051C66.1495 51.131 68.4453 49.2982 71.3842 49.4746C77.7623 49.8535 79.5604 51.1121 80.7873 55.1272C81.1755 56.7387 81.1503 58.4229 80.7141 60.0219C80.0561 62.8078 77.277 63.5605 74.8324 65.1897C74.4513 71.5637 73.8424 78.1075 73.7356 84.6572C73.6508 89.8748 74.0837 95.1087 74.4577 100.324C75.0032 107.768 76.5548 115.102 79.0706 122.124C79.4957 123.318 80.0845 124.452 80.5686 125.549L133.752 95.78ZM116.163 64.5207C123.679 58.1474 132.422 56.2112 141.662 55.5563C141.554 55.0132 141.415 54.4767 141.246 53.9495C137.718 45.0614 133.325 36.5461 128.131 28.528C123.898 22.1122 118.53 16.5332 112.294 12.0685C110.353 10.6602 108.045 9.72979 105.842 8.72194C104.912 8.3802 103.937 8.18026 102.948 8.12882C102.396 8.0156 101.821 8.12706 101.349 8.43886C100.878 8.75065 100.548 9.23745 100.433 9.79301C100.086 10.7319 99.869 11.7138 99.7855 12.7117C99.6768 16.1564 99.7403 19.6044 99.9758 23.0427C100.717 30.9857 103.453 38.4007 106.402 45.7233C108.978 52.3222 112.25 58.624 116.163 64.5201V64.5207ZM119.059 68.71C119.097 69.0226 119.169 69.3292 119.273 69.6254C119.604 70.2023 119.954 70.7694 120.328 71.3182C124.602 77.5495 129.64 83.2138 135.323 88.1775C137.01 89.7798 139.181 90.7674 141.49 90.9836C146.057 91.3508 150.323 93.4179 153.455 96.782C154.739 98.1609 156.16 99.4031 157.697 100.488C161.408 103.027 165.336 101.589 166.436 97.2123C167.22 94.097 167.646 90.9068 167.008 87.6417C165.48 79.7 161.168 72.5741 154.858 67.5603C151.759 64.9942 147.971 63.4113 143.976 63.0123C135.117 62.1164 126.891 64.1945 119.058 68.71H119.059ZM84.6437 133.003C86.7344 135.157 88.2673 136.923 89.9878 138.477C97.3293 145.103 103.954 145.631 112.322 140.364C112.51 140.246 112.696 140.127 112.876 139.997C124.409 131.704 130.986 120.289 134.087 105.955L84.6437 133.003Z" fill="black"/>
</g>
<defs>
<clipPath id="clip0_8_2528">
<rect width="176" height="153" fill="white"/>
</clipPath>
</defs>
</svg>
