<svg width="155" height="151" viewBox="0 0 155 151" fill="none" xmlns="http://www.w3.org/2000/svg">
<g clip-path="url(#clip0_8_2892)">
<path d="M154.247 3.81738C154.064 3.27436 153.766 2.7777 153.372 2.36209C152.978 1.94648 152.498 1.62194 151.965 1.41123C151.063 1.0337 150.1 0.821295 149.123 0.783897L147.863 0.736627C144.844 0.621112 141.724 0.502934 138.648 0.567255C124.261 0.876388 113.23 7.80594 105.862 21.1624C103.953 24.5067 102.999 28.311 103.105 32.1601C103.153 33.5463 102.627 34.2709 101.492 35.2902C98.0381 38.3907 94.4689 41.5976 91.1294 44.9383C87.8274 48.2436 84.5129 51.6448 81.3074 54.9337C76.8075 59.5504 72.1547 64.3245 67.4704 68.9035C52.8478 83.1939 37.9128 97.655 23.4695 111.641C17.8306 117.1 12.1931 122.561 6.55689 128.024C2.08264 132.363 0.107692 136.769 0.343317 141.89C0.355207 143.428 0.834514 144.926 1.71752 146.186C2.60054 147.446 3.84549 148.407 5.28748 148.943C6.94795 149.672 8.74047 150.053 10.5541 150.062C12.894 150.041 15.1887 149.414 17.2139 148.242C21.7006 145.725 26.3973 142.932 30.1725 138.934C36.4786 132.256 43.0853 125.413 49.8088 118.588C55.7474 112.56 61.854 106.496 67.7599 100.631C83.9524 84.5505 100.697 67.9209 115.81 50.2382C117.432 48.3394 118.799 47.0819 121.633 48.199L121.83 48.2758L122.032 48.2266C122.639 48.0789 123.294 47.9464 123.976 47.8079C125.718 47.5013 127.43 47.0465 129.095 46.4486C132.212 45.3083 135.016 43.4505 137.281 41.0253C139.547 38.6001 141.209 35.6758 142.135 32.4889C143.434 28.354 144.361 24.2072 145.096 20.6964C146.309 14.9108 148.364 11.4106 151.968 8.99195C152.693 8.49326 153.307 7.84801 153.768 7.09775C154.081 6.61896 154.288 6.07727 154.37 5.51062C154.453 4.94396 154.411 4.36604 154.247 3.81738ZM8.4354 141.27C8.25885 141.047 8.13539 140.786 8.07422 140.509C8.01305 140.231 8.01574 139.943 8.08223 139.667C8.12417 138.643 8.38021 137.639 8.83387 136.721C9.28753 135.803 9.9287 134.989 10.716 134.334C14.045 131.436 17.2198 128.265 20.2908 125.199C21.6251 123.867 22.9595 122.535 24.3089 121.221C41.6126 104.371 58.9191 87.5251 76.2286 70.6828C76.394 70.5338 76.5679 70.394 76.7497 70.2647L76.8889 70.1603L80.8847 75.2319C80.714 75.4169 80.5506 75.5961 80.3918 75.7707C79.8457 76.368 79.3541 76.9068 78.8428 77.426L76.7471 79.5558C61.3752 95.1799 45.9988 110.801 30.6182 126.419L30.1352 126.908C25.9058 131.204 21.5319 135.647 16.1611 138.642C14.1511 139.762 12.0248 140.661 9.82015 141.321C9.60001 141.416 9.36156 141.46 9.122 141.452C8.88244 141.443 8.64793 141.381 8.4354 141.27ZM142.46 8.41509C139.332 12.4306 138.102 16.9474 136.91 21.3324C136.57 22.5795 136.22 23.8667 135.833 25.1091C135.179 27.3313 134.326 29.4898 133.285 31.5589C130.686 36.5319 125.547 38.9578 119.878 37.8906C118.31 37.5952 116.748 37.263 115.284 36.9473C112.109 36.2641 110.864 34.6418 111.12 31.5222C111.212 30.0272 111.555 28.5584 112.134 27.1772C117.078 16.1343 124.564 10.0192 135.021 8.48335C136.001 8.34874 136.99 8.28645 137.98 8.29702C138.82 8.29702 139.696 8.32708 140.629 8.36252C141.225 8.38024 141.834 8.40065 142.461 8.41509H142.46ZM110.749 44.5431L87.8569 68.3744L83.428 63.3859L105.461 40.0946L110.749 44.5431Z" fill="black"/>
</g>
<defs>
<clipPath id="clip0_8_2892">
<rect width="154.896" height="150.301" fill="white"/>
</clipPath>
</defs>
</svg>
