<svg width="132" height="158" viewBox="0 0 132 158" fill="none" xmlns="http://www.w3.org/2000/svg">
<g clip-path="url(#clip0_8_2894)">
<path d="M0.0300293 85.206C0.0300293 69.0424 0.0355148 52.8787 0.0464538 36.7153C0.0536735 33.3496 0.15802 29.9767 0.412679 26.6215C0.729037 22.4518 3.13972 19.348 6.07552 16.6412C9.77133 13.2335 14.2718 11.1753 18.9082 9.43209C27.3592 6.25541 36.2054 4.61645 45.0883 3.41929C55.3094 2.04098 65.5857 0.894322 75.8752 0.268835C81.54 -0.0737735 87.3197 0.574031 92.98 1.30125C99.5289 2.14202 106.054 3.34058 112.493 4.80487C116.917 5.75564 120.987 7.9252 124.241 11.0683C127.326 14.0822 128.817 17.6519 128.355 21.9818C128.065 24.8875 128.341 27.8219 129.168 30.6225C130.791 36.4055 130.786 42.3671 130.694 48.3332C130.607 54.0434 130.563 59.7634 130.794 65.4669C131.795 89.8168 132.438 114.167 131.283 138.529C130.955 145.446 129.692 147.723 123 149.731C117.192 151.419 111.275 152.714 105.292 153.604C86.6227 156.536 67.8337 158.039 48.9258 157.064C37.7248 156.486 26.4949 156.079 15.4468 153.833C11.6124 152.978 7.92755 151.554 4.51415 149.609C3.61601 149.145 2.84961 148.462 2.28611 147.623C1.72261 146.784 1.38027 145.816 1.29087 144.809C1.19609 143.803 1.16739 142.792 1.2049 141.782C1.02988 122.924 0.854824 104.064 0.679798 85.2021L0.0300293 85.206ZM122.404 79.4815C122.1 79.4815 121.931 79.4362 121.891 79.4887C121.42 80.1063 120.958 80.7311 120.513 81.3691C115.345 88.812 109.127 94.9408 100.188 97.6922C99.7514 97.7723 99.3465 97.9731 99.0183 98.2711C97.3243 100.49 94.9746 100.356 92.5803 100.209C91.1239 100.107 89.6635 100.081 88.2045 100.131C78.5924 100.539 69.0302 101.196 59.4253 99.2681C51.3773 97.6535 43.3155 96.3113 35.9068 92.5787C24.6893 86.9263 16.1759 78.2948 9.10121 68.0966C8.68352 67.5532 8.23681 67.032 7.763 66.5365C8.44034 92.5813 9.11375 118.471 9.80093 144.867C11.9216 145.466 14.3348 146.508 16.8335 146.785C24.7411 147.666 32.6742 148.339 40.6087 148.955C65.1807 150.863 89.4699 148.363 113.621 144.035C116.653 143.491 119.774 142.928 122.402 141.098L122.404 79.4815ZM121.432 54.0675C117.478 55.287 114.159 53.7316 111.079 51.5473C107.776 49.2049 105.772 49.1266 102.475 53.0154C101.041 54.7068 100.071 56.7873 98.8516 58.6658C95.4833 63.8508 90.9552 64.9424 85.5759 61.8898C82.5692 60.1833 80.4617 57.6238 78.5104 54.8246C75.6743 50.7592 73.6535 50.8771 71.1036 55.1754C70.3318 56.5365 69.7187 57.9819 69.277 59.483C68.7086 61.2938 68.4697 63.2092 67.8856 65.0135C67.0284 67.6654 66.3878 70.5028 64.9582 72.8334C60.2864 80.4515 52.9965 80.0275 47.4406 75.5894C44.4571 73.1471 42.4241 69.7368 41.6956 65.9504C41.1627 63.5444 40.8877 61.076 40.2563 58.6994C39.7973 56.7476 39.0725 54.8679 38.1022 53.1132C36.8499 51.0129 35.0896 50.6194 32.8745 51.6932C31.3599 52.4149 29.9474 53.3336 28.6739 54.4258C23.9654 58.5503 18.6516 58.9908 12.9146 57.3053C11.9957 57.0362 11.0769 56.7915 9.97158 56.4836C9.97841 56.9023 10.0423 57.318 10.1613 57.7194C21.5074 77.9732 38.0838 90.4121 61.7816 92.1219C62.6808 92.1875 63.6384 91.7012 64.5382 91.3894C66.0826 90.8551 67.5745 89.8654 69.1392 89.7486C76.5217 89.2044 83.9186 88.8533 91.3142 88.5166C94.3583 88.3781 97.4182 88.4339 99.1148 91.5594C113.443 85.4889 121.56 63.7997 121.432 54.0675ZM7.04293 24.8035C8.50854 25.8182 9.75564 26.9694 11.2245 27.6258C13.1469 28.5475 15.191 29.1901 17.2949 29.5343C25.1828 30.5681 33.0858 31.5349 41.0078 32.2496C57.3356 33.7736 73.7703 33.7613 90.0961 32.2129C98.3003 31.4115 106.289 29.7049 113.593 25.6744C115.472 24.6788 117.23 23.4697 118.832 22.0711C121.252 19.8756 121.155 18.4068 118.635 16.2428C117.459 15.199 116.132 14.341 114.697 13.6983C112.02 12.5694 109.3 11.3355 106.474 10.8065C97.22 9.07767 87.9328 7.46367 78.6075 6.17988C74.0847 5.55702 69.3689 5.1521 64.8782 5.72705C54.4424 7.06205 44.0499 8.87289 33.7067 10.8393C26.7295 12.0588 20.022 14.4991 13.8925 18.0484C11.2889 19.6079 8.80914 21.3334 7.04293 24.8035ZM6.13064 32.0009C6.39317 37.3829 6.57234 42.1834 6.90313 46.976C7.06269 47.8619 7.46929 48.6844 8.07608 49.3492C11.9242 54.1687 19.8206 55.0188 24.7175 51.2422C26.3528 49.8808 28.1 48.6598 29.9407 47.5923C34.7772 45.0286 39.6669 46.1567 42.503 50.841C44.0283 53.3607 44.7739 56.3851 45.6632 59.2468C46.4574 61.8065 46.8138 64.4974 47.6421 67.0452C48.0213 68.3441 48.6744 69.5471 49.5575 70.5723C50.4406 71.5975 51.5331 72.4219 52.7615 72.989C55.6927 74.3325 58.0418 74.0023 59.8834 71.4013C61.0398 69.6298 61.9155 67.6897 62.4792 65.6505C63.3429 62.8756 63.7919 59.9732 64.5907 57.1752C65.4384 53.8832 67.3546 50.9656 70.0384 48.8793C73.3929 46.3419 76.7527 46.521 79.7115 49.4988C80.9625 50.7583 81.7888 52.4378 83.028 53.7125C84.6485 55.5346 86.4796 57.1577 88.4834 58.5472C90.9952 60.1171 92.8619 59.4771 94.5158 57.0486C95.27 55.9414 95.7767 54.6604 96.5643 53.5814C97.8605 51.6251 99.3301 49.7887 100.955 48.0948C104.197 45.0166 108.269 44.7786 112.077 47.0994C113.225 47.799 114.32 48.6022 115.523 49.1863C118.449 50.606 121.547 49.071 121.627 45.8963C121.758 40.7592 121.483 35.6114 121.37 30.0194C119.377 31.0328 117.807 31.8256 116.242 32.6276C105.574 38.0916 93.9921 39.3571 82.2837 39.8592C67.0245 40.5246 51.7375 40.0755 36.544 38.5151C26.4226 37.4702 16.1496 37.0108 6.13064 32.0009Z" fill="black"/>
</g>
<defs>
<clipPath id="clip0_8_2894">
<rect width="131.924" height="157.521" fill="white"/>
</clipPath>
</defs>
</svg>
