<svg width="95" height="154" viewBox="0 0 95 154" fill="none" xmlns="http://www.w3.org/2000/svg">
<g clip-path="url(#clip0_8_2890)">
<path d="M64.9768 98.5095C64.8314 99.4376 64.7407 100.374 64.7051 101.312C64.8692 107.818 65.2158 114.323 65.2256 120.828C65.2348 127.548 65.0319 134.274 64.7005 140.986C64.4893 142.992 63.9785 144.955 63.1851 146.81C62.794 147.932 62.1704 148.958 61.3553 149.823C60.5402 150.687 59.5518 151.37 58.4548 151.826C53.7545 153.824 48.4857 154.034 43.6412 152.417C39.7912 151.163 37.2748 148.299 36.9643 144.3C36.4747 138.057 36.3145 131.773 36.3664 125.509C36.4222 118.782 36.8915 112.059 37.1606 105.333C37.2092 104.13 37.1678 102.923 37.1678 101.222C35.4396 101.222 34.1329 101.287 32.836 101.209C27.8104 100.895 22.7192 100.935 17.7796 100.093C10.6551 98.8823 6.21293 94.4166 4.88647 87.2035C4.29971 84.011 3.95053 80.7714 3.59086 77.5415C2.97128 71.9784 2.14693 66.4192 1.90999 60.8372C1.32585 47.0541 1.02459 33.252 0.613062 19.4578C0.51658 16.2063 0.326246 12.9515 0.395818 9.7033C0.509727 8.39804 0.858145 7.12402 1.42431 5.94248C2.64641 2.98896 4.93308 2.22566 8.08879 2.14755C18.2902 1.89486 28.4785 1.15249 38.6793 0.830228C48.8801 0.507964 59.0868 0.463471 69.291 0.298074C73.6675 0.227189 78.0433 0.114923 82.4178 0.10114C86.409 0.091295 88.0019 1.18277 88.6635 5.17462C89.48 9.81304 89.9749 14.5024 90.1442 19.2091C90.5072 33.4694 91.2652 47.6824 93.6353 61.7727C93.8079 62.7683 93.9011 63.776 93.9136 64.7864C93.9411 69.8197 93.9306 74.8538 93.9214 79.8873C93.9214 80.6749 93.8558 81.4572 93.825 82.2422C93.5572 88.715 90.2295 92.9123 84.2313 95.1058C79.1473 96.9133 73.8263 97.9674 68.4378 98.2359C67.3345 98.312 66.2391 98.4117 64.9768 98.5095ZM69.1302 18.5679C67.4238 22.2867 67.7126 25.6018 67.1553 28.7601C66.495 32.5013 65.9549 36.3192 64.7268 39.8857C63.2054 44.3068 58.8394 45.5302 54.8023 43.1674C53.716 42.5617 52.7718 41.7307 52.0328 40.7305C51.2937 39.7302 50.7769 38.5836 50.517 37.3673C49.8213 34.0916 49.4787 30.7383 49.0239 27.4146C48.7508 25.42 48.6603 23.3932 48.2567 21.4288C48.136 21.0757 47.9303 20.7576 47.6578 20.5027C47.3853 20.2478 47.0543 20.064 46.6939 19.9672C46.2154 19.9187 45.3812 20.7403 45.1541 21.3454C44.4426 23.2278 43.9766 25.2021 43.3524 27.1213C42.6961 29.1375 41.6729 30.7908 39.2734 31.0593C36.8174 31.3369 34.7406 30.5998 33.447 28.5166C32.5793 27.1179 32.1344 25.4542 31.5253 23.8987C31.1131 22.844 30.7468 21.7714 30.3602 20.7069L29.4414 20.8597C29.1073 22.7 28.8963 24.5606 28.81 26.4288C28.8631 30.1273 29.3896 33.8269 29.3016 37.5169C29.2128 40.7495 28.8098 43.9658 28.0986 47.1205C27.9055 48.2461 27.3604 49.2815 26.5417 50.0779C25.7229 50.8741 24.6728 51.3903 23.5422 51.5521C20.8151 51.9623 18.8468 50.4599 17.7566 48.3111C16.4755 45.7081 15.4935 42.9684 14.8293 40.1443C14.0798 37.1055 13.8646 33.9393 13.2798 30.8538C12.9778 29.2609 12.8531 27.477 11.1952 26.545C7.74218 28.0421 7.35435 28.5002 7.4889 31.6933C7.71553 37.0753 7.99533 42.4529 8.32829 47.8262C8.63283 52.6404 9.04632 57.4479 9.42765 62.2576C9.65737 65.1514 9.96264 65.4285 12.9122 65.5735C13.136 65.584 13.3612 65.5851 13.5856 65.5819C24.133 65.4381 34.6856 65.4508 45.2264 65.1088C58.0092 64.6973 70.7829 63.9929 83.5565 63.3963C84.3448 63.3043 85.1265 63.1598 85.8957 62.9633C85.1613 52.4343 84.4406 42.1007 83.7114 31.6439C79.7078 32.043 76.4333 31.142 73.571 28.9177C70.4574 26.4977 71.1465 22.3674 69.1283 18.5685L69.1302 18.5679ZM9.40337 71.2965C9.73718 76.2873 10.5428 81.2347 11.8096 86.0733C12.8643 90.0828 15.3078 92.4962 19.3324 93.3199C20.6416 93.6165 21.9711 93.8141 23.3099 93.9106C28.0151 94.1495 32.7244 94.3044 37.4323 94.4901C40.168 94.5965 41.8469 95.9997 42.3549 98.6651C42.8326 100.738 43.1345 102.847 43.2573 104.971C43.4024 113.156 43.319 121.346 43.4621 129.531C43.5329 133.563 43.7942 137.604 44.2155 141.611C44.3586 142.965 44.9061 144.696 45.8879 145.459C48.1602 147.217 50.9482 146.949 53.6327 146.231C55.9167 145.621 56.4839 143.717 56.5396 141.788C56.7333 135.072 56.9406 128.348 56.8021 121.638C56.6341 113.565 56.0887 105.505 55.7802 97.4358C55.745 96.2065 55.9186 94.9791 56.2935 93.8069C57.0378 91.4585 58.7128 90.5396 61.199 90.6781C62.5188 90.7346 63.8411 90.6755 65.1508 90.5022C67.3759 90.2338 69.6054 89.943 71.8009 89.5026C75.4331 88.8601 79.0298 88.0357 82.5793 87.0315C83.9116 86.6213 85.5118 85.3355 85.9515 84.0832C87.5189 79.6293 87.6501 74.9601 87.2714 69.8512C85.5695 69.8512 84.2523 69.8033 82.9396 69.8584C70.0517 70.4012 57.1677 71.0641 44.2766 71.4802C35.8754 71.7513 27.4704 71.7165 19.0667 71.7244C15.9524 71.7257 12.8459 71.4573 9.39877 71.2971L9.40337 71.2965ZM37.5274 27.2033L38.3505 27.1875C38.7443 26.203 39.1854 25.2376 39.5129 24.234C40.0681 22.5275 40.4174 20.7481 41.0881 19.0968C42.263 16.2207 44.1912 15.248 47.28 15.7862C49.7701 16.2194 51.6952 17.5381 52.6358 19.9002C53.174 21.3692 53.5404 22.8954 53.7279 24.4486C54.2307 27.8871 54.4741 31.3689 55.1061 34.7819C55.4429 36.2978 56.1076 37.7216 57.0535 38.9531C57.8641 40.0551 59.1256 39.8981 59.7583 38.5887C60.3734 37.3921 60.8018 36.1082 61.0283 34.7819C61.6059 30.6778 61.9977 26.5482 62.4991 22.4323C62.801 19.9573 63.3642 17.5551 65.0877 15.6209C67.4664 12.9509 70.6667 12.8938 72.9062 15.6563C73.8237 16.9208 74.5516 18.3122 75.0681 19.7866C75.5276 20.9195 75.6234 22.1922 75.9982 23.3651C77.0621 26.6901 79.4525 27.3293 82.1421 25.191C82.6889 24.8061 83.1253 24.2839 83.4062 23.6769C83.6872 23.0699 83.8033 22.3995 83.743 21.7334C83.5946 18.8212 83.59 15.8998 83.3872 12.9922C83.233 10.7974 82.8621 8.61719 82.5635 6.23203C56.7345 4.29649 31.4052 6.57854 5.69707 7.52498C6.15126 12.6713 6.56937 17.4081 7.00977 22.4311C7.84004 22.1908 8.34863 22.0373 8.86058 21.8975C12.5965 20.8729 15.2481 21.8863 17.0202 25.2743C17.779 26.7733 18.333 28.3673 18.6676 30.0137C19.4414 33.6327 19.9711 37.303 20.7219 40.9266C21.0619 42.5674 21.692 44.1501 22.1901 45.7594C24.0614 43.2699 24.1664 40.7756 23.9229 38.1916C23.5547 34.2851 23.1025 30.3747 23.0112 26.4584C22.9351 23.199 23.3395 19.9205 25.5192 17.2223C28.2758 13.8093 32.2439 14.0792 34.2543 17.9857C35.2112 19.8451 35.5532 22.0156 36.2326 24.024C36.5975 25.1076 37.0884 26.1459 37.5229 27.2039L37.5274 27.2033Z" fill="black"/>
</g>
<defs>
<clipPath id="clip0_8_2890">
<rect width="94.5126" height="153.583" fill="white"/>
</clipPath>
</defs>
</svg>
