<svg width="138" height="151" viewBox="0 0 138 151" fill="none" xmlns="http://www.w3.org/2000/svg">
<g clip-path="url(#clip0_8_2532)">
<path d="M54.4915 82.0518C67.4037 69.2298 81.4257 57.0536 93.556 46.645C99.0708 41.8887 104.121 36.6207 108.642 30.9112C109.05 30.4016 109.581 29.7219 110.074 28.9917C110.589 28.3446 110.851 27.5331 110.812 26.7073C110.775 25.8814 110.438 25.0975 109.866 24.5008C109.36 23.9127 108.659 23.5275 107.892 23.4161C107.124 23.3047 106.342 23.4748 105.69 23.8949C104.386 24.5968 103.146 25.4139 101.986 26.3362C98.2499 29.3855 94.5753 32.4921 91.4743 35.1293C74.6363 49.4109 58.5684 64.5755 43.3378 80.5593C40.7392 83.293 38.3776 86.3188 36.0934 89.2431C35.0675 90.5572 34.0064 91.9156 32.9408 93.2264C29.759 97.1387 28.4687 101.913 28.996 107.824C29.5168 113.66 32.4599 118.958 36.8667 121.996C40.9384 124.804 45.9629 125.48 51.397 123.949C55.7986 122.766 59.9211 120.721 63.5253 117.931C64.5815 117.094 65.6429 116.259 66.7085 115.427C71.7207 111.496 76.9094 107.433 81.4693 102.865C93.3164 91.0057 105.131 78.718 116.555 66.8405C119.68 63.5915 122.805 60.3443 125.933 57.0991C129.417 53.5298 132.265 49.3902 134.353 44.8597C138.081 36.6452 138.86 28.965 136.735 21.3799C134.513 13.4498 129.23 6.65283 122.602 3.19804C116.288 -0.0953215 108.843 -0.39858 101.08 2.31486C94.4009 4.69165 88.1063 8.03481 82.3975 12.2378C70.0127 21.1826 60.516 29.0542 52.5101 37.0097C39.542 49.8968 26.4391 63.0825 13.7685 75.8328L11.2241 78.3933C6.4208 83.2266 3.586 88.1972 2.55621 93.5902C1.97817 96.62 1.57057 99.7259 1.1774 102.729C0.999696 104.083 0.822757 105.437 0.630076 106.787C0.609387 106.932 0.636964 107.081 0.708582 107.208C0.780205 107.336 0.891829 107.438 1.02642 107.496C1.02642 107.675 1.02109 107.855 1.01848 108.035C1.00481 108.887 0.991046 109.769 1.04963 110.646C1.09585 111.343 1.21042 112.03 1.32043 112.694C1.39138 113.123 1.46318 113.552 1.51591 113.984C3.22529 128.001 10.7866 139.035 23.9903 146.781C28.2958 149.281 33.1974 150.569 38.1757 150.509C39.3764 150.507 40.5762 150.442 41.7702 150.314C49.3992 149.515 56.1867 146.464 61.8194 143.585C71.8216 138.537 81.1815 132.307 89.6991 125.029C98.5923 117.343 107.413 109.278 115.942 101.483C118.119 99.4929 120.297 97.5045 122.476 95.5168C125.772 92.5137 128.868 89.3896 132.285 85.9094C133.368 84.8361 134.256 83.5832 134.91 82.2054C136.012 79.7562 135.756 77.5003 134.184 75.8536C132.346 73.9251 130.066 73.4324 127.931 74.5044C126.067 75.3479 124.325 76.4387 122.752 77.7463C114.104 85.5833 105.602 93.4744 98.425 100.16C90.1672 107.852 82.0148 115.293 73.0851 121.769C65.3467 127.38 56.8383 133.107 47.0559 136.981C37.3829 140.811 29.0605 138.957 21.617 131.318C15.7826 125.33 12.6496 118.587 12.0404 110.715C11.129 98.898 13.4963 91.1736 19.9673 84.8863C27.8093 77.2673 35.6494 69.3892 43.2316 61.7704C47.9301 57.0497 52.788 52.1676 57.5965 47.3974C65.5778 39.4803 74.6318 31.8385 86.0903 23.3487C90.9151 19.7735 97.4362 15.3483 105.098 12.8418C109.375 11.4438 112.67 11.3215 115.788 12.4436C122.548 14.8798 128.031 24.2202 127.07 31.6621C126.25 38.0159 123.495 43.6824 118.65 48.9863C115.669 52.2503 112.586 55.4506 109.698 58.4238C106.704 61.5071 103.714 64.5962 100.729 67.6911C92.5607 76.1458 84.1147 84.8895 75.6257 93.3C70.9533 97.9302 65.7789 102.233 60.7759 106.395C59.7913 107.213 58.8073 108.034 57.8244 108.854C54.9061 111.32 51.5082 113.153 47.8454 114.238C44.1598 115.322 41.4435 114.312 39.77 111.237C37.5906 107.23 37.5196 103.605 39.5525 100.157C43.6379 93.2238 49.1453 87.3582 54.4915 82.0518Z" fill="black"/>
</g>
<defs>
<clipPath id="clip0_8_2532">
<rect width="138" height="151" fill="white"/>
</clipPath>
</defs>
</svg>
