<svg width="63" height="153" viewBox="0 0 63 153" fill="none" xmlns="http://www.w3.org/2000/svg">
<g clip-path="url(#clip0_8_2530)">
<path d="M54.7173 77.265C55.2915 62.7837 55.3862 48.3039 54.2581 33.851C53.9107 28.9667 53.1325 24.122 51.9324 19.3725C49.3842 9.60007 41.9534 4.81813 31.962 6.28628C28.8564 6.76254 25.817 7.59564 22.9055 8.7688C20.8059 9.60684 18.9245 10.9049 17.4018 12.5659C15.879 14.227 14.7542 16.2079 14.1118 18.3609C12.6707 22.6874 11.6184 27.132 10.9671 31.6426C8.66234 48.7597 7.05985 65.9417 7.54744 83.247C7.78632 91.7069 8.12947 100.164 8.38212 108.624C8.38527 109.843 8.2911 111.06 8.1002 112.263C8.0458 112.886 7.75436 113.465 7.28533 113.882C6.81625 114.299 6.20465 114.523 5.57482 114.509C4.9491 114.561 4.32492 114.395 3.80859 114.04C3.29226 113.686 2.91576 113.165 2.74315 112.566C2.54002 111.93 2.41716 111.271 2.37753 110.604C0.794654 94.7422 -0.317686 78.849 0.955442 62.923C1.87813 51.3907 3.11647 39.8753 4.56482 28.3964C5.14146 24.0985 6.23399 19.8844 7.81913 15.8438C10.5458 8.7837 15.7663 4.00747 23.2173 2.07837C27.0058 1.07063 30.88 0.411421 34.7905 0.108962C39.4825 -0.144573 44.1378 1.05543 48.1119 3.54294C52.0859 6.03045 55.1821 9.68237 56.9716 13.9929C58.7162 18.4473 59.9163 23.0934 60.5457 27.8313C62.4974 41.2002 62.7368 54.6753 62.2623 68.1644C61.7104 83.8583 61.2937 99.5587 60.5652 115.245C60.2614 121.791 59.3059 128.307 58.6391 134.837C58.59 135.28 58.5075 135.718 58.3924 136.149C55.7018 146.521 48.6274 152.13 37.7711 152.412C35.7544 152.533 33.7302 152.44 31.7335 152.134C22.8649 150.446 17.0335 145.635 16.1469 134.686C15.3686 125.06 15.6391 115.327 15.8524 105.648C16.1339 92.8463 16.6977 80.047 17.3572 67.2575C17.81 58.4885 17.7567 49.6223 20.1645 41.081C21.0871 37.7644 22.4465 34.583 24.2078 31.6191C27.0894 26.8384 31.8202 25.4073 38.0723 27.0558C41.412 27.9367 43.0465 30.4563 43.5761 33.5938C44.4463 38.7476 45.2975 43.9235 45.7483 49.1255C46.9539 63.0225 46.4645 76.9453 46.0688 90.8657C45.885 97.3204 46.0193 103.784 45.9826 110.244C46.0146 111.241 45.9244 112.238 45.7138 113.213C45.5095 114.065 45.0114 114.82 44.3061 115.347C43.6007 115.874 42.7321 116.141 41.85 116.1C40.9678 116.059 40.1278 115.715 39.4745 115.126C38.8213 114.536 38.3957 113.739 38.2716 112.871C38.153 111.878 38.1246 110.875 38.1864 109.876C38.3866 93.8385 38.8374 77.7995 38.7036 61.7628C38.6333 53.3256 37.5657 44.895 36.8976 36.4657C36.788 35.077 36.8976 33.4433 35.0103 32.9498C33.386 32.526 31.6789 33.3099 30.5476 35.2C27.9928 39.5527 26.5323 44.4518 26.2893 49.483C25.4768 63.1553 24.8324 76.8353 24.2385 90.5181C23.8133 100.307 23.4963 110.101 23.2881 119.899C23.1962 123.903 23.3991 127.918 23.5592 131.924C23.9143 140.797 29.0764 145.318 38.0034 144.634C38.7863 144.574 39.5673 144.469 40.3436 144.347C45.9624 143.463 50.0665 140.722 51.0403 134.861C51.9695 129.605 52.6048 124.301 52.9434 118.975C53.6948 105.087 54.149 91.173 54.7173 77.265Z" fill="black"/>
</g>
<defs>
<clipPath id="clip0_8_2530">
<rect width="63" height="153" fill="white"/>
</clipPath>
</defs>
</svg>
