<svg width="134" height="160" viewBox="0 0 134 160" fill="none" xmlns="http://www.w3.org/2000/svg">
<g clip-path="url(#clip0_8_2534)">
<path d="M35.9904 8.82237C36.398 4.3916 39.0086 2.2556 43.1074 1.95714C51.3354 1.35898 59.5695 0.784232 67.811 0.453153C73.9992 0.206999 80.206 0.443891 86.4004 0.297429C91.539 0.174352 95.5987 1.55771 97.0596 6.77616C101.83 6.77616 106.355 6.71462 110.878 6.78847C123.502 6.99831 131.388 13.8248 132.291 26.3578C133.174 38.5947 133.536 50.8943 133.488 63.1641C133.423 79.9555 132.828 96.7475 132.309 113.534C132.119 119.666 131.616 125.795 131.029 131.904C129.867 143.994 118.083 159.014 100.321 159.02C75.6513 159.029 50.9829 159.451 26.3108 159.61C23.8312 159.563 21.3632 159.259 18.947 158.705C6.98752 156.256 0.278875 148.078 0.279495 135.883C0.279495 122.16 0.391105 108.433 0.469272 94.7081C0.573494 76.4816 0.426502 58.2482 0.955679 40.0335C1.13124 33.9922 2.63874 27.8826 4.29017 22.0131C6.77597 13.1823 11.7123 9.50299 21.1382 8.88022C25.9541 8.56022 30.8122 8.82237 35.9904 8.82237ZM36.8515 14.3098C30.4239 15.0482 24.5893 15.6119 18.7894 16.4248C15.9357 16.8248 13.6242 18.6039 12.9635 21.3516C11.2935 28.2944 8.73076 35.335 8.77914 42.3214C9.00186 74.4835 9.93992 106.638 8.33192 138.794C8.02173 144.993 11.7241 150.002 17.854 151.501C21.9454 152.552 26.1468 153.123 30.3724 153.203C42.0403 153.264 53.7126 152.988 65.3798 152.697C77.9677 152.383 90.5613 152.07 103.131 151.379C106.502 151.194 110.432 150.461 112.995 148.53C118.726 144.214 123.257 138.706 123.749 130.985C124.074 125.882 124.703 120.791 124.839 115.686C125.226 101.248 125.572 86.8066 125.663 72.3629C125.755 57.8315 125.741 43.2919 125.324 28.7688C125.15 22.7153 122.979 16.7688 116.263 15.2131C110.765 13.9411 104.905 14.2063 99.0119 13.7762C99.0988 15.0414 99.1286 15.6451 99.1832 16.2464C99.6795 21.7658 97.8804 24.4753 92.5402 26.063C90.7896 26.6823 88.9713 27.0921 87.1226 27.2839C72.9992 27.9701 58.8728 28.6255 44.7408 29.0876C40.923 29.2107 38.7567 26.5983 38.2889 22.5835C37.9856 19.978 37.3999 17.4033 36.8497 14.3098H36.8515ZM69.4339 5.99589C69.4209 5.83466 69.4073 5.67343 69.3942 5.5122C61.59 6.13333 53.7856 6.75247 45.9809 7.36945C43.5757 7.55407 42.7885 8.73437 43.3387 11.0618C43.8759 13.0363 44.2118 15.0594 44.3413 17.1005C44.4114 19.5621 45.5913 20.2728 47.8327 20.2593C55.2641 20.2138 62.7023 20.4359 70.1256 20.1904C76.5031 19.9799 82.8594 19.2058 89.2331 18.8088C91.8665 18.6451 92.2729 17.3436 91.7673 15.1393C91.3014 13.2512 90.9657 11.3337 90.7635 9.40022C90.5414 6.85745 89.3553 5.89252 86.7603 5.95405C80.9883 6.09128 75.2096 5.99589 69.4339 5.99589Z" fill="black"/>
</g>
<defs>
<clipPath id="clip0_8_2534">
<rect width="134" height="160" fill="white"/>
</clipPath>
</defs>
</svg>
