<svg width="71" height="104" viewBox="0 0 71 104" fill="none" xmlns="http://www.w3.org/2000/svg">
<g clip-path="url(#clip0_8_2536)">
<path d="M11.2303 8.37112C11.1793 6.77491 10.9515 5.18929 10.5509 3.64309C10.3521 2.7254 9.8391 1.90545 9.10018 1.32422C8.36132 0.742974 7.44255 0.436722 6.50193 0.458077C4.5478 0.534127 3.17992 1.73269 2.64774 3.83154C2.23656 5.59723 1.99835 7.39865 1.93645 9.21033C1.82702 11.3423 1.71282 13.475 1.59383 15.6083C1.23166 22.2324 0.857141 29.0828 0.722958 35.8298C0.444818 49.8347 0.397261 63.9501 0.390747 77.1186C0.439278 84.7236 1.41191 92.2948 3.28739 99.6665C3.58533 100.54 4.07107 101.339 4.71064 102.006C5.03633 102.411 5.37898 102.831 5.7242 103.324C5.78585 103.412 5.86797 103.484 5.96358 103.534C6.05919 103.584 6.16548 103.61 6.27333 103.61H6.28832C6.39867 103.607 6.50664 103.578 6.60267 103.523C6.69868 103.469 6.77978 103.392 6.83873 103.299C7.18852 102.746 7.46079 102.36 7.66402 102.072C7.97251 101.728 8.18284 101.308 8.27306 100.856C8.92443 93.9881 9.46892 87.921 9.94182 82.3037C11.2863 66.3429 11.3827 50.0933 11.4759 34.3776C11.4972 30.8208 11.523 27.2638 11.5533 23.7066C11.5989 19.0559 11.4355 14.333 11.2785 9.76543L11.2303 8.37112Z" fill="black"/>
<path d="M68.1588 3.79136C67.723 2.66166 65.7116 2.19238 64.731 2.19238C63.7142 2.19238 62.4825 3.36819 62.2258 4.29314C61.7564 6.04853 61.4911 7.85203 61.435 9.668L61.1504 16.753C60.6645 28.8196 60.1616 41.2977 59.8209 53.5762C59.5675 62.708 59.3057 72.1499 60.7667 81.6022C61.6357 87.2241 62.8388 92.7731 64.0086 97.9308L64.0451 98.092C64.3389 99.4148 64.8313 101.628 68.2949 101.657H68.3008C68.478 101.657 68.648 101.587 68.7737 101.462C68.8994 101.337 68.9698 101.167 68.9704 100.99C68.9704 99.5422 68.9587 98.118 68.9476 96.7114C68.9222 93.5596 68.8981 90.5819 68.9997 87.5692C69.087 84.9887 69.2551 82.3627 69.4186 79.8232C69.6055 76.919 69.7983 73.9159 69.8745 70.9532C70.1266 60.7158 70.4256 47.2282 70.5005 33.6699C70.5383 26.7682 70.3618 19.3595 69.9612 11.0187C69.7397 8.53089 69.1313 6.09255 68.1588 3.79136Z" fill="black"/>
</g>
<defs>
<clipPath id="clip0_8_2536">
<rect width="71" height="104" fill="white"/>
</clipPath>
</defs>
</svg>
