<svg width="137" height="161" viewBox="0 0 137 161" fill="none" xmlns="http://www.w3.org/2000/svg">
<g clip-path="url(#clip0_8_2293)">
<path d="M121.983 44.0184C120.793 43.3686 119.593 42.7319 118.338 42.0638L116.858 41.2764C116.858 39.9486 116.881 38.6809 116.901 37.4575C116.946 34.6911 116.988 32.0756 116.818 29.4994C115.882 15.3225 105.169 0.321564 87.144 0.321564H86.9379C84.9505 0.334691 82.9343 0.304919 80.9804 0.276697C77.8529 0.23141 74.6191 0.184758 71.4339 0.306181C58.0297 0.817467 42.4417 1.43908 27.0657 2.32711C21.3083 2.65922 20.6887 3.58484 19.4463 9.1972C18.9428 11.4694 18.5838 13.8018 18.2366 16.0576C18.0778 17.0947 17.9176 18.1325 17.7444 19.1663L13.4703 44.632C9.0689 70.8516 4.67561 97.073 0.290405 123.296C-0.137527 125.856 0.100693 127.603 1.0386 128.786C1.94959 129.936 3.50513 130.545 5.93161 130.702C7.1537 130.752 8.37777 130.711 9.59397 130.581C10.396 130.515 11.2257 130.45 12.029 130.437C14.8198 130.401 17.6079 130.407 20.5614 130.416C21.584 130.416 22.6256 130.42 23.6914 130.421C23.656 130.854 23.6258 131.275 23.595 131.677C23.5287 132.86 23.403 134.039 23.2182 135.21C22.8421 137.333 22.4201 139.487 22.0112 141.572C21.5295 144.033 21.0314 146.577 20.6041 149.094C20.0974 152.083 20.2568 153.8 21.1534 155.022C22.0152 156.198 23.5313 156.859 26.2236 157.229C36.1632 158.601 45.346 159.657 54.2958 160.453C55.0605 160.519 55.7654 160.557 56.4171 160.557C61.2924 160.557 63.1649 158.534 64.2728 152.763C65.2573 147.644 65.9181 142.39 66.5586 137.306C66.7214 136.015 66.8862 134.724 67.0516 133.433C67.7506 128.065 68.4115 122.587 69.0514 117.287C69.3139 115.112 69.5785 112.932 69.8443 110.747L74.5456 110.389C78.12 110.115 81.4555 109.86 84.7937 109.621C98.1639 108.667 108.038 106.191 116.808 101.594C123.673 98.0516 129.202 92.3762 132.565 85.4223C135.928 78.4677 136.944 70.6094 135.459 63.0285C133.795 54.391 129.26 47.9938 121.983 44.0184ZM11.9489 106.195C12.47 103.822 13.0096 101.369 13.3784 98.931C14.1509 93.832 15.1157 88.6685 16.0484 83.6751C16.4593 81.4757 16.8701 79.2777 17.2666 77.077L18.3449 71.0767C19.2538 66.0085 20.1713 60.9427 21.0976 55.8779C21.9674 51.158 22.8522 46.4411 23.7518 41.7273C24.2362 39.1671 24.7193 36.6072 25.201 34.048C26.1547 28.9712 27.1044 23.8939 28.102 18.5638L29.3235 12.035C29.9798 11.974 30.5987 11.9089 31.1934 11.8472C32.6898 11.6904 33.9822 11.5547 35.283 11.5376C49.5505 11.3512 64.0562 11.2001 78.0853 11.0544L83.7954 10.9954C84.644 10.9895 85.5019 11.0269 86.4477 11.0755C93.334 11.4299 99.0113 14.3505 102.434 19.2986C105.936 24.361 106.707 30.9506 104.624 37.9084C103.806 37.8192 102.983 37.7157 102.155 37.6114C99.8835 37.2791 97.5949 37.0816 95.2997 37.0204C77.5832 36.8964 64.072 36.9003 51.4952 37.0335C44.8104 37.1038 43.3908 38.1974 41.3712 44.8362C36.0706 62.258 31.7998 81.7048 27.9334 106.037C27.5074 108.714 27.0316 111.402 26.5268 114.249C26.3096 115.479 26.0858 116.743 25.8567 118.055C25.1391 118.158 24.4257 118.261 23.7164 118.365C21.6922 118.659 19.7784 118.937 17.8218 119.173C16.0208 119.391 14.2527 119.558 12.2055 119.75C11.4947 119.816 10.7616 119.887 9.99171 119.961C9.97071 115.198 10.9756 110.624 11.9489 106.195ZM102.76 47.7811C101.683 54.607 97.4905 58.988 90.2898 60.812C84.2456 62.306 78.1082 63.3908 71.9176 64.0584C65.6352 64.7804 59.3162 65.2654 52.632 65.7821C49.9581 65.9888 47.2244 66.2001 44.4094 66.4325L48.8397 45.5752C61.5976 43.6121 94.1524 44.9621 102.76 47.7811ZM41.8792 79.1543C45.5016 78.8438 49.0596 78.5596 52.5703 78.2787C61.4643 77.5686 69.8653 76.8965 78.3327 75.9008C84.1492 75.1257 89.877 73.7861 95.4336 71.9017C103.94 69.1707 109.749 63.5852 112.701 55.2963C113.043 54.3347 113.438 53.406 113.894 52.3303C114.044 51.9759 114.2 51.6084 114.359 51.2297C119.856 52.9822 123.239 56.4462 124.69 61.8039C127.959 73.8576 122.525 85.7938 111.47 90.8318C105.787 93.3318 99.8087 95.1 93.6798 96.095C88.5204 96.8925 83.3209 97.4031 78.1043 97.6236C76.1681 97.7411 74.2319 97.8586 72.3029 98.0043C62.1837 98.7702 61.7256 99.1745 60.0381 108.794C58.9604 114.941 57.9378 121.199 56.9533 127.255C56.2602 131.502 55.5601 135.748 54.8531 139.993C54.5059 142.048 54.072 144.108 53.6119 146.289C53.4229 147.186 53.2286 148.108 53.0324 149.064C46.2222 149.491 39.5853 148.929 32.5704 148.334L32.0453 148.29L41.8792 79.1543Z" fill="black"/>
</g>
<defs>
<clipPath id="clip0_8_2293">
<rect width="136.518" height="160.803" fill="white"/>
</clipPath>
</defs>
</svg>
