<svg width="154" height="153" viewBox="0 0 154 153" fill="none" xmlns="http://www.w3.org/2000/svg">
<g clip-path="url(#clip0_8_2551)">
<path d="M152.919 1.19123C150.663 -0.434315 148.241 0.0195515 146.107 0.416577C145.631 0.505665 145.158 0.594724 144.691 0.659925C124.836 3.40954 105.289 8.02965 86.3148 14.4577C74.6218 18.4506 63.1434 22.2503 52.2009 25.7519C48.0423 27.0818 45.3612 29.5124 43.7569 33.4C38.8185 45.3611 35.8607 55.6986 34.439 65.9309C34.3467 66.5952 34.2725 67.264 34.1978 67.9419C34.041 69.8321 33.7148 71.7049 33.2231 73.5377C32.7683 73.0987 32.3239 72.6732 31.895 72.2588C30.5032 70.9147 29.1885 69.6462 27.8383 68.4583C25.2287 66.164 23.4342 66.0052 20.4517 67.8128C19.4407 68.3867 18.5 69.0748 17.6485 69.8637C12.4067 75.018 7.17264 80.2238 2.0926 85.3374C1.24295 86.0791 0.618191 87.0417 0.28887 88.1172C-0.040451 89.1921 -0.0613736 90.3373 0.228269 91.4238C0.250898 91.5336 0.301275 91.6349 0.374536 91.7201C1.50387 93.0377 2.6526 94.4244 3.83067 95.8447C6.55976 99.1371 9.37789 102.535 12.4806 105.744C22.1625 115.763 32.862 126.576 46.1437 139.774C49.2731 142.884 52.6129 145.878 55.843 148.772C57.3317 150.107 58.8203 151.442 60.2947 152.792C60.4187 152.905 60.5813 152.968 60.7497 152.967H64.7534C64.8855 152.967 65.0147 152.929 65.1245 152.856C65.2343 152.783 65.3201 152.679 65.3708 152.558C65.4293 152.416 65.4774 152.261 65.5241 152.106C65.5599 151.956 65.6145 151.812 65.6872 151.676C68.393 149.314 71.1052 146.958 73.8239 144.61C77.1333 141.744 80.4381 138.871 83.7377 135.991C85.5149 134.434 87.3649 132.441 87.6072 129.467C87.6111 129.419 87.6098 129.37 87.6033 129.322C87.2323 126.675 85.4681 125.052 83.7618 123.481C82.4752 122.295 81.2529 121.169 80.5902 119.636L80.9086 119.474C81.4089 119.206 81.9255 118.968 82.4557 118.764C85.665 117.62 88.8789 116.486 92.0973 115.363C99.026 112.933 106.191 110.42 113.174 107.771C117.268 106.218 121.16 104.01 124.922 101.876L125.122 101.763C128.155 100.042 130.061 97.19 130.786 93.2889C131.371 90.1417 132.12 86.9081 133.012 83.6789C141.113 54.3559 147.348 31.9248 153.225 10.9503C154.276 7.2008 154.254 4.28159 153.153 1.48627C153.105 1.36768 153.024 1.26525 152.919 1.19123ZM89.4351 76.0457C87.6813 76.5867 85.7839 76.4337 84.1413 75.6177C82.4979 74.8017 81.2361 73.3859 80.6194 71.6674C79.1158 67.8754 80.5642 64.3957 84.3089 62.8025C86.2576 61.9822 88.3285 61.4832 90.439 61.3254C90.7015 61.306 90.9556 61.2964 91.2012 61.2964C92.5242 61.2135 93.829 61.6393 94.8446 62.4855C95.8466 63.4119 96.3502 64.878 96.343 66.8431C96.3281 70.8243 93.2292 74.9508 89.4344 76.0483L89.4351 76.0457ZM132.033 16.9147C129.91 18.9689 127.905 20.9088 125.981 22.9998C123.967 25.1948 121.854 27.3723 119.812 29.4801C117.002 32.3813 114.094 35.3813 111.384 38.4691C108.148 42.1534 105.155 45.9215 101.986 49.9111C100.696 51.5354 99.3938 53.1752 98.0623 54.824L97.3781 54.6192C96.549 54.3706 95.6887 54.1124 94.8309 53.8877C90.1278 52.7146 85.1673 53.1033 80.7071 54.9943C73.6075 57.8103 69.8797 64.1459 70.9785 71.5293C71.3658 74.3601 72.436 77.056 74.0981 79.3865C75.7603 81.7177 77.9657 83.615 80.5252 84.9165C82.9437 86.1037 85.6182 86.6834 88.3142 86.6046C91.0108 86.5259 93.6464 85.7912 95.9902 84.4646C99.6881 82.5576 102.693 79.5486 104.582 75.8591C107.527 70.018 107.295 64.8909 103.871 60.1847C103.773 60.0498 103.669 59.9194 103.564 59.789C103.218 59.4059 102.961 58.9515 102.812 58.4584C102.779 58.3674 102.747 58.2777 102.71 58.188C102.71 58.1499 102.71 58.1111 102.706 58.073C102.698 57.9921 102.698 57.9107 102.706 57.8297C102.729 57.7291 102.776 57.6353 102.842 57.5559C115.881 44.6394 128.925 31.7292 142.479 18.3143C142.383 19.015 142.237 19.7083 142.044 20.3892C140.232 26.2742 138.413 32.1568 136.586 38.0371C133.623 47.5876 130.56 57.4642 127.604 67.1962C125.895 72.8256 124.266 78.8571 122.763 85.1243C122.349 87.0869 121.481 88.9261 120.228 90.4981C118.975 92.07 117.371 93.3308 115.543 94.181C112.191 95.8421 109.056 97.3443 105.961 98.7685C102.972 100.146 99.8532 101.409 96.8407 102.632C89.3032 105.688 81.5148 108.846 74.8012 114.123L39.8705 79.5808C39.9121 79.1141 39.9356 78.6719 39.9596 78.2503C39.9608 77.4014 40.0771 76.5563 40.3058 75.7384C44.0668 64.9316 47.9461 53.9446 51.698 43.3198L54.7007 34.8138C60.0076 32.9843 65.3715 31.0825 70.5613 29.2426C92.7614 21.3705 115.697 13.2376 140.044 8.69536C137.388 11.7321 134.671 14.3608 132.032 16.914L132.033 16.9147ZM76.6349 128.884L62.2889 142.609C53.2568 135.572 14.5152 97.8601 9.06736 90.8015C12.4222 85.7828 19.2267 78.3058 23.3393 75.1141L23.4452 75.1787C23.7822 75.3679 24.0967 75.5938 24.3834 75.852C39.6651 90.9629 54.9366 106.083 70.1981 121.212L70.9921 121.993C73.0708 124.033 75.2171 126.139 76.6342 128.884H76.6349Z" fill="black"/>
</g>
<defs>
<clipPath id="clip0_8_2551">
<rect width="154" height="153" fill="white"/>
</clipPath>
</defs>
</svg>
