<svg width="150" height="142" viewBox="0 0 150 142" fill="none" xmlns="http://www.w3.org/2000/svg">
<g clip-path="url(#clip0_8_2539)">
<path d="M116.534 13.5735L120.8 9.53334C118.789 7.46382 116.296 7.35342 113.846 7.38215C110.647 7.46318 107.551 8.53109 104.982 10.4396C100.198 13.866 95.5279 17.4493 90.9717 21.1895C85.0643 26.0373 79.4709 31.2784 73.4473 35.9704C70.7524 38.0693 67.3515 39.2692 64.2386 40.8107C63.8164 41.0195 63.2023 40.8394 62.0898 40.8394C62.4089 39.4595 62.3789 38.0834 63.0083 37.1543C64.5258 34.913 66.0724 32.551 68.1003 30.8225C76.5813 23.5993 85.1192 16.4291 93.9028 9.58264C97.6758 6.6136 101.813 4.13862 106.213 2.2177C113.34 -0.833911 120.3 -0.164135 126.347 5.25328C129.102 4.31207 131.806 3.15627 134.624 2.4743C136.969 1.88374 139.438 2.02811 141.699 2.88773C143.959 3.74736 145.901 5.28083 147.262 7.28069C150.294 11.7843 150.625 17.6851 147.349 21.708C143.926 25.9128 139.916 29.6386 135.778 33.9763C136.889 37.0815 135.355 39.987 132.626 42.575C122.559 52.1238 112.786 61.9995 102.434 71.2255C88.0841 84.0162 73.2915 96.3095 58.7298 108.864C53.4319 113.428 48.0989 117.964 43.0749 122.817C37.9918 127.766 31.9398 131.61 25.2996 134.105C19.8945 136.148 14.4951 138.202 9.06447 140.171C7.7497 140.702 6.35491 141.009 4.93851 141.077C1.69915 141.094 -0.198479 138.413 0.607053 135.233C0.714627 134.81 0.865846 134.399 1.05831 134.007C5.73916 124.511 10.4326 115.021 15.1385 105.537C15.6393 104.572 16.2952 103.696 17.0802 102.943C30.3772 89.9732 43.6494 76.9763 57.0326 64.0955C71.2822 50.3811 85.5941 36.732 99.9698 23.1485C102.662 20.5943 105.651 18.3517 108.324 15.7796C110.75 13.4521 113.357 12.3916 116.534 13.5735ZM63.8221 94.8147C85.4645 76.4431 106.473 57.9243 125.959 37.6153L113.326 20.6881L50.2181 80.3599L63.8221 94.8147ZM45.2017 85.3291L23.0023 106.056C26.896 111.067 30.3951 116.254 34.4132 120.941L56.8028 100.515C52.9564 95.4807 49.1879 90.5453 45.2017 85.3291ZM129.388 27.914C131.657 26.1995 133.856 24.7487 135.796 23.0125C137.732 21.2662 139.528 19.3718 141.17 17.3466C142.709 15.4629 142.579 13.2115 141.404 11.2128C140.222 9.20143 138.203 8.76837 135.992 9.16107C135.346 9.24453 134.707 9.38092 134.082 9.56859C129.059 11.3682 124.509 14.2839 120.775 18.0964C123.957 21.7195 127.029 25.2257 129.388 27.914ZM17.3158 112.29C14.9579 118.653 12.7698 124.56 10.5811 130.466L11.1823 130.883L25.9468 125.279L17.3158 112.29Z" fill="black"/>
</g>
<defs>
<clipPath id="clip0_8_2539">
<rect width="150" height="141.118" fill="white"/>
</clipPath>
</defs>
</svg>
