<svg width="85" height="158" viewBox="0 0 85 158" fill="none" xmlns="http://www.w3.org/2000/svg">
<g clip-path="url(#clip0_8_2548)">
<path d="M84.6169 113.814C83.8261 88.4703 82.886 62.5992 81.7443 34.7219C81.4481 27.4986 80.8544 20.1716 80.2806 13.0862C80.1415 11.3741 80.0044 9.66185 79.8685 7.94929C79.4544 2.70422 76.6327 0.119878 71.2397 0.0577145C71.0233 0.0512391 70.8031 0.0614846 70.5855 0.069255L64.8583 0.172331C59.9323 0.258669 55.0064 0.351038 50.0807 0.449464C48.7217 0.448798 47.3657 0.577378 46.0309 0.833466C42.8112 1.53022 41.8151 2.66985 41.5878 5.91468C41.4683 8.03192 41.4585 10.1538 41.5582 12.2721C42.1255 29.3381 42.7057 46.4041 43.3155 64.3345L43.8345 79.6087C43.8821 82.5712 43.942 85.6885 44.0038 88.9152C44.1557 96.8844 44.313 105.125 44.3497 113.546C44.378 120.005 44.3045 126.576 44.233 132.929C44.1796 137.754 44.1242 142.743 44.1132 147.652C44.0971 154.626 46.7695 157.4 53.6435 157.547C54.3944 157.564 55.1446 157.571 55.8942 157.571C60.056 157.571 64.201 157.343 68.2235 157.122C72.7813 156.872 76.4524 156.529 79.7783 156.042C83.3606 155.518 84.7721 153.739 84.6523 149.9L84.6465 149.693C84.5177 145.646 84.3889 141.459 84.4057 137.349C84.4173 134.453 84.4849 131.504 84.5493 128.652C84.6581 123.788 84.7721 118.758 84.6169 113.814ZM52.7937 136.908C53.2232 136.84 53.6405 136.779 54.0487 136.714C55.3192 136.52 56.5188 136.342 57.6985 136.052C61.0792 135.225 61.7894 133.207 61.7901 131.661C61.7901 130.063 61.072 128.023 57.6424 127.387C56.5529 127.184 55.4459 126.939 54.2746 126.68C53.8805 126.594 53.4748 126.504 53.0543 126.412V118.059C53.2623 118.037 53.4691 118.016 53.6752 117.994C54.5957 117.92 55.511 117.792 56.4165 117.61L57.014 117.48C58.2955 117.292 59.5313 116.868 60.6599 116.228C61.2582 115.851 61.7379 115.311 62.0432 114.67C62.3486 114.03 62.467 113.316 62.385 112.611C62.2786 111.805 61.9507 111.045 61.4383 110.416C60.9258 109.787 60.2491 109.315 59.4841 109.052C57.9387 108.526 56.3524 108.13 54.7415 107.869C54.1691 107.759 53.5869 107.647 52.9971 107.522V99.4979L54.0499 99.2959C55.2464 99.0654 56.4809 98.8277 57.7172 98.605C58.5975 98.4457 61.2776 97.9626 61.4276 95.173C61.5854 92.2189 58.7913 91.5435 57.7397 91.2878C56.4686 90.9802 55.1774 90.7801 53.8116 90.5677C53.3705 90.4997 52.9205 90.4291 52.4594 90.354V82.2086L52.6577 82.1872C53.4032 82.1199 54.1443 82.0104 54.8773 81.8576C55.1162 81.8045 55.3642 81.7572 55.6141 81.7093C56.675 81.6077 57.6904 81.2263 58.5582 80.604C59.4635 79.8056 60.6491 78.0099 60.3194 76.6896C60.0645 75.9423 59.6476 75.2611 59.0989 74.6952C58.5503 74.1299 57.8834 73.6934 57.1467 73.4189C55.8166 73.0621 54.4419 72.9015 53.0659 72.9429C52.6422 72.9339 52.2096 72.9241 51.7691 72.9047V63.9162C52.0344 63.8838 52.3055 63.8515 52.5805 63.8204C53.7344 63.6857 54.9283 63.5464 56.1344 63.3366C58.7978 62.873 60.2961 61.3792 60.141 59.3414C59.9478 56.7817 58.0217 56.1192 56.1652 55.8084C55.8213 55.7508 55.4789 55.6847 55.135 55.6193C54.6064 55.5183 54.0777 55.4166 53.5451 55.3434C52.9437 55.2592 52.3403 55.2074 51.6416 55.1491L51.1522 55.1058V46.1367L51.9759 45.9068C53.0596 45.6044 54.2328 45.2787 55.3996 44.9309C56.6733 44.5521 59.6561 43.6656 59.3553 40.4927C59.0752 37.5185 56.3932 37.1514 54.6152 36.9086C53.5618 36.7648 52.4999 36.7053 51.3756 36.6431C51.0343 36.6231 50.6848 36.6036 50.3255 36.5783L49.6886 27.6669C50.1149 27.6022 50.5327 27.5406 50.9436 27.4797C52.2739 27.2854 53.5309 27.097 54.7872 26.8594C58.6097 26.1354 58.9961 23.8633 58.8853 22.5734C58.6239 19.4995 55.8626 19.0286 54.6829 18.8272C54.066 18.723 53.4414 18.6473 52.8374 18.5748C52.4639 18.5295 52.0897 18.4841 51.7175 18.4323C51.1418 18.352 50.5669 18.2633 49.8714 18.1571L49.2558 18.0625L48.8314 10.2887L72.279 9.49562C72.4793 13.6969 72.6815 17.8946 72.8856 22.089C74.8586 62.8277 76.8986 104.947 75.6172 146.571L52.7955 147.469L52.7937 136.908Z" fill="black"/>
<path d="M1.95586 116.145C2.12136 121.557 2.57265 126.956 3.30805 132.32C4.05244 137.987 7.502 142.233 13.2826 144.6C15.3313 145.464 17.5277 145.919 19.7491 145.939C23.3659 145.954 26.8492 144.565 29.4726 142.062C33.8237 137.988 36.2758 132.856 36.3769 127.613C36.4368 124.484 36.2611 121.312 36.0911 118.245C35.9977 116.556 35.8979 114.81 35.8451 113.095C35.5308 103.446 35.2326 93.791 34.8675 81.9947L34.3704 65.9597L34.2725 60.2748C34.1385 52.6377 33.955 42.1786 33.8217 31.6839C33.8312 29.3379 33.0896 27.0511 31.7065 25.1619C30.2415 23.1085 28.8403 20.9477 27.4855 18.8581C26.7662 17.7489 26.0469 16.6403 25.3147 15.5401L24.1086 13.7269C22.2237 10.8888 20.274 7.95353 18.2971 5.10435C16.7098 2.81853 15.0716 2.36853 13.9788 2.4048C12.886 2.44106 11.2962 2.95903 9.85766 5.29406C9.07108 6.66965 8.42109 8.11982 7.91734 9.62354L7.69331 10.2309C5.70031 15.6243 3.63644 21.2015 1.73231 26.7315C1.0472 28.5354 0.66114 30.4401 0.58938 32.3697C0.537221 39.0251 0.585435 46.0769 0.747061 55.2338L0.846266 60.8375C1.16308 78.9636 1.49416 97.7092 1.95586 116.145ZM11.4552 24.1874L12.7907 20.1551C13.4244 20.1072 14.0478 20.0223 14.6537 19.9394C16.1232 19.7374 17.5115 19.5509 18.4034 20.0139C19.397 20.5319 20.1219 21.741 20.9629 23.1416C21.169 23.4861 21.3789 23.8358 21.5998 24.1874H11.4552ZM21.887 136.452C20.8677 136.625 19.8235 136.579 18.8226 136.319C17.8218 136.059 16.8868 135.589 16.0787 134.941C13.5757 132.879 12.5783 130.121 11.897 126.393L28.3289 124.991C28.4455 128.131 27.6015 131.232 25.9104 133.874C25.4646 134.571 24.8742 135.161 24.1798 135.606C23.4854 136.051 22.7034 136.34 21.8877 136.452H21.887ZM11.9896 115.69L9.85888 34.8227H23.6483L26.2317 115.69H11.9896Z" fill="black"/>
</g>
<defs>
<clipPath id="clip0_8_2548">
<rect width="85" height="158" fill="white"/>
</clipPath>
</defs>
</svg>
