<svg width="150" height="143" viewBox="0 0 150 143" fill="none" xmlns="http://www.w3.org/2000/svg">
<g clip-path="url(#clip0_8_2541)">
<path d="M0.0519374 137.349C0.13016 136.776 0.237542 136.207 0.373702 135.645C2.40462 128.464 4.49903 121.3 6.46088 114.1C6.64474 113.269 6.99764 112.486 7.4975 111.799C7.99735 111.111 8.63333 110.535 9.36565 110.106C10.0954 109.673 10.7669 109.149 11.3636 108.545C34.7163 84.8023 59.6219 62.7284 84.1728 40.2711C94.4762 30.8463 104.417 21.0228 114.683 11.5562C118.581 7.96168 122.875 4.78592 127.1 1.56652C129.387 -0.176752 130.757 -0.177334 132.878 1.57779C137.804 5.65416 142.698 9.77985 147.424 14.0853C150.503 16.8902 150.553 19.9691 147.642 22.9701C143.489 27.2493 139.131 31.3275 134.861 35.4919C134.404 35.9382 133.927 36.3657 133.492 36.837C118.016 53.6655 101.1 69.0055 84.3154 84.4665C72.2407 95.5908 59.7464 106.26 47.4849 117.184C43.9827 120.304 40.6142 123.576 37.2264 126.822C32.3342 131.595 26.3509 135.095 19.7991 137.015C14.7955 138.473 9.86731 140.198 4.8395 141.559C1.64593 142.428 -0.129183 140.767 0.0519374 137.349ZM116.265 19.8088C114.155 21.5596 112.139 23.1249 110.24 24.8226C87.0297 45.5775 63.8245 66.3391 40.6248 87.1073C32.7675 94.1596 25.342 101.681 18.3887 109.631C17.5024 110.639 16.7032 111.724 15.8082 112.844L19.3111 116.657C54.5393 86.558 87.5444 54.2416 123.245 24.1629L116.265 19.8088ZM27.4167 125.813C43.0123 114.724 123.127 39.9359 129.616 30.3888L127.189 27.5178C126.325 28.1912 125.633 28.6724 125.004 29.231C103.911 48.0306 82.7693 66.7741 61.7598 85.6674C49.2358 96.9303 37.0621 108.591 23.6623 118.839C23.1692 119.165 22.6565 119.46 22.1269 119.722L27.4167 125.813ZM121.888 13.6982L134.585 25.4899L142.241 18.9294L130.365 7.25126L121.888 13.6982ZM10.3005 118.152C9.65631 120.938 9.13474 122.886 8.78868 124.865C8.67895 125.577 8.81793 126.304 9.18204 126.925C10.3341 128.699 11.6381 130.374 12.9868 132.23L19.4069 129.707L10.3005 118.152Z" fill="black"/>
</g>
<defs>
<clipPath id="clip0_8_2541">
<rect width="150" height="142.308" fill="white"/>
</clipPath>
</defs>
</svg>
