<svg width="150" height="149" viewBox="0 0 150 149" fill="none" xmlns="http://www.w3.org/2000/svg">
<g clip-path="url(#clip0_8_2543)">
<path d="M5.44561 148.379C2.30018 148.346 0.651403 146.746 0.591406 143.992C0.582218 143.214 0.681155 142.439 0.885488 141.688C3.19157 132.991 5.63273 124.328 7.80515 115.597C8.75028 111.362 10.8113 107.456 13.7751 104.281C21.8582 95.8167 29.8095 87.2255 37.9871 78.8548C59.4991 56.8356 82.0596 35.9202 105.212 15.6347C110.239 11.2304 115.185 6.72785 120.328 2.46216C123.389 -0.0753939 124.561 -0.0174305 127.652 2.61577C132.061 6.3733 136.309 10.3208 140.586 14.2319C142.888 16.3368 145.095 18.5452 147.362 20.6884C150.297 23.4635 150.29 26.4284 147.492 29.3727C143.04 34.0574 138.705 38.8507 134.247 43.5282C132.643 45.2121 130.791 46.6572 129.112 48.2728C102.845 73.5526 76.5826 98.837 50.3249 124.126C46.1562 128.138 41.9823 132.147 37.7099 136.048C36.6026 136.986 35.3331 137.713 33.9639 138.195C25.7508 141.351 17.5164 144.451 9.26074 147.494C8.01235 147.881 6.73728 148.178 5.44561 148.379ZM28.2932 121.225L116.762 36.3145C114.828 34.5037 112.986 32.7782 110.82 30.7494C80.4344 57.9162 52.7922 87.7082 24.0659 116.675L28.2932 121.225ZM36.521 129.668C66.052 101.17 95.6939 73.5389 124.003 44.6338L121.416 41.3415C90.8815 68.8067 61.839 97.2189 32.081 124.735L36.521 129.668ZM20.0699 113.027C48.2999 83.3287 76.6335 54.5732 106.352 26.88L103.301 24.1727C73.1607 51.0805 44.5317 79.3681 17.0961 108.998C17.8043 109.881 18.3006 110.464 18.7565 111.08C19.1575 111.617 19.5097 112.188 20.0725 113.027H20.0699ZM141.915 26.0009C136.992 19.7201 126.432 9.38968 123.31 7.75458L109.366 19.8777L130.497 38.5073C134.368 34.2702 138.092 30.1898 141.917 26.0009H141.915ZM12.9861 112.814C11.8989 118.399 10.9166 123.266 10.042 128.152C9.93456 128.898 10.1161 129.657 10.5495 130.273C12.5575 132.776 14.6888 135.181 16.856 137.714L29.848 132.753L12.9861 112.814Z" fill="black"/>
</g>
<defs>
<clipPath id="clip0_8_2543">
<rect width="150" height="149" fill="white"/>
</clipPath>
</defs>
</svg>
