<svg width="149" height="137" viewBox="0 0 149 137" fill="none" xmlns="http://www.w3.org/2000/svg">
<g clip-path="url(#clip0_8_2545)">
<path d="M32.4804 126.793C33.3899 126.903 34.3059 126.951 35.222 126.937C36.8977 126.943 38.5734 126.946 40.2491 126.945H43.2149H46.1827C46.3172 126.945 46.4485 126.904 46.5594 126.828C46.6703 126.752 46.7556 126.644 46.8039 126.518C47.1248 126.5 47.4465 126.506 47.7665 126.537C51.0704 126.926 53.4078 125.858 54.9179 123.266C55.2934 122.714 55.7524 122.223 56.2784 121.812C56.5712 121.552 56.8614 121.296 57.1315 121.024C58.1907 119.942 59.2693 118.876 60.346 117.81C62.7086 115.473 65.1518 113.058 67.368 110.502C82.5336 93.0128 99.5546 74.3619 119.403 53.4842C122.317 50.4195 125.232 47.3561 128.148 44.2941C134.157 37.9856 140.37 31.4615 146.455 25.0205C148.075 23.309 148.859 21.4112 148.731 19.5328C148.602 17.631 147.543 15.8286 145.669 14.3203C144.073 13.036 142.458 11.7738 140.843 10.5116C139.748 9.6558 138.655 8.79777 137.564 7.93726C136.619 7.19013 135.681 6.43639 134.747 5.6763C133.037 4.29461 131.269 2.86623 129.48 1.52091C126.969 -0.370471 125.464 -0.320538 123.042 1.73316C122.718 2.00781 122.428 2.30655 122.148 2.59613C122.037 2.70911 121.927 2.82337 121.815 2.93504L114.1 10.6252C108.736 15.9732 103.368 21.319 97.9985 26.6626C75.4937 49.0869 54.4299 72.9173 34.9325 98.0116C33.2351 100.182 32.0386 102.701 31.4296 105.39C30.6243 108.844 29.663 112.328 28.734 115.698C28.3851 116.963 28.0385 118.229 27.6943 119.494C27.4272 120.302 27.3378 121.159 27.4326 122.004C27.5273 122.85 27.8038 123.666 28.2429 124.394C28.7343 125.077 29.3676 125.645 30.0991 126.06C30.8307 126.474 31.6431 126.724 32.4804 126.793ZM46.9918 119.102L41.3168 119.915L36.6582 113.985L37.7712 107.622L46.9918 119.102ZM110.374 25.2147L121.999 39.4601L51.3212 115.946L40.3658 102.131C62.2072 75.1658 85.5823 49.4853 110.375 25.218L110.374 25.2147ZM114.874 20.5399L127.127 8.92737L139.906 20.9749C137.794 23.5508 135.536 26.0024 133.142 28.3171C131.142 30.3299 129.081 32.403 127.121 34.6904L114.874 20.5399Z" fill="black"/>
<path d="M0.518347 106.414C0.77594 107.185 1.10296 107.932 1.49531 108.643C4.11447 113.065 4.83281 116.816 3.82738 120.802C3.52803 122.227 3.39925 123.683 3.44384 125.138C3.43931 125.615 3.4354 126.091 3.4179 126.566C3.33185 127.678 3.52345 128.794 3.97527 129.814C4.42708 130.834 5.125 131.724 6.00605 132.406C7.92223 133.97 10.0533 135.249 12.3334 136.203C13.3594 136.587 14.4451 136.785 15.5401 136.788C18.1368 136.706 20.6185 135.696 22.5367 133.939C23.7449 132.921 24.9556 131.417 23.5731 128.801C23.494 128.651 23.3606 128.537 23.2002 128.482C23.0398 128.427 22.8645 128.435 22.7102 128.506C22.271 128.705 21.8453 128.902 21.4288 129.096C20.5309 129.513 19.6797 129.906 18.8213 130.259C16.3356 131.273 13.9834 130.852 11.4154 128.935C9.65529 127.619 9.76413 126.032 10.1541 123.574L10.1736 123.45C10.7264 120.519 11.0201 117.544 11.0514 114.561C10.9477 109.305 6.32218 104.719 0.735975 104.335C0.623596 104.329 0.511363 104.351 0.409533 104.399C0.307702 104.447 0.219572 104.52 0.152996 104.61C0.0867727 104.703 0.0449504 104.81 0.0316866 104.922C0.0184228 105.035 0.0340353 105.149 0.0770786 105.254C0.239035 105.655 0.382304 106.043 0.518347 106.414Z" fill="black"/>
</g>
<defs>
<clipPath id="clip0_8_2545">
<rect width="149" height="137" fill="white"/>
</clipPath>
</defs>
</svg>
