<svg width="147" height="170" viewBox="0 0 147 170" fill="none" xmlns="http://www.w3.org/2000/svg">
<g clip-path="url(#clip0_8_2556)">
<path d="M117.123 41.4615C117.939 41.7165 118.554 41.9468 119.184 42.0974C121.317 42.6061 122.366 44.0201 122.548 46.1204C122.682 47.6666 122.758 49.2193 122.809 50.7708C122.902 53.4512 122.886 53.4516 125.853 55.1451C126.508 54.2088 127.154 53.2208 127.864 52.2845C129.671 49.9104 131.897 49.1855 134.226 50.8842C137.528 53.3293 140.653 56.0044 143.577 58.8897C145.231 60.5008 144.89 62.9497 142.991 64.8593C141.197 66.6619 139.154 68.2198 137.014 70.0658C137.173 70.9502 137.363 72.0033 137.58 73.203C138.931 73.203 140.136 73.1829 141.342 73.2069C144.124 73.2634 145.919 74.4047 146.271 77.1682C146.768 81.0107 146.954 84.887 146.828 88.76C146.732 91.5066 144.632 93.0028 142.015 93.5758C141.043 93.8223 140.038 93.9067 139.039 93.8249C136.637 93.5304 135.297 94.599 134.61 96.8226C135.951 97.8556 137.359 98.7692 138.565 99.9002C141.622 102.764 141.904 106.018 138.95 108.919C136.663 111.179 134.091 113.131 131.298 114.727C127.395 116.926 124.963 115.985 122.761 112.106C122.436 111.536 122.139 110.951 121.829 110.375C120.054 110.171 119.232 110.741 119.456 112.555C119.561 113.548 119.569 114.549 119.48 115.544C119.128 120.227 118.274 121.223 113.715 122.339C113.205 127.48 112.863 132.673 112.126 137.809C111.499 142.309 110.606 146.768 109.452 151.163C107.461 158.62 102.382 163.273 95.1622 165.752C86.6264 168.682 77.7869 169.59 68.8472 169.335C55.2781 168.946 41.7008 168.506 28.251 166.416C22.6448 165.544 17.105 164.502 11.9249 161.97C5.57851 158.867 1.97897 153.887 1.32267 146.938C0.875169 142.198 0.660516 137.423 0.607183 132.663C0.527178 125.122 0.692388 117.581 0.715804 110.039C0.743773 101.268 0.67028 92.4961 0.748333 83.7255C0.874519 69.5156 0.961678 55.2997 1.31682 41.0956C1.50805 33.4521 1.99588 25.8067 3.86005 18.3137C5.80227 10.5093 10.2545 5.23352 18.3512 3.56402C21.7138 2.81728 25.1235 2.30068 28.5567 2.01824C47.3323 0.768542 66.129 0.010818 84.9502 0.538986C87.9533 0.623495 90.9414 0.989789 93.8756 1.63298C106.793 4.47431 113.447 11.5214 115.499 24.5777C116.169 28.8426 116.4 33.1758 116.817 37.4797C116.949 38.7858 117.022 40.0989 117.123 41.4615ZM107.655 41.3871C107.093 35.3106 106.765 29.55 105.981 23.8524C104.916 16.1187 100.351 11.2917 92.7646 9.34513C91.4872 8.96192 90.1811 8.68265 88.8587 8.50967C84.0988 8.08986 79.3193 7.37774 74.5646 7.49518C60.4459 7.84232 46.3352 8.4588 32.2258 9.14009C28.6781 9.38374 25.1542 9.89711 21.6847 10.6754C16.6315 11.7045 13.4105 14.7293 12.4485 19.9298C12.1233 21.6707 11.4956 23.3755 11.3479 25.1255C10.5713 34.2919 9.56766 43.4561 9.2665 52.6413C8.51199 75.6018 8.0957 98.5726 7.53697 121.539C7.44656 126.466 7.9195 131.387 8.94648 136.207L102.084 131.514C102.316 128.067 102.527 124.917 102.73 121.885C97.8368 120.366 97.1018 119.594 96.7109 114.723C96.5379 112.569 95.7775 111.471 93.6005 111.447C92.8238 112.647 92.187 113.826 91.3668 114.86C89.2204 117.567 86.8671 117.787 84.1573 115.647C82.6763 114.479 81.0944 113.416 79.7226 112.131C78.0425 110.691 76.5361 109.06 75.2346 107.272C73.5701 104.747 74.3239 102.42 76.8776 100.759C77.7752 100.175 78.6832 99.6069 79.5938 99.0275C77.9859 96.6805 77.9859 96.6805 75.4674 96.5683C72.2555 96.4262 70.3985 95.4172 70.1338 93.1054C69.6473 89.2551 69.4086 85.3781 69.4183 81.4973C69.4658 78.0999 71.4035 76.3383 74.8515 75.8484C76.1354 75.6661 77.4467 75.6752 78.7639 75.596C78.9948 74.7025 79.1847 73.9518 79.3824 73.203C79.5776 72.4724 79.776 71.7438 79.9776 71.0002C78.7931 69.9906 77.6542 69.1042 76.6129 68.1154C73.829 65.4726 73.8159 63.0341 76.7046 60.49C79.3714 58.1424 82.1332 55.8953 84.9346 53.7074C87.3465 51.8257 89.5879 51.9854 91.815 54.0676C92.6014 54.8027 93.283 55.648 94.0382 56.4682C95.1427 55.4702 96.3245 54.5616 97.574 53.7508C99.005 52.9722 100.213 52.3547 100.089 50.3627C100.001 48.9521 100.43 47.5077 100.629 46.0802C100.645 45.9705 100.662 45.8603 100.686 45.7519C101.276 43.1565 102.306 42.1506 104.867 41.7184C105.62 41.5913 106.386 41.5369 107.655 41.3877V41.3871ZM10.1992 142.346C9.99239 148.455 12.1363 152.304 17.5544 154.409C20.8757 155.654 24.3174 156.551 27.8243 157.087C42.4944 159.484 57.3186 159.314 72.1196 159.394C78.2494 159.465 84.3518 158.57 90.2019 156.742C97.747 154.348 101.821 147.558 100.446 139.277C70.3549 139.406 40.2737 140.827 10.1992 142.346ZM132.216 105.04C131.162 103.691 130.185 102.728 129.565 101.572C128.84 100.352 128.37 98.9989 128.182 97.5935C127.97 94.7801 133.354 87.3902 136.052 86.4196C136.768 86.16 137.483 85.8966 138.311 85.5949V79.8025C136.87 79.5638 135.56 79.4067 134.278 79.116C132.928 78.8091 131.575 78.231 131.523 76.6394C131.347 71.2454 129.605 65.3739 135.695 61.6986C135.807 61.6338 135.767 61.3139 135.828 60.9253L131.737 57.5682C130.539 58.6596 129.584 59.5659 128.588 60.4275C126.151 62.5402 124.287 62.5794 121.759 60.6341C121.11 60.0295 120.377 59.5223 119.583 59.1285C116.437 57.9606 116.037 55.4509 116.239 52.6356C116.331 51.3456 116.564 50.066 116.799 48.3271C115.108 48.3271 113.684 48.2394 112.273 48.3426C106.968 48.7319 107.19 47.3137 105.936 53.6491C105.671 54.9864 105.129 56.5422 104.18 57.4123C102.267 59.0934 100.189 60.5774 97.9766 61.8415C92.872 64.8867 91.8527 64.7093 88.5407 61.6058C88.0593 61.2163 87.5533 60.8584 87.0258 60.534L82.3081 64.7354C82.8818 65.407 83.4932 66.0468 84.1385 66.6509C86.0579 68.2322 86.7305 70.0684 85.9513 72.5496C85.4959 74.0037 85.5155 75.6142 85.3698 77.1565C85.0907 80.112 84.7031 80.5039 81.778 80.7356C79.9334 80.8816 78.092 81.06 75.8909 81.2547C76.2571 84.0227 76.568 86.3677 76.8665 88.6133C77.316 88.7373 77.7719 88.8365 78.2325 88.9105C83.905 89.3238 83.3475 89.5068 85.1271 94.8268C86.5744 99.1579 85.254 101.75 81.7065 104.355L86.2459 108.106C87.3055 106.89 88.0587 105.927 88.9127 105.063C91.4494 102.494 93.2518 102.279 96.3089 104.182C97.4368 104.884 98.4293 105.825 99.6021 106.428C100.205 106.714 100.721 107.156 101.097 107.707C101.473 108.257 101.697 108.897 101.745 109.562C101.975 111.419 102.173 113.281 102.415 115.402H112.059C112.351 112.919 112.662 110.617 112.882 108.306C112.899 107.406 113.233 106.541 113.824 105.861C114.415 105.182 115.227 104.731 116.118 104.587C120.444 103.632 124.766 102.824 127.722 107.453C127.77 107.527 127.917 107.54 128.242 107.674L132.216 105.04Z" fill="black"/>
<path d="M57.1869 153.449C54.6209 153.461 51.943 150.862 51.956 148.371C51.9684 146.082 53.8905 144.525 56.8253 144.427C57.4283 144.387 58.0334 144.468 58.6046 144.665C59.1759 144.862 59.7018 145.171 60.1513 145.574C60.6008 145.977 60.9649 146.466 61.2219 147.011C61.479 147.557 61.6239 148.149 61.648 148.751C61.6722 149.354 61.5751 149.955 61.3626 150.519C61.15 151.084 60.8263 151.6 60.4105 152.037C59.9947 152.475 59.4952 152.825 58.9415 153.067C58.3879 153.309 57.7913 153.438 57.1869 153.446V153.449Z" fill="black"/>
<path d="M128.946 79.1298C128.946 92.2925 119.808 101.458 105.124 100.858C102.464 100.708 99.8461 100.127 97.3732 99.1392C89.266 95.9877 85.8603 88.5018 88.5675 80.2023C90.0505 75.6552 92.8604 71.9677 96.4124 68.8396C98.4822 67.015 100.51 65.0217 102.886 63.7007C104.73 62.6761 107.067 62.3602 109.228 62.1311C110.963 61.9475 112.765 62.3414 114.533 62.5205C123.213 63.4082 127.899 68.1005 128.814 76.8289C128.906 77.712 128.918 78.6016 128.946 79.1298ZM119.685 80.5333C119.636 79.6495 119.62 78.7619 119.529 77.8827C119.176 74.5871 117.604 72.3759 114.201 71.5323C105.621 69.4047 103.62 69.2406 97.7511 77.5985C97.4974 77.9599 97.2918 78.3557 97.0746 78.7418C92.8096 86.3204 95.4361 91.8434 104.063 92.9439C111.014 93.8302 119.826 90.6969 119.685 80.5333Z" fill="black"/>
</g>
<defs>
<clipPath id="clip0_8_2556">
<rect width="147" height="170" fill="white"/>
</clipPath>
</defs>
</svg>
