<svg width="101" height="167" viewBox="0 0 101 167" fill="none" xmlns="http://www.w3.org/2000/svg">
<g clip-path="url(#clip0_8_2553)">
<path d="M100.407 92.9296C100.407 108.655 100.435 124.381 100.383 140.107C100.396 143.339 100.208 146.568 99.8212 149.777C99.6283 151.699 99.0139 153.554 98.022 155.211C95.1086 159.626 90.6412 163.185 85.2895 164.303C80.9854 165.283 76.6022 165.876 72.1919 166.075C57.3193 166.456 42.4387 166.566 27.5599 166.67C24.5546 166.691 21.542 166.261 18.5379 165.982C10.162 165.205 5.78989 159.737 3.47854 152.43C2.32546 148.783 2.10858 144.824 1.62688 140.986C-0.0564472 127.58 0.310009 114.11 0.480932 100.647C0.62121 89.554 0.738594 78.4608 0.83312 67.3676C0.926351 54.6576 0.8273 41.9441 1.09599 29.2385C1.19288 24.9402 1.76194 20.6656 2.79291 16.4916C4.69961 8.77915 10.0734 4.81055 17.8044 3.25318C35.7571 -0.362565 53.8348 0.123124 71.9459 1.0727C78.3555 1.40864 84.0995 3.69786 89.4428 7.16411C93.2206 9.5781 96.0001 13.2737 97.2703 17.5719C98.3004 21.0794 98.9349 24.6912 99.1615 28.3396C99.7662 39.8437 100.194 51.3567 100.447 62.8788C100.652 72.8916 100.489 82.9122 100.489 92.9296H100.407ZM11.8052 132.038C38.2192 129.705 64.7451 128.889 91.2524 129.594C91.3295 128.244 91.4357 127.191 91.4421 126.137C91.6066 100.613 91.1184 74.4418 91.2557 48.9153C91.2667 47.6254 91.1806 46.3364 90.9967 45.0595C90.1343 39.2086 89.9355 34.0013 88.9398 28.1731C88.4833 25.6451 87.8624 23.1495 87.081 20.7021C86.6802 19.4148 85.9965 18.2334 85.0804 17.2441C84.1643 16.2548 83.0384 15.4825 81.785 14.984C78.1587 13.3043 74.2236 12.3923 70.2276 12.3051C66.0231 12.228 61.8112 12.2784 57.6152 12.0829C44.952 11.4926 32.43 12.6188 19.9526 14.7277C15.9806 15.3989 13.8104 17.5524 12.9706 21.2814C12.6316 22.7497 12.4151 24.2435 12.3232 25.7476C12.1697 28.542 12.1147 31.3436 12.0953 34.1425C11.933 57.8332 11.7793 81.5257 11.6343 105.219C11.589 112.111 11.4899 119.002 11.4725 125.894C11.4718 127.798 11.6738 129.703 11.8052 132.038ZM90.8063 137.029L12.1717 137.956C12.6851 142.876 12.4462 147.412 13.8427 151.727C14.9155 155.041 17.2139 157.155 20.9593 157.218C22.3597 157.242 23.7582 157.353 25.158 157.359C29.6842 157.375 34.2098 157.366 38.736 157.359C50.913 157.341 63.0912 157.41 75.2653 157.24C78.4876 157.173 81.6898 156.717 84.802 155.88C87.6702 155.124 90.379 153.314 90.7021 150.139C91.1242 146.004 90.8063 141.795 90.8063 137.03V137.029Z" fill="black"/>
<path d="M58.4564 146.565C58.4467 150.018 55.1764 153.02 51.3455 153.092C50.5088 153.114 49.6763 152.967 48.898 152.658C48.1198 152.35 47.412 151.888 46.8172 151.299C46.2224 150.71 45.7529 150.007 45.437 149.232C45.121 148.457 44.9651 147.626 44.9787 146.789C45.036 144.997 45.7708 143.292 47.035 142.02C48.2993 140.747 49.9991 140.001 51.7917 139.932C55.1525 139.889 58.4642 143.187 58.4564 146.565Z" fill="black"/>
</g>
<defs>
<clipPath id="clip0_8_2553">
<rect width="101" height="167" fill="white"/>
</clipPath>
</defs>
</svg>
