<svg width="156" height="156" viewBox="0 0 156 156" fill="none" xmlns="http://www.w3.org/2000/svg">
<g clip-path="url(#clip0_8_2560)">
<path d="M51.6043 53.2803C54.3637 55.8328 57.7419 56.971 62.5605 56.971C62.5835 56.9733 62.6068 56.9733 62.6298 56.971C62.778 56.9573 62.9599 56.9443 63.1658 56.93C63.7121 56.8917 64.4604 56.8377 65.1951 56.7285C67.3099 56.4465 69.3463 55.7401 71.1833 54.6514C73.021 53.5626 74.6211 52.1137 75.8892 50.391C77.0984 48.6838 77.9535 46.7497 78.4027 44.7038C78.8519 42.6579 78.8862 40.5421 78.5043 38.4825C77.6984 33.7759 75.462 30.7682 71.8669 29.5456C69.4149 28.7181 66.8173 28.4137 64.2416 28.6518C61.6656 28.8901 59.1674 29.6656 56.9069 30.9288C54.7341 32.1174 52.8366 33.7547 51.3393 35.7328C49.842 37.711 48.779 39.9853 48.2202 42.4058C47.2363 46.6334 48.3749 50.2935 51.6043 53.2803ZM64.9012 36.7853C65.0307 36.7853 65.1641 36.7853 65.2929 36.7853C67.4685 36.7853 69.187 37.0531 70.0182 39.2416C70.4389 40.4323 70.4965 41.7219 70.1819 42.9453C69.868 44.1688 69.1968 45.27 68.2549 46.1076C65.8981 48.2565 60.8601 48.8304 58.0857 47.2671C56.3102 46.2674 55.769 45.0234 56.2176 42.9739C57.1335 38.7892 59.8924 36.8243 64.9012 36.7853Z" fill="black"/>
<path d="M33.1008 154.127C34.7002 154.062 36.358 153.997 37.9665 153.997C47.7978 154.046 56.7824 154.144 65.4333 154.297C79.2856 154.541 93.4285 154.841 107.463 155.188C108.61 155.25 109.749 155.41 110.868 155.665C111.418 155.774 111.969 155.882 112.517 155.97C112.552 155.976 112.587 155.979 112.622 155.979H119.244C119.277 155.979 119.31 155.976 119.342 155.971C120.67 155.776 122.002 155.598 123.334 155.422C126.214 155.042 129.193 154.649 132.088 154.034C145.385 151.213 156.05 137.547 155.861 123.568C155.736 114.22 155.761 104.712 155.784 95.5162C155.801 88.9168 155.818 82.0937 155.781 75.3818C155.745 69.2458 155.528 63.0122 155.318 56.9867L155.184 53.1159C155.137 51.6651 155.094 50.2135 155.055 48.761C154.925 43.9841 154.79 39.0447 154.32 34.208C153.825 29.443 152.937 24.7274 151.666 20.1096C148.133 6.97957 135.613 0.810472 124.779 0.525123C121.682 0.443873 118.547 0.663455 115.513 0.875355C113.232 1.03525 110.873 1.20035 108.563 1.23415C102.274 1.32645 95.8759 1.36416 89.6923 1.40316C81.5524 1.45256 73.1355 1.50465 64.8578 1.6769L63.612 1.70357C51.745 1.95057 39.4728 2.20529 27.4466 3.14194C14.4804 4.15139 5.88493 10.3836 1.89754 21.667C1.22844 23.383 0.836385 25.1952 0.736241 27.0353L0.671523 32.4667C0.474096 48.3338 0.26955 64.7419 0.317451 80.8815C0.338164 88.129 0.581533 95.4922 0.817154 102.613C0.946614 106.605 1.08579 110.731 1.18094 114.789C1.28581 119.209 1.32273 122.925 1.16285 126.69C0.580276 140.351 12.4505 153.461 26.062 154.196C28.4123 154.322 30.7964 154.223 33.1008 154.127ZM8.7298 38.6314C8.64947 32.8611 10.0101 27.1627 12.6874 22.0564C15.1316 17.5194 18.7313 14.6898 23.0986 13.8747C30.0112 12.5845 36.7794 11.4106 43.5955 11.226C60.918 10.7554 78.5366 10.4798 95.5736 10.2133C104.164 10.0784 112.754 9.9361 121.343 9.78621C125.939 9.70041 130.492 11.0564 135.696 14.049C141.374 17.3133 143.185 23.2004 144.207 28.5291C146.353 39.7195 147.301 49.1009 147.192 58.0514C147.148 61.5805 147.116 65.1183 147.094 68.666C146.85 68.4405 146.614 68.2065 146.359 67.9939C142.999 65.1918 139.543 62.3947 136.2 59.69C132.171 56.4296 128.005 53.06 123.984 49.6585C118.737 45.2229 115.675 45.3361 110.876 50.1448C99.462 61.5776 87.7872 73.2271 76.4963 84.4929L63.7312 97.2329L63.5053 97.0463C63.0891 96.7025 62.7511 96.4236 62.4106 96.1493C60.6267 94.7057 58.8455 93.2588 57.0672 91.8092C52.7302 88.2772 48.2392 84.6255 43.7612 81.1103C40.5117 78.5597 38.1866 78.5948 35.1851 81.2325C26.3856 88.9675 17.4916 96.8539 8.8482 104.523C8.76016 84.1692 8.6955 61.6297 8.7298 38.6314ZM9.73895 112.695C11.4219 111.275 13.1014 109.851 14.7776 108.422C17.9455 105.729 21.2208 102.944 24.4774 100.253C27.9644 97.3694 31.5692 94.4723 35.0556 91.6728C36.4913 90.5184 37.9331 89.3575 39.3809 88.1907C41.3163 89.7585 43.2367 91.3133 45.1419 92.8532C50.1145 96.8734 54.812 100.669 59.571 104.586C63.3428 107.691 65.6333 107.576 68.9999 104.122C70.1282 102.963 71.2383 101.786 72.3478 100.612C73.8003 99.0704 75.3021 97.4773 76.82 95.9595C88.287 84.4981 99.9688 72.8676 111.266 61.6199L116.192 56.7156C116.668 56.2411 117.18 55.7848 117.591 55.4156L117.629 55.3818C119.734 57.0354 121.823 58.6821 123.897 60.3218C130.099 65.2204 135.958 69.8477 142.037 74.4569C143.577 75.5281 145.268 76.3627 147.052 76.9334C147.014 89.1469 147.058 101.358 147.104 113.3C147.118 116.932 147.131 120.564 147.143 124.195C147.171 132.995 140.113 142.63 131.731 145.233C125.458 147.137 118.908 147.952 112.361 147.642C103.449 147.274 94.3878 146.843 85.6278 146.427C81.9809 146.254 78.3334 146.08 74.6852 145.907H74.6548L64.8054 145.903C59.5007 145.9 54.1966 145.898 48.893 145.898C43.1372 145.898 37.3814 145.902 31.6256 145.911H31.5569C25.0269 145.911 20.1302 144.263 16.1512 140.73C11.2712 136.394 8.97837 130.455 8.935 122.038C8.92011 119.217 8.90587 116.33 8.89163 113.393C9.17709 113.165 9.46255 112.928 9.73895 112.695Z" fill="black"/>
</g>
<defs>
<clipPath id="clip0_8_2560">
<rect width="156" height="156" fill="white"/>
</clipPath>
</defs>
</svg>
