<svg width="155" height="150" viewBox="0 0 155 150" fill="none" xmlns="http://www.w3.org/2000/svg">
<g clip-path="url(#clip0_8_2563)">
<path d="M138.191 75.9411C137.583 75.8687 136.971 75.8411 136.359 75.8572C131.088 75.9067 125.818 75.9578 120.547 76.0118C109.149 76.1268 97.3609 76.2417 85.7681 76.3296C83.1903 76.3486 80.6588 76.2802 77.9791 76.2067C76.9136 76.1773 75.8407 76.1492 74.7598 76.1245C74.7342 76.0199 74.7108 75.9273 74.6897 75.8446C74.639 75.6745 74.6031 75.5003 74.5826 75.3239C74.1085 64.7653 73.6373 54.207 73.1684 43.6487L72.3758 25.8422C72.3627 25.5428 72.3604 25.2395 72.3593 24.9361C72.3901 24.114 72.3143 23.2913 72.1348 22.4888C70.9417 18.0388 70.1235 16.941 65.3618 17.1732C59.6611 17.4076 54.0135 18.3797 48.5581 20.0653C33.2805 24.8929 22.0384 32.9619 14.1902 44.7291C7.12483 55.3205 2.60955 67.6567 0.766298 81.3929C-1.52196 98.4469 3.26746 113.508 14.6153 124.947C31.0644 141.528 50.2892 149.86 71.9872 149.86C80.0104 149.81 87.9976 148.772 95.7712 146.768C105.162 144.411 112.509 140.47 118.232 134.715C129.251 123.632 136.723 109.956 141.073 92.9049C142.35 87.8998 142.636 83.7457 141.973 79.8319C141.601 77.6354 140.862 76.2946 138.191 75.9411ZM22.5061 118.947C13.5884 110.229 9.42181 98.7084 10.4571 85.6302C11.6292 70.8268 16.3578 57.6917 24.5114 46.5888C29.1335 40.294 35.4155 35.2181 43.7133 31.0715C50.1559 27.9128 56.9819 25.6222 64.0171 24.2589C64.429 24.1914 64.8473 24.1635 65.2643 24.1756H65.4717C65.4746 24.1922 65.4769 24.2089 65.4791 24.225C65.531 24.5253 65.5618 24.829 65.5726 25.1336C65.6581 41.3559 65.7355 57.5779 65.8051 73.8003C65.8051 74.5475 65.7663 75.3136 65.7259 76.0549C65.6974 76.5722 65.6689 77.0894 65.6541 77.6101C65.5914 79.8296 66.0803 81.4118 67.1492 82.4457C68.2067 83.4699 69.7617 83.8906 71.9183 83.7411C72.3365 83.7118 72.7599 83.7193 73.206 83.7291L73.6174 83.7365C76.2321 83.7647 78.8469 83.7986 81.4622 83.8383C87.1298 83.9182 92.9958 84.0107 98.7557 83.9923C105.935 83.9825 113.236 83.9067 120.294 83.8325C124.033 83.794 127.772 83.7584 131.513 83.7245C131.652 83.7503 131.788 83.7906 131.919 83.8446L132.082 83.9021C131.891 84.9768 131.725 86.0659 131.563 87.1205C131.224 89.8049 130.673 92.4584 129.917 95.0549C126.33 106.183 121.608 115.4 115.477 123.236C110.406 129.716 104.255 134.093 97.1957 136.244C68.3623 145.03 43.232 139.211 22.5061 118.947Z" fill="black"/>
<path d="M152.038 56.1302C149.891 50.9147 147.669 45.521 144.672 40.5526C132.148 19.7997 114.537 6.58195 92.3267 1.26589C90.2994 0.77961 88.2299 0.495794 86.1479 0.418692C84.5958 0.356049 83.4437 0.709592 82.6472 1.48028C81.8301 2.27051 81.4273 3.46535 81.4159 5.13201C81.4028 7.12109 81.4962 9.28948 81.7093 11.9567L81.809 13.2021C82.707 24.4314 83.6363 36.0422 82.9526 47.4991C82.9526 47.5112 82.9526 47.5227 82.9526 47.5348V49.8912C82.9526 51.659 82.9526 53.4273 82.9526 55.1963C82.9526 56.2307 82.9383 57.2652 82.9247 58.2997C82.8956 60.5755 82.8677 62.9284 82.9731 65.2451C83.1531 69.1244 84.1281 70.0905 87.9228 70.0905H88.0128C89.2857 70.0859 90.5661 69.9634 91.8031 69.8451C92.672 69.7617 93.5694 69.6761 94.4474 69.6336C100.496 69.3393 106.545 69.0514 112.595 68.7686C119.883 68.4238 127.172 68.0749 134.461 67.7221C139.962 67.4514 144.924 67.1939 149.95 66.7813C151.738 66.6341 153.109 65.9077 153.81 64.7347C154.511 63.5617 154.507 62.0169 153.806 60.3669C153.206 58.9657 152.622 57.5474 152.038 56.1302ZM144.536 58.3416L144.329 58.3761C143.74 58.4864 143.145 58.56 142.547 58.5968C139.671 58.7117 136.795 58.806 133.919 58.9037C128.987 59.0703 123.887 59.2433 118.872 59.4928C112.604 59.806 106.237 60.202 100.08 60.5847C97.1003 60.7698 94.1198 60.9525 91.1393 61.1324C90.7974 61.152 90.4441 61.1474 89.9547 61.1428L89.5632 61.1382C90.7028 41.7209 90.4304 24.314 88.7251 7.97724C113.381 11.6709 135.669 31.7774 144.536 58.3416Z" fill="black"/>
</g>
<defs>
<clipPath id="clip0_8_2563">
<rect width="154.412" height="150" fill="white"/>
</clipPath>
</defs>
</svg>
