<svg width="178" height="162" viewBox="0 0 178 162" fill="none" xmlns="http://www.w3.org/2000/svg">
<g clip-path="url(#clip0_6_1909)">
<path d="M37.5256 139.986C39.3864 140.917 40.0105 142.217 39.6108 144.333C39.276 146.503 39.2562 148.711 39.5523 150.887C39.9967 154.982 42.1914 159.709 45.9588 160.412C48.4963 160.906 51.074 161.164 53.6589 161.183C57.1331 161.215 60.5827 160.597 63.829 159.359C67.8446 157.812 69.7362 154.302 68.883 149.968C68.6861 148.956 68.4734 147.946 68.2503 146.876L68.119 146.243C69.5327 146.374 70.9215 146.525 72.2723 146.67C75.8428 147.118 79.4343 147.38 83.0323 147.458C86.6481 147.451 90.1391 147.13 93.8546 146.764C95.1726 146.633 96.5286 146.502 97.8859 146.387C97.8596 146.585 97.834 146.778 97.8084 146.967C97.668 147.839 97.5918 148.719 97.58 149.603C97.6332 153.788 98.7358 157.019 100.768 158.939C102.386 160.47 104.571 161.189 107.249 161.073C113.057 160.825 117.844 160.422 122.314 159.804C125.542 159.359 127.434 157.169 127.499 153.796C127.562 150.711 127.442 147.574 127.327 144.542C127.291 143.595 127.255 142.648 127.225 141.701C127.192 140.699 127.108 139.707 127.028 138.748C127.006 138.489 126.983 138.232 126.962 137.979C128.534 137.297 130.086 136.629 131.619 135.974C135.365 134.368 138.904 132.851 142.457 131.212C151.129 127.212 157.356 121.191 160.972 113.318C161.142 112.946 161.355 112.583 161.58 112.202C161.614 112.145 161.645 112.087 161.681 112.029C161.977 112.068 162.269 112.108 162.555 112.15C163.52 112.285 164.432 112.413 165.367 112.466C166.889 112.553 168.393 112.521 169.792 112.472C174.624 112.31 176.516 110.518 177.022 105.627C177.96 96.5629 176.628 87.5474 175.337 78.8286L175.276 78.4191C174.596 73.8175 172.709 72.2193 167.801 72.0847C165.711 72.0289 163.595 72.0434 161.547 72.0572C160.783 72.0624 160.019 72.0677 159.257 72.069C154.226 57.5047 145.975 48.9822 133.361 45.3342C134.364 43.2087 135.229 41.0205 135.95 38.7833C137.159 35.2811 138.302 31.9718 140.596 29.1456C142.017 27.3932 142.199 25.5804 141.084 24.2953C140.579 23.814 139.977 23.4448 139.32 23.2117C138.662 22.9786 137.962 22.8868 137.267 22.9426C124.997 24.084 116.198 28.6921 110.375 37.0302C110.092 37.4208 109.79 37.797 109.47 38.1571L109.417 38.2175C108.757 38.1689 108.122 38.1112 107.504 38.0554C106.019 37.8901 104.526 37.8095 103.032 37.8139C98.808 37.9071 94.1953 38.1027 88.9295 38.4132C70.4313 39.5053 54.6258 44.223 40.6104 52.8368C27.8603 60.6721 20.2908 71.16 17.4672 84.901C17.1456 86.4658 16.5358 87.3951 15.5283 87.8152C15.4686 87.1628 15.4227 86.5064 15.3768 85.8652C15.2999 83.7761 15.0098 81.7007 14.511 79.6713C14.0795 78.0889 13.0923 76.7145 11.7302 75.8009C10.3681 74.8873 8.72245 74.4948 7.09453 74.6956C5.54244 74.9346 4.11667 75.6913 3.04897 76.8432C1.98127 77.9944 1.33424 79.4731 1.21296 81.0392C1.12499 82.9773 1.23654 84.9194 1.54577 86.8346C1.64882 87.6518 1.75577 88.4978 1.82731 89.3195C1.84013 89.4718 1.90455 89.6142 2.00982 89.7251C0.87764 91.0608 -0.40348 92.8289 1.19405 94.9542C2.71413 96.9763 4.97521 96.576 6.79327 96.2577L7.31821 96.1599C8.04668 95.9859 8.79451 95.9059 9.54326 95.9223C10.9872 96.0227 12.4535 96.213 14.0064 96.4139C14.4921 96.4795 14.9909 96.5405 15.5061 96.6055C15.5061 96.6318 15.5027 96.658 15.5014 96.6843C15.4745 97.1897 15.4477 97.7036 15.3971 98.2162C14.7701 103.684 15.512 109.222 17.5558 114.333C17.9247 115.24 18.2607 116.191 18.5849 117.11C19.0883 118.626 19.6801 120.113 20.3571 121.561C21.5081 124.031 22.9315 126.364 24.6009 128.518C27.9495 132.61 31.9783 137.207 37.5256 139.986ZM130.444 31.7415C129.67 33.2872 128.998 34.8813 128.431 36.5137C127.35 39.8761 126.384 43.4794 125.562 47.2258C125.001 49.7855 126.029 51.3187 128.706 51.9114C137.062 53.7603 143.482 58.7373 148.33 67.1222C149.849 69.9129 151.06 72.8605 151.946 75.9125C153.046 79.4068 154.243 80.988 158.426 81.1218C160.33 81.1835 162.252 81.1691 164.286 81.154C165.051 81.1488 165.837 81.1429 166.654 81.1409L168.264 103.028C167.502 103.2 166.768 103.357 166.054 103.513C164.012 103.953 162.083 104.366 160.228 104.966C158.893 105.395 157.209 106.317 156.499 107.618C150.247 119.012 139.482 124.327 129.777 128.024L128.516 128.504C126.064 129.436 123.528 130.399 121.061 131.414C118.644 132.407 118.49 134.982 118.416 136.219C118.23 139.332 118.154 142.497 118.079 145.559C118.051 146.7 118.024 147.841 117.99 148.981C117.978 149.416 117.98 149.853 117.983 150.416V150.833L108.191 151.855C108.066 151.042 107.929 150.247 107.797 149.465C107.415 147.459 107.15 145.431 107.005 143.394C106.868 140.659 105.989 138.692 104.393 137.546C102.686 136.322 100.211 136.123 97.2269 136.968C91.2444 138.659 85.3662 138.698 79.8576 138.595C78.2069 138.564 76.5162 138.367 74.8799 138.176C73.6933 138.037 72.4653 137.894 71.2464 137.812C69.7415 137.698 68.2286 137.761 66.7394 138.001C62.9981 138.644 61.0803 140.583 60.3189 144.481C60.0748 145.728 59.9369 147.002 59.8155 148.197C59.7393 148.956 59.6999 149.713 59.6539 150.59C59.6415 150.833 59.6283 151.087 59.6132 151.353L49.146 152.075C49.0501 151.096 48.9426 150.136 48.8369 149.191C48.5062 146.677 48.3176 144.147 48.2719 141.613C48.2765 139.219 47.9232 136.717 45.3241 134.648L43.9196 133.532C40.6961 131.075 37.6161 128.436 34.6949 125.627C31.133 122.183 28.3571 118.011 26.5571 113.395C24.7572 108.779 23.9757 103.829 24.2662 98.8837C24.635 90.3329 26.3363 82.9885 29.4677 76.4303C31.9716 71.1856 35.9857 66.6227 41.7412 62.4817C55.4547 52.6084 71.7256 47.4699 91.482 46.7716C93.8691 46.6875 96.3008 46.6469 98.6531 46.6081C102.224 46.5491 105.915 46.488 109.544 46.2721C111.26 46.1697 112.896 44.2375 113.356 43.6435C117.838 37.8933 121.973 34.3819 126.765 32.2607C127.872 31.771 129.016 31.332 130.341 30.8233L130.987 30.5751C130.803 30.9781 130.62 31.3654 130.444 31.7415Z" fill="black"/>
<path d="M72.4908 0.224809C66.3166 0.763004 61.1168 4.40966 57.8469 10.492C55.6397 14.5993 54.9879 18.5707 55.9101 22.2961C57.7564 29.754 63.6988 33.5517 73.5738 33.5852C73.8251 33.5983 74.0746 33.6041 74.3233 33.6041C80.2901 33.6041 85.6517 29.8906 88.7765 23.5405C91.5942 17.8133 91.7143 13.0949 89.1428 9.11484C85.0616 2.80089 79.154 -0.354081 72.4908 0.224809ZM80.0787 19.3301C78.1222 22.9498 75.3951 25.0239 72.7901 24.8218H72.7461C69.0549 24.8041 66.3422 23.8043 64.8999 21.9338C63.6667 20.333 63.3785 18.0831 64.0664 15.4289C64.4115 13.9803 64.9809 12.5943 65.7542 11.3215C66.3245 10.4005 67.12 9.63991 68.0664 9.11162C69.0122 8.5834 70.0775 8.30485 71.1604 8.30229C72.1305 8.30629 73.0881 8.51829 73.9682 8.92384C75.6504 9.65002 77.2329 10.588 78.6775 11.7147C81.5831 14.0703 81.9211 15.9211 80.0787 19.3301Z" fill="black"/>
<path d="M86.2639 52.2504C74.2529 53.1863 63.8678 55.9854 54.5065 60.8089C52.7975 61.741 51.1941 62.8547 49.7238 64.1306C47.9458 65.6146 47.5401 67.6599 48.7137 69.2193C48.9684 69.579 49.3076 69.8698 49.7012 70.068C50.0949 70.2655 50.5311 70.3633 50.9715 70.3535C51.8655 70.3128 52.7385 70.0686 53.524 69.64C60.9675 65.958 69.4931 63.4501 79.5876 61.9734C82.5562 61.5389 85.5655 60.9972 88.5302 60.3645C90.8274 59.8762 92.1217 58.4356 92.1834 56.3103V56.2893C92.1972 55.7633 92.1 55.2404 91.8972 54.7547C91.6951 54.2691 91.3918 53.8315 91.0085 53.4711C89.9695 52.5115 88.3287 52.0843 86.2639 52.2504Z" fill="black"/>
<path d="M120.002 69.0219C119.945 69.8928 120.064 70.7664 120.351 71.5901C120.638 72.4145 121.089 73.1726 121.676 73.819C122.264 74.4649 122.974 74.986 123.767 75.3516C124.56 75.7165 125.419 75.9187 126.291 75.9449C126.39 75.9495 126.488 75.9515 126.587 75.9515C128.285 75.9469 129.914 75.2807 131.129 74.094C131.791 73.4581 132.317 72.6947 132.677 71.85C133.036 71.0053 133.22 70.0963 133.219 69.1787C133.201 65.6074 130.584 62.7668 127.262 62.711C123.081 62.6683 120.153 65.1768 120.002 69.0219Z" fill="black"/>
</g>
<defs>
<clipPath id="clip0_6_1909">
<rect width="177.868" height="161.459" fill="white"/>
</clipPath>
</defs>
</svg>
