<svg width="132" height="153" viewBox="0 0 132 153" fill="none" xmlns="http://www.w3.org/2000/svg">
<g clip-path="url(#clip0_6_2236)">
<path d="M67.1157 143.751C61.7181 149.247 54.7189 150.539 47.7492 151.803C41.6747 153.016 35.4104 152.91 29.3802 151.493C17.6416 148.574 4.41455 138.087 2.88397 120.614C2.03074 110.888 1.38363 101.176 1.4939 91.3844C1.61204 80.8482 0.855904 70.3048 0.702321 59.7606C0.609121 53.3692 0.294724 46.8774 1.21556 40.5956C2.7724 29.9768 4.44798 19.1866 12.4645 10.9292C19.064 4.13149 26.8259 -0.216218 36.5672 0.118514C39.1366 0.237731 41.6678 0.785438 44.0567 1.73901C50.3874 4.20377 55.7886 8.58723 59.5035 14.2751C65.8975 23.8852 69.5455 34.5369 71.038 45.9237C71.7803 51.58 72.2056 57.2784 72.8068 63.2819C73.8471 63.0043 74.8808 62.7484 75.9028 62.4523C88.0128 58.9396 100.009 58.9841 111.899 63.4827C115.022 64.6072 117.879 66.3641 120.291 68.6442C122.703 70.9237 124.619 73.677 125.918 76.731C131.3 88.7531 133.137 101.172 130.303 114.142C128.36 123.024 123.947 130.35 116.61 135.843C106.787 143.198 95.8154 147.237 83.4841 147.21C77.9295 147.202 72.5961 145.873 67.1157 143.751ZM8.91245 73.9737C14.853 73.9737 20.3459 74.0571 25.8355 73.956C35.9326 73.7696 46.0277 73.4893 56.1222 73.1973C56.8635 73.1546 57.5764 72.8973 58.1739 72.4562C59.8937 71.1987 61.5352 69.8368 63.0892 68.3791C63.76 67.7241 64.1733 66.8492 64.2541 65.9152C64.3198 61.8754 64.3035 57.8277 64.1263 53.7912C63.6137 42.1269 61.516 30.8456 55.8466 20.444C53.4664 15.9632 49.9775 12.167 45.7132 9.41763C40.0655 5.78219 34.1303 5.23147 28.0506 7.85423C20.8604 10.9567 15.3406 16.124 12.4435 23.3825C9.21752 31.3125 7.57628 39.7977 7.61231 48.3587C7.68451 55.8737 8.20295 63.3843 8.55081 70.8955C8.59741 71.8859 8.77921 72.871 8.91245 73.9737ZM59.402 139.636C57.578 138.109 56.1654 137.004 54.8396 135.802C49.9141 131.489 46.3641 125.824 44.6304 119.51C41.264 107.007 43.6162 95.3178 49.5745 84.1253C50.1396 83.0646 50.708 82.0053 51.3105 80.8784C45.6509 80.0251 12.2243 80.5279 9.17367 81.515C9.17367 83.2451 9.11132 85.0264 9.18549 86.8018C9.39617 91.8438 9.56748 96.891 9.93109 101.923C10.4155 108.623 10.9084 115.33 11.6829 122.001C12.9489 132.902 23.1365 142.139 32.7434 143.851C40.9417 145.311 48.7935 143.884 56.5193 141.252C57.5239 140.795 58.4883 140.255 59.402 139.636ZM116.056 78.6672C114.216 75.501 111.342 73.0647 107.918 71.7677C103.762 70.1046 99.544 68.5517 95.2542 67.2823C92.6066 66.5006 89.6931 65.696 87.0415 66.0294C80.4335 66.7494 74.0801 68.9809 68.4737 72.5521C59.4306 78.4795 54.6421 87.3374 51.7214 97.38C49.5679 104.785 49.5503 112.217 52.196 119.545C52.6679 120.851 53.3327 122.087 53.9168 123.375C73.9311 107.068 95.753 94.0176 116.056 78.6672ZM58.1982 129.109C64.6015 135.317 71.6307 138.775 79.8217 139.593C91.7198 140.78 102.137 136.854 111.476 129.748C116.469 125.999 119.945 120.579 121.269 114.478C122.698 108.109 122.872 101.522 121.782 95.0861C121.348 92.3951 120.551 89.7665 119.797 86.5924L58.1982 129.109Z" fill="black"/>
</g>
<defs>
<clipPath id="clip0_6_2236">
<rect width="131.924" height="152.927" fill="white"/>
</clipPath>
</defs>
</svg>
