<svg width="156" height="155" viewBox="0 0 156 155" fill="none" xmlns="http://www.w3.org/2000/svg">
<g clip-path="url(#clip0_8_2566)">
<path d="M3.51033 154.934C4.08509 154.926 4.65029 154.786 5.16162 154.522C6.00181 154.119 6.79473 153.624 7.52612 153.046C8.90293 151.931 10.2487 150.743 11.5504 149.594L20.0204 142.12C29.9196 133.387 40.1561 124.356 50.199 115.445C50.7816 114.926 51.3784 114.423 51.9765 113.917C54.1443 112.081 56.3781 110.19 58.0611 107.621C58.8379 108.626 59.6043 109.624 60.3597 110.613C62.4919 113.401 64.5024 116.036 66.7239 118.573C69.8225 122.114 73.138 125.559 76.3441 128.89C77.2341 129.814 78.1229 130.739 79.0097 131.666C80.582 133.311 82.5918 133.551 84.6697 132.344L84.849 132.24C85.6011 131.833 86.3158 131.36 86.9851 130.827C100.081 119.775 105.304 106.529 102.931 90.3497C104.671 89.9723 106.397 89.6 108.109 89.2329C112.532 88.2815 116.71 87.3826 120.969 86.4338C128.833 84.6828 138.134 82.5971 147.492 80.4167C149.171 80.0471 150.791 79.4472 152.306 78.6346C155.716 76.748 156.846 72.777 154.993 69.1945C149.944 59.4253 143.458 49.8808 134.589 39.1592C130.116 33.7511 125.455 28.3515 120.948 23.1289C118.796 20.6359 116.648 18.1397 114.505 15.6403C113.404 14.3516 112.315 13.0507 111.229 11.7491C109.008 9.09008 106.713 6.34605 104.325 3.7545C102.278 1.53197 100.217 0.482769 98.1918 0.64166C96.1205 0.801849 94.1669 2.22199 92.3965 4.86347C86.1624 14.1641 81.2429 24.0266 75.7738 35.9732C74.0908 39.6452 72.4421 43.3769 70.8465 46.986C70.1759 48.4992 69.5086 50.0046 68.8444 51.5023C67.1381 51.6547 65.4137 51.7831 63.7438 51.907C59.7493 52.2034 55.6181 52.5107 51.6152 53.167C42.97 54.6442 34.8009 58.1651 27.7855 63.4378C25.3082 65.2598 24.9658 67.029 26.5634 69.7464C26.9241 70.3495 27.3355 70.9209 27.7932 71.454C33.8597 78.6598 39.9325 85.8599 46.0116 93.0547C47.7114 95.0652 49.4177 97.0757 51.1492 99.1088L53.1041 101.408C52.638 101.76 52.1797 102.101 51.7292 102.435C50.3919 103.427 49.1283 104.365 47.9451 105.418L47.8757 105.479C41.0602 111.548 34.0125 117.824 27.1984 124.129C20.7901 130.06 14.3468 136.169 8.11652 142.077L2.99246 146.933C2.11793 147.708 1.35366 148.6 0.721047 149.584C0.293919 150.216 0.0933523 150.975 0.152129 151.737C0.210906 152.499 0.525558 153.218 1.0447 153.778C1.35047 154.134 1.7284 154.422 2.15346 154.622C2.57851 154.821 3.04106 154.927 3.51033 154.934ZM90.4967 108.209C89.5982 112.803 86.2103 118.874 81.9873 123.507C73.2072 114.222 65.2111 104.082 57.4746 94.2707C50.5154 85.4455 43.3239 76.3258 35.5362 67.7846C39.1988 65.5186 43.2659 63.9874 47.5113 63.2757C51.9544 62.5967 56.5166 62.1428 60.9286 61.7031C62.82 61.5144 64.7114 61.3264 66.6002 61.1195C66.8054 61.0974 66.9679 61.1141 67.2605 61.1005C74.3912 60.7717 74.6863 60.5765 77.7876 54.1392C79.6906 50.1896 81.5795 46.2337 83.4547 42.2711C86.5093 35.8422 89.6688 29.1947 92.8684 22.7061C94.2925 19.8221 95.9159 17.0786 97.6365 14.1725C98.2656 13.1102 98.9019 12.0324 99.5356 10.9416C113.172 27.6381 125.237 44.5974 138 62.5378C140.135 65.538 142.278 68.5453 144.428 71.5597C143.372 71.8269 142.34 72.0915 141.327 72.3502C138.534 73.0636 135.895 73.7413 133.236 74.3568L129.753 75.1629C119.562 77.5236 109.024 79.9621 98.6314 82.2235C95.3651 82.9369 93.5572 84.8709 93.104 88.1453C92.8891 89.7018 92.7234 91.2849 92.5629 92.8148C92.4283 94.1034 92.2891 95.4362 92.1214 96.7384C92.0101 97.6029 91.9039 98.4681 91.7978 99.3326C91.4392 102.257 91.0683 105.284 90.4967 108.206V108.209Z" fill="black"/>
</g>
<defs>
<clipPath id="clip0_8_2566">
<rect width="156" height="155" fill="white"/>
</clipPath>
</defs>
</svg>
