<svg width="107" height="139" viewBox="0 0 107 139" fill="none" xmlns="http://www.w3.org/2000/svg">
<g clip-path="url(#clip0_8_2295)">
<path d="M94.6562 20.3056C88.95 11.9546 80.6309 5.73639 71.0057 2.62838C60.7107 -0.826587 49.4866 -0.741251 38.5454 2.87386C27.8063 6.48333 18.3228 13.0873 11.2123 21.9076C1.89883 33.5038 -1.5207 47.3737 0.75548 64.3184C1.2402 67.0597 2.04738 69.7336 3.16026 72.2848L3.46487 73.0724C3.61737 73.5023 3.855 73.8974 4.16368 74.2328C4.47235 74.5688 4.84569 74.8393 5.26123 75.027C5.64499 75.1766 6.05563 75.2442 6.46703 75.2265C6.87845 75.2088 7.28158 75.1051 7.65096 74.9233C9.47296 74.1042 9.16448 72.5132 8.96364 71.4611C8.93345 71.3068 8.90391 71.1513 8.87897 70.9977C8.68207 69.8012 8.46023 68.6054 8.23773 67.4089C7.64329 64.5801 7.24134 61.7139 7.03466 58.8305C5.88937 34.7035 20.5729 15.1514 44.4459 9.02059C61.1602 4.72686 75.1912 8.9285 86.1547 21.5C91.7296 28.0248 95.7005 35.7639 97.7489 44.0978C99.9936 52.6669 98.8732 61.77 94.6181 69.5393C90.3631 77.3084 83.2963 83.1551 74.867 85.8782C70.9552 87.1449 66.9397 88.0671 62.8674 88.6348C60.5566 88.8796 58.2296 88.9315 55.9102 88.7904C55.0878 88.7641 54.2437 88.7379 53.3925 88.7247C53.4299 88.5114 53.4653 88.306 53.4994 88.1065C53.6432 87.2788 53.7679 86.5608 53.909 85.8461C55.7566 76.5195 57.6646 65.644 56.9058 54.6044C56.6815 50.4031 55.8323 46.2589 54.3862 42.3079C53.0006 38.7237 50.7762 36.3943 47.9586 35.5706C45.0326 34.7173 41.7497 35.5418 38.4614 37.9571C34.3606 40.9684 31.5968 44.3479 30.0071 48.2964C28.3007 52.5285 26.5404 56.9051 25.525 61.4036C22.3227 75.5803 27.832 87.6936 40.6392 94.6364C40.8389 94.7631 41.0233 94.9127 41.1885 95.0814L41.2404 95.1299C40.9017 96.4354 40.5687 97.7356 40.2414 99.0306C39.4538 102.132 38.6393 105.338 37.7355 108.44C36.6092 112.306 35.4102 116.225 34.2511 120.014C33.1865 123.493 32.0851 127.084 31.0455 130.633C30.0144 134.142 31.1295 137.11 33.8192 138.019C34.3412 138.201 34.8895 138.295 35.4423 138.3C37.6738 138.3 39.5418 136.624 40.6142 133.559C41.3362 131.496 41.9722 129.372 42.5872 127.317L42.8385 126.477C44.8811 119.67 46.9168 112.867 48.9458 106.068L51.3407 98.0559C52.6534 97.968 53.991 97.901 55.2906 97.8367C58.6046 97.7284 61.9109 97.4468 65.1954 96.992C79.2625 94.7873 89.015 89.8819 95.8855 81.5556C104.016 71.7033 107.453 61.2747 106.395 49.6687C105.511 40.0028 101.781 30.6744 94.6562 20.3056ZM47.3876 53.5378C47.1027 60.0251 46.5521 66.9068 45.7021 74.5754C45.3963 77.3406 44.8338 80.0283 44.2379 82.8741C44.0311 83.8633 43.8231 84.8569 43.6262 85.8565C36.5548 82.3392 32.2176 73.8817 33.6799 66.2058C34.6546 61.0866 36.5837 56.0158 38.3158 51.6675C39.5169 48.6484 41.8599 46.2137 45.2827 44.4173C46.8983 47.1716 47.6327 50.3541 47.3876 53.5378Z" fill="black"/>
</g>
<defs>
<clipPath id="clip0_8_2295">
<rect width="106.983" height="138.487" fill="white"/>
</clipPath>
</defs>
</svg>
