<svg width="124" height="132" viewBox="0 0 124 132" fill="none" xmlns="http://www.w3.org/2000/svg">
<g clip-path="url(#clip0_6_1990)">
<path d="M91.1557 90.4832C89.0554 90.7241 88.1543 92.3991 87.1048 93.7991C82.8347 99.4941 78.4694 101.019 71.5988 99.1207C66.3107 97.6583 64.8542 98.3468 62.2958 103.314C61.3888 105.243 60.3093 107.086 59.0706 108.821C58.1739 109.971 57.0298 110.903 55.7235 111.55C54.4171 112.198 52.9823 112.542 51.5246 112.559C50.0669 112.576 48.6237 112.265 47.3026 111.648C45.9816 111.032 44.8166 110.125 43.8934 108.997C43.6115 108.648 43.31 108.315 42.9903 107.999C41.295 106.417 39.5539 106.744 38.9343 109.012C38.4093 110.935 38.3904 112.998 38.1594 114.999C37.8122 118.006 37.5224 121.021 37.1095 124.018C36.9489 125.015 36.6388 125.983 36.1904 126.888C33.9136 131.689 28.3061 132.239 25.4832 127.722C24.0997 125.507 23.4821 122.779 22.7201 120.223C22.1136 118.189 21.9808 116.014 21.3356 113.999C20.5415 111.52 19.3622 111.149 16.9666 112.221C15.574 112.939 14.1359 113.565 12.6616 114.096C7.45749 115.64 2.62678 112.849 1.16381 107.632C0.477279 105.184 0.131436 103.069 2.39252 100.963C3.88043 99.5761 4.62406 97.3702 5.63351 95.4931C16.2006 75.8029 27.8409 56.7555 40.2726 38.1949C46.9554 28.2186 53.7569 18.3164 60.5435 8.40767C61.8102 6.55747 63.3214 4.87585 64.6078 3.03744C66.2136 0.740262 68.3677 0.00908881 71.0514 0.385171C76.5141 1.15112 81.3632 3.495 85.8761 6.46559C103.946 18.3591 115.749 34.6691 120.312 55.9706C121.271 60.4481 122.645 64.8579 121.975 69.5881C121.751 71.1751 122.528 72.8816 122.67 74.5487C122.997 77.2449 122.472 79.9759 121.169 82.3591C119.882 84.5906 118.162 85.8134 115.382 85.4347C112.113 84.9897 111.444 85.543 110.9 88.8076C110.44 91.5721 110.197 94.3727 109.783 97.1431C109.594 98.3619 109.309 99.5643 108.931 100.738C107.743 104.483 105.69 106.131 102.192 106.242C98.3262 106.365 95.3097 104.47 94.1191 100.902C93.594 99.3267 93.5527 97.5993 93.1792 95.9669C92.7408 94.0675 93.0598 91.8622 91.1557 90.4832ZM82.0261 52.6232C81.9788 52.5215 81.9611 52.3711 81.881 52.3251C81.4183 52.0245 80.93 51.765 80.422 51.5494C76.0376 49.9676 73.4838 46.7969 72.3562 42.3607C71.9703 40.8439 71.6205 39.3146 71.1565 37.822C70.655 35.8765 69.9901 33.9764 69.1704 32.1421C67.227 28.3261 63.1317 26.7811 57.8495 27.4368C54.0625 27.9067 53.2755 30.9764 51.6143 33.7698C57.1039 34.4813 59.5176 37.8115 60.105 42.4302C60.5335 45.4484 60.2358 48.5253 59.2372 51.4055C58.2387 54.2858 56.568 56.8862 54.3634 58.9915C49.2833 64.0643 42.2781 64.7228 36.1039 61.0578C35.4548 60.6725 34.8354 60.236 33.906 59.6309L9.01361 99.7658L9.44817 100.399L26.6658 94.8768C26.7393 94.1108 26.7887 93.782 26.7972 93.4519C26.8103 93.0036 26.7532 92.5501 26.7972 92.1057C27.5376 84.3951 30.4548 78.0909 37.8236 74.4666C45.3347 70.7728 56.9605 71.6595 61.5831 81.4737C61.8138 81.8846 62.0712 82.279 62.3542 82.6551C63.7036 82.1957 64.9732 81.7881 66.2267 81.3332C67.5505 80.8535 68.858 80.329 70.1378 79.8368C66.8811 69.424 71.7065 58.6267 82.0261 52.6232ZM29.7821 125.82L30.7243 125.603C32.3219 123.174 32.3101 120.345 32.5831 117.589C32.8916 114.468 32.923 111.294 33.5426 108.237C34.4693 103.664 38.3338 101.224 42.5153 102.324C44.3209 102.798 46.1425 103.292 47.4545 104.917C48.655 106.404 50.427 107.295 52.2155 106.255C53.428 105.479 54.3853 104.363 54.9678 103.047C56.6018 99.4567 59.2885 96.448 62.6715 94.4193C63.8682 93.5844 65.2375 93.0312 66.6783 92.7995C68.1183 92.5678 69.5931 92.6643 70.9911 93.081C72.0681 93.3908 73.1228 93.8142 74.2196 94.0137C77.0701 94.5322 79.5609 94.0334 81.2752 91.3706C81.9729 90.352 82.7448 89.3865 83.5855 88.4827C86.01 85.7294 88.873 83.7112 92.7172 84.8433C96.4038 85.9289 97.7309 89.0577 98.3433 92.5442C98.6537 94.3104 98.8769 96.093 99.2005 97.8572C99.4302 99.1102 99.8273 100.37 101.391 100.421C102.955 100.471 102.915 99.0386 103.265 98.0397C103.431 97.5034 103.538 96.9508 103.585 96.3916C103.913 93.6094 104.212 90.8239 104.537 88.0423C105.304 81.4986 109.621 79.021 114.586 79.7725C114.769 79.8 114.985 79.6163 115.57 79.3688C115.807 77.5711 116.07 75.5726 116.398 73.0831C111.089 74.5428 106.395 75.6428 101.826 77.1228C80.0708 84.164 58.3852 91.4212 36.598 98.3626C26.8908 101.456 17.0051 103.989 7.19811 106.77C6.52533 106.961 5.83707 107.098 5.04159 107.288C7.34204 110.574 8.56664 110.998 11.6239 109.663C12.6464 109.216 13.5727 108.554 14.586 108.083C15.5627 107.551 16.6065 107.151 17.6892 106.896C21.4999 106.273 24.6358 108.147 25.9681 112.154C26.9172 115.007 27.2776 118.051 28.0423 120.973C28.4748 122.626 29.194 124.206 29.7847 125.82H29.7821ZM104.433 68.8569C104.358 67.856 104.226 66.8603 104.04 65.8745C100.253 51.1884 93.7844 37.8746 83.4372 26.6631C78.1714 20.9582 71.5089 17.3943 64.0815 14.9704L57.8662 23.9274C59.2124 23.9274 59.8857 23.9786 60.5492 23.9196C67.4455 23.3039 72.3385 27.782 74.3082 33.9319C74.9225 35.8478 75.4417 37.7959 75.9589 39.7406C76.9473 43.4548 78.9072 46.214 82.8655 47.2169C83.9399 47.5418 84.9711 47.9969 85.9359 48.5721C90.0839 50.8155 92.6253 54.2273 92.8517 59.0002C92.876 61.6873 92.7638 64.3738 92.5157 67.0494C92.4205 68.7814 92.2695 70.5109 92.1284 72.4517L104.433 68.8569ZM115.831 65.9205C115.738 64.7667 115.714 64.0992 115.628 63.4402C112.971 43.1279 104.247 26.2351 87.4126 14.0679C83.8684 11.5265 80.0886 9.33088 76.1243 7.51112C70.8926 5.09254 70.3347 5.46986 67.3339 10.4475C67.244 10.5965 67.3228 10.8479 67.3228 11.0435C67.5144 11.1725 67.7159 11.2855 67.926 11.3809C68.558 11.6086 69.2071 11.7898 69.8359 12.0261C77.3011 14.8286 83.8717 18.9032 89.2117 24.9612C97.9042 34.8573 104.421 46.469 108.34 59.0441C109.181 61.6839 110.023 64.3237 110.915 67.1216L115.831 65.9205ZM56.5189 84.6674C54.972 79.8158 50.9688 77.6138 45.7496 78.3929C38.3205 79.5014 33.3902 85.0251 33.3856 92.4956L56.5189 84.6674ZM37.2223 54.9407C42.0845 58.7704 46.8357 58.4652 49.9665 54.3028C51.8966 51.7892 52.927 48.7005 52.8924 45.5315C52.8563 41.7208 51.4202 40.2571 47.2026 39.8016L37.2223 54.9407ZM85.9792 74.4929C86.4196 71.3556 86.837 68.5858 87.1908 65.8076C87.5511 62.9742 88.5225 60.131 87.3457 57.2648C79.7138 58.7514 74.381 69.7673 77.668 77.2488L85.9792 74.4929Z" fill="black"/>
</g>
<defs>
<clipPath id="clip0_6_1990">
<rect width="123.392" height="131.268" fill="white"/>
</clipPath>
</defs>
</svg>
