<svg width="163" height="161" viewBox="0 0 163 161" fill="none" xmlns="http://www.w3.org/2000/svg">
<g clip-path="url(#clip0_6_1965)">
<path d="M79.4968 159.849C65.1376 160.173 51.9307 158.367 39.8338 151.981C20.3248 141.676 8.46864 125.288 3.3269 104.003C1.34804 95.8076 0.232379 87.4275 0.683283 78.9765C1.35931 66.3269 3.97606 54.1347 9.77941 42.7158C16.3605 29.5245 27.2414 18.9705 40.6273 12.7947C51.7855 7.5235 63.5704 3.69672 75.6966 1.40717C98.2208 -2.88331 117.333 3.91376 133.833 19.0863C148.564 32.6312 158.075 49.1636 161.539 69.0119C164.194 84.2226 162.204 98.9744 156.769 113.258C147.36 137.991 129.133 152.35 103.466 157.626C95.5784 159.215 87.5428 159.961 79.4968 159.849ZM26.5804 33.1982C16.0587 42.0509 6.37189 72.6782 9.94894 85.5228L73.3509 79.3565C59.1906 62.5858 43.5362 47.1363 26.5804 33.1982ZM135.555 131.189C148.977 118.899 154.727 90.8831 152.449 80.612C142.326 81.5874 132.188 82.7392 122.02 83.4953C111.795 84.256 101.542 84.6236 90.7779 85.1913C105.456 101.159 120.137 116.405 135.551 131.186L135.555 131.189ZM84.1785 74.6131L130.142 30.0255C118.81 16.123 90.3402 6.0285 79.3137 11.845C80.9296 32.7224 82.5448 53.5638 84.1758 74.6066L84.1785 74.6131ZM27.0451 131.583L72.3447 85.8693C51.2614 88.6988 30.5658 87.9958 10.2921 91.5552C11.6691 106.864 16.8398 120.184 27.04 131.579L27.0451 131.583ZM74.8585 151.313C75.4492 131.369 76.0326 111.629 76.6398 91.103C60.5249 105.761 45.9436 120.778 31.2357 135.663C41.0197 146.169 59.7945 151.92 74.8565 151.309L74.8585 151.313ZM82.6466 151.481C99.7901 150.863 115.715 148.294 128.941 137.42L83.91 91.6044C83.3134 111.608 82.5461 131.34 82.6439 151.477L82.6466 151.481ZM31.2943 27.723C39.3752 34.5739 47.2795 40.8445 54.6751 47.6665C62.116 54.5298 69.0486 61.9419 76.2072 69.1137L76.9082 68.8249C76.0307 49.8469 75.1532 30.8682 74.2881 12.156C71.5157 12.156 69.0486 12.0247 66.6011 12.1895C63.7043 12.3818 60.6025 12.2552 57.9824 13.2751C52.0446 15.6147 46.2427 18.2854 40.6039 21.2746C37.2985 23.0053 34.408 25.5242 31.2917 27.719L31.2943 27.723ZM90.646 77.2818C111.439 77.2713 131.715 75.1356 151.98 72.1459C150.011 57.8923 143.991 45.9042 134.89 34.8955L90.646 77.2818Z" fill="black"/>
<path d="M50.4167 72.8609C49.7989 72.8826 49.1834 72.7769 48.6085 72.5492C48.0337 72.3214 47.5121 71.9775 47.0767 71.5384C46.6413 71.1 46.3016 70.5756 46.0787 69.9993C45.8559 69.4224 45.7546 68.8061 45.7816 68.1885C45.7967 65.8959 48.688 62.9519 50.9484 62.9277C53.8205 62.8955 55.775 64.7471 55.6963 67.4238C55.7007 68.8402 55.151 70.2015 54.1644 71.2175C53.1777 72.2341 51.8325 72.8235 50.4167 72.8609Z" fill="black"/>
<path d="M27.9341 58.483C27.2977 58.5284 26.6581 58.4752 26.0379 58.3255C23.257 57.1592 20.9591 52.7172 21.4435 49.6823C21.6188 48.5763 22.002 47.6844 23.291 47.7874C24.4869 47.8826 24.5684 48.7418 24.4627 49.7414C24.2343 51.9073 25.3815 53.5573 26.5984 55.1791C27.239 56.0323 27.824 56.9308 28.4363 57.8083L27.9341 58.483Z" fill="black"/>
<path d="M36.9433 69.7061C36.8777 70.2312 36.9748 70.7923 36.7398 71.0523C34.7327 73.2687 32.6967 75.4609 30.5873 77.5802C30.364 77.7968 30.0938 77.9582 29.798 78.0534C29.502 78.1486 29.1882 78.1742 28.8807 78.1282C28.642 77.9392 28.4507 77.6964 28.3225 77.42C28.1943 77.1437 28.1326 76.8412 28.1424 76.5366C28.2493 73.9428 32.9895 69.4068 35.6188 69.3169C36.0769 69.3812 36.5232 69.5125 36.9433 69.7061Z" fill="black"/>
<path d="M136.234 90.7023C139.467 90.6669 141.03 92.0511 141.005 94.9298C140.98 97.7389 139.205 99.5852 136.468 99.6469C135.119 99.6495 133.826 99.1159 132.87 98.1649C131.915 97.2132 131.376 95.9215 131.373 94.5727C131.381 92.2099 133.237 90.7351 136.234 90.7023Z" fill="black"/>
<path d="M128.626 113.251C124.491 112.941 120.877 108.722 121.364 105.231C121.457 104.78 121.65 104.355 121.93 103.989C122.21 103.622 122.569 103.324 122.98 103.115C124.222 102.685 124.672 103.795 124.802 104.883C125.082 107.231 126.452 108.69 128.557 109.575C128.762 109.66 129.03 109.727 129.139 109.889C129.608 110.583 130.548 111.555 130.352 111.968C130.02 112.671 128.958 113.03 128.626 113.251Z" fill="black"/>
<path d="M112.512 90.2666C114.25 90.9984 115.759 91.4329 117.013 92.2553C117.307 92.5434 117.521 92.9018 117.635 93.2969C117.749 93.6914 117.76 94.1095 117.666 94.5092C117.432 95.0244 116.107 95.5035 115.492 95.302C113.385 94.6109 111.442 94.2663 109.38 95.493C108.893 95.7831 107.441 95.4969 107.345 95.195C107.12 94.4639 107.134 93.1295 107.588 92.8178C109.168 91.8543 110.813 91.0017 112.512 90.2666Z" fill="black"/>
<path d="M98.9981 50.2237C99.1911 52.5779 98.0366 54.3948 96.002 55.6503C95.1113 56.237 94.0704 56.5561 93.0038 56.5703C91.9373 56.5843 90.8884 56.2926 89.982 55.7296C87.7301 54.4445 86.4043 50.0996 87.3974 47.4263C87.9021 46.1127 88.8636 45.0251 90.1054 44.3637C91.3472 43.7024 92.7866 43.5115 94.1577 43.8263C97.2136 44.3907 98.9752 46.6683 98.9981 50.2237ZM90.5366 49.7924C91.1844 52.7624 91.915 53.6917 93.0393 53.0118C93.4009 52.7408 93.6917 52.3861 93.8859 51.9781C94.0802 51.5701 94.1728 51.1209 94.155 50.6693C93.6634 48.5454 92.1256 49.3081 90.5366 49.7924Z" fill="black"/>
<path d="M86.7135 31.1765C86.8533 27.9854 88.5033 25.9691 91.4312 24.9413C93.3924 24.2138 95.2951 23.336 97.121 22.316C98.3451 21.6596 99.4838 20.7853 100.723 22.0658C101.572 22.9407 101.291 24.925 99.8665 25.916C98.3372 27.0048 96.6209 27.8031 94.8028 28.2716C92.6035 28.7966 91.1497 29.6499 90.8976 32.0514C90.7493 33.4593 90.196 34.9602 88.523 34.6925C86.7207 34.3991 86.7023 32.6782 86.7135 31.1765Z" fill="black"/>
<path d="M114.612 35.8038C112.304 35.8458 110.36 34.6827 109.827 32.9415C109.221 30.9666 109.976 29.2628 112.069 27.8877C112.254 27.7657 112.451 27.6607 112.646 27.5537C114.746 26.3946 117.578 26.4248 118.951 27.6285C120.461 28.9543 120.23 30.6522 119.759 32.2727C119.155 34.3493 116.96 35.7612 114.612 35.8038Z" fill="black"/>
<path d="M50.6254 92.7844C53.1195 92.8055 54.7347 94.3702 54.6185 96.6536C54.5116 98.7696 52.3615 100.515 49.9501 100.447C47.5073 100.376 46.2347 98.9153 46.3226 96.284C46.3981 94.0472 47.9784 92.7628 50.6254 92.7844Z" fill="black"/>
<path d="M37.214 102.958C33.5143 106.058 28.052 104.362 27.1462 100.176C27.1271 99.8731 27.1745 99.5685 27.285 99.285C27.3956 99.0021 27.5666 98.7461 27.7862 98.5355C28.0199 98.4344 28.2752 98.3937 28.5288 98.418C28.7823 98.4416 29.0256 98.5295 29.2361 98.6726C30.68 101.31 33.0785 101.765 35.7498 101.835C36.1685 101.845 36.5708 102.444 37.214 102.958Z" fill="black"/>
<path d="M34.7773 113.125C33.2677 116.209 32.0714 118.824 30.6787 121.329C30.4255 121.582 30.1113 121.767 29.7666 121.864C29.4219 121.961 29.058 121.969 28.7097 121.885C28.4061 121.684 28.1537 121.415 27.9729 121.1C27.7921 120.783 27.6878 120.43 27.6685 120.067C27.6776 117.354 31.0447 113.855 34.7773 113.125Z" fill="black"/>
<path d="M67.4064 133.327C68.0509 133.328 68.6888 133.458 69.2822 133.71C69.8755 133.962 70.4117 134.331 70.86 134.794C71.3083 135.257 71.6594 135.806 71.8918 136.407C72.1241 137.009 72.2331 137.651 72.2121 138.295C72.1484 139.711 71.5288 141.044 70.4879 142.007C69.4469 142.969 68.0686 143.481 66.6522 143.434C63.8144 143.434 61.39 141.359 61.3257 138.873C61.2529 136.12 64.3562 133.289 67.4064 133.327Z" fill="black"/>
<path d="M67.1542 108.771C69.918 108.837 71.4749 110.502 71.3482 113.266C71.2248 115.962 68.7701 118.477 66.2255 118.517C65.64 118.522 65.0594 118.41 64.5185 118.186C63.9776 117.962 63.4876 117.631 63.0776 117.213C62.6677 116.796 62.3463 116.299 62.1328 115.754C61.9193 115.209 61.818 114.626 61.8351 114.041C61.8348 113.345 61.9727 112.655 62.2405 112.012C62.5083 111.37 62.9009 110.787 63.3955 110.297C63.8901 109.806 64.4767 109.42 65.1219 109.158C65.7673 108.896 66.4578 108.765 67.1542 108.771Z" fill="black"/>
<path d="M46.9558 138.119C46.9092 134.857 50.1312 129.792 52.5609 128.869C52.9051 128.728 53.2756 128.663 53.6471 128.679C54.0185 128.695 54.382 128.791 54.7129 128.96C54.9288 129.251 55.0668 129.593 55.1139 129.952C55.161 130.311 55.1156 130.677 54.9822 131.014C53.2914 133.855 51.4595 136.615 49.6001 139.349C49.3553 139.709 48.3616 140.049 48.229 139.91C47.7466 139.356 47.3202 138.756 46.9558 138.119Z" fill="black"/>
<path d="M101.044 134.974C101.114 131.377 103.493 129.002 106.866 129.159C109.948 129.302 112.105 131.748 112.022 134.999C111.929 138.626 109.246 141.544 106.115 141.424C102.734 141.296 100.964 139.043 101.044 134.974Z" fill="black"/>
<path d="M86.7589 117.855C86.7956 114.627 88.3551 112.948 91.3296 112.933C94.5745 112.916 96.5344 114.747 96.4714 117.738C96.4129 120.504 93.8322 122.678 90.7442 122.561C88.1601 122.462 86.7254 120.766 86.7589 117.855Z" fill="black"/>
<path d="M95.0227 128.645C95.471 127.683 95.9941 126.756 96.5855 125.874C98.1042 123.914 99.5331 121.981 99.8593 119.377C99.9387 118.745 100.915 117.952 101.617 117.773C102.068 117.657 103.094 118.405 103.306 118.974C104.29 121.617 103.503 124.044 101.892 126.203C100.369 128.247 98.5945 129.937 95.6994 129.222C95.515 129.177 95.3738 128.953 95.0227 128.645Z" fill="black"/>
<path d="M63.8657 44.7582C64.4249 43.7369 65.1126 41.8289 66.3488 40.3869C67.7895 38.7034 70.9353 39.6596 72.2454 41.9128C74.0477 45.0127 71.7203 49.7549 68.1761 50.2091C66.0935 50.4762 63.9018 48.1501 63.8657 44.7582Z" fill="black"/>
<path d="M50.5529 31.5732C47.5731 31.5627 45.7045 29.6896 45.7557 26.7636C45.7937 24.6036 48.0265 22.7442 50.6125 22.7219C53.4072 22.6982 55.8324 24.9113 55.7405 27.4008C55.6486 29.7827 53.4119 31.583 50.5529 31.5732Z" fill="black"/>
<path d="M62.7512 29.9866L69.3649 28.4829C70.3054 30.4591 70.0081 31.258 67.8455 32.2819C65.4824 33.4009 63.8913 32.7084 62.7512 29.9866Z" fill="black"/>
<path d="M133.283 63.4422C130.449 63.4829 128.766 61.8225 128.671 58.89C128.563 55.5427 131.341 52.3778 134.456 52.3016C137.619 52.2248 139.613 54.0704 139.665 57.1243C139.727 60.7493 137.061 63.3884 133.283 63.4422Z" fill="black"/>
<path d="M118.676 71.5408C114.687 71.4175 112.352 69.9492 110.997 67.0554C110.654 66.3676 110.506 65.5987 110.57 64.8327C110.634 64.5242 110.768 64.2349 110.964 63.988C111.159 63.7412 111.41 63.5438 111.696 63.4116C112.004 63.3982 112.311 63.4536 112.595 63.574C112.879 63.6943 113.132 63.8767 113.337 64.1074C113.841 64.6594 113.997 65.5166 114.459 66.1234C115.219 67.1211 116.158 68.0091 117.556 67.335C118.776 66.7443 119.97 66.4221 120.772 67.7715C121.11 68.3392 121.253 69.4977 120.912 69.8961C120.251 70.5511 119.498 71.105 118.676 71.5408Z" fill="black"/>
</g>
<defs>
<clipPath id="clip0_6_1965">
<rect width="162.772" height="160.146" fill="white"/>
</clipPath>
</defs>
</svg>
