<svg width="104" height="122" viewBox="0 0 104 122" fill="none" xmlns="http://www.w3.org/2000/svg">
<g clip-path="url(#clip0_8_2568)">
<path d="M99.3018 47.7886C98.787 47.3264 98.2456 46.8946 97.6801 46.4953C96.0063 45.3084 94.3235 44.0631 92.6959 42.8612C89.0286 40.0503 85.2209 37.4267 81.2871 35.0007C64.2474 24.8922 45.0081 15.6235 22.4687 6.66619C18.9977 5.28656 15.4753 3.96594 11.7437 2.56813C9.94124 1.89259 8.079 1.19371 6.12964 0.45457C5.97986 0.397786 5.81462 0.396647 5.66404 0.451322C5.51347 0.505997 5.38753 0.612835 5.30929 0.752424C5.11429 1.09896 4.88033 1.45001 4.65413 1.7907C4.06456 2.55035 3.63974 3.42416 3.40674 4.35658C2.74675 7.87087 2.31498 11.4241 2.11396 14.994C2.01386 17.3968 1.91224 19.7994 1.80911 22.2017C1.26961 34.8761 0.711259 47.9813 0.509111 60.8782C0.314111 73.2265 0.36351 85.7814 0.41096 97.923C0.43046 102.875 0.444707 107.827 0.453807 112.779V112.953C0.416025 114.265 0.494319 115.577 0.6878 116.875C0.80571 117.743 1.12225 118.572 1.61281 119.298C2.10337 120.024 2.7548 120.628 3.51663 121.062C4.27245 121.462 5.11576 121.668 5.97103 121.662C6.88722 121.653 7.7915 121.454 8.62688 121.078C9.48579 120.671 10.3041 120.185 11.0709 119.624C11.4121 119.39 11.7534 119.157 12.1012 118.939C14.1968 117.623 16.2902 116.303 18.3815 114.98C22.9666 112.087 27.707 109.096 32.4 106.207C39.0712 102.1 45.7497 98.0048 52.4356 93.9223C60.7602 88.8288 69.3687 83.5614 77.8128 78.3433C85.7272 73.4523 92.8278 67.3432 99.4221 61.5058C102.116 59.121 103.375 56.984 103.387 54.779C103.396 52.5285 102.098 50.3084 99.3018 47.7886ZM10.2974 10.4948L10.4632 10.5598C11.0543 10.7604 11.6174 11.0353 12.1389 11.3781C18.9535 16.4203 26.1977 20.556 34.9779 25.214C47.9129 32.0778 58.7296 37.8904 69.4785 43.9515C73.2914 46.1014 76.9893 48.6329 80.5656 51.0813C81.8656 51.973 83.1721 52.8652 84.4831 53.742C85.3483 54.3488 86.179 55.0033 86.9713 55.7024C87.3204 55.997 87.6928 56.3111 88.1004 56.6485C85.1929 59.9252 81.9111 62.8505 78.3218 65.3646C72.4068 69.4789 66.6003 73.4763 60.6139 77.1266C47.7855 84.9521 34.6698 92.7932 21.9857 100.377L12.1167 106.282C11.6491 106.532 11.1545 106.728 10.6426 106.866L10.5776 106.885C9.56945 96.642 9.34844 24.5106 10.2974 10.4948Z" fill="black"/>
</g>
<defs>
<clipPath id="clip0_8_2568">
<rect width="104" height="122" fill="white"/>
</clipPath>
</defs>
</svg>
