<svg width="142" height="174" viewBox="0 0 142 174" fill="none" xmlns="http://www.w3.org/2000/svg">
<g clip-path="url(#clip0_6_1768)">
<path d="M140.561 92.0622C140.741 108.566 140.981 125.071 141.068 141.576C141.098 147.409 140.641 153.243 140.608 159.078C140.56 167.447 134.084 172.54 126.471 172.704C110.87 173.039 95.2618 173.401 79.6594 173.324C61.5807 173.234 43.5024 172.754 25.4281 172.281C21.1684 172.064 16.924 171.611 12.7143 170.924C7.58244 170.214 2.56727 164.339 2.29161 158.754C2.02908 153.377 1.81653 147.994 1.74696 142.612C1.42142 117.57 1.12861 92.5282 0.868696 67.4856C0.70855 52.7745 0.647583 38.0615 0.421147 23.3517C0.355513 19.1813 0.0587781 14.9985 1.74359 11.0848C2.64864 8.80291 3.87817 6.66337 5.39416 4.73258C7.2588 2.51416 10.0095 1.67616 12.9493 1.59543C19.0092 1.42938 25.0798 1.38974 31.1253 0.990686C52.4602 -0.419783 73.7917 0.683822 95.126 0.841343C99.6652 0.874817 103.112 2.36506 106.458 5.54371C113.291 12.0349 120.623 17.9998 127.707 24.2285C130.403 26.5998 132.905 29.1963 135.642 31.5171C138.168 33.6581 139.143 36.3545 139.237 39.5246C139.405 45.1349 139.67 50.744 139.749 56.3563C139.916 68.2594 139.989 80.1641 140.1 92.0687L140.561 92.0622ZM93.2593 9.23241C91.2857 9.0762 89.6272 8.85653 87.966 8.8283C73.8219 8.59025 59.6775 8.37392 45.5325 8.17965C39.1384 8.09104 32.7437 8.05304 26.349 8.01366C23.0995 7.99331 19.8434 7.89145 16.6024 8.05947C12.0776 8.29313 10.6771 9.59734 9.86387 14.0322C9.05192 18.2257 8.85948 22.5157 9.29279 26.7651C9.56051 29.2197 9.69519 31.6871 9.69637 34.1562C9.76463 73.7858 9.81655 113.415 9.85199 153.045C9.82213 153.944 9.864 154.844 9.97729 155.736C10.8174 160.875 13.5136 163.927 19.105 164.152C40.7694 165.025 62.4339 165.019 84.1047 164.654C95.1063 164.469 106.109 164.38 117.111 164.255C119.802 164.225 122.5 164.332 125.184 164.184C129.591 163.941 131.901 161.515 131.858 157.044C131.771 148.07 131.561 139.097 131.383 130.125C131.291 125.524 131.196 120.922 131.039 116.322C130.67 105.442 130.086 94.5648 129.92 83.6814C129.734 71.5595 129.92 59.4325 129.929 47.3074C129.929 46.4443 129.842 45.5805 129.798 44.6951C129.419 44.6038 129.034 44.5419 128.645 44.5106C121.798 44.6477 114.953 44.8637 108.106 44.9044C105.975 44.9212 103.851 44.6768 101.779 44.1766C97.5505 43.1376 96.2188 41.5072 95.7711 37.1793C95.3681 33.2741 95.1069 29.3545 94.7564 25.4434C94.2832 20.1954 93.7903 14.9531 93.2593 9.2292V9.23241ZM105.37 36.7816L125.502 35.5346L102.559 14.7078L102.056 14.9991C103.146 22.1623 104.236 29.327 105.37 36.7784V36.7816Z" fill="black"/>
<path d="M38.4144 126.644C36.1639 126.55 34.0563 126.477 31.9508 126.368C30.832 126.366 29.7155 126.268 28.6133 126.076C26.0345 125.492 24.672 124.027 24.6339 121.378C24.6134 118.8 24.8012 116.223 25.1957 113.676C25.5383 111.383 26.7054 110.424 29.0616 110.182C32.1661 109.865 35.2843 109.683 38.6572 109.423V100.091C35.8461 100.091 33.1723 100.206 30.5115 100.066C25.9512 99.8261 24.9372 98.7721 24.5093 94.135C24.3054 92.4633 24.2215 90.7792 24.2585 89.0957C24.4232 85.9544 25.841 84.3845 28.9652 83.9159C31.8485 83.4833 34.7566 83.1683 37.6655 82.9793C40.8415 82.7732 42.2448 84.0911 42.334 87.2632C42.4154 90.1616 42.3512 93.0632 42.3512 96.0962H52.1556C52.1556 93.8134 52.1056 91.7033 52.166 89.5984C52.2795 85.6341 53.6639 84.2165 57.6386 83.8463C59.9857 83.6297 62.3274 83.295 64.679 83.209C68.3402 83.0777 69.7821 84.2716 70.5409 87.8138C71.0325 90.111 71.4873 92.4161 71.9677 94.7152C71.9887 94.8137 72.099 94.8944 72.3996 95.2948C75.3728 95.8126 78.5311 94.9581 81.8266 94.7979C82.6391 93.2687 82.286 91.7414 82.1187 90.2075C81.6113 85.5783 83.1596 83.4833 87.7349 82.7253C89.8352 82.3767 91.9657 82.1601 94.0916 82.0105C97.0261 81.8044 98.5645 82.7764 99.3633 85.5816C100.124 88.2542 100.6 91.0082 101.267 94.0235H114.233C114.685 94.5256 115.067 95.0867 115.368 95.6919C115.971 97.8414 116.553 100.002 117.002 102.19C117.858 106.367 116.28 108.972 112.121 109.944C109.915 110.35 107.69 110.633 105.453 110.792C104.468 110.908 103.484 111 102.281 111.126V120.144C103.056 120.188 103.79 120.256 104.531 120.27C107.438 120.324 110.346 120.391 113.253 120.393C115.013 120.393 116.103 121.323 116.299 122.924C116.726 126.03 116.959 129.16 116.996 132.296C116.985 133.269 116.653 134.211 116.051 134.976C115.449 135.741 114.612 136.286 113.669 136.526C112.386 136.93 111.047 137.125 109.703 137.102C106.565 137.032 103.43 136.801 100.298 136.576C98.3466 136.437 97.5131 135.628 97.5006 133.552C97.4829 130.434 97.6647 127.314 97.7684 123.976L86.2254 124.737C86.4223 127.037 86.7084 129.15 86.7623 131.268C86.8522 134.844 85.3387 136.809 81.8364 137.338C79.0647 137.77 76.2602 137.962 73.4557 137.912C69.9226 137.83 68.1905 135.973 67.9096 132.422C67.735 130.207 67.6825 127.982 67.5847 125.971H56.2374C56.4507 127.35 56.6705 128.328 56.7374 129.313C56.904 130.87 56.9451 132.439 56.8602 134.003C56.532 137.496 55.6006 138.377 52.0373 138.836C49.8117 139.123 47.567 139.266 45.3427 139.547C40.6302 140.142 38.064 137.949 38.106 133.193C38.1192 131.741 38.4341 130.294 38.5404 128.84C38.5443 128.106 38.5023 127.373 38.4144 126.644ZM72.0616 113.104V122.414C75.6813 121.966 79.1317 122.704 82.7599 121.692V111.907L72.0616 113.104ZM86.3041 107.306H96.5266V97.2809L86.3041 98.31V107.306ZM66.7367 108.213C66.5195 105.02 66.3252 102.175 66.1309 99.3122L55.9255 100.398C56.5195 103.089 57.1319 105.866 57.7915 108.854L66.7367 108.213ZM51.4348 113.796H43.6567V122.509L51.4348 121.84V113.796Z" fill="black"/>
</g>
<defs>
<clipPath id="clip0_6_1768">
<rect width="141.113" height="173.93" fill="white"/>
</clipPath>
</defs>
</svg>
