<svg width="112" height="136" viewBox="0 0 112 136" fill="none" xmlns="http://www.w3.org/2000/svg">
<g clip-path="url(#clip0_6_2101)">
<path d="M100.768 16.8407C103.925 21.426 106.222 26.547 107.547 31.954C110.238 43.0461 111.523 52.624 111.523 61.686C111.523 63.2748 111.484 64.8501 111.405 66.4121C111.165 70.0292 110.369 73.5878 109.048 76.9634C107.059 82.2613 101.888 85.1092 96.1791 84.0518C94.7476 83.719 93.3634 83.2091 92.0586 82.5331C91.5401 82.2915 91.0085 82.0428 90.4716 81.8183C83.962 90.5994 78.9857 91.7625 70.2564 86.5262C68.6444 88.9061 66.6623 91.1488 63.3068 91.8196C60.0684 92.4674 57.4963 91.16 54.5611 89.2992C54.4791 90.5587 54.4069 91.7933 54.336 93.0036C54.1575 96.0424 53.9881 98.9106 53.7026 101.799L53.4552 104.322C52.8697 110.31 52.2646 116.501 51.2893 122.533C50.8187 125.44 49.4128 128.212 48.0529 130.891L47.9781 131.037C46.2867 134.373 43.7709 135.969 40.7052 135.654C36.8426 135.256 34.0512 133.269 32.8449 130.058C32.0372 127.631 31.4925 125.124 31.2204 122.581L31.1089 121.808C30.9601 120.556 30.9085 119.295 30.9546 118.034C30.9605 117.482 30.9671 116.932 30.9546 116.383C30.906 113.823 30.8509 111.264 30.7892 108.704C30.6579 102.836 30.5181 96.7684 30.4971 90.7983C30.4794 86.1744 30.5995 81.5997 30.7256 76.752C30.7761 74.7955 30.8279 72.8087 30.8713 70.78L30.3514 71.1771C29.7706 71.6214 29.317 71.9647 28.8517 72.2994C23.3277 76.2309 16.5634 78.0207 9.81791 77.3368C5.48081 76.9811 2.62313 75.06 1.32423 71.626C-0.261477 67.432 0.298375 63.7051 2.99002 60.5448C3.58805 59.873 4.22888 59.2406 4.90849 58.6514C5.4993 58.1353 6.06297 57.5889 6.59726 57.0144C7.50629 56.0004 8.45995 54.9895 9.38276 54.0116C11.8908 51.5094 14.1734 48.791 16.2041 45.8881C18.3048 42.5263 20.2142 39.0487 21.9234 35.4719C22.8935 33.5351 23.897 31.534 24.9491 29.6004C27.4163 25.0717 30.0686 20.2548 32.9899 15.5738C34.2225 13.6499 35.789 11.9621 37.6158 10.5898C51.0228 0.360703 65.6528 -2.36924 81.0991 2.47716C89.1117 4.86111 96.0577 9.93388 100.768 16.8407ZM33.2183 56.727C34.9005 56.7191 36.1344 57.7769 36.6037 59.6337C36.8492 60.6383 36.9713 61.6693 36.9673 62.7035C36.9745 65.0552 36.9542 69.7863 36.9279 75.7741C36.8623 90.5916 36.7652 112.983 37.0211 120.935C37.1125 122.824 37.3349 124.703 37.6867 126.56C37.8361 127.394 38.1675 128.185 38.6574 128.876C39.4161 129.922 40.2838 130.47 41.1009 130.42C41.8656 130.373 42.5665 129.814 43.1264 128.8C44.3184 126.684 45.2004 124.407 45.7452 122.039C46.4593 118.649 46.9185 115.211 47.1189 111.753C47.3414 108.185 47.4602 104.549 47.5783 101.033C47.6578 98.593 47.7398 96.0707 47.856 93.591C48.0529 89.3977 48.3364 84.8027 48.7473 79.1306C48.9133 76.8419 49.9287 75.505 51.5997 75.3639C53.8313 75.1748 54.6668 76.8675 55.3408 78.2281C55.5791 78.7105 55.8121 79.1995 56.0464 79.6885C56.8848 81.624 57.9296 83.4637 59.1627 85.1748C60.1334 86.414 61.3765 87.0172 62.5757 86.8294C63.803 86.6371 64.8302 85.648 65.394 84.1214C65.8399 82.684 66.09 81.1921 66.1379 79.6878C66.1753 79.2126 66.2127 78.7374 66.2606 78.2688C66.2974 77.7339 66.2829 77.1964 66.2186 76.6641C66.1884 76.3162 66.1582 75.9677 66.153 75.6205V75.5227C66.153 73.8746 66.932 72.858 68.4114 72.5777C70.0713 72.2633 71.2763 73.0595 71.8027 74.8198C71.8999 75.144 71.9701 75.4754 72.0397 75.8102C72.1164 76.2394 72.228 76.6621 72.3737 77.0736C72.5391 77.5016 72.7019 77.9328 72.8588 78.3653C73.3491 79.8197 73.9634 81.2296 74.6965 82.5777C75.9639 84.7436 77.4689 85.2562 80.0621 84.401C82.8344 83.4874 84.5029 81.666 85.0227 78.9862C85.2865 77.4116 85.4375 75.82 85.4755 74.2238L85.5182 73.3496C85.5996 71.8039 85.7 69.8808 87.8633 69.2534C90.0167 68.6285 91.1056 70.1171 91.9562 71.561L92.1531 71.8932C92.8141 73.0162 93.4973 74.1779 94.2613 75.2451C95.9258 77.5711 97.5049 78.4329 99.5396 78.1257C101.763 77.791 102.66 76.0471 103.526 73.9744C105.574 68.8897 106.284 63.3655 105.59 57.9281C104.924 51.8898 103.976 45.3314 102.607 37.2893C101.48 31.2316 98.9987 25.5071 95.3475 20.5438C91.9385 15.7407 86.7495 12.2083 79.917 10.0424C66.8776 5.91202 54.2139 8.14266 42.2778 16.6711C41.1086 17.4754 40.0907 18.48 39.2711 19.6384C37.621 22.1017 35.4919 25.3676 33.6587 28.7858C31.1272 33.5062 28.6902 38.3607 26.4154 43.2143C22.159 52.2941 16.8433 59.2832 10.1631 64.5831C9.22891 65.3321 8.42792 66.2336 7.79376 67.2489C7.43422 67.7792 7.22964 68.3988 7.20306 69.0387C7.20253 69.2606 7.23548 69.4824 7.30085 69.6951C7.48161 70.1401 7.7557 70.5411 8.10467 70.8706C8.45364 71.2007 8.8693 71.4521 9.32369 71.6083C12.8069 73.1382 16.2809 72.2371 18.922 71.2801C25.5188 68.8897 29.0355 65.2322 29.9872 59.7702C30.3153 57.8425 31.4967 56.7335 33.2183 56.727Z" fill="black"/>
</g>
<defs>
<clipPath id="clip0_6_2101">
<rect width="111.577" height="135.862" fill="white"/>
</clipPath>
</defs>
</svg>
