<svg width="137" height="113" viewBox="0 0 137 113" fill="none" xmlns="http://www.w3.org/2000/svg">
<g clip-path="url(#clip0_6_2103)">
<path d="M117.451 30.9861C114.373 29.365 111.262 27.6815 108.254 26.0531C103.594 23.5308 98.7736 20.9225 93.9666 18.4855C88.3161 15.5449 83.2728 11.5621 79.1031 6.74691L78.5465 6.11881C77.7747 5.21205 76.9543 4.34873 76.0872 3.53284C72.7255 0.484151 68.8163 -0.197794 64.4619 1.50869C60.8521 2.92244 58.987 5.93372 58.752 10.7151C58.391 17.969 60.2616 24.323 64.3033 29.6012C64.5927 29.9994 64.8556 30.416 65.0907 30.8483C65.1563 30.9684 65.2319 31.0944 65.3087 31.227C64.3393 31.1614 63.4008 31.0957 62.4865 31.0301C60.1565 30.8594 57.9579 30.7019 55.7552 30.6573C42.8765 30.4171 28.2787 30.144 13.9758 31.2729C11.2619 31.469 8.59058 32.0573 6.04531 33.0195C2.83319 34.2763 0.866156 37.0828 0.50714 40.9204C0.15403 44.6957 2.79715 46.7881 5.14028 48.1894L5.51973 48.4178C6.54326 49.1056 7.65996 49.6432 8.83605 50.014C9.62759 50.2201 10.4205 50.4334 11.2127 50.6474C14.4162 51.6 17.6884 52.3048 21.0001 52.7555C26.388 53.3423 31.8898 53.6862 37.2114 54.0196C39.5362 54.1647 41.8616 54.3104 44.1844 54.4751C44.8315 54.5211 45.478 54.5874 46.1534 54.6563L46.6844 54.7095C42.7464 62.6045 43.1934 64.9752 49.5415 70.5311C47.0027 73.7387 45.9973 77.2691 46.6412 80.7595C47.3631 84.6798 50.144 88.2372 54.4909 90.8015L54.4817 90.8244C54.4102 91.0181 54.3225 91.2058 54.2192 91.3843C51.8715 95.1655 51.2966 99.1711 52.6001 102.663C53.8629 106.045 56.7862 108.599 60.8325 109.853C64.2981 110.885 67.8804 111.475 71.4935 111.609C72.5581 111.659 73.624 111.683 74.6912 111.682C83.1947 111.682 91.6904 110.197 98.6666 108.977C105.227 107.751 111.541 105.448 117.35 102.161C122.274 99.4789 126.37 95.4989 129.192 90.6525C138.234 75.348 138.41 59.6123 129.717 43.8838C126.289 37.6873 122.393 33.5898 117.451 30.9861ZM60.8956 94.4185C61.7802 93.7839 62.6989 93.1984 63.6476 92.6648C64.153 92.3675 64.6589 92.0708 65.1571 91.7591C66.7666 90.7457 67.3435 89.5275 66.9202 88.0324C66.3728 86.1021 64.7134 85.7733 63.5136 85.6938C63.0183 85.6617 62.5227 85.6315 62.027 85.6026C60.5384 85.514 58.9994 85.4221 57.4983 85.2443C56.591 85.1235 55.7179 84.819 54.9326 84.349C54.1473 83.8791 53.4663 83.2536 52.9315 82.5106C51.6287 80.8448 51.1146 79.1876 51.4461 77.7193C51.767 76.2931 52.8862 75.0645 54.682 74.1659C55.8244 73.635 57.0074 73.1959 58.2197 72.8533C58.7146 72.699 59.2081 72.5448 59.6965 72.3787C60.0017 72.275 60.3147 72.1904 60.6271 72.105C61.079 71.9908 61.5237 71.8504 61.9593 71.685C62.5419 71.429 63.0202 70.9827 63.3153 70.4189C63.6104 69.8551 63.705 69.208 63.5832 68.5831C63.4615 67.9589 63.1307 67.3945 62.6455 66.983C62.1603 66.5714 61.5493 66.3371 60.9133 66.3188C60.8477 66.3188 60.7818 66.3188 60.7162 66.3188C60.2837 66.3188 59.8512 66.3496 59.4304 66.3791C58.8141 66.4408 58.1939 66.4513 57.5758 66.41C57.2227 66.3765 56.867 66.3444 56.5099 66.3181C54.9988 66.2663 53.5015 66.0103 52.0592 65.5567C50.5542 64.9949 49.5704 63.994 49.3604 62.81C49.1504 61.6259 49.7304 60.3421 50.9538 59.2946C52.1643 58.3352 53.4698 57.5021 54.8499 56.8084C55.2397 56.5958 55.6289 56.3825 56.0129 56.1646C56.4043 55.9629 56.8162 55.8036 57.2416 55.6894C57.5521 55.5929 57.8743 55.4925 58.1841 55.3612C59.3931 54.8493 60.9794 53.9205 60.7969 51.7769C60.6499 50.0514 59.3183 49.0302 57.0474 48.9009C52.8672 48.6626 48.6857 48.4493 44.5035 48.2353C39.0277 47.9557 33.3648 47.6663 27.799 47.3237C23.331 47.0921 18.8774 46.6366 14.455 45.9592C12.1053 45.5745 9.83703 44.5001 7.64289 43.4611C6.76405 43.0444 5.74727 41.8144 5.81553 41.5059C6.20898 40.2351 7.0279 39.1385 8.13449 38.4001C9.49225 37.7211 10.9917 37.3735 12.5096 37.3861C20.1743 37.0343 44.163 37.0743 60.0345 37.1012C66.2369 37.1111 71.1339 37.1189 73.4238 37.1012C74.8159 37.1594 76.2014 36.8844 77.4662 36.2992C77.9585 35.9755 78.3811 35.5557 78.7087 35.0651C79.0355 34.5745 79.2606 34.0229 79.3696 33.4435C79.6052 32.0848 78.7356 30.8969 77.1006 30.3423C76.5657 30.1611 76.0124 30.0141 75.4769 29.8651C74.5179 29.6419 73.584 29.3197 72.692 28.9036C68.2473 26.6267 65.6034 22.711 64.1194 16.2074C63.5377 14.0924 63.64 11.8478 64.411 9.79428C64.9361 8.48161 65.6705 7.65856 66.5356 7.41703C67.3763 7.18271 68.3431 7.47085 69.4097 8.27486C70.5274 9.17017 71.5401 10.1889 72.4288 11.3117C77.1525 16.9656 82.9998 21.5768 89.5986 24.8533C91.647 25.8868 93.7007 26.9112 95.759 27.9263C99.5717 29.8172 103.514 31.7718 107.338 33.7907L107.929 34.1018C110.882 35.6566 113.932 37.2633 116.386 39.4325C118.923 41.7402 121.051 44.4606 122.681 47.4786C126.828 54.9956 128.609 61.9915 128.128 68.8653C127.387 79.3937 124.05 87.487 117.927 93.6093C116.74 94.7592 115.414 95.7562 113.981 96.5779C107.348 100.522 101.123 102.803 94.9504 103.55C86.5033 104.573 79.4897 105.288 72.8778 105.8C69.6381 106.051 66.1523 105.332 61.9017 103.539C59.5211 102.534 58.1003 101.085 57.9027 99.4579C57.7013 97.7993 58.7645 96.0108 60.8956 94.4185Z" fill="black"/>
</g>
<defs>
<clipPath id="clip0_6_2103">
<rect width="136.518" height="112.234" fill="white"/>
</clipPath>
</defs>
</svg>
