<svg width="137" height="113" viewBox="0 0 137 113" fill="none" xmlns="http://www.w3.org/2000/svg">
<path d="M17.28 100.971C21.8653 104.128 26.9864 106.425 32.3934 107.75C43.4855 110.441 53.0633 111.726 62.1254 111.726C63.7141 111.726 65.2895 111.687 66.8511 111.608C70.4682 111.368 74.0269 110.573 77.4024 109.251C82.7004 107.262 85.5482 102.091 84.4909 96.3823C84.1581 94.9509 83.6481 93.5666 82.9721 92.2618C82.7306 91.7433 82.4818 91.2117 82.2574 90.6748C91.0385 84.1653 92.2015 79.1889 86.9653 70.4596C89.3451 68.8476 91.5885 66.8655 92.2593 63.5103C92.9071 60.2719 91.599 57.6997 89.7383 54.7646C90.9978 54.6826 92.2324 54.6104 93.4427 54.5395C96.4815 54.3609 99.3497 54.1916 102.238 53.9061L104.761 53.6587C110.749 53.0732 116.94 52.4681 122.973 51.4927C125.88 51.0222 128.651 49.6163 131.33 48.2563L131.477 48.1815C134.812 46.4901 136.409 43.9744 136.093 40.9086C135.695 37.0461 133.708 34.2547 130.497 33.0483C128.07 32.2407 125.564 31.696 123.021 31.4239L122.248 31.3123C120.996 31.1635 119.734 31.1119 118.473 31.1581C117.922 31.164 117.371 31.1706 116.822 31.1581C114.263 31.1095 111.703 31.0544 109.143 30.9927C103.275 30.8614 97.2074 30.7216 91.2374 30.7006C86.6135 30.6829 82.0395 30.803 77.1917 30.929C75.2352 30.9796 73.2478 31.0314 71.2191 31.0747L71.6161 30.5549C72.0605 29.9741 72.4038 29.5205 72.7385 29.0552C76.67 23.5312 78.4598 16.7669 77.7759 10.0214C77.4201 5.6843 75.4997 2.82662 72.0657 1.52773C67.8717 -0.0579865 64.1444 0.501866 60.9841 3.19351C60.3123 3.79154 59.6799 4.43237 59.0907 5.11199C58.5747 5.70278 58.0282 6.26646 57.4538 6.80073C56.4397 7.70976 55.4288 8.66342 54.4509 9.58623C51.9487 12.0942 49.2304 14.3768 46.3274 16.4076C42.9656 18.5083 39.488 20.4178 35.9112 22.1269C33.9744 23.0969 31.9733 24.1005 30.0398 25.1526C25.511 27.6198 20.6941 30.272 16.0131 33.1934C14.0893 34.4259 12.4014 35.9925 11.0291 37.8193C0.800033 51.2263 -1.92991 65.856 2.91649 81.3023C5.30044 89.3149 10.3732 96.2616 17.28 100.971ZM57.1663 33.4218C57.1584 35.104 58.2162 36.3379 60.073 36.8072C61.0777 37.0527 62.1086 37.1748 63.1429 37.1708C65.4946 37.178 70.2254 37.1577 76.2131 37.1314C91.0306 37.0658 113.422 36.9686 121.374 37.2246C123.263 37.316 125.142 37.5383 126.999 37.8901C127.833 38.0395 128.624 38.371 129.315 38.8609C130.362 39.6196 130.91 40.4873 130.86 41.3044C130.813 42.069 130.253 42.77 129.239 43.3299C127.123 44.5219 124.846 45.4038 122.479 45.9487C119.089 46.6628 115.651 47.122 112.192 47.3224C108.624 47.5449 104.988 47.6637 101.472 47.7818C99.032 47.8612 96.5097 47.9433 94.0301 48.0594C89.8367 48.2563 85.2424 48.5399 79.5703 48.9508C77.2817 49.1168 75.944 50.1322 75.8029 51.8032C75.6139 54.0347 77.3073 54.8703 78.6678 55.5443C79.1503 55.7826 79.6386 56.0156 80.1275 56.2499C82.0631 57.0883 83.9028 58.1331 85.6145 59.3662C86.8537 60.3369 87.4569 61.58 87.2691 62.7791C87.0768 64.0065 86.0877 65.0337 84.5611 65.5975C83.1231 66.0431 81.6319 66.2932 80.1269 66.3411C79.6517 66.3785 79.1772 66.4159 78.7085 66.4638C78.173 66.5006 77.6361 66.4868 77.1031 66.4218C76.7553 66.3916 76.4068 66.3614 76.0596 66.3562H75.9624C74.3144 66.3562 73.297 67.1352 73.0168 68.6146C72.7024 70.2745 73.4985 71.4795 75.2588 72.0059C75.5831 72.1031 75.9152 72.1733 76.2499 72.2429C76.6791 72.3197 77.1018 72.4312 77.5127 72.5769C77.9406 72.7423 78.3725 72.9051 78.805 73.062C80.2595 73.5523 81.6686 74.1673 83.0174 74.8997C85.1833 76.1671 85.6953 77.6721 84.84 80.2653C83.9264 83.0377 82.1051 84.7061 79.4253 85.2259C77.8507 85.4897 76.2591 85.6414 74.6635 85.6788L73.7893 85.7214C72.2436 85.8028 70.3199 85.9032 69.6924 88.0665C69.0676 90.22 70.5562 91.3088 72.0001 92.1594L72.3322 92.3563C73.4552 93.0173 74.6169 93.7005 75.6841 94.4645C78.0102 96.129 78.872 97.7081 78.5648 99.7428C78.2301 101.966 76.4868 102.864 74.4141 103.729C69.3295 105.777 63.8048 106.487 58.3674 105.793C52.3291 105.127 45.7708 104.18 37.7287 102.81C31.6709 101.684 25.9465 99.2019 20.9831 95.5507C16.18 92.1417 12.6476 86.9527 10.4817 80.1202C6.35135 67.0808 8.58199 54.4174 17.1104 42.4812C17.9148 41.3121 18.9193 40.2942 20.0777 39.4745C22.541 37.8245 25.8069 35.6954 29.2251 33.8622C33.9455 31.3307 38.8 28.8937 43.6537 26.6189C52.7334 22.3625 59.7225 17.0468 65.0225 10.3666C65.7715 9.43245 66.6726 8.63139 67.6886 7.99724C68.2183 7.63769 68.8379 7.43318 69.4778 7.40653C69.7003 7.40601 69.9215 7.43896 70.1341 7.50433C70.5791 7.68508 70.9802 7.95917 71.3103 8.30814C71.6404 8.65712 71.8918 9.07278 72.0474 9.52716C73.5773 13.0103 72.6761 16.4843 71.7192 19.1254C69.3288 25.7223 65.6717 29.239 60.2095 30.1906C58.2819 30.5188 57.1728 31.7002 57.1663 33.4218Z" fill="black"/>
</svg>
