<svg width="112" height="137" viewBox="0 0 112 137" fill="none" xmlns="http://www.w3.org/2000/svg">
<g clip-path="url(#clip0_6_2107)">
<path d="M11.1137 119.382C7.95678 114.797 5.6599 109.675 4.33501 104.268C1.64402 93.1762 0.358887 83.5983 0.358887 74.5362C0.358887 72.9479 0.398302 71.372 0.477063 69.8106C0.717243 66.1935 1.51217 62.6347 2.83397 59.2592C4.82268 53.9612 9.99399 51.1135 15.7028 52.1708C17.1342 52.5033 18.5184 53.0135 19.8232 53.6896C20.3417 53.9311 20.8734 54.1798 21.4103 54.4042C27.9198 45.6231 32.8962 44.4602 41.6255 49.6965C43.2374 47.3166 45.2196 45.0733 48.5748 44.4025C51.8131 43.7547 54.3853 45.0626 57.3205 46.9234C57.4025 45.6638 57.4747 44.4293 57.5456 43.219C57.7241 40.1801 57.8935 37.312 58.179 34.4241L58.4264 31.9003C59.0119 25.9125 59.617 19.7216 60.5923 13.6892C61.0629 10.7817 62.4688 8.01099 63.8287 5.33115L63.9035 5.18501C65.5949 1.8495 68.1109 0.253156 71.1767 0.568855C75.0392 0.966596 77.8306 2.95391 79.037 6.16471C79.8443 8.59146 80.389 11.098 80.6614 13.6411L80.773 14.4138C80.9213 15.6661 80.9732 16.9281 80.9272 18.1884C80.9213 18.7397 80.9148 19.2908 80.9272 19.8395C80.9758 22.3988 81.0309 24.9586 81.0926 27.5188C81.2239 33.3865 81.3637 39.4541 81.3847 45.4242C81.4024 50.0481 81.2823 54.6223 81.1563 59.47C81.1058 61.4266 81.0539 63.4137 81.0106 65.4425L81.5304 65.0454C82.1113 64.601 82.5648 64.2578 83.0301 63.9231C88.5539 59.9917 95.3181 58.2016 102.064 58.8858C106.401 59.2416 109.259 61.1621 110.558 64.5961C112.143 68.79 111.583 72.5173 108.892 75.6776C108.293 76.3497 107.653 76.9817 106.973 77.5711C106.382 78.087 105.819 78.6337 105.285 79.208C104.376 80.2221 103.422 81.2328 102.499 82.2108C99.9906 84.7127 97.7085 87.4313 95.6778 90.3343C93.5768 93.696 91.6675 97.174 89.9585 100.75C88.9884 102.687 87.9848 104.688 86.9327 106.622C84.4656 111.151 81.8133 115.968 78.8919 120.649C77.6593 122.572 76.0927 124.26 74.2661 125.633C60.8588 135.862 46.229 138.592 30.7828 133.745C22.77 131.361 15.8236 126.288 11.1137 119.382ZM78.6635 79.4955C76.9813 79.5034 75.7474 78.4454 75.2781 76.5886C75.0327 75.5837 74.9106 74.5533 74.9145 73.5189C74.9073 71.1672 74.9277 66.4363 74.9539 60.4484C75.0195 45.631 75.1167 23.2399 74.8607 15.2871C74.7688 13.399 74.547 11.5196 74.1952 9.6624C74.0455 8.82833 73.7141 8.03764 73.2245 7.34632C72.4657 6.30011 71.5981 5.75205 70.7809 5.80193C70.0163 5.84918 69.3153 6.40888 68.7555 7.42226C67.5629 9.53868 66.6814 11.8156 66.1367 14.1827C65.4222 17.5728 64.9631 21.0114 64.7627 24.47C64.5402 28.0372 64.4214 31.6733 64.3033 35.19C64.2238 37.6296 64.1418 40.1519 64.0256 42.6315C63.8287 46.8248 63.5452 51.4194 63.1343 57.0915C62.9683 59.3801 61.9529 60.7175 60.2819 60.8587C58.0503 61.0477 57.2148 59.3545 56.5407 57.9939C56.3025 57.5115 56.0695 57.0232 55.8352 56.5342C54.9968 54.5984 53.952 52.7589 52.7189 51.0473C51.7482 49.8081 50.5051 49.2049 49.3059 49.3926C48.0786 49.5849 47.0514 50.574 46.4876 52.1007C46.0418 53.5387 45.7918 55.0301 45.744 56.5348C45.7066 57.01 45.6692 57.4846 45.6213 57.9533C45.5843 58.4885 45.5983 59.0259 45.6633 59.5585C45.6935 59.9064 45.7236 60.2548 45.7289 60.602V60.6994C45.7289 62.3475 44.9498 63.3646 43.4704 63.6449C41.8106 63.9593 40.6055 63.1631 40.0791 61.4028C39.982 61.0786 39.9118 60.7467 39.8422 60.412C39.7653 59.9826 39.6536 59.5601 39.5081 59.1489C39.3427 58.721 39.18 58.2893 39.0231 57.8568C38.5328 56.4024 37.9179 54.9931 37.1853 53.6444C35.918 51.4785 34.413 50.9663 31.8198 51.8215C29.0474 52.7352 27.379 54.5565 26.8592 57.2363C26.5952 58.8108 26.4438 60.4023 26.4063 61.9983L26.3636 62.8726C26.2823 64.4182 26.1818 66.3418 24.0185 66.9693C21.8651 67.5941 20.7762 66.1056 19.9256 64.6615L19.7287 64.3294C19.0678 63.2064 18.3846 62.0448 17.6206 60.9776C15.9562 58.6515 14.377 57.7896 12.3424 58.0968C10.1187 58.4315 9.22141 60.1749 8.3557 62.2476C6.30792 67.3323 5.59748 72.8567 6.29221 78.2944C6.9577 84.3327 7.90552 90.8908 9.27464 98.9329C10.4014 104.991 12.8831 110.716 16.5343 115.679C19.9433 120.482 25.1324 124.014 31.9648 126.18C45.0043 130.31 57.6677 128.08 69.6041 119.551C70.773 118.747 71.791 117.742 72.6108 116.584C74.2608 114.121 76.39 110.855 78.2231 107.436C80.7546 102.716 83.1916 97.8618 85.4665 93.0082C89.7228 83.9284 95.0385 76.9391 101.719 71.6391C102.653 70.8903 103.453 69.9891 104.088 68.9731C104.447 68.4434 104.652 67.8238 104.679 67.1839C104.679 66.9614 104.646 66.7402 104.581 66.5276C104.4 66.0826 104.126 65.6816 103.777 65.3514C103.428 65.0214 103.012 64.77 102.558 64.6144C99.075 63.0844 95.601 63.9856 92.9599 64.9425C86.363 67.3329 82.8464 70.99 81.8947 76.4521C81.5665 78.3797 80.3851 79.4889 78.6635 79.4955Z" fill="black"/>
</g>
<defs>
<clipPath id="clip0_6_2107">
<rect width="111.577" height="136.518" fill="white"/>
</clipPath>
</defs>
</svg>
