<svg width="71" height="152" viewBox="0 0 71 152" fill="none" xmlns="http://www.w3.org/2000/svg">
<g clip-path="url(#clip0_6_1992)">
<path d="M45.9746 111.543C46.245 114.175 46.4565 116.483 46.723 118.785C47.5683 126.098 46.8406 133.351 45.7583 140.565C45.1661 144.157 43.2567 147.398 40.4032 149.658C37.384 152.19 34.6347 151.646 31.9365 148.756C29.5041 146.15 28.8199 143.197 28.8291 139.845C28.8534 130.642 28.8294 121.44 28.8169 112.238C28.7762 111.786 28.7084 111.337 28.614 110.893C24.0938 110.659 19.5212 110.517 14.9662 110.151C11.6235 109.883 8.29362 109.387 4.98109 108.848C3.98354 108.707 3.05666 108.253 2.33363 107.551C1.77115 106.923 1.27096 105.521 1.59782 104.946C2.63417 103.122 2.41761 101.237 2.36248 99.3669C2.0645 89.2763 1.68972 79.1878 1.35105 69.0985C1.06094 60.4631 0.629043 51.8288 0.545688 43.1921C0.458395 34.2127 2.14576 25.5367 6.4835 17.572C11.0687 9.15317 17.5507 2.76579 27.2113 0.735733C38.5535 -1.64743 47.8315 2.47494 54.8032 11.3572C57.5906 14.9093 59.5111 19.2333 61.3534 23.4161C65.1959 32.287 67.4449 41.7659 67.9969 51.4174C68.9446 65.9685 69.7171 80.5306 70.51 95.0915C70.6924 98.4388 70.8854 101.806 69.2505 104.979C68.8271 105.802 69.0719 106.948 68.9059 107.926C68.497 110.338 67.884 111.065 65.4228 111.205C61.2879 111.439 57.1398 111.458 52.997 111.533C50.7799 111.578 48.5619 111.543 45.9746 111.543ZM62.4802 104.528C62.2223 102.469 61.9554 101.155 61.9075 99.8329C61.4179 86.6037 61.0758 73.368 60.4634 60.1447C60.0617 51.5231 59.4026 42.8929 57.0503 34.5265C55.2854 28.2605 53.1722 22.0994 49.6995 16.5337C43.4249 6.47595 29.6556 3.24943 19.8362 12.3613C12.8245 18.8676 9.49163 27.1072 8.83004 36.2113C8.09232 46.3681 8.25246 56.6083 8.40473 66.8066C8.57144 78.0228 9.25194 89.2317 8.19195 100.439C8.10006 101.405 8.17948 102.389 8.17948 103.679C26.3719 104.464 44.252 104.906 62.4824 104.528H62.4802ZM36.8536 141.51L37.7724 141.502C39.8838 131.526 39.1896 121.468 38.57 111.252H35.1649C35.736 121.482 36.2944 131.496 36.8536 141.51Z" fill="black"/>
</g>
<defs>
<clipPath id="clip0_6_1992">
<rect width="70.8845" height="151.614" fill="white"/>
</clipPath>
</defs>
</svg>
