<svg width="163" height="160" viewBox="0 0 163 160" fill="none" xmlns="http://www.w3.org/2000/svg">
<g clip-path="url(#clip0_6_1756)">
<path d="M67.623 81.8782C72.8737 81.4594 77.8914 81.0302 82.9157 80.6784C84.2481 80.5786 85.5877 80.6193 86.9115 80.8005C87.6499 80.8714 88.3403 81.1969 88.8654 81.7207C89.3898 82.2444 89.7167 82.9342 89.7895 83.6719C90.0613 85.4309 89.3957 86.9963 87.7943 87.5509C85.5896 88.3438 83.2885 88.8334 80.9526 89.0073C77.0454 89.2383 73.1146 89.073 68.8373 89.073C68.473 97.0566 66.1699 103.995 62.0021 110.963C71.9575 111.518 81.3096 112.263 90.673 112.439C93.9363 112.501 97.2528 111.264 100.496 110.43C104.05 109.515 105.826 109.822 106.673 111.84C107.582 114.006 106.424 115.909 103.189 117.458C98.9704 119.374 94.3406 120.206 89.7187 119.88C82.6683 119.552 75.6238 118.837 68.6128 117.989C63.9168 117.289 59.1227 118.222 55.0311 120.63C51.5183 122.702 49.629 121.624 49.9073 117.525C50.1556 115.328 50.8843 113.214 52.0416 111.33C55.2872 105.693 58.9247 100.265 60.2978 93.7579C60.4665 92.9933 60.5948 92.2207 60.6824 91.4423C60.6815 90.9002 60.6375 90.3594 60.551 89.8238C58.2683 89.8238 56.049 89.8448 53.8306 89.8153C52.7101 89.8625 51.588 89.7884 50.4835 89.5941C48.6832 89.1661 47.4105 88.0005 47.53 86.0361C47.6442 84.1215 48.8377 82.9926 50.8014 82.8141C53.5882 82.5608 56.3762 82.3238 59.5863 82.0429C58.7567 79.0946 58.0568 76.317 57.1924 73.5913C54.8466 66.191 56.2736 59.3017 60.3875 53.0225C67.6585 41.9304 84.7666 34.79 98.971 45.5546C100.958 47.1895 102.729 49.0696 104.243 51.1499C104.974 52.1362 105.329 53.3508 105.244 54.5753C105.171 55.1549 104.974 55.712 104.667 56.2086C104.359 56.7052 103.948 57.1297 103.462 57.4534C102.593 57.8728 101.009 57.5958 100.128 57.0248C98.7446 56.1296 97.7647 54.6409 96.4822 53.5573C83.6298 42.6936 67.1662 51.3488 64.3217 63.6702C63.9747 65.0864 63.8438 66.5468 63.9333 68.0019C64.1118 69.7884 64.4599 71.554 64.9729 73.2742C65.7433 76.0578 66.6648 78.8006 67.623 81.8782Z" fill="black"/>
<path d="M161.104 73.1401C159.257 56.9336 152.751 41.6104 142.375 29.0254C133.823 18.5312 124.624 11.0523 114.252 6.16911C106.158 2.26948 97.2909 0.23885 88.3063 0.227295C85.5464 0.231794 82.7891 0.411929 80.0515 0.766739C68.6608 2.24416 57.1146 5.54887 43.7273 11.1737C25.6189 18.7872 13.0107 31.8713 6.26282 50.0538C1.52942 62.5396 -0.295001 75.9407 0.928154 89.2374C2.35109 104.176 5.94613 115.753 12.2385 125.664C21.3294 139.972 32.7815 149.391 47.2544 154.456C56.0284 157.531 65.6862 159.075 77.6368 159.318C84.6715 159.318 91.2197 158.469 97.5527 157.646L98.7532 157.491C112.579 155.703 124.321 150.713 134.655 142.249C144.372 134.434 151.727 124.074 155.899 112.324C160.848 98.2896 162.547 85.4687 161.104 73.1401ZM144.783 117.7C136.959 133.542 123.802 143.935 105.66 148.588C103.481 149.148 101.229 149.552 98.8484 149.978C97.6669 150.186 96.433 150.409 95.1387 150.658C89.4942 151.508 81.8814 151.637 77.6847 151.637C75.8168 151.637 74.6223 151.609 74.5888 151.609C63.568 151.478 54.0864 149.606 45.6091 145.891C34.3122 140.94 25.2818 132.584 18.0116 120.35C13.6207 112.972 10.8354 104.237 9.2503 92.867C7.21611 78.4032 8.99485 63.6593 14.41 50.0945C20.109 35.6413 30.359 24.6758 44.8733 17.506C48.2252 15.8474 61.849 11.8543 65.43 11.1264C70.4729 10.1202 75.5851 9.50464 80.7223 9.28536C101.043 8.79967 109.069 12.0702 121.481 21.5464C134.476 31.467 143.636 43.9367 148.707 58.6059C155.594 78.5896 154.279 98.4714 144.783 117.7Z" fill="black"/>
</g>
<defs>
<clipPath id="clip0_6_1756">
<rect width="162.115" height="159.49" fill="white"/>
</clipPath>
</defs>
</svg>
