<svg width="75" height="123" viewBox="0 0 75 123" fill="none" xmlns="http://www.w3.org/2000/svg">
<g clip-path="url(#clip0_8_2297)">
<path d="M11.1478 69.2468C11.1478 73.5786 11.2054 77.7299 11.1326 81.8773C11.0551 86.2531 10.9626 110.324 10.6515 114.687C10.5546 116.475 10.088 118.223 9.2812 119.822C7.66398 122.798 3.9497 122.822 2.19268 119.922C1.47252 118.657 1.03473 117.251 0.909496 115.801C0.564915 112.343 0.207919 89.162 0.305713 85.6966C0.845877 66.4993 1.42536 47.3011 2.20903 28.1137C2.4335 22.6346 3.34058 17.1793 4.0468 11.7271C4.21183 10.1651 4.6371 8.64151 5.305 7.21989C5.87011 6.10413 6.86318 4.84193 7.96321 4.41925C25.2091 -2.20123 42.0239 -0.651613 58.37 7.49548C63.5868 9.96548 67.9745 13.896 71.0022 18.8103C75.6708 26.5689 75.7791 34.3267 70.7522 41.9356C66.2615 48.7327 60.1532 53.8296 53.0424 57.6685C40.2103 64.5962 26.5507 68.6416 11.8861 68.9659C11.6281 69.0249 11.3796 69.1194 11.1478 69.2468ZM10.9331 58.4668C13.8767 58.0684 16.4241 57.674 18.9831 57.3858C29.4724 56.1355 39.6256 52.8905 48.8957 47.8257C54.2077 45.1023 58.8461 41.2298 62.474 36.4894C65.7397 32.1143 65.7161 27.5885 63.0227 22.9909C60.988 19.5189 58.0004 17.0013 54.6183 14.9181C42.8745 7.67604 30.0765 6.18559 16.7148 8.17361C11.5028 8.94875 10.9849 9.6778 10.9469 14.9626C10.8484 28.6453 10.8229 42.3319 10.7796 56.012C10.7769 56.7766 10.8727 57.544 10.9331 58.4668Z" fill="black"/>
</g>
<defs>
<clipPath id="clip0_8_2297">
<rect width="74.8225" height="122.079" fill="white"/>
</clipPath>
</defs>
</svg>
