<svg width="152" height="136" viewBox="0 0 152 136" fill="none" xmlns="http://www.w3.org/2000/svg">
<g clip-path="url(#clip0_8_2570)">
<path d="M90.4611 20.6701C94.9447 20.6701 99.0579 20.6396 103.17 20.6791C106.841 20.7134 110.552 20.5003 114.17 20.9692C121.917 21.9749 126.344 26.546 127.131 34.3219C127.64 39.3617 127.637 44.4526 127.877 49.8305C129.776 50.1485 131.656 50.5687 133.51 51.0894C141.791 53.7997 148.057 58.7449 150.816 67.2626C153.556 75.7347 151.392 82.7542 144.366 88.259C140.297 91.4466 135.794 93.813 130.177 94.5584C130.587 98.1514 131.048 101.617 131.365 105.101C131.767 109.505 132.073 113.918 132.371 118.329C132.412 119.215 132.356 120.102 132.206 120.977C130.994 128.961 127.204 132.464 119.038 132.735C111.231 132.994 103.411 132.879 95.6023 133.117C89.9222 133.291 86.3492 130.786 84.3641 125.579C83.3431 123.006 82.1519 120.505 80.7989 118.089C76.1613 109.549 65.2728 108.95 58.8581 114.026C54.4129 117.546 51.8352 122.251 50.1815 127.53C49.9398 128.268 49.7809 129.032 49.7079 129.805C49.5122 132.25 48.1422 133.743 45.8192 134.153C41.7745 134.865 37.6753 135.944 33.6202 135.849C26.0528 135.673 18.5038 134.774 10.9488 134.151C10.2868 134.064 9.63416 133.917 9 133.71C2.73275 131.974 0.275425 128.955 0.229108 122.511C0.170395 114.313 0.276139 106.114 0.308105 97.9156C0.312019 96.9209 0.324903 95.9249 0.287718 94.9308C0.172903 91.8766 1.39235 90.5179 4.54781 90.2679C7.09661 90.0633 9.64538 89.8392 12.1987 89.7064C20.318 89.2855 26.7944 76.0371 20.9865 67.837C18.638 64.5223 15.1199 62.8249 11.0087 62.4616C9.12401 62.2945 7.23725 62.132 5.35912 61.9073C4.61417 61.8787 3.91067 61.56 3.40077 61.0201C2.89086 60.4802 2.61575 59.7625 2.63501 59.0227C2.63044 51.0712 1.39533 43.0855 3.20041 35.1787C3.37263 34.4243 3.58484 33.6749 3.83078 32.9411C5.62412 27.5944 9.27601 24.2825 14.9626 23.7722C19.5018 23.3655 24.0877 23.4444 28.6536 23.3706C32.0922 23.3149 35.5329 23.359 39.113 23.359C39.3087 22.7723 39.5279 22.1596 39.7262 21.5411C43.2425 10.5912 50.9096 3.73483 61.8529 0.951367C71.7468 -1.56528 84.4711 2.23621 88.7904 15.423C89.3742 17.2001 89.9287 18.9914 90.4611 20.6701ZM8.51451 55.5689C9.72464 55.5689 10.3792 55.5689 11.0335 55.5689C24.8147 55.5359 33.8438 66.7451 32.0622 79.7726C31.4445 84.2917 29.2362 88.1159 26.7239 91.8028C24.6177 94.8408 21.5551 97.099 18.0165 98.2233C14.4154 99.5587 10.5008 99.8261 6.74955 98.9926C6.65992 99.4693 6.61255 99.9531 6.60844 100.438C7.3019 107.487 7.96614 114.541 8.74962 121.581C9.01839 123.991 9.62379 124.536 12.1732 124.837C16.2707 125.321 20.3804 125.864 24.4968 125.991C30.7118 126.186 36.9368 126.042 43.176 126.042C43.2262 125.982 43.3285 125.912 43.3566 125.816C43.5797 125.075 43.769 124.326 44.0045 123.588C46.0992 117.021 49.2193 111.102 54.9771 106.927C59.9526 103.319 65.5043 101.622 71.6633 102.573C82.2315 104.207 88.2215 110.938 91.5309 120.528C91.9928 121.865 92.3288 123.248 92.7456 124.684C94.021 124.684 95.1228 124.715 96.2227 124.678C100.682 124.528 105.143 124.387 109.601 124.184C112.608 124.046 115.619 123.89 118.614 123.596C121.693 123.295 122.297 122.754 122.397 119.686C122.5 116.596 122.299 113.492 122.144 110.399C121.9 105.542 121.6 100.685 121.282 95.8277C121.256 94.6238 121.083 93.4283 120.767 92.2658C119.569 88.555 120.447 86.559 124.173 85.4542C126.623 84.7282 129.157 84.2885 131.647 83.692C134.922 82.9382 137.931 81.3191 140.355 79.0071C141.178 78.252 141.832 77.3343 142.276 76.3124C142.719 75.2904 142.941 74.1875 142.928 73.0756C143.031 69.9515 142.129 66.8766 140.354 64.2957C137.369 60.1367 133.251 57.6297 128.392 56.2956C127.334 56.0974 126.24 56.2068 125.244 56.6104C122.157 57.7113 120.252 56.8046 119.702 53.5361C119.34 51.2398 119.141 48.9209 119.109 46.5968C119.021 42.9443 119.235 39.2826 119.081 35.6346C118.861 30.3889 117.17 28.538 112.044 27.5031C111.17 27.3286 110.283 27.23 109.392 27.2084C104.039 27.0737 98.6834 26.9979 93.3308 26.8386C91.8649 26.7952 90.6626 26.7784 89.3925 27.9687C87.5861 29.6597 85.3589 29.2401 83.9329 27.1716C83.1683 25.9566 82.5871 24.6366 82.2087 23.2541C81.5152 21.0411 81.0455 18.7602 80.3873 16.5357C79.305 12.876 76.8228 10.4636 73.2961 9.10034C68.0003 7.05257 62.793 7.26758 57.8305 10.0718C51.0629 13.896 46.0937 19.2557 44.2176 26.9358C43.6304 29.3443 42.1641 30.2478 39.9989 30.4168C38.4399 30.4944 36.8777 30.4809 35.3203 30.3766C29.3068 30.1396 23.3168 29.5347 17.2733 30.3158C13.5288 30.7995 11.5561 32.559 10.5306 36.1079C8.71635 42.3937 9.52893 48.8538 8.51451 55.5689Z" fill="black"/>
</g>
<defs>
<clipPath id="clip0_8_2570">
<rect width="152" height="136" fill="white"/>
</clipPath>
</defs>
</svg>
