<svg width="148" height="160" viewBox="0 0 148 160" fill="none" xmlns="http://www.w3.org/2000/svg">
<g clip-path="url(#clip0_8_2572)">
<path d="M96.8693 131.953C96.57 133.909 96.3733 135.451 96.0936 136.977C95.09 142.449 92.5747 147.274 89.4264 151.751C86.8189 155.458 82.9871 157.512 78.6477 158.511C68.056 160.949 58.6512 158.257 50.2808 151.579C47.8298 149.61 46.0246 146.95 45.0983 143.942C43.6877 139.496 42.3485 135.008 42.3401 130.264C42.3401 129.84 42.2478 129.415 42.1537 128.604C40.466 128.604 38.8335 128.586 37.2029 128.607C29.7458 128.7 22.3224 128.402 15.0237 126.69C13.3988 126.34 11.7951 125.899 10.2202 125.367C4.3379 123.254 0.658024 119.217 0.483411 112.807C0.308797 106.476 0.511975 100.13 0.7132 93.7961C0.850814 89.4611 1.29729 85.1372 1.55694 80.8061C2.30278 68.3658 2.98498 55.9225 3.78924 43.4867C3.99776 41.2737 4.38095 39.0805 4.93504 36.928C5.85095 32.8955 8.32792 30.1234 12.3226 29.1348C15.8522 28.1852 19.4634 27.5704 23.1079 27.2987C28.8689 26.9924 34.6565 27.2031 40.433 27.1953C41.308 27.1953 42.1857 27.1953 43.3541 27.1953C44.1551 21.1758 45.8285 15.5927 50.0731 11.1445C53.0747 7.99853 56.123 4.90074 60.1612 3.07961C63.8231 1.43683 67.7886 0.584611 71.8008 0.578651C79.3306 0.531822 86.4067 2.09547 92.0625 7.52699C97.5431 12.7907 100.19 19.5713 101.747 26.93C103.04 26.93 104.132 26.941 105.223 26.93C113.325 26.8337 121.428 26.5604 129.527 26.6762C140.037 26.8271 143.729 32.7399 144.25 41.1679C144.475 44.8102 144.38 48.474 144.438 52.1273C144.45 52.457 144.484 52.7855 144.54 53.1107C145.076 56.6671 144.771 57.088 141.164 57.4035C138.503 57.6534 135.929 58.4794 133.619 59.8242C127.409 63.3364 124.57 69.1378 123.065 75.7096C122.6 78.0926 122.484 80.5304 122.722 82.9466C122.954 86.2195 125.054 88.3678 127.817 89.906C130.742 91.5417 134.064 92.3294 137.412 92.1824C138.855 92.1297 140.301 91.9567 141.739 92.012C142.842 92.0309 143.936 92.2286 144.976 92.5974C147.255 93.4748 148.158 95.5333 147.035 97.6978C146.394 99.0982 146.104 100.634 146.191 102.171C146.084 108.065 145.891 113.957 145.658 119.847C145.562 121.067 145.349 122.275 145.022 123.453C144.151 127.118 141.881 129.637 138.296 130.612C135.636 131.379 132.89 131.813 130.124 131.903C120.238 132.052 110.348 131.96 100.459 131.959L96.8693 131.953ZM133.822 51.9277C133.822 48.2802 133.827 44.9527 133.816 41.6253C133.816 40.9586 133.772 40.29 133.708 39.6259C133.419 36.6197 133.011 36.0968 129.916 35.5934C127.073 35.129 124.207 34.725 121.335 34.5285C113.358 33.9121 105.344 33.9289 97.3697 34.5788C95.0329 34.7895 94.4675 34.4141 93.7768 32.083C93.179 30.0668 92.8109 27.9856 92.3222 25.9329C91.1888 21.1804 89.1544 16.9209 85.3636 13.7053C79.7363 8.92933 73.1445 9.03203 66.426 10.1969C64.8924 10.4544 63.4286 11.0264 62.126 11.8769C56.8558 15.4541 52.5618 19.8379 51.1759 26.3953C50.9007 27.6961 50.519 28.98 50.186 30.2717C49.6349 32.4102 48.44 33.7715 46.0967 34.0109C40.6947 34.5611 35.3002 35.1816 29.9047 35.795C26.3839 36.1937 22.8087 36.3543 19.3612 37.101C13.0212 38.4746 13.7788 38.5254 13.0979 43.9654C12.0736 52.1234 11.5211 60.3472 10.9654 68.5557C10.4028 76.8809 9.97566 85.2133 9.68394 93.5528C9.47622 99.3317 9.47298 105.124 9.57554 110.906C9.65019 115.119 10.5371 116.048 14.6798 117.019C16.5024 117.509 18.3638 117.837 20.2433 118.002C26.5573 118.347 32.8805 118.532 39.1978 118.796C40.8607 118.801 42.5213 118.915 44.1692 119.138C47.9413 119.803 49.1539 121.459 49.2012 125.311C49.2023 129.991 50.0199 134.634 51.6168 139.031C52.4905 141.367 53.6641 143.512 55.6874 145.014C61.8469 149.578 68.6051 151.739 76.3213 150.083C77.7961 149.813 79.1923 149.217 80.4082 148.337C81.624 147.458 82.6282 146.318 83.348 145.001C85.7128 140.885 86.7235 136.426 87.7153 131.821C89.3777 124.098 91.1771 122.28 98.3817 122.014C99.2697 121.981 100.158 121.91 101.043 121.912C110.146 121.931 119.249 121.972 128.352 121.981C130.43 121.981 132.553 122.312 134.882 121.331C135.439 114.789 136 108.188 136.575 101.425C135.98 101.345 135.447 101.269 134.912 101.201C130.597 100.72 126.439 99.2991 122.73 97.0383C116.498 93.1424 113.378 87.331 114.046 80.159C115.234 67.3824 120.577 57.1432 133.352 52.2379C133.521 52.1545 133.678 52.0504 133.822 51.9277Z" fill="black"/>
</g>
<defs>
<clipPath id="clip0_8_2572">
<rect width="148" height="160" fill="white"/>
</clipPath>
</defs>
</svg>
