<svg width="159" height="86" viewBox="0 0 159 86" fill="none" xmlns="http://www.w3.org/2000/svg">
<path d="M99.1803 64.65C99.1803 65.9967 99.2066 67.3409 99.1751 68.6897C99.1095 71.5441 98.461 72.5719 96.681 72.7373C93.4525 73.0359 91.8057 72.0606 91.3995 69.0926C90.7339 64.6649 90.2962 60.2058 90.0868 55.733C89.8649 49.1237 90.1012 42.4998 89.9864 35.8852C89.8932 30.5098 89.5348 25.139 89.372 19.7642C89.3057 18.1943 89.4108 16.6217 89.6858 15.0747C89.9621 13.6399 90.5324 12.2624 92.4634 12.2525C94.4068 12.2407 95.3552 13.2462 95.5921 15.0459C96.1172 19.043 96.8287 23.031 97.0761 27.0465C97.8467 39.5766 98.4374 52.1184 99.0976 64.6545L99.1803 64.65Z" fill="black"/>
<path d="M21.2419 17.0103C21.1729 15.7817 21.3494 14.5515 21.761 13.3918C22.2769 12.2268 23.1853 10.6753 24.7191 11.1997C25.9063 11.6952 26.8533 12.6348 27.3583 13.818C27.873 15.4209 28.128 17.0956 28.1137 18.779C28.2782 22.3618 28.3629 25.9485 28.3677 29.539C28.3946 41.7692 28.3756 53.9994 28.3736 66.2282C28.3736 67.1261 28.4012 68.0253 28.3598 68.9192C28.2384 71.5321 27.4029 72.7076 25.6078 72.8573C23.4504 73.0332 21.1985 71.5236 20.7621 69.4935C20.6154 68.6081 20.5616 67.7103 20.6013 66.8137C20.5901 58.5137 21.1998 25.311 21.2419 17.0103Z" fill="black"/>
<path d="M59.4421 73.5828C58.6421 73.5874 57.8716 73.2809 57.2932 72.7282C56.7149 72.1756 56.3738 71.4195 56.3422 70.6201C56.0961 64.6359 55.8723 58.9636 55.6137 53.2928C55.0448 40.7532 54.4554 28.2148 53.8455 15.6774C53.6486 11.7157 54.9245 10.283 58.2764 10.984C60.0282 11.3502 61.1696 12.9532 61.3271 15.6678C61.5745 19.9209 61.734 24.1799 61.8554 28.4388C62.2492 42.2219 62.5964 56.0113 62.9903 69.7977C63.0815 72.9947 62.6069 73.5611 59.4683 73.5821L59.4421 73.5828Z" fill="black"/>
<path d="M37.8013 72.9002C37.1688 72.9074 36.5547 72.6875 36.0699 72.2813C35.585 71.875 35.2615 71.3086 35.1576 70.6844C35.1353 70.5334 35.1183 70.3818 35.1104 70.2302C34.5125 59.5912 33.8541 48.9541 33.4157 38.3083C33.0967 30.5734 33.0705 22.8264 32.9432 15.0843C32.9202 13.683 32.4687 12.0108 34.4239 11.4299C35.6604 11.0624 37.3774 12.568 37.6728 14.6414C38.1092 17.7452 38.3291 20.8877 38.4761 24.0217C38.9822 34.8914 39.4087 45.7642 39.8833 56.6345C40.069 60.8922 40.329 65.146 40.4963 69.4039C40.5082 69.7124 40.5022 70.0209 40.4851 70.3352C40.4517 71.025 40.1546 71.6761 39.6552 72.1533C39.1558 72.6304 38.4923 72.8982 37.8013 72.9002Z" fill="black"/>
<path d="M123.28 72.7322C122.544 72.7302 121.836 72.4473 121.301 71.9413C120.767 71.4346 120.446 70.7441 120.404 70.009C120.384 69.6737 120.372 69.3422 120.373 69.0107C120.425 54.1966 120.498 39.3829 120.593 24.5693C120.616 21.6572 120.884 18.7449 121.091 15.836C121.147 15.0648 121.166 14.1133 121.609 13.5882C122.254 12.8242 123.249 11.9701 124.132 11.9275C124.729 11.8993 125.524 13.1273 125.97 13.9365C126.264 14.4662 126.133 15.2491 126.134 15.9225C126.152 33.7697 126.162 51.6167 126.164 69.4636C126.164 69.6435 126.16 69.8233 126.152 70.0051C126.116 70.7422 125.798 71.4366 125.263 71.9439C124.728 72.4519 124.017 72.7342 123.28 72.7322Z" fill="black"/>
<path d="M47.7663 72.9527C47.1604 72.9527 46.5773 72.7217 46.1353 72.3069C45.6933 71.8927 45.4255 71.3257 45.3864 70.7212C44.1125 51.4465 42.217 32.3071 42.8838 12.9596C42.903 12.4541 43.1173 11.9756 43.4818 11.6248C43.8463 11.274 44.3325 11.0782 44.8384 11.0784C45.3124 11.078 45.7702 11.2503 46.1262 11.5633C46.4823 11.8761 46.7121 12.3084 46.7726 12.7785C47.9369 21.7322 50.1764 60.3269 50.1554 70.5643C50.155 71.1977 49.9031 71.8054 49.4552 72.2531C49.0072 72.7007 48.3997 72.9527 47.7663 72.9527Z" fill="black"/>
<path d="M76.0367 73.528C75.5024 73.5267 74.9845 73.3443 74.5671 73.0108C74.1497 72.6768 73.8583 72.2114 73.7395 71.6909C73.5655 70.9972 73.45 70.291 73.3942 69.5782C73.0365 63.5401 72.583 57.502 72.5134 51.4637C72.3763 39.584 72.4636 27.7041 72.48 15.8244C72.48 15.3571 72.5029 14.8898 72.5351 14.4271C72.5522 14.072 72.6388 13.7238 72.7904 13.4022C72.942 13.0807 73.156 12.7922 73.4192 12.5533C73.6824 12.3143 73.9902 12.1293 74.3249 12.0094C74.6597 11.8895 75.0147 11.8369 75.3698 11.8543C76.5145 11.9482 76.7803 12.7967 76.8741 14.8957C77.3001 24.4047 77.6933 33.9157 77.9643 43.43C78.2196 52.3877 78.3155 61.348 78.4454 70.3113C78.448 70.6867 78.4257 71.0628 78.3798 71.4356C78.3135 72.0112 78.0385 72.5422 77.606 72.9281C77.1741 73.3141 76.6155 73.5274 76.0367 73.528Z" fill="black"/>
<path d="M113.32 72.8883C112.726 72.8876 112.154 72.6599 111.722 72.2523C111.29 71.8441 111.03 71.2868 110.994 70.6935C110.801 67.5194 110.585 64.3678 110.507 61.2121C110.212 49.2138 109.964 37.2144 109.764 25.2139C109.694 21.2942 109.68 17.3693 109.829 13.4536C109.875 12.9886 110.025 12.5398 110.267 12.1399C110.509 11.7402 110.838 11.3995 111.228 11.1426C112.707 10.4167 113.793 11.3729 113.942 13.4187C114.235 17.4427 114.532 21.4707 114.655 25.5019C115.073 38.9525 115.444 52.4042 115.768 65.8576C115.807 67.4486 115.727 69.0421 115.648 70.6685C115.62 71.2665 115.362 71.8316 114.928 72.2444C114.495 72.6579 113.919 72.8883 113.32 72.8883Z" fill="black"/>
<path d="M12.6886 72.2064C12.0456 72.2077 11.4247 71.9714 10.9452 71.5428C10.4658 71.1142 10.1615 70.5235 10.0907 69.8849C10.0388 69.4307 10.0127 68.9746 10.0127 68.5178C10.1479 50.4775 10.3027 32.4378 10.4773 14.3986C10.4813 13.951 10.346 13.3943 10.5548 13.0779C10.9978 12.4143 11.6049 11.4452 12.1956 11.4124C12.7633 11.3815 14.4929 12.3023 14.5874 12.9173C15.0514 16.01 14.8144 19.1368 14.8623 22.2576C15.0973 37.6041 15.2108 52.9531 15.3467 68.3018C15.3513 68.777 15.331 69.2529 15.3002 69.7458C15.2599 70.4113 14.9673 71.0361 14.482 71.4936C13.9967 71.9511 13.3553 72.2057 12.6886 72.2064Z" fill="black"/>
<path d="M87.7109 68.9343C87.6932 72.1051 86.9456 73.2511 85.1374 73.1559C83.4742 73.0686 82.8605 72.006 82.7883 69.0321C82.4845 56.4961 82.2147 43.9602 81.8695 31.4242C81.7251 26.1662 81.3864 20.9143 81.2302 15.6564C81.1869 14.2039 80.6257 12.2874 82.9367 11.9093C84.3531 11.6776 85.2516 12.9103 85.4222 15.6C86.0123 24.8675 86.5485 34.1386 87.0303 43.4136C87.1615 45.8669 87.7443 62.8883 87.7109 68.9343Z" fill="black"/>
<path d="M106.899 67.4897C106.867 68.4972 106.746 69.5 106.538 70.4859C106.293 71.7552 105.446 72.6557 104.183 72.2672C103.747 72.1024 103.353 71.8432 103.027 71.5091C102.702 71.175 102.454 70.7733 102.301 70.3336C101.953 68.5713 101.775 66.7795 101.769 64.9839C101.411 55.4507 101.076 45.9168 100.765 36.3816C100.54 29.7648 100.324 23.148 100.118 16.5312C99.9974 15.6415 100.071 14.7361 100.334 13.8776C100.507 13.5069 100.762 13.1802 101.08 12.9223C101.397 12.6643 101.77 12.4817 102.168 12.3884C102.841 12.3733 103.737 13.0998 104.156 13.7469C104.541 14.3429 104.476 15.2624 104.518 16.0441C105.272 30.0484 106.945 64.3501 106.899 67.4897Z" fill="black"/>
<path d="M134.129 70.6448C134.094 71.0694 133.924 71.4717 133.644 71.792C133.363 72.113 132.988 72.3348 132.572 72.4267C130.206 72.9846 129.335 71.836 129.38 68.7624C129.634 51.4741 129.792 34.1856 129.995 16.897C129.92 15.6671 130.008 14.4326 130.258 13.2259C130.454 12.5394 131.543 11.5052 131.958 11.6187C132.392 11.7528 132.789 11.9847 133.119 12.2969C133.449 12.609 133.703 12.9929 133.862 13.4189C134.128 15.3068 134.238 17.2137 134.19 19.1198C134.359 31.4682 134.568 43.8167 134.625 56.1657C134.648 60.9871 134.318 65.8102 134.126 70.6316L134.129 70.6448Z" fill="black"/>
<path d="M141.703 40.8966C141.703 49.532 141.687 58.1679 141.711 66.8035C141.719 69.8279 141.213 70.8945 139.535 71.01C137.691 71.1373 136.754 69.8942 136.749 66.9216C136.722 52.4546 136.731 37.9878 136.778 23.5212C136.791 20.7272 137.161 17.9321 137.442 15.1453C137.484 14.2503 137.724 13.3756 138.146 12.5853C138.352 12.2844 138.623 12.0345 138.939 11.8546C139.256 11.6747 139.609 11.5697 139.972 11.5476C140.312 11.6613 140.62 11.8508 140.874 12.1017C141.129 12.3526 141.323 12.6583 141.441 12.9955C141.637 13.87 141.694 14.7699 141.611 15.6622C141.619 24.0738 141.62 32.4858 141.615 40.8979L141.703 40.8966Z" fill="black"/>
<path d="M69.3092 73.6194C68.7874 73.6194 68.2846 73.4212 67.904 73.0642C67.5233 72.7078 67.2922 72.2188 67.2581 71.6983C67.1859 70.5826 67.1137 69.472 67.0245 68.3641C66.3734 60.3201 65.5707 52.2839 65.0877 44.2313C64.5108 34.6022 64.201 24.9571 63.7829 15.3188C63.655 14.5438 63.6718 13.7518 63.8321 12.9828C64.0728 12.1913 64.6099 11.5234 65.3312 11.1183C66.4922 10.7153 67.182 11.6015 67.436 12.7114C67.6703 13.5752 67.8285 14.4575 67.9092 15.3489C68.4579 26.441 68.8786 37.5385 69.5356 48.6254C69.9662 55.8989 70.7354 63.1522 71.3274 70.4159C71.3589 70.7952 71.3668 71.1766 71.3655 71.575C71.3622 72.1184 71.1443 72.6382 70.759 73.0215C70.3738 73.4042 69.8526 73.6194 69.3092 73.6194Z" fill="black"/>
<path d="M144.623 16.0588C144.623 15.4976 144.628 14.9371 144.632 14.3766C144.644 12.9707 144.752 11.3878 146.559 11.4423C148.38 11.4968 148.311 13.1486 148.348 14.5112C148.81 31.3134 149.27 48.1159 149.726 64.9181C149.762 66.038 149.707 67.159 149.56 68.2695C149.392 69.4805 148.758 70.3823 147.373 70.3751C145.944 70.3672 145.422 69.4142 145.339 68.1803C145.149 65.2717 144.913 62.3603 144.879 59.4508C144.816 53.0626 144.623 24.1337 144.623 16.0588Z" fill="black"/>
<path d="M152.313 75.4098C152.122 72.0986 151.837 69.1017 151.813 66.1029C151.766 63.9915 151.968 61.8821 152.417 59.8185C152.603 59.3286 152.906 58.891 153.298 58.5436C153.691 58.1962 154.162 57.9494 154.671 57.8238C156.04 57.6847 156.18 59.0466 156.322 60.2319C156.887 64.8919 157.621 69.5375 158.145 74.2034C158.69 79.0512 157.285 80.4977 152.516 80.7012C148.607 80.8659 144.705 81.2551 140.805 81.5459C139.802 81.6207 138.8 81.7218 137.795 81.7684C136.574 81.8248 135.473 81.5387 135.333 80.1046C135.202 78.7591 136.105 77.9899 137.295 77.7785C141.365 77.0565 145.446 76.4265 149.524 75.7714C150.284 75.6474 151.051 75.5713 152.313 75.4098Z" fill="black"/>
<path d="M6.05852 79.9115C9.42159 79.9115 12.7637 79.8695 16.1038 79.9319C17.5522 79.8669 19.0017 80.0376 20.3956 80.4366C21.235 80.7444 22.2898 81.9318 22.2733 82.7036C22.2563 83.5096 21.1832 84.456 20.3555 85.0257C19.7832 85.4195 18.8459 85.3592 18.0675 85.3638C13.9267 85.3874 9.78455 85.4366 5.64568 85.3441C1.69321 85.2555 0.4232 83.9552 0.352316 80.0586C0.29062 76.7034 0.320821 73.3455 0.345105 69.989C0.355607 68.5517 0.148212 66.8885 2.19927 66.626C3.58611 66.4474 4.48134 67.6761 4.73272 69.9733C5.01166 72.5291 5.21316 75.0927 5.49342 77.6485C5.63534 78.4138 5.82406 79.1692 6.05852 79.9115Z" fill="black"/>
<path d="M152.121 4.65455C148.738 4.52788 145.295 4.39201 141.851 4.2719C141.292 4.25156 140.73 4.26075 140.17 4.2719C138.886 4.29094 137.505 4.26298 137.428 2.57882C137.354 0.945853 138.806 0.571502 139.994 0.482896C142.109 0.325375 144.244 0.454922 146.371 0.45886C148.714 0.463455 151.06 0.524466 153.401 0.446362C155.939 0.361038 157.445 1.23388 157.545 3.71812C157.749 8.85722 157.621 14.0101 157.588 19.1578C157.584 19.692 157.445 21.0506 157.1 21.4011C156.435 22.0519 155.559 22.4448 154.63 22.5096C154.065 22.5753 152.948 21.3878 152.76 20.5996C152.363 18.7488 152.157 16.8625 152.145 14.9698C152.056 11.7347 152.121 8.49808 152.121 4.65455Z" fill="black"/>
<path d="M5.85313 6.73173C5.45145 10.8463 5.10096 14.4005 4.76032 17.9552C4.67434 18.8485 4.80758 19.8193 4.49122 20.6161L4.48269 20.6376C4.34404 20.9328 4.12766 21.1848 3.85671 21.3663C3.58577 21.5479 3.2705 21.6522 2.94474 21.6682C2.61897 21.6842 2.295 21.6112 2.00758 21.457C1.72016 21.3028 1.48013 21.0735 1.31325 20.7933C1.29356 20.7598 1.27452 20.7275 1.25614 20.6914C1.03819 20.0532 0.970815 19.3733 1.05925 18.7048C1.09929 14.8908 1.11635 11.0754 1.2404 7.26337C1.34016 4.18385 2.52943 2.6567 5.56893 2.22548C9.77996 1.62756 14.0324 1.30664 18.2717 0.92531C19.0455 0.783088 19.8441 0.870348 20.5689 1.17656C21.2955 1.62429 21.8173 2.33947 22.022 3.16801C21.9884 3.53702 21.8607 3.89119 21.6511 4.19674C21.4415 4.50229 21.1571 4.74881 20.8249 4.91301C19.1067 5.37103 17.3528 5.68276 15.5821 5.84496C12.4769 6.18625 9.36259 6.41798 5.85313 6.73173Z" fill="black"/>
</svg>
