<svg width="85" height="124" viewBox="0 0 85 124" fill="none" xmlns="http://www.w3.org/2000/svg">
<g clip-path="url(#clip0_8_2574)">
<path d="M66.164 6.80024C58.3673 2.43766 49.5472 0.277133 40.6341 0.546415C32.8844 0.308912 25.1665 1.64708 17.9408 4.48125C11.2438 7.16705 6.34028 10.8027 2.95445 15.5952C1.80543 17.3085 1.01918 19.2423 0.644694 21.2758C0.193936 23.5617 1.01496 25.2296 2.89848 25.8522C5.08079 26.5728 6.4609 25.1582 7.62836 23.5228L8.04434 22.9385C9.34059 21.1077 10.6811 19.2152 12.3714 17.9545C14.9782 16.0268 17.8266 14.4551 20.842 13.2801C27.2981 10.7638 34.4394 9.95614 43.3154 10.7417C49.4625 11.2857 54.6539 12.7133 59.1859 15.1056C65.663 18.5244 69.7913 22.8625 71.8075 28.3679C74.6621 36.1682 73.0876 42.4267 67.1273 46.9699C63.7264 49.4399 60.1705 51.6851 56.4819 53.6917L56.3093 53.7904C54.5268 54.811 52.6314 55.7231 50.7981 56.6054C49.5102 57.2254 48.1771 57.8675 46.886 58.5446C38.0157 63.1962 31.9169 69.339 28.2413 77.3231C27.3041 79.2688 26.6389 81.3352 26.2645 83.4647C25.9978 85.0929 26.0678 86.7588 26.4699 88.3584C26.872 89.9574 27.5976 91.4558 28.6013 92.7595C29.6001 94.0916 30.6284 94.378 31.3155 94.3825H31.3356C31.8186 94.363 32.2904 94.2306 32.7134 93.9943C33.1363 93.7586 33.4986 93.4262 33.7714 93.0237C34.3014 92.3394 34.8403 91.6603 35.3812 90.9819C36.8063 89.1849 38.2792 87.3268 39.5741 85.3785C43.6206 79.2837 49.1237 74.3075 56.8922 69.7175C61.6956 66.9668 66.3559 63.9695 70.8551 60.7377C74.0117 58.4139 76.8469 55.6764 79.2855 52.5972C84.3959 46.0616 86.0862 38.6007 84.3089 30.4212C82.106 20.3058 76.0015 12.3601 66.164 6.80024Z" fill="black"/>
<path d="M29.2559 123.356C29.8065 123.438 30.3625 123.48 30.9192 123.479C33.6154 123.446 36.232 122.554 38.3949 120.931C40.5579 119.308 42.156 117.037 42.9607 114.442C43.4464 112.472 43.4764 110.416 43.0481 108.432C42.6198 106.449 41.7447 104.591 40.4906 103.003C39.5373 101.695 38.2832 100.641 36.836 99.9325C35.3889 99.2229 33.7922 98.8795 32.1838 98.9308C30.0466 98.9379 29.6964 99.0873 26.1818 101.159C23.7395 102.527 21.8309 104.692 20.7696 107.297C19.7083 109.903 19.5571 112.795 20.3411 115.499C21.6515 120.022 24.6517 122.665 29.2559 123.356ZM30.7158 106.086C30.9089 106.346 31.1019 106.59 31.2887 106.831C31.8523 107.467 32.3143 108.188 32.6583 108.968C33.053 110.059 33.136 111.24 32.8979 112.377C32.6905 112.932 32.2812 113.386 31.7531 113.648C31.0514 114.105 30.2106 114.294 29.3826 114.182C28.957 114.067 27.6622 113.715 27.7504 111.157C27.8451 108.422 28.7125 106.917 30.7164 106.082L30.7158 106.086Z" fill="black"/>
</g>
<defs>
<clipPath id="clip0_8_2574">
<rect width="85" height="124" fill="white"/>
</clipPath>
</defs>
</svg>
