<svg width="70" height="134" viewBox="0 0 70 134" fill="none" xmlns="http://www.w3.org/2000/svg">
<g clip-path="url(#clip0_8_2577)">
<path d="M1.73885 19.4153C4.08644 20.8581 5.59558 19.1636 6.6974 17.9244L6.80189 17.806C10.2066 13.9844 14.7481 11.6472 21.5257 10.2252C31.9564 8.0409 40.7705 9.75168 48.4777 15.4577C58.128 22.6046 63.2665 37.6094 54.7395 49.3877C52.4565 52.454 49.7501 55.1786 46.7022 57.4797C42.8645 60.4492 38.7778 63.2438 34.8261 65.9466C33.2634 67.016 31.7002 68.0841 30.1479 69.1658C23.6661 73.5195 19.0988 80.2059 17.3893 87.8432C16.6381 91.1204 16.1711 94.4261 15.6778 97.9258C15.4516 99.5227 15.2239 101.152 14.9582 102.821C14.9488 102.886 14.9488 102.951 14.9582 103.016C15.0405 103.602 15.109 104.221 15.1803 104.863C15.327 106.55 15.6011 108.222 16.0007 109.867C16.5911 112.058 18.4304 113.405 20.92 113.468H21.0902C22.1518 113.502 23.1976 113.206 24.0854 112.622C24.9732 112.036 25.6596 111.19 26.0501 110.199C26.684 108.602 27.0965 106.926 27.2768 105.216C27.5062 103.395 27.6829 101.548 27.8546 99.7582C28.0893 97.3052 28.3325 94.769 28.7117 92.3056C29.0828 89.6269 29.9979 87.0529 31.4005 84.7437C32.8031 82.4344 34.6631 80.4388 36.8655 78.8808C38.1358 77.9565 39.4234 77.0549 40.7113 76.1534C43.1179 74.4692 45.607 72.7279 47.9397 70.8525L48.496 70.4063C52.5923 67.1155 56.8274 63.7128 60.5102 59.8684C65.6428 54.6118 68.7422 47.692 69.2517 40.3499C70.2116 26.289 64.7724 15.1559 53.0831 7.26032C40.0255 -1.55897 25.7535 -2.08262 9.45521 5.66467C6.02245 7.35614 3.1649 10.0287 1.24198 13.3462C-0.212467 15.7413 -0.00013262 18.3433 1.73885 19.4153Z" fill="black"/>
<path d="M23.0453 118.717C20.7807 118.708 18.9622 119.327 17.7139 120.574C16.452 121.831 15.8107 123.651 15.8081 125.985C15.7949 127.104 16.0038 128.215 16.4227 129.252C16.8416 130.289 17.4624 131.232 18.2481 132.026C19.4894 133.27 21.1681 133.974 22.9219 133.986C22.9802 133.986 23.0376 133.986 23.0953 133.986C26.8124 133.886 30.2989 130.179 30.4098 126.209C30.4387 125.248 30.2746 124.291 29.9268 123.395C29.579 122.499 29.0547 121.682 28.3856 120.994C27.6934 120.274 26.8636 119.701 25.9462 119.309C25.0286 118.919 24.0422 118.717 23.0453 118.717Z" fill="black"/>
</g>
<defs>
<clipPath id="clip0_8_2577">
<rect width="70" height="134" fill="white"/>
</clipPath>
</defs>
</svg>
