<svg width="160" height="135" viewBox="0 0 160 135" fill="none" xmlns="http://www.w3.org/2000/svg">
<g clip-path="url(#clip0_8_2927)">
<path d="M99.2562 37.3747C100.627 36.4164 101.706 35.6326 102.814 34.8935C114.006 27.4316 126.089 25.9318 138.829 29.8396C154.282 34.5784 160.631 49.8187 159.307 62.1046C158.187 72.5203 153.066 80.9326 145.542 87.9462C142.615 90.6746 138.848 92.1842 135.008 92.9567C127.998 94.3659 120.934 95.6346 113.833 96.4491C95.7422 98.5251 77.5419 98.424 59.3653 98.7154C50.8211 98.8526 42.3003 98.6944 33.9563 96.5489C31.4661 95.9089 28.9866 95.187 26.5667 94.3213C13.1058 89.5044 5.54348 79.4526 2.20272 66.0265C-0.933915 53.425 -0.193622 40.8705 5.96545 29.3531C14.9245 12.6008 28.8318 1.75485 48.0717 0.198019C65.3839 -1.20261 79.8614 5.48312 90.5499 19.576C94.5352 24.826 97.2577 30.6807 99.2562 37.3747ZM63.5514 88.7371C67.9266 88.5599 72.3057 88.4549 76.6782 88.1924C91.245 87.3175 105.801 86.2345 120.375 85.5526C125.756 85.2907 131.007 83.8054 135.727 81.2096C144.005 76.7846 148.104 69.7519 148.576 60.535C149.101 50.2823 143.629 41.9267 134.381 39.4129C123.782 36.531 113.871 38.1005 105.316 45.3905C102.764 47.5649 100.572 50.1574 98.1864 52.5307C97.45 53.3684 96.6033 54.1021 95.6693 54.7112C93.275 56.0324 90.6726 55.0391 89.5043 52.5641C89.1932 51.9062 89.0252 51.1899 89.0121 50.4623C88.999 49.7348 89.1401 49.0128 89.4269 48.344C90.7836 44.6889 90.2611 41.0811 89.0449 37.4824C87.2452 32.3972 84.549 27.6755 81.0842 23.5416C70.2796 10.1838 48.9818 5.94433 34.3527 14.142C13.8658 25.6279 6.32732 43.9654 11.3982 65.0588C13.8063 75.0781 19.7337 82.3569 29.8997 85.5178C33.0008 86.48 36.1595 87.2446 39.3573 87.8064C47.3698 89.2195 55.4634 88.9452 63.5508 88.7365L63.5514 88.7371Z" fill="black"/>
<path d="M105.158 128.941C105.441 127.938 105.801 126.958 106.232 126.009C108.029 122.52 109.907 119.069 111.795 115.628C112.147 114.929 112.631 114.306 113.22 113.79C113.561 113.492 113.975 113.29 114.42 113.204C114.865 113.118 115.324 113.152 115.751 113.301C116.179 113.452 116.559 113.713 116.852 114.058C117.145 114.403 117.342 114.82 117.421 115.266C117.653 116.365 117.589 117.507 117.236 118.573C115.879 122.128 114.439 125.661 112.782 129.085C112.109 130.371 111.102 131.452 109.867 132.215C107.611 133.616 105.249 132.148 105.158 128.941Z" fill="black"/>
<path d="M37.5531 118.323C37.3148 119.036 37.0512 120.009 36.6705 120.935C35.3919 124.044 34.0861 127.141 32.7533 130.228C32.4271 131.06 31.9726 131.835 31.406 132.525C30.8463 133.165 30.0855 133.595 29.2488 133.744C28.4123 133.894 27.5495 133.753 26.803 133.348C26.1289 132.924 25.6359 132.266 25.4195 131.499C25.203 130.733 25.2784 129.913 25.6313 129.199C27.7972 124.779 30.1687 120.457 32.5709 116.158C32.8773 115.606 33.38 115.187 33.9798 114.987C34.5795 114.788 35.2325 114.821 35.8093 115.079C37.2185 115.572 37.4809 116.754 37.5531 118.323Z" fill="black"/>
<path d="M69.4608 134.035C69.0617 134.052 68.6627 133.986 68.2905 133.841C67.9184 133.695 67.5804 133.473 67.2982 133.19C67.0159 132.907 66.7961 132.567 66.6523 132.195C66.5092 131.821 66.4449 131.422 66.464 131.023C66.4961 130.235 66.7029 129.463 67.0691 128.764C69.1077 125.161 71.2126 121.595 73.3279 118.036C73.5734 117.526 73.9751 117.109 74.4752 116.846C75.3534 116.557 76.5427 116.146 77.1879 116.513C77.8442 116.887 78.1251 118.11 78.3292 119.016C78.4316 119.472 78.0326 120.066 77.8042 120.569C76.2828 123.933 74.7194 127.277 73.2262 130.654C72.4524 132.402 71.3333 133.681 69.4608 134.035Z" fill="black"/>
</g>
<defs>
<clipPath id="clip0_8_2927">
<rect width="159.49" height="134.549" fill="white"/>
</clipPath>
</defs>
</svg>
