<svg width="154" height="150" viewBox="0 0 154 150" fill="none" xmlns="http://www.w3.org/2000/svg">
<g clip-path="url(#clip0_8_2918)">
<path d="M105.867 29.639C107.147 28.7858 108.248 28.0227 109.378 27.304C117.529 22.1189 126.381 21.0442 135.588 23.3795C151.249 27.3523 156.715 43.609 151.832 56.0886C150.307 59.9873 147.835 63.5911 145.376 67.0315C142.668 70.8219 138.529 72.7364 134.098 73.9171C131.722 74.5499 129.301 75.0159 126.666 75.6098C126.394 76.6304 126.096 77.6852 125.833 78.7491C124.425 84.4396 121.305 89.1842 117.548 93.5581C114.725 96.8397 110.928 98.6401 106.822 99.4881C101.228 100.643 95.5682 101.566 89.8942 102.226C74.9179 103.969 59.8466 103.677 44.804 103.964C37.8353 104.198 30.8703 103.394 24.1383 101.578C11.9633 98.1255 4.61766 90.1169 1.62607 78.0435C-0.331522 70.3992 -0.116832 62.3603 2.2462 54.8318C6.19473 42.2084 15.0212 34.0426 26.7198 28.6436C28.6434 27.8286 30.1963 26.3287 31.0773 24.4345C37.6099 11.561 47.9248 2.92045 62.2284 0.692186C76.5128 -1.53346 88.7863 3.37467 98.0702 14.7746C101.039 18.4428 103.331 22.6112 104.836 27.0842C105.117 27.9092 105.486 28.7037 105.867 29.639ZM50.0172 95.7207C52.9346 95.7207 55.8586 95.8605 58.7675 95.6964C70.8702 95.0118 82.9633 94.1343 95.0707 93.5515C99.0002 93.4307 102.861 92.4915 106.408 90.7949C114.657 86.7518 118.53 80.0585 117.828 70.9472C117.283 63.8838 112.871 58.444 105.955 56.7815C97.3134 54.7036 89.4433 56.3352 82.7506 62.3892C80.926 64.0393 79.3212 65.9302 77.6056 67.7003C75.8256 69.5381 74.1867 69.9706 72.5432 69.0642C70.9556 68.1886 70.2677 66.406 70.968 64.098C72.0064 60.685 71.455 57.4687 70.2119 54.2638C68.7713 50.6063 66.7242 47.2179 64.1573 44.2406C56.2675 34.9475 42.1301 30.8807 31.1299 35.2768C16.5041 41.1182 6.12712 53.4576 7.93466 71.4769C9.52037 87.29 17.1963 92.397 28.5385 94.8904C28.8667 94.9626 29.2028 95.0046 29.5329 95.0703C36.3129 96.4092 43.165 96.2293 50.0172 95.7207ZM78.7942 55.0407C78.9668 55.0065 79.1368 54.9565 79.3009 54.8919C79.6842 54.6629 80.078 54.445 80.4351 54.1799C87.1349 49.1996 94.6979 47.2588 102.957 47.9447C114.086 48.8635 122.203 54.4895 125.623 65.4267C125.843 66.1297 126.167 66.8005 126.611 67.9084C129.076 66.9271 131.402 66.1638 133.586 65.1031C141.593 61.2129 145.34 54.6962 144.815 45.8225C144.377 38.4209 139.885 32.8534 132.666 31.1856C123.999 29.1805 116.16 30.9183 109.521 37.0203C107.71 38.6847 106.12 40.5863 104.392 42.344C102.754 44.0098 101.152 44.3905 99.5785 43.5727C97.9593 42.7307 97.2065 40.9081 97.9041 38.6463C98.9937 35.1159 98.4345 31.7927 97.0647 28.5071C96.6341 27.474 96.1845 26.4461 95.6805 25.4478C86.8442 7.95046 66.1302 3.99775 52.9739 12.0582C48.1508 14.9435 43.9211 18.7203 40.5102 23.1871C40.0556 23.9173 39.6549 24.6796 39.3117 25.4683C59.5518 26.2933 72.5465 36.3344 78.7942 55.0407Z" fill="black"/>
<path d="M95.6099 122.582C96.0135 121.282 96.4979 120.009 97.0604 118.769C98.7012 115.733 100.433 112.745 102.171 109.763C102.614 109.002 103.07 108.056 103.778 107.69C104.728 107.203 105.804 107.017 106.863 107.159C108.137 107.375 108.429 108.612 108.401 109.795C108.41 110.352 108.316 110.906 108.123 111.429C106.457 115.313 104.776 119.191 103.028 123.039C102.666 123.73 102.176 124.347 101.585 124.857C100.438 125.939 98.929 126.503 97.6261 125.579C96.6823 124.904 96.2262 123.543 95.6099 122.582Z" fill="black"/>
<path d="M36.6414 111.035C36.2397 112.225 35.9851 113.07 35.67 113.896C34.4328 117.112 33.1515 120.315 31.9288 123.54C30.7224 126.728 28.7325 128.069 26.5258 127.11C24.6566 126.295 24.1426 124.148 25.4237 121.264C26.9143 117.91 28.5925 114.635 30.2523 111.359C30.5839 110.528 31.1401 109.806 31.8586 109.273C32.7453 108.785 34.0584 108.354 34.8881 108.675C35.694 108.984 36.1183 110.275 36.6414 111.035Z" fill="black"/>
<path d="M58.9158 124.302C59.5111 122.716 59.8852 121.433 60.4608 120.245C61.8686 117.339 63.3671 114.476 64.8366 111.6C65.0712 111.096 65.3483 110.613 65.6654 110.156C66.409 109.167 67.5491 108.601 68.5894 109.194C69.463 109.798 70.1279 110.658 70.4928 111.654C70.67 112.419 70.5899 113.221 70.265 113.935C69.0666 117.282 67.855 120.636 66.4878 123.92C66.0796 124.96 65.3546 125.845 64.4152 126.449C63.4523 126.974 61.971 127.306 61.037 126.93C60.103 126.554 59.5898 125.196 58.9158 124.302Z" fill="black"/>
<path d="M126.697 127.521C126.548 128.307 126.35 129.083 126.103 129.843C124.996 132.524 123.971 135.253 122.648 137.826C121.939 139.21 120.922 140.412 119.676 141.342C117.669 142.786 115.569 141.643 115.465 139.154C115.396 138.04 115.608 136.927 116.079 135.914C117.669 132.842 119.436 129.859 121.175 126.866C121.416 126.356 121.825 125.945 122.333 125.701C123.251 125.446 124.393 125.127 125.161 125.468C125.899 125.794 126.279 126.921 126.697 127.521Z" fill="black"/>
<path d="M47.8108 135.305C46.2415 139.97 44.7089 144.145 42.0717 147.776C40.8404 149.47 39.0373 149.729 37.6629 148.817C36.389 147.972 36.0175 146.48 36.6476 144.665C36.7757 144.24 36.9521 143.83 37.1729 143.444C39.1327 140.347 41.0871 137.246 43.1014 134.183C43.8135 133.102 44.9006 132.214 46.1732 133.027C46.9647 133.526 47.3606 134.644 47.8108 135.305Z" fill="black"/>
<path d="M84.2817 136.214C82.4439 139.847 80.7788 143.368 78.8892 146.767C78.5348 147.429 77.9342 147.924 77.2168 148.145C76.4995 148.366 75.7243 148.295 75.0588 147.949C73.5492 147.279 73.5407 145.819 73.7934 144.47C73.9798 143.369 74.3355 142.304 74.8481 141.313C76.1319 138.958 77.4958 136.639 78.9581 134.391C79.7726 133.139 81.1949 132.6 82.4794 133.39C83.2663 133.876 83.601 135.091 84.2817 136.214Z" fill="black"/>
<path d="M141.619 87.572C139.913 91.6413 138.462 95.5137 136.653 99.2155C136.488 99.5797 136.247 99.9046 135.946 100.168C135.645 100.431 135.29 100.627 134.906 100.74C134.523 100.854 134.119 100.884 133.724 100.828C133.327 100.772 132.948 100.631 132.611 100.415C132.277 100.254 131.98 100.027 131.737 99.7471C131.495 99.4675 131.311 99.1413 131.199 98.7882C131.086 98.4357 131.047 98.0636 131.083 97.6947C131.119 97.3265 131.23 96.9695 131.409 96.6452C133.181 93.0406 135.175 89.5371 137.214 86.0716C137.793 85.0871 139.014 84.44 140.114 85.2184C140.813 85.7139 141.123 86.7562 141.619 87.572Z" fill="black"/>
</g>
<defs>
<clipPath id="clip0_8_2918">
<rect width="153.583" height="149.645" fill="white"/>
</clipPath>
</defs>
</svg>
