<svg width="120" height="107" viewBox="0 0 120 107" fill="none" xmlns="http://www.w3.org/2000/svg">
<g clip-path="url(#clip0_8_2580)">
<path d="M61.2976 106.786C46.5767 106.474 32.7121 103.256 20.3776 95.1194C8.82625 87.4966 1.60016 76.9578 0.526682 63.0243C-0.251419 52.4081 1.87058 41.7803 6.67082 32.2521C9.59973 26.2788 13.1678 20.6948 17.9026 15.9133C27.4765 6.24464 39.2019 1.33938 52.7763 0.507872C62.0919 -0.063869 71.288 0.32157 80.1556 3.61407C87.7039 6.35216 94.8119 10.1536 101.26 14.9007C112.396 23.2016 118.901 34.0156 119.586 47.9482C120.35 63.4677 116.178 77.3458 105.521 89.0888C97.0293 98.4435 86.2815 103.551 73.9371 105.575C69.7711 106.255 65.5137 106.396 61.2976 106.786ZM61.9719 96.785C63.6584 96.6915 66.5721 96.6787 69.4476 96.3454C80.3161 95.0878 89.8743 91.1772 97.2954 82.8615C106.9 72.097 109.633 59.472 107.857 45.5884C106.976 38.2645 103.286 31.5536 97.5484 26.8376C79.5537 11.6456 59.0704 7.39907 36.3141 13.7527C35.7068 14.0217 35.0587 14.1896 34.396 14.2496C32.6436 14.1085 31.4293 15.0393 30.2221 16.0313C29.0149 17.0233 27.7856 17.9734 26.6808 19.0569C17.412 27.9961 11.6543 39.8968 10.4332 52.6394C9.79278 58.6572 9.61669 64.7765 12.0063 70.5887C15.0931 78.1167 20.6625 84.393 27.811 88.3997C37.9752 94.3195 49.0706 96.6903 61.9719 96.785Z" fill="black"/>
<path d="M60.1056 30.7021C66.5758 30.6757 71.1821 32.9324 74.6954 37.4154C75.1675 38.029 75.671 38.618 76.2038 39.1803C82.2149 45.3966 83.4756 52.6848 80.6771 60.5873C74.5467 77.9062 54.7598 82.3093 41.5669 72.785C34.6246 67.7728 31.9246 60.8407 33.737 52.4483C36.4031 40.1014 49.8352 30.2715 60.1056 30.7021Z" fill="black"/>
</g>
<defs>
<clipPath id="clip0_8_2580">
<rect width="120" height="107" fill="white"/>
</clipPath>
</defs>
</svg>
