<svg width="126" height="86" viewBox="0 0 126 86" fill="none" xmlns="http://www.w3.org/2000/svg">
<g clip-path="url(#clip0_8_2583)">
<path d="M63.8482 1.09953C80.4939 1.09953 97.1396 1.10406 113.785 1.11311C115.908 1.09649 118.031 1.20445 120.141 1.43642C123.811 1.87612 125.671 4.01772 125.674 7.69697C125.674 10.1295 125.516 12.5621 125.467 14.9953C125.234 26.7166 125.082 38.4398 124.768 50.1591C124.528 59.1082 124.516 68.0834 122.954 76.9453C122.669 78.4622 122.256 79.9527 121.718 81.4011C120.748 84.0962 118.799 85.3933 115.847 85.4101C94.7339 85.5395 73.6214 85.7509 52.5091 85.8563C38.2117 85.9274 23.9075 85.8679 9.60748 85.8647C8.60209 85.8647 7.59304 85.8964 6.59157 85.8304C2.22531 85.544 0.253681 83.2705 0.34965 78.8961C0.550728 69.718 0.749788 60.5398 0.82813 51.3604C0.927363 39.7446 0.808655 28.1268 0.986883 16.5129C1.05217 12.2136 1.63954 7.91689 2.09653 3.6298C2.39227 0.844825 3.07079 0.194983 5.92374 0.194336C11.6035 0.194336 17.2833 0.403776 22.967 0.419294C36.5952 0.456798 50.2229 0.431608 63.8505 0.431608C63.8492 0.654474 63.8482 0.877098 63.8482 1.09953ZM113.616 76.966C114.867 72.1474 116.499 15.3691 115.563 11.5482C79.6707 10.7186 43.7496 11.7901 7.90811 10.0882C7.37865 13.4118 8.78038 75.5137 9.45673 77.8007C44.0747 77.9178 78.7782 78.0943 113.616 76.9673L113.616 76.966Z" fill="black"/>
</g>
<defs>
<clipPath id="clip0_8_2583">
<rect width="126" height="86" fill="white"/>
</clipPath>
</defs>
</svg>
