<svg width="111" height="121" viewBox="0 0 111 121" fill="none" xmlns="http://www.w3.org/2000/svg">
<g clip-path="url(#clip0_8_2590)">
<path d="M108.303 56.3949C108.715 70.8562 109.116 86.7658 109.66 102.671C109.791 106.439 110.464 110.186 110.745 113.954C110.865 115.271 110.714 116.598 110.304 117.854C109.202 120.918 105.977 121.353 104.109 118.646C103.151 117.283 102.512 115.723 102.241 114.081C101.457 108.471 100.501 102.835 100.379 97.1919C99.922 75.9402 99.5897 54.6815 99.5838 33.4251C99.5838 24.3176 100.478 15.2101 101.009 6.10256C101.077 4.87964 101.289 3.66884 101.639 2.49466C101.802 1.89403 102.17 1.36848 102.679 1.00697C103.187 0.645466 103.806 0.470295 104.429 0.511206C105.831 0.511206 106.814 1.18122 107.05 2.59289C107.309 4.01035 107.457 5.44601 107.492 6.88653C107.557 16.5691 107.503 26.253 107.63 35.9349C107.713 42.2705 108.037 48.6086 108.303 56.3949Z" fill="black"/>
<path d="M45.1467 101.024C32.4248 100.559 19.7021 100.113 6.98218 99.6045C5.65007 99.5479 4.33288 99.3026 3.07047 98.8746C2.26379 98.6111 1.56538 98.092 1.08104 97.3972C0.59669 96.7025 0.35277 95.8698 0.386211 95.0241C0.372878 94.1777 0.648677 93.3509 1.16839 92.6808C1.68811 92.0108 2.42094 91.5359 3.24677 91.3349C4.53213 90.992 5.86334 90.8502 7.1925 90.9153C13.6666 91.1169 20.1386 91.3667 26.6084 91.666C43.1182 92.4115 59.6273 93.1694 76.1362 93.939C79.0359 94.0691 81.9473 94.017 84.8438 94.1628C85.9486 94.2083 87.037 94.4464 88.0595 94.8673C88.6831 95.1386 89.2048 95.5985 89.5508 96.1827C89.8962 96.7669 90.0471 97.4454 89.9831 98.12C90.0027 98.8557 89.7807 99.5778 89.351 100.176C88.9221 100.775 88.3083 101.218 87.6038 101.438C86.2124 101.848 84.7661 102.045 83.3159 102.023C74.6102 101.844 65.9059 101.594 57.2019 101.32C53.185 101.19 49.1707 100.958 45.1565 100.772L45.1467 101.024Z" fill="black"/>
<path d="M64.6654 56.8169C70.1342 57.0186 75.6046 57.1792 81.0697 57.4538C82.29 57.5214 83.4875 57.8079 84.6054 58.2995C85.2916 58.5717 85.8649 59.0668 86.2331 59.7044C86.6007 60.3421 86.7418 61.085 86.6327 61.8125C86.5812 62.5454 86.288 63.2406 85.7976 63.7896C85.3073 64.3385 84.6484 64.7101 83.9237 64.8465C82.8352 65.0833 81.7278 65.2297 80.6146 65.2831C78.1602 65.3852 75.7012 65.3748 73.2448 65.447C65.0996 65.6857 56.9549 65.9869 48.8075 66.1476C47.2641 66.1932 45.7282 65.9173 44.2982 65.3371C43.5033 64.9822 42.8389 64.3899 42.3965 63.6423C41.9542 62.8947 41.7559 62.0286 41.8291 61.1639C41.9023 60.2991 42.2434 59.4784 42.8051 58.8152C43.3669 58.152 44.1216 57.679 44.9649 57.4617C46.0315 57.1513 47.1344 56.9819 48.2453 56.9581C53.7169 56.9086 59.1899 56.9354 64.6628 56.9354L64.6654 56.8169Z" fill="black"/>
</g>
<defs>
<clipPath id="clip0_8_2590">
<rect width="111" height="121" fill="white"/>
</clipPath>
</defs>
</svg>
