<svg width="90" height="74" viewBox="0 0 90 74" fill="none" xmlns="http://www.w3.org/2000/svg">
<g clip-path="url(#clip0_8_2585)">
<path d="M43.9816 65.583C53.926 65.7323 63.158 65.8449 72.3896 66.0231C76.014 66.0926 79.6372 66.249 83.259 66.491C84.6817 66.5675 86.0856 66.8519 87.4266 67.3345C88.3196 67.6492 89.0518 68.3056 89.4619 69.1601C89.8714 70.0146 89.9254 70.9966 89.6124 71.891C89.0197 73.7777 88.0052 74.1027 85.4614 73.9025C81.6319 73.602 77.7831 73.4469 73.9414 73.4206C55.6945 73.2964 37.4469 73.2719 19.2 73.1265C15.0292 73.093 10.8558 72.7906 6.69524 72.4682C5.27884 72.3286 3.89162 71.9753 2.58087 71.42C1.83442 71.1896 1.19358 70.7025 0.77174 70.0442C0.349906 69.3866 0.174342 68.6003 0.276256 67.8249C0.351372 67.0514 0.677291 66.3236 1.20429 65.7535C1.73129 65.1828 2.43043 64.8005 3.19485 64.6648C4.48653 64.3971 5.80574 64.2852 7.12402 64.3322C19.6469 64.733 32.1691 65.1757 43.9816 65.583Z" fill="black"/>
<path d="M35.6786 19.9307C50.5145 20.7827 65.3701 20.9049 80.1353 22.7086C81.3329 22.8547 82.5704 22.7298 83.7526 22.9396C84.9239 23.1468 86.2836 23.3406 87.1251 24.0542C87.9627 24.8577 88.4584 25.9532 88.5098 27.1132C88.5156 27.7346 88.2848 28.3347 87.8637 28.7918C87.4433 29.2489 86.8647 29.5284 86.2457 29.5738C84.5029 29.7831 82.7472 29.868 80.9922 29.8281C75.6096 29.5964 70.2346 29.0946 64.8507 28.9807C47.4744 28.6113 30.0954 28.3769 12.7151 28.0616C11.0678 28.0181 9.4246 27.8745 7.7947 27.6318C6.92864 27.4949 6.08873 27.2258 5.30424 26.8339C4.69195 26.5668 4.18149 26.11 3.84776 25.5309C3.51404 24.9518 3.37464 24.2808 3.45022 23.6166C3.528 22.2601 4.21525 21.1617 5.45083 20.8625C7.45637 20.337 9.51422 20.0372 11.5862 19.9686C19.6194 19.8721 27.65 19.9307 35.6786 19.9307Z" fill="black"/>
<path d="M68.0695 50.9392C63.1193 50.9392 58.1732 51.0113 53.2284 50.8974C51.5934 50.8427 49.9767 50.535 48.4358 49.9854C47.7166 49.76 47.0902 49.3063 46.6513 48.693C46.2124 48.0797 45.9848 47.3402 46.003 46.586C46.0211 45.8318 46.284 45.1039 46.7519 44.5125C47.2198 43.921 47.8672 43.4981 48.5965 43.3075C49.8402 42.8997 51.138 42.6809 52.4466 42.6582C62.6714 42.8332 72.8948 43.0655 83.1163 43.3551C84.2104 43.3948 85.2885 43.6347 86.2971 44.063C87.0313 44.333 87.6388 44.8669 88.0013 45.5609C88.3646 46.2549 88.4558 47.0591 88.2591 47.817C87.9731 49.4141 87.2678 50.0827 85.2113 50.1818C79.5015 50.4572 73.7858 50.6323 68.0728 50.844L68.0695 50.9392Z" fill="black"/>
<path d="M71.4265 8.10307C65.9462 7.79356 60.4641 7.51937 54.9876 7.14809C53.7912 7.05942 52.6158 6.78478 51.5039 6.33411C50.9134 6.14887 50.4158 5.74537 50.112 5.20574C49.8083 4.66611 49.7213 4.03089 49.8691 3.42942C50.1619 2.4142 50.8196 1.54331 51.7154 0.984248C52.8165 0.50399 54.0196 0.304974 55.2164 0.405104C58.945 0.543452 62.6734 0.791198 66.391 1.07497C71.7531 1.48809 77.112 1.94556 82.467 2.44747C83.5585 2.54753 84.6327 2.78959 85.662 3.16754C86.2077 3.36724 86.6725 3.7409 86.985 4.23094C87.2974 4.72098 87.4401 5.30028 87.3912 5.87954C87.3424 6.45879 87.1045 7.00588 86.7143 7.43662C86.3241 7.86737 85.804 8.15783 85.2325 8.2633C84.2663 8.44637 83.2802 8.50023 82.2992 8.42346C78.6773 8.2761 75.0587 8.0754 71.4387 7.89459L71.4265 8.10307Z" fill="black"/>
</g>
<defs>
<clipPath id="clip0_8_2585">
<rect width="90" height="74" fill="white"/>
</clipPath>
</defs>
</svg>
