<svg width="142" height="142" viewBox="0 0 142 142" fill="none" xmlns="http://www.w3.org/2000/svg">
<g clip-path="url(#clip0_6_2109)">
<path d="M137.903 63.2756C137.267 61.7945 136.312 60.4726 135.105 59.4048C133.898 58.3371 132.469 57.55 130.922 57.1002C129.238 56.611 127.467 56.4954 125.735 56.7615C124.001 57.0276 122.347 57.6688 120.888 58.6405C120.541 58.8669 120.202 59.1045 119.849 59.352L119.671 59.4761C118.755 57.4705 117.383 55.7058 115.666 54.3222C113.95 52.9386 111.933 51.974 109.779 51.5048C107.951 51.1471 106.065 51.2381 104.28 51.77C102.496 52.3019 100.867 53.2589 99.5337 54.5587C97.3514 51.3834 95.1362 49.673 92.5851 49.1873C89.9308 48.6819 86.9845 49.5364 83.5867 51.7988L83.563 51.6019C83.5171 51.2213 83.4823 50.9423 83.4639 50.6627C83.3057 48.2927 83.1614 45.9207 83.0163 43.5494C82.6954 38.2836 82.3646 32.8386 81.8736 27.4953C81.3545 21.8508 80.4953 15.3603 76.8467 9.71249C75.1402 7.06877 72.6462 5.50011 69.9992 5.40888C67.3521 5.31765 64.808 6.66774 62.9034 9.21565C61.919 10.5061 61.2597 12.0143 60.9805 13.6131C60.6379 15.9497 60.4689 18.3446 60.3055 20.6609C60.2274 21.7701 60.1495 22.8799 60.053 23.9865C58.8716 37.5182 59.4571 51.2633 60.0229 64.5561L60.0575 65.3916C60.11 66.6222 60.0963 67.8516 60.0825 69.1531C60.0779 69.5758 60.0732 70.003 60.0706 70.4388C59.9118 70.345 59.7586 70.2419 59.6114 70.1304C59.463 70.0122 59.323 69.8823 59.1826 69.753C58.993 69.5705 58.7924 69.3992 58.582 69.241C51.8618 64.3913 44.7262 62.698 37.368 64.2128C35.7939 64.5029 34.3172 65.1816 33.072 66.1871C31.8267 67.1932 30.8523 68.4935 30.2374 69.9715C29.6219 71.5152 29.4016 73.1882 29.5964 74.8389C29.7912 76.489 30.3953 78.0648 31.3533 79.4228C32.1454 80.5117 33.0546 81.5099 34.0645 82.3999C34.6336 82.9401 35.2223 83.4986 35.7467 84.0808C36.6912 85.131 37.6855 86.1719 38.647 87.1801C41.1309 89.6334 43.3933 92.3021 45.4075 95.1539C47.5331 98.5196 49.4652 102.004 51.1944 105.59C52.1605 107.5 53.1594 109.476 54.2062 111.383L54.3758 111.691C56.8698 116.233 59.4464 120.93 62.2733 125.369C63.6688 127.443 65.399 129.272 67.3928 130.78C71.4208 133.894 75.9055 136.366 80.6883 138.111C85.4533 139.949 90.5169 140.89 95.6246 140.885C101.511 140.829 107.34 139.713 112.83 137.591C116.577 136.189 120.015 133.747 123.499 131.159C129.501 126.696 133.585 120.12 136.353 110.46C139.741 98.7598 141.177 86.5802 140.602 74.4123C140.369 70.5695 139.455 66.7988 137.903 63.2756ZM71.6564 124.415C70.4803 123.622 69.4557 122.626 68.6294 121.472C66.5947 118.531 64.7091 115.489 62.9796 112.358C60.3792 107.53 57.8449 102.53 55.2346 97.0652C51.0951 88.4107 45.9064 81.741 39.3738 76.6754C39.2957 76.6176 39.2212 76.5546 39.1511 76.487C38.9542 76.2901 38.7575 76.0932 38.5547 75.8963C37.1521 74.5344 35.8269 73.2486 36.6591 71.1431C37.4539 69.138 39.4078 68.8046 41.4596 68.8046C41.5646 68.8046 41.6708 68.8046 41.7758 68.8046C47.8798 68.8964 52.7209 71.0026 56.1608 75.0634C57.5083 76.6537 58.2755 78.8045 59.0178 80.8884C59.7897 83.0543 60.6817 84.4694 62.5588 84.4241C64.2817 84.3716 65.6214 82.9598 66.0546 80.7387C66.1885 79.9406 66.2357 79.1307 66.1957 78.3228C66.1012 74.789 65.9811 71.256 65.8603 67.7229C65.6037 60.1691 65.3351 52.358 65.3351 44.6782C65.3351 37.3115 65.7054 29.8175 66.0644 22.5709C66.1648 20.5279 66.2633 18.4855 66.3591 16.4439C66.47 14.0227 67.0443 11.4334 70.4284 10.5211C72.5372 12.0307 73.8499 14.3521 74.4393 17.6214C75.2965 22.2368 75.8957 26.8964 76.235 31.5785C76.7102 38.5645 77.064 45.6785 77.4059 52.5582C77.5602 55.6452 77.717 58.732 77.8785 61.8185C77.9612 63.3773 78.3432 65.2263 80.5787 65.6909C82.6323 66.1129 83.7068 64.4852 84.558 62.6606C84.7169 62.3197 84.8751 61.9771 85.0326 61.6328C85.8596 59.6385 86.9025 57.7413 88.1443 55.9752C89.1787 54.6238 90.4841 53.968 91.7377 54.1794C93.0465 54.4006 94.1248 55.519 94.6965 57.2497C95.0798 58.6303 95.2905 60.0533 95.3233 61.4858C95.3522 61.9249 95.3804 62.3633 95.4185 62.7985C95.4487 63.3385 95.4336 63.8802 95.3719 64.4176C95.3423 64.7622 95.3134 65.1074 95.3062 65.4507C95.2675 67.1276 96.0827 68.1942 97.6034 68.4534C99.2443 68.735 100.389 68.0458 100.838 66.5185C100.926 66.2179 100.999 65.9121 101.072 65.6069C101.168 65.1575 101.293 64.7147 101.446 64.2811C101.635 63.7796 101.814 63.2723 101.994 62.7649C102.477 61.2751 103.083 59.828 103.805 58.4384C105.036 56.2337 106.529 55.6956 109.121 56.5193C111.902 57.4014 113.65 59.243 114.165 61.8454C114.349 62.9084 114.456 63.9832 114.487 65.0615C114.521 66.1063 114.62 67.1486 114.785 68.181C114.993 69.4235 115.6 70.5649 116.513 71.4325C116.742 71.634 117.012 71.7843 117.304 71.8716C117.597 71.9583 117.905 71.9812 118.207 71.9379C118.72 71.8231 119.205 71.6025 119.629 71.2901C120.052 70.9783 120.407 70.5819 120.669 70.1258C121.116 69.4616 121.528 68.7612 121.925 68.0839C122.512 67.0285 123.175 66.0171 123.91 65.0588C125.329 63.3064 126.963 62.446 128.496 62.6304C130.028 62.8148 131.388 64.031 132.336 66.0512C134.688 71.2501 135.557 76.9989 134.844 82.6612C134.016 90.4992 132.784 98.156 131.804 103.952C130.869 109.483 128.474 115.007 124.689 120.37C121.203 125.307 116.064 128.786 108.978 131.003C95.9192 135.101 83.7107 132.943 71.6564 124.415Z" fill="black"/>
<path d="M36.222 47.8469C36.0343 46.609 35.1116 45.4486 33.3999 44.298L33.262 44.2055C30.3304 42.2365 27.4033 40.2611 24.4813 38.2794C22.5871 36.9923 21.3731 36.5256 20.4122 36.7212C20.125 36.7866 19.8546 36.9113 19.6183 37.0871C19.3821 37.263 19.1852 37.4862 19.0402 37.7425C17.8739 39.5527 19.0844 41.0984 21.2595 42.862C22.3556 43.7506 23.4713 44.6098 24.763 45.6048L25.9568 46.5237C22.4246 46.4402 18.9373 45.7144 15.665 44.382C10.5422 42.1964 7.71586 38.0471 7.26364 32.0501C6.75695 25.3588 9.30741 19.155 14.8417 13.607C19.6684 8.77178 25.7415 6.63934 31.9478 7.59956C35.071 8.10212 38.0321 9.33236 40.592 11.1908C43.1519 13.0493 45.2388 15.4839 46.684 18.2979C47.2241 19.3434 47.6903 20.4572 48.1406 21.5343C48.4162 22.1952 48.6932 22.8568 48.9879 23.5085C49.3994 24.4163 50.2505 26.3052 52.3311 25.8976C53.9509 25.5786 54.7709 24.388 54.8391 22.2516C54.8566 21.6673 54.8125 21.0828 54.7077 20.5077C53.6209 14.4753 49.7162 8.76719 43.9949 4.84751C38.2736 0.92786 31.5497 -0.646706 25.5369 0.520263C13.2378 2.90145 5.07228 10.6555 1.26815 23.5663C-0.683146 30.1861 0.168832 37.0468 3.60411 42.3907C7.08663 47.8075 12.7653 51.2171 20.0263 52.2515L25.2578 52.9919C24.8161 53.4855 24.3935 53.9553 23.9846 54.4089C22.8425 55.6776 21.8562 56.7717 20.8743 57.919C18.9302 60.1866 18.4458 62.3066 19.618 63.4513C20.1162 63.9211 20.7797 64.1751 21.4643 64.1581C22.5368 64.1581 23.8474 63.6206 25.1876 62.2606C28.6001 58.8465 31.8373 55.2616 34.8869 51.5197C35.958 50.1893 36.3953 48.9863 36.222 47.8469Z" fill="black"/>
</g>
<defs>
<clipPath id="clip0_6_2109">
<rect width="141.113" height="141.113" fill="white"/>
</clipPath>
</defs>
</svg>
