<svg width="117" height="110" viewBox="0 0 117 110" fill="none" xmlns="http://www.w3.org/2000/svg">
<g clip-path="url(#clip0_8_2594)">
<path d="M105.921 94.5722C106.432 76.0663 102.207 58.5956 93.7943 42.1474C88.3642 31.3274 80.9919 21.5876 72.0408 13.4084C69.0209 10.6785 65.5115 8.48299 62.2173 6.05525C61.5927 5.59519 60.7041 5.3298 60.3323 4.73127C59.7915 3.86551 59.1539 2.63741 59.4061 1.82535C59.6355 1.36528 59.9767 0.969533 60.3987 0.674041C60.8207 0.378553 61.3103 0.192683 61.8228 0.133301C63.6545 0.209007 65.7475 0.408255 67.2262 1.34843C71.6072 4.13467 76.0812 6.93264 79.9149 10.3892C96.4476 25.2988 106.792 43.9845 112.577 65.2559C115.743 76.921 117.064 89.0055 116.494 101.076C116.435 102.84 116.139 104.589 115.614 106.275C115.296 107.35 114.62 108.285 113.697 108.926C112.775 109.568 111.661 109.878 110.538 109.805C108.347 109.61 106.58 107.974 106.058 105.509C105.927 104.636 105.883 103.752 105.928 102.871C105.912 100.105 105.921 97.3383 105.921 94.5722Z" fill="black"/>
<path d="M90.6855 100.191C90.7687 101.622 90.7576 103.056 90.6517 104.486C90.5197 105.654 89.9932 106.744 89.1593 107.577C88.3253 108.409 87.2327 108.936 86.0594 109.071C83.9541 109.265 81.8617 107.873 81.0544 105.478C80.6683 104.215 80.4525 102.908 80.4122 101.589C79.7622 90.16 77.8662 79.0105 73.6919 68.2622C66.9163 50.8173 54.7671 38.0631 39.0995 28.2796C38.1622 27.6972 37.0573 27.1945 36.4242 26.3591C35.8275 25.5729 35.2743 24.2153 35.5701 23.4356C35.8051 22.9135 36.1533 22.4496 36.5898 22.0774C37.0263 21.7052 37.5403 21.4339 38.0947 21.2829C39.5111 21.1117 40.9471 21.3466 42.2339 21.9603C44.6323 23.1107 46.9481 24.4247 49.1648 25.8926C56.5423 30.6809 63.5675 35.9336 69.1984 42.7582C79.1337 54.7577 85.7929 69.1047 88.5333 84.4134C89.4986 89.6248 90.0933 94.9042 90.8584 100.152L90.6855 100.191Z" fill="black"/>
<path d="M17.5656 106.741C13.912 106.836 10.3191 105.798 7.28391 103.772C1.5132 100.026 -0.749499 93.8172 1.30385 87.2949C2.60612 83.1395 5.1347 79.4707 8.56051 76.7653C10.0939 75.468 11.914 74.5504 13.872 74.0878C15.8299 73.6251 17.8701 73.6303 19.8256 74.1033C21.9901 74.575 24.204 74.8325 26.3594 75.3398C32.4382 76.7705 35.3022 79.8207 36.1654 85.982C36.8739 90.5127 35.9948 95.1489 33.6758 99.1108C30.5766 104.386 25.5743 106.764 17.5656 106.741ZM28.5902 89.4412C28.5453 85.1182 27.3682 83.5316 23.1711 82.2537C21.4733 81.736 19.7366 81.3478 18.0362 80.8347C13.6097 79.4965 12.9311 79.6848 10.3552 83.5251C9.55325 84.7177 8.88492 85.9937 8.36219 87.3311C6.13661 93.0789 8.57994 97.6892 14.6262 99.1076C16.1339 99.4835 17.6885 99.6408 19.2413 99.5728C25.5073 99.1814 28.6539 95.6995 28.5902 89.4412Z" fill="black"/>
<path d="M52.4549 96.6649C52.5972 88.3153 49.9673 80.152 44.9735 73.442C39.9314 66.5728 34.0535 60.6306 26.4238 56.6149C24.6688 55.6909 22.7799 55.0121 20.9423 54.2447C18.7544 53.3304 17.8938 52.0214 18.3605 50.2556C18.7869 48.6437 20.0862 47.7068 22.2826 48.009C24.3763 48.2398 26.4228 48.7852 28.3523 49.6266C47.0508 58.4971 58.9537 72.5931 61.9314 93.4238C62.2312 95.3896 62.4083 97.3722 62.4617 99.3593C62.4683 100.568 62.2621 101.768 61.8526 102.906C61.5655 103.811 60.9903 104.599 60.2139 105.149C59.4375 105.7 58.5021 105.985 57.549 105.96C56.5923 105.99 55.653 105.7 54.8807 105.138C54.1085 104.575 53.5479 103.771 53.2883 102.853C52.767 100.85 52.711 98.731 52.4549 96.6649Z" fill="black"/>
</g>
<defs>
<clipPath id="clip0_8_2594">
<rect width="117" height="110" fill="white"/>
</clipPath>
</defs>
</svg>
