<svg width="162" height="160" viewBox="0 0 162 160" fill="none" xmlns="http://www.w3.org/2000/svg">
<g clip-path="url(#clip0_6_1759)">
<path d="M59.6265 115.141C56.6172 114.862 53.9521 114.661 51.2999 114.346C50.303 114.23 49.3291 113.965 48.4117 113.558C46.9093 112.88 46.0735 111.485 46.6209 110C46.8471 109.411 47.1895 108.873 47.6278 108.42C48.0661 107.966 48.5912 107.605 49.1719 107.359C50.8331 106.851 52.711 107.044 54.4976 106.953C56.168 106.869 57.8393 106.803 59.8989 106.711V95.5537C58.4359 95.5852 56.9729 95.4893 55.5263 95.2688C53.3788 94.7812 51.0917 94.3191 49.2527 93.2053C46.5715 91.5815 46.6037 88.5085 49.2802 86.8933C51.1417 85.9003 53.156 85.2249 55.2398 84.8947C56.7343 84.5876 58.3423 84.835 60.3546 84.835C60.3546 83.3012 60.3402 82.1053 60.3546 80.9095C60.5213 69.0127 60.6668 57.1152 60.8867 45.2191C60.926 43.0939 61.2687 40.9746 61.484 38.8527C61.7314 36.4144 63.053 35.0729 65.488 34.5865C74.6563 32.7527 83.7741 33.1183 92.8907 34.9521C99.7612 36.3343 106.378 38.2541 112.089 42.5944C124.262 51.8488 126.463 70.0261 116.586 81.4496C111.542 87.2832 104.792 90.4716 97.3885 91.7994C89.1246 93.2821 80.7294 94.031 72.39 95.0949C71.6194 95.1933 70.841 95.2334 69.8361 95.3207V106.627C73.3055 106.337 76.813 105.97 80.3297 105.783C81.9876 105.659 83.6547 105.77 85.2817 106.111C87.3453 106.597 88.4578 108.211 88.5634 110.308C88.6599 111.218 88.4538 112.134 87.9773 112.914C87.5008 113.696 86.7802 114.297 85.9269 114.627C84.2664 115.256 82.5061 115.582 80.73 115.588C77.1582 115.595 73.5851 115.296 69.5592 115.1C69.3872 118.054 69.2684 120.81 69.0512 123.559C68.9809 125.009 68.7643 126.449 68.406 127.857C67.7346 130.175 65.9388 131.645 64.0889 131.408C62.0214 131.146 60.4977 129.978 60.1354 127.84C59.8446 125.967 59.6781 124.077 59.6368 122.181C59.5652 119.86 59.6265 117.536 59.6265 115.141ZM69.6202 84.7359C80.8239 84.4077 91.5721 84.1629 101.861 80.5124C104.16 79.6329 106.319 78.4246 108.272 76.9255C109.875 75.769 111.216 74.289 112.21 72.5805C113.204 70.8727 113.827 68.9746 114.039 67.0095C114.978 58.9044 112.486 51.9702 105.367 47.6088C101.611 45.3077 97.2848 43.7989 93.0521 42.4422C85.2804 39.9521 77.2613 39.5136 68.593 40.5001C68.9324 55.1214 69.2697 69.6447 69.6202 84.7333V84.7359Z" fill="black"/>
<path d="M160.792 73.1401C158.945 56.9336 152.439 41.6104 142.063 29.0254C133.511 18.5312 124.311 11.0523 113.938 6.16911C105.844 2.26949 96.9778 0.238859 87.9939 0.227295C85.2333 0.231794 82.4761 0.411929 79.7391 0.766739C68.3477 2.24416 56.8014 5.54887 43.414 11.1737C25.3057 18.7872 12.6974 31.8713 5.94957 50.0538C1.21637 62.5397 -0.607841 75.9407 0.615548 89.2374C2.03849 104.176 5.6329 115.753 11.9245 125.664C21.0161 139.972 32.4683 149.391 46.9419 154.456C55.7158 157.531 65.3731 159.075 77.3238 159.318C84.3584 159.318 90.9074 158.469 97.2404 157.646L98.4408 157.491C112.267 155.703 124.008 150.713 134.342 142.249C144.059 134.434 151.414 124.074 155.586 112.324C160.534 98.2896 162.235 85.4687 160.792 73.1401ZM144.47 117.7C136.647 133.542 123.489 143.935 105.346 148.588C103.168 149.148 100.915 149.552 98.5347 149.978C97.3533 150.186 96.12 150.409 94.8251 150.658C89.1805 151.508 81.567 151.637 77.3711 151.637C75.5031 151.637 74.3092 151.609 74.2758 151.609C63.2555 151.478 53.7732 149.606 45.2952 145.891C33.999 140.94 24.9685 132.584 17.6976 120.35C13.3074 112.972 10.5221 104.237 8.93707 92.867C6.90367 78.4032 8.68176 63.6595 14.0961 50.0945C19.7951 35.6413 30.0452 24.6758 44.5601 17.506C47.912 15.8474 61.5358 11.8543 65.1168 11.1264C70.1592 10.1201 75.2721 9.50458 80.4092 9.28536C100.729 8.79967 108.756 12.0702 121.168 21.5464C134.164 31.467 143.323 43.9367 148.394 58.6059C155.281 78.5896 153.966 98.4714 144.47 117.7Z" fill="black"/>
</g>
<defs>
<clipPath id="clip0_6_1759">
<rect width="161.459" height="159.49" fill="white"/>
</clipPath>
</defs>
</svg>
