<svg width="162" height="160" viewBox="0 0 162 160" fill="none" xmlns="http://www.w3.org/2000/svg">
<g clip-path="url(#clip0_6_1762)">
<path d="M89.5105 64.9636C85.8869 64.9636 82.7942 64.9636 79.7015 64.9636C76.4454 64.9636 73.188 65.0253 69.9333 64.9544C68.8365 64.9302 67.5494 64.8744 66.7067 64.3047C65.8069 63.6956 64.8111 62.4611 64.8144 61.5028C64.8177 60.5446 65.82 59.2522 66.7369 58.7507C67.8435 58.1456 69.315 58.0833 70.6395 58.0236C76.8091 57.7453 82.9786 57.5549 89.1482 57.3127C89.794 57.2541 90.4359 57.1593 91.0713 57.0286C91.0227 51.6775 88.9054 48.9615 83.927 47.9395C82.3886 47.6369 80.8245 47.4798 79.2565 47.4703C71.5118 47.3633 63.767 47.358 56.0182 47.236C53.6628 47.1761 51.3119 46.9976 48.9745 46.7011C48.6056 46.6882 48.243 46.601 47.9085 46.445C47.5741 46.2891 47.2745 46.0673 47.0276 45.793C46.7806 45.5188 46.5914 45.1976 46.4712 44.8486C46.351 44.4997 46.3023 44.1302 46.3279 43.762C46.2964 41.9472 47.4614 41.1819 49.0084 40.8334C49.6699 40.7125 50.342 40.6579 51.0143 40.6706C65.6051 40.3888 80.1964 40.1083 94.7888 39.8292C96.8064 39.7885 98.8213 39.6001 100.839 39.501C102.968 39.3947 105.102 39.1965 107.229 39.2458C110.064 39.3114 111.682 40.6155 111.846 42.6888C112.018 44.862 110.709 46.3591 107.883 46.7805C105.45 47.1434 102.975 47.2517 100.513 47.383C98.8791 47.4703 97.2369 47.3994 95.4799 47.3994C96.6679 50.6719 97.7246 53.5827 98.9066 56.8375C101.138 56.6918 103.458 56.4529 105.784 56.4135C108.008 56.3343 110.236 56.4221 112.446 56.6761C114.338 56.9308 115.322 58.3984 115.436 60.2519C115.549 62.0896 114.787 63.7494 112.966 64.2154C110.502 64.8455 107.879 65.5497 105.411 65.3161C100.704 64.8698 97.338 65.4001 95.1452 70.5354C93.8929 73.4698 90.6926 75.8077 87.9346 77.8207C81.7782 82.3094 74.6366 84.6945 67.2705 86.4187C66.0714 86.699 64.8697 86.9674 63.1678 87.356C64.2271 88.1613 64.9398 88.7999 65.7425 89.2994C77.5205 96.6917 89.3057 104.074 101.097 111.447C101.584 111.726 102.054 112.034 102.507 112.366C104.55 113.99 105.164 116.391 104.056 118.313C102.947 120.235 100.517 120.863 98.1158 119.822C97.6084 119.584 97.1221 119.303 96.6633 118.98C83.9185 110.591 71.1527 102.234 58.4558 93.7723C55.9363 92.0882 53.5679 90.1887 51.3777 88.0944C47.8696 84.7411 49.0103 80.637 53.7826 79.6118C58.816 78.5302 63.9637 77.9861 69.0032 76.9287C74.6162 75.746 79.9437 73.4744 84.6825 70.242C86.7342 68.9451 88.4013 67.1224 89.5105 64.9636Z" fill="black"/>
<path d="M160.918 73.1401C159.071 56.9336 152.565 41.6104 142.189 29.0254C133.637 18.5312 124.438 11.0523 114.065 6.16911C105.971 2.26949 97.1045 0.238859 88.1199 0.227295C85.36 0.231794 82.6028 0.411929 79.8652 0.766739C68.4738 2.24416 56.9273 5.54887 43.54 11.1737C25.4317 18.7872 12.8233 31.8713 6.07555 50.0538C1.34235 62.5397 -0.481863 75.9407 0.741524 89.2374C2.16446 104.176 5.7592 115.753 12.0508 125.664C21.1424 139.972 32.5943 149.391 47.0678 154.456C55.8418 157.531 65.4998 159.075 77.4505 159.318C84.4851 159.318 91.0334 158.469 97.3664 157.646L98.5669 157.491C112.393 155.703 124.135 150.713 134.469 142.249C144.186 134.434 151.541 124.074 155.713 112.324C160.661 98.2896 162.361 85.4687 160.918 73.1401ZM144.596 117.7C136.773 133.542 123.615 143.935 105.473 148.588C103.294 149.148 101.042 149.552 98.6614 149.978C97.48 150.186 96.2467 150.409 94.9518 150.658C89.3072 151.508 81.6937 151.637 77.4978 151.637C75.6298 151.637 74.4359 151.609 74.4025 151.609C63.3818 151.478 53.8998 149.606 45.4219 145.891C34.1256 140.94 25.0952 132.584 17.8242 120.35C13.434 112.972 10.6484 104.237 9.06338 92.867C7.02998 78.4032 8.80833 63.6595 14.2227 50.0945C19.9217 35.6413 30.1718 24.6758 44.6867 17.506C48.0386 15.8474 61.6621 11.8543 65.2431 11.1264C70.2859 10.1201 75.3988 9.50458 80.5359 9.28536C100.856 8.79967 108.882 12.0702 121.295 21.5464C134.29 31.467 143.449 43.9367 148.521 58.6059C155.408 78.5896 154.092 98.4714 144.596 117.7Z" fill="black"/>
</g>
<defs>
<clipPath id="clip0_6_1762">
<rect width="161.459" height="159.49" fill="white"/>
</clipPath>
</defs>
</svg>
