<svg width="159" height="155" viewBox="0 0 159 155" fill="none" xmlns="http://www.w3.org/2000/svg">
<path d="M87.0496 92.1144C97.4547 92.0961 106.031 94.1539 114.101 98.2039C115.842 98.9818 117.394 100.128 118.65 101.564C119.445 102.595 119.88 104.835 119.281 105.77C118.572 106.876 116.555 107.714 115.151 107.656C113.472 107.588 111.73 106.626 110.203 105.73C98.3532 98.7781 85.7421 97.9765 72.6691 101.014C65.708 102.632 60.2427 106.653 55.7404 112.085C55.2379 112.691 54.7924 113.346 54.2913 113.952C53.241 115.217 52.226 117.226 50.29 115.907C48.394 114.617 48.8646 112.482 49.919 110.76C54.3502 103.515 60.4371 98.233 68.5107 95.3464C74.4861 93.317 80.74 92.2267 87.0496 92.1144Z" fill="black"/>
<path d="M53.5919 77.9848C49.0212 77.7735 44.9035 76.2539 41.7818 72.5709C40.4634 71.0135 39.4233 69.1331 41.1886 67.4849C42.9032 65.8834 44.4159 67.2196 45.7932 68.5948C51.5409 74.3303 58.9658 72.5493 61.6852 64.8319C62.0597 63.7701 62.407 62.6968 62.8364 61.6587C63.5135 60.0261 64.8292 58.8106 66.4862 59.565C67.0807 59.9008 67.5931 60.3646 67.9866 60.9226C68.3801 61.4806 68.6447 62.1189 68.7614 62.7916C68.981 64.9354 68.6595 67.0999 67.8264 69.0873C66.9932 71.0747 65.675 72.8215 63.9922 74.1678C61.0297 76.6644 57.5417 77.7593 53.5919 77.9848Z" fill="black"/>
<path d="M105.198 73.2062C102.542 72.9607 99.9846 72.0778 97.7428 70.6326C95.5009 69.1875 93.6409 67.2228 92.3208 64.9052C91.4623 63.3315 91.0635 61.5482 91.1696 59.7588C91.2177 58.7566 92.4934 57.1856 93.411 57.0353C94.2682 56.8918 95.9164 58.0781 96.2787 59.0335C97.2341 61.56 98.4781 63.6646 100.845 65.0745C105.001 67.5488 107.68 66.8349 109.883 62.5689C111.661 59.129 113.379 57.9738 115.365 58.8852C117.221 59.7378 117.66 62.1613 116.575 65.564C115.059 70.327 111.193 73.171 105.198 73.2062Z" fill="black"/>
<path d="M40.7852 51.9941C38.7588 50.9986 36.7961 49.8786 34.9083 48.6403C34.399 48.2713 34.4133 46.7334 34.7011 45.9114C34.8365 45.5322 36.3262 45.245 36.9885 45.4928C43.5818 47.9698 48.4559 44.7202 53.0463 40.7169C54.383 39.5508 55.3141 37.9291 56.4862 36.5632C57.6374 35.2232 59.0242 33.9901 60.82 35.209C62.5772 36.4041 62.0592 38.246 61.2737 39.7723C58.0951 45.9478 52.5974 48.9897 46.1428 50.6149C44.5136 51.0252 42.8248 51.189 41.161 51.4666C41.0351 51.6422 40.9098 51.8181 40.7852 51.9941Z" fill="black"/>
<path d="M111.353 48.0125C105.376 47.5913 100.478 45.6343 96.7262 41.3047C95.8658 40.4188 95.2351 39.336 94.8891 38.1505C94.7049 37.2486 95.1051 35.7242 95.7735 35.2928C96.4418 34.8615 98.2383 35.0802 98.7116 35.6741C102.639 40.6023 107.877 41.8085 113.794 41.5654C115.541 41.4936 117.354 42.0069 117.475 44.1954C117.586 46.2133 116.128 47.1749 114.336 47.5744C113.245 47.8182 112.12 47.9041 111.353 48.0125Z" fill="black"/>
<path d="M2.80591 55.9065C-4.20391 83.4576 1.93443 107.762 21.0632 128.155C21.5615 128.682 22.0687 129.208 22.5766 129.716C32.8516 139.991 45.6504 146.335 55.792 150.75C60.144 152.651 82.4784 154.959 88.5205 154.06C124.432 148.697 148.064 128.442 156.295 94.5566C157.867 87.9189 158.649 81.1189 158.627 74.2977C158.666 58.229 151.899 39.5479 137.947 25.5567C136.511 24.369 135.079 23.1386 133.695 21.9461C130.693 19.3655 127.59 16.6936 124.344 14.415C99.5459 -3.03844 73.7811 -3.1361 47.7664 6.11914C24.2126 14.4934 9.08645 31.2475 2.80591 55.9065ZM47.8673 14.3689C70.6926 4.8841 93.5944 3.21019 115.931 17.4161C120.015 20.0163 130.903 28.8166 132.618 30.1384L132.727 30.2195L132.819 30.3205C141.533 39.5616 151.511 56.4584 151.291 73.8279C151.219 81.2548 150.214 88.6431 148.299 95.8195C142.625 116.443 129.06 131.473 106.829 141.752C84.2288 152.574 51.8178 141.634 43.1944 135.941C33.6627 129.425 25.3227 121.318 18.5388 111.975C7.89942 96.9118 5.5118 75.2593 11.2256 55.4656C13.9015 46.3262 18.5777 37.8969 24.9151 30.7887C31.2525 23.6805 39.0923 18.0717 47.866 14.3689H47.8673Z" fill="black"/>
</svg>
