<svg width="159" height="158" viewBox="0 0 159 158" fill="none" xmlns="http://www.w3.org/2000/svg">
<g clip-path="url(#clip0_6_1914)">
<path d="M131.055 138.864C131.511 142.568 132.045 145.989 132.324 149.431C132.628 153.172 130.88 155.38 127.326 155.69C120.73 156.265 114.119 156.674 107.513 157.144C107.066 157.175 106.615 157.155 106.165 157.152C101.326 157.114 99.7091 155.42 99.822 150.641C99.8876 147.835 99.8449 145.028 99.8325 142.221C99.8088 141.81 99.759 141.401 99.6835 140.996H54.5155C54.7301 142.608 54.9546 143.779 55.0281 144.961C55.266 147.301 55.3517 149.655 55.2847 152.006C55.095 154.791 53.403 156.474 50.7475 156.491C44.1244 156.535 37.4894 156.569 30.8795 156.248C26.1696 156.02 25.2099 154.554 25.353 149.751C25.439 146.837 25.3688 143.918 25.3688 140.589C23.0638 140.288 20.7743 139.987 18.4896 139.69C14.9021 139.222 11.4584 138.377 8.30137 136.469C6.88716 135.66 5.65466 134.568 4.68045 133.261C3.70624 131.955 3.01119 130.462 2.63853 128.876C0.878442 121.555 0.0623663 114.039 0.21011 106.51C0.305279 94.7233 0.603788 82.9374 0.755405 71.1503C0.945743 56.2274 1.04026 41.3022 1.24766 26.379C1.32839 20.5973 3.50753 15.4674 6.52143 10.6269C9.6338 5.62758 14.3974 3.32581 19.9717 2.75085C26.6664 2.06367 33.3958 1.52229 40.1213 1.37264C50.3378 1.14949 60.5656 1.46915 70.7843 1.28275C80.6622 1.10291 90.5328 0.3316 100.409 0.262028C112.752 0.174735 125.103 0.415604 137.441 0.795624C140.4 0.886855 143.384 1.90037 146.25 2.82056C148.036 3.3722 149.649 4.37634 150.931 5.73562C152.214 7.0949 153.124 8.76298 153.571 10.5777C155.166 16.1999 156.52 21.8962 156.425 27.7875C156.234 39.5727 155.703 51.3566 155.745 63.1392C155.777 73.0116 156.353 82.8849 156.808 92.7523C157.195 101.153 158.359 109.516 157.19 117.955C156.451 123.447 153.966 128.555 150.102 132.526C147.28 135.505 143.549 136.776 139.636 137.514C136.799 138.046 133.933 138.416 131.055 138.864ZM118.318 133.2C125.023 132.846 131.707 131.815 138.362 130.85C143.311 130.133 146.413 126.987 147.657 122.235C148.436 119.543 148.854 116.76 148.899 113.958C148.793 105.881 148.497 97.8074 148.008 89.7358C147.352 78.8484 147.357 67.9775 147.731 57.0787C148.124 45.6394 148.107 34.1843 148.157 22.7358C148.165 20.8548 147.629 18.9658 147.296 17.0913C146.467 12.4188 143.818 9.71395 138.951 9.3615C137.613 9.26436 136.292 8.86012 134.957 8.81943C126.206 8.55295 117.449 8.06267 108.704 8.17622C85.2316 8.48253 61.7622 8.95463 38.2959 9.59259C32.0338 9.76587 25.7927 10.8043 19.5496 11.5111C16.1367 11.8971 13.7576 13.8804 12.3051 16.8852C10.25 21.0208 9.11089 25.5509 8.96558 30.1667C8.7444 39.0234 8.41485 47.8782 8.25536 56.7361C7.95279 73.5787 7.59902 90.423 7.56489 107.267C7.55308 112.846 8.47864 118.43 8.9197 124.015C9.33713 129.3 12.3037 132.082 17.3943 132.872C18.2803 133.009 19.1519 133.286 20.0406 133.349C26.5305 133.809 33.0185 134.476 39.5162 134.606C49.9553 134.814 102.511 134.032 118.318 133.2ZM123.15 139.421L105.51 140.572L106.889 149.765L123.152 148.699L123.15 139.421ZM47.4927 150.155C47.3195 146.939 47.171 144.2 47.0056 141.137H30.4186C30.7219 144.185 31.0028 147.005 31.2851 149.842C32.0799 149.985 32.8817 150.085 33.6872 150.143C38.1332 150.165 42.5801 150.155 47.4927 150.155Z" fill="black"/>
<path d="M102.914 74.4355C101.963 78.0756 101.42 81.5489 100.125 84.7144C98.873 87.7723 96.8475 90.5138 95.0577 93.575C95.758 94.3363 96.3947 95.1535 96.9611 96.0192C97.6456 97.0352 98.1025 98.1871 98.3 99.396C98.3604 100.044 98.2317 100.696 97.9298 101.272C97.6286 101.848 97.1665 102.325 96.5994 102.644C96.033 102.963 95.3859 103.112 94.7368 103.071C94.087 103.03 93.4635 102.802 92.941 102.415C91.2831 101.223 90.1188 99.3481 88.7595 97.8123L72.1594 102.268C72.1594 102.774 72.1377 103.637 72.1653 104.5C72.1909 105.288 72.2828 106.067 72.3215 106.851C72.5118 110.653 71.0003 113.028 68.3119 113.169C65.5593 113.312 63.8088 110.834 63.8488 106.867C63.8633 105.308 63.8488 103.75 63.8488 101.841C57.8978 100.982 51.9495 99.9526 46.5498 96.3644C45.0868 97.7545 43.6953 99.1775 42.1922 100.471C41.1407 101.467 39.9521 102.307 38.6625 102.965C38.0064 103.316 37.2488 103.426 36.5201 103.278C35.7914 103.129 35.1374 102.731 34.6706 102.152C34.1636 101.611 33.8558 100.913 33.7979 100.173C33.7401 99.4341 33.9357 98.6964 34.3524 98.0827C35.0787 96.9623 35.9455 95.9391 36.9318 95.038C38.0902 93.995 39.4363 93.1608 40.7733 92.1822C39.3011 89.5484 37.632 87.0556 36.4703 84.3449C35.3375 81.7005 34.7225 78.8317 33.8036 75.8125C32.1161 75.9057 30.2476 76.0895 28.379 76.0829C27.0385 76.056 25.7029 75.911 24.3878 75.6497C23.7625 75.5848 23.1845 75.2874 22.7686 74.8155C22.3527 74.3443 22.1292 73.7339 22.1425 73.1051C22.0749 72.4199 22.2808 71.7347 22.7155 71.1998C23.1503 70.6655 23.7787 70.3242 24.4639 70.25C26.7755 69.8188 29.1272 69.6029 31.4651 69.3194C32.2363 69.2255 33.0174 69.2058 34.1561 69.1264C35.3671 62.4715 37.6814 56.2349 42.2829 51.0774C41.0215 49.7805 39.8741 48.5906 38.715 47.4138C37.9274 46.6143 37.0617 45.8838 36.3403 45.0305C34.8931 43.3208 34.7574 41.7305 35.843 40.4893C36.899 39.2823 38.7255 39.088 40.4189 40.3797C42.722 42.1374 44.8425 44.1354 47.3058 46.2579C52.7645 41.8204 59.6626 40.4047 66.5319 38.0753C66.6317 36.6681 66.7052 35.2413 66.8417 33.8203C66.9802 32.3705 66.9146 30.8195 67.4423 29.5167C67.8361 28.5433 68.9788 27.3409 69.8852 27.2543C70.808 27.1657 72.1121 28.1193 72.7645 28.9824C73.3789 29.7956 73.4458 31.0742 73.604 32.1696C73.8409 33.8196 73.9473 35.488 74.1291 37.3815C81.0862 37.5377 86.8659 40.2359 91.9158 44.764C92.626 44.1536 93.2324 43.6732 93.7903 43.1416C94.4394 42.5227 95.0308 41.8433 95.6733 41.2165C98.3407 38.6141 100.99 38.091 102.757 39.8014C104.635 41.6182 104.038 44.2744 101.072 47.012C99.7663 48.2177 98.3781 49.3354 97.3148 50.2471C100.344 55.1559 103.353 59.6938 103.364 68.4668C103.922 68.4386 105.102 68.3139 106.28 68.3355C107.948 68.3349 109.615 68.4346 111.272 68.6335C111.956 68.7149 112.583 69.0516 113.03 69.576C113.477 70.0997 113.71 70.7731 113.682 71.461C113.739 72.1482 113.538 72.8321 113.119 73.3788C112.7 73.9262 112.092 74.2983 111.414 74.4224C109.772 74.6994 108.108 74.8228 106.443 74.7926C105.261 74.7401 104.083 74.6213 102.914 74.4355ZM66.3751 95.0248C74.0332 94.8522 79.5333 93.9484 84.7368 91.6001C86.9178 90.6759 88.8599 89.2661 90.4148 87.4796C91.9703 85.6924 93.0979 83.5744 93.7122 81.2864C96.2949 72.3221 94.8667 63.8937 89.805 56.1876C86.9611 51.8558 78.9499 43.0044 63.0415 45.8621C62.1638 45.9804 61.3022 46.1976 60.4732 46.5093C49.1291 51.4417 42.8223 60.0535 42.036 72.4219C41.4138 82.2184 47.0314 90.3104 56.44 93.1116C60.2744 94.251 64.3299 94.6448 66.377 95.0248H66.3751Z" fill="black"/>
<path d="M139.826 75.5059C139.826 81.7851 139.81 88.0642 139.834 94.3428C139.844 97.1729 139.021 98.5289 136.289 99.2541C134.456 99.7661 132.565 100.047 130.662 100.09C126.776 100.116 123.396 96.6642 123.23 92.4217C123.104 89.18 123.333 85.9239 123.467 82.6744C123.807 74.4984 124.181 66.3231 124.546 58.1485C124.596 57.0288 124.756 55.9071 124.714 54.792C124.596 51.6416 126.624 49.9876 130.157 49.7815C131.942 49.6771 133.744 49.8208 135.536 49.8858C137.964 49.9731 138.735 50.5232 139.08 53.0022C139.448 55.6654 139.659 58.3482 139.712 61.0363C139.809 65.8577 139.74 70.6844 139.74 75.5046L139.826 75.5059ZM131.121 91.491C133.348 91.8008 133.3 90.6942 133.32 89.6677C133.533 78.4561 133.738 67.2432 133.936 56.0311C133.891 55.4729 133.795 54.9201 133.648 54.3799H130.522C130.724 66.875 130.922 79.1479 131.121 91.4943V91.491Z" fill="black"/>
<path d="M52.2801 70.5565C52.3149 67.9102 52.9787 65.3095 54.2169 62.97C55.455 60.6305 57.2318 58.6191 59.4006 57.1018C60.8735 56.1004 62.5853 55.5069 64.3619 55.3814C66.9381 55.2406 69.5215 55.3691 72.0707 55.7647C81.1603 57.0157 85.7311 66.2779 81.1938 74.2734C77.6036 80.6031 71.6493 82.4041 64.8751 82.2387C61.9317 82.1901 59.0712 81.2549 56.6669 79.5562C53.5644 77.3601 52.2368 74.3029 52.2801 70.5565ZM65.4933 75.3852C67.857 75.4581 70.1818 74.7676 72.1225 73.4162C75.695 70.6071 75.126 65.6184 70.8814 64.1036C68.4917 63.2503 65.8795 63.0009 63.3537 62.5591C62.7981 62.4378 62.2174 62.5225 61.7196 62.7973C61.2217 63.0721 60.8406 63.5184 60.6471 64.053C60.1872 64.9465 59.7727 65.8624 59.4053 66.7977C57.5807 72.1974 59.8226 75.3386 65.4933 75.3819V75.3852Z" fill="black"/>
</g>
<defs>
<clipPath id="clip0_6_1914">
<rect width="158.177" height="157.521" fill="white"/>
</clipPath>
</defs>
</svg>
