<svg width="155" height="136" viewBox="0 0 155 136" fill="none" xmlns="http://www.w3.org/2000/svg">
<path d="M88.0039 135.221C59.4087 134.858 38.8607 134.655 18.3154 134.286C14.7265 134.21 11.155 133.765 7.65709 132.959C2.42871 131.764 0.240479 128.966 0.240479 123.625C0.252293 108.582 0.357964 93.5392 0.557491 78.4966C0.718948 67.6113 1.12785 56.7295 1.46652 45.8468C1.58269 42.1188 3.17891 40.3761 6.95875 39.9817C9.29071 39.7388 11.8813 40.3702 13.9409 39.5577C15.9873 38.751 17.3985 36.4671 19.2881 35.1078C33.7931 24.6721 49.1094 15.5356 64.7559 6.93499C66.6217 5.90916 68.4969 4.88651 70.2795 3.72479C76.3224 -0.213237 82.7932 -0.842681 89.5876 1.18212C91.2009 1.66016 92.7531 2.3239 94.2128 3.15979C103.157 8.32328 111.688 14.172 119.729 20.6537C122.702 23.0461 125.684 25.4452 128.472 28.0429C131.578 30.9374 134.576 33.9662 137.404 37.1304C137.914 37.784 138.58 38.2996 139.341 38.6302C140.101 38.9608 140.933 39.0961 141.759 39.0235C143.886 38.9119 146.025 38.9493 148.157 39.0235C151.117 39.1246 152.431 40.166 153.062 43.0926C153.367 44.7467 153.55 46.4215 153.607 48.1026C154.052 55.153 154.891 62.2138 154.799 69.2574C154.559 87.4379 153.954 105.618 153.385 123.791C153.157 131.085 150.017 134.033 142.599 134.184C121.723 134.606 100.844 134.978 88.0039 135.221ZM7.90125 46.4736V126.551C9.2642 126.881 10.6472 127.123 12.0414 127.273C17.8743 127.512 23.7111 127.792 29.5473 127.807C49.4284 127.86 69.3107 127.95 89.1899 127.749C105.134 127.587 121.074 127.051 137.015 126.606C139.546 126.535 142.068 126.069 144.993 125.739C145.629 98.9606 148.227 72.4688 146.524 45.6458L7.90125 46.4736ZM72.005 11.5563C61.3724 16.1624 27.6787 36.7596 25.5541 40.0413L127.155 39.0818L127.365 38.3001C115.945 27.7987 103.918 18.0967 90.4349 10.0907C88.1909 16.895 86.6984 18.3305 81.9846 18.467C76.6932 18.6233 74.1118 16.868 72.005 11.5569V11.5563ZM82.6081 10.4301C82.6219 8.6777 81.6781 7.62546 80.0865 7.61955C78.6156 7.61365 77.7965 8.53849 77.7801 10.2148C77.765 11.7329 78.8611 12.7456 80.5538 12.7988C82.2196 12.8513 82.5576 11.7697 82.6081 10.4308V10.4301Z" fill="black"/>
<path d="M75.1783 91.6556L60.7929 92.5889C60.678 93.8307 60.5961 94.9071 60.4753 95.9795C60.1051 99.3157 59.878 102.678 59.2873 105.976C58.9059 108.105 57.6465 108.909 56.0555 108.672C54.2112 108.397 53.6966 106.923 53.7052 105.464C53.7188 102.555 53.8956 99.6478 54.2348 96.7579C55.262 88.0838 56.3909 79.4221 57.5008 70.7578C57.6927 69.3073 58.2211 67.9224 59.0438 66.7128C59.8665 65.5033 60.9607 64.5031 62.2389 63.7919C63.517 63.0807 64.9439 62.6782 66.4051 62.6167C67.8667 62.5552 69.3225 62.8364 70.6555 63.4378C74.625 65.2433 77.1867 68.4468 79.0376 72.2778C81.4148 77.2004 82.314 82.5075 82.7938 87.8731C83.2119 92.5567 83.3635 97.2653 83.5939 101.965C83.779 105.735 82.1631 108.061 79.411 108.09C76.6741 108.118 75.116 105.838 75.1685 102.02C75.2164 98.6941 75.1783 95.3652 75.1783 91.6556ZM74.9158 84.5455C74.8659 83.6988 74.7701 82.8547 74.6283 82.0179C74.201 80.1742 73.9483 78.2348 73.1686 76.5434C72.2832 74.3939 71.0408 72.4098 69.4931 70.6744C66.7733 67.9079 63.1781 68.8511 62.4122 72.6533C61.5675 76.8486 61.5077 81.2021 61.0693 85.8713L74.9158 84.5455Z" fill="black"/>
<path d="M36.4539 65.5764C38.0474 65.9938 39.6071 66.5313 41.1198 67.1837C42.8263 68.0606 43.1761 69.7717 42.8433 71.5576C42.485 73.4819 40.7431 74.2945 39.4264 72.9359C38.8743 72.3038 38.1528 71.8437 37.3474 71.6087C36.5418 71.3731 35.686 71.3738 34.8806 71.6094C32.5467 72.1345 30.3086 72.9792 28.9198 75.0827C25.5626 80.1694 27.6373 84.4027 32.7515 85.1805C34.7539 85.4417 36.7344 85.85 38.6769 86.4019C41.0507 87.0491 43.35 87.943 45.5369 89.07C50.1398 91.6481 51.8194 96.266 49.9889 101.173C47.6917 107.327 41.5996 113.213 32.8001 111.451C30.1685 110.938 27.5956 110.16 25.1209 109.128C23.6216 108.374 22.2883 107.327 21.1993 106.05C20.1235 104.913 19.84 103.179 20.8508 102.02C21.7989 101.134 23.0291 100.611 24.3248 100.543C25.4766 100.449 26.6922 101.085 27.8742 101.42C30.2436 102.093 32.5782 102.922 34.9817 103.427C36.8109 103.813 38.7171 103.561 40.3832 102.713C42.0494 101.865 43.3752 100.473 44.1403 98.7674C45.1596 96.5594 44.9193 95.0111 42.7659 93.9275C40.3297 92.8144 37.8159 91.8797 35.2443 91.1302C34.0819 90.7443 32.825 90.653 31.6285 90.3551C26.9239 89.1855 23.3435 86.6566 22.5054 81.6186C21.597 76.171 23.4591 71.6252 28.0843 68.4688C30.5886 66.8201 33.4662 65.8258 36.4539 65.5764Z" fill="black"/>
<path d="M125.379 69.1382C125.845 73.7818 126.277 78.0874 126.739 82.6883C128.38 82.6883 129.909 82.6122 131.427 82.7106C132.945 82.8091 134.364 83.1753 134.594 85.0675C134.716 85.8006 134.566 86.5535 134.171 87.1836C133.777 87.813 133.165 88.277 132.452 88.4864C130.913 89.043 129.236 89.2156 127.143 89.6566C127.461 94.0088 127.783 98.3991 128.127 103.083C131.043 102.916 133.599 102.688 136.156 102.655C137.473 102.638 138.949 102.656 140.066 103.224C141.076 103.827 141.808 104.805 142.101 105.945C142.417 107.367 141.41 108.498 140.039 109.039C139.303 109.311 138.53 109.47 137.747 109.511C133.94 109.779 130.138 110.081 126.326 110.209C122.882 110.324 121.479 108.75 121.373 105.33C121.023 94.016 120.598 82.7041 120.213 71.3914C120.106 69.826 120.097 68.2561 120.186 66.6901C120.383 64.5205 121.466 63.4352 123.649 63.3032C127.678 63.0597 131.717 62.858 135.751 62.8626C138.901 62.8666 140.542 64.0599 140.628 65.9228C140.718 67.9049 138.955 69.1855 135.677 69.3016C133.664 69.3732 131.643 69.1868 129.624 69.1441C128.314 69.1133 126.998 69.1382 125.379 69.1382Z" fill="black"/>
<path d="M99.7275 102.959C103.501 102.959 106.964 102.914 110.426 102.98C111.88 102.964 113.329 103.131 114.742 103.475C115.4 103.637 115.981 104.02 116.389 104.561C116.797 105.101 117.006 105.766 116.981 106.443C116.956 107.119 116.699 107.766 116.252 108.276C115.806 108.784 115.197 109.124 114.53 109.237C113.211 109.495 111.87 109.62 110.526 109.61C106.264 109.587 102.002 109.498 97.7414 109.393C93.6163 109.291 92.11 107.81 91.9295 103.683C91.667 97.6358 91.5055 91.5824 91.1649 85.5395C90.8689 80.2842 90.3806 75.0381 89.9835 69.7907C89.8988 68.6749 89.6231 67.5112 89.843 66.4545C90.0196 65.6074 90.7251 64.3426 91.3526 64.2415C91.875 64.1937 92.4014 64.2608 92.895 64.4383C93.3886 64.6157 93.8375 64.8992 94.2103 65.2686C94.931 66.2648 95.374 67.4351 95.4928 68.6585C96.4497 75.1982 97.3423 81.7478 98.1693 88.3066C98.7515 92.9633 99.1689 97.6391 99.7275 102.959Z" fill="black"/>
</svg>
