<svg width="168" height="153" viewBox="0 0 168 153" fill="none" xmlns="http://www.w3.org/2000/svg">
<g clip-path="url(#clip0_6_1919)">
<path d="M38.4636 138.55C37.4791 142.1 36.9291 143.102 35.9393 146.389C35.6628 147.494 35.0607 148.49 34.2113 149.25C33.3619 150.009 32.304 150.495 31.1749 150.646C24.7428 151.591 18.3034 152.715 11.7617 151.788C5.76013 150.935 1.92717 147.17 1.62723 141.113C1.11659 130.801 0.936739 120.471 0.670922 110.148C0.592815 107.12 0.552864 104.078 0.742548 101.058C1.12847 94.9254 4.00442 91.6582 10.128 91.2414C16.8378 90.782 23.591 90.8942 30.3256 90.8856C32.9707 90.8824 34.6068 92.6486 35.7731 94.827C36.3487 95.902 36.7577 97.0644 37.2132 98.1086C41.4039 97.5179 45.4582 96.7723 49.5458 96.4074C57.0235 95.7406 64.3875 96.5387 71.3514 99.4371C79.4585 102.814 87.8215 103.535 96.4537 102.709C98.5763 102.519 100.714 102.587 102.82 102.916C109.729 103.966 113.049 109.094 111.323 115.819C111.185 116.354 110.979 116.869 110.606 118C113.03 117.824 115.176 117.742 117.305 117.502C126.425 116.47 134.93 113.221 143.493 110.178C147.296 108.827 151.06 107.326 154.944 106.263C157.222 105.681 159.58 105.474 161.924 105.649C166.079 105.911 168.014 108.93 166.952 112.924C166.079 116.205 164.074 118.709 161.62 120.931C154.506 127.363 146.175 131.657 137.192 134.794C124.546 139.21 111.629 142.518 98.3026 144.063C80.6301 146.215 62.4536 146.237 45.6151 140.456C43.2122 139.625 40.7109 139.283 38.4636 138.55ZM38.5876 132.184C42.6568 133.258 46.4275 134.27 50.2047 135.243C62.0149 138.283 74.0207 140.011 86.203 139.191C104.384 137.967 121.805 133.275 138.698 126.579C145.203 124.051 151.214 120.4 156.455 115.791C157.597 114.661 158.669 113.464 159.668 112.205L159.107 111.361C156.689 112.078 154.242 112.712 151.858 113.527C143.585 116.359 135.393 119.446 127.054 122.067C120.471 124.136 113.684 124.986 106.773 123.488C105.793 123.329 104.787 123.486 103.901 123.936C95.1233 128.393 85.6445 129.196 76.0554 129.248C73.8199 129.144 71.6087 128.737 69.4822 128.04C69.1455 127.969 68.8278 127.829 68.5475 127.629C68.2673 127.43 68.0303 127.176 67.8525 126.882C67.674 126.588 67.5578 126.26 67.5105 125.92C67.4639 125.579 67.4869 125.232 67.5788 124.9C67.9135 123.771 68.6401 122.797 69.6285 122.154C70.8493 121.583 72.1777 121.277 73.5259 121.256C77.2191 120.962 80.9228 120.796 84.6226 120.591C89.8076 120.301 94.9415 119.624 99.6875 117.435C101.612 116.558 103.331 115.288 104.736 113.707C106.456 111.704 105.54 109.735 102.898 109.468C100.772 109.317 98.636 109.341 96.5134 109.539C87.7841 110.1 79.238 109.499 71.0954 105.926C69.5504 105.258 67.968 104.681 66.3554 104.196C58.2655 101.669 49.6206 101.514 41.4453 103.749C38.2659 104.602 38.2949 104.74 38.4636 107.93C38.7314 113.086 39.0851 118.242 39.1796 123.402C39.2315 126.185 38.82 128.977 38.5857 132.186L38.5876 132.184ZM29.2347 97.2206C23.8528 97.2206 18.7123 97.1707 13.5719 97.2357C8.96768 97.2935 7.81975 98.4664 7.71933 103.062C7.46204 114.838 7.07809 126.614 7.06299 138.391C7.05708 143.379 9.5341 145.005 13.0744 144.739C17.7685 144.388 22.4601 143.964 27.1345 143.402C29.6004 143.105 30.0349 142.341 29.9909 139.751C29.8463 137.625 29.8403 135.492 29.9731 133.364C31.2202 122.48 30.3393 111.618 29.7985 100.751C29.6712 99.5657 29.4825 98.3869 29.2328 97.2206H29.2347Z" fill="black"/>
<path d="M95.4647 40.4304C102.642 45.3411 105.301 52.5968 106.101 60.8667C107.504 75.3556 98.9059 84.3822 88.8226 88.2362C80.5153 91.4142 71.9947 93.0275 63.1548 90.4323C52.9034 87.423 46.8579 79.2004 46.4798 68.5434C46.0073 55.2282 53.9904 43.0956 67.0774 37.7478C75.0454 34.4956 90.5238 37.0509 95.4647 40.4304ZM71.0995 84.3428C75.4392 84.86 83.3369 82.996 87.2454 81.277C94.4566 78.1056 99.7388 72.2681 98.5114 61.6083C97.4875 52.7175 92.9746 45.9448 84.3667 44.1622C79.8741 43.2321 71.0988 42.8147 66.6344 44.7089C56.8867 48.8438 53.1016 58.6233 53.6096 69.3107C54.1071 79.7609 64.6368 83.5729 71.0995 84.3441V84.3428Z" fill="black"/>
<path d="M18.3413 111.749C15.4199 111.785 13.3681 109.907 13.2638 107.105C13.145 103.893 15.6777 101.077 18.7021 101.059C22.2135 101.038 24.9269 103.093 24.9499 105.784C24.9742 108.689 21.6256 111.708 18.3413 111.749Z" fill="black"/>
<path d="M77.8137 54.3014V62.2739C78.9761 62.7116 80.063 63.0733 81.1112 63.5249C85.2343 65.297 86.2483 69.1726 83.5455 72.7358C82.4298 74.2034 81.5529 74.7974 78.2692 76.305C77.9594 77.8802 77.6477 79.4311 77.3504 80.986C77.1856 81.8524 76.7721 82.5231 75.8263 82.5448C74.8287 82.5684 74.4782 81.7572 74.3004 80.9729C73.9669 79.502 73.7392 78.0075 73.4366 76.3516C72.2296 76.0293 70.915 75.688 69.6069 75.3244C68.9735 75.1754 68.3533 74.9746 67.7527 74.7239C67.2316 74.5427 66.7958 74.1758 66.5287 73.6928C66.2615 73.2104 66.1815 72.6459 66.3042 72.1077C66.5169 71.0641 67.4128 70.4045 68.793 70.4944C70.2967 70.5929 71.7905 70.8482 73.2509 71.0307C73.8606 69.3491 73.9308 68.3482 73.6644 65.4854C72.647 65.1041 71.5464 64.7674 70.5139 64.2896C66.3239 62.3573 65.4006 58.1719 68.3697 54.6329C69.5951 53.0918 71.2097 51.9058 73.0468 51.1976C73.5344 51.0664 73.961 50.7706 74.2544 50.3603C74.5478 49.9499 74.6902 49.4504 74.6568 48.947C74.6673 48.1528 74.8399 47.3692 75.1648 46.6445C75.3046 46.411 75.4988 46.2148 75.7305 46.0723C75.9622 45.9298 76.2247 45.8454 76.4958 45.8262C76.759 45.9006 76.9999 46.0365 77.1994 46.2228C77.3989 46.4091 77.5519 46.6402 77.6437 46.8972C77.8255 47.8241 77.924 48.7654 77.9391 49.7097C78.9374 49.9369 79.9232 50.2154 80.8926 50.5439C82.4403 51.153 83.1727 52.3535 82.9844 53.7213C82.817 54.9323 82.1587 55.3418 81.0291 54.8443C80.0413 54.4111 79.1205 53.7665 77.8137 54.3014ZM73.9939 55.882C71.8726 57.1402 70.7883 58.4783 71.1801 59.4753C71.6481 60.6666 72.7343 60.9665 73.9939 61.1306V55.882ZM77.9568 70.8233C79.366 70.3028 80.6576 69.6806 80.615 68.253C80.5789 67.0559 79.2596 66.8091 78.1865 66.6476C78.1248 66.6384 78.0553 66.6936 77.7829 66.7953C77.7829 67.6289 77.7678 68.5412 77.7901 69.4528C77.8 69.8519 77.884 70.2496 77.9568 70.8233Z" fill="black"/>
<path d="M131.486 17.9727V25.9459C132.648 26.3837 133.735 26.7453 134.783 27.1929C138.906 28.965 139.921 32.8414 137.217 36.4046C136.101 37.8716 135.225 38.4656 131.942 39.9738C131.632 41.549 131.319 42.4436 131.023 43.9978C130.857 44.8641 130.444 45.535 129.499 45.5573C128.5 45.5803 128.15 44.7697 127.973 43.9854C127.639 42.5146 127.412 41.6764 127.108 40.0205C125.901 39.6976 124.587 39.3568 123.279 38.9932C122.645 38.8437 122.025 38.6428 121.424 38.3921C120.903 38.2108 120.467 37.8435 120.2 37.3608C119.933 36.8781 119.853 36.3137 119.977 35.7759C120.189 34.733 121.085 34.0733 122.465 34.1633C123.969 34.261 125.463 34.517 126.923 34.6994C127.532 33.0179 127.603 32.0163 127.337 29.154C126.319 28.772 125.219 28.436 124.183 27.9582C119.993 26.0259 119.07 21.8405 122.039 18.3015C123.264 16.7604 124.879 15.5744 126.716 14.8662C127.203 14.7349 127.63 14.4389 127.923 14.0286C128.217 13.6183 128.359 13.119 128.326 12.6156C128.336 11.8214 128.508 11.0379 128.834 10.3133C128.974 10.0798 129.167 9.88335 129.4 9.74079C129.631 9.59817 129.894 9.51363 130.165 9.49414C130.428 9.5687 130.669 9.70483 130.868 9.89123C131.068 10.0776 131.22 10.309 131.313 10.566C131.494 11.493 131.593 12.434 131.609 13.3783C132.607 13.6051 133.593 13.8836 134.562 14.2126C136.109 14.821 136.842 16.0215 136.653 17.3893C136.486 18.6009 135.828 19.0097 134.698 18.5122C133.714 18.0817 132.792 17.4378 131.486 17.9727ZM127.666 19.5532C125.545 20.812 124.46 22.1503 124.852 23.1473C125.32 24.3379 126.406 24.6385 127.666 24.8026V19.5532ZM131.628 34.4954C133.038 33.975 134.329 33.3521 134.287 31.9246C134.251 30.7274 132.931 30.4805 131.858 30.3197C131.796 30.3106 131.727 30.3656 131.455 30.4674C131.455 31.3009 131.439 32.2133 131.461 33.1243C131.472 33.524 131.556 33.9218 131.628 34.4954Z" fill="black"/>
<path d="M148.431 4.20041C155.608 9.11112 158.266 16.3671 159.067 24.6369C160.47 39.1256 151.872 48.1522 141.788 52.0062C133.481 55.1835 124.961 56.7974 116.121 54.2022C105.87 51.1929 99.8249 42.9697 99.4462 32.3127C98.9736 18.9976 106.956 6.86585 120.043 1.51737C128.011 -1.73281 143.49 0.822896 148.431 4.20041ZM124.067 48.1127C128.406 48.6306 136.303 46.7659 140.212 45.0476C147.424 41.8762 152.705 36.0381 151.477 25.3785C150.453 16.4884 145.941 9.71495 137.333 7.93299C132.841 7.00296 124.067 6.58553 119.602 8.47972C109.854 12.6146 106.068 22.3942 106.576 33.0807C107.073 43.5322 117.603 47.3442 124.067 48.1154V48.1127Z" fill="black"/>
</g>
<defs>
<clipPath id="clip0_6_1919">
<rect width="167.366" height="152.27" fill="white"/>
</clipPath>
</defs>
</svg>
