<svg width="106" height="163" viewBox="0 0 106 163" fill="none" xmlns="http://www.w3.org/2000/svg">
<g clip-path="url(#clip0_6_2119)">
<path d="M104.392 51.9262C104.595 43.399 104.704 34.7301 104.811 26.3415L104.877 21.2732C104.877 19.8005 104.799 18.329 104.643 16.8646C104.106 11.2299 101.331 7.10611 96.3955 4.60877C92.7856 2.78219 88.843 2.41792 85.8101 2.30438L85.5732 2.29589C71.4127 1.76623 56.7708 1.21815 42.3642 0.847971L40.5448 0.799421C34.7106 0.641241 28.6805 0.477824 22.8148 1.07246C9.22203 2.45077 5.59819 7.9056 4.15753 16.2608C3.27344 21.3914 2.8625 26.6847 2.46476 31.8035C2.36434 33.0985 2.2641 34.3934 2.15646 35.6864C1.88146 38.974 1.727 42.324 1.57736 45.5636C1.51632 46.8671 1.45684 48.17 1.38924 49.4728C1.30129 51.1543 1.19749 52.8359 1.09247 54.5174C0.852911 58.3767 0.605371 62.3665 0.577148 66.2973C0.529892 72.8692 0.577261 79.5507 0.627143 86.0124C0.662586 90.8128 0.699328 95.7767 0.696046 100.659C0.696046 105.261 0.652743 109.943 0.613363 114.47C0.551667 121.532 0.488789 128.835 0.566893 136.017C0.688111 140.066 1.18391 144.094 2.04814 148.051C3.24727 153.928 6.97453 157.781 13.1284 159.506C17.9347 160.853 23.2564 161.517 29.8762 161.598C37.1957 161.687 43.8843 161.729 50.157 161.729C56.8188 161.729 63.0087 161.679 68.9711 161.579C74.1772 161.491 79.4574 161.029 84.5644 160.583C86.0871 160.452 87.6098 160.317 89.1318 160.194C93.1283 159.865 96.1067 157.717 97.9838 153.798C98.7222 152.27 99.3398 150.685 99.8301 149.06C102.231 140.987 102.859 132.795 103.065 122.983C103.301 111.726 103.411 100.28 103.518 89.2094C103.562 84.5218 103.61 79.8343 103.663 75.146L103.667 74.8179L103.559 74.8139C103.646 72.5325 103.737 70.2511 103.831 67.9696C104.043 62.7132 104.264 57.2773 104.392 51.9262ZM8.54199 130.393C8.50393 130.13 8.46435 129.877 8.42563 129.638C8.3168 129.079 8.25708 128.51 8.24717 127.941L8.41315 118.292C8.69866 101.591 8.99467 84.3203 9.355 67.3363C9.60638 55.452 9.88014 43.8086 10.4203 32.0188C10.7032 27.6352 11.2168 23.2696 11.9582 18.94L12.2445 17.0609C12.4181 15.4887 13.0838 14.0117 14.1468 12.8405C15.2099 11.6694 16.6157 10.864 18.1636 10.5395L19.0171 10.3163C20.9415 9.71722 22.9341 9.36437 24.9472 9.26619H24.9869C39.026 9.31804 53.4543 9.48147 69.0971 9.76435C74.8131 9.86739 80.6244 10.1805 86.2439 10.4863L88.593 10.6123C89.9017 10.6995 91.1921 10.9693 92.4266 11.4137C95.0776 12.3326 96.6863 14.1493 97.0781 16.6644C97.5047 19.1863 97.739 21.7369 97.7804 24.2944C97.8093 31.1354 97.8099 39.2425 97.594 47.5084C97.4319 53.7213 97.2081 60.0365 96.9902 66.1444C96.769 72.3881 96.5399 78.8445 96.3765 85.1979C96.1927 92.3519 96.091 99.6268 95.9912 106.66C95.9341 110.729 95.8717 114.801 95.8041 118.874C95.768 120.903 95.6873 122.925 95.602 125.066C95.5659 125.977 95.5285 126.907 95.4937 127.865C74.3229 127.027 52.9702 128.153 32.3179 129.243C24.5337 129.654 16.4883 130.078 8.54199 130.393ZM94.817 135.567C94.7881 135.877 94.7639 136.194 94.7396 136.514C94.6903 137.451 94.5735 138.383 94.3904 139.303C93.4131 143.649 92.5953 146.959 91.7414 150.037C91.0851 152.4 89.4482 153.69 86.876 153.865C84.8643 154.003 82.8533 154.17 80.8423 154.336C76.6647 154.684 72.3447 155.042 68.0968 155.114C54.2945 155.349 42.18 155.354 31.0597 155.129C26.6275 155.04 20.8208 154.696 15.2262 152.818C12.1939 151.8 10.4348 149.971 9.68002 147.062L9.46014 146.222C8.6942 143.305 7.90266 140.29 8.38047 137.044L9.97484 136.969C72.9183 134.002 90.9853 134.542 94.817 135.567Z" fill="black"/>
<path d="M36.6091 68.71V68.7422L36.6146 68.7744C36.7327 69.5502 36.8455 70.3273 36.9591 71.105C37.2269 72.9474 37.5033 74.8527 37.8564 76.7154C38.0231 77.5956 38.3971 79.5751 40.2683 79.5751C40.4167 79.5744 40.5646 79.5633 40.7112 79.5409C42.5365 79.2699 42.515 77.6697 42.4986 76.5014V76.2678C42.4933 75.6082 42.4659 74.9453 42.4377 74.2824C42.336 72.8345 42.3565 71.38 42.4992 69.9354L42.6207 68.9811C42.9823 66.132 43.3559 63.1864 44.3804 60.5682C44.8472 59.32 45.5776 58.1871 46.5221 57.247C47.4667 56.3068 48.6031 55.5816 49.8535 55.1207C51.2083 54.6493 52.6476 54.4709 54.0764 54.5977C55.5053 54.7244 56.8911 55.1533 58.1417 55.8558C58.4614 56.0291 58.7763 56.2115 59.0907 56.3933C59.6427 56.7123 60.2126 57.0417 60.8027 57.3213C63.0381 58.382 63.9169 57.4606 64.2404 56.8167C64.473 56.2761 64.5777 55.689 64.5461 55.1014C64.5146 54.5137 64.3477 53.9413 64.0587 53.4287C63.083 52.0229 61.7899 50.8667 60.2841 50.0537C56.8055 48.3275 52.4271 48.1819 48.2778 49.6514C46.266 50.3164 44.4068 51.3751 42.8084 52.766C41.2101 54.1569 39.9047 55.8519 38.9682 57.7526C37.4597 61.2114 36.6575 64.937 36.6091 68.71Z" fill="black"/>
<path d="M39.3802 97.6407C38.1524 97.371 36.8952 97.2581 35.639 97.304L34.9593 97.2988C32.943 97.2706 30.9186 97.2765 28.775 97.2817C27.9579 97.2817 27.1217 97.2863 26.258 97.287L26.2615 95.4079C26.2661 93.8655 26.2706 92.4891 26.2496 91.1128L26.241 90.4755C26.2526 89.2153 26.185 87.9558 26.0388 86.7042C25.8931 85.6501 25.6516 83.8964 23.6589 83.8964H23.5756C21.8395 83.9384 21.5719 85.2911 21.3566 86.3786L21.331 86.5099C21.1482 87.4019 21.0232 88.305 20.9563 89.2127C20.8684 90.5077 20.7968 91.8033 20.7259 93.0995C20.6556 94.38 20.5853 95.6593 20.4987 96.9404C20.1974 101.38 21.8665 103.488 26.0775 103.989C28.5876 104.269 31.1118 104.4 33.6373 104.383C34.6461 104.383 35.6193 104.368 36.5415 104.347C37.9495 104.265 39.2991 103.756 40.41 102.887C40.8461 102.498 41.1887 102.015 41.4117 101.475C41.6349 100.935 41.7331 100.351 41.6986 99.7679C41.5778 98.9009 40.3326 97.8954 39.3802 97.6407Z" fill="black"/>
<path d="M70.1371 50.6418C72.303 50.607 74.4401 50.6149 76.7038 50.6228C77.5793 50.6263 78.4634 50.6287 79.3573 50.63C79.3573 51.7104 79.3573 52.7507 79.3514 53.7614C79.3455 56.2292 79.3396 58.5605 79.3672 60.8734C79.4112 64.568 81.0559 65.4488 82.4297 65.5374C82.4999 65.542 82.5688 65.544 82.6377 65.544C84.5464 65.544 85.8918 63.8139 86.1701 60.968C86.1924 60.7343 86.1977 60.4993 86.199 60.265C86.2056 59.3422 86.218 58.4201 86.2299 57.4973C86.2561 55.4239 86.2837 53.2797 86.2463 51.1695C86.201 48.6689 85.6693 47.0286 84.5713 46.0093C83.4555 44.9756 81.7431 44.5602 79.1545 44.7066C75.968 44.8858 72.7539 45.1358 69.7558 45.3806C68.2101 45.5059 67.1245 45.9359 66.5266 46.6572C66.3159 46.919 66.1617 47.2215 66.0737 47.5458C65.9851 47.8701 65.9654 48.2091 66.0147 48.5416C66.2063 50.3412 67.7343 50.6759 70.1371 50.6418Z" fill="black"/>
<path d="M86.0649 95.5031C85.7368 93.9581 85.5235 92.3527 85.3154 90.8064C85.2006 89.9531 85.087 89.1045 84.9544 88.2565C84.917 88.0169 84.8888 87.7714 84.8599 87.5247C84.8212 86.7344 84.6295 85.9586 84.2961 85.2406C84.0579 84.7871 83.7284 84.3867 83.3293 84.0651C82.9303 83.7428 82.4695 83.5066 81.9753 83.3694C81.6905 83.3221 81.3984 83.3379 81.1201 83.416C80.8418 83.4934 80.5839 83.6313 80.3647 83.819C80.0903 84.075 79.8731 84.3867 79.728 84.7326C79.5823 85.0785 79.5121 85.4513 79.5206 85.8267C79.5042 87.2772 79.6296 88.7461 79.7503 90.1664L79.8363 91.1936C79.938 92.4741 80.0621 93.7533 80.1973 95.1493L80.3587 96.8309C79.8927 96.8801 79.4477 96.9293 79.0178 96.9779C77.91 97.1013 76.8631 97.2188 75.8392 97.2726C75.0838 97.3126 74.3106 97.3107 73.5578 97.312C72.4112 97.289 71.2632 97.333 70.1212 97.4432C67.9179 97.7058 66.5947 99.0841 66.6682 101.053C66.659 101.495 66.7424 101.934 66.913 102.342C67.0837 102.75 67.3383 103.117 67.6599 103.42C67.9815 103.723 68.3629 103.955 68.7803 104.102C69.1971 104.248 69.6408 104.305 70.0812 104.269H70.6285C74.518 104.269 78.0366 104.186 81.4319 103.469C85.5556 102.598 87.0304 100.066 86.0649 95.5031Z" fill="black"/>
<path d="M23.216 65.8117C23.3085 65.8176 23.3985 65.8202 23.4864 65.8202C25.1719 65.8202 26.1772 64.8181 26.3951 62.9082C26.6018 61.1026 26.6347 59.2543 26.6668 57.4677C26.676 56.9348 26.6861 56.4025 26.6999 55.8709C26.7274 54.8253 26.7209 53.7706 26.7136 52.6503C26.7136 52.2158 26.7082 51.7688 26.7069 51.3035C27.5332 51.2634 28.3315 51.228 29.1086 51.1932C31.2147 51.1 33.204 51.0114 35.2124 50.8617C36.3701 50.8723 37.5133 50.6032 38.5447 50.0774C39.3645 49.5438 40.4173 48.197 40.267 47.2145C40.1357 46.3527 39.0855 45.6911 38.1614 45.1069L37.8852 44.9323C37.4099 44.7123 36.8768 44.6483 36.3629 44.7493C36.2533 44.7578 36.1452 44.7669 36.0428 44.7722C32.4414 44.956 28.9129 45.1384 25.3378 45.3596C21.9347 45.5696 20.8589 46.6578 20.7329 50.0196C20.6233 52.9442 20.544 55.9181 20.4659 58.7942L20.3922 61.388C20.3539 61.8681 20.3746 62.3511 20.4534 62.8261C20.758 64.3081 21.306 65.6994 23.216 65.8117Z" fill="black"/>
<path d="M50.7009 71.4708C50.8287 72.2565 51.0217 73.0296 51.2784 73.7831L51.4825 74.3318C51.978 75.8617 52.665 77.3234 53.5265 78.6814C54.3351 79.8372 56.0309 80.4213 56.722 80.6182C57.0316 80.7232 57.3632 80.7468 57.6844 80.6852C58.0056 80.6241 58.3055 80.4804 58.5545 80.2684C58.7681 80.0511 58.92 79.7807 58.9945 79.4847C59.069 79.1894 59.0635 78.8789 58.9785 78.5862C58.8196 77.8491 58.6695 77.1081 58.5192 76.3664C58.0305 73.5849 57.3222 70.8453 56.4012 68.1754C56.1376 67.4586 55.7163 66.8102 55.169 66.2779C54.6216 65.7456 53.9617 65.3423 53.2381 65.0985C52.3691 64.8169 51.4493 64.7281 50.5426 64.8381C49.6358 64.9482 48.7637 65.2546 47.9874 65.7357C46.7983 66.3849 45.8018 67.3359 45.098 68.493C44.3942 69.6508 44.0082 70.9733 43.9792 72.3273C43.9338 75.867 44.835 79.3541 46.5894 82.4284C46.8526 82.8274 47.2018 83.1635 47.6112 83.4103C48.0205 83.6577 48.4797 83.81 48.9555 83.8572H49.0088C49.2268 83.8671 49.4444 83.831 49.6478 83.7522C49.8512 83.6728 50.0361 83.552 50.1904 83.3978C50.4198 83.1005 50.5852 82.7585 50.6768 82.3943C50.7685 82.03 50.7845 81.6506 50.7233 81.2798C50.6616 80.2795 50.5264 79.2747 50.3951 78.302C50.2908 77.5347 50.183 76.7419 50.1141 75.9621C50.0839 75.6241 50.0332 75.2842 49.9827 74.9383C49.7786 73.577 49.5843 72.2821 50.5701 70.8106C50.6167 71.0396 50.6595 71.2588 50.7009 71.4708Z" fill="black"/>
<path d="M67.0535 65.8497C66.8533 64.7375 66.5744 63.6409 66.2186 62.5681C66.1084 62.1756 65.9187 61.8099 65.6614 61.4934C65.4045 61.1768 65.0854 60.9161 64.7242 60.727C64.4914 60.6298 64.2407 60.5838 63.9887 60.5919C63.7366 60.6 63.4893 60.6622 63.2634 60.7742C62.3998 61.2698 61.7525 62.0702 61.4485 63.0183C60.9982 61.2864 60.1809 59.6717 59.0517 58.2835C57.6077 56.6696 55.4353 55.9391 52.6255 56.109C50.0113 55.9778 48.1296 56.6243 46.8812 58.0827C46.5307 58.5431 46.2848 59.0745 46.1611 59.6397C46.0374 60.205 46.0388 60.7904 46.165 61.3551C46.2165 61.5554 46.3118 61.7419 46.4434 61.9014C46.5752 62.0608 46.7402 62.1894 46.927 62.2779C47.6326 62.5956 48.5567 62.2537 49.1881 61.9682C51.6821 60.8406 53.7957 61.474 55.8408 63.9608C55.9344 64.0818 56.0189 64.2094 56.094 64.3427C56.2406 64.6412 56.4591 64.8988 56.7295 65.0923C56.9264 65.2111 57.1272 65.3483 57.3339 65.4861C57.9442 66.0013 58.6853 66.338 59.475 66.4581C59.5546 66.4581 59.6341 66.4515 59.7125 66.4378C60.0152 66.3885 60.3033 66.2743 60.5569 66.1017C60.8106 65.9298 61.0235 65.704 61.1806 65.4409C61.2108 65.3923 61.2268 65.3352 61.2537 65.2846C61.276 65.8169 61.3252 66.3492 61.3758 66.8729C61.4204 67.3324 61.4649 67.7918 61.4899 68.2512C61.5974 72.9244 60.9687 77.5857 59.6266 82.0632C59.1392 83.5793 58.86 85.1546 58.7969 86.7462C58.7969 87.9978 59.2972 88.9626 60.1327 89.3262C60.3604 89.4253 60.6059 89.4765 60.8544 89.4765C61.5414 89.4398 62.1893 89.1451 62.6679 88.6509C64.187 87.2732 65.3302 85.5313 65.9896 83.5892C67.8044 77.8548 68.1699 71.76 67.0535 65.8497Z" fill="black"/>
<path d="M48.7004 89.8625C51.117 89.8625 53.1943 89.0972 54.2793 87.7668C54.5472 87.3803 54.7264 86.9385 54.8042 86.4745C54.882 86.0105 54.8566 85.5353 54.7295 85.0818C54.4972 84.6985 54.1622 84.388 53.7627 84.1852C53.3631 83.9824 52.9147 83.8951 52.4682 83.9338C48.6904 84.9774 45.9954 84.7129 43.4561 83.0497C43.2269 82.8988 42.9593 82.8161 42.6847 82.8115C42.4101 82.8069 42.14 82.8804 41.9059 83.0241C41.5374 83.2539 41.2373 83.5787 41.0368 83.9634C40.8363 84.3486 40.7425 84.7805 40.7657 85.2143L40.7881 85.3213C40.819 85.4021 40.8537 85.4946 40.8839 85.5944C40.9788 85.8969 41.0984 86.191 41.2416 86.4738C42.1952 88.2492 44.6211 89.5271 47.5726 89.808C47.952 89.8441 48.3302 89.8625 48.7004 89.8625Z" fill="black"/>
<path d="M55.3571 89.3407C52.7108 89.6886 50.0892 90.2038 47.508 90.8825C46.7611 91.0702 45.7577 92.0363 45.7919 92.7314C45.8403 93.2013 45.9957 93.6535 46.246 94.0545C46.4962 94.4549 46.8349 94.7929 47.2359 95.0423C48.0199 95.362 48.8517 95.549 49.6972 95.5956C50.1566 95.6508 50.6567 95.7111 51.2172 95.805L51.2938 95.8181L51.3688 95.7958C51.7803 95.6744 52.2359 95.5503 52.7215 95.4171C53.9988 95.0673 55.4467 94.6708 56.8637 94.1313C57.2812 93.9915 57.6634 93.7631 57.9844 93.4619C58.3053 93.1606 58.5574 92.7937 58.7231 92.3855C58.833 92.0672 58.8701 91.7285 58.8317 91.3944C58.7933 91.0597 58.6802 90.7381 58.501 90.4532C58.0022 89.6006 56.3049 89.2252 55.3571 89.3407Z" fill="black"/>
<path d="M54.0576 148.638C54.2163 148.655 54.3757 148.665 54.5354 148.665C55.7326 148.639 56.8801 148.181 57.7661 147.376C58.6521 146.57 59.217 145.471 59.3564 144.282C59.5881 141.675 57.6845 139.733 54.6187 139.45C53.91 139.341 53.1871 139.375 52.4917 139.55C51.7963 139.724 51.1424 140.035 50.5685 140.465C50.1515 140.827 49.812 141.269 49.5699 141.765C49.3279 142.261 49.1884 142.801 49.16 143.353C48.9572 145.759 51.337 148.327 54.0576 148.638Z" fill="black"/>
</g>
<defs>
<clipPath id="clip0_6_2119">
<rect width="105.014" height="162.115" fill="white"/>
</clipPath>
</defs>
</svg>
