<svg width="157" height="156" viewBox="0 0 157 156" fill="none" xmlns="http://www.w3.org/2000/svg">
<g clip-path="url(#clip0_8_2601)">
<path d="M105.933 153.225C108.03 153.64 110.155 153.902 112.291 154.007C113.479 154.067 114.666 154.131 115.855 154.196C121.231 154.485 126.79 154.783 132.269 154.814C132.553 154.814 132.839 154.814 133.125 154.814C138.221 154.814 143.527 154.56 148.907 154.056C153.929 153.586 155.273 152.168 155.444 147.162C155.811 136.482 156.078 125.62 156.336 115.117L156.479 109.331C156.496 108.282 156.384 107.234 156.147 106.211C155.593 103.744 153.955 102.198 151.768 102.082C150.66 102.023 149.566 102.354 148.678 103.016C147.789 103.678 147.16 104.63 146.902 105.706C146.423 107.466 146.17 109.279 146.153 111.103C146.088 116.384 146.091 121.751 146.093 126.942C146.093 128.748 146.093 130.555 146.093 132.361C146.093 135.003 146.093 137.646 146.093 140.37V143.689L145.769 143.769C145.513 143.846 145.25 143.898 144.985 143.925C143.619 143.985 142.254 144.051 140.889 144.119C137.228 144.296 133.443 144.481 129.723 144.537C125.636 144.601 121.48 144.58 117.458 144.561C115.002 144.549 112.547 144.537 110.093 144.544C108.718 144.503 107.342 144.602 105.987 144.839C103.639 145.331 102.14 146.939 102.073 149.033C102.038 150.304 102.485 152.528 105.933 153.225Z" fill="black"/>
<path d="M42.5045 144.629C35.4978 144.526 28.3744 144.499 21.4846 144.473C19.2788 144.465 17.073 144.456 14.8672 144.446C13.752 144.442 12.6368 144.442 11.4359 144.446H10.2603C10.2376 144.223 10.2156 144.018 10.1955 143.826C10.1307 143.204 10.0775 142.713 10.0612 142.241C9.90165 137.655 9.74458 133.068 9.59018 128.482C9.37823 122.231 9.16336 115.979 8.94538 109.726C8.9289 108.258 8.8044 106.792 8.57299 105.342C8.47262 104.581 8.10893 103.878 7.54477 103.356C6.98061 102.834 6.25123 102.524 5.48285 102.481C3.75195 102.344 2.4337 103.245 1.78494 105.018C1.54915 105.699 1.40427 106.408 1.35413 107.126L1.27509 108.015C1.12458 109.685 0.96953 111.414 0.923468 113.128C0.577028 125.921 0.286896 137.539 0.037123 148.648C-0.0472159 152.377 2.15867 154.766 6.08821 155.202C7.36915 155.32 8.65557 155.369 9.94181 155.347C10.3427 155.347 10.743 155.347 11.1433 155.352L16.9128 155.422C25.6023 155.527 34.587 155.636 43.4257 155.681H43.4671C44.8661 155.645 46.2449 155.34 47.5278 154.782C48.4783 154.457 49.3037 153.843 49.8895 153.028C50.4753 152.213 50.7924 151.237 50.7971 150.234C50.8017 149.231 50.4935 148.252 49.9153 147.431C49.3371 146.611 48.5174 145.99 47.5699 145.655C45.9553 145.018 44.2405 144.67 42.5045 144.629Z" fill="black"/>
<path d="M4.68699 55.9116H4.79137C6.97253 55.9116 8.70861 54.2675 9.33726 51.596C9.48615 50.9 9.56219 50.1904 9.56426 49.4787C9.57529 48.8961 9.59021 48.3134 9.60449 47.7309C9.65055 45.8996 9.69797 44.0065 9.62855 42.1377C9.43224 36.8816 9.21769 31.6262 8.98505 26.3714C8.82286 22.5532 8.66385 18.734 8.50815 14.914C8.46208 13.7444 8.47376 12.5618 8.48674 11.3099C8.49063 10.9105 8.49446 10.504 8.49705 10.0877C9.05044 10.0845 9.58762 10.0768 10.1125 10.0697C11.6046 10.0477 13.0195 10.0287 14.4046 10.1064C24.1905 10.6559 32.4228 10.8185 40.7951 9.80739C42.3076 9.64473 43.7745 9.19213 45.1151 8.47453C45.6764 8.169 46.1465 7.72062 46.4776 7.17488C46.8086 6.62907 46.9888 6.00546 46.9997 5.36759C47.0027 4.71575 46.8324 4.07494 46.5064 3.51007C46.1804 2.9452 45.7101 2.47659 45.1436 2.15193C43.9957 1.51972 42.7243 1.14296 41.4166 1.0476C40.0348 0.947933 38.6483 0.928669 37.2644 0.99039C36.8492 1.00075 36.434 1.01174 36.0195 1.01757C30.1097 1.10388 24.1998 1.19184 18.29 1.28117L4.73103 1.48377C2.50903 1.51678 1.22776 2.55305 0.81645 4.65549C0.494225 6.2155 0.317264 7.80205 0.287749 9.39461C0.18265 20.0557 0.100811 31.7736 0.0281497 46.2713C-0.0118805 47.9668 0.0783552 49.6629 0.298044 51.3448C0.723632 54.1482 2.36313 55.8559 4.68699 55.9116Z" fill="black"/>
<path d="M145.607 16.9851C145.43 19.1426 145.247 21.3745 145.117 23.576L144.94 26.4955C144.639 31.4073 144.328 36.4859 144.26 41.4922C144.267 43.6885 144.796 45.8519 145.803 47.8047C146.103 48.469 146.582 49.0382 147.184 49.4505C147.786 49.8626 148.491 50.1017 149.22 50.142H149.273C150.01 50.1106 150.724 49.8812 151.341 49.4782C151.957 49.0752 152.454 48.5135 152.777 47.8524C153.82 45.938 154.454 43.8278 154.637 41.656C155.59 30.1378 154.988 18.4525 154.406 7.15451L154.336 5.77896C154.206 3.29915 152.895 1.70126 150.536 1.15429C148.766 0.699719 146.944 0.479737 145.116 0.500348C135.805 0.798756 125.982 1.18575 114.203 1.71784C112.81 1.81371 111.441 2.12098 110.141 2.62873C109.42 2.88451 108.809 3.38119 108.413 4.0346C108.017 4.68801 107.859 5.45802 107.967 6.21419C107.965 6.99113 108.269 7.73773 108.813 8.29421C109.356 8.8507 110.096 9.17293 110.874 9.19183C111.27 9.2339 111.665 9.28174 112.06 9.32964C113.091 9.45392 114.157 9.58274 115.224 9.61381C117.668 9.68501 120.151 9.72385 122.555 9.76139C124.216 9.78728 125.875 9.81298 127.535 9.84988C131.857 9.94438 136.178 10.0505 140.66 10.1599L145.959 10.2895C145.959 10.4993 145.964 10.696 145.967 10.8837C145.978 11.5757 145.986 12.1219 145.948 12.6559C145.841 14.0968 145.724 15.541 145.607 16.9851Z" fill="black"/>
<path d="M110.259 78.9068C111.438 78.8764 112.605 78.6576 113.715 78.2595C116.682 77.2284 117.121 75.1525 116.966 73.5938C116.759 71.4907 115.134 69.9313 112.827 69.6206C111.355 69.4595 109.872 69.4232 108.394 69.5125C99.0048 69.8297 89.6159 70.1579 80.2277 70.4964L71.777 70.7961C71.6148 70.8013 71.4597 70.866 71.3423 70.9774L64.5949 71.0816C53.7857 71.2499 42.9768 71.4188 32.168 71.5891C32.0032 71.5962 31.8312 71.5813 31.6574 71.5729C31.0426 71.4764 30.4131 71.5748 29.8571 71.8538C28.8613 72.4947 27.7941 73.2934 27.4217 74.3576C26.8852 75.8898 27.7337 77.3572 29.534 78.0097C30.3219 78.2848 31.1415 78.4583 31.9734 78.5275C33.0069 78.6233 34.041 78.7366 35.0758 78.8512C37.6528 79.1826 40.2462 79.3729 42.8441 79.4208H42.9797C64.6385 79.3366 86.6595 79.1302 107.954 78.9301L110.259 78.9068Z" fill="black"/>
</g>
<defs>
<clipPath id="clip0_8_2601">
<rect width="157" height="156" fill="white"/>
</clipPath>
</defs>
</svg>
