<svg width="106" height="163" viewBox="0 0 106 163" fill="none" xmlns="http://www.w3.org/2000/svg">
<g clip-path="url(#clip0_6_2112)">
<path d="M104.477 51.6708C104.69 42.9041 104.8 33.989 104.906 25.3673L104.952 21.6919C104.971 19.9922 104.884 18.2931 104.689 16.6046C104.074 11.2358 101.423 7.27477 96.8099 4.83122C93.0747 2.85236 89.0329 2.46183 85.9291 2.34303L77.8496 2.02865C64.0534 1.49045 49.7865 0.933882 35.7487 0.626718C30.0094 0.49323 24.2703 0.888653 18.6035 1.80808C10.442 3.14832 5.48046 8.02752 4.25639 15.9193C3.3198 21.9576 2.74102 28.1739 2.25533 33.9943C1.92388 37.9677 1.75067 42.0173 1.58265 45.9337C1.52292 47.3343 1.46309 48.7356 1.39549 50.1342C1.31738 51.7626 1.22806 53.3903 1.13814 55.0187C0.909738 59.1536 0.674802 63.4258 0.644611 67.6349C0.601292 73.8248 0.651179 80.1184 0.699093 86.204C0.735848 90.8285 0.773843 95.61 0.770561 100.311C0.762029 112.667 0.656628 124.946 0.554236 135.328C0.463417 139.739 0.988695 144.142 2.11496 148.409C3.68296 154.17 7.187 157.779 12.8269 159.44C17.6838 160.872 22.9536 161.549 29.9023 161.634C37.1935 161.724 43.8703 161.766 50.1469 161.766C56.7982 161.766 63.0001 161.715 68.9949 161.615C74.1537 161.528 79.3874 161.074 84.4484 160.635C86.0177 160.499 87.587 160.364 89.1563 160.238C93.2407 159.909 96.2822 157.669 98.1941 153.576C98.9029 152.035 99.4956 150.444 99.9662 148.814C102.561 140.058 102.96 130.932 103.13 123.065C103.371 111.898 103.478 100.542 103.583 89.5605C103.627 84.8952 103.674 80.23 103.726 75.5648L103.617 75.255C103.705 72.9171 103.797 70.5792 103.894 68.2407C104.115 62.8108 104.342 57.1971 104.477 51.6708ZM94.9295 135.971L94.3978 138.544C93.6411 142.222 92.8581 146.026 91.9549 149.731C91.3176 152.348 89.537 153.765 86.6616 153.943C84.4635 154.08 82.2306 154.256 80.0713 154.427C75.9646 154.751 71.7174 155.087 67.5411 155.159C54.3326 155.387 42.5486 155.394 31.5149 155.177C26.5209 155.079 20.657 154.714 15.0283 152.755C12.2559 151.79 10.6196 150.104 9.87661 147.451L9.82626 147.27C8.92249 144.042 7.98858 140.707 8.45787 136.884C17.7122 136.676 27.0762 136.276 36.133 135.889C55.2869 135.071 75.0897 134.226 94.5127 135.187C94.5895 135.336 94.6656 135.467 94.7332 135.584C94.8126 135.706 94.8789 135.836 94.9295 135.971ZM8.61073 130.427C8.57332 130.158 8.53374 129.902 8.49502 129.662C8.38803 129.102 8.32909 128.533 8.31912 127.962L8.48865 118.148C8.77416 101.501 9.06957 84.2881 9.42859 67.3599C9.68062 55.4538 9.95333 43.7973 10.4935 32.0423C10.7785 27.6275 11.2972 23.2309 12.0472 18.8709L12.3209 17.0843C12.4966 15.5125 13.1648 14.0364 14.2296 12.867C15.2945 11.6975 16.7018 10.8946 18.2504 10.5728L19.1102 10.3483C21.0331 9.75362 23.0232 9.40373 25.0336 9.30679H25.0737C38.988 9.3593 53.4143 9.52273 69.1833 9.80561C74.8002 9.90668 80.8871 10.1698 88.3392 10.6338C95.0141 11.05 97.625 13.7626 97.65 20.3096C97.6972 32.6934 97.461 45.2872 97.2326 57.4668L97.1722 60.6829C97.0724 66.0505 96.9037 71.5073 96.741 76.7836C96.6097 81.1036 96.4686 85.5706 96.3688 89.9655C96.1975 97.5389 96.059 105.24 95.9251 112.687C95.8451 117.124 95.763 121.561 95.6783 125.997C95.6593 126.439 95.6127 126.88 95.5385 127.316C95.5123 127.499 95.4841 127.692 95.4565 127.9C74.3841 127.068 53.0539 128.191 32.4232 129.278C24.6272 129.688 16.5695 130.112 8.61073 130.427Z" fill="black"/>
<path d="M39.53 97.6939C38.3845 97.4065 37.2037 97.287 36.0239 97.3382L35.433 97.3329C33.3261 97.3047 31.1985 97.31 28.944 97.3152C28.0835 97.3152 27.1987 97.3198 26.2798 97.3205C26.2798 96.3872 26.2858 95.4893 26.291 94.6164C26.3029 92.5016 26.314 90.5044 26.2641 88.5223C26.2038 86.1325 25.8546 83.922 23.732 83.922H23.7195C21.7991 83.9305 21.2667 85.7597 21.0573 88.4973C20.9411 90.02 20.8603 91.5696 20.7868 93.0681C20.7212 94.3466 20.6555 95.6245 20.5696 96.9011C20.2617 101.375 21.9074 103.502 26.0705 104.012C28.6468 104.305 31.2382 104.441 33.8309 104.421C34.7656 104.421 35.672 104.408 36.5358 104.392C37.9427 104.316 39.2948 103.821 40.418 102.97C40.8605 102.589 41.2121 102.113 41.4474 101.578C41.6826 101.043 41.7955 100.463 41.7778 99.8789C41.6774 98.9357 40.3812 97.9552 39.53 97.6939Z" fill="black"/>
<path d="M70.0495 50.6324C70.2911 50.6219 70.5247 50.6022 70.7715 50.6121C72.9197 50.616 75.0692 50.6121 77.2771 50.6121H79.5743V51.7324C79.5743 52.6053 79.5796 53.3359 79.5691 54.0657C79.5573 54.8855 79.5356 55.7065 79.5139 56.5263C79.4713 58.1488 79.4266 59.8263 79.4654 61.4783C79.5225 63.8845 80.5857 65.375 82.3834 65.5666C82.4904 65.5784 82.5974 65.5844 82.705 65.5844C84.3866 65.5844 85.7242 64.1366 86.1489 61.7987C86.2151 61.4488 86.2506 61.094 86.2565 60.738C86.2644 59.7693 86.2795 58.8006 86.2952 57.8312C86.3326 55.4684 86.3707 53.0299 86.2952 50.6284C86.2296 48.5025 85.6927 47.0008 84.6596 46.034C83.6265 45.0672 82.1111 44.6499 80.0108 44.7273C76.8262 44.8468 73.5977 45.1211 70.4755 45.3837L69.2632 45.4861C68.5019 45.4689 67.7629 45.741 67.1945 46.2474C66.5664 46.9452 66.2159 47.8492 66.21 48.7881C66.2756 49.5101 67.308 50.2635 68.0195 50.4847C68.6824 50.6495 69.3696 50.6995 70.0495 50.6324Z" fill="black"/>
<path d="M86.2427 95.9415C85.9237 94.2829 85.6829 92.5764 85.4492 90.9271C85.3127 89.9603 85.1762 88.9941 85.0239 88.0306C84.993 87.8383 84.9681 87.6408 84.9438 87.4399C84.9038 86.7081 84.7148 85.9921 84.3879 85.3357C83.916 84.5429 83.0424 83.5636 82.1327 83.4008C81.8452 83.3424 81.5479 83.349 81.2631 83.4192C80.9776 83.4901 80.7118 83.6227 80.484 83.8084C80.2051 84.0552 79.9826 84.3591 79.8309 84.6991C79.68 85.0397 79.6032 85.4086 79.6071 85.7814C79.5999 87.3047 79.6734 88.8274 79.827 90.3429L79.8926 91.1535C79.995 92.4255 80.1256 93.6791 80.2766 95.1296C80.337 95.7072 80.4 96.311 80.465 96.9549C79.8565 96.9969 79.2836 97.0376 78.7414 97.0763C77.3762 97.1734 76.1817 97.2587 74.98 97.3185C74.3814 97.3487 73.7795 97.3513 73.1783 97.3533C72.0914 97.3316 71.0045 97.3894 69.9262 97.5259C67.9342 97.8271 66.7101 99.1602 66.737 101.004C66.7626 102.865 67.967 104.076 70.041 104.329C71.5119 104.516 72.9926 104.612 74.4746 104.619C77.0756 104.65 79.6636 104.245 82.1301 103.419C85.631 102.219 86.9758 99.7725 86.2427 95.9415Z" fill="black"/>
<path d="M23.436 65.8472H23.4706C23.8503 65.8787 24.2327 65.8321 24.5933 65.7087C24.9539 65.5858 25.2849 65.3895 25.5659 65.1321C25.8469 64.8748 26.0716 64.562 26.2258 64.2136C26.38 63.8652 26.4602 63.4886 26.4617 63.1076C26.6395 60.7579 26.719 58.4443 26.7898 56.0848C26.8233 55.03 26.8163 53.9989 26.8078 52.8031C26.8078 52.3436 26.8011 51.8599 26.7997 51.3532C27.5716 51.3146 28.3277 51.2784 29.068 51.2443C31.1421 51.1465 33.102 51.0546 35.0684 50.9095L35.2697 50.895C36.3671 50.9006 37.452 50.6597 38.444 50.1901C38.9404 49.8971 39.3708 49.5047 39.7086 49.0377C40.0463 48.5705 40.284 48.0387 40.4069 47.4756C40.4398 47.1964 40.4163 46.9135 40.3374 46.6437C40.2584 46.374 40.1256 46.1229 39.9473 45.9056C39.3549 45.2736 38.537 44.9009 37.6713 44.8686C36.946 44.8217 36.2183 44.83 35.4943 44.8936L34.9521 44.9251C32.4545 45.0563 29.9575 45.1955 27.4612 45.3425L26.9276 45.3733C26.648 45.3891 26.3679 45.3996 26.087 45.4107C25.3509 45.4238 24.6163 45.4828 23.8876 45.5873C22.1522 45.8722 21.0271 47.003 20.9523 48.5408C20.6976 53.7626 20.579 58.4764 20.5882 62.952C20.5765 63.3445 20.6427 63.7354 20.7831 64.1021C20.9235 64.4688 21.135 64.804 21.4058 65.0883C21.6771 65.3429 21.9963 65.541 22.3448 65.6713C22.6932 65.8013 23.0643 65.861 23.436 65.8472Z" fill="black"/>
<path d="M53.7423 139.453C53.0931 139.447 52.4493 139.572 51.8492 139.82C51.2492 140.068 50.7053 140.434 50.2501 140.897C49.876 141.318 49.5908 141.81 49.412 142.344C49.2332 142.878 49.1646 143.442 49.2098 144.003C49.3233 146.315 52.1179 148.712 54.673 148.712H54.7387C55.9527 148.64 57.0991 148.128 57.9646 147.274C58.8301 146.419 59.3559 145.28 59.4446 144.067C59.467 143.495 59.3692 142.925 59.1574 142.394C58.9456 141.862 58.6246 141.382 58.2152 140.982C57.6144 140.434 56.9074 140.015 56.1379 139.753C55.3684 139.49 54.5529 139.388 53.7423 139.453Z" fill="black"/>
</g>
<defs>
<clipPath id="clip0_6_2112">
<rect width="105.014" height="162.115" fill="white"/>
</clipPath>
</defs>
</svg>
