<svg width="106" height="162" viewBox="0 0 106 162" fill="none" xmlns="http://www.w3.org/2000/svg">
<g clip-path="url(#clip0_6_2131)">
<path d="M96.1256 4.13993C92.4993 2.29234 88.5672 1.92284 85.5468 1.80798L76.8792 1.47324C63.2753 0.943577 49.208 0.396204 35.3659 0.094945C29.6267 -0.0371392 23.8875 0.356963 18.2203 1.27238C10.0581 2.60475 5.09363 7.48066 3.86562 15.3738C2.98022 21.0616 2.42154 26.7134 1.86168 33.4487C1.53351 37.411 1.35828 41.4501 1.19092 45.3566C1.13053 46.7677 1.06783 48.1789 1.00264 49.59C0.924535 51.2263 0.834584 52.8625 0.744009 54.4988C0.516262 58.6239 0.280653 62.8894 0.251118 67.0906C0.207143 73.2851 0.25703 79.582 0.305599 85.6722C0.342354 90.2921 0.380347 95.0696 0.377065 99.767C0.367876 112.575 0.255622 125.208 0.159141 134.783C0.0687156 139.195 0.593728 143.598 1.71874 147.865C3.28608 153.641 6.78753 157.25 12.4235 158.902C17.3651 160.352 22.7353 161.032 29.8349 161.109C35.6894 161.175 42.5678 161.231 49.9346 161.231C55.9309 161.231 62.2489 161.192 68.5903 161.084C73.7392 160.997 78.9604 160.545 84.0142 160.108C85.5933 159.972 87.1732 159.835 88.7523 159.709C92.8406 159.381 95.8834 157.144 97.7953 153.056C98.5055 151.515 99.0988 149.923 99.5714 148.293C102.185 139.428 102.581 130.178 102.746 122.208C102.976 111.133 103.085 99.872 103.19 88.9814C103.234 84.3358 103.282 79.6903 103.334 75.0454L103.225 74.7356C103.312 72.3905 103.405 70.0461 103.503 67.701C103.723 62.2777 103.95 56.6692 104.084 51.1508C104.291 42.6696 104.399 34.0446 104.504 25.7039L104.562 21.1706C104.565 19.586 104.485 18.0023 104.325 16.4259C103.806 10.7814 101.047 6.64711 96.1256 4.13993ZM7.99657 136.392C16.7259 136.169 25.5864 135.789 34.1602 135.422C53.8989 134.577 74.3043 133.702 94.6298 134.666L94.6029 134.891C93.9144 140.729 93.264 146.246 90.5828 151.128C89.9396 152.045 88.9958 152.708 87.9148 153.001C86.0121 153.592 84.0398 153.927 82.0485 153.998L75.0453 154.12C60.4557 154.378 45.3664 154.645 30.5338 154.617C24.2986 154.606 19.277 153.856 14.724 152.254C11.9208 151.27 10.2609 149.601 9.51199 147.004C8.49466 143.492 7.67824 140.259 7.99657 136.39V136.392ZM91.8949 127.315C74.6581 126.643 57.6518 127.443 41.71 128.322C33.9652 128.747 26.0892 129.115 18.4704 129.47L11.7856 129.783C10.9927 129.819 10.1782 129.812 9.23442 129.801C8.82749 129.797 8.39162 129.792 7.91643 129.791V128.556C7.91315 127.621 7.91059 126.824 7.92175 126.026C7.99873 120.725 8.07021 115.423 8.1363 110.122C8.30039 97.4547 8.47103 84.3575 8.74473 71.4782C9.0427 57.4563 9.50221 43.5373 10.1106 30.1086C10.3664 26.2759 10.8541 22.4621 11.571 18.6884C11.6944 17.9602 11.8164 17.2328 11.9372 16.506C12.1317 14.938 12.8122 13.4701 13.8835 12.3086C14.9546 11.147 16.3627 10.3499 17.9099 10.0293L18.7893 9.80219C20.7069 9.21602 22.6902 8.87138 24.6931 8.77627H24.7371C38.637 8.83206 53.0653 8.99746 68.8462 9.28165C74.456 9.38273 80.5435 9.64533 88.0028 10.108C94.5471 10.5143 97.2256 13.2348 97.2479 19.5002C97.2939 32.1827 97.0556 45.0796 96.8259 57.5527L96.7767 60.2089C96.6782 65.5908 96.5096 71.0614 96.3461 76.3548C96.2149 80.6604 96.0751 85.113 95.9766 89.4933C95.7955 97.5125 95.6484 105.667 95.5086 113.554C95.4351 117.656 95.3597 121.759 95.2829 125.862C95.2704 126.17 95.2415 126.476 95.1975 126.781C95.1778 126.94 95.1562 127.12 95.1319 127.326C94.8497 127.326 94.5694 127.331 94.2898 127.334C93.4655 127.336 92.6864 127.344 91.8949 127.313V127.315Z" fill="black"/>
<path d="M65.4085 49.1644C61.4331 46.8725 56.97 45.4974 50.9376 44.7066C43.0051 43.6676 33.9792 47.3378 27.9468 54.06C24.9494 57.3207 22.8174 61.2809 21.7457 65.5783C20.6741 69.8758 20.697 74.373 21.8126 78.6596C22.3779 80.7763 23.0841 82.8536 23.9261 84.8764C24.2353 85.6686 24.547 86.4693 24.8449 87.2832C24.566 87.2327 24.2903 87.1808 24.0166 87.1303C23.0059 86.9419 22.0515 86.7647 21.0742 86.6177C19.121 86.3256 16.4516 86.2081 15.8281 88.5545C15.3129 90.4973 16.3289 91.745 19.3356 92.8614C20.8156 93.4114 22.3417 93.9056 23.8171 94.3848C26.0113 95.0962 28.2801 95.8287 30.4178 96.7555C31.4515 97.228 32.5706 97.484 33.7067 97.5089C34.5564 97.5194 35.3958 97.3219 36.1517 96.934C37.7571 96.0952 38.8637 94.3789 39.3513 91.9701C40.0654 88.4403 40.4974 84.7983 40.9154 81.2764L41.1522 79.2975C41.2379 78.2474 41.1217 77.1907 40.8096 76.1839C40.739 75.7441 40.564 75.328 40.2995 74.9696C40.0349 74.6119 39.6885 74.3225 39.289 74.1256C38.9054 74.014 38.4999 73.9996 38.1093 74.0836C37.7187 74.1676 37.3551 74.3474 37.0514 74.6067C35.802 75.4356 34.8066 76.5941 34.1754 77.954C33.5355 79.5975 33.0091 81.283 32.6002 82.9986C32.4197 83.6865 32.2392 84.3769 32.0437 85.0556C31.9071 85.5288 31.781 86.0047 31.6235 86.5744L31.5198 86.9537L31.4195 86.8494C31.2174 86.6571 31.0353 86.4451 30.876 86.216C24.8836 76.5422 25.3062 62.5334 37.7084 54.4749C44.4627 50.0853 51.7771 50.1286 60.7236 54.6061C62.359 55.3913 63.8059 56.5198 64.9658 57.9146C66.1259 59.3094 66.9713 60.9378 67.4451 62.6889C69.9451 71.365 69.3262 78.9727 65.5529 85.9443C64.7222 87.4243 64.0463 88.9857 63.536 90.6043C63.1284 91.9622 63.2137 92.9723 63.79 93.6064C64.3663 94.2404 65.3817 94.4288 66.794 94.1478C69.0624 93.6976 70.3678 92.0581 71.3451 90.513C77.26 81.1674 77.9229 70.9102 73.4316 58.2324C72.0999 54.4762 69.4752 51.5088 65.4085 49.1644Z" fill="black"/>
<path d="M54.1957 148.171H54.2614C55.5353 148.144 56.7465 147.613 57.6296 146.694C58.0808 146.256 58.4395 145.731 58.6843 145.152C58.9291 144.572 59.055 143.949 59.0546 143.32C58.9889 140.76 56.949 139.037 53.8524 138.932C53.1562 138.867 52.4539 138.947 51.7898 139.165C51.1258 139.384 50.5141 139.738 49.9931 140.205C49.5921 140.613 49.2801 141.1 49.0767 141.635C48.8733 142.17 48.7832 142.741 48.8118 143.313C48.8519 145.677 51.5671 148.128 54.1957 148.171Z" fill="black"/>
</g>
<defs>
<clipPath id="clip0_6_2131">
<rect width="105.014" height="161.459" fill="white"/>
</clipPath>
</defs>
</svg>
