<svg width="112" height="151" viewBox="0 0 112 151" fill="none" xmlns="http://www.w3.org/2000/svg">
<g clip-path="url(#clip0_6_2138)">
<path d="M32.6981 134.179C34.0901 136.574 36.4045 138.57 38.0244 139.863C41.9603 142.91 46.34 145.336 51.0108 147.057C55.8323 148.968 60.9717 149.95 66.1582 149.949C72.0791 149.877 77.9415 148.764 83.477 146.662C87.4032 145.173 91.04 143.01 94.2219 140.27C100.212 135.294 104.376 128.487 106.955 119.464C110.309 107.756 111.745 95.582 111.209 83.4148C111.068 80.2263 110.127 77.0443 109.217 73.9681L109.086 73.5205C108.644 72.0063 107.861 70.6129 106.797 69.4472C105.734 68.2809 104.419 67.3739 102.951 66.7943C98.3805 64.8543 94.1504 65.422 90.3738 68.4818C88.0438 64.0844 84.3027 61.1781 80.0516 60.4863C78.2552 60.1908 76.4148 60.3228 74.6795 60.8716C72.9434 61.4205 71.3617 62.3707 70.0621 63.6453C65.3188 57.1849 61.6649 56.5115 54.2582 60.7659C54.1728 59.5136 54.0947 58.2686 54.0166 57.0281C53.8197 53.9197 53.6197 50.7062 53.3092 47.5703C52.7244 41.6763 51.9963 34.7244 51.0361 27.8578C50.4839 24.2338 49.0363 20.8048 46.8244 17.8815C44.2122 14.3123 40.5893 13.5116 36.6159 15.6263C35.4253 16.2432 34.3758 17.1005 33.5335 18.1439C32.6913 19.1874 32.0747 20.3943 31.7229 21.6882C31.2684 23.2176 30.9825 24.7921 30.8698 26.3837C30.7997 27.4675 30.7265 28.5513 30.6499 29.6352C30.3598 33.8594 30.0591 38.2286 30.065 42.5309C30.0788 51.3711 30.2158 60.0177 30.3608 69.1722C30.4147 72.5747 30.4669 75.9968 30.5172 79.4387L30.4615 79.3895C30.0821 79.0468 29.7546 78.7508 29.3956 78.4837C22.7869 73.5559 15.6667 71.7792 8.23438 73.1989C6.58224 73.466 5.02752 74.1558 3.72081 75.2014C2.41409 76.2469 1.39999 77.6127 0.777216 79.1663C0.171539 80.8196 -0.0026017 82.6003 0.271183 84.3395C0.544969 86.0788 1.2575 87.719 2.34179 89.1065C3.3923 90.4218 4.57606 91.6249 5.87377 92.6973L6.42051 93.183C11.2165 97.3639 15.208 102.386 18.1984 108.002C22.4619 116.157 27.2052 124.721 32.6981 134.179ZM36.264 62.3943C36.2246 60.7266 36.1453 59.0319 36.0672 57.393C35.936 54.5117 35.7947 51.5332 35.8669 48.6138C36.0546 40.9944 36.4984 33.2503 36.9277 25.7615L36.9466 25.4274C37.0844 23.0101 37.6825 20.434 41.0311 19.586C43.1905 21.196 44.5037 23.545 45.0425 26.7624C45.9312 32.0551 46.5155 36.8431 46.8299 41.3987C47.2893 48.0349 47.6325 54.7919 47.9666 61.3258C48.1307 64.5392 48.2993 67.7526 48.4726 70.9654C48.5533 72.4303 48.9321 74.4164 51.2733 74.7498C53.5554 75.078 54.4289 73.277 55.0735 71.9656C55.3642 71.3749 55.643 70.775 55.9266 70.1738C56.699 68.3446 57.6612 66.6014 58.7974 64.9724C59.7885 63.6643 61.0769 63.0303 62.3233 63.2311C63.6025 63.4372 64.65 64.4749 65.1967 66.0776C65.6244 67.5754 65.8537 69.1224 65.8786 70.6798C65.9121 71.2154 65.9443 71.7503 65.9922 72.2787C66.0125 72.6705 65.9981 73.063 65.9482 73.4516C65.836 74.0876 65.8701 74.7406 66.048 75.3608C66.2449 75.8505 66.5487 76.2902 66.938 76.6466C67.3265 77.0037 67.7905 77.2688 68.2953 77.4231C68.8223 77.4336 69.3454 77.3299 69.8291 77.1198C70.3122 76.9105 70.7454 76.5987 71.0972 76.2062C71.4601 75.7192 71.6846 75.1429 71.7469 74.5385C71.8027 74.2155 71.8848 73.8985 71.9918 73.5887C72.1814 73.0958 72.3665 72.6042 72.5523 72.1054C73.1515 70.4088 73.8446 68.7476 74.6283 67.1277C75.7545 64.9074 77.9579 65.101 79.1701 65.4135C82.3146 66.2246 84.201 68.0998 84.7766 70.9864C85.0489 72.5813 85.2032 74.1945 85.236 75.8124C85.2537 76.1931 85.2714 76.5738 85.2918 76.9531C85.3863 78.7128 85.7703 80.4022 87.9171 80.8426C90.064 81.283 91.0242 79.6165 91.6629 78.5145L92.0212 77.891C92.652 76.7352 93.3556 75.6214 94.1281 74.5549C95.719 72.4546 97.5253 71.434 99.2199 71.6794C100.808 71.9085 102.149 73.2652 102.997 75.5C104.366 78.8919 105.178 82.4821 105.401 86.1327C105.706 94.4951 104.662 103.308 102.017 114.709C100.779 119.927 98.5393 124.857 95.4224 129.221C91.821 134.335 86.5014 137.915 79.1603 140.162C66.3571 144.082 54.3509 141.934 42.4508 133.603C41.1771 132.756 40.0641 131.69 39.1643 130.453C37.1246 127.515 35.2429 124.471 33.5271 121.333C31.0029 116.654 28.5015 111.711 26.0908 106.642C21.8206 97.6573 16.5206 90.7986 9.88966 85.6758C9.81306 85.6201 9.74061 85.5584 9.673 85.4914C9.45641 85.2617 9.22807 85.0359 9.00032 84.8101C7.7395 83.5631 6.54829 82.3817 7.16724 80.4127C7.84261 78.256 9.78799 77.9061 11.8417 77.9061C11.9309 77.9061 12.0197 77.9061 12.109 77.9061C19.3884 78.0033 24.7898 80.7395 28.1607 86.0388C28.7428 87.083 29.1704 88.2067 29.4302 89.3737C29.5194 89.6966 29.6081 90.0169 29.7013 90.3326C30.1299 91.7693 30.8381 93.2657 32.8445 93.4738C34.4853 93.6425 35.9293 92.3987 36.4543 90.3785C36.6968 89.371 36.8017 88.3347 36.7662 87.299C36.6126 78.2678 36.4471 70.1193 36.264 62.3943Z" fill="black"/>
<path d="M60.9739 16.7971C62.3032 17.1434 63.6739 17.3046 65.0472 17.2763C70.2367 17.206 75.5124 17.0971 80.6141 16.9914C82.7248 16.9477 84.8363 16.9051 86.9471 16.8634C87.4833 16.8529 88.0189 16.8549 88.6745 16.8582H89.1655C88.5748 17.6346 87.9966 18.3822 87.4374 19.1101C85.9324 21.0666 84.5121 22.9168 83.1541 24.7808C82.186 26.1119 81.7869 27.332 82.0009 28.3093C82.0646 28.6032 82.1919 28.8795 82.3731 29.1194C82.5542 29.3592 82.7859 29.5567 83.0511 29.6981C83.4842 29.9579 83.9765 30.1007 84.4812 30.1123C85.7886 30.1123 86.7285 29.0077 87.4643 28.1433C90.7341 24.3024 94.2206 20.1655 97.5633 15.9406C98.7953 14.3845 99.2383 13.291 99.046 12.2848C98.8491 11.2636 97.99 10.3814 96.166 9.3254L94.405 8.31005C90.7827 6.2216 87.037 4.06225 83.4022 1.85958C81.1621 0.502276 79.5666 -0.0300123 78.5348 1.5091C77.566 2.95304 78.2224 4.47968 80.4841 6.04307C82.2411 7.25662 84.01 8.38815 86.059 9.69886C86.7528 10.1425 87.4721 10.6033 88.225 11.089H88.1961C87.7859 11.1297 87.5397 11.1546 87.2903 11.1658C85.1467 11.2603 83.0025 11.3533 80.8582 11.4447C75.9062 11.6567 70.7854 11.8766 65.7506 12.1234C64.1556 12.1585 62.5696 12.3788 61.0251 12.7797C60.5952 12.9737 60.2176 13.2671 59.9233 13.6356C59.629 14.0042 59.4264 14.4375 59.3324 14.8997C59.2083 15.5895 60.2972 16.6134 60.9739 16.7971Z" fill="black"/>
</g>
<defs>
<clipPath id="clip0_6_2138">
<rect width="111.577" height="150.301" fill="white"/>
</clipPath>
</defs>
</svg>
