<svg width="131" height="147" viewBox="0 0 131 147" fill="none" xmlns="http://www.w3.org/2000/svg">
<g clip-path="url(#clip0_6_2141)">
<path d="M128.405 69.4196C126.206 63.7573 120.988 60.855 115.088 62.0272C113.669 62.3805 112.302 62.9191 111.023 63.6294C110.49 63.8919 109.943 64.1649 109.378 64.4169C108.665 62.5505 107.506 60.8874 106.002 59.5733C104.497 58.259 102.693 57.3339 100.748 56.8789C96.1462 55.6423 92.3755 56.6518 89.5342 59.8849C87.5987 56.7725 85.1368 54.8632 82.3867 54.3513C79.6098 53.8354 76.6766 54.7234 73.6397 56.9911C73.5478 55.6686 73.4651 54.3769 73.3831 53.1082C73.177 49.8961 72.9821 46.8625 72.6808 43.8184C72.5653 42.651 72.4531 41.4827 72.3435 40.3135C71.8361 34.9775 71.3117 29.4597 70.3508 24.1066C69.6288 20.6783 68.303 17.4056 66.4351 14.4414C65.2257 12.3949 63.6668 11.1269 61.8008 10.672C59.8134 10.1876 57.5543 10.6878 55.2676 12.116C51.493 14.4788 50.6489 18.4056 50.3358 21.5626C49.9105 25.8223 49.6861 29.6763 49.648 33.3426C49.5483 42.7938 49.5391 52.5378 49.6199 62.2956C49.6461 65.446 49.8116 68.6385 49.9711 71.7292C50.0367 73.038 50.1023 74.3467 50.1634 75.6554H50.1541C49.9572 75.4986 49.7603 75.3358 49.5673 75.1724C49.268 74.921 48.968 74.6696 48.6529 74.4392C41.98 69.5541 34.8563 67.8201 27.4652 69.2876C25.8441 69.5666 24.3212 70.2551 23.0413 71.2888C21.7614 72.3219 20.7669 73.6648 20.1523 75.1908C19.5499 76.8152 19.3663 78.5656 19.6187 80.28C19.871 81.9937 20.551 83.6168 21.596 84.9991C22.6556 86.357 23.8593 87.5962 25.1856 88.6956L25.6452 89.1071C30.5291 93.3569 34.5929 98.4658 37.6362 104.18C41.8211 112.242 46.5074 120.712 51.9629 130.075C53.3904 132.525 55.679 134.53 57.5128 136.002C60.8785 138.703 64.9098 140.939 70.2018 143.04C75.0738 144.997 80.276 146.002 85.5267 146.001C91.3845 145.93 97.1845 144.841 102.67 142.785C107.555 140.93 111.995 138.066 115.7 134.381C119.406 130.697 122.295 126.273 124.178 121.398C129.358 108.051 131.375 93.5177 130.347 76.9688C130.085 74.3684 129.43 71.8231 128.405 69.4196ZM56.1483 83.5965C56.0045 75.2124 55.8203 66.9911 55.6477 59.3598C55.6024 57.4328 55.532 55.5045 55.4618 53.5768C55.3207 49.7372 55.1751 45.7665 55.2519 41.8711C55.3713 35.7731 55.7835 29.5752 56.1826 23.5809L56.3281 21.3848C56.5526 17.9803 57.7637 16.2614 60.3674 15.6667C62.4552 17.0195 63.7297 19.2307 64.3756 22.6128C65.257 27.1096 65.8634 31.6559 66.1909 36.2265C66.6386 42.8391 66.972 49.5718 67.2942 56.0827C67.4715 59.6567 67.6552 63.2303 67.8443 66.8034C67.9834 69.3566 68.9705 70.7152 70.7774 70.8405C73.0024 70.9981 73.8248 69.2929 74.4798 67.9251C74.7227 67.4171 74.959 66.9019 75.1952 66.386C75.9487 64.5654 76.8952 62.8307 78.0175 61.2113C79.0998 59.7759 80.4558 59.0822 81.7271 59.308C83.0569 59.5423 84.1418 60.7263 84.7023 62.5562C85.0672 63.9772 85.2562 65.4374 85.2667 66.9045C85.2917 67.4223 85.3173 67.9389 85.3567 68.4508C85.3698 68.7967 85.3514 69.1433 85.3009 69.4859C85.1886 70.0575 85.2123 70.6476 85.3711 71.2081C85.7393 72.1814 86.4495 72.9881 87.3683 73.4764C87.6676 73.6129 87.9919 73.6864 88.3207 73.6923C88.6495 73.6982 88.9764 73.6365 89.2803 73.5112C89.5841 73.3858 89.8591 73.1988 90.0882 72.9631C90.3173 72.7269 90.4951 72.4459 90.6106 72.1381C90.8259 71.6347 90.9972 71.1136 91.1246 70.5813C91.1902 70.3391 91.2558 70.0963 91.3287 69.8593C91.4711 69.3999 91.5998 68.9352 91.729 68.4705C91.9883 67.4328 92.3263 66.4168 92.7398 65.4303L92.7753 65.3522C93.7447 63.2086 94.6635 61.1844 97.3729 61.3662C99.5657 61.5133 102.427 62.375 103.597 65.645C104.133 67.3895 104.455 69.1918 104.559 71.0138L104.638 71.8014C104.673 72.1434 104.685 72.4965 104.698 72.8516C104.753 74.4333 104.816 76.2264 107.051 76.8414C109.402 77.4892 110.311 75.8642 111.108 74.4301C111.261 74.155 111.414 73.8807 111.576 73.6228C111.727 73.3832 111.876 73.1417 112.026 72.9008C112.658 71.804 113.387 70.7657 114.203 69.7976C115.548 68.3018 117.066 67.5785 118.5 67.7695C119.906 67.9546 121.168 69.0218 122.059 70.7743C124.148 74.8849 125.075 78.8662 124.816 82.6061C124.275 90.3902 123.395 98.1265 122.525 105.328C121.803 111.316 119.385 116.807 117.118 121.389C113.513 128.669 107.572 133.387 98.4178 136.236C85.7012 140.193 73.7034 138.027 61.7339 129.614C60.4672 128.758 59.3628 127.683 58.4724 126.441C56.4416 123.497 54.566 120.449 52.8534 117.309C50.1415 112.268 47.532 107.126 45.0963 102.025C41.1018 93.6581 35.9884 87.0665 29.4625 81.8755C28.3575 80.9915 27.424 79.9118 26.7089 78.691C26.5083 78.3786 26.377 78.0268 26.3237 77.6592C26.2704 77.2917 26.2964 76.9169 26.3999 76.5605C26.5551 76.1595 26.7924 75.7959 27.097 75.4927C27.4016 75.1894 27.7665 74.9538 28.168 74.8002C29.4632 74.2207 30.867 73.924 32.2858 73.9306C33.0422 73.9332 33.7967 74.0061 34.5398 74.1472C40.263 75.2091 44.1086 77.3389 46.6394 80.8497C47.5317 82.2477 48.2191 83.7665 48.6812 85.3594C48.8177 85.7532 48.9534 86.1516 49.0952 86.5408C49.6564 88.0832 50.4403 89.5134 52.3548 89.5389H52.4112C54.0895 89.5389 55.3102 88.4973 55.7637 86.6727C56.0256 85.6679 56.1548 84.6335 56.1483 83.5952V83.5965Z" fill="black"/>
<path d="M1.51638 16.2677C4.51191 19.319 7.99834 22.8594 11.4717 26.269C12.0103 26.7801 12.7142 27.0814 13.4558 27.1183H13.5253C14.1344 27.0934 15.6081 26.9556 16.1417 26.1995C16.3619 25.7592 16.4724 25.2723 16.4644 24.7801C16.4564 24.2879 16.33 23.8048 16.0956 23.372C15.5061 22.5042 14.7898 21.7299 13.9705 21.0748C13.811 20.933 13.6514 20.7918 13.4952 20.6501C12.3203 19.5816 11.1213 18.5348 9.73245 17.3219L8.39864 16.1555H9.14568C9.93329 16.1555 10.4845 16.1555 11.0391 16.1555C12.9228 16.1483 14.8073 16.1555 16.6923 16.1555C21.2472 16.166 25.9511 16.1765 30.577 16.0275C30.9255 16.0157 31.2767 16.0079 31.6272 16C34.4842 15.9344 37.439 15.8687 40.3525 14.1372L40.6605 13.9542L40.4595 13.6582C40.0422 12.9677 39.454 12.3964 38.7517 11.9993C38.0494 11.6022 37.2568 11.3928 36.4501 11.3912C32.4871 11.2744 28.6073 11.1667 24.7106 11.1319C21.2917 11.1024 17.8953 11.1083 14.2992 11.1155C13.0286 11.1155 11.7395 11.1201 10.4209 11.1214L17.5848 5.48412C17.7436 5.36007 17.913 5.23667 18.0883 5.11065C19.1214 4.3644 20.5351 3.34249 19.4154 1.6452C19.2808 1.39806 19.095 1.18245 18.8706 1.01269C18.6462 0.842934 18.3884 0.722929 18.1139 0.660689C17.2948 0.529418 16.5425 1.10896 15.8783 1.62484C15.6636 1.7909 15.4551 1.95302 15.2556 2.0797C13.2623 3.3484 11.2573 4.67026 9.31843 5.94815C6.94708 7.51223 4.49554 9.12879 2.04806 10.6574C1.32991 11.0206 0.775261 11.6414 0.494705 12.3957C0.214147 13.15 0.228216 13.9824 0.534444 14.7267C0.736957 15.31 1.07328 15.8377 1.51638 16.2677Z" fill="black"/>
</g>
<defs>
<clipPath id="clip0_6_2141">
<rect width="130.611" height="146.363" fill="white"/>
</clipPath>
</defs>
</svg>
