<svg width="113" height="156" viewBox="0 0 113 156" fill="none" xmlns="http://www.w3.org/2000/svg">
<g clip-path="url(#clip0_6_2144)">
<path d="M107.321 124.922C110.712 113.221 112.15 101.042 111.577 88.874C111.346 85.0324 110.435 81.2618 108.886 77.7385C108.252 76.2552 107.297 74.9307 106.089 73.8609C104.882 72.7904 103.453 72.0008 101.904 71.5493C100.222 71.0583 98.4532 70.9415 96.7218 71.2053C94.9897 71.4692 93.3358 72.1085 91.8767 73.0779C91.5315 73.303 91.1941 73.5406 90.8437 73.7874L90.6546 73.9187C89.7292 71.9129 88.3502 70.15 86.626 68.769C84.9018 67.3881 82.8797 66.4279 80.7203 65.9632C78.8819 65.6143 76.9871 65.7157 75.1972 66.2585C73.4067 66.8013 71.7744 67.7701 70.4401 69.0808C68.924 66.7337 66.8768 64.3322 63.3515 63.6181C59.9491 62.9329 57.2633 64.5927 54.6662 66.2008L54.6425 66.2159C54.555 64.9032 54.4715 63.6124 54.3919 62.3435C54.1898 59.1274 53.998 56.0938 53.6955 53.0314C53.5826 51.8937 53.4732 50.7541 53.3673 49.6125C52.856 44.2482 52.3271 38.7009 51.3525 33.3202C50.8274 30.4133 49.5291 27.2563 47.3908 23.6721C46.1437 21.5797 44.5192 20.3247 42.5666 19.9454C40.7131 19.5831 38.6076 20.0661 36.4778 21.3394C35.3765 21.9937 34.4173 22.862 33.657 23.893C32.8966 24.924 32.3505 26.0968 32.0508 27.3423C31.6229 28.876 31.3466 30.448 31.2259 32.0358C31.1581 33.1112 31.0878 34.1872 31.0156 35.2636C30.7341 39.497 30.444 43.8741 30.4513 48.185C30.465 56.9359 30.6042 65.8719 30.7394 74.5146C30.7928 77.9276 30.8441 81.353 30.8935 84.7909C30.7935 84.7305 30.6968 84.6642 30.6035 84.594C30.4532 84.4745 30.3113 84.3426 30.1689 84.2107C29.9826 84.0302 29.7854 83.8609 29.5783 83.7046C22.8613 78.851 15.7296 77.1537 8.36812 78.6607C6.79206 78.9488 5.31293 79.6262 4.06508 80.6317C2.81723 81.6365 1.84005 82.9374 1.22245 84.4155C0.605548 85.9572 0.383405 87.6282 0.575722 89.2776C0.76804 90.927 1.36888 92.5015 2.32393 93.8602C3.10967 94.9418 4.01216 95.9342 5.01498 96.8183C5.59059 97.365 6.18579 97.9308 6.71415 98.5248C7.6665 99.5907 8.66597 100.652 9.63276 101.675C12.1616 104.214 14.4727 106.961 16.541 109.887C18.6327 113.187 20.5295 116.606 22.222 120.126C23.1704 122.004 24.1509 123.946 25.1794 125.819L25.406 126.231C27.8804 130.738 30.4387 135.399 33.2439 139.806C34.6376 141.882 36.3663 143.712 38.3593 145.222C42.3869 148.336 46.8711 150.81 51.6531 152.556C56.4223 154.399 61.4916 155.342 66.6044 155.337C72.4859 155.282 78.3089 154.168 83.7966 152.05C87.5469 150.65 90.9841 148.21 94.4673 145.618C100.462 141.154 104.549 134.579 107.321 124.922ZM36.649 67.5981C36.6103 65.9573 36.5316 64.2961 36.4522 62.6867C36.321 59.8868 36.1823 56.991 36.2551 54.1544C36.4619 45.8701 36.9161 37.7853 37.3322 30.9692C37.558 27.2688 38.1797 26.3394 41.4424 25.0254C43.5144 26.4385 44.7747 28.6655 45.4054 32.0167C46.2752 36.5156 46.8766 41.0622 47.2068 45.6325C47.6892 52.7675 48.0458 60.0325 48.3884 67.0579C48.5389 70.1093 48.6919 73.1593 48.8476 76.2093C48.9343 77.8691 49.3151 79.6321 51.4823 80.1289C53.5885 80.6113 54.7037 78.9081 55.5136 77.1754C55.6921 76.7928 55.8693 76.4075 56.0452 76.0209C56.8528 74.069 57.8696 72.2102 59.0776 70.4775C60.1277 69.0926 61.4527 68.4179 62.7208 68.6292C64.0157 68.8438 65.0836 69.9419 65.6442 71.6438C66.0459 73.0923 66.2612 74.5861 66.2848 76.0892C66.313 76.5689 66.3413 77.0481 66.3806 77.5213C66.3984 77.919 66.3793 78.3168 66.3255 78.7112C66.21 79.3387 66.2323 79.9839 66.3911 80.6021C66.7698 81.5807 67.5122 82.3742 68.4632 82.8179C68.754 82.944 69.0664 83.0102 69.3834 83.0129C69.6997 83.0161 70.0141 82.9558 70.3069 82.835C70.6173 82.6932 70.8962 82.4904 71.1273 82.239C71.3583 81.987 71.5362 81.6923 71.6517 81.3707C71.8309 80.8785 71.9733 80.3744 72.0783 79.8611C72.1748 79.3886 72.3041 78.9239 72.4662 78.4697C72.6198 78.0706 72.7694 77.669 72.9197 77.2666C73.4606 75.6822 74.1313 74.1457 74.9255 72.6723C76.0544 70.719 77.3999 70.2103 79.7246 70.8536C82.6952 71.6759 84.5619 73.538 85.121 76.2388C85.4039 77.8258 85.5641 79.4325 85.6008 81.0445C85.6251 81.5433 85.6494 82.0421 85.6803 82.5383C85.7761 84.0676 86.1436 85.6999 88.1389 86.2066C90.0981 86.7048 91.1397 85.461 91.9771 84.0459C92.1741 83.7106 92.371 83.3725 92.5679 83.0332C93.1809 81.9115 93.8681 80.8325 94.6255 79.8034C96.1515 77.8344 97.9728 76.8413 99.6196 77.0802C101.186 77.3093 102.504 78.6154 103.33 80.7557C104.735 84.1332 105.564 87.7221 105.783 91.374C106.115 101.342 104.855 111.3 102.049 120.872C100.624 125.791 98.4677 130.468 95.6526 134.747C92.348 139.692 87.1268 143.213 79.6899 145.519C66.8145 149.508 54.7055 147.341 42.6788 138.894C41.4991 138.108 40.4694 137.117 39.6381 135.968C37.597 133.031 35.7074 129.992 33.9765 126.862C31.3249 121.94 28.7408 116.839 26.0761 111.273C22.0232 102.811 16.8934 96.2341 10.3897 91.1659C10.2238 91.0392 10.0671 90.9014 9.92049 90.7531C9.74591 90.5713 9.56581 90.3914 9.38597 90.2109C8.0733 88.8982 6.83236 87.6512 7.60093 85.6487C8.42595 83.4953 10.5675 83.2859 12.6901 83.2551H12.9029C19.4426 83.2551 28.9313 87.4642 30.0798 95.5286C30.3804 97.644 31.5932 98.8536 33.408 98.8536H33.4519C35.2477 98.8345 36.4411 97.7056 36.9031 95.589C37.0947 94.6885 37.1809 93.7683 37.1598 92.8481C36.9813 82.6394 36.8203 74.8526 36.649 67.5981Z" fill="black"/>
<path d="M19.5581 10.0769L20.5868 11.3161C21.9704 12.9851 23.3434 14.6398 24.7335 16.2767C25.4473 17.1684 26.2439 17.9905 27.1127 18.732C27.4296 19.0129 27.7989 19.2284 28.1994 19.3657C28.6 19.503 29.0242 19.5595 29.4467 19.5321C29.7371 19.4931 30.0162 19.3947 30.2668 19.243C30.5175 19.0914 30.7343 18.8898 30.9037 18.6507C31.2178 18.1636 31.4243 17.6151 31.5093 17.0418C31.5943 16.4685 31.5559 15.8836 31.3965 15.3263C30.8661 14.1081 30.1112 13.0004 29.1715 12.061L29.058 11.9297C26.9577 9.53543 24.788 7.13323 22.6917 4.81044C21.8893 3.92176 21.0874 3.03287 20.2862 2.14375C18.9355 0.642045 17.9107 0.000824396 16.8619 -0.000488281H16.8587C15.8525 -0.000488281 14.8636 0.595462 13.6552 1.93111C10.1701 5.78447 6.78403 9.83997 3.50826 13.7609C2.66683 14.7695 1.82406 15.7772 0.98001 16.784C0.7011 17.0769 0.482955 17.4221 0.338091 17.7996C0.193227 18.1772 0.124424 18.5798 0.135869 18.9841C0.168989 19.2916 0.264207 19.5893 0.415967 19.8588C0.567727 20.1284 0.773001 20.3642 1.01879 20.5521C2.16672 21.5129 3.57451 21.3233 4.78151 20.0473C5.59078 19.1941 6.37443 18.2903 7.13379 17.418C7.6884 16.7794 8.24438 16.1402 8.81343 15.5147C9.17704 15.115 9.53533 14.7061 9.89566 14.288C10.8237 13.1847 11.8111 12.1331 12.8537 11.1375C12.8537 11.3627 12.8538 11.5688 12.8505 11.7604C12.8466 12.4522 12.8431 12.9543 12.8575 13.4557L13.0316 19.685C13.216 26.3613 13.407 33.2647 13.6597 40.0525C13.7549 41.9782 14.0585 43.888 14.5654 45.7482C14.7266 46.3871 15.1036 46.9505 15.6329 47.343C16.1621 47.7355 16.8111 47.9328 17.4692 47.9017C17.569 47.9017 17.666 47.8977 17.7717 47.8898C18.4777 47.8703 19.151 47.5886 19.6607 47.0996C20.1702 46.6106 20.4795 45.9494 20.5281 45.2448C20.6941 44.1152 20.7518 42.9724 20.7003 41.8318C20.569 39.6187 20.4161 37.4062 20.2619 35.1943C20.0059 31.5352 19.7412 27.7508 19.5994 24.0274C19.4721 20.6722 19.5019 17.3636 19.5341 13.8607C19.5426 12.6123 19.5541 11.3548 19.5581 10.0769Z" fill="black"/>
</g>
<defs>
<clipPath id="clip0_6_2144">
<rect width="112.234" height="155.552" fill="white"/>
</clipPath>
</defs>
</svg>
