<svg width="112" height="153" viewBox="0 0 112 153" fill="none" xmlns="http://www.w3.org/2000/svg">
<g clip-path="url(#clip0_6_2135)">
<path d="M94.3309 142.274C100.248 137.363 104.373 130.657 106.937 121.768C110.362 109.961 111.817 97.6698 111.245 85.389C111.003 81.8888 110.232 78.4456 108.958 75.1764C108.187 72.8307 106.629 70.8242 104.547 69.4958C102.466 68.168 99.9892 67.601 97.5378 67.8911C95.7184 68.1464 93.9404 68.6347 92.2464 69.3448C91.5211 69.6074 90.7742 69.885 90.0102 70.1324C89.2443 68.3505 88.0766 66.7687 86.5986 65.5119C85.1212 64.2549 83.3733 63.3562 81.491 62.8859C76.873 61.6388 73.0701 62.6568 70.1822 65.9148C68.6326 63.4306 66.5284 60.9129 62.8581 60.2651C59.6814 59.7053 57.098 60.951 54.0697 63.2003C54.0736 62.8347 54.0795 62.4954 54.0854 62.177C54.1169 61.3253 54.1059 60.4725 54.052 59.6219C53.8919 57.6599 53.734 55.6977 53.5787 53.7352C53.0575 47.2001 52.5183 40.4424 51.8331 33.8108C51.2745 28.3907 49.7039 23.9204 47.032 20.1445C44.299 16.2806 40.487 15.4812 36.2989 17.8946C35.179 18.522 34.1989 19.3714 33.4184 20.3905C32.638 21.4097 32.0735 22.5773 31.7596 23.822C31.229 25.6808 30.91 27.5937 30.8091 29.5242L30.6895 32.7895C30.4099 40.321 30.1218 48.1091 30.1146 55.7725C30.1087 61.8331 30.294 67.7624 30.4896 74.039C30.5663 76.5147 30.6445 79.0042 30.7101 81.5147L30.5341 81.3716C30.0517 80.9778 29.5961 80.6083 29.1176 80.2696C22.3101 75.4567 15.1626 73.804 7.87859 75.3556C6.3356 75.6568 4.89085 76.3342 3.67233 77.3279C2.45382 78.3216 1.49916 79.6001 0.893151 81.0506C0.278862 82.5635 0.0474539 84.2043 0.219189 85.8281C0.390924 87.4512 0.960498 89.0074 1.87766 90.3582C3.13534 92.1073 4.61348 93.6871 6.27525 95.0582C11.5758 99.8396 15.5033 104.767 18.2816 110.122C22.4612 118.176 27.1422 126.648 32.5983 136.023C34.0344 138.489 36.3119 140.494 38.1352 141.963C41.5947 144.753 45.7243 147.034 51.1305 149.142C55.9306 151.036 61.0448 152.007 66.2048 152.006C72.039 151.936 77.8174 150.855 83.2821 148.812C87.3212 147.301 91.0617 145.088 94.3309 142.274ZM42.2735 135.514C41.0997 134.719 40.0771 133.721 39.2543 132.567C37.2217 129.624 35.3378 126.581 33.6097 123.449C31.138 118.862 28.6575 113.957 26.0263 108.455C21.7968 99.6119 16.5522 92.8483 9.99278 87.7755C9.91507 87.719 9.84163 87.6567 9.77297 87.5897C9.56885 87.379 9.35686 87.171 9.14289 86.9616C7.7613 85.6076 6.45574 84.329 7.30108 82.2419C8.16482 80.1088 10.3819 79.9198 12.4028 79.9198H12.4422C14.9892 79.8817 17.5184 80.349 19.8833 81.2954C22.2483 82.2419 24.4021 83.6484 26.2196 85.433C28.0591 87.1749 29.289 89.4622 29.7275 91.957C30.3044 95.173 32.1666 95.5892 33.2213 95.5459C34.9389 95.4802 36.2705 94.0586 36.6998 91.8388C36.8282 91.0414 36.8738 90.2321 36.8357 89.4248C36.6736 80.941 36.5126 72.6265 36.321 64.1789C36.2783 62.3319 36.2057 60.4548 36.1348 58.6394C35.9983 55.1608 35.8571 51.566 35.9326 48.0382C36.0816 41.1106 36.5507 34.2184 37.0036 27.5519C37.2418 24.0359 37.8161 23.1597 41.0374 21.62C43.2106 23.1952 44.5005 25.47 45.0912 28.7662C45.9432 33.3826 46.5409 38.0424 46.8817 42.7245C47.3536 49.6679 47.706 56.738 48.0466 63.575C48.2028 66.705 48.3627 69.8351 48.5264 72.9645C48.6045 74.4301 48.9739 76.4228 51.2626 76.8041C53.5906 77.192 54.5444 75.2473 55.1134 74.0843L55.6457 72.9862C56.5646 71.0861 57.513 69.1217 58.5993 67.2866C59.144 66.3638 60.3714 64.8923 62.4828 65.397C63.2488 65.5829 63.9415 65.9936 64.4727 66.5757C65.0038 67.1579 65.3491 67.8858 65.4639 68.6655C65.7762 70.2952 65.9804 71.9433 66.0769 73.5992C66.1051 74.205 66.0874 74.8121 66.0243 75.4153C65.9935 75.8091 65.9633 76.2029 65.9548 76.5967C65.92 78.2691 66.7424 79.3291 68.2743 79.5798C68.6143 79.6703 68.97 79.6907 69.3185 79.6402C69.667 79.5896 70.0011 79.4695 70.3024 79.2864C70.603 79.1033 70.8635 78.8611 71.069 78.5749C71.2737 78.2888 71.4188 77.9639 71.4949 77.6199C71.5783 77.3384 71.6551 77.0548 71.7325 76.7713C71.8316 76.4097 71.9294 76.0493 72.0403 75.6897C72.165 75.2886 72.2799 74.8837 72.3954 74.4781C72.6507 73.4909 72.9756 72.5228 73.3668 71.581L73.42 71.4602C74.4163 69.2214 75.3601 67.1021 78.2198 67.368C81.3872 67.6567 83.5085 69.2438 84.5245 72.0864C84.879 73.2146 85.1146 74.3757 85.2294 75.5525L85.3292 76.2909C85.3804 76.7542 85.3929 77.2215 85.3666 77.6869C85.3587 77.9954 85.3509 78.3045 85.3614 78.6117C85.4585 81.3191 86.1989 82.5622 87.9211 82.9035C90.0489 83.3222 90.9639 81.8317 91.7679 80.5151L91.867 80.3536C92.0501 80.0556 92.2306 79.7544 92.4118 79.4531C93.1567 78.1142 94.0296 76.8501 95.0168 75.6778C96.3583 74.1971 97.9703 73.4896 99.4142 73.7357C100.762 73.9635 101.886 74.9907 102.579 76.6276C103.735 79.3579 105.29 83.4535 105.437 87.4617C105.825 98.1023 104.45 108.734 101.367 118.925C100.028 123.293 98.0497 127.438 95.4965 131.226C92.1059 136.265 86.9084 139.83 79.6092 142.121C66.5488 146.219 54.3396 144.059 42.2735 135.515V135.514Z" fill="black"/>
<path d="M11.9455 38.7444C11.5445 38.4071 11.1579 38.0809 10.7864 37.7645C9.64173 36.7951 8.56015 35.8795 7.47325 35.0164C6.24066 34.0385 4.96783 33.9998 3.98069 34.9173C2.43764 36.3514 3.81659 37.8387 4.26881 38.3303L5.30843 39.452C8.1143 42.4823 11.0185 45.6157 13.9517 48.6197C14.2942 49.0318 14.7165 49.3707 15.1929 49.6161C15.6693 49.8615 16.1903 50.0083 16.7248 50.0478C16.776 50.0478 16.8278 50.0478 16.879 50.0432C17.3733 49.9858 17.8491 49.8204 18.2724 49.5587C18.6956 49.297 19.0563 48.9456 19.3287 48.5291C21.6206 45.55 23.8454 42.4442 25.9962 39.4408L27.265 37.6687C27.7672 37.1098 28.0712 36.4009 28.13 35.6517C28.0729 34.935 27.7698 33.6079 26.9993 33.18C26.2163 32.7441 24.9121 33.136 24.2657 33.4366C23.8175 33.7155 23.4664 34.1261 23.2606 34.6121C23.1651 34.7903 23.0606 34.9636 22.9475 35.1313L18.9223 40.8926L18.7252 40.7955C18.6905 40.5363 18.6506 40.2776 18.6105 40.0183C18.4965 39.3616 18.4221 38.6986 18.3874 38.033C18.117 29.2148 17.8589 20.397 17.6135 11.5793L17.4475 5.7687C17.4376 5.44053 17.4382 5.10842 17.4382 4.77762C17.4528 4.08872 17.425 3.39959 17.3549 2.71411C17.0674 0.347353 15.7799 -0.0661369 14.7474 0.00999804C13.4407 0.103198 12.7205 1.02995 12.6057 2.76662C12.5551 3.53585 12.4969 4.30507 12.4384 5.0743C12.2868 7.07156 12.1291 9.13633 12.116 11.1736C12.0786 16.6757 12.0886 22.2691 12.0977 27.6786C12.103 30.7021 12.1054 33.7256 12.1054 36.7492C12.0933 37.2966 12.0523 37.843 11.9827 38.386C11.9689 38.5015 11.956 38.6211 11.9455 38.7444Z" fill="black"/>
</g>
<defs>
<clipPath id="clip0_6_2135">
<rect width="111.577" height="152.27" fill="white"/>
</clipPath>
</defs>
</svg>
