<svg width="159" height="154" viewBox="0 0 159 154" fill="none" xmlns="http://www.w3.org/2000/svg">
<g clip-path="url(#clip0_8_2607)">
<path d="M35.9526 101.022C46.8263 102.903 57.6707 102.055 69.1084 98.429C75.7786 96.3644 82.1399 93.4005 88.019 89.6197C89.1248 90.855 90.2197 92.0837 91.3035 93.3066C93.9643 96.3037 96.483 99.1351 99.1165 101.976C111.987 115.861 125.95 129.064 139.453 141.832C141.908 144.154 144.361 146.477 146.813 148.801C148.735 150.565 150.846 152.107 153.108 153.399C153.666 153.698 154.293 153.846 154.925 153.827C155.586 153.837 156.242 153.699 156.844 153.422C157.17 153.258 157.459 153.029 157.695 152.749C157.932 152.47 158.11 152.146 158.22 151.796C158.349 151.38 158.396 150.942 158.356 150.506C158.317 150.072 158.193 149.65 157.991 149.263C156.923 147.016 155.617 144.891 154.097 142.925C151.648 140.004 149.041 137.218 146.29 134.581C139.883 128.347 133.342 122.039 127.016 115.937C122.629 111.708 118.245 107.475 113.865 103.238C109.344 98.8597 104.941 94.5588 100.28 89.9988C98.3819 88.143 96.4713 86.2767 94.549 84.4L94.7982 84.1253C95.1603 83.7272 95.4414 83.4179 95.7405 83.1262C103.026 76.0331 107.02 67.1592 107.613 56.7533C108.642 38.6831 102.584 23.3432 89.609 11.1543C83.2522 5.04049 75.0056 1.29956 66.2405 0.553903C57.7159 -0.270596 49.1141 0.711922 40.9906 3.43809C28.5367 7.69659 17.9649 15.8664 9.57033 27.7211C2.33747 37.9347 -0.561583 49.2675 0.953783 61.4047C1.94218 69.3243 5.13 76.8292 11.2888 85.7403C17.1089 94.1575 25.175 99.156 35.9526 101.022ZM48.8316 12.7583C51.7287 12.511 54.7244 12.2559 57.6662 12.158C58.1646 12.1424 58.6583 12.1343 59.1472 12.1338C72.5564 12.1338 82.8602 18.2501 89.7894 30.3293C95.991 41.138 97.7452 51.4965 95.1539 61.9959C94.2654 65.9331 92.4917 69.6134 89.9685 72.7534C86.8372 76.5819 83.0316 79.797 78.7412 82.2381C68.9461 87.8291 57.9288 90.9019 46.6686 91.1838C45.5887 91.0638 44.5062 90.9574 43.4237 90.851C41.0381 90.6174 38.5706 90.3747 36.1804 89.9825C30.2392 89.082 24.8406 85.9994 21.0268 81.3311C16.3787 75.8798 13.023 69.4379 11.2129 62.4919C9.13694 54.4407 9.89352 45.9153 13.3545 38.3609C17.2186 29.7323 22.3507 23.366 29.0449 18.8987C34.4016 15.3247 39.2852 13.4866 44.4121 13.116C45.8859 13.0096 47.3572 12.8836 48.829 12.7583H48.8316Z" fill="black"/>
</g>
<defs>
<clipPath id="clip0_8_2607">
<rect width="159" height="154" fill="white"/>
</clipPath>
</defs>
</svg>
