<svg width="157" height="134" viewBox="0 0 157 134" fill="none" xmlns="http://www.w3.org/2000/svg">
<g clip-path="url(#clip0_8_2609)">
<path d="M5.94394 53.8326C4.45151 54.369 3.01274 55.0461 1.64679 55.8549C1.21758 56.0692 0.845719 56.3841 0.562509 56.7732C0.279299 57.1622 0.0930075 57.614 0.019283 58.0907C-0.0492026 58.9623 0.406944 59.8347 1.37091 60.6823C2.17271 61.3417 3.03677 61.9203 3.95074 62.4099C4.65175 62.8132 5.36568 63.1944 6.07961 63.575C7.10172 64.1201 8.15872 64.6808 9.14336 65.3035C22.4961 73.7162 34.6471 81.1753 47.9734 87.2021C47.945 87.6822 47.9133 88.1609 47.881 88.6377C47.7906 89.9855 47.6975 91.3782 47.6956 92.7533C47.6926 94.8297 47.6844 96.9073 47.671 98.9863C47.6368 105.578 47.6013 112.395 47.8216 119.098C47.901 121.515 48.7629 123.243 50.2483 123.964C51.8099 124.719 53.8173 124.279 55.9009 122.719C56.6523 122.156 57.4225 121.524 58.2546 120.785C61.9051 117.545 65.5504 114.298 69.2305 111.02L72.5656 108.049C72.5908 108.068 72.6154 108.087 72.638 108.107L75.7218 110.778C79.2326 113.816 82.8624 116.957 86.4055 120.08C87.4147 120.967 88.4297 121.85 89.4506 122.727C92.5621 125.417 95.7822 128.198 98.6741 131.179C100.207 132.756 101.697 133.498 103.487 133.498C104.259 133.487 105.026 133.372 105.768 133.158C108.38 132.442 110.066 130.835 111.233 127.954C115.634 117.096 120.137 106.068 124.492 95.4041C128.067 86.644 131.639 77.8832 135.208 69.1212C142.897 50.3116 149.531 31.082 155.077 11.5231C155.748 9.25442 156.221 6.93056 156.488 4.57852C156.578 4.03355 156.544 3.47531 156.391 2.945C156.238 2.41468 155.968 1.92589 155.601 1.51476C155.16 1.11363 154.635 0.817045 154.064 0.646857C153.494 0.476668 152.893 0.437215 152.306 0.531243C151.528 0.62523 150.761 0.799482 150.019 1.05151L149.919 1.08216C148.251 1.58303 146.578 2.06949 144.905 2.5567C141.019 3.6879 137 4.85757 133.101 6.19107C104.937 15.8287 76.3743 26.3209 48.2047 37.3766C40.0801 40.564 31.8076 43.7787 23.807 46.8861C17.8492 49.1966 11.8949 51.5121 5.94394 53.8326ZM59.5565 83.5438C61.1071 82.2395 62.577 81.0069 64.0856 79.8484C70 75.3015 75.9201 70.7617 81.8454 66.2304C93.488 57.3147 105.528 48.0953 117.304 38.9404C120.904 36.1433 124.322 32.9988 127.627 29.9637C128.762 28.9229 129.896 27.8776 131.039 26.8465C131.951 26.0243 133.476 24.6486 132.631 21.9607C132.603 21.8729 132.558 21.7918 132.498 21.7225C132.438 21.6532 132.364 21.5973 132.281 21.5582C132.198 21.5193 132.109 21.4978 132.017 21.4951C131.926 21.4924 131.835 21.5085 131.75 21.5424C131.397 21.6862 131.056 21.8131 130.727 21.9328C130.042 22.1684 129.375 22.4534 128.731 22.7856C106.878 34.7331 87.8676 50.3999 69.4844 65.552C65.3268 68.9781 61.4082 72.5122 57.2635 76.2499C55.5036 77.8377 53.7258 79.432 51.9301 81.0335L10.9272 58.6697C11.1636 58.5229 11.4117 58.3963 11.6689 58.2911C18.2634 55.791 24.8553 53.2819 31.4445 50.7636C47.5793 44.61 64.2659 38.2463 80.7458 32.1929C95.4224 26.8017 110.441 21.5788 124.965 16.5278C129.795 14.8487 134.624 13.1663 139.451 11.4807C141.321 10.8263 143.209 10.3144 145.208 9.77318C145.738 9.63008 146.27 9.48508 146.804 9.33807C138.757 35.016 128.491 60.2022 118.558 84.5728C113.338 97.3783 107.946 110.61 102.903 123.835C89.196 112.724 75.9007 100.978 63.0389 89.6134C61.3019 88.077 59.561 86.5399 57.8166 85.0022C58.4097 84.5045 58.988 84.0193 59.5546 83.5438H59.5565ZM67.1746 103.131L55.4157 113.163L54.4834 91.3281L67.1746 103.131Z" fill="black"/>
</g>
<defs>
<clipPath id="clip0_8_2609">
<rect width="157" height="134" fill="white"/>
</clipPath>
</defs>
</svg>
