<svg width="163" height="160" viewBox="0 0 163 160" fill="none" xmlns="http://www.w3.org/2000/svg">
<g clip-path="url(#clip0_8_2613)">
<path d="M152.466 21.2202C151.432 22.0228 150.795 22.4229 150.272 22.9374C129.865 43.0176 109.473 63.1125 89.0972 83.2222C84.2724 88.0008 79.7736 93.1084 75.1189 98.0515C74.3307 98.9868 73.4576 99.8473 72.5109 100.622C71.9913 101.06 71.3373 101.308 70.658 101.326C69.9779 101.345 69.3116 101.132 68.7691 100.723C68.269 100.348 67.915 99.8115 67.7663 99.2053C67.6177 98.5992 67.6842 97.9604 67.9548 97.3979C68.4542 96.0444 69.1721 94.7813 70.0803 93.6587C74.7747 88.0105 79.2389 82.1224 84.3721 76.8931C103.958 56.9413 123.769 37.2105 143.493 17.394C144.402 16.4834 145.278 15.5343 146.631 14.121C142.347 14.121 138.802 14.2192 135.265 14.0852C133.039 14.0273 130.826 13.744 128.658 13.2397C126.361 12.6732 125.371 10.8124 125.985 8.99122C126.484 7.50634 127.821 6.75525 130.049 6.74485C135.733 6.71883 141.42 6.79486 147.102 6.65177C150.548 6.56462 153.987 6.15554 157.429 5.87131C161.836 5.51099 163.485 7.60462 162.471 11.935C162.052 14.1124 161.796 16.3177 161.704 18.5328C161.221 24.5094 160.839 30.4951 160.298 36.4665C160.133 37.7898 159.748 39.0762 159.158 40.2725C158.814 41.1033 158.205 41.7984 157.427 42.2511C156.648 42.7037 155.742 42.8886 154.848 42.7779C153.952 42.6327 153.14 42.1708 152.558 41.4766C151.976 40.7824 151.664 39.9025 151.679 38.9977C151.589 36.1164 151.836 33.2235 151.971 30.3376C152.103 27.4745 152.279 24.612 152.466 21.2202Z" fill="black"/>
<path d="M113.544 6.46201C113.294 9.31016 110.878 10.8047 108.013 10.7586C97.1056 10.5816 90.2133 11.5893 79.3034 11.3636C65.2587 11.0728 51.2131 10.6188 37.1678 10.6012C30.9826 10.5822 24.8059 11.0631 18.6986 12.0392C14.6307 12.6968 12.1727 13.0851 10.4775 20.5811C9.70552 23.995 9.09981 73.7972 9.18262 88.153C9.27911 104.846 9.17675 121.541 9.15197 138.234C9.14356 140.445 9.29176 142.654 9.5954 144.844C9.83044 146.513 10.6353 148.049 11.8741 149.194C13.113 150.34 14.71 151.024 16.3957 151.131C16.8038 151.156 17.2107 151.171 17.6175 151.17C38.3727 151.148 59.131 151.229 79.8837 150.917C95.9463 150.675 111.997 149.731 128.071 150.429C131.859 150.593 135.66 150.607 139.45 150.5C140.422 150.464 141.391 150.377 142.354 150.24C143.604 150.071 144.759 149.486 145.633 148.579C146.507 147.672 147.047 146.496 147.167 145.244C147.512 141.592 147.921 137.923 147.897 134.264C147.771 114.639 148.694 78.7923 148.664 56.907C148.662 55.7619 149.075 54.6546 149.827 53.7891C150.578 52.9236 151.618 52.3578 152.754 52.1959C153.431 52.0986 154.12 52.1475 154.776 52.3392C155.432 52.5308 156.038 52.8609 156.555 53.3068C157.071 53.7528 157.486 54.3045 157.77 54.9243C158.055 55.544 158.202 56.2176 158.203 56.8992C158.213 81.2717 157.8 113.494 157.759 136.21C157.704 140.453 157.169 144.676 156.163 148.799C155.508 151.542 154.01 154.013 151.876 155.863C149.742 157.713 147.081 158.85 144.266 159.113C141.901 159.341 139.525 159.428 137.15 159.377C117.74 158.915 98.3333 158.821 73.9994 159.856C58.1811 159.856 37.4299 159.901 16.68 159.803C13.7887 159.713 10.9148 159.32 8.10551 158.632C4.78425 157.906 1.80333 155.702 1.19045 152.377C0.377247 147.702 -0.015546 142.963 0.0168234 138.217C-0.0412046 120.972 0.336919 103.728 0.436023 86.4827C0.529259 70.1263 0.401538 53.7673 0.524766 37.4135C0.584315 29.5219 0.845082 21.6343 1.30713 13.7505C1.59988 8.78919 4.22225 5.23021 9.06206 3.47802C15.1061 1.2933 21.3992 0.948562 27.7595 0.850351C40.8053 0.647424 53.8616 0.530915 66.9036 0.826852C83.5668 1.20604 91.782 1.27566 107.645 1.88249C110.76 2.00216 113.817 3.36221 113.546 6.46074L113.544 6.46201Z" fill="black"/>
</g>
<defs>
<clipPath id="clip0_8_2613">
<rect width="163" height="160" fill="white"/>
</clipPath>
</defs>
</svg>
