<svg width="115" height="110" viewBox="0 0 115 110" fill="none" xmlns="http://www.w3.org/2000/svg">
<g clip-path="url(#clip0_8_2611)">
<path d="M0.55188 50.3838C0.728257 39.0603 0.946634 24.1133 1.21604 9.1708C1.26773 7.62646 1.46065 6.09019 1.79236 4.58118C2.59542 0.654175 4.54848 -0.401112 8.23623 1.2353C13.0817 3.38483 17.8245 5.75436 22.6636 7.91492C42.5172 16.7796 62.3198 25.7665 82.2952 34.3536C89.9796 37.6575 98.0703 40.0128 105.973 42.8074C107.324 43.285 108.686 43.7483 110.001 44.3093C110.777 44.6153 111.474 45.0944 112.037 45.7103C112.6 46.3262 113.016 47.0628 113.252 47.8637C113.414 48.3904 113.511 48.9429 113.72 49.4489C115.539 53.8386 115.298 55.1676 111.186 57.6018C100.547 63.9054 89.8827 70.1761 79.0875 76.2061C60.5527 86.5105 41.5023 95.8566 22.0117 104.208C17.4627 106.168 12.6437 107.504 7.94097 109.098C7.31157 109.307 6.65575 109.426 5.99306 109.452C3.87137 109.537 2.90809 108.854 2.61607 106.711C2.03658 103.117 1.65226 99.4931 1.46479 95.8566C1.08813 81.9119 0.886543 67.9606 0.55188 50.3838ZM11.3244 100.402C40.5225 87.3517 68.9469 72.6304 96.4571 56.3116C93.7701 56.3116 91.7356 56.2107 89.7141 56.3304C83.7625 56.6817 77.8161 57.1165 71.8677 57.5254C63.4957 58.1007 55.1297 58.7937 46.7502 59.233C35.0719 59.8451 23.413 61.3639 11.6823 60.2076C11.2444 60.2474 10.8124 60.337 10.3947 60.4749C10.699 73.5894 11.0046 86.6878 11.3244 100.404V100.402ZM10.3695 52.5897C11.8316 52.6739 12.9202 52.8238 14.0024 52.7837C20.2873 52.5508 26.5845 52.4537 32.852 51.9743C48.1496 50.8031 63.433 49.4508 78.7225 48.1657C82.4051 47.8564 86.0838 47.5264 89.7644 47.2068C62.3302 36.2171 36.0914 22.9214 9.01603 10.5671C9.20274 24.8981 9.71055 38.6566 10.3695 52.5923V52.5897Z" fill="black"/>
</g>
<defs>
<clipPath id="clip0_8_2611">
<rect width="115" height="110" fill="white"/>
</clipPath>
</defs>
</svg>
