<svg width="148" height="147" viewBox="0 0 148 147" fill="none" xmlns="http://www.w3.org/2000/svg">
<path d="M19.3894 54.2336C19.3894 51.6956 19.287 49.8362 19.4183 47.9984C19.545 46.2263 18.6786 45.7702 17.1211 45.6021C13.9648 45.3458 10.8266 44.902 7.72303 44.273C3.1477 43.2131 0.755329 40.6317 0.715948 36.0032C0.644408 27.6021 1.01064 19.195 1.26989 10.7926C1.34209 8.43765 2.48279 6.44505 4.6684 5.56752C7.5635 4.40515 10.5827 2.94218 13.6038 2.80172C36.426 1.74108 59.256 0.767023 82.0946 0.18879C96.731 -0.181385 111.39 0.0766199 126.036 0.254487C130.079 0.348166 134.107 0.790578 138.075 1.57694C143.553 2.60476 145.8 5.09032 146.546 10.557C147.585 18.1633 148.015 25.807 146.647 33.4192C145.331 40.7478 141.716 44.0085 134.297 44.7338C132.016 44.957 129.714 44.9734 127.421 45.0843C124.161 45.2425 124.067 45.3718 124.715 49.1287C125.716 49.2107 126.781 49.3098 127.848 49.3826C130.138 49.5389 132.438 49.6006 134.719 49.8421C143.863 50.8161 146.454 53.1028 147.263 62.1983C147.874 68.4995 147.969 74.8401 147.545 81.1566C146.928 89.2985 143.09 92.7876 135.024 93.671C130.798 94.1344 126.546 94.351 122.028 94.7008C122.132 96.6652 122.225 98.4597 122.339 100.593C123.455 100.703 124.505 100.79 125.555 100.911C129.784 101.41 134.048 101.721 138.23 102.486C142.218 103.214 144.981 105.666 145.658 109.822C147.002 118.062 147.477 126.352 145.929 134.617C144.636 141.519 140.936 145.001 133.855 145.381C124.798 145.867 115.723 145.961 106.653 146.078C81.7304 146.398 56.8059 146.718 31.8815 146.865C25.4428 146.903 18.9983 146.34 12.5602 145.982C11.0336 145.872 9.51873 145.634 8.03149 145.272C2.4454 144.01 0.0550452 141.511 0.00713251 135.745C-0.0585013 127.778 0.34385 119.806 0.597853 111.839C0.681864 109.22 1.89409 107.064 4.33895 106.129C7.9429 104.745 11.6841 103.718 16.0487 102.322C16.1924 101.285 16.4523 99.4081 16.7431 97.3039C14.1007 96.895 11.7346 96.6305 9.41443 96.1481C4.18604 95.0612 1.68865 92.5067 1.54294 87.1844C1.32241 79.1115 1.50881 71.0241 1.58757 62.9433C1.61316 60.331 2.78411 58.1428 5.22306 57.1674C8.23817 55.998 11.3303 55.0377 14.4774 54.2934C15.8905 53.9449 17.4618 54.2336 19.3894 54.2336ZM74.3203 87.424C74.3203 87.2756 74.3203 87.1267 74.3203 86.9783C78.0313 86.9783 81.7448 87.0682 85.4531 86.9626C101.069 86.5184 116.683 86.0372 132.295 85.5186C137.048 85.3592 138.227 84.4377 138.393 79.716C138.602 73.7335 138.3 67.7319 138.196 61.7395C138.159 59.6924 137.231 58.5149 135.024 58.4256C132.954 58.3423 130.897 57.9603 128.827 57.8836C102.912 56.9194 77.0638 58.3554 51.2218 60.0763C37.4939 60.9908 23.7596 61.8104 10.0189 62.535C7.82873 62.6538 7.50253 63.7696 7.61214 65.5056C8.03679 72.2659 8.47844 79.0183 8.85912 85.7773C8.99039 88.1171 10.288 89.059 12.4605 89.0826C22.1743 89.1876 31.8966 89.5768 41.6019 89.3004C52.5168 88.9861 63.4146 88.0751 74.3203 87.424ZM69.5704 108.657L69.5566 109.092C62.14 109.485 54.7234 109.945 47.2989 110.253C34.6394 110.778 21.9772 111.238 9.31203 111.632C7.03651 111.697 6.50621 112.757 6.58694 114.695C6.84947 121.025 7.05944 127.356 7.33116 133.685C7.49328 137.467 7.81094 138.07 11.7549 138.26C21.132 138.714 30.5262 139.187 39.9118 139.063C58.5925 138.815 77.2666 138.116 95.9453 137.711C107.635 137.457 119.329 137.443 131.019 137.233C135.399 137.155 136.684 136.201 136.936 131.945C137.297 125.86 137.155 119.744 137.196 113.641C137.209 111.59 136.251 110.398 134.082 110.224C131.688 110.032 129.309 109.507 126.917 109.467C107.801 109.149 88.6856 108.915 69.5697 108.657H69.5704ZM69.6176 7.89491L69.6059 8.40423C63.2768 8.71993 56.949 9.07957 50.6173 9.34211C37.1919 9.89934 23.7666 10.4625 10.3366 10.8773C8.08799 10.9468 7.10543 11.5691 7.20978 13.8604C7.49201 20.0792 7.69024 26.3025 7.94752 32.5226C8.12408 36.8052 8.37478 37.3599 12.618 37.564C21.8888 38.011 31.1786 38.4507 40.4527 38.3246C58.5886 38.0779 76.7173 37.3828 94.8512 36.9877C107.087 36.7206 119.328 36.6819 131.565 36.4745C136.104 36.3977 137.297 35.5077 137.594 30.954C137.97 25.1959 137.953 19.4024 137.849 13.6267C137.784 10.133 137.395 9.92096 133.81 9.36438C132.089 9.05685 130.349 8.86717 128.602 8.79665C108.942 8.4698 89.2802 8.16926 69.6176 7.89491ZM112.723 94.5879L24.9322 97.615C25.2459 99.5459 25.5164 101.212 25.7953 102.927L112.394 99.9955C112.482 98.5443 112.58 96.9383 112.723 94.5879ZM28.353 53.3659L114.143 48.6358C114.292 48.223 114.4 47.7961 114.463 47.3618C114.45 46.6218 114.386 45.8836 114.27 45.1526L27.3712 46.2217C27.6081 48.5845 27.7827 50.4223 27.9875 52.2601C28.0747 52.6391 28.1966 53.0093 28.3518 53.3659H28.353Z" fill="black"/>
<path d="M47.0438 76.9847C40.8978 77.2748 32.9358 77.6653 24.9711 78.0145C23.5587 78.0762 21.9893 78.3289 20.7659 77.8281C19.6632 77.3759 18.3946 76.1013 18.2147 75.0203C18.073 74.1671 19.2872 72.5223 20.2395 72.1829C22.3079 71.4869 24.469 71.1051 26.6507 71.0501C42.4741 70.4319 58.3001 69.8763 74.1288 69.3837C75.6567 69.3531 77.1843 69.4559 78.6943 69.6908C80.4782 69.9481 81.8342 70.9379 81.9143 72.8459C81.9944 74.7538 80.6758 75.9306 78.9535 76.2542C76.7052 76.6862 74.4234 76.92 72.1342 76.9532C64.3789 77.0352 56.623 76.9847 47.0438 76.9847Z" fill="black"/>
<path d="M128.545 75.8273C127.446 75.8009 126.4 75.3444 125.634 74.556C124.867 73.7675 124.441 72.7099 124.445 71.6103C124.538 69.0985 126.246 67.2372 128.419 67.2785C129.567 67.3427 130.65 67.8358 131.452 68.6603C132.255 69.4848 132.718 70.5806 132.751 71.7305C132.733 72.8306 132.281 73.8791 131.493 74.6468C130.705 75.4145 129.645 75.8389 128.545 75.8273Z" fill="black"/>
<path d="M114.532 76.271C113.431 76.2679 112.375 75.8339 111.59 75.0618C110.805 74.2897 110.353 73.2409 110.332 72.1399C110.308 69.8257 111.784 68.4953 114.356 68.5124C117.014 68.5294 118.681 70.0508 118.597 72.3848C118.546 73.4297 118.095 74.415 117.339 75.1379C116.583 75.8608 115.578 76.2664 114.532 76.271Z" fill="black"/>
<path d="M98.0044 69.0669C98.9853 69.1015 99.9199 69.4929 100.633 70.1676C101.346 70.8422 101.788 71.7537 101.877 72.7312C101.882 73.221 101.785 73.7064 101.592 74.1566C101.399 74.6067 101.114 75.0117 100.756 75.3458C100.398 75.6798 99.9742 75.9356 99.5117 76.0966C99.0492 76.2577 98.5582 76.3206 98.07 76.2814C97.1384 76.2346 96.2603 75.832 95.6169 75.1566C94.9735 74.4812 94.6139 73.5846 94.6124 72.6518C94.5874 72.1907 94.6565 71.7293 94.8156 71.2958C94.9747 70.8623 95.2205 70.4658 95.5378 70.1303C95.8552 69.7949 96.2376 69.5276 96.6617 69.3447C97.0857 69.1619 97.5426 69.0674 98.0044 69.0669Z" fill="black"/>
<path d="M47.8934 127.455C39.9299 127.455 31.9677 127.455 24.0067 127.455C22.6981 127.497 21.3882 127.468 20.0825 127.371C18.29 127.178 16.915 126.308 16.8336 124.327C16.7581 122.493 18.0058 121.517 19.6152 121.193C21.5338 120.768 23.4874 120.521 25.4513 120.454C41.49 120.212 57.5296 120.02 73.5701 119.879C74.9772 119.865 76.5662 119.8 77.7444 120.399C78.9323 121.003 80.4459 122.39 80.4682 123.462C80.4911 124.546 79.061 126.018 77.9019 126.672C76.7585 127.316 75.1584 127.301 73.7571 127.31C65.1361 127.36 56.5151 127.335 47.8974 127.335L47.8934 127.455Z" fill="black"/>
<path d="M127.037 118.967C128.196 118.978 129.306 119.435 130.137 120.243C130.968 121.051 131.456 122.148 131.5 123.306C131.502 124.356 131.107 125.369 130.394 126.141C129.681 126.913 128.702 127.387 127.655 127.468C126.55 127.525 125.468 127.141 124.646 126.4C123.824 125.659 123.329 124.623 123.271 123.518C123.196 121.072 124.89 119.028 127.037 118.967Z" fill="black"/>
<path d="M109.115 123.497C109.083 121.209 110.615 119.794 113.095 119.821C115.721 119.853 117.403 121.39 117.335 123.705C117.292 124.745 116.85 125.729 116.101 126.453C115.352 127.177 114.353 127.584 113.312 127.592C112.216 127.593 111.163 127.165 110.379 126.4C109.594 125.634 109.141 124.592 109.115 123.497Z" fill="black"/>
<path d="M97.0938 127.224C96.6074 127.24 96.1229 127.157 95.6697 126.979C95.2165 126.802 94.804 126.534 94.4573 126.193C94.1105 125.851 93.8367 125.443 93.6525 124.993C93.4683 124.542 93.3774 124.059 93.3855 123.573C93.3745 123.114 93.4549 122.657 93.622 122.23C93.7891 121.802 94.0396 121.412 94.3589 121.082C94.6781 120.752 95.0598 120.489 95.4817 120.308C95.9035 120.127 96.3572 120.032 96.8162 120.028C97.7897 120.094 98.7073 120.508 99.4021 121.193C100.097 121.878 100.523 122.79 100.603 123.762C100.606 124.222 100.518 124.678 100.342 125.102C100.167 125.527 99.9075 125.912 99.5803 126.235C99.2531 126.558 98.8644 126.812 98.4373 126.982C98.0102 127.152 97.5534 127.234 97.0938 127.224Z" fill="black"/>
<path d="M48.7481 26.6669H25.1856C23.8729 26.6669 22.5648 26.7174 21.2574 26.6669C19.3494 26.5933 17.6889 25.9324 17.4848 23.8026C17.2577 21.426 19.0259 20.5865 20.9726 20.2583C22.9069 19.9118 24.8646 19.7111 26.8291 19.6579C41.8859 19.4238 56.9438 19.2316 72.0028 19.0816C74.0677 19.0612 76.2329 19.0271 78.1665 19.6125C78.8435 19.8575 79.4606 20.2439 79.9766 20.746C80.4925 21.2482 80.8955 21.8545 81.1588 22.5247C81.6838 24.3263 80.2005 25.5635 78.4743 26.0151C77.1056 26.3718 75.698 26.5576 74.2836 26.5684C65.7716 26.6176 57.2595 26.5933 48.7481 26.5933V26.6669Z" fill="black"/>
<path d="M128.159 26.7028C127.611 26.7236 127.064 26.6342 126.551 26.4403C126.037 26.2464 125.568 25.9517 125.17 25.5736C124.773 25.1954 124.455 24.7415 124.236 24.2386C124.016 23.7357 123.9 23.194 123.893 22.6454C123.888 20.1821 125.631 18.1881 127.782 18.1973C128.883 18.2532 129.926 18.704 130.722 19.467C131.518 20.2301 132.012 21.2543 132.113 22.352C132.147 22.899 132.07 23.4472 131.889 23.9641C131.707 24.4811 131.423 24.9564 131.054 25.362C130.686 25.7675 130.24 26.0951 129.742 26.3254C129.245 26.5557 128.707 26.6841 128.159 26.7028Z" fill="black"/>
<path d="M113.999 26.8235C113.457 26.8397 112.917 26.7489 112.41 26.5562C111.902 26.3636 111.438 26.073 111.043 25.7009C110.648 25.3288 110.331 24.8825 110.108 24.3876C109.886 23.8927 109.763 23.3589 109.747 22.8166C109.682 20.4971 111.166 19.0794 113.655 19.0899C116.298 19.1011 117.99 20.5995 117.962 22.9025C117.942 23.9434 117.517 24.9354 116.777 25.6677C116.037 26.4 115.04 26.8146 113.999 26.8235Z" fill="black"/>
<path d="M97.3623 26.4956C96.8759 26.4644 96.4009 26.334 95.9668 26.1122C95.5327 25.8905 95.1486 25.5822 94.8382 25.2063C94.5277 24.8305 94.2976 24.3951 94.1619 23.9269C94.0262 23.4587 93.9878 22.9676 94.0491 22.484C94.3254 20.5537 95.394 19.2969 97.4837 19.3297C98.5175 19.3753 99.4912 19.8286 100.191 20.5906C100.891 21.3527 101.261 22.3611 101.219 23.3951C101.118 24.3172 100.655 25.1615 99.9318 25.7428C99.2088 26.3241 98.2847 26.5948 97.3623 26.4956Z" fill="black"/>
</svg>
