<svg width="156" height="133" viewBox="0 0 156 133" fill="none" xmlns="http://www.w3.org/2000/svg">
<g clip-path="url(#clip0_8_2616)">
<path d="M125.728 116.642C125.305 118.028 125.004 119.205 124.591 120.34C121.968 127.559 116.387 131.078 109.217 132.496C103.5 133.639 97.564 132.499 92.6737 129.318C87.8797 126.351 85.5689 121.873 85.1002 116.058C84.1538 115.977 83.2036 115.831 82.2521 115.823C61.5502 115.661 40.8475 115.549 20.1462 115.34C15.6196 115.294 11.0904 114.988 6.57545 114.638C5.36232 114.566 4.20398 114.107 3.26967 113.328C2.49837 112.449 2.05261 111.331 2.00742 110.161C1.92651 108.799 3.01334 108.021 4.32154 107.733C4.96596 107.588 5.62275 107.506 6.28284 107.487C14.4654 107.327 22.6473 107.138 30.8305 107.047C46.4396 106.874 62.0484 106.734 77.6569 106.626C80.9698 106.599 84.2833 106.622 87.1981 106.622C89.5122 103.916 91.3965 101.285 93.7029 99.1013C99.3538 93.7508 106.172 92.6089 113.459 94.6805C118.553 96.1292 122.231 99.3089 123.298 104.856C123.401 105.394 123.63 105.91 123.954 106.913C124.995 106.913 126.172 106.899 127.348 106.913C134.322 107.005 141.296 107.061 148.269 107.234C149.812 107.28 151.339 107.558 152.8 108.058C153.707 108.353 154.488 108.947 155.016 109.743C155.545 110.538 155.79 111.489 155.713 112.442C155.733 113.342 155.458 114.224 154.932 114.954C154.405 115.684 153.655 116.221 152.795 116.484C151.323 116.936 149.788 117.152 148.248 117.124C141.938 117.032 135.631 116.808 129.322 116.644C128.223 116.618 127.121 116.642 125.728 116.642ZM115.709 112.101C115.692 108.857 114.932 105.628 113.438 103.641C112.861 102.879 112.045 102.334 111.122 102.092C104.592 100.776 97.6113 105.745 95.9374 111.546C94.4842 116.584 96.0778 119.771 100.986 121.567C109.056 124.52 115.751 120.219 115.709 112.102V112.101Z" fill="black"/>
<path d="M58.5256 59.9005C61.7148 59.9005 64.5798 59.9705 67.4412 59.8887C80.9478 59.5025 94.4564 59.0902 107.966 58.652C120.367 58.2342 132.764 57.7263 145.164 57.2819C146.71 57.1702 148.262 57.2012 149.803 57.3741C150.918 57.494 151.955 58.0071 152.728 58.8221C153.501 59.6371 153.96 60.7007 154.022 61.8233C154.045 63.8495 152.607 65.5822 150.178 66.2349C149.105 66.4996 148.005 66.6365 146.902 66.6411C126.856 67.0887 106.811 67.524 86.7671 67.947C77.7961 68.1495 68.8271 68.4291 59.8571 68.6834C59.3159 68.699 58.7767 68.8041 57.9579 68.8995C55.8412 79.1813 48.5416 83.497 38.9738 83.5619C30.4294 83.6229 23.9519 79.3954 21.2157 70.6778C16.9015 70.4831 12.7088 70.3482 8.52464 70.0776C6.98419 69.9622 5.45997 69.6858 3.97671 69.253C3.31931 69.0921 2.74128 68.6996 2.34731 68.1482C1.95334 67.5967 1.76947 66.922 1.82896 66.2459C1.82555 65.5673 2.0724 64.9107 2.52217 64.4029C2.97194 63.8951 3.59297 63.5718 4.26607 63.4947C5.46224 63.2824 6.67646 63.1894 7.89093 63.2176C12.1987 63.1871 16.5072 63.2052 20.8577 63.2052C21.3108 61.8791 21.6752 60.9723 21.9322 60.0361C22.9212 56.3646 24.9546 53.0606 27.7845 50.5273C29.6127 48.9344 31.823 47.8453 34.198 47.3671C37.6843 46.7658 41.2261 46.5511 44.7594 46.7269C51.4305 46.9617 55.5046 50.8234 57.7002 56.9128C58.0343 57.8464 58.233 58.8287 58.5256 59.9005ZM38.2456 56.0302C36.9361 56.3248 34.6271 56.304 32.9539 57.3278C28.9283 59.7932 29.0338 69.0565 32.9998 71.6873C36.6144 74.0878 40.5124 73.9801 44.3554 72.1732C47.8127 70.548 48.1882 67.1127 48.249 64.0181C48.3351 59.6408 47.2477 56.8018 41.6563 56.3509C40.7805 56.2795 39.9001 56.1853 38.2456 56.0302Z" fill="black"/>
<path d="M96.9307 23.2841C95.9202 23.2841 95.1538 23.2783 94.3881 23.2841C67.481 23.5004 40.5745 23.7143 13.6695 23.9262C11.3449 23.9444 9.02022 23.9065 6.69549 23.8122C5.47837 23.7704 4.26788 23.6131 3.08032 23.3424C1.15653 22.8883 -0.0383671 21.5117 0.0166536 19.9176C0.00828561 19.1288 0.277735 18.3623 0.777621 17.753C1.27751 17.1438 1.97579 16.7307 2.74956 16.5866C4.0305 16.2558 5.33941 16.0456 6.65931 15.9581C35.1859 14.1221 63.7579 14.0634 92.3238 13.7909C93.9751 13.7754 95.6251 13.7909 97.3456 13.7909C97.9579 12.5031 98.4985 11.4328 98.982 10.337C100.132 7.52909 102.259 5.23489 104.97 3.8809C108.955 1.95467 113.111 0.385482 117.592 0.0740674C125.304 -0.462474 129.994 2.65224 132.573 9.93088C132.897 10.8534 133.191 11.7883 133.592 13.0003C137.585 12.8115 141.54 12.587 145.498 12.4566C146.929 12.3641 148.365 12.4489 149.774 12.7095C150.712 12.8883 151.566 13.3743 152.199 14.0912C152.832 14.8083 153.21 15.7157 153.274 16.6712C153.337 17.6267 153.082 18.5765 152.549 19.3712C152.016 20.1659 151.235 20.7607 150.328 21.0625C148.973 21.5344 147.561 21.8265 146.13 21.9308C141.842 22.3129 137.542 22.5827 133.055 22.911C130.401 32.5129 123.447 36.4282 114.114 36.1733C105.773 35.9449 99.4325 32.26 96.9307 23.2841ZM105.072 18.282C104.369 22.7405 108.716 27.5251 113.373 27.3707C120.322 27.1404 124.466 23.2268 124.463 18.0216C124.463 12.1696 121.707 9.01357 115.253 8.71318C109.127 8.42837 105.122 12.3911 105.072 18.282Z" fill="black"/>
</g>
<defs>
<clipPath id="clip0_8_2616">
<rect width="156" height="133" fill="white"/>
</clipPath>
</defs>
</svg>
