<svg width="160" height="159" viewBox="0 0 160 159" fill="none" xmlns="http://www.w3.org/2000/svg">
<g clip-path="url(#clip0_8_2620)">
<path d="M151.851 63.8205C150.102 63.853 148.375 63.8432 146.988 63.8348L146.067 63.8303L137.313 47.4411C137.831 46.8349 138.374 46.2151 138.928 45.5804C140.553 43.723 142.232 41.8016 143.787 39.7288C145.744 37.1205 145.582 34.1007 143.365 31.8494L143.224 31.7058C137.681 26.0753 131.948 20.2532 126.051 14.796C124.376 13.2455 122.898 12.5567 121.42 12.6203C119.857 12.6897 118.31 13.628 116.554 15.571C115.283 16.9761 114.055 18.3818 112.754 19.8705C112.33 20.3582 111.899 20.8504 111.463 21.3475C107.583 17.4167 102.722 15.0692 95.8651 13.8063C95.8651 13.4092 95.8729 13.0159 95.878 12.6265C95.8942 11.3701 95.9098 10.1839 95.8495 8.97163C95.4997 1.98145 93.524 0.066889 86.6557 0.0649414H86.6C82.3001 0.0649414 77.9347 0.216762 73.7138 0.364081C71.7057 0.433522 69.7035 0.504134 67.698 0.558648C64.6144 0.643015 62.7229 2.34271 62.3718 5.34424C62.1425 7.30803 61.9922 9.26951 61.8594 11.0003C61.8173 11.5539 61.7771 12.0826 61.7369 12.5771L46.2306 21.3568C45.9126 20.9674 45.588 20.5656 45.259 20.1561C44.1882 18.8302 43.0811 17.4582 41.8827 16.1278C40.1693 14.225 38.5143 13.2633 36.8216 13.1893C35.1724 13.1277 33.5103 13.8817 31.7425 15.5301C26.699 20.2333 21.8866 24.9331 17.4403 29.4994C13.8005 33.2355 13.6268 36.3787 16.8216 40.7178C17.9604 42.2623 19.2281 43.7225 20.2464 44.8959C20.5431 45.2379 20.821 45.5569 21.0723 45.8522L14.1567 64.4781C13.4396 64.543 12.7115 64.6022 11.9763 64.6619C9.95848 64.8267 7.87207 64.9969 5.79726 65.276C2.01621 65.7835 0.543795 67.4455 0.545091 71.2018C0.545091 78.4509 0.621515 84.4851 0.77504 90.1916C0.832044 92.3144 1.42669 93.885 2.54345 94.8584C3.69649 95.8643 5.33473 96.233 7.5592 95.9818C8.81005 95.8423 10.057 95.6794 11.3046 95.5158L11.6317 95.4724C11.6396 95.5437 11.6586 95.6132 11.6881 95.6787L19.5087 112.742C18.502 113.516 17.4936 114.286 16.4836 115.054C15.3806 115.895 14.2794 116.737 13.1799 117.581C9.96114 120.06 9.36253 122.887 11.3998 125.983C14.7384 131.054 18.664 136.912 23.0151 142.261C26.8667 146.998 29.9909 147.336 35.3946 143.612C37.6437 142.061 39.8818 140.497 42.1367 138.918L44.7783 137.071C50.6614 141.75 56.5283 143.886 63.041 143.79C62.9814 144.342 62.9231 144.867 62.8667 145.373C62.6983 146.883 62.5526 148.187 62.4612 149.519C62.2241 153.002 62.6925 155.165 63.979 156.537C65.2332 157.872 67.2788 158.471 70.5954 158.471H70.8092C75.3048 158.438 79.8742 158.358 84.2926 158.283C86.1167 158.25 87.9402 158.22 89.7644 158.19C92.3082 158.15 94.1044 157.511 95.2614 156.235C96.4183 154.959 96.8808 153.103 96.6696 150.564C96.5271 148.818 96.3684 147.073 96.2252 145.505L96.0957 144.087L109.677 138.357L109.958 138.741C110.462 139.429 110.975 140.129 111.482 140.833C111.735 141.185 111.982 141.541 112.228 141.898C112.672 142.539 113.13 143.202 113.624 143.832C116.057 146.935 118.737 147.593 122.315 145.97C123.493 145.476 124.602 144.827 125.611 144.041C126.77 143.077 127.929 142.114 129.091 141.152C133.828 137.225 138.726 133.164 143.38 128.979C145.498 127.073 146.471 125.478 146.536 123.806C146.601 122.101 145.694 120.354 143.596 118.144C142.063 116.532 140.517 114.934 139.097 113.467L137.672 111.991L146.639 94.8519C147.004 94.8169 147.401 94.7799 147.824 94.741C149.24 94.6112 150.998 94.447 152.735 94.2412C156.438 93.8032 157.757 92.5915 158.613 88.8417C160.356 81.2091 159.002 73.7601 157.629 68.1237C156.93 65.2513 154.928 63.7861 151.851 63.8205ZM136.471 90.3402C134.581 97.9852 131.912 103.313 127.815 107.616C126.154 109.361 126.214 111.805 127.98 114.321C129.584 116.606 131.257 118.823 133.028 121.171C133.657 122.006 134.297 122.855 134.949 123.727L119.642 135.914C119.215 135.405 118.797 134.903 118.388 134.407C117.184 132.959 116.048 131.591 114.848 130.246C111.655 126.668 109.98 126.815 105.88 129.174C102.628 130.974 99.2024 132.44 95.6558 133.551C87.5166 136.27 86.9044 139.903 86.8636 145.564C86.8584 146.282 86.8099 147.023 86.758 147.808C86.7444 148.007 86.7315 148.209 86.7185 148.417H71.6254L71.5431 146.6C71.4673 144.908 71.3941 143.281 71.3119 141.656C71.0793 137.099 70.118 135.449 65.1814 135.271C57.7862 135.004 51.5656 132.836 46.1632 128.642C44.1078 127.044 41.7292 127.178 38.8906 129.047C36.7744 130.442 34.6918 131.882 32.4861 133.408C31.6773 133.968 30.8485 134.54 29.9999 135.124L20.3521 122.16C20.9489 121.659 21.5379 121.161 22.1191 120.665C23.7917 119.244 25.3704 117.901 27.0326 116.623C29.7752 114.514 30.0026 113.276 28.194 110.31C24.9137 104.93 21.5258 98.4129 21.2674 90.8666C21.178 88.2233 19.6298 86.8351 16.6682 86.7397C14.9263 86.6832 13.1702 86.6956 11.304 86.7072C10.6426 86.7118 9.96302 86.717 9.25824 86.7189L8.60082 74.0197C9.55563 73.9191 10.4794 73.814 11.3791 73.7121C13.7759 73.4395 16.0431 73.1832 18.2909 73.0787C21.0666 72.9489 22.6905 71.4705 23.118 68.6779C24.3643 60.5447 26.6633 54.2416 30.3524 48.8395C30.9553 48.0721 31.2867 47.126 31.2947 46.1495C31.3027 45.1729 30.9868 44.2211 30.3964 43.4439C29.037 41.4706 27.6719 39.5035 26.3012 37.5422L25.0426 35.7335L37.4002 23.1322C37.8873 23.6081 38.3746 24.0842 38.8622 24.5601C40.2873 25.9535 41.7577 27.3929 43.2314 28.7915C46.123 31.5328 46.9464 31.1576 49.9644 29.1315C53.7798 26.5686 57.862 23.909 62.1327 22.027C65.8058 20.409 69.0907 18.5291 68.9346 13.3665C68.9527 12.276 69.0997 11.1916 69.3731 10.1358C69.4612 9.72503 69.5499 9.30319 69.6322 8.86708H86.8461C86.85 9.22207 86.8571 9.58076 86.8636 9.94224C86.8882 11.2318 86.9135 12.5643 86.8202 13.8688C86.4549 18.9483 88.1514 21.1055 92.8711 21.5618C97.8589 22.0446 102.221 24.2655 107.006 28.7655C109.552 31.1576 110.958 31.6078 113.777 29.3701C115.655 27.8774 117.396 26.3025 119.238 24.6327C119.87 24.0607 120.507 23.4865 121.15 22.9098L133.493 35.9296C133.202 36.2353 132.891 36.5589 132.563 36.899C131.295 38.2203 129.856 39.7183 128.433 41.2856C124.624 45.4826 124.6 47.0614 128.279 51.2149C132.177 55.5022 134.923 60.7119 136.259 66.3546C137.005 69.6177 138.875 71.2044 142.147 71.3511C143.717 71.4205 145.286 71.5062 147.056 71.6003L149.106 71.7093L149.834 85.3424H147.919C146.213 85.3385 144.674 85.3372 143.133 85.3496C139.118 85.3833 137.374 86.6897 136.471 90.3402Z" fill="black"/>
<path d="M85.2683 38.2688C78.9137 37.68 72.5098 38.5854 66.5665 40.9129C60.6226 43.2404 55.3034 46.9257 51.0319 51.6755C46.7603 56.4254 43.6544 62.1087 41.9614 68.2729C40.2684 74.4376 40.0349 80.9125 41.2797 87.1829C44.5354 102.636 52.5322 112.411 65.7283 117.066C69.6188 118.412 73.7108 119.076 77.8267 119.031C81.2515 119.003 84.6672 118.671 88.0343 118.039C109.8 114.138 121.783 98.8327 121.774 74.9399V74.925C121.509 67.4507 119.023 60.225 114.631 54.1764C107.716 44.9116 97.8371 39.559 85.2683 38.2688ZM111.445 84.9796C108.859 97.9339 100.703 105.46 86.5114 107.988C81.9174 108.806 75.8912 109.516 70.0236 107.741C59.8054 104.648 53.6716 97.4491 51.2723 85.7357C50.8968 83.6726 50.6511 81.588 50.5364 79.4944C50.4626 78.521 50.3894 77.5527 50.2903 76.587C50.2721 72.6944 51.0388 68.8382 52.5442 65.2493C54.0497 61.661 56.263 58.4138 59.0514 55.7029C64.9911 49.9704 73.3351 46.9941 82.49 47.2835C92.3738 47.608 100.204 51.1691 105.763 57.8621C111.782 65.1111 113.641 73.9827 111.445 84.9796Z" fill="black"/>
</g>
<defs>
<clipPath id="clip0_8_2620">
<rect width="160" height="159" fill="white"/>
</clipPath>
</defs>
</svg>
