<svg width="167" height="166" viewBox="0 0 167 166" fill="none" xmlns="http://www.w3.org/2000/svg">
<g clip-path="url(#clip0_8_2623)">
<path d="M9.55233 134.943C11.3686 135.197 13.1397 134.565 14.8135 133.059C17.2894 130.83 19.9478 128.705 22.5163 126.65C23.5325 125.837 24.5494 125.026 25.5585 124.204C26.8945 123.118 28.2434 122.047 29.6422 120.936L31.0377 119.826C32.0579 121.162 33.091 122.476 34.0936 123.751C37.2129 127.718 40.1645 131.472 42.6061 135.69L42.3847 135.891C42.0197 136.221 41.707 136.505 41.3795 136.771C39.5498 138.254 37.7159 139.733 35.8776 141.209C32.0806 144.269 28.1535 147.43 24.3332 150.595C22.3337 152.251 21.4055 153.728 21.4126 155.241C21.4203 156.772 22.3907 158.27 24.4665 159.957C27.5433 162.534 31.2317 164.273 35.1752 165.005C37.7564 165.465 40.3727 165.699 42.9945 165.704C45.4328 165.703 47.8666 165.494 50.2693 165.078C68.4798 161.945 81.5893 144.97 80.1135 126.431C79.841 122.618 78.9257 118.88 77.4052 115.374L117.833 81.8577C118.819 82.1042 119.758 82.357 120.669 82.6009C122.656 83.1728 124.671 83.6416 126.706 84.0041C131.124 84.6797 135.631 84.4606 139.962 83.3595C144.292 82.2578 148.358 80.297 151.918 77.593C155.876 74.6536 159.204 70.9478 161.705 66.696C164.207 62.4446 165.832 57.7336 166.482 52.8416C167.751 43.8568 164.872 35.8678 162.223 29.9132C162.116 29.672 162.001 29.4329 161.887 29.1936C161.572 28.5934 161.321 27.9609 161.141 27.3072C160.697 25.3865 159.941 24.2012 158.828 23.6831C157.803 23.2065 156.532 23.3512 155.049 24.1118C153.061 25.2096 151.231 26.5691 149.604 28.1541C145.918 31.5727 142.236 35.0978 138.675 38.5079C137.415 39.7136 136.157 40.9164 134.901 42.1164L118.471 28.2754L118.51 28.2023C118.622 27.9657 118.753 27.7386 118.902 27.5237C122.9 22.2636 127.758 16.169 133.517 10.8129C134.298 10.1407 134.996 9.37897 135.6 8.54333C136.592 7.04674 136.441 5.42251 135.233 4.59316C134.959 4.40555 134.686 4.21561 134.41 4.02325C132.553 2.72637 130.633 1.38871 128.483 0.818736C125.506 0.101297 122.434 -0.137497 119.382 0.111726C112.056 0.482834 104.916 2.55628 98.5262 6.16772C86.7126 12.9711 80.6921 22.8862 80.6313 35.6377C80.597 39.8496 81.6559 43.9981 83.7059 47.676C70.4974 58.0185 58.6821 67.5117 48.1436 78.423C42.8177 75.743 37.2744 75.9894 32.5272 76.5957C20.0799 78.1895 10.9725 84.0527 5.45704 94.027C1.32358 101.458 -0.50206 109.956 0.213954 118.433C0.59197 123.341 1.80044 127.365 3.9093 130.736C5.40259 133.117 7.45707 134.648 9.55233 134.943ZM54.6353 81.9278C58.771 78.4444 62.915 74.9713 67.0674 71.51C71.7596 67.5876 76.4459 63.6581 81.1265 59.7208C82.733 58.3643 84.3124 56.9326 85.8394 55.543C87.211 54.2967 88.6285 53.0083 90.0551 51.7879C91.3808 50.6531 91.3497 49.3931 91.116 48.1987C89.7567 41.2014 89.6234 35.0225 90.7141 29.3085C91.2481 26.3196 92.3718 23.4674 94.0198 20.9187C95.6671 18.3699 97.8051 16.1758 100.309 14.4644C107.503 9.39246 116.214 6.93923 124.993 7.51238C125.56 7.55939 126.123 7.65193 126.676 7.78881C126.288 8.19408 125.948 8.55319 125.611 8.91502C124.194 10.4375 122.773 11.9571 121.35 13.4741C117.757 17.3115 114.042 21.2806 110.446 25.2393C108.015 27.9148 108.03 29.8187 110.5 32.5162C115.023 37.4553 119.504 42.1299 124.893 47.7272C125.878 48.6918 126.965 49.5468 128.133 50.277C132.322 53.0652 134.181 53.3538 138.425 49.8983C142.244 46.7897 146.007 43.4937 149.648 40.306C151.201 38.9451 152.758 37.5872 154.318 36.2323C154.933 35.7026 155.542 35.1684 156.229 34.566L156.407 34.4109C157.708 40.2838 158.826 45.8618 157.383 51.465C153.746 65.6008 143.909 73.1045 128.938 73.1713C127.135 73.1836 125.301 73.1298 123.525 73.0799C121.496 73.0241 119.397 72.9683 117.329 72.9956C116.004 73.0001 114.714 73.4203 113.64 74.1978L111.681 75.7774C105.446 80.8014 99.0006 85.9961 92.8553 91.3399C88.2499 95.3459 83.7085 99.575 79.3167 103.664C77.3748 105.473 75.4277 107.279 73.4749 109.08C73.4179 109.135 73.3642 109.192 73.3131 109.253C73.2969 109.274 73.2788 109.294 73.2587 109.313C72.9622 109.573 72.6315 109.822 72.28 110.083C71.3887 110.64 70.6411 111.399 70.0967 112.299C69.6572 113.402 69.4637 114.587 69.5303 115.772C69.5238 116.12 69.518 116.466 69.4986 116.802C69.4339 117.898 69.3957 118.996 69.3568 120.094C69.3025 121.622 69.2462 123.201 69.118 124.74C69.0241 125.868 68.9536 127.003 68.8837 128.139C68.7782 131.281 68.4079 134.41 67.7775 137.49C65.4175 147.463 58.8103 153.571 48.1378 155.643C43.8747 156.55 39.4717 156.577 35.1978 155.722C34.3214 155.536 33.4321 155.263 32.4023 154.948C32.2281 154.894 32.0489 154.839 31.8644 154.784C32.9751 153.93 34.0647 153.097 35.1332 152.283C38.4453 149.754 41.5723 147.367 44.6308 144.878C46.2194 143.53 47.7268 142.089 49.1449 140.563C49.6239 140.066 50.1036 139.57 50.5884 139.082C52.4843 137.171 52.7387 134.779 51.3238 132.164C50.3838 130.351 49.2463 128.648 47.932 127.086C44.2612 122.862 40.3587 118.537 36.3306 114.23C33.3751 111.07 31.5142 110.96 28.0324 113.736C24.6726 116.416 21.3201 119.106 17.9749 121.805C16.0589 123.346 14.1421 124.887 12.2244 126.427C11.8425 126.733 11.4477 127.025 10.981 127.374C10.9622 127.388 10.9428 127.402 10.924 127.417C9.32902 122.038 9.15794 116.336 10.4275 110.87C10.9935 108.423 11.7402 106.022 12.6613 103.685C16.2563 94.6248 23.0256 89.6312 33.357 88.418L37.7533 87.8992C41.6623 87.4363 45.5713 86.9733 49.4829 86.5375C50.2074 86.5278 50.9115 86.2963 51.5006 85.8735C52.0897 85.4507 52.5355 84.8581 52.7782 84.174C53.207 83.2863 53.8442 82.5153 54.6353 81.9278Z" fill="black"/>
</g>
<defs>
<clipPath id="clip0_8_2623">
<rect width="167" height="166" fill="white"/>
</clipPath>
</defs>
</svg>
