<svg width="157" height="124" viewBox="0 0 157 124" fill="none" xmlns="http://www.w3.org/2000/svg">
<g clip-path="url(#clip0_8_2625)">
<path d="M45.356 81.5231C39.5737 81.5231 33.9034 81.4698 28.2351 81.538C22.3297 81.6094 16.4256 81.8529 10.5202 81.9022C8.62727 81.9009 6.73924 81.7113 4.88394 81.3367C0.185019 80.4278 -1.14936 77.4018 1.40434 73.3053C3.16326 70.4806 5.11328 67.7636 7.09499 65.0843C17.8016 50.6037 28.5741 36.1717 39.2579 21.674C42.3556 17.4697 45.276 13.133 48.188 8.79693C49.0221 7.49357 49.7147 6.10548 50.2544 4.65618C51.9514 0.362918 55.7812 -0.677117 59.2137 2.39042C60.4198 3.53961 61.5223 4.79222 62.5082 6.13379C68.9588 14.3572 75.3945 22.5925 81.8158 30.8397C82.2197 31.3591 82.6869 31.8239 83.2204 32.4211C90.2645 27.6835 98.3263 24.6593 106.757 23.5918C124.036 21.3358 137.586 27.3203 147.039 41.9938C151.779 49.3507 155.117 57.2835 156.075 66.0919C157.577 79.9266 153.704 92.2065 144.325 102.323C131.025 116.67 114.228 124.114 94.6084 123.603C77.6628 123.162 64.4584 114.987 55 101.051C51.1356 95.3591 47.6771 89.3792 45.9038 82.617C45.7627 82.2333 45.579 81.8665 45.356 81.5231ZM56.0659 81.2355C56.9845 83.3668 57.6295 85.2489 58.5741 86.968C60.0804 89.8142 61.7426 92.5753 63.5532 95.2397C70.1327 104.603 78.9586 110.84 90.503 111.874C109.126 113.544 124.835 107.026 137.452 93.3511C142.073 88.2859 144.873 81.8327 145.408 75.0075C146.714 61.1397 141.572 49.6078 131.926 39.8761C128.604 36.5274 124.349 34.881 119.843 33.8572C112.816 32.2601 105.89 33.143 99.0487 34.9712C95.1928 35.8825 91.5056 37.3967 88.1252 39.4573C88.9857 40.7285 89.7115 41.8224 90.4587 42.9014C96.1524 51.1257 101.722 59.4271 106.038 68.4803C107.037 70.4578 107.852 72.5224 108.475 74.6479C109.852 79.8117 107.224 82.6702 101.852 82.4631C87.7154 81.9178 73.5711 81.5036 59.4294 81.0576C58.4542 81.0219 57.473 81.1556 56.0659 81.2355ZM97.5908 74.0636C85.3356 51.0815 69.2037 32.1186 53.1983 12.6519C40.3399 33.9039 25.2445 53.396 10.553 74.1908C39.8638 73.241 68.3542 72.4522 97.5882 74.0636H97.5908Z" fill="black"/>
</g>
<defs>
<clipPath id="clip0_8_2625">
<rect width="157" height="124" fill="white"/>
</clipPath>
</defs>
</svg>
