<svg width="145" height="155" viewBox="0 0 145 155" fill="none" xmlns="http://www.w3.org/2000/svg">
<g clip-path="url(#clip0_8_2630)">
<path d="M144.313 50.1112C144.601 68.7403 140.013 86.2175 131.324 102.642C125.614 113.433 118.774 123.426 109.955 131.926C101.907 139.795 92.9006 146.616 83.1486 152.228C81.4918 153.131 79.7707 153.908 77.9988 154.556C77.0774 154.961 76.0553 155.078 75.0663 154.894C74.0766 154.709 73.1663 154.23 72.4517 153.52C71.6259 152.801 70.6448 152.286 69.5849 152.014C51.5927 147.395 37.5076 137.063 26.5233 122.32C14.9936 106.844 7.46461 89.4751 3.27457 70.7045C1.36226 62.1376 -0.128071 53.4348 0.130718 44.5718C0.232136 38.7749 1.11444 33.0184 2.75372 27.458C3.1007 26.2898 3.61778 25.1791 4.28826 24.162C5.02041 23.0822 6.21488 22.4985 7.50362 23.1119C12.682 25.5789 18.2889 25.6709 23.8047 25.9269C35.276 26.4596 46.1211 23.7202 56.2984 18.5525C62.8624 15.2187 68.3072 10.5194 71.5785 3.68574C71.8035 3.17631 72.0642 2.68347 72.3587 2.21119C73.9479 -0.159405 76.987 -0.358566 78.4481 2.02961C83.8957 10.9382 92.1776 16.3245 101.206 20.8729C110.049 25.3282 119.408 26.3768 129.117 25.3856C131.328 25.1598 133.543 24.9863 135.761 24.8647C138.823 24.6974 140.077 25.4789 141.392 28.474C143.121 32.4679 144.101 36.7462 144.283 41.0954C144.433 44.0931 144.313 47.105 144.313 50.1112ZM76.6249 11.7575C76.1463 12.2602 75.7393 12.6231 75.4083 13.0457C71.966 17.4498 67.6511 21.093 62.7356 23.747C46.6283 32.4797 29.5657 34.6322 11.7106 30.5989C10.8926 30.4139 10.0636 30.2813 9.06026 30.0898C7.91268 36.1958 7.71722 42.443 8.48091 48.6091C9.21716 55.018 10.3634 61.373 11.9128 67.6351C16.0961 85.3292 23.8428 101.981 34.6784 116.571C44.8733 130.222 58.0371 139.557 74.7457 143.579C75.8602 143.848 76.805 144.035 77.9013 143.353C87.3737 137.449 96.3546 130.909 104.081 122.8C114.897 111.449 122.743 98.187 128.342 83.6131C134.102 68.6289 135.938 53.0166 134.982 37.0431C134.825 35.7851 134.591 34.538 134.281 33.3089C123.221 36.1093 112.747 34.7814 102.685 30.5938C92.623 26.4062 83.607 20.5632 76.6262 11.7575H76.6249Z" fill="black"/>
<path d="M68.1433 99.3176C70.0121 97.1418 71.5245 95.3697 73.0506 93.6061C81.2746 84.0709 90.1215 75.0933 99.5329 66.7331C100.515 65.8291 101.602 65.0483 102.772 64.4074C103.661 63.9386 104.68 63.776 105.671 63.9447C106.662 64.1134 107.57 64.604 108.254 65.3407C109.445 66.7005 109.602 68.7448 108.478 70.6368C107.843 71.6827 107.085 72.6478 106.219 73.5114C102.462 77.3141 98.5608 80.9781 94.8838 84.8557C88.602 91.4797 82.4261 98.2066 76.2497 104.928C71.2995 110.316 69.1824 110.678 63.1277 106.578C58.062 103.148 53.0668 99.6152 48.142 95.9792C46.1432 94.3817 44.2348 92.6741 42.4253 90.8643C41.9363 90.4084 41.5154 89.8848 41.1755 89.309C40.2041 87.6607 40.3035 85.8808 41.4115 84.6571C41.9271 84.0553 42.6265 83.6418 43.4011 83.479C44.1758 83.3161 44.9824 83.4138 45.6959 83.757C47.0835 84.448 48.3965 85.2803 49.6141 86.2403C55.7061 90.5256 61.7824 94.8278 68.1433 99.3176Z" fill="black"/>
</g>
<defs>
<clipPath id="clip0_8_2630">
<rect width="145" height="155" fill="white"/>
</clipPath>
</defs>
</svg>
