<svg width="156" height="156" viewBox="0 0 156 156" fill="none" xmlns="http://www.w3.org/2000/svg">
<g clip-path="url(#clip0_8_2627)">
<path d="M24.4063 115.576C36.1609 133.366 50.2873 145.947 67.5929 154.04C69.7015 155.085 71.9999 155.698 74.351 155.843C76.702 155.988 79.0583 155.661 81.28 154.881C92.5569 151.097 100.95 146.359 107.695 139.971C111.688 136.19 114.797 132.993 117.478 129.909C134.022 110.882 145.753 87.644 154.403 56.7786C155.443 53.0754 155.514 49.1193 155.449 45.7378C155.413 43.8775 154.876 42.4482 153.852 41.4889C152.738 40.4468 151.037 39.9604 148.813 40.0588L148.721 40.0629C147.917 40.1273 147.109 40.1037 146.31 39.9924C138.64 38.5741 129.751 36.7829 121.38 33.47C111.006 29.3655 103.038 25.158 96.3054 20.2281C92.8188 17.7905 89.8542 14.686 87.5844 11.0954C86.2103 8.73742 85.0182 6.2788 84.0178 3.74121C83.1676 1.68084 81.685 0.354759 79.9501 0.103605C78.2516 -0.143665 76.4902 0.682294 75.1226 2.36917C74.466 3.18987 73.909 4.08481 73.4631 5.03581C69.6372 13.0756 63.7661 19.9793 56.4331 25.0614C49.0621 30.3123 40.0922 35.8927 29.4504 37.4689C22.3953 38.513 15.5436 39.1422 7.3198 39.8542C1.95012 40.3203 0.591608 41.7181 0.397258 46.9781C0.381008 47.4228 0.384907 47.8678 0.388807 48.4058C0.388807 48.6802 0.394005 48.9782 0.394005 49.3122C0.394005 49.3336 0.394005 49.3547 0.394005 49.3767C0.503205 50.5011 0.596794 51.6574 0.692345 52.8329C0.917895 55.6027 1.15061 58.4644 1.60236 61.3164C2.27273 65.4823 3.17589 69.6076 4.30765 73.6733C8.05944 87.1838 14.4437 100.499 24.4063 115.576ZM8.53335 47.7591L10.7589 47.6946C12.6231 47.6382 14.4158 47.5844 16.2078 47.5248C27.3469 47.1585 36.792 45.3345 45.0834 41.951C55.0166 37.7913 64.1239 31.8984 71.9765 24.5501C73.3416 23.2248 74.596 21.7908 75.7271 20.2623C76.0774 19.8137 76.4277 19.3665 76.7833 18.925C77.4983 18.0421 78.1632 17.1125 78.8685 16.1215C79.029 15.8976 79.1928 15.6695 79.3599 15.4369L80.5598 17.2616C83.2053 21.3234 86.519 24.9122 90.3625 27.8773C102.568 37.2664 116.622 43.8831 133.327 48.1068C135.721 48.7113 138.121 49.2687 140.661 49.8584C141.677 50.094 142.714 50.3354 143.781 50.5859C143.678 51.1543 143.586 51.7265 143.49 52.3C143.258 53.9583 142.91 55.5987 142.45 57.2091C135.307 80.024 127.706 96.426 117.803 110.392C110.626 120.513 103.392 128.526 95.6892 134.889C90.7707 138.952 84.9564 142.249 76.8392 145.579C75.3605 146.187 74.2262 145.749 72.6656 145.011C56.7308 137.478 43.7041 126.083 32.842 110.174C23.8546 97.1924 16.933 82.9064 12.3215 67.8217C10.6178 62.1151 9.77154 56.2796 8.87649 50.1018C8.76293 49.325 8.6486 48.544 8.53335 47.7591Z" fill="black"/>
<path d="M48.5486 80.9232C49.8057 81.6456 51.2275 82.0359 52.6787 82.0566C56.7737 82.2055 60.9389 82.256 64.9637 82.3052L68.0186 82.3434C69.3576 82.3621 70.6966 82.3589 72.1974 82.3524C72.7272 82.3524 73.2765 82.3492 73.8537 82.3485C73.8537 82.5479 73.8536 82.7427 73.8491 82.9311C73.8419 83.7299 73.8355 84.4846 73.8615 85.229C73.905 86.4842 73.9466 87.7399 73.9862 88.9957C74.1214 93.2032 74.2619 97.555 74.5303 101.832C74.659 103.376 75.1978 104.857 76.0903 106.126C76.4062 106.626 76.8391 107.042 77.3513 107.338C77.8641 107.635 78.4413 107.803 79.0335 107.829C79.0868 107.829 79.1407 107.829 79.1947 107.824C79.8115 107.764 80.4024 107.545 80.91 107.191C81.4177 106.838 81.8252 106.36 82.0937 105.804C82.8841 104.356 83.3053 102.738 83.3202 101.091C83.3202 97.0611 83.2085 92.9688 83.0979 89.0112C83.055 87.3878 83.0115 85.7644 82.9679 84.1416C82.9549 83.5816 82.9582 83.0217 82.9621 82.4081V82.0501L83.6257 81.9925C84.4441 81.92 85.1734 81.8553 85.9007 81.8022C87.3853 81.6948 88.8713 81.5996 90.3572 81.5038C93.9198 81.2747 97.6046 81.0384 101.217 80.6332C103.182 80.3866 105.06 79.6784 106.696 78.567C107.227 78.2595 107.663 77.8135 107.957 77.2776C108.252 76.7409 108.393 76.1351 108.367 75.5247C108.265 74.8968 107.992 74.3084 107.579 73.8236C107.165 73.3387 106.627 72.9749 106.022 72.7723C104.609 72.1658 103.079 71.8771 101.541 71.9263C98.5952 72.0745 95.6124 72.3328 92.727 72.5833C91.2288 72.7128 89.7305 72.8422 88.2316 72.9588C86.8172 73.0675 85.4243 73.1426 83.9501 73.2177L82.5851 73.2915C82.5571 73.0772 82.5292 72.872 82.5025 72.6739C82.4038 71.9399 82.3179 71.3062 82.2874 70.6835C82.0846 66.5886 81.8922 62.4927 81.7108 58.3961L81.499 53.7674C81.486 53.4858 81.4762 53.205 81.4664 52.926C81.4411 52.214 81.4151 51.4791 81.3365 50.749C81.3046 50.0403 81.0179 49.3666 80.5285 48.8509C80.039 48.3353 79.3799 48.012 78.6714 47.9397C77.9096 47.7697 77.1121 47.8972 76.4419 48.2959C75.7718 48.6947 75.281 49.3344 75.0704 50.083C74.7136 51.0782 74.503 52.1194 74.4451 53.1744C74.2118 58.76 74.0292 64.4376 73.8524 69.9313L73.8251 70.7638C73.7991 71.5858 73.8055 72.4086 73.8127 73.2779C73.8127 73.5187 73.8166 73.7627 73.8179 74.0132C73.5852 74.0527 73.3597 74.0935 73.1393 74.133C72.4321 74.2786 71.7151 74.3763 70.9943 74.4249C66.1043 74.6249 61.13 74.7977 56.32 74.9654L51.6758 75.1279C51.4886 75.1343 51.291 75.1214 51.0947 75.1104C50.5302 75.0288 49.954 75.0987 49.4255 75.3123C47.8232 76.1215 47.0777 76.8212 47.0081 77.5837C46.9806 78.222 47.1059 78.8576 47.3738 79.4383C47.6416 80.0189 48.0443 80.5283 48.5486 80.9232Z" fill="black"/>
</g>
<defs>
<clipPath id="clip0_8_2627">
<rect width="156" height="156" fill="white"/>
</clipPath>
</defs>
</svg>
