<svg width="149" height="144" viewBox="0 0 149 144" fill="none" xmlns="http://www.w3.org/2000/svg">
<path d="M27.2835 106.699C26.0082 103.398 24.7966 99.6762 23.1597 96.1497C20.2187 89.816 17.0197 83.6025 13.9369 77.3352C13.4558 76.3572 12.9694 75.3766 12.5677 74.3652C10.6348 69.4972 12.4542 66.9137 17.6714 66.5121C28.7734 65.6588 39.8616 64.6087 50.955 63.6393C54.9731 63.2875 58.9912 62.9305 63.4162 62.5406C63.4851 61.1623 63.6131 59.9028 63.6007 58.6452C63.4204 41.6015 63.2287 24.5585 63.0257 7.5165C63.0158 6.64226 63.0217 5.76802 63.0309 4.89115C63.0506 2.95167 63.3749 1.16381 65.4351 0.296783C67.3818 -0.524296 68.8087 0.493724 70.1384 1.70007C78.8896 9.6177 87.6351 17.5404 96.3749 25.468C99.2923 28.1039 102.231 30.7187 105.228 33.2621C108.576 36.1027 108.566 39.196 104.708 41.3875C101.673 43.1083 98.4495 44.4737 95.1016 45.4568C86.7412 47.899 78.2875 50.0236 69.3968 52.4028C69.2714 55.0518 69.1132 58.3755 68.9485 61.8482C72.6089 61.8482 76.1721 61.9316 79.7301 61.8331C93.1632 61.4616 106.594 61.0555 120.024 60.6149C123.081 60.5184 126.135 60.2946 129.192 60.2152C134.622 60.0747 136.547 62.6108 134.943 67.878C131.64 78.7298 128.272 89.5614 124.935 100.403C124.684 101.22 124.476 102.05 124.145 103.249C131.243 102.43 136.469 105.714 141.374 109.975C142.726 111.15 144.687 111.597 146.203 112.622C147.098 113.227 148.308 114.374 148.23 115.163C148.127 116.213 147.001 117.869 146.142 117.985C144.164 118.306 142.135 118.097 140.264 117.38C138.229 116.476 136.555 114.738 134.779 113.294C129.053 108.634 125.152 108.717 119.781 113.648C118.171 115.126 116.61 116.667 114.927 118.053C110.163 121.986 104.385 122.67 99.1033 119.485C96.3543 117.729 93.8267 115.649 91.5751 113.289C88.6301 110.342 86.6243 109.405 82.87 111.264C79.656 112.852 76.6833 114.888 74.0404 117.31C63.9269 126.663 52.8754 127.044 42.3517 118.092C41.1592 117.134 40.0268 116.104 38.9611 115.007C36.5096 112.337 33.6231 112.015 30.6531 113.688C27.7167 115.34 25.0572 117.478 22.1686 119.226C18.2707 121.583 14.4239 124.141 10.2509 125.884C8.02525 126.814 5.1229 126.495 2.60322 126.159C1.68763 126.037 0.366445 124.243 0.346099 123.19C0.313282 121.507 2.05652 121.674 3.39348 121.696C7.20024 121.761 10.3644 120.062 13.253 117.823C17.8112 114.289 22.2953 110.661 27.2835 106.699ZM34.2519 105.711C38.4472 105.386 41.8535 108.016 44.9403 111.285C45.3899 111.761 45.8986 112.18 46.3842 112.622C54.301 119.853 61.4675 119.627 69.5051 112.437C72.6443 109.583 76.1992 107.222 80.0478 105.437C86.4799 102.553 91.4307 104.105 96.2876 109.161C98.1176 111.019 100.167 112.647 102.392 114.009C104.853 115.551 107.423 115.117 109.73 113.367C112.037 111.616 113.986 109.742 114.29 106.544C114.462 104.741 115.275 102.986 115.901 101.244C117.85 95.8006 119.959 90.414 121.794 84.9322C123.789 78.9727 125.546 72.9337 127.438 66.8357C91.5895 66.6827 56.0862 68.2757 20.6571 73.0328L34.2519 105.711ZM70.6484 10.3158L69.7039 10.7319V44.5635L99.2004 36.5851C89.2418 27.422 79.9448 18.8692 70.6484 10.3178V10.3158Z" fill="black"/>
<path d="M7.69294 143.226C5.78365 142.832 3.76408 142.695 2.01232 141.937C1.09804 141.543 0.655025 140.057 0 139.063C0.945127 138.507 1.92964 137.415 2.83014 137.48C10.2468 138.016 16.1538 134.867 21.5804 130.295C23.2319 128.865 24.9883 127.56 26.835 126.392C32.408 122.979 38.0177 123.172 43.5014 126.644C44.8588 127.56 46.1606 128.556 47.4001 129.627C50.7244 132.333 54.7313 134.069 58.9792 134.645C63.6267 135.315 67.7085 134.564 71.1168 130.701C73.6113 127.971 76.47 125.597 79.6124 123.646C83.9377 120.879 88.5295 121.112 92.8856 123.936C94.1759 124.754 95.4225 125.64 96.6201 126.589C100.028 129.345 103.998 130.743 108.223 131.587C109.555 131.891 110.94 131.879 112.267 131.554C113.594 131.228 114.827 130.596 115.867 129.71C122.708 124.236 130.028 122.926 138.102 127.14C140.071 128.167 142.48 128.375 144.708 128.869C146.445 129.254 147.917 129.985 148.079 131.904C148.25 133.933 146.949 135.281 145.145 135.723C143.459 136.087 141.728 136.19 140.011 136.028C138.807 135.932 137.643 135.546 136.621 134.902C130.66 131.045 125.503 132.71 120.507 136.872C119.079 138.07 117.407 138.943 115.608 139.43C113.809 139.918 111.925 140.007 110.088 139.694C103.459 138.767 97.4386 136.551 92.2417 132.187C87.713 128.385 85.7295 128.428 81.0393 132.101C79.9982 132.898 79.0513 133.811 78.2171 134.822C72.8391 141.526 65.6948 142.632 57.805 141.297C52.6076 140.425 47.7225 138.229 43.6215 134.92C42.5976 134.103 41.5606 133.295 40.475 132.564C37.9107 130.837 35.1587 130.472 32.4401 132.039C30.0852 133.397 27.8839 135.022 25.6175 136.533C20.189 140.149 14.5169 143.083 7.69294 143.226Z" fill="black"/>
</svg>
