<svg width="159" height="155" viewBox="0 0 159 155" fill="none" xmlns="http://www.w3.org/2000/svg">
<path d="M111.444 104.583C111.897 110.01 109.508 114.575 106.484 118.611C103.703 122.322 99.1222 122.814 95.0288 121.615C90.7544 120.325 86.6763 118.457 82.9079 116.062C77.7372 112.812 77.5821 112.548 72.5759 116.228C70.3976 117.83 68.2673 119.525 65.9501 120.901C61.0895 123.785 55.9926 122.87 52.225 118.648C46.7882 112.553 46.4415 109.992 50.2362 102.312C51.9291 98.894 53.3937 95.2692 55.6344 92.2377C65.0569 79.4849 82.8131 74.7631 96.742 80.997C106.955 85.567 110.615 94.1973 111.444 104.583ZM83.5309 85.5135C69.9425 85.569 57.8568 95.1866 54.5395 108.525C53.8325 111.369 55.0812 113.349 57.1695 114.93C59.1718 116.445 61.0076 115.513 62.6842 114.185C65.151 112.23 67.4919 110.099 70.0542 108.281C75.4714 104.441 79.8052 104.427 85.3578 107.982C87.5321 109.374 89.5466 111.17 91.9038 112.093C99.5359 115.081 102.024 112.86 102.662 104.953C103.606 93.233 95.3599 85.4613 83.5309 85.5135Z" fill="black"/>
<path d="M58.2556 57.5481C57.5311 59.8863 57.443 61.6888 56.516 62.7553C55.4705 63.9552 53.5874 65.2418 52.208 65.103C50.8402 64.9676 48.6354 63.1615 48.5663 61.9839C48.341 58.47 48.6539 54.9422 49.494 51.5227C50.1319 49.0295 52.7991 48.84 54.3139 50.6297C56.0941 52.7288 57.118 55.4706 58.2556 57.5481Z" fill="black"/>
<path d="M112.89 56.4988C112.854 61.0614 111.062 63.5586 108.561 63.887C105.971 64.2256 103.801 62.4286 103.173 58.9941C102.768 57.0149 102.724 54.9787 103.043 52.9838C103.27 51.7954 104.488 50.16 105.535 49.9196C106.927 49.6006 109.214 49.9339 109.997 50.8961C111.543 52.8029 112.328 55.3341 112.89 56.4988Z" fill="black"/>
<path d="M106.846 33.2178C109.803 34.2051 112.576 34.8118 114.995 36.0869C116.047 36.6415 116.372 38.5707 117.026 39.879C115.709 40.4573 114.398 41.4818 113.073 41.5008C111.456 41.5245 109.849 40.4537 108.198 40.3075C105.895 40.1043 103.556 40.3949 101.237 40.3204C100.131 40.1963 99.0382 39.9762 97.9708 39.6622C98.3216 38.4678 98.3202 36.6096 99.0901 36.2006C101.491 34.9201 104.185 34.1895 106.846 33.2178Z" fill="black"/>
<path d="M57.856 42.6038C53.0618 43.3669 49.0734 43.9316 45.1134 44.6569C42.501 45.1356 40.8474 43.6202 41.4738 41.1086C42.2247 38.0831 47.1069 35.9874 51.7603 36.6929C55.6153 37.2773 57.7531 39.6046 57.596 43.0581C57.5919 43.1515 57.4985 43.2423 57.856 42.6038Z" fill="black"/>
<path d="M2.80592 55.9067C-4.20391 83.4578 1.93441 107.763 21.0631 128.158C21.5608 128.685 22.0687 129.211 22.5759 129.716C32.8516 139.991 45.6504 146.336 55.7913 150.75C60.144 152.651 82.4777 154.96 88.5205 154.059C124.432 148.697 148.064 128.442 156.295 94.5562C157.866 87.9184 158.649 81.1185 158.627 74.2973C158.665 58.2286 151.899 39.5475 137.947 25.5563C136.511 24.3692 135.078 23.1381 133.695 21.9464C130.693 19.3651 127.59 16.6939 124.344 14.4146C99.5458 -3.0382 73.7804 -3.13639 47.7664 6.11954C24.2139 14.4945 9.08781 31.2477 2.80592 55.9067ZM47.8674 14.3698C70.692 4.88431 93.5937 3.2104 115.931 17.4169C120.015 20.0172 130.903 28.8181 132.618 30.1392L132.727 30.2212L132.819 30.3214C141.533 39.5625 151.511 56.4593 151.291 73.8288C151.219 81.256 150.213 88.6447 148.298 95.8212C142.625 116.444 129.06 131.474 106.829 141.754C84.2281 152.575 51.8171 141.636 43.1937 135.942C33.6624 129.426 25.3226 121.319 18.5388 111.976C7.89942 96.9127 5.51177 75.261 11.2289 55.4666C13.9046 46.3274 18.5805 37.8981 24.9175 30.7899C31.2546 23.6818 39.094 18.0728 47.8674 14.3698Z" fill="black"/>
</svg>
