<svg width="153" height="148" viewBox="0 0 153 148" fill="none" xmlns="http://www.w3.org/2000/svg">
<path d="M60.5095 117.681C66.76 117.681 72.5929 117.689 78.4271 117.681C92.2404 117.659 106.054 117.596 119.867 117.63C122.336 117.585 124.803 117.811 127.222 118.305C131.802 119.355 132.531 122.3 129.276 125.743C129.133 125.894 129.089 126.137 129.134 126.037C130.972 127.832 132.964 129.356 134.417 131.288C137.428 135.291 136.868 140.25 133.328 143.805C128.537 148.616 119.917 148.757 114.962 144.105C111.261 140.63 110.715 135.076 113.716 130.579C114.516 129.379 115.553 128.335 116.827 126.798C102.035 126.419 87.5797 126.141 72.3369 126.425C76.1982 129.459 78.6509 132.632 78.0359 137.176C77.7386 139.773 76.4686 142.162 74.4818 143.86C69.7227 147.917 61.4866 147.367 56.9526 142.721C52.7954 138.459 53.4354 132.523 58.9125 126.307C52.8158 125.523 51.1723 120.759 49.8104 116.038C48.4768 111.417 47.7581 106.624 46.5858 101.952C43.6422 90.2198 40.3591 78.5685 37.6511 66.784C34.4639 52.9171 31.7441 38.9425 28.8103 25.0163C28.3948 23.0421 27.6945 21.0945 27.5561 19.1045C27.3913 16.7784 26.116 15.8227 24.1594 15.1139C19.0971 13.286 14.0637 11.378 9.03742 9.45299C6.82116 8.66158 4.6518 7.745 2.53972 6.70713C0.313423 5.54938 -0.360745 3.78821 0.376978 2.02594C1.1193 0.249895 2.76015 -0.355129 5.22404 0.393753C8.33507 1.34019 11.4179 2.38048 14.5099 3.38862C19.1994 4.91723 23.8621 6.53907 28.5851 7.95411C31.6508 8.87298 33.6036 10.5841 34.3997 13.7923C36.5046 22.2728 38.7576 30.7165 40.9544 39.1741C41.0371 39.4917 41.1513 39.801 41.3167 40.3188C42.1352 40.3845 43.0015 40.5268 43.8659 40.5156C48.8062 40.45 53.7452 40.3188 58.6854 40.2624C59.9174 40.23 61.1496 40.3127 62.3661 40.5092C62.9884 40.5935 63.5639 40.8858 63.999 41.3386C64.434 41.7914 64.7031 42.378 64.7625 43.0031C64.8768 43.6204 64.7571 44.2579 64.4269 44.7917C64.0968 45.3256 63.5798 45.7175 62.9765 45.891C61.8365 46.3359 60.6336 46.5984 59.412 46.6688C55.3716 46.7239 51.3292 46.6148 47.2881 46.5768C45.9577 46.5636 44.6267 46.5768 42.8854 46.5768C46.133 61.7598 50.0033 76.522 54.2715 91.4052H123.325C129.746 76.2077 136.223 60.8792 142.863 45.1631C138.72 44.9984 135.032 44.8738 131.347 44.6952C129.666 44.6717 127.989 44.521 126.331 44.2443C124.385 43.8505 123.419 42.5724 123.575 40.9848C123.743 39.2579 124.852 38.4403 126.48 38.244C128.029 37.9893 129.593 37.8357 131.162 37.7845C136.096 37.8409 141.042 37.8357 145.956 38.2059C150.61 38.5564 152.706 41.7626 151.626 46.4259C151.229 48.0584 150.687 49.6526 150.008 51.1891C148.457 54.7911 146.779 58.3379 145.192 61.9248C140.748 71.9671 136.248 81.9874 131.944 92.0897C130.796 94.637 129.192 96.9532 127.211 98.9248C126.417 99.7111 125.404 100.242 124.306 100.45C122.324 100.814 120.311 100.981 118.296 100.95C100.894 100.606 83.4914 100.225 66.0906 99.805C63.6211 99.7492 61.1525 99.6409 58.6821 99.593C57.8184 99.5766 56.9528 99.6704 55.881 99.7236C57.4713 105.893 58.9986 111.819 60.5095 117.681ZM123.671 139.33C125.416 139.471 127.074 138.403 127.244 137.029C127.463 135.251 125.24 132.907 123.244 132.812C121.936 132.749 120.577 134.244 120.374 135.966C120.156 137.815 121.467 139.154 123.671 139.332V139.33ZM66.2297 138.476C67.0081 137.886 68.1331 137.435 68.5584 136.62C69.1905 135.413 68.5728 134.231 67.3632 133.528C66.697 133.124 65.9908 132.789 65.2567 132.528C64.0392 132.123 62.8204 131.926 62.1503 133.459C61.5091 134.926 61.8418 136.569 63.1098 137.3C64.118 137.773 65.1611 138.167 66.2297 138.479V138.476Z" fill="black"/>
<path d="M89.8041 14.0464C88.6162 15.0748 87.5962 15.9018 86.6399 16.7964C82.4558 20.7094 78.3044 24.6607 74.1039 28.5534C73.208 29.383 72.2307 30.3254 71.1228 30.6634C70.6141 30.7989 70.0818 30.8182 69.5653 30.7195C69.0481 30.6207 68.5605 30.4067 68.1378 30.0933C67.5267 29.4724 67.3784 28.0407 67.5792 27.0792C67.7663 26.1813 68.5795 25.3368 69.2857 24.6358C75.8977 18.0642 82.5293 11.5122 89.1813 4.98036C91.1844 3.00281 93.5623 2.80455 96.0472 3.69716C97.6257 4.28138 99.1504 5.00336 100.602 5.85462C106.343 9.15337 112.068 12.4798 117.744 15.8869C118.982 16.6508 120.094 17.6029 121.039 18.709C121.595 19.2837 121.946 20.0251 122.038 20.819C122.131 21.6128 121.959 22.4149 121.551 23.1017C120.692 24.5818 119.127 24.7911 117.683 24.4144C116.063 24.0068 114.507 23.374 113.063 22.5342C108.535 19.8307 104.096 16.9784 99.6164 14.1915C98.9601 13.784 98.2775 13.4209 97.2135 12.8132C97.1479 14.2571 97.0403 15.4078 97.0501 16.5544C97.1998 34.3005 97.3835 52.0464 97.4958 69.7922C97.5115 71.4684 97.2844 73.1382 96.8217 74.7495C96.6071 75.5765 96.1188 76.3063 95.4368 76.8215C94.7549 77.3368 93.9194 77.6065 93.0648 77.5868C92.2667 77.5652 91.4968 77.2882 90.8681 76.7966C90.2393 76.305 89.7845 75.625 89.5698 74.8558C89.092 73.3666 88.8564 71.8097 88.8721 70.2457C89.1262 58.6812 89.5055 47.1192 89.7838 35.5546C89.9466 28.8179 89.9984 22.0781 90.0864 15.3395C90.0299 14.9012 89.9354 14.4685 89.8041 14.0464Z" fill="black"/>
</svg>
