<svg width="176" height="141" viewBox="0 0 176 141" fill="none" xmlns="http://www.w3.org/2000/svg">
<path d="M13.5272 68.1718C11.6133 67.5693 9.96988 67.1834 8.43274 66.5434C4.34832 64.8435 1.83127 62.0435 0.884828 57.4419C-0.16718 52.6998 0.480475 47.7388 2.71467 43.4258C8.70768 31.4765 15.1464 19.7976 23.8573 9.54622C27.7651 4.9466 32.3897 2.0679 38.7805 1.7115C62.4317 0.298019 86.1406 0.125851 109.81 1.19522C115.744 1.48597 121.654 2.23146 127.58 2.69024C129.924 2.87139 132.286 2.93371 134.635 2.88317C137.97 2.81163 141.133 3.3472 143.96 5.18035C145.933 6.46021 148.038 7.63122 149.736 9.22284C160.166 19.0023 168.518 30.291 174.126 43.5149C175.822 47.5133 175.734 51.5794 174.679 55.7084C172.92 62.5934 168.666 66.8007 161.594 68.0392C161.264 68.1042 160.937 68.1915 160.619 68.3018C160.407 68.3674 160.208 68.4777 159.685 68.7074C159.434 73.5545 159.199 78.5656 158.913 83.5734C158.273 94.7758 157.78 105.99 156.864 117.169C156.51 121.482 155.347 125.76 154.226 129.968C153.237 133.686 150.565 136.043 146.932 137.298C141.848 139.107 136.492 140.031 131.095 140.029C106.733 139.854 82.3712 139.679 58.0099 139.504C49.3659 139.444 40.7186 139.533 32.0786 139.316C28.7163 139.238 25.3729 138.79 22.1089 137.98C15.6905 136.361 11.5956 132.188 11.3258 125.435C10.932 115.581 10.7135 105.696 11.0574 95.8463C11.3508 87.455 12.5446 79.0959 13.3362 70.7217C13.4057 69.9531 13.4543 69.1767 13.5272 68.1718ZM97.0994 132.277C97.2438 131.902 97.3489 131.514 97.4138 131.118C97.635 120.354 97.8897 109.59 98.0216 98.8221C98.0649 95.3147 98.3032 91.8965 99.6224 88.5957C101.297 84.4096 104.298 82.121 108.821 81.9385C113.532 81.7482 118.245 81.525 122.958 81.4791C125.758 81.443 128.558 81.5966 131.337 81.9385C132.871 82.056 134.322 82.6821 135.458 83.7178C136.595 84.7542 137.354 86.1404 137.613 87.6565C138.165 90.1716 138.489 92.7307 138.585 95.3042C138.948 107.161 139.186 119.022 139.474 131.064C140.204 130.905 141.144 130.639 142.104 130.502C144.941 130.096 146.424 128.447 146.814 125.655C147.232 122.66 147.977 119.689 148.138 116.684C148.911 102.228 149.547 87.7642 150.199 73.2998C150.294 71.187 150.212 69.0664 150.212 67.5503L140.653 59.3907C137.99 63.5513 134.039 66.3538 128.5 66.5507C123.04 66.7476 118.543 64.6471 114.836 60.8357C106.401 68.7415 95.9213 68.4724 87.5937 60.173C84.2247 65.4329 79.1335 67.3927 73.1838 67.1958C67.4592 67.0055 62.2064 65.3082 58.0262 60.9527C54.3881 65.3712 49.9985 67.7629 44.4984 67.9099C39.2148 68.0891 34.0518 66.3065 30.0039 62.906C28.9111 64.4814 27.4703 65.7841 25.7931 66.7128C24.1158 67.6415 22.2472 68.1712 20.3321 68.2617C20.2021 68.666 20.1047 69.0808 20.0407 69.5009C19.6528 79.8185 19.1041 90.1349 18.9557 100.456C18.8461 108.08 19.1409 115.716 19.4809 123.336C19.7152 128.548 21.6757 130.622 26.8975 131.102C32.5879 131.627 38.3132 131.885 44.0279 132.001C53.7916 132.198 63.5591 132.221 73.3256 132.269C81.1826 132.308 89.0324 132.277 97.0994 132.277ZM128.832 89.9025C122.728 90.1217 117.256 90.2563 111.793 90.5352C107.907 90.7321 107.468 91.1745 106.655 94.873C106.488 95.7518 106.395 96.6438 106.377 97.539C105.892 107.941 105.754 118.369 103.913 128.667C103.8 129.824 103.791 130.987 103.885 132.146H128.832V89.9025ZM68.4766 10.0603C67.3752 16.1813 66.3106 21.894 65.326 27.6199C64.0921 34.7844 63.0466 41.9837 61.6735 49.1207C60.9122 53.0771 62.1396 56.8244 65.8085 58.3261C68.2921 59.313 70.9247 59.8718 73.5947 59.9788C77.2472 60.1416 79.9231 58.2957 81.5817 54.8893C82.998 51.9811 83.8788 49.0932 83.124 45.8351C82.8569 44.631 82.7342 43.3995 82.7571 42.1663C82.8707 32.9848 83.0368 23.8041 83.1779 14.6233C83.2008 13.1084 83.1811 11.5928 83.1811 10.0603H68.4766ZM129.045 11.1701C131.042 15.9548 132.885 20.2735 134.651 24.625C137.467 31.5592 140.23 38.5153 143.024 45.4573C143.189 45.8669 143.352 46.4352 143.68 46.5953C145.943 47.6999 146.467 49.9782 147.46 51.9525C149.84 56.6781 153.543 59.3347 158.989 59.126C164.364 58.9199 167.712 53.7295 165.888 48.6422C163.338 41.8097 159.808 35.385 155.407 29.57C150.752 23.233 145.859 17.1415 139.349 12.4953C136.175 10.2283 132.997 10.3293 129.045 11.1701ZM61.3053 10.3823H49.4399C49.0429 11.3458 48.7272 12.0496 48.4594 12.7702C43.424 26.3137 38.4175 39.8692 33.3283 53.3923C33.0553 53.9446 32.9924 54.5774 33.1516 55.1726C33.3108 55.7678 33.6811 56.2844 34.1933 56.6266C38.025 59.8046 42.4107 60.8012 47.0845 59.1866C48.7361 58.5484 50.1053 57.3407 50.9445 55.7815C52.2447 53.0567 53.2153 50.1864 53.8361 47.2318C56.3597 35.7459 58.7134 24.2181 61.1097 12.702C61.2222 11.9344 61.2876 11.1608 61.3053 10.3852V10.3823ZM90.4055 10.4967C90.3057 10.7197 90.2368 10.955 90.2 11.1964C90.4494 23.5277 90.5321 35.8661 91.0533 48.1862C91.2751 53.4586 94.8265 58.563 101.932 57.8088C107.348 57.2339 111.209 51.2059 109.449 46.0444C108.19 42.3519 107.242 38.546 106.289 34.7556C104.273 26.7424 102.346 18.7063 100.337 10.4955L90.4055 10.4967ZM42.3779 10.6772C40.5578 10.8537 39.1251 11.065 37.6864 11.1162C34.681 11.2219 32.561 12.5196 30.6431 14.9421C22.3129 25.4652 16.0127 37.2155 9.69219 48.9541C8.76426 50.8691 8.10339 52.9024 7.72783 54.997C7.21195 57.348 7.76918 58.3633 9.94232 59.2632C13.0515 60.5978 16.4741 61.0282 19.8169 60.505C22.0005 60.1558 23.0743 58.8432 23.7733 56.8951C25.8808 51.0091 27.8971 45.0811 30.256 39.2962C34.0982 29.8705 38.1832 20.5452 42.3779 10.6798V10.6772ZM107.796 10.5394C107.752 10.948 107.755 11.3603 107.806 11.7681C113.155 24.8739 116.215 38.6593 119.822 52.2797C120.029 53.1544 120.439 53.9677 121.022 54.6528C121.604 55.3379 122.34 55.8755 123.169 56.2212C126.648 57.7564 130.423 57.8165 132.832 53.7551C133.86 52.0224 135.532 50.6573 134.132 48.0615C128.581 37.7721 124.859 26.7569 121.811 15.5001C121.436 14.1158 120.922 12.7688 120.446 11.3255L107.796 10.5394Z" fill="black"/>
<path d="M58.4045 75.2595C65.828 75.6914 73.1153 75.9933 80.3796 76.5761C86.4836 77.0664 89.212 79.634 89.4069 85.7399C89.6084 92.3473 89.4266 98.9605 88.8628 105.547C88.3968 111.052 85.7583 113.863 79.592 113.854C67.9289 113.836 56.2649 114.271 44.5998 114.396C41.9084 114.389 39.2226 114.153 36.5714 113.691C30.7247 112.746 27.6786 109.365 27.6905 103.296C27.7023 97.2488 28.0639 91.1882 28.5713 85.1591C28.7253 82.9564 29.6645 80.8824 31.2183 79.3137C32.772 77.7451 34.8371 76.7862 37.0381 76.6109C44.1856 75.9716 51.3627 75.6868 58.4045 75.2595ZM80.5792 105.986C82.1222 99.5375 82.4714 92.8612 81.6109 86.2867C81.5354 85.6579 80.5929 84.8978 79.8893 84.6353C78.8202 84.2907 77.7031 84.1181 76.5807 84.126C70.1841 83.9206 63.7852 83.6456 57.3865 83.6357C52.0006 83.6278 46.6088 83.8569 41.2288 84.1503C35.6355 84.4555 34.3707 85.8797 34.4935 91.4225C34.563 94.5637 34.7435 97.7043 34.9312 100.842C35.2003 105.344 35.6237 106.071 40.0152 106.19C51.1172 106.491 62.2263 106.54 73.3332 106.596C75.6671 106.608 78.0037 106.214 80.5792 105.986Z" fill="black"/>
</svg>
