<svg width="153" height="149" viewBox="0 0 153 149" fill="none" xmlns="http://www.w3.org/2000/svg">
<path d="M55.9385 100.27C57.5137 106.39 59.02 112.232 60.6215 118.447C62.0831 118.447 63.6241 118.458 65.1652 118.447C82.7962 118.313 100.427 118.182 118.058 118.053C120.413 118.039 122.772 118.208 125.123 118.387C126.128 118.47 127.117 118.679 128.07 119.01C131.753 120.27 132.383 123.039 129.681 125.887C129.459 126.122 129.25 126.37 129.025 126.625C130.53 127.765 131.968 128.992 133.329 130.301C138.144 135.474 137.172 142.365 131.097 146.015C126.199 148.959 121.202 148.731 116.467 145.687C111.289 142.361 110.302 135.797 114.033 130.618C114.807 129.543 115.749 128.59 116.921 127.224C102.048 126.957 87.5612 126.537 72.2594 126.932C75.9349 129.667 78.2005 132.438 78.1546 136.474C78.1402 139.204 77.0539 141.819 75.1289 143.756C70.8817 148.171 62.5543 148.14 57.5937 143.766C52.8366 139.572 53.2619 133.578 58.9458 126.672C54.23 126.287 51.9977 123.099 50.7933 119.189C49.4439 114.812 48.569 110.289 47.4302 105.843C45.0123 96.406 42.3332 87.0289 40.1666 77.5343C36.4531 61.257 33.0487 44.9142 29.5189 28.5957C28.8081 25.3101 28.0474 22.0326 27.4488 18.726C27.358 18.0646 27.0728 17.4451 26.6295 16.946C26.1862 16.447 25.6047 16.0908 24.9587 15.9227C19.6968 13.9872 14.4618 11.9794 9.23079 9.96247C7.01467 9.17053 4.84094 8.26472 2.71804 7.24904C0.359168 6.04595 -0.393119 4.11566 0.473903 2.32649C1.29301 0.635101 2.90904 0.115222 5.42544 0.920551C10.6591 2.59487 15.8658 4.35331 21.0896 6.05716C23.6493 6.89134 26.2031 7.7348 28.7878 8.47646C31.7288 9.32051 33.6235 11.0294 34.3921 14.103C36.2955 21.7107 38.3302 29.2856 40.3051 36.8781C40.6398 38.1632 40.9562 39.4537 41.3231 40.9075C44.3501 40.9075 47.2465 40.9362 50.1423 40.9001C53.51 40.8575 56.8777 40.6883 60.2447 40.7034C63.1418 40.7178 64.715 41.8132 64.8391 43.6425C64.9704 45.5104 63.2127 47.0181 60.2795 47.1001C56.0179 47.2202 51.7471 47.0836 47.4809 47.0613C46.0468 47.0541 44.6121 47.0613 42.6201 47.0613L54.0699 91.9422H123.328L142.898 45.6586C139.157 45.4853 135.858 45.3337 132.556 45.1782C130.763 45.0941 128.954 45.1257 127.181 44.8888C124.711 44.5606 123.571 43.4069 123.599 41.6164C123.626 39.9217 124.551 38.8512 127.021 38.6503C131.265 38.3045 135.534 38.2084 139.795 38.1658C141.918 38.1441 144.052 38.6732 146.17 38.6016C150.3 38.4618 151.92 41.4339 151.752 46.4155C151.605 47.7561 151.208 49.057 150.581 50.251C147.055 58.127 143.42 65.9519 139.924 73.8398C137.199 79.987 134.514 86.1566 132.037 92.4063C130.902 95.0867 129.228 97.5053 127.118 99.5118C126.296 100.268 125.272 100.769 124.17 100.956C122.299 101.298 120.397 101.456 118.494 101.424C100.641 101.071 82.789 100.651 64.9408 100.274C62.0503 100.217 59.1552 100.27 55.9385 100.27ZM127.293 137.14C127.262 135.446 125.065 133.351 123.252 133.286C121.859 133.236 120.401 135.021 120.377 136.804C120.353 138.534 121.965 139.846 124.075 139.815C125.945 139.788 127.319 138.645 127.293 137.14ZM66.29 138.953C67.0658 138.356 68.1835 137.898 68.6042 137.081C69.2271 135.868 68.6042 134.693 67.3894 133.996C66.7225 133.593 66.0156 133.259 65.2813 132.999C64.0605 132.596 62.8424 132.413 62.1828 133.95C61.5442 135.438 61.8789 137.045 63.1673 137.783C64.1768 138.253 65.2208 138.643 66.29 138.953Z" fill="black"/>
<path d="M89.1505 56.9421C89.1505 55.1352 89.1722 54.0254 89.1466 52.9175C88.7908 37.6665 88.4345 22.4151 88.0767 7.16361C88.0111 6.0439 88.0492 4.9207 88.189 3.8079C88.4463 2.23269 89.3376 1.10496 91.0644 1.01045C91.7995 0.916971 92.5438 1.10288 93.1483 1.53154C93.7534 1.96021 94.1754 2.60031 94.3316 3.32525C94.6473 4.28193 94.8606 5.2698 94.9676 6.27172C95.4632 13.88 95.8937 21.4926 96.3643 29.1022C96.8408 36.8247 97.3344 44.5461 97.8437 52.2664C97.9015 53.1399 98.1417 54.0011 98.4022 55.4516C99.9446 53.6847 101.181 52.2889 102.395 50.8739C104.294 48.66 106.175 46.4318 108.069 44.214C108.36 43.8734 108.667 43.5432 108.988 43.2334C111.051 41.2604 113.394 40.9171 114.973 42.3466C116.721 43.9297 116.638 46.3819 114.621 48.6167C109.888 53.8615 105.099 59.0556 100.344 64.2807C99.4399 65.2737 98.5827 66.3096 97.7138 67.3341C95.8104 69.5775 93.8059 70.054 91.1471 68.8181C90.3313 68.444 89.5555 67.9891 88.8309 67.4601C82.4139 62.7129 76.327 57.5873 71.0815 51.5418C70.2454 50.5008 69.566 49.3426 69.0659 48.104C68.72 47.4458 68.6275 46.6836 68.8047 45.9616C68.9826 45.2395 69.4184 44.6075 70.0301 44.1849C70.5926 43.865 71.2135 43.6612 71.856 43.5856C72.4986 43.5099 73.1503 43.564 73.7712 43.7445C75.1567 44.2558 76.3158 45.4884 77.4565 46.5359C80.7573 49.5668 83.9937 52.6674 87.274 55.7207C87.8713 56.1694 88.4981 56.5774 89.1505 56.9421Z" fill="black"/>
</svg>
