<svg width="152" height="96" viewBox="0 0 152 96" fill="none" xmlns="http://www.w3.org/2000/svg">
<g clip-path="url(#clip0_8_2633)">
<path d="M72.8953 53.6457C69.7751 56.9369 66.8502 59.9376 64.0171 63.0258C57.877 69.7132 50.5091 74.7052 42.393 78.6457C37.7644 80.8933 32.7988 81.8137 27.68 82.2425C19.4771 82.9294 11.3378 82.0849 3.17959 81.5789C2.62674 81.575 2.07682 81.4972 1.5444 81.348C1.16762 81.2507 0.827609 81.0451 0.566767 80.7551C0.305924 80.4659 0.135783 80.1059 0.0773967 79.7199C0.0190098 79.3346 0.0750332 78.9396 0.238467 78.5861C0.401901 78.2319 0.665557 77.9335 0.996607 77.7286C1.82126 77.1817 2.77586 76.8633 3.76307 76.8062C7.07018 76.6648 10.3857 76.718 13.6973 76.6518C17.4488 76.5772 21.2086 76.5869 24.9517 76.3275C37.9784 75.4343 47.9718 68.5391 56.9113 59.8092C60.2999 56.5011 63.2771 52.7707 66.4266 49.2193C66.8554 48.7355 67.1943 48.1724 67.649 47.5438C59.5341 37.2232 50.542 28.0935 38.4338 22.6098C33.4281 20.3396 28.0449 19.5651 22.6085 19.3912C17.6429 19.233 12.667 19.4359 7.69823 19.3548C5.94141 19.2957 4.19463 19.0637 2.48303 18.6621C2.20615 18.6184 1.94108 18.5185 1.70405 18.3684C1.46702 18.2184 1.26292 18.0215 1.10446 17.7897C0.945994 17.5578 0.836509 17.296 0.782474 17.0202C0.72844 16.7444 0.730995 16.4603 0.79021 16.1856C0.95838 15.0297 1.79219 14.5159 2.88918 14.4394C12.8061 13.7512 22.7171 12.6946 32.6579 14.1741C41.8238 15.5363 49.5959 19.984 56.553 25.6759C61.8251 29.9888 66.4052 35.1463 71.2886 39.9281C71.7582 40.3886 72.198 40.8797 72.7485 41.4589C74.7503 39.3242 76.7225 37.2738 78.6344 35.1709C87.0513 25.9264 97.9436 21.2988 109.923 19.2504C118.174 17.8389 126.596 17.4154 134.942 16.5501C135.454 16.497 135.966 16.4392 137.116 16.314C135.274 14.6392 133.833 13.327 132.389 12.0193C130.342 10.1661 128.222 8.38691 126.267 6.44096C124.729 4.91015 124.577 3.40527 125.479 1.96527C126.368 0.546675 128.285 0.0192878 130.204 0.858637C131.31 1.36059 132.343 2.0104 133.276 2.79033C137.631 6.36309 141.969 9.95916 146.241 13.6292C147.372 14.6757 148.402 15.8268 149.318 17.0671C150.135 17.987 150.607 19.1633 150.654 20.3941C150.701 21.6249 150.318 22.8337 149.574 23.8131C145.203 30.3469 140.297 36.4345 134.284 41.5672C134.03 41.7801 133.759 41.9731 133.476 42.1445C131.66 43.2621 130.002 43.2919 128.89 42.2372C127.696 41.1047 127.668 39.2612 129.012 37.4223C130.769 35.0178 132.679 32.7249 134.459 30.3359C135.488 28.9536 136.391 27.4766 137.563 25.7304C135.228 25.7304 133.364 25.6202 131.517 25.7486C122.04 26.4083 112.593 27.1218 103.359 29.7145C92.8946 32.6529 84.8865 38.852 78.2392 47.3804C78.5102 47.9454 78.8207 48.4901 79.17 49.0104C87.7654 60.1795 99.212 66.4304 113.106 68.185C120.445 69.1113 127.837 69.6185 135.208 70.2924C136.058 70.3703 136.922 70.3028 138.528 70.3028C135.719 66.529 133.3 63.2807 130.883 60.0317C130.237 59.2789 129.656 58.4737 129.144 57.6245C128.45 56.2624 128.364 54.825 129.596 53.6743C130.084 53.2068 130.715 52.9201 131.387 52.8617C132.059 52.8033 132.731 52.9767 133.291 53.3532C134.561 54.0208 135.719 54.886 136.719 55.9166C141.015 60.799 145.38 65.6403 149.358 70.775C152.341 74.6248 151.999 77.1467 148.541 80.7188C146.476 82.8522 144.09 84.6756 141.814 86.6047C139.202 88.8185 136.609 91.0622 133.897 93.1482C132.682 94.0888 131.319 94.8166 129.863 95.3017C129.179 95.5618 128.424 95.5657 127.736 95.3134C127.049 95.0611 126.476 94.5688 126.121 93.9266C125.718 93.3201 125.537 92.5917 125.61 91.8659C125.683 91.1407 126.004 90.4628 126.52 89.9484C127.654 88.7413 128.853 87.5971 130.111 86.5203C132.525 84.3201 134.957 82.1413 137.762 79.6109C133.184 79.2808 129.239 79.0628 125.308 78.7028C117.497 77.9822 109.738 77.0073 102.18 74.7123C91.4762 71.4626 82.7494 65.3874 75.6378 56.8708C74.793 55.8596 73.9302 54.8619 72.8953 53.6457Z" fill="black"/>
</g>
<defs>
<clipPath id="clip0_8_2633">
<rect width="152" height="96" fill="white"/>
</clipPath>
</defs>
</svg>
