<svg width="161" height="125" viewBox="0 0 161 125" fill="none" xmlns="http://www.w3.org/2000/svg">
<g clip-path="url(#clip0_8_2635)">
<path d="M142.858 3.2173C142.163 2.37846 141.313 1.67969 140.356 1.15792C140.013 0.944189 139.69 0.740666 139.425 0.543774C139.349 0.487084 139.261 0.447399 139.168 0.42708C139.074 0.406761 138.978 0.406501 138.885 0.426131C137.16 0.796598 135.95 1.54596 135.287 2.65217C134.978 3.21965 134.792 3.84491 134.74 4.48829C134.688 5.13167 134.771 5.77872 134.984 6.38829C135.9 9.61657 137.147 12.7421 138.706 15.7149C146.017 29.4326 148.474 45.1435 146.217 63.7452C144.781 76.0096 140.735 87.8263 134.352 98.4053C133.137 100.413 132.048 102.527 130.995 104.572C130.35 105.826 129.682 107.123 128.994 108.376C127.696 110.747 126.348 113.121 124.923 115.633C124.267 116.791 123.59 117.986 122.885 119.236C122.837 119.322 122.807 119.418 122.801 119.517C122.794 119.616 122.809 119.715 122.846 119.807C122.883 119.899 122.939 119.982 123.012 120.049C123.085 120.116 123.172 120.167 123.267 120.197L123.618 120.307C125.418 120.87 126.382 121.171 127.167 121.171C127.979 121.118 128.76 120.836 129.417 120.357C135.246 116.945 139.378 113.565 142.422 109.721C152.074 97.5322 157.529 86.3606 159.593 74.5627C160.417 69.4856 160.796 64.3462 160.726 59.2033C160.713 52.6308 160.7 45.8346 159.711 39.2666C157.539 24.8567 149.973 12.9569 142.858 3.2173Z" fill="black"/>
<path d="M37.4368 121.214C36.8949 120.44 36.2581 119.738 35.5412 119.122C31.2085 115.743 27.7133 111.216 24.8549 105.282C23.6032 102.685 22.3029 99.9062 20.6351 96.2714C15.6538 85.3971 13.6556 73.6367 14.5242 60.3209C15.6823 42.5786 18.9777 26.9842 24.5978 12.6461C25.2201 11.1684 25.6453 9.61573 25.8629 8.02765C25.9488 7.29145 25.8253 6.54611 25.5066 5.87656C25.1879 5.20702 24.6869 4.64018 24.0608 4.24126C23.4368 3.84742 22.713 3.63985 21.9747 3.64261C21.2363 3.64536 20.514 3.85827 19.893 4.25675C18.2854 5.22091 16.9405 6.56567 15.9776 8.17156C13.4921 12.3855 11.2677 16.7473 9.31635 21.2324C5.52507 30.3879 3.00159 40.5404 1.13646 54.1544C-1.12079 70.6218 1.96858 86.6937 10.5827 103.287C14.3623 110.569 19.4004 116.313 25.5554 120.361C28.4168 122.118 31.4381 123.6 34.5791 124.789C34.7439 124.856 34.9203 124.891 35.0984 124.89C35.7605 124.81 36.3971 124.586 36.9635 124.235C37.3757 124.027 37.8022 123.813 38.2619 123.635C38.3609 123.596 38.4494 123.535 38.5199 123.455C38.5904 123.376 38.6407 123.281 38.667 123.179C38.6933 123.076 38.6946 122.968 38.6708 122.865C38.6471 122.762 38.5992 122.666 38.5307 122.585C38.1126 122.089 37.7594 121.632 37.4368 121.214Z" fill="black"/>
<path d="M75.1279 85.354C75.1623 85.3592 75.1961 85.3612 75.2305 85.3612C85.924 85.3359 93.5689 81.9292 99.2909 74.6384C103.604 69.1429 104.885 63.0571 103.098 56.5499C100.677 47.7371 90.369 39.4228 81.0395 38.759C64.8968 37.6152 55.0836 49.4308 53.7196 61.7003C52.5108 72.5814 58.6367 81.4946 69.3261 84.4084C70.9263 84.8106 72.5552 85.0885 74.1983 85.24C74.5839 85.2834 74.9014 85.3191 75.1279 85.354ZM88.1384 67.4039C83.694 72.2789 78.0402 74.0522 71.3288 72.6746C67.0669 71.8003 64.7675 69.104 64.3001 64.4339C63.8636 60.3967 64.9726 56.3441 67.4045 53.088C69.8364 49.8318 73.4115 47.6127 77.4137 46.8751C78.4018 46.722 79.4009 46.6548 80.4 46.6742C80.7727 46.671 81.1304 46.6685 81.4647 46.6556C86.9523 49.0157 88.9389 53.0206 90.2658 57.0012C91.5733 60.9215 90.8572 64.4216 88.1384 67.4039Z" fill="black"/>
<path d="M113.868 80.0607C113.063 83.3871 112.232 86.8268 111.461 90.2232C111.355 91.0127 111.437 91.8158 111.699 92.5684C111.807 93.0011 111.92 93.448 112.009 93.9577C112.036 94.1118 112.116 94.2524 112.236 94.3534C112.356 94.4544 112.508 94.5101 112.665 94.5101C112.736 94.5101 112.806 94.4991 112.872 94.4778C117.706 92.9059 120.103 89.9402 121.972 86.968C129.724 74.6442 132.119 61.6897 129.089 48.4662C127.559 42.151 124.964 36.141 121.417 30.6923C120.434 29.1669 119.269 27.7663 117.947 26.5213C116.769 25.3899 114.831 24.9022 113.403 26.1593C112.363 27.1289 111.651 28.3981 111.368 29.7901C111.287 30.8393 111.491 31.8906 111.959 32.8339C112.023 32.9945 112.081 33.1535 112.138 33.3096C112.617 34.614 113.147 35.9169 113.659 37.1772C113.97 37.9428 114.282 38.7091 114.584 39.4779C118.12 48.498 118.948 57.5588 117.046 66.4104C116.067 70.9758 114.951 75.5943 113.868 80.0607Z" fill="black"/>
<path d="M48.6892 39.2247C49.4927 38.0249 50.2099 36.7697 50.8349 35.4684C51.0211 35.0097 51.0828 34.5103 51.0137 34.0203C50.9446 33.5303 50.7473 33.0671 50.4415 32.6775C50.1529 32.2459 49.7573 31.8958 49.2934 31.6614C48.8294 31.427 48.3129 31.3162 47.7934 31.3395C46.5807 31.4515 45.2199 31.663 44.2929 32.4286C42.4011 33.9882 40.445 35.6024 39.0661 37.6277C30.9758 49.5195 27.8215 62.5726 29.6898 76.4227C30.4559 82.0976 33.3006 87.1928 38.1455 91.5658C39.8172 93.0742 42.0174 94.604 45.1075 94.604C46.5713 94.5814 48.0177 94.2854 49.372 93.731C49.4593 93.6967 49.5385 93.6442 49.6044 93.5781C49.6701 93.5114 49.7211 93.4318 49.754 93.3443C49.7869 93.2569 49.8009 93.1636 49.7952 93.0704C49.7895 92.9771 49.764 92.8858 49.7207 92.8029C49.1449 91.7018 48.6269 90.6539 48.1335 89.6585C47.2117 87.7064 46.1833 85.8061 45.053 83.9661C41.8927 79.0438 40.3652 73.3955 40.3847 66.6947C40.404 57.2724 43.0947 48.0474 48.1459 40.0855C48.3283 39.7973 48.51 39.5116 48.6892 39.2247Z" fill="black"/>
</g>
<defs>
<clipPath id="clip0_8_2635">
<rect width="161" height="125" fill="white"/>
</clipPath>
</defs>
</svg>
