<svg width="174" height="176" viewBox="0 0 174 176" fill="none" xmlns="http://www.w3.org/2000/svg">
<g clip-path="url(#clip0_8_2299)">
<path d="M167.365 97.2971C168.584 81.4998 165.016 65.5091 156.142 46.9741C151.83 37.9731 145.636 30.2251 137.205 23.2869C127.528 15.3249 115.599 10.0946 99.6621 6.82275C84.8453 3.78322 73.5543 3.64332 63.0976 6.37565C62.0645 5.95822 61.0525 5.5337 60.0509 5.11233C57.6795 4.11601 55.4395 3.17544 53.0938 2.39308C45.5459 -0.122663 38.9109 -0.402791 32.8057 1.53997C16.917 6.58653 6.50949 17.3142 1.87312 33.4233C-1.21626 44.1591 1.60341 54.6561 4.77024 63.5088C6.11638 67.271 6.35198 70.2541 5.55781 73.4852C2.77691 84.8038 3.1261 95.6517 6.59618 105.728L6.76217 106.212C8.22403 110.779 9.98288 115.246 12.0274 119.584C21.3198 138.213 32.4533 150.138 47.064 157.115C54.5961 160.696 62.4444 163.57 70.5076 165.701C79.651 168.129 89.4843 170.018 99.4521 167.432C100.507 167.16 102.274 167.735 104.44 169.049C110.263 172.67 116.982 174.594 123.84 174.603C128.46 174.566 133.045 173.784 137.417 172.288C147.459 168.952 157.567 164.5 163.442 154.6C174.611 135.792 176.252 118.6 168.457 102.042C167.715 100.572 167.341 98.9439 167.365 97.2971ZM112.683 159.117C108.851 157.122 105.324 156.163 101.759 156.163C100.962 156.163 100.166 156.211 99.374 156.305C86.6936 157.8 73.6666 155.576 58.3825 149.309C43.334 143.14 31.8179 132.032 23.1772 115.349C22.0233 113.118 21.0323 110.744 20.0734 108.446C19.6691 107.477 19.2655 106.508 18.848 105.545C14.9914 96.65 14.0719 86.6192 16.0376 74.8799C17.0694 68.7202 16.5836 63.9471 14.4151 58.9196C10.5227 49.8835 10.0756 39.7346 13.1582 30.3913C15.5328 22.928 21.2968 16.7274 28.9701 13.3775C36.6709 10.017 45.1816 10.0145 52.314 13.371C57.3258 15.7266 62.0225 15.6964 66.7927 15.4497C97.2672 13.8567 118.349 20.1489 135.148 35.8433C138.379 38.8546 141.2 42.2775 143.539 46.0238C151.683 59.0908 156.324 74.0346 157.018 89.4158C155.319 95.212 157.313 100.74 159.423 106.59L159.859 107.802C165.119 122.516 162.287 136.948 151.445 150.699C145.462 158.285 135.92 162.268 123.08 162.538C119.699 162.616 115.933 160.808 112.685 159.117H112.683Z" fill="black"/>
<path d="M103.724 81.1327C99.4253 79.883 95.0527 78.9051 90.631 78.2047C88.4395 77.8109 86.1738 77.4034 83.9718 76.9334C83.0024 76.7254 82.0244 76.5357 81.0458 76.3427C78.0904 75.8596 75.1828 75.1167 72.3572 74.1223C66.4719 71.835 64.5766 67.4237 66.8735 61.3653C67.7373 58.9015 69.1766 56.6793 71.0715 54.8833C72.9663 53.0873 75.2622 51.7694 77.7687 51.0392C94.3052 46.0799 105.834 48.1643 115.154 57.7993C115.464 58.0777 115.832 58.2837 116.231 58.4024C116.448 58.4865 116.704 58.587 117.007 58.7261C117.147 58.7906 117.304 58.8054 117.453 58.7685C117.602 58.7315 117.734 58.6448 117.827 58.5226C120.649 54.811 120.988 53.8108 118.506 50.6867C115.328 46.6876 110.916 43.8094 105.393 42.1325C97.0835 39.5985 88.278 39.1436 79.7502 40.8079C68.0746 43.0441 60.4542 49.3668 57.1068 59.5998C54.0713 68.8677 57.1219 77.1763 65.2671 81.8251C69.2239 84.0836 73.8156 85.3503 77.3743 86.2009C80.127 86.8572 82.9689 87.2819 85.7177 87.6901C88.2117 88.0603 90.7918 88.4436 93.2754 89.0028C96.6339 89.7563 100.515 90.7749 103.838 92.6192C110.401 96.2632 113.84 102.113 113.529 109.093C113.216 116.116 107.567 119.45 102.083 121.785L101.843 121.888C101.139 122.212 100.41 122.48 99.6648 122.691C84.6445 126.453 71.5473 124.44 59.6225 116.54C59.3255 116.333 59.0406 116.109 58.7693 115.869C58.174 115.258 57.4234 114.82 56.5982 114.603C55.0269 114.347 52.9122 114.244 51.7728 115.211C50.6334 116.178 50.1418 118.453 50.3945 119.973C50.7387 121.673 51.6614 123.199 53.0054 124.294C53.3992 124.608 53.7982 124.926 54.1966 125.245C56.797 127.329 59.4861 129.484 62.5321 130.797C70.0082 134.116 78.0871 135.859 86.2657 135.921C91.9686 135.912 97.6361 135.024 103.068 133.288C110.206 131.03 115.576 127.505 119.482 122.511C124.339 116.304 125.707 109.506 123.551 102.308C120.274 91.3623 113.603 84.2378 103.724 81.1327Z" fill="black"/>
</g>
<defs>
<clipPath id="clip0_8_2299">
<rect width="173.93" height="175.242" fill="white"/>
</clipPath>
</defs>
</svg>
