<svg width="159" height="155" viewBox="0 0 159 155" fill="none" xmlns="http://www.w3.org/2000/svg">
<path d="M77.1742 109.416C72.4341 109.416 65.5177 107.214 59.0266 103.623C55.4377 101.635 52.3411 99.0186 50.4905 95.23C49.9217 94.2609 49.583 93.174 49.5005 92.0534C49.5303 90.9699 49.5683 89.9583 50.6226 89.5053C51.1566 89.3193 51.7323 89.288 52.2834 89.4149C52.8345 89.5417 53.3385 89.8217 53.7375 90.2225C55.0139 91.4549 55.7079 93.3522 57.0785 94.4133C66.3906 101.626 76.6934 104.784 88.3417 101.179C93.7691 99.5 97.5347 95.687 100.382 90.8867C101.069 89.7295 101.562 88.26 102.575 87.5456C103.71 86.7459 105.638 85.9645 106.66 86.4236C107.682 86.8827 108.508 88.8783 108.523 90.2102C108.538 91.6573 107.721 93.2377 106.923 94.5507C100.781 104.646 91.724 109.534 77.1742 109.416Z" fill="black"/>
<path d="M48.3021 46.6844C56.0473 46.5124 60.7555 49.0856 64.689 53.2914C65.3886 54.023 65.9357 54.8864 66.2986 55.8313C67.2154 58.3876 65.3885 60.5923 62.7917 59.7763C60.9167 59.0714 59.2005 58.0009 57.7428 56.627C54.1959 53.5575 50.3376 52.7415 45.8176 53.9779C39.1714 55.7961 33.8998 59.1453 31.1912 65.7976C30.5744 67.3117 29.5796 68.7154 27.6288 68.0687C25.5466 67.3787 25.3068 65.4022 25.9928 63.8705C27.3511 60.8389 28.7467 57.6406 30.8987 55.1846C35.8994 49.481 42.7393 47.3223 48.3021 46.6844Z" fill="black"/>
<path d="M128.532 55.2177C128.181 55.6835 127.604 57.2119 126.636 57.5247C126.009 57.6438 125.364 57.6242 124.745 57.4675C124.127 57.3107 123.55 57.0207 123.056 56.6174C121.927 55.6274 121.286 54.055 120.519 52.6858C120.047 51.7152 119.28 50.9182 118.329 50.4077C117.377 49.8972 116.289 49.6992 115.219 49.8418C109.311 50.351 104.008 52.0466 100.193 57.0494C99.6138 57.8092 97.577 57.8253 97.1957 57.4766C96.3831 56.7317 95.6288 55.7837 95.9152 54.8445C96.476 53.1461 97.4395 51.6086 98.7234 50.3632C103.832 45.3618 110.184 43.3616 117.205 43.5552C122.513 43.6988 128.334 49.4416 128.532 55.2177Z" fill="black"/>
<path d="M43.7383 75.5171C44.8455 76.0405 46.0582 77.5993 46.1083 78.743C46.0511 79.4338 45.8339 80.1018 45.4741 80.6942C45.1142 81.2867 44.6216 81.7873 44.0349 82.1565C39.8468 84.3017 35.3261 85.159 30.67 83.8758C28.9379 83.4018 27.2606 82.527 27.1299 80.312C27.0033 78.1668 28.3359 76.8849 30.0707 76.243C32.5613 75.3221 41.9723 74.6822 43.7383 75.5171Z" fill="black"/>
<path d="M120.451 78.4805C117.363 77.2664 116.591 73.9959 118.995 71.7464C120.374 70.4845 122.057 69.6017 123.88 69.1847C125.798 68.7696 127.909 69.0181 129.907 69.2415C131.854 69.4596 133.662 70.1773 134.193 72.4092C134.495 73.3938 134.443 74.453 134.046 75.4033C133.649 76.3536 132.933 77.1353 132.021 77.6131C130.014 78.6911 121.99 79.0859 120.451 78.4805Z" fill="black"/>
<path d="M2.80592 55.9065C-4.20391 83.4576 1.93441 107.762 21.0631 128.155C21.5615 128.682 22.0687 129.208 22.5766 129.716C32.8516 139.991 45.6503 146.335 55.792 150.75C60.1447 152.651 82.4783 154.959 88.5212 154.06C124.432 148.697 148.064 128.442 156.295 94.5566C157.867 87.9189 158.649 81.1189 158.627 74.2977C158.666 58.229 151.9 39.5479 137.947 25.5567C136.511 24.369 135.079 23.1386 133.695 21.9461C130.693 19.3655 127.59 16.6936 124.344 14.415C99.5459 -3.03844 73.7811 -3.1361 47.7671 6.11914C24.2139 14.4934 9.08849 31.2475 2.80592 55.9065ZM47.8673 14.3689C70.6926 4.8841 93.5944 3.21019 115.931 17.4161C120.015 20.0163 130.904 28.8166 132.618 30.1384L132.728 30.2195L132.819 30.3205C141.533 39.5616 151.511 56.4584 151.291 73.8279C151.219 81.2548 150.214 88.6431 148.299 95.8195C142.625 116.443 129.06 131.473 106.829 141.752C84.2288 152.574 51.8178 141.634 43.1943 135.941C33.6627 129.425 25.3227 121.318 18.5388 111.975C7.89943 96.9118 5.51249 75.2593 11.229 55.4656C13.9047 46.3264 18.5806 37.8972 24.9176 30.7891C31.2546 23.6809 39.094 18.072 47.8673 14.3689Z" fill="black"/>
</svg>
