<svg width="160" height="147" viewBox="0 0 160 147" fill="none" xmlns="http://www.w3.org/2000/svg">
<g clip-path="url(#clip0_8_2302)">
<path d="M153.438 105.653C152.781 105.183 152.129 104.71 151.482 104.234C150.863 103.783 150.243 103.334 149.622 102.885C138.152 94.638 132.569 82.801 131.542 64.5378L134.792 62.0734C138.052 59.6049 141.269 57.1671 144.467 54.7091L145.042 54.2694C146.374 53.3192 147.61 52.2422 148.734 51.0534C150.955 48.5593 151.031 45.2337 148.911 43.1517C146.942 41.2221 144.332 40.9896 141.743 42.5156C140.861 43.0735 140.036 43.718 139.282 44.4394C139.002 44.6901 138.723 44.9408 138.436 45.1797L129.874 52.3129C129.822 52.0294 129.771 51.753 129.722 51.4813C129.394 49.6645 129.131 48.2298 128.724 46.7741C128.243 45.0505 127.805 43.2606 127.379 41.5291L127.354 41.4282C126.243 36.8995 125.094 32.2132 123.08 27.9489C116.74 14.5183 105.95 5.35787 91.877 1.45856C74.4315 -3.37602 54.789 4.46447 44.1071 20.5244C37.6094 30.2973 35.5334 41.1847 34.4537 49.5773C34.2319 51.3002 34.0048 53.0231 33.7317 55.0991L33.63 55.8683L32.2681 54.5556C29.9388 52.3103 27.9271 50.3714 25.8767 48.4457L25.5485 48.1358C24.4845 47.0531 23.2995 46.0966 22.0168 45.2848C20.7856 44.4965 19.3036 44.1985 17.8634 44.4497C16.4232 44.7008 15.1295 45.4829 14.2379 46.6414C13.3895 47.6649 12.9419 48.9618 12.9781 50.2907C13.0143 51.6196 13.532 52.8898 14.4348 53.8656C15.6778 55.2678 17.0475 56.5526 18.5264 57.7033C21.9728 60.5545 25.5144 63.4392 28.6392 65.9836L31.9327 68.6687C31.8015 79.9761 28.8788 91.0091 23.6963 99.7699C19.2588 107.273 13.2954 111.377 5.46524 112.315C4.42232 112.439 1.45041 112.003 0.734347 114.953C-0.473972 119.931 1.2233 121.603 6.37883 124.106C10.4022 126.06 14.631 127.699 18.7528 129.297C21.0323 130.181 23.3885 131.095 25.6706 132.049C27.1487 132.666 28.6359 133.375 29.503 134.371C33.8801 139.393 37.3448 140.34 43.2335 138.122C44.6774 137.578 46.0656 136.9 47.4308 136.231L48.2421 135.838C52.5319 133.76 56.2874 134.121 60.062 136.978C63.5495 139.621 67.347 141.827 71.371 143.548C74.6547 144.996 78.1963 145.77 81.7851 145.825H81.7897C86.8153 145.786 91.6814 144.055 95.6017 140.909C96.3119 140.364 97.0332 139.831 97.8011 139.264C98.3262 138.877 98.8486 138.488 99.3697 138.098C101.715 136.266 104.425 134.954 107.317 134.25C110.21 133.546 113.218 133.467 116.144 134.017C116.735 134.114 117.335 134.222 117.933 134.331L118.05 133.685L118.018 134.346C120.342 134.861 122.72 135.1 125.101 135.058C129.019 134.841 131.793 133.964 133.347 132.45C135.409 130.442 136.352 126.134 139.009 125.492C145.264 123.983 152.903 125.42 156.533 118.715C160.363 111.639 160.074 110.418 153.438 105.653ZM148.562 114.546C143.825 119.578 136.178 114.171 131.681 118.667C130.229 120.12 131.52 125.105 127.655 125.829C126.353 126.072 121.803 126.142 120.661 125.683C111.385 121.95 102.481 123.407 93.4489 130.139C92.6042 130.768 91.8881 131.35 91.2594 131.915C85.5702 137.048 79.3593 137.683 72.2722 133.856L71.4655 133.422C69.1926 132.272 67.0064 130.958 64.9228 129.493C61.4396 126.903 57.801 125.59 54.1058 125.59C50.7556 125.67 47.4787 126.587 44.5731 128.256C39.7542 130.861 38.7974 129.942 36.2993 127.994C32.5996 125.11 31.3229 123.793 28.5545 123.115C25.1652 122.287 21.7148 121.305 18.2992 120.196C16.9342 119.723 15.5975 119.171 14.2956 118.544L13.9241 118.374C23.8577 114.305 30.9692 106.456 35.6522 94.3952C38.7967 86.294 40.0405 77.8318 41.1352 69.1511L41.5723 65.6666C42.6598 56.976 43.7842 47.9896 45.4566 39.282C46.8651 31.9454 50.6699 25.162 56.764 19.1185C67.4061 8.56523 87.1763 4.20591 102.852 16.9133C112.12 24.4244 117.522 34.551 119.366 47.8714C120.461 55.7895 121.527 63.8507 122.558 71.6465L123.119 75.8865C125.134 91.1043 132.744 103.35 145.738 112.282C146.521 112.821 147.269 113.453 148.136 114.185L148.562 114.546Z" fill="black"/>
</g>
<defs>
<clipPath id="clip0_8_2302">
<rect width="159.49" height="146.363" fill="white"/>
</clipPath>
</defs>
</svg>
