<svg width="160" height="148" viewBox="0 0 160 148" fill="none" xmlns="http://www.w3.org/2000/svg">
<g clip-path="url(#clip0_8_2932)">
<path d="M99.2057 37.3726C100.444 36.5108 101.524 35.7317 102.631 34.9934C113.816 27.5341 125.898 26.0508 138.638 29.9331C154.101 34.6456 160.449 49.8512 159.141 62.0846C158.031 72.4731 152.906 80.8565 145.393 87.8583C142.47 90.5827 138.707 92.0923 134.865 92.8635C127.856 94.2694 120.794 95.5381 113.695 96.3493C95.6063 98.4168 77.4087 98.3236 59.2348 98.6098C50.6926 98.741 42.17 98.5927 33.83 96.4563C31.3398 95.8184 28.8531 95.1167 26.441 94.2372C15.8405 90.3701 8.35958 83.2692 4.31652 72.6936C-2.03814 56.0739 -1.16014 39.8553 8.46702 24.8298C16.496 12.2983 28.0502 3.58703 42.9103 1.02468C61.6041 -2.19859 77.4159 3.85303 89.5549 18.6285C93.5362 23.4928 96.516 29.0962 98.3235 35.1164C98.5408 35.8279 98.8644 36.5075 99.2057 37.3726ZM63.1664 88.661C67.5406 88.491 71.9204 88.3985 76.2896 88.1359C90.9653 87.2584 105.628 86.1807 120.315 85.481C125.582 85.2192 130.723 83.7811 135.361 81.2719C143.644 76.9139 147.928 69.9691 148.373 60.7675C148.862 50.6258 143.95 41.2817 132.157 38.9327C122.305 36.9703 113.139 38.6264 105.321 45.2954C102.772 47.4686 100.554 50.0266 98.1706 52.394C97.4421 53.2389 96.6151 53.9934 95.7074 54.6418C93.233 56.116 90.3313 55.1706 89.3764 52.4671C88.9524 51.2295 88.9189 49.8907 89.2812 48.6335C90.603 44.5642 90.0648 40.686 88.6452 36.815C86.8232 31.7402 84.0174 27.075 80.3885 23.087C70.0006 11.7711 57.0675 8.09671 42.2165 11.1703C36.3239 12.3898 31.2721 15.6641 26.5301 19.3259C10.6592 31.5803 7.16813 48.8027 11.2716 65.1599C13.5976 74.4244 18.8194 81.6283 28.2818 84.8884C31.7721 86.0921 35.3486 87.0306 38.9803 87.6949C46.9811 89.1539 55.0784 88.8953 63.1664 88.661Z" fill="black"/>
<path d="M75.5669 111.905C72.8818 111.891 70.5243 109.66 70.521 107.131C70.5906 105.732 71.18 104.41 72.1737 103.423C73.1667 102.436 74.4925 101.855 75.8918 101.795C77.1802 101.854 78.3957 102.409 79.2844 103.344C80.1731 104.279 80.666 105.521 80.6594 106.811C80.6503 108.159 80.1114 109.449 79.1577 110.403C78.2047 111.356 76.915 111.896 75.5669 111.905Z" fill="black"/>
<path d="M27.6892 135.909C24.9405 135.946 22.3611 133.775 22.3263 131.395C22.2896 128.931 24.741 126.767 27.5508 126.781C30.1958 126.795 32.4456 128.846 32.4948 131.287C32.5447 133.739 30.3231 135.873 27.6892 135.909Z" fill="black"/>
<path d="M99.9097 112.291C99.9196 111.013 100.436 109.792 101.346 108.894C102.257 107.998 103.486 107.499 104.764 107.509C106.042 107.519 107.264 108.035 108.161 108.946C109.057 109.856 109.555 111.086 109.546 112.363C109.486 113.659 108.926 114.882 107.984 115.774C107.042 116.666 105.79 117.158 104.492 117.147C103.251 117.082 102.082 116.541 101.228 115.637C100.375 114.733 99.9025 113.534 99.9097 112.291Z" fill="black"/>
<path d="M122.257 131.913C119.547 131.938 117.15 129.657 117.211 127.112C117.268 125.929 117.761 124.81 118.594 123.969C119.429 123.128 120.544 122.626 121.726 122.56C124.47 122.478 127.204 124.897 127.18 127.386C127.157 129.823 124.911 131.888 122.257 131.913Z" fill="black"/>
<path d="M130.218 108.546C127.563 108.579 125.594 106.736 125.648 104.265C125.701 101.744 128.057 99.6315 130.849 99.6039C133.52 99.5737 135.428 101.377 135.393 103.894C135.355 106.458 133.077 108.51 130.218 108.546Z" fill="black"/>
<path d="M73.5243 147.605C72.9093 147.597 72.3016 147.468 71.7371 147.224C71.1727 146.98 70.662 146.625 70.2354 146.182C69.8088 145.739 69.4747 145.215 69.2522 144.641C69.0304 144.068 68.9247 143.455 68.9411 142.84C68.9851 140.106 70.8058 138.574 73.8853 138.675C76.4969 138.761 78.4797 140.667 78.46 143.065C78.4403 145.464 76.0538 147.652 73.5243 147.605Z" fill="black"/>
<path d="M47.0729 142.628C47.1196 143.864 46.6846 145.072 45.8599 145.995C45.0352 146.918 43.8848 147.485 42.6504 147.579C42.0641 147.611 41.4776 147.52 40.9291 147.31C40.3806 147.101 39.8824 146.778 39.4671 146.363C39.0517 145.948 38.7286 145.451 38.5187 144.902C38.3089 144.354 38.2168 143.768 38.2489 143.181C38.285 140.446 40.2102 138.242 42.6327 138.16C43.2187 138.158 43.7994 138.272 44.3408 138.497C44.8823 138.721 45.3738 139.05 45.7869 139.466C46.2 139.882 46.5263 140.375 46.747 140.917C46.9678 141.46 47.0787 142.042 47.0729 142.628Z" fill="black"/>
<path d="M93.5078 129.925C93.4678 131.173 92.9381 132.353 92.0344 133.213C91.1299 134.073 89.9242 134.542 88.6765 134.52C87.4656 134.433 86.3374 133.874 85.5353 132.963C84.7326 132.052 84.3198 130.863 84.3861 129.65C84.4517 128.438 84.9919 127.3 85.8884 126.482C86.7856 125.665 87.9677 125.231 89.1806 125.277C90.3673 125.33 91.485 125.848 92.2936 126.717C93.1029 127.586 93.5393 128.738 93.5078 129.925Z" fill="black"/>
<path d="M63.9366 130.879C63.9623 131.492 63.8623 132.103 63.6427 132.676C63.4231 133.248 63.0884 133.77 62.6595 134.208C62.2305 134.647 61.7165 134.993 61.1487 135.225C60.581 135.457 59.9717 135.57 59.3586 135.558C56.8547 135.524 54.9118 133.345 54.9716 130.639C54.9992 129.514 55.4534 128.442 56.2422 127.64C57.031 126.838 58.0953 126.365 59.2194 126.318C59.8322 126.294 60.4434 126.395 61.0164 126.613C61.5893 126.832 62.1119 127.164 62.5528 127.59C62.9936 128.016 63.3437 128.528 63.5815 129.093C63.8193 129.658 63.9401 130.266 63.9366 130.879Z" fill="black"/>
<path d="M20.1056 98.933C20.6664 98.914 21.2254 99.0105 21.7477 99.2159C22.2699 99.4213 22.7443 99.7311 23.1421 100.127C23.5399 100.523 23.8524 100.996 24.0603 101.517C24.2682 102.039 24.3671 102.597 24.3509 103.158C24.3037 105.704 21.8818 107.903 19.1659 107.867C18.6328 107.89 18.1005 107.802 17.603 107.609C17.1054 107.416 16.6533 107.123 16.2746 106.747C15.8959 106.371 15.599 105.92 15.4025 105.425C15.206 104.929 15.1141 104.397 15.1327 103.864C15.1971 102.57 15.7428 101.346 16.663 100.434C17.5831 99.5218 18.8109 98.9862 20.1056 98.933Z" fill="black"/>
<path d="M45.6969 113.465C45.779 115.818 44.0375 117.62 41.5323 117.776C40.9218 117.826 40.3076 117.75 39.727 117.555C39.1464 117.36 38.6115 117.048 38.1551 116.64C37.6987 116.231 37.3303 115.734 37.0722 115.178C36.8141 114.623 36.6719 114.02 36.654 113.408C36.61 111.017 38.1589 109.196 40.3347 109.08C43.0335 108.936 45.6156 111.046 45.6969 113.465Z" fill="black"/>
<path d="M105.94 138.762C106.442 138.765 106.939 138.869 107.401 139.067C107.861 139.267 108.277 139.556 108.623 139.921C108.97 140.285 109.238 140.716 109.414 141.186C109.589 141.657 109.668 142.158 109.644 142.66C109.615 145.517 107.941 147.576 105.669 147.552C103.396 147.528 101.468 145.304 101.491 142.757C101.513 140.424 103.43 138.702 105.94 138.762Z" fill="black"/>
</g>
<defs>
<clipPath id="clip0_8_2932">
<rect width="159.49" height="147.676" fill="white"/>
</clipPath>
</defs>
</svg>
