<svg width="155" height="154" viewBox="0 0 155 154" fill="none" xmlns="http://www.w3.org/2000/svg">
<g clip-path="url(#clip0_8_2946)">
<path d="M66.1375 74.3333C62.5933 70.7484 59.7107 67.7949 56.7847 64.8822C54.7967 62.904 53.0555 60.2498 50.6435 59.2469C48.2439 58.2499 45.1419 58.9741 42.3498 58.8796C37.8598 58.728 33.3717 58.5243 28.8824 58.3406C27.361 58.2789 25.8922 58.0689 25.4735 56.2613C25.1171 54.7209 26.1601 53.278 28.2728 52.6623C29.6774 52.2954 31.1169 52.0781 32.5673 52.0143C35.8063 51.7866 39.0519 51.658 42.7517 51.4657C42.2667 50.7545 41.7438 50.0699 41.1855 49.4146C38.9126 47.0814 36.5359 44.8445 34.3379 42.443C33.7512 41.7709 33.0353 41.2235 32.2326 40.8342C31.43 40.4448 30.5573 40.2213 29.6663 40.1766C24.0691 39.7434 18.4711 39.2887 12.8889 38.6953C10.5558 38.3806 8.24225 37.9345 5.95926 37.3596C4.40243 37.013 3.29238 36.1016 3.27335 34.3695C3.25759 32.9196 4.51711 31.858 6.54125 31.6486C7.54417 31.5944 8.54988 31.6208 9.54862 31.7275C14.3092 32.0097 19.0697 32.2993 23.8294 32.596L24.1438 31.9095C22.3999 30.0639 20.6652 28.212 18.9101 26.3749C17.6696 25.074 16.368 23.8302 15.1688 22.4946C12.9832 20.0661 12.6657 17.8134 14.2042 16.2395C15.9106 14.4929 18.0673 14.7855 20.6769 17.258C22.7115 19.1889 24.6431 21.2349 26.6403 23.2092C27.254 23.815 27.9355 24.3515 29.0237 25.3026C28.855 22.3103 28.666 19.8745 28.5998 17.4348C28.5319 15.9807 28.6031 14.5227 28.8129 13.0821C28.9027 12.2376 29.2676 11.4465 29.8515 10.8298C30.4353 10.2131 31.2056 9.80551 32.0439 9.66965C33.6093 9.51672 35.1808 10.5004 35.6973 12.52C36.242 14.9203 36.6265 17.3539 36.8485 19.8051C37.3978 24.4841 37.8368 29.1758 38.3855 33.8548C38.4346 34.6308 38.7142 35.3743 39.1883 35.9905C42.1799 39.1409 45.2638 42.2069 48.7536 45.742C49.112 42.1557 49.3727 39.2071 49.7147 36.2687C49.8379 34.8174 50.0968 33.3809 50.4884 31.9781C50.7392 31.1655 51.2516 30.4585 51.9456 29.9668C52.6394 29.4751 53.4762 29.2265 54.326 29.2592C55.1793 29.3117 55.9875 29.6604 56.6107 30.2456C57.2339 30.8308 57.6332 31.6156 57.7391 32.4639C57.8939 34.1369 57.8739 35.8215 57.6799 37.4903C57.3582 41.6298 57.0235 45.7709 56.5575 49.8953C56.3821 50.9375 56.481 52.0072 56.8447 52.9995C57.2083 53.9917 57.8243 54.8718 58.6317 55.5537C62.4292 59.054 66.0305 62.7669 69.7237 66.3831C70.2645 66.9121 70.8598 67.3866 71.784 68.1959C72.3156 54.355 72.8295 40.9645 73.3546 27.2825C67.6904 21.9891 61.962 16.6374 56.2355 11.2823C55.4977 10.5919 54.7291 9.92818 54.0504 9.18192C52.153 7.10002 51.8111 4.84357 53.1316 3.49086C54.4128 2.17819 56.4368 2.27118 58.6067 3.99209C62.2119 6.85304 65.7391 9.81325 69.2702 12.7661C70.6209 13.8963 71.891 15.1222 73.7989 16.8483C73.8337 14.1882 73.7654 12.2265 73.9085 10.2805C74.0884 7.82448 74.3509 5.36553 74.7526 2.93708C75.0066 1.396 75.8926 0.205325 77.6792 0.232891C79.1888 0.256519 80.1076 1.46994 80.2868 3.57547C80.3525 4.35717 80.3013 5.15055 80.3393 5.9329C80.4968 9.18048 80.6675 12.4309 80.8644 16.176C81.6527 15.6367 82.4074 15.0503 83.1261 14.4211C86.4407 11.0646 89.7138 7.66736 93.0198 4.30231C93.7647 3.46596 94.5956 2.7104 95.4981 2.04744C96.2575 1.55476 97.158 1.32556 98.0605 1.39494C98.9636 1.46432 99.8181 1.82841 100.493 2.43137C101.156 3.05301 101.583 3.88403 101.704 4.78431C101.825 5.68459 101.631 6.59917 101.155 7.37312C100.719 8.15561 100.169 8.86891 99.5234 9.4902C94.2117 14.6589 88.94 19.8731 83.4983 24.9026C81.7209 26.5434 80.8263 28.1454 80.7915 30.6552C80.634 42.1089 80.2422 53.5612 79.9436 65.0117C79.9121 66.2321 79.9396 67.4549 79.9396 69.0682C80.5133 68.7643 81.0613 68.4125 81.5772 68.018C85.6202 64.1185 89.6127 60.1668 93.6879 56.3023C94.2786 55.7912 94.7459 55.1538 95.0557 54.4371C95.3662 53.7206 95.5106 52.9427 95.4791 52.1624C95.4016 47.2248 95.4226 42.285 95.4384 37.3454C95.4482 34.3184 96.1472 33.0891 97.8937 32.8351C99.5772 32.5903 100.774 33.7022 101.431 36.5757C102.175 39.8351 102.694 43.1457 103.358 46.6912C104.08 46.1373 104.72 45.729 105.262 45.2157C108.116 42.5116 110.913 39.7469 113.798 37.0775C114.784 36.1753 115.373 34.9203 115.439 33.5856C116.227 26.3344 117.165 19.0998 118.082 11.8611C118.182 10.9678 118.402 10.0915 118.734 9.25628C119.203 8.13592 120.157 7.30827 121.374 7.66795C121.83 7.80013 122.255 8.02322 122.624 8.32304C122.993 8.62285 123.297 8.99336 123.52 9.41328C123.921 10.6912 124.079 12.0332 123.985 13.3693C123.86 17.9597 123.625 22.5467 123.411 27.6248C124.5 26.6232 125.31 25.9118 126.083 25.1609C129.306 22.0309 132.483 18.8532 135.747 15.7664C137.747 13.8749 139.569 13.6003 140.758 14.7909C141.957 15.9946 141.808 17.8987 140.056 19.9044C138.064 22.1852 135.879 24.3019 133.788 26.4934C133.037 27.281 132.313 28.0967 131.043 29.4835C134.475 29.1803 137.138 28.9839 139.792 28.6958C141.947 28.4628 144.049 28.2883 145.882 29.8117C148.268 31.7918 148.233 34.1159 145.732 35.9411C143.619 37.4835 141.124 37.5162 138.659 37.7223C133.294 38.1732 127.932 38.6575 122.579 39.2055C121.693 39.2607 120.843 39.5805 120.141 40.124C116.369 43.5346 112.82 47.1838 109.516 51.0485C112.355 50.6468 115.188 50.1901 118.037 49.8665C119.244 49.6945 120.471 49.7222 121.67 49.9486C122.502 50.1309 123.249 50.586 123.793 51.2414C124.337 51.8967 124.647 52.7154 124.673 53.5668C124.76 54.4118 124.565 55.2614 124.12 55.985C123.676 56.7087 123.005 57.266 122.212 57.5702C121.387 57.9125 120.512 58.124 119.622 58.197C113.589 58.7339 107.55 59.1961 101.519 59.7501C100.637 59.7695 99.784 60.0635 99.0771 60.591C94.845 64.7344 90.7101 68.9769 86.1473 73.5936C87.6975 73.6665 88.6518 73.7492 89.6068 73.7511C100.839 73.7774 112.073 73.7465 123.304 73.8489C124.183 73.8981 125.064 73.7557 125.883 73.4328C126.702 73.1092 127.441 72.6124 128.051 71.9757C132.061 68.0482 136.225 64.2761 140.346 60.4621C141.79 59.1245 143.421 58.1767 145.503 58.6053C149.221 59.3712 150.487 63.4681 147.806 66.4553C146.239 68.2011 144.349 69.6549 142.628 71.2662C141.841 72.004 141.112 72.8047 139.916 74.0229C142.712 74.0229 144.901 74.0005 147.089 74.0307C148.543 74.0504 150.002 74.0826 151.448 74.2237C152.119 74.313 152.739 74.6313 153.202 75.1255C153.665 75.6191 153.944 76.2577 153.991 76.9337C154.038 77.6091 153.85 78.2805 153.459 78.8332C153.068 79.3864 152.498 79.7868 151.846 79.9686C150.552 80.3139 149.222 80.5107 147.883 80.5547C144.753 80.6374 141.62 80.581 137.87 80.581C138.356 81.3436 138.887 82.0781 139.457 82.7804C141.938 85.3808 144.506 87.8998 146.929 90.5527C147.949 91.5917 148.75 92.8237 149.288 94.1764C149.593 95.0664 149.383 96.6311 148.763 97.2119C148.31 97.5775 147.784 97.8414 147.221 97.9871C146.658 98.1321 146.07 98.1564 145.497 98.0553C144.116 97.6018 142.845 96.866 141.763 95.8947C136.044 91.3561 130.548 86.574 125.91 80.7083H84.832C85.2336 81.3771 85.6859 82.0138 86.1853 82.6124C88.6367 85.0861 91.2536 87.4069 93.5672 90.0007C94.3331 90.9518 95.3432 91.6764 96.4898 92.0971C97.6358 92.5178 98.8756 92.6182 100.075 92.3878C103.536 92.0242 107.018 91.8785 110.497 91.9514C111.952 91.9724 113.391 92.2448 114.752 92.7574C115.448 93.0087 116.052 93.4649 116.483 94.0661C116.915 94.6673 117.154 95.3853 117.17 96.125C117.241 96.8641 117.065 97.6064 116.671 98.2365C116.276 98.8659 115.686 99.3476 114.99 99.6069C113.644 100.131 112.227 100.452 110.786 100.557C109.035 100.715 107.26 100.594 105.051 100.594C105.319 101.133 105.633 101.648 105.989 102.132C110.398 106.62 114.857 111.059 119.225 115.587C119.72 116.185 120.376 116.63 121.115 116.868C121.854 117.107 122.646 117.129 123.398 116.934C129.833 115.645 136.371 115.963 142.882 115.949C143.667 115.927 144.451 116.025 145.207 116.242C146.531 116.666 147.372 117.775 147.09 119.059C146.887 119.987 146.034 121.231 145.215 121.473C143.266 121.987 141.263 122.269 139.248 122.314C136.671 122.445 134.08 122.306 131.498 122.384C130.094 122.427 128.697 122.679 126.721 122.902C128.926 125.199 130.732 127.022 132.463 128.91C134.131 130.73 135.76 132.59 137.327 134.496C137.942 135.295 138.465 136.159 138.889 137.073C139.231 137.671 139.331 138.375 139.169 139.044C139.007 139.712 138.596 140.293 138.019 140.668C137.491 141.105 136.819 141.33 136.133 141.297C135.449 141.265 134.8 140.979 134.315 140.494C133.461 139.767 132.685 138.953 131.901 138.152C128.615 134.789 125.338 131.417 121.496 127.469C121.176 131.998 120.971 135.709 120.624 139.407C120.493 140.831 120.318 142.403 119.611 143.572C119.086 144.446 117.722 145.081 116.632 145.278C116.005 145.374 115.365 145.23 114.84 144.875C114.315 144.519 113.943 143.98 113.798 143.362C113.348 141.987 113.11 140.549 113.093 139.101C113.221 133.827 113.429 128.551 113.784 123.284C113.895 122.464 113.801 121.629 113.513 120.853C113.224 120.077 112.748 119.384 112.128 118.835C107.576 114.517 103.137 110.083 98.1221 105.172C97.9561 106.968 97.8596 108.137 97.7382 109.307C97.4953 111.649 97.3569 114.01 96.9558 116.324C96.5574 118.626 95.4515 119.606 93.7647 119.591C91.9696 119.576 90.8381 118.435 90.7036 115.898C90.4594 111.303 90.2809 106.693 90.3715 102.096C90.4371 98.9703 89.7151 96.5169 87.1607 94.4671C84.6666 92.4673 82.5052 90.05 79.7132 87.3458C79.618 88.8784 79.5202 89.7165 79.5202 90.5553C79.5202 102.238 79.5688 113.922 79.5137 125.604C79.45 126.439 79.5826 127.278 79.9002 128.053C80.2179 128.828 80.7121 129.518 81.3435 130.068C85.4128 133.593 89.4447 137.168 93.5403 140.667C95.3314 142.197 97.3129 143.507 99.0797 145.064C101.003 146.758 101.302 148.566 100.157 150.099C99.0909 151.528 97.0563 151.805 94.998 150.383C90.848 147.509 86.8325 144.441 82.7619 141.452C81.9743 140.875 81.1965 140.293 79.9908 139.399C79.9908 140.986 79.9764 142.056 79.9908 143.125C80.0197 144.92 80.1831 146.72 80.0827 148.506C79.8904 151.919 78.5495 153.585 76.2759 153.495C74.1297 153.409 72.9778 151.798 72.8157 148.553C72.7435 147.096 72.7921 145.632 72.7357 144.174C72.7022 143.299 72.5729 142.428 72.4449 141.138C71.547 141.918 70.8697 142.433 70.279 143.033C67.6779 145.673 65.1471 148.385 62.4909 150.967C61.5981 151.812 60.5583 152.487 59.4226 152.957C58.7331 153.196 57.988 153.226 57.2815 153.043C56.575 152.86 55.9383 152.472 55.4513 151.929C54.9643 151.385 54.6488 150.71 54.5443 149.987C54.4398 149.265 54.551 148.528 54.8642 147.869C55.5106 146.829 56.2697 145.864 57.1273 144.99C61.8661 139.739 66.6035 134.483 71.4033 129.287C72.5499 128.046 72.4488 126.637 72.4246 125.188C72.2585 115.305 72.0885 105.423 71.9159 95.5409C71.8791 93.3047 71.9106 91.0673 71.9106 88.3087C70.8887 89.1003 70.1727 89.5557 69.5741 90.1359C67.2323 92.4003 64.9751 94.7539 62.5893 96.9704C62.0049 97.4882 61.5359 98.1236 61.2125 98.8344C60.889 99.5452 60.7183 100.316 60.7115 101.097C60.5146 105.469 60.2573 109.842 59.8806 114.203C59.7687 115.643 59.393 117.051 58.7721 118.356C58.4566 119.029 57.9226 119.574 57.2568 119.903C56.5911 120.233 55.8331 120.327 55.1071 120.17C54.4262 120.104 53.7848 119.82 53.2784 119.36C52.772 118.901 52.4277 118.29 52.2968 117.618C52.04 116.198 51.9516 114.754 52.034 113.314C52.1278 111.325 52.428 109.344 52.6971 106.78C51.6318 107.633 51.0154 108.055 50.487 108.567C48.3868 110.597 46.4604 112.833 44.1987 114.661C42.6559 115.864 41.3745 117.37 40.4324 119.085C39.4903 120.8 38.9075 122.69 38.7191 124.637C38.1376 129.309 37.2173 133.941 36.387 138.579C36.1988 139.682 35.8729 140.756 35.4169 141.777C35.2135 142.316 34.8075 142.755 34.2853 142.999C33.7632 143.242 33.1664 143.272 32.6224 143.082C32.1734 142.917 31.763 142.663 31.4161 142.334C31.0692 142.005 30.7932 141.609 30.6053 141.169C30.3131 139.747 30.2312 138.29 30.3623 136.844C30.4595 133.949 30.6645 131.057 30.8587 127.557C29.6202 128.509 28.8242 129.06 28.0963 129.693C25.7289 131.763 23.4125 133.895 21.0208 135.935C20.265 136.601 19.4028 137.134 18.4698 137.514C17.8478 137.798 17.1525 137.881 16.4815 137.749C15.8105 137.618 15.1974 137.279 14.7285 136.782C14.1832 136.28 13.8184 135.613 13.6904 134.884C13.5626 134.154 13.6786 133.402 14.0208 132.745C14.6041 131.666 15.3608 130.69 16.2604 129.857C18.6889 127.521 21.2132 125.287 23.6823 122.994C24.2245 122.49 24.6945 121.909 25.6462 120.876C22.5811 120.876 20.1426 120.942 17.7096 120.849C16.4851 120.79 15.2716 120.592 14.092 120.258C13.374 120.067 12.7435 119.635 12.307 119.034C11.8704 118.433 11.6542 117.7 11.6948 116.958C11.6127 116.162 11.8202 115.362 12.2788 114.707C12.7373 114.051 13.4166 113.582 14.1923 113.387C15.2603 113.079 16.3659 112.922 17.4773 112.921C22.195 112.971 26.9134 113.059 31.6272 113.249C32.4616 113.317 33.3005 113.198 34.0831 112.901C34.8657 112.604 35.5722 112.136 36.1508 111.531C40.0291 107.676 43.9946 103.91 48.4748 99.5787C45.4195 99.5787 43.1262 99.5984 40.8343 99.5721C39.4908 99.6095 38.1466 99.5452 36.8129 99.3792C34.9154 99.0634 34.0977 98.0868 34.1167 96.5116C34.0913 96.1716 34.1339 95.8303 34.2417 95.5068C34.3495 95.1838 34.5202 94.8852 34.7446 94.6286C34.9689 94.3726 35.242 94.1632 35.548 94.0129C35.8539 93.8626 36.1866 93.7747 36.5267 93.7543C39.7474 93.3415 42.978 92.9667 46.2157 92.7475C48.7905 92.5723 51.3875 92.739 53.9604 92.567C55.0618 92.5539 56.1319 92.1988 57.0235 91.5523C60.6603 88.2464 64.1502 84.7783 68.1058 80.9689C66.7748 80.8645 65.9452 80.7333 65.1181 80.7451C53.2128 80.921 41.3082 81.1599 29.4022 81.2609C28.5186 81.2117 27.6378 81.3968 26.849 81.7985C26.0601 82.1995 25.3916 82.8027 24.911 83.5457C22.4826 86.912 19.9853 90.2462 17.2923 93.4032C15.8235 95.0801 14.1244 96.5405 12.2458 97.7409C10.9331 98.5981 9.13927 98.8068 7.85744 97.5073C7.24731 96.9067 6.85331 96.1204 6.7374 95.2718C6.62149 94.4231 6.79017 93.5607 7.21685 92.8184C7.91369 91.5484 8.74717 90.3584 9.70247 89.2696C11.8474 86.6967 14.0697 84.1895 16.718 81.1271C13.4941 80.9531 10.8764 80.8547 8.2622 80.6551C6.36618 80.5285 4.47822 80.304 2.60547 79.9817C2.03275 79.9292 1.50266 79.6555 1.12775 79.2197C0.752837 78.7833 0.562464 78.2182 0.596397 77.6445C0.640371 76.2931 1.57671 75.6217 2.76731 75.4609C3.98891 75.3467 5.21671 75.3119 6.44287 75.3559C9.40239 75.4333 12.3629 75.2456 15.289 74.7954C13.7053 73.4584 12.1385 72.0965 10.5318 70.7917C8.70129 69.3058 6.78091 67.9268 4.99111 66.3942C3.13826 64.8078 2.70952 63.1073 3.61658 61.7152C4.56892 60.2542 6.61998 59.9095 8.72945 61.2281C12.0577 63.308 15.2609 65.5895 18.496 67.8165C21.8105 70.0979 25.0822 72.4417 28.4177 74.691C28.9957 75.0205 29.6565 75.1774 30.321 75.1413C42.0005 74.901 53.6717 74.6254 66.1375 74.3333Z" fill="black"/>
</g>
<defs>
<clipPath id="clip0_8_2946">
<rect width="154.239" height="153.583" fill="white"/>
</clipPath>
</defs>
</svg>
