<svg width="155" height="154" viewBox="0 0 155 154" fill="none" xmlns="http://www.w3.org/2000/svg">
<g clip-path="url(#clip0_8_2948)">
<path d="M53.8153 63.2213C53.7746 63.1287 53.7403 62.8658 53.5906 62.7425C45.0031 55.61 42.2525 46.3345 43.7975 35.5942C45.2414 25.545 48.923 16.4009 56.6711 9.58677C64.5518 2.6552 73.8012 -0.958085 84.5448 0.513426C85.9933 0.695177 87.4104 1.07058 88.7591 1.62933C99.7856 6.3904 108.646 13.5274 112.87 25.1479C116.462 35.0264 114.665 44.4212 108.902 53.0192C106.986 55.8782 104.425 58.3048 102.001 61.1106C111.837 63.9558 118 71.172 123.225 79.7956C124.573 78.9188 125.763 78.1384 126.959 77.3672C128.418 76.3183 129.938 75.3588 131.513 74.4944C136.733 71.9767 140.72 68.2822 143.189 62.9886C143.605 62.1909 144.12 61.4501 144.724 60.7837C145.719 59.5931 146.934 58.6991 148.514 59.6107C150.094 60.5224 149.854 62.0584 149.481 63.5154C149.262 64.1514 149.012 64.7755 148.729 65.3857C148.349 66.4149 147.998 67.4545 147.6 68.586C148.943 69.2863 150.164 69.8219 151.276 70.5268C153.257 71.7811 153.986 73.397 153.442 74.9899C153.288 75.448 153.043 75.8701 152.722 76.2311C152.4 76.5927 152.01 76.8854 151.573 77.0922C151.136 77.2989 150.662 77.4151 150.179 77.4341C149.696 77.4538 149.214 77.375 148.762 77.2037C145.203 75.7408 142.549 77.0955 139.736 78.9325C136.543 81.0177 133.201 82.8706 129.951 84.8711C128.819 85.5668 127.767 86.3925 126.579 87.2286C128.128 92.9316 129.029 98.6076 128.538 104.335C127.137 120.673 121.41 134.906 107.566 144.771C97.1242 152.213 85.3442 154.57 72.7104 153.18C66.7803 152.617 60.9698 151.157 55.4783 148.848C37.8746 141.158 27.9293 127.823 26.551 108.527C26.1493 102.897 27.2821 97.35 29.0305 91.9668C29.3377 91.021 29.6549 90.0785 29.941 89.2141L12.2119 74.9302C9.75325 74.9302 7.18762 74.9473 4.622 74.9184C3.94738 74.9197 3.27563 74.8311 2.62415 74.6558C1.21433 74.2529 0.195638 73.353 0.13788 71.8264C0.0801227 70.2722 1.0785 69.3146 2.48634 68.9214C3.47043 68.7068 4.47199 68.5821 5.47864 68.548C6.56948 68.4508 7.66478 68.3977 8.73855 68.3268C8.73855 66.7516 8.73002 65.4315 8.73855 64.1096C8.75758 61.7054 9.358 60.6968 10.8906 60.5183C12.7526 60.3017 13.7019 61.5283 13.9421 63.0123C14.7776 68.1929 17.8471 71.3696 22.2643 73.9522C26.1098 76.2009 29.4801 79.262 32.998 81.9169C36.2095 78.3628 39.0864 74.6237 42.5348 71.5192C45.9294 68.4646 49.8989 66.0572 53.8153 63.2213ZM117.071 103.296C117.415 88.416 108.185 74.3671 92.1741 70.2433C89.4982 69.5535 86.6306 68.7337 83.9698 69.0304C77.7609 69.7294 71.6733 69.734 65.6194 68.1647C64.8701 67.931 64.077 67.8726 63.3014 67.994C62.5259 68.1154 61.7887 68.4128 61.1465 68.8643C59.0266 70.3306 56.7747 71.6209 54.7335 73.1863C42.4389 82.6199 35.6944 94.8028 36.8883 110.608C37.9023 124.026 45.1094 133.435 57.0665 138.968C66.0072 143.079 75.9756 144.415 85.6829 142.801C95.8082 141.226 104.045 136.446 109.727 127.756C114.576 120.342 116.856 112.117 117.071 103.296ZM51.8809 39.6976C51.7496 50.4372 56.747 57.179 66.1706 59.6672C68.8754 60.4072 71.6563 60.8328 74.4588 60.9363C85.6921 61.2277 94.9451 57.097 100.989 47.4409C105.013 41.0134 105.583 33.975 102.104 26.922C98.3029 19.2081 91.8098 14.4819 84.0204 11.7417C74.6111 8.43109 62.0586 12.3404 56.9018 22.3745C54.0929 27.7581 52.3859 33.6482 51.8809 39.6995V39.6976Z" fill="black"/>
<path d="M79.0887 83.3672C79.0959 83.9257 78.9922 84.4803 78.7828 84.9975C78.5734 85.5154 78.263 85.986 77.8699 86.3824C77.4767 86.7788 77.0094 87.0932 76.4935 87.3072C75.9776 87.5211 75.4243 87.6294 74.8658 87.6268C74.3066 87.6557 73.7481 87.5677 73.225 87.3682C72.7019 87.1687 72.2267 86.8615 71.8289 86.4677C71.4312 86.0732 71.1201 85.6007 70.916 85.0789C70.7118 84.5578 70.6186 83.9999 70.6423 83.44C70.6127 81.0608 72.2214 79.1528 74.344 79.0504C76.5211 78.9448 79.0132 81.2111 79.0887 83.3672Z" fill="black"/>
<path d="M74.22 102.399C76.2927 102.395 78.622 104.886 78.6253 107.112C78.5872 108.126 78.1573 109.085 77.4268 109.788C76.6957 110.491 75.721 110.884 74.7063 110.883C73.58 110.855 72.5056 110.4 71.7003 109.613C70.895 108.824 70.4178 107.761 70.3653 106.635C70.3299 105.566 70.7125 104.525 71.4325 103.734C72.1525 102.943 73.1521 102.464 74.22 102.399Z" fill="black"/>
<path d="M75.0588 132.832C74.556 132.865 74.0526 132.793 73.5801 132.62C73.1075 132.447 72.6763 132.175 72.3146 131.826C71.9523 131.475 71.6681 131.053 71.4798 130.586C71.2908 130.12 71.2015 129.619 71.2186 129.116C71.1871 128.559 71.2678 128.002 71.4562 127.477C71.6445 126.952 71.9366 126.471 72.3146 126.062C72.6927 125.652 73.1495 125.323 73.6575 125.094C74.1655 124.864 74.7149 124.74 75.2721 124.727C76.2868 124.719 77.2647 125.108 77.9979 125.81C78.7303 126.513 79.1602 127.473 79.195 128.487C79.2088 129.045 79.113 129.599 78.9128 130.118C78.7126 130.638 78.4114 131.114 78.0274 131.518C77.6435 131.921 77.1834 132.245 76.674 132.471C76.1647 132.697 75.6154 132.819 75.0588 132.832Z" fill="black"/>
<path d="M78.9353 33.523C79.2287 33.5194 79.5208 33.5662 79.7984 33.6615C83.5028 35.517 87.3535 37.1906 90.1758 40.3633C91.9663 42.377 91.982 44.5309 90.5151 46.139C89.1014 47.6886 86.9368 47.7191 84.7334 46.1531C82.7684 44.8533 80.8801 43.4409 79.0778 41.9234C77.7342 40.7538 76.6211 39.3434 75.7961 37.7649C74.6954 35.5176 76.3021 33.4568 78.9353 33.523Z" fill="black"/>
<path d="M93.9358 27.7788C93.9588 28.225 93.8905 28.671 93.7356 29.0901C93.5807 29.5093 93.3424 29.8925 93.0353 30.2169C92.7281 30.5414 92.3586 30.8003 91.9484 30.9777C91.5382 31.1552 91.0958 31.2478 90.6495 31.2495C90.2308 31.2626 89.8146 31.1917 89.4241 31.0412C89.0329 30.8907 88.6765 30.6631 88.3753 30.3727C88.074 30.0823 87.8338 29.7351 87.6691 29.3504C87.5037 28.9657 87.4177 28.5517 87.4151 28.1332C87.3645 27.6892 87.4052 27.2396 87.5358 26.8122C87.6658 26.3848 87.883 25.9883 88.1725 25.6482C88.4626 25.3082 88.819 25.0319 89.2206 24.8355C89.6217 24.6391 90.0595 24.5269 90.5058 24.5066C90.9514 24.472 91.3997 24.5317 91.8211 24.6816C92.2424 24.8317 92.627 25.0685 92.9506 25.3771C93.2742 25.6858 93.5295 26.0594 93.6988 26.4731C93.8688 26.8869 93.9496 27.3318 93.9358 27.7788Z" fill="black"/>
<path d="M69.0026 28.3253C69.0118 28.747 68.9383 29.1662 68.7854 29.5592C68.6318 29.9522 68.4027 30.3113 68.1106 30.6155C67.8186 30.9196 67.4694 31.1627 67.0828 31.3314C66.6962 31.5002 66.2801 31.5907 65.8588 31.5981C65.4376 31.623 65.0163 31.5634 64.6192 31.4218C64.222 31.2802 63.8574 31.06 63.5472 30.7745C63.237 30.4889 62.9875 30.1438 62.8136 29.7598C62.6397 29.3758 62.5448 28.9609 62.5348 28.5394C62.5156 28.09 62.5872 27.6409 62.7453 27.2197C62.9035 26.7985 63.1449 26.4136 63.4552 26.0878C63.7654 25.762 64.138 25.5023 64.5509 25.3238C64.9639 25.1452 65.4086 25.0516 65.8588 25.0488C66.7087 25.069 67.5173 25.4246 68.1061 26.0385C68.6954 26.6523 69.0171 27.4747 69.0026 28.3253Z" fill="black"/>
</g>
<defs>
<clipPath id="clip0_8_2948">
<rect width="154.239" height="153.583" fill="white"/>
</clipPath>
</defs>
</svg>
