<svg width="157" height="144" viewBox="0 0 157 144" fill="none" xmlns="http://www.w3.org/2000/svg">
<g clip-path="url(#clip0_8_2898)">
<path d="M137.905 52.8125C138.186 52.9646 138.483 53.0821 138.792 53.1624C147.924 53.5254 152.302 59.5539 154.74 67.2343C156.9 74.0366 156.853 81.1566 156.083 88.2535C155.588 92.8197 155.325 97.4108 154.871 101.982C154.519 105.904 153.279 109.695 151.246 113.068C149.284 116.284 146.557 118.582 142.76 119.114C137.325 119.876 131.858 120.415 126.402 121.025C125.41 121.136 124.406 121.133 122.989 121.204C123.591 123.968 124.134 126.531 124.71 129.088C125.177 131.165 125.733 133.223 126.148 135.31C126.376 136.288 126.436 137.296 126.325 138.294C126.226 139.313 125.777 140.266 125.055 140.992C124.333 141.717 123.382 142.17 122.364 142.275C121.344 142.395 120.315 142.14 119.469 141.556C118.624 140.973 118.02 140.102 117.77 139.107C117.164 136.491 116.702 133.845 116.385 131.179C115.902 128.106 115.46 125.026 115.018 122.071H40.7736C40.1343 125.818 39.5331 129.546 38.8485 133.26C38.547 135.139 38.1122 136.994 37.5471 138.811C36.5494 141.769 34.4183 143.19 32.0778 142.726C29.6815 142.25 28.1121 139.779 28.7219 136.622C29.4845 132.671 30.6496 128.798 31.6328 124.888C31.8737 123.928 32.0836 122.961 32.4138 121.541C28.9227 121.151 25.6292 120.879 22.3718 120.391C19.2668 119.968 16.1877 119.373 13.1489 118.608C7.38826 117.073 3.76336 113.312 3.04139 107.335C2.12777 99.7729 1.51211 92.1738 0.840672 84.5833C0.534819 81.1251 0.217871 77.6491 0.250032 74.1843C0.191967 71.1678 0.502276 68.1552 1.17413 65.2134C3.50347 56.3404 11.1314 51.0498 20.2965 51.5847C21.1629 51.6353 22.0279 51.7159 22.9927 51.7927C21.9504 40.8424 22.5109 30.1119 23.4192 19.3854C24.1557 10.6869 28.2481 5.61737 36.5948 3.12197C43.1155 1.17199 49.8619 0.676424 56.5795 0.627855C76.3409 0.490681 96.1032 0.611511 115.866 0.693554C118.224 0.656812 120.579 0.881188 122.888 1.36287C130.039 3.01881 134.506 7.56468 135.863 14.766C136.847 19.7127 137.492 24.7208 137.792 29.7554C138.125 36.473 137.894 43.2189 137.905 49.9529C137.907 50.9433 137.905 51.9343 137.905 52.8125ZM122.392 65.9354C123.019 64.636 123.715 63.3714 124.478 62.147C125.733 60.3041 127.786 58.7526 128.345 56.754C128.94 54.6269 128.077 52.1254 128.05 49.7849C127.966 42.6059 128.135 35.421 127.89 28.2492C127.656 23.9976 127.191 19.7619 126.496 15.5608C125.971 11.9313 123.642 9.8041 120.112 9.09197C118.465 8.76361 116.788 8.60569 115.107 8.62072C106.242 8.68964 97.3778 8.78481 88.5146 8.97055C77.0727 9.21143 65.6245 9.37873 54.1951 9.92152C49.3008 10.1539 44.4156 11.0971 39.5843 12.0055C35.5111 12.7701 33.3924 15.4229 32.7098 19.6228C30.8169 31.2768 30.047 43.0141 29.6663 54.7888C29.6678 55.657 29.9522 56.5011 30.4763 57.1931C33.5479 60.9396 35.6207 65.403 36.5015 70.1668C36.5501 70.4208 36.6781 70.6525 36.867 70.8284C41.2179 69.9903 45.2394 68.7984 49.3251 68.5037C63.5335 67.4798 77.7566 66.5524 91.9873 66.0096C101.943 65.629 111.921 65.9354 122.392 65.9354ZM84.1776 112.43V112.159C97.2 112.159 110.224 112.274 123.244 112.103C128.39 112.037 133.533 111.381 138.668 110.908C140.027 110.824 141.327 110.321 142.388 109.468C143.45 108.616 144.221 107.455 144.597 106.147C145.076 104.554 145.34 102.904 145.384 101.242C145.588 97.6608 145.384 94.0411 145.81 90.4917C146.663 84.1475 146.782 77.7259 146.166 71.3542C145.821 68.5634 144.719 65.9216 142.979 63.7132C141.703 61.9956 140.026 61.4408 137.98 61.599C134.261 61.8865 131.018 64.7638 129.951 69.1377C128.966 73.1624 128.195 77.2422 127.443 81.3187C126.7 85.3512 124.436 88.2069 121.047 90.3637C118.389 92.0642 115.342 93.0625 112.193 93.2666C105.141 93.7681 98.0906 94.4999 91.0297 94.6227C77.3379 94.8609 63.6358 94.9219 49.9426 94.6745C45.4034 94.5931 40.8675 93.4373 36.363 92.5946C32.0062 91.7787 29.9868 88.6565 29.3954 84.5675C28.9799 81.6928 28.8938 78.7675 28.7179 75.8612C28.4297 71.1047 27.7649 66.4835 24.688 62.5659C22.0476 59.2048 18.7102 58.2576 14.8542 60.0284C12.1048 61.2918 9.84303 63.1984 9.25626 66.3233C8.59513 69.2644 8.2415 72.2671 8.20094 75.2817C8.33811 80.9918 8.8723 86.698 9.34552 92.3977C9.67041 96.3075 10.2263 100.198 10.5762 104.107C10.8643 107.323 12.4854 109.269 15.6424 109.94C16.2899 110.118 16.9474 110.257 17.6114 110.356C25.542 111.061 33.4653 112.158 41.4089 112.339C55.6574 112.661 69.9206 112.43 84.1776 112.43ZM120.155 74.7139C118.486 74.4101 116.803 74.1935 115.113 74.0648C92.7703 73.7944 70.4568 74.4803 48.1718 76.1225C45.3201 76.3298 42.4782 77.2579 39.7327 78.1571C37.7598 78.8042 37.895 80.6512 38.0164 82.4233C38.1378 84.1954 39.2233 84.7047 40.6541 84.8714C44.3243 85.2987 47.9919 85.8809 51.6759 86.0318C72.2191 86.8733 92.7211 85.2869 113.24 84.6857C115.702 84.6135 117.704 83.5417 118.61 81.2983C119.38 79.3949 119.585 77.2605 120.155 74.7139Z" fill="black"/>
</g>
<defs>
<clipPath id="clip0_8_2898">
<rect width="156.865" height="143.082" fill="white"/>
</clipPath>
</defs>
</svg>
