<svg width="143" height="175" viewBox="0 0 143 175" fill="none" xmlns="http://www.w3.org/2000/svg">
<g clip-path="url(#clip0_8_2641)">
<path d="M1.93887 83.5558C1.82217 83.6072 1.72249 83.6905 1.65155 83.7966C1.58061 83.902 1.54137 84.0262 1.53849 84.1531C1.44185 88.2353 1.34906 92.3189 1.26022 96.4031C1.05157 105.833 0.835133 115.584 0.541982 125.171C0.250716 134.135 1.35108 143.091 3.80372 151.718C6.89901 162.72 13.8853 169.089 25.1615 171.187C30.1096 172.016 35.0985 172.581 40.1069 172.878C41.8807 173.015 43.6546 173.151 45.4278 173.312C56.0741 174.277 66.5527 174.575 77.4077 174.575C83.9343 174.575 90.5975 174.467 97.5096 174.334C102.877 174.305 108.234 173.887 113.541 173.085C125.593 171.08 133.594 164.237 137.321 152.755C139.947 144.659 140.701 136.442 141.359 127.31C141.699 122.561 142.074 117.042 142.183 111.625L142.262 107.9C142.457 98.842 142.655 89.4753 142.497 80.2621C142.335 70.7639 141.884 61.1134 141.448 51.7818C141.341 49.4944 141.236 47.2066 141.131 44.9188C141.078 43.7478 141.039 42.5684 141.001 41.3909C140.953 37.2063 140.62 33.0299 140.005 28.8905C137.328 13.3949 125.084 1.80725 110.23 0.711065L109.981 0.692641C107.986 0.545612 105.923 0.394043 103.88 0.394043H103.855C92.4233 0.399247 80.9918 0.412095 69.5602 0.432479C57.9699 0.449394 46.38 0.462443 34.7905 0.47155C27.5333 0.474803 20.5731 2.40369 13.5108 6.36818C11.6754 7.3617 10.0418 8.68994 8.69431 10.2845C4.34838 15.7434 1.95378 22.5338 1.57483 30.468C1.39933 34.1456 1.5573 37.8844 1.7094 41.5021C1.80625 43.7927 1.9044 46.1601 1.91935 48.4813C1.96875 56.8904 1.95837 65.4424 1.94862 73.7129C1.94386 76.9937 1.9406 80.2744 1.93887 83.5558ZM11.6811 69.8766C11.592 66.9582 11.5003 63.9405 11.5146 60.9792C11.5256 58.7516 11.7467 56.4727 11.9606 54.2693C12.075 53.0944 12.1887 51.9195 12.2739 50.7446C12.335 49.8891 12.3733 49.0325 12.411 48.1751C12.465 46.9488 12.5209 45.6808 12.6515 44.4512C12.814 42.9257 12.9518 41.3935 13.0903 39.8614C13.3807 35.7728 13.9057 31.7042 14.6626 27.6759C16.2558 20.0435 23.7353 13.7716 31.6926 13.3969C40.8199 12.9676 49.8822 12.6982 58.6455 12.4379C62.214 12.3319 65.7064 12.2284 69.0916 12.1165H80.0961C89.1746 12.1165 97.7859 12.1165 106.396 12.1165H106.405C110.424 12.0678 114.393 13.0162 117.956 14.8769C124.732 18.4205 128.811 24.0035 130.078 31.4706C130.74 35.7246 131.109 40.0189 131.184 44.3235L131.408 51.8878C131.846 66.5639 132.299 81.7389 132.407 96.662C132.455 103.196 132.045 109.854 131.649 116.294C131.492 118.844 131.335 121.395 131.204 123.945C130.876 130.369 130.504 137.275 130.009 144.25C129.657 149.223 128.567 155.53 123.233 160.182C120.77 162.273 117.768 163.628 114.571 164.09C110.345 164.891 106.064 165.369 101.766 165.522L99.7775 165.555C88.8367 165.751 77.5228 165.946 66.4279 165.532C54.0188 165.067 40.8108 164.394 27.7491 161.766C26.6833 161.559 25.6298 161.293 24.5933 160.97C19.7593 159.423 16.7218 156.399 15.3068 151.725C12.3909 142.091 11.0772 133.143 11.2898 124.371C11.6635 108.993 11.7578 93.7377 11.8494 78.9844C11.865 75.945 11.7714 72.8613 11.6811 69.8766Z" fill="black"/>
<path d="M48.3799 147.302C56.3275 150.88 63.7895 152.673 71.1912 152.788H71.2016C71.2257 152.788 71.2497 152.786 71.2738 152.784C72.2598 152.677 73.2511 152.596 74.243 152.515C76.4816 152.38 78.7091 152.1 80.912 151.677C88.0574 150.144 93.2971 147.749 97.4038 144.137C101.808 140.374 105.318 135.675 107.68 130.384C113.747 116.332 114.128 104.482 108.88 93.1002C107.326 89.6802 105.069 86.6272 102.255 84.1407C96.5022 79.0319 89.4958 75.7368 80.2067 73.7708C75.9206 72.8197 71.446 73.214 67.3926 74.9002C65.6994 75.6282 63.9516 76.2195 62.165 76.6697C52.8558 78.9083 45.4685 83.9111 40.2067 91.5421C38.393 94.2556 36.8579 97.1454 35.6249 100.168C33.1243 106.023 30.3723 113.82 31.2869 122.165C32.6415 134.514 38.2328 142.736 48.3799 147.302ZM41.651 114.085C42.6266 108.69 44.5523 103.511 47.3385 98.7906C51.0094 92.3983 56.805 87.4983 63.7153 84.9435C65.3003 84.4374 66.948 84.1563 68.6107 84.1082C69.3907 84.0431 70.1954 83.982 70.9819 83.876C75.3727 83.9267 79.8297 84.8251 85.423 86.7872C89.5121 88.2926 93.1853 90.7491 96.1389 93.9544C97.006 94.9985 97.6891 96.1826 98.1591 97.4563C101.696 105.497 100.61 113.655 99.0801 120.577C98.1363 125.385 96.0485 129.895 92.9941 133.725C89.6284 137.874 85.1344 140.447 79.2558 141.596C69.2958 143.539 59.3187 141.712 49.6031 136.167C45.2689 133.695 43.5777 129.455 42.0938 124.962C41.0544 121.811 40.9094 118.254 41.651 114.085Z" fill="black"/>
<path d="M71.4545 58.5851C73.1192 58.5768 74.778 58.3706 76.3945 57.9714C85.1923 55.8519 90.3429 50.4425 92.1401 41.4343C93.3589 35.3268 91.2821 30.4151 85.7903 26.42C80.574 22.6233 74.7533 22.7348 69.747 23.3477C60.6968 24.4536 53.266 33.4312 53.177 43.3697C53.0732 44.8007 53.2718 46.2376 53.7598 47.5867C54.2479 48.9356 55.0145 50.1666 56.0096 51.1993C60.9704 56.1728 65.9711 58.5858 71.4545 58.5851ZM62.3335 40.5725C62.5578 37.7038 63.8125 35.0135 65.8658 32.9993H67.7222C70.4639 32.9993 73.0236 32.9992 75.5872 33.0031C75.7465 33.0023 75.9051 33.0242 76.0585 33.0682C78.8892 33.897 80.498 34.9065 81.122 36.246C81.7193 37.5296 81.4957 39.2707 80.418 41.7246C79.7433 43.2022 78.7228 44.4955 77.443 45.4952C76.1638 46.4948 74.6623 47.1711 73.0665 47.4675C71.3694 47.8077 69.615 47.7279 67.9562 47.2347C66.2974 46.7414 64.7843 45.8501 63.5484 44.6379C62.5539 43.6842 62.1905 42.4695 62.3355 40.5725H62.3335Z" fill="black"/>
</g>
<defs>
<clipPath id="clip0_8_2641">
<rect width="143" height="175" fill="white"/>
</clipPath>
</defs>
</svg>
