<svg width="60" height="157" viewBox="0 0 60 157" fill="none" xmlns="http://www.w3.org/2000/svg">
<g clip-path="url(#clip0_6_1994)">
<path d="M16.1934 106.048C16.1934 101.782 16.2537 97.516 16.1809 93.253C16.0424 85.1742 15.9151 77.092 15.5627 69.021C15.501 67.6066 14.5782 66.0721 13.6777 64.8815C11.1685 61.5775 8.2959 58.5433 5.86025 55.1914C-0.516071 46.4233 -1.54984 36.8834 2.27924 26.7955C5.83199 17.4355 11.1738 9.38088 19.8828 4.06784C31.223 -2.84997 43.3396 -0.592128 51.3213 10.5C58.8167 20.9174 60.1918 32.5333 56.5681 44.8074C55.4934 48.825 53.7455 52.6313 51.3988 56.0648C48.1932 60.5279 44.7981 64.8486 41.5906 69.3079C40.9841 70.1992 40.6515 71.2487 40.6337 72.327C40.5785 84.2258 40.9526 96.137 40.5234 108.019C40.1112 119.448 38.9599 130.853 37.9702 142.254C37.7122 144.708 37.1186 147.115 36.2059 149.408C34.1129 154.894 26.8538 157.547 21.5624 154.993C20.4906 154.483 19.5459 153.741 18.7967 152.821C18.0474 151.901 17.5123 150.825 17.2305 149.672C16.4491 147.096 15.9905 144.433 15.8653 141.745C15.7222 129.847 15.7999 117.945 15.7999 106.045L16.1934 106.048ZM27.1464 148.332C29.1338 146.298 29.4963 145.7 29.7614 143.121C30.1756 139.105 30.6389 135.081 30.7498 131.051C31.0918 118.601 31.3712 106.148 31.4814 93.6948C31.5346 87.6374 31.0588 81.5774 31.0017 75.5175C30.94 68.9784 32.2601 62.8455 36.8053 57.7517C38.3706 55.9973 39.643 53.9863 41.1368 52.1656C44.5577 48.0011 46.5523 43.2243 47.8223 38.0123C48.834 34.1468 49.0273 30.1126 48.3896 26.1681C47.7517 22.2236 46.2972 18.4559 44.1188 15.1062C39.9183 8.40431 32.9923 6.32623 26.0266 9.56065C22.9475 10.9631 20.2342 13.0583 18.0983 15.6824C14.0665 20.6776 11.3251 26.5878 10.1159 32.8922C9.52975 35.5277 9.47908 38.2541 9.96714 40.9094C10.4553 43.5648 11.4722 46.0949 12.9572 48.3496C14.2809 50.4333 15.7148 52.4447 17.2529 54.3754C20.679 58.6193 23.9816 62.873 23.3279 68.815C23.3333 68.9272 23.3554 69.0375 23.3936 69.1431C25.1361 78.0693 26.0332 87.1399 26.0728 96.2348C26.3038 110.154 26.4666 124.075 26.699 137.994C26.7515 141.231 26.9751 144.467 27.1464 148.332Z" fill="black"/>
</g>
<defs>
<clipPath id="clip0_6_1994">
<rect width="59.0704" height="156.208" fill="white"/>
</clipPath>
</defs>
</svg>
