<svg width="178" height="176" viewBox="0 0 178 176" fill="none" xmlns="http://www.w3.org/2000/svg">
<g clip-path="url(#clip0_8_2304)">
<path d="M28.4935 73.1519C28.7413 73.2241 29 73.2517 29.2575 73.2326C29.413 73.2431 29.5712 73.2543 29.7294 73.2543C29.9739 73.2596 30.2174 73.2208 30.448 73.1394C31.1307 72.8723 31.7737 72.5133 32.3593 72.0722C44.0047 63.505 57.6788 58.2706 73.0004 56.5168C78.3154 55.833 83.6626 55.4327 89.0203 55.3173C109.218 55.1768 125.972 56.5906 141.987 64.0282C142.64 64.3498 143.33 64.5898 144.042 64.7428C145.415 65.0417 146.85 64.8269 148.076 64.1391C149.301 63.4513 150.232 62.3382 150.692 61.0103C151.582 58.3987 150.648 56.104 148.067 54.5485C147.197 54.0741 146.269 53.717 145.306 53.4861C144.925 53.3772 144.545 53.2689 144.174 53.1435C120.294 45.0673 95.2116 43.4001 67.4931 48.0482C55.1632 50.0081 43.4551 54.7976 33.2867 62.0412C30.956 63.8506 28.8909 65.9781 27.1519 68.362C26.8488 68.721 26.6328 69.145 26.5209 69.6011C26.4092 70.0573 26.4045 70.5331 26.5074 70.9912C26.6503 71.4796 26.9039 71.9285 27.2482 72.3033C27.5927 72.678 28.0188 72.9681 28.4935 73.1519Z" fill="black"/>
<path d="M136.256 89.3643C135.813 89.2041 135.379 89.0499 134.932 88.9238C112.409 82.6099 90.1479 81.1751 68.7644 84.6576C60.9006 85.9388 53.1677 88.1474 46.5373 90.1158C43.5254 91.0103 40.8015 92.8389 38.167 94.6071L37.5848 95.0009C36.9927 95.4905 36.5147 96.1035 36.1839 96.7966C35.8533 97.4904 35.678 98.2478 35.6703 99.0157C35.6907 99.9831 36.3128 100.835 36.9173 101.658C37.1523 101.98 37.3951 102.314 37.5855 102.632C37.6454 102.733 37.7303 102.815 37.8319 102.873C37.9335 102.931 38.0483 102.961 38.165 102.96C38.2551 102.961 38.3443 102.943 38.4276 102.908C40.0264 102.238 41.4999 101.575 42.9242 100.934C45.5436 99.6747 48.2467 98.5976 51.0142 97.7096C69.254 92.3125 88.427 90.8207 107.283 93.3298C113.059 94.2054 118.787 95.3809 124.441 96.8531C127.394 97.5672 130.443 98.3055 133.463 98.9448C137.401 99.7771 140.234 98.6278 141.036 95.8672C141.607 93.8969 141.244 91.1705 136.256 89.3643Z" fill="black"/>
<path d="M123.581 122.831C122.049 121.801 120.404 120.951 118.677 120.299C100.65 113.765 84.2954 112.673 68.6759 116.963C63.3028 118.438 58.1361 120.783 53.5798 122.852C51.8852 123.621 50.5607 125.25 49.3963 126.687L49.0557 127.107C48.7517 127.614 48.5997 128.197 48.6179 128.787C48.636 129.377 48.8235 129.95 49.1581 130.437C49.972 131.291 51.076 131.808 52.2527 131.889C52.3388 131.889 52.4249 131.885 52.5107 131.876C53.4158 131.726 54.2866 131.415 55.0815 130.957C55.5036 130.736 55.938 130.538 56.3824 130.366C57.5041 129.961 58.6218 129.538 59.7402 129.115C62.5697 127.991 65.454 127.009 68.3825 126.175C82.205 122.5 96.3904 123.226 111.753 128.392C113.608 129.016 115.466 129.55 117.616 130.169C118.676 130.473 119.799 130.796 121.014 131.157C121.108 131.186 121.208 131.193 121.305 131.178C121.403 131.163 121.496 131.127 121.579 131.073C121.831 130.905 122.169 130.727 122.522 130.539C123.647 130.053 124.633 129.295 125.392 128.332C126.589 126.503 125.879 124.342 123.581 122.831Z" fill="black"/>
<path d="M176.539 80.4663C174.512 62.6835 167.374 45.8694 155.988 32.0597C146.602 20.5449 136.51 12.3373 125.128 6.97962C116.246 2.70008 106.517 0.471744 96.6577 0.459473C93.6294 0.464008 90.6037 0.661407 87.6003 1.05027C75.101 2.67077 62.431 6.29763 47.7415 12.4705C27.8709 20.8257 14.0399 35.183 6.63182 55.1324C1.43753 68.8334 -0.564499 83.5386 0.777919 98.129C2.33935 114.521 6.28393 127.228 13.1886 138.1C23.165 153.796 35.7306 164.135 51.612 169.693C61.2398 173.067 71.837 174.762 84.9539 175.028C92.6725 175.028 99.858 174.096 106.81 173.19L108.127 173.02C123.299 171.059 136.182 165.583 147.52 156.295C158.473 147.311 166.318 136.262 170.832 123.459C176.258 108.061 178.122 93.9921 176.539 80.4663ZM158.63 129.363C150.045 146.747 135.607 158.151 115.699 163.257C113.309 163.872 110.837 164.315 108.225 164.782C106.93 165.011 105.575 165.255 104.156 165.529C97.9619 166.462 89.6067 166.603 85.0038 166.603C82.9534 166.603 81.6434 166.573 81.6066 166.573C69.5142 166.425 59.1093 164.375 49.807 160.297C37.4108 154.865 27.502 145.696 19.5243 132.272C14.7061 124.176 11.6482 114.592 9.91088 102.114C7.67868 86.244 9.63029 70.066 15.5724 55.1811C21.8254 39.3214 33.0744 27.2865 49.0004 19.4216C52.6759 17.6009 67.6273 13.2201 71.5568 12.4207C77.089 11.317 82.6974 10.6415 88.3334 10.4004C110.631 9.86744 119.438 13.4571 133.055 23.8554C147.316 34.7415 157.366 48.4248 162.931 64.5208C170.492 86.4436 169.05 108.26 158.63 129.36V129.363Z" fill="black"/>
</g>
<defs>
<clipPath id="clip0_8_2304">
<rect width="177.211" height="175.242" fill="white"/>
</clipPath>
</defs>
</svg>
