<svg width="111" height="104" viewBox="0 0 111 104" fill="none" xmlns="http://www.w3.org/2000/svg">
<g clip-path="url(#clip0_8_2645)">
<path d="M2.31057 53.6062C2.63324 46.6096 2.98243 39.6143 3.26316 32.6164C3.49871 26.73 3.6343 20.8404 3.85178 14.9534C3.95052 12.2884 4.13551 9.62331 4.29168 6.96221C4.36912 5.64273 4.84998 4.48247 6.19747 4.13212C8.94024 3.41712 11.6979 2.44802 14.4877 2.29202C24.5177 1.72912 34.5581 1.38202 44.6036 1.10382C55.9708 0.790517 67.3473 0.323799 78.71 0.518799C87.8565 0.679998 96.9927 1.67517 106.124 2.42722C109.529 2.70737 111.077 4.77827 110.949 7.96263C110.572 17.4013 110.317 26.8444 109.927 36.2831C109.347 50.2756 108.706 64.2663 108.071 78.2565C107.829 83.5865 107.472 88.9126 107.278 94.2458C107.078 99.7611 105.644 100.941 100.279 100.999C88.469 101.122 76.6591 101.495 64.8537 101.822C57.9016 102.017 50.9519 102.304 44.0014 102.57C32.1997 103.021 20.3985 103.48 8.59769 103.946C7.82327 103.976 7.04866 103.966 6.27877 103.935C2.19113 103.774 0.396551 102.071 0.47851 97.9248C0.61726 90.9224 0.913872 83.9219 1.24171 76.9253C1.60504 69.1519 2.0775 61.3841 2.50279 53.6147L2.31057 53.6062ZM99.3767 93.8513C100.931 84.3457 103.621 15.9635 102.658 11.171C100.725 11.0014 98.761 10.781 96.7907 10.664C87.9779 10.1486 79.1611 9.22486 70.3502 9.26776C56.5529 9.33601 42.759 10.0569 28.964 10.5171C22.6092 10.729 16.2564 10.9773 10.1146 11.2016C9.49833 39.6391 8.88293 68.0534 8.26146 96.7503L99.3767 93.8513Z" fill="black"/>
</g>
<defs>
<clipPath id="clip0_8_2645">
<rect width="111" height="104" fill="white"/>
</clipPath>
</defs>
</svg>
