<svg width="145" height="148" viewBox="0 0 145 148" fill="none" xmlns="http://www.w3.org/2000/svg">
<g clip-path="url(#clip0_8_2647)">
<path d="M71.7685 109.514C56.1774 120.9 40.9308 132.018 25.7136 143.175C24.5963 143.995 23.744 145.168 22.6668 146.054C20.1746 148.1 17.8221 147.279 17.2564 144.088C17.0387 142.817 17.0995 141.513 17.4345 140.267C19.0218 134.559 20.5371 128.816 22.4674 123.221C26.1241 112.625 30.045 102.12 33.8603 91.5799C34.2578 90.4816 34.6921 89.3976 35.0333 88.5044C24.3356 78.7163 14.2082 68.7256 4.32419 58.4879C2.99487 57.0857 1.86982 55.5021 0.982172 53.7843C-0.148052 51.6266 0.637697 50.179 3.01596 49.8635C5.36489 49.5403 7.73313 49.379 10.1041 49.3807C19.1569 49.4339 28.2085 49.6351 37.2613 49.6858C40.8086 49.7059 44.3571 49.4748 48.0935 49.3522C49.8173 45.0394 51.5075 40.8597 53.1614 36.6657C57.5131 25.6306 61.8572 14.5918 66.1932 3.54938C66.3434 3.14478 66.5188 2.74997 66.7181 2.3673C67.9733 0.0700539 70.3263 -0.14546 71.8967 1.98886C72.5563 2.9738 73.093 4.03615 73.4943 5.15206C76.9044 13.5478 80.152 22.0124 83.722 30.3381C85.7999 35.1825 88.3827 39.8106 90.7953 44.655C91.8271 44.655 92.6725 44.6719 93.5211 44.655C104.078 44.4129 114.634 44.1078 125.191 43.9449C130.245 43.867 135.303 44.0904 140.359 44.1053C142.011 44.1105 143.383 44.5246 144.114 46.0831C144.471 46.8258 144.571 47.667 144.397 48.4729C144.223 49.2789 143.786 50.0034 143.154 50.5316C139.83 53.7648 136.512 57.0118 133.045 60.0867C123.843 68.2485 114.561 76.3197 105.318 84.4363C104.443 85.2049 103.624 86.0377 102.808 86.8128C102.9 87.3133 103.03 87.8059 103.197 88.2863C110.232 103.442 114.595 119.431 117.921 135.742C118.49 138.044 118.931 140.375 119.243 142.724C119.583 146.481 118.321 147.008 114.719 147.588C109.677 148.405 106.612 145.742 103.408 142.804C95.0579 135.144 86.7029 127.484 79.4063 118.763C76.918 115.789 74.4692 112.786 71.7685 109.514ZM28.5276 132.464L28.9884 132.891C29.595 132.462 30.2185 132.056 30.8056 131.6C43.2342 121.934 55.6644 112.268 68.0963 102.602C71.184 100.208 72.9007 100.235 75.8273 102.788C77.7893 104.479 79.6393 106.297 81.3644 108.23C89.3828 117.322 98.4142 125.363 107.309 133.546C107.67 133.878 108.092 134.142 108.802 134.676C108.694 133.87 108.682 133.456 108.58 133.064C104.934 118.974 101.237 104.896 95.9926 91.293C94.5983 87.6755 94.9685 84.8557 98.0828 82.0755C108.385 72.8787 118.473 63.4388 128.636 54.0908C129.472 53.3229 130.301 52.549 131.618 51.3293C129.791 51.3293 128.72 51.317 127.65 51.3293C116.009 51.4884 104.362 51.4851 92.7301 51.8902C87.7192 52.0648 84.5739 49.9427 82.4073 45.7455C82.3574 45.6494 82.3121 45.5508 82.27 45.4522C80.1986 40.5941 77.9977 35.7873 76.0985 30.8631C74.1196 25.735 72.4431 20.4857 70.6073 15.2986C70.2583 14.3126 69.7845 13.3712 69.132 11.862C67.7662 15.2667 66.4942 18.0794 65.4973 20.9874C62.3494 30.1738 59.2288 39.3711 56.2466 48.6127C54.3234 54.5723 49.963 57.1 44.2588 56.706C35.7685 56.1218 27.2602 55.7823 18.7576 55.3941C16.4272 55.2877 14.0917 55.378 11.3484 55.378C14.2613 58.0147 16.9799 60.4314 19.6449 62.902C26.7655 69.4955 33.8978 76.0789 40.9419 82.7532C42.0714 83.9073 42.998 85.2445 43.6826 86.7083C44.6426 88.6109 44.3189 90.1421 42.5174 91.1742C41.1994 91.9298 40.8021 92.9918 40.3994 94.2102C38.2335 100.766 35.9835 107.291 33.9341 113.879C32.0219 120.043 30.3213 126.268 28.527 132.464H28.5276Z" fill="black"/>
</g>
<defs>
<clipPath id="clip0_8_2647">
<rect width="145" height="148" fill="white"/>
</clipPath>
</defs>
</svg>
