<svg width="129" height="152" viewBox="0 0 129 152" fill="none" xmlns="http://www.w3.org/2000/svg">
<g clip-path="url(#clip0_6_2238)">
<path d="M128.337 134.419C127.756 135.727 127.183 137.039 126.591 138.343C125.904 140.019 124.775 141.476 123.323 142.559C121.871 143.642 120.152 144.309 118.35 144.489C113.981 145.102 109.529 144.439 105.528 142.58C100.85 140.381 98.885 136.911 99.221 131.763C99.4054 128.669 100.532 125.705 102.448 123.268C104.364 120.832 106.978 119.039 109.942 118.13C110.578 117.933 111.186 117.656 112.043 117.326C111.899 109.951 112.94 102.527 111.367 95.211C110.828 93.0628 109.824 91.0597 108.426 89.3427C106.923 87.4203 104.685 87.1768 102.7 88.6207C100.984 89.8625 99.496 91.3924 98.3021 93.1429C94.7468 98.4592 92.8815 104.444 92.0256 110.745C91.0897 117.636 90.3749 124.558 89.3129 131.429C86.8149 147.598 69.9129 156.097 55.2956 148.588C48.1743 144.931 44.9628 138.657 44.8224 131.008C44.695 124.073 45.2642 117.116 45.7348 110.183C46.0754 105.148 46.7684 100.141 47.2718 95.1138C47.3197 94.323 47.3241 93.5301 47.2849 92.7392C41.1475 90.5326 35.1237 88.7283 29.3978 86.2415C13.6332 79.3873 4.77518 66.9648 1.56241 50.3336C-0.0577554 42.2446 0.434946 33.8744 2.9927 26.0313C6.58616 15.0803 14.1713 7.87316 25.0527 4.13663C26.0132 3.82944 27.0031 3.62292 28.0063 3.52035C29.5762 3.32739 30.9113 3.11735 31.9982 1.55855C33.3365 -0.361242 35.2551 -0.0698007 36.6813 1.86508C37.3082 2.86505 37.6563 4.01429 37.6901 5.19404C37.7239 6.3738 37.4422 7.54118 36.8736 8.57537C35.3489 10.8955 33.5532 10.8562 30.7448 8.44417C21.4904 9.67349 9.89075 19.6156 7.79507 32.5593C6.53489 40.3474 6.48976 48.1342 9.16957 55.5161C13.0571 66.2258 19.8198 74.7221 30.6848 79.2219C34.9261 80.979 39.3773 82.2253 43.6363 83.9417C50.7668 86.8158 57.7213 85.3725 63.6264 81.6209C75.4859 74.0874 85.7116 64.5597 92.172 51.8091C97.4227 41.4448 97.5106 30.8567 91.616 20.5549C87.5684 13.4795 81.1803 9.65052 73.4788 7.68413C72.1661 7.34874 71.1567 7.52261 70.2627 8.73421C69.2651 10.0797 67.8258 10.7636 66.114 10.0594C64.5079 9.39777 63.7939 8.03009 63.5254 6.38991C62.8691 2.37115 63.7688 0.620631 67.046 0.0889977C68.0253 -0.0704924 69.1463 0.39024 70.1518 0.711843C71.2676 1.06823 72.3013 1.86038 73.4276 1.99953C84.3071 3.34764 92.6078 8.71714 98.1328 18.1067C105.271 30.2391 104.729 42.724 99.0727 55.2148C95.5889 62.9077 90.2075 69.2515 84.0747 74.9295C79.4692 79.1957 74.6569 83.244 69.8138 87.2404C66.496 89.9951 62.3285 91.5197 58.0161 91.5552C56.9163 91.6294 55.8209 91.7593 54.7344 91.945C54.5686 92.2903 54.4447 92.6539 54.3656 93.0293C53.9009 101.549 53.3397 110.065 53.0529 118.591C52.9039 122.738 53.0468 126.89 53.4807 131.018C54.4304 139.83 60.3946 144.272 69.1621 143.006C76.6758 141.921 80.4169 138.59 81.7637 131.082C82.7115 125.792 83.1519 120.408 83.7616 115.061C84.8262 105.741 86.6029 96.6576 91.8602 88.6102C94.4022 84.7181 97.5881 81.7187 102.148 80.4276C106.13 79.2987 109.687 80.2655 112.904 82.7399C118.043 86.693 119.718 92.2988 120.268 98.3909C120.949 105.038 120.507 111.754 118.96 118.255C119.422 118.565 119.907 118.84 120.41 119.081C124.353 120.624 126.943 123.328 127.818 127.555C127.878 127.848 128.164 128.095 128.343 128.364L128.337 134.419ZM115.771 138.053C119.176 137.672 120.556 136.621 121.386 133.476C122.169 130.514 121.013 126.978 118.741 125.38C115.752 123.279 112.692 122.951 110.353 124.719C109.047 125.692 108.023 126.995 107.387 128.495C106.751 129.994 106.526 131.636 106.734 133.252C106.856 133.827 107.106 134.369 107.465 134.836C107.823 135.303 108.282 135.683 108.807 135.951C111.024 136.892 113.437 137.379 115.771 138.05V138.053Z" fill="black"/>
<path d="M118.391 130.698C118.375 131.66 117.988 132.578 117.31 133.259C116.633 133.941 115.717 134.333 114.756 134.354C113.685 134.358 112.655 133.944 111.885 133.2C111.114 132.456 110.665 131.441 110.632 130.37C110.621 129.892 110.708 129.417 110.887 128.973C111.066 128.529 111.333 128.127 111.672 127.79C112.011 127.452 112.415 127.186 112.859 127.01C113.304 126.833 113.779 126.748 114.258 126.76C114.791 126.736 115.323 126.82 115.823 127.007C116.322 127.194 116.779 127.48 117.165 127.847C117.551 128.216 117.859 128.658 118.069 129.148C118.28 129.638 118.389 130.166 118.391 130.698Z" fill="black"/>
</g>
<defs>
<clipPath id="clip0_6_2238">
<rect width="128.642" height="151.614" fill="white"/>
</clipPath>
</defs>
</svg>
