<svg width="119" height="126" viewBox="0 0 119 126" fill="none" xmlns="http://www.w3.org/2000/svg">
<g clip-path="url(#clip0_8_2651)">
<path d="M43.9493 16.8446C44.1223 13.6139 44.2927 10.4356 44.4897 6.75637C42.7678 6.75637 41.2448 6.81453 39.7277 6.7428C37.3282 6.62973 36.4374 5.97521 36.3197 4.39988C36.1948 2.72828 37.2489 1.67885 39.5463 1.34737C40.761 1.19486 41.9832 1.10864 43.2073 1.08898C52.3203 0.777098 61.4339 0.475624 70.5481 0.184424C71.1008 0.163802 71.6542 0.21056 72.1952 0.323878C74.146 0.746464 75.2515 2.00397 75.2346 3.7124C75.2268 4.55246 74.9114 5.36094 74.3476 5.98656C73.7832 6.61215 73.0087 7.01186 72.1692 7.11105C70.6547 7.36111 69.0986 7.35917 67.3318 7.48582V16.326C77.0352 17.2803 85.2234 21.8615 93.4819 27.368C95.4789 25.7449 97.5955 24.18 99.5294 22.4199C105.135 17.325 108.229 17.6892 112.327 23.3727C113.377 24.6625 114.514 25.8794 115.732 27.0147C118.876 30.301 118.957 32.8527 115.868 36.2605C113.791 38.5518 111.587 40.7311 109.38 43.0243C110.835 45.6548 112.306 48.2272 113.697 50.8428C121.626 65.7512 120.49 87.9317 107.654 102.377C96.9654 114.406 83.8494 121.665 68.1297 124.605C53.2241 127.391 38.9253 125.204 25.1291 119.268C15.5188 115.133 8.91003 107.823 5.28214 98.3367C-2.01783 79.2487 -0.812902 60.468 8.90541 42.3454C12.6295 35.4011 18.4508 30.456 24.8371 26.1429C28.5287 23.6899 32.3701 21.4672 36.3391 19.4877C38.6697 18.3065 41.3072 17.737 43.9493 16.8446ZM10.6638 74.5899C10.6548 80.6373 11.6223 86.6472 13.5296 92.3902C16.9272 102.406 23.1906 109.684 33.5443 112.997C56.8006 120.438 77.9488 116.841 96.2735 100.449C109.899 88.2606 112.69 70.2026 103.764 54.3251C96.6253 41.6268 85.8587 33.0852 72.1289 28.2681C65.8037 26.0843 59.0983 25.1988 52.4185 25.6649C44.4501 26.1611 37.3322 29.2188 30.5869 33.2036C23.5161 37.3012 18.0193 43.621 14.9634 51.1665C11.9117 58.4674 10.9961 66.0562 10.6638 74.5899ZM51.6641 7.28551C51.8371 10.1932 52.003 12.979 52.1682 15.7574H59.5579C59.9857 12.9059 60.3902 10.2132 60.8298 7.28551H51.6641ZM111.561 31.5674L106.444 25.8936L100.254 32.4243L104.385 36.9758L111.561 31.5674Z" fill="black"/>
<path d="M62.0485 68.3911C66.5919 68.5112 70.9052 68.603 75.2165 68.7535C76.545 68.751 77.8703 68.8938 79.1676 69.1794C79.9453 69.3254 80.6476 69.7344 81.1555 70.3366C81.664 70.9395 81.9462 71.6981 81.9546 72.4844C81.9761 73.3244 81.7069 74.1457 81.1925 74.8125C80.6788 75.4794 79.9498 75.9511 79.1286 76.1494C77.96 76.5061 76.7408 76.6696 75.5189 76.634C69.5221 76.34 63.5305 75.9362 57.5369 75.5763C54.9007 75.418 53.6261 74.3615 53.3342 71.8228C53.2344 70.6112 53.2646 69.3932 53.4246 68.1888C54.1793 60.8262 54.9597 53.4668 55.7656 46.1101C55.9126 44.9049 56.1354 43.7102 56.4328 42.5326C56.7761 41.1014 57.6591 40.1779 59.2204 40.1417C60.9762 40.1017 61.8671 41.153 62.1636 42.7263C62.4162 43.9139 62.5469 45.1238 62.5537 46.3376C62.4237 52.7442 62.2214 59.1503 62.0504 65.5564C62.0303 66.3234 62.0485 67.0903 62.0485 68.3911Z" fill="black"/>
</g>
<defs>
<clipPath id="clip0_8_2651">
<rect width="119" height="126" fill="white"/>
</clipPath>
</defs>
</svg>
