<svg width="174" height="140" viewBox="0 0 174 140" fill="none" xmlns="http://www.w3.org/2000/svg">
<g clip-path="url(#clip0_8_2654)">
<path d="M173.516 75.7536C173.592 62.3134 173.173 50.5581 172.235 39.817C170.924 24.78 162.562 16.4959 148.056 15.8542C141.896 15.582 135.625 15.7895 129.56 15.9839C126.803 16.074 123.953 16.168 121.151 16.2146C120.246 16.2295 119.345 16.2249 118.569 16.221H118.153C117.836 15.3168 117.533 14.4354 117.236 13.5708C116.507 11.4533 115.813 9.4499 115.056 7.46527C115.028 7.3661 115.001 7.2657 114.973 7.16718C114.616 5.79388 113.879 4.54941 112.848 3.57703C110.94 1.35971 108.306 0.28303 104.962 0.367937C100.423 0.486548 95.8061 0.5708 91.341 0.651819C84.4994 0.776264 77.4242 0.904681 70.4681 1.16135C66.7326 1.29876 64.6879 1.95092 63.3643 3.61342C62.4931 4.13049 61.7796 4.87616 61.301 5.77023C59.6437 9.30076 58.6916 13.122 58.4982 17.0188H57.3748C55.5901 17.0188 53.942 17.0139 52.2932 17.0242C50.3184 17.0352 48.3429 17.0352 46.3674 17.0359C41.5607 17.0359 36.5896 17.0358 31.7014 17.2005C25.7469 17.4203 19.8862 18.7557 14.4224 21.1378C6.7341 24.4434 2.89116 29.8741 2.67317 37.7336C2.52569 43.075 2.31874 48.5059 2.11887 53.7572C1.94551 58.3085 1.76589 63.0149 1.62553 67.6465C1.5505 70.138 1.54636 72.6716 1.54183 75.1216C1.53407 79.4273 1.52582 83.88 1.13061 88.2097C0.129945 99.1666 0.306459 107.959 1.68617 115.878C2.93328 123.033 6.27871 128.816 11.3629 132.601C15.9915 136.145 21.6119 138.147 27.4344 138.326C30.4762 138.412 33.5179 138.506 36.5593 138.607C44.1164 138.85 51.9301 139.101 59.6216 139.161C75.919 139.291 91.2019 139.356 105.875 139.356C112.597 139.356 119.206 139.342 125.698 139.316C133.035 139.286 140.963 138.947 149.94 138.278C161.259 137.436 168.952 131.214 172.18 120.279C173.279 116.619 173.865 112.822 173.921 109.001C173.953 103.442 173.834 97.7945 173.721 92.3325C173.603 86.8959 173.483 81.2777 173.516 75.7536ZM164.03 93.4448C164.09 98.7349 164.152 104.026 164.217 109.317C164.267 113.435 163.303 117.503 161.411 121.159C159.687 124.529 157.141 126.53 153.826 127.101C150.183 127.832 146.487 128.266 142.774 128.401C129.635 128.499 116.273 128.484 103.351 128.472C98.682 128.467 94.0144 128.464 89.3468 128.462C84.575 128.462 79.8052 128.464 75.0374 128.467C63.5169 128.476 51.6066 128.486 39.8937 128.421C35.4936 128.388 31.0985 128.123 26.7266 127.624C18.6068 126.709 12.8389 121.041 11.2988 112.463C9.58724 102.936 9.78337 93.1609 9.97225 83.7109C10.0052 82.0613 10.0371 80.4131 10.0616 78.7655C10.1008 75.9811 10.1599 73.1869 10.2388 70.3843C11.976 70.7265 13.7366 70.9372 15.5054 71.0137C19.7293 71.155 24.0223 71.1433 28.175 71.1323C30.1531 71.1277 32.1304 71.1213 34.1065 71.1323C34.8743 71.1368 35.6323 71.1809 36.51 71.2314C36.7455 71.2457 36.9868 71.2593 37.2365 71.2729C37.2365 72.0656 37.2315 72.8369 37.2276 73.5926C37.2179 75.6667 37.208 77.6254 37.2488 79.5874C37.3361 83.7776 39.0702 85.7739 43.047 86.2633C46.806 86.6729 50.5856 86.8648 54.3667 86.8382H54.5006C61.7795 86.8382 64.5267 84.033 64.6179 76.5326C64.6341 75.2104 64.6297 73.8863 64.6252 72.5368V71.2904H113.226C113.226 71.4486 113.226 71.6048 113.226 71.7584C113.22 72.5653 113.215 73.3139 113.237 74.058C113.277 75.4237 113.317 76.5618 113.436 77.7421C113.883 82.1806 115.83 84.07 120.164 84.2631C123.621 84.4174 127.325 84.3927 131.17 84.1834C134.927 83.9812 137.203 81.863 137.75 78.0571C137.987 76.4069 138.089 74.7204 138.197 72.9367C138.238 72.2788 138.279 71.5996 138.327 70.8912L143.744 70.8944C149.086 70.8976 154.312 70.9022 159.536 70.8769C160.945 70.8847 162.353 70.8199 163.755 70.6825C163.858 78.3313 163.945 85.9613 164.03 93.4448ZM76.7069 9.33252C81.1798 9.16724 85.7161 9.10508 90.1683 9.06036C94.8792 9.17638 99.7189 9.29181 104.492 9.367C104.89 9.3659 105.288 9.40757 105.677 9.49138C106.13 9.97658 106.421 10.5911 106.51 11.2497C106.811 12.5576 107.204 13.8427 107.685 15.0953C107.775 15.6596 107.872 16.2234 107.979 16.7869H67.481C69.1169 9.61446 69.2249 9.60993 76.7101 9.33317L76.7069 9.33252ZM129.38 71.2826C129.356 71.492 129.332 71.6994 129.308 71.9062C129.215 72.9445 129.047 73.9744 128.807 74.9887C128.646 75.4107 128.33 75.7555 127.924 75.9519C125.97 76.1625 123.998 76.2559 121.912 76.355C121.359 76.381 120.799 76.4075 120.23 76.4367L119.648 71.2826H129.38ZM55.2188 71.3546V77.5489H45.1893L44.3751 71.6767C46.4838 70.9074 51.5965 70.7505 55.222 71.3546H55.2188ZM162.861 61.0711C162.644 61.0866 162.427 61.1015 162.21 61.1106C161.075 61.1573 159.94 61.2122 158.805 61.2673C156.341 61.3865 153.793 61.5092 151.291 61.5423C139.661 61.697 128.03 61.8405 116.399 61.9727C106.018 62.0959 95.6367 62.2228 85.2562 62.3538C65.3522 62.613 45.4485 62.8853 25.5456 63.1709L10.445 63.3823C10.6074 58.5536 10.7963 53.7443 10.9833 49.0154C11.0816 46.5356 11.1785 44.0564 11.2738 41.5779C11.6322 32.1396 13.3564 29.9345 22.1302 27.6984C27.534 26.3008 33.0839 25.5493 38.6641 25.4596C50.2464 25.319 62.026 25.3386 73.419 25.3567C82.6973 25.3723 92.2931 25.3885 101.731 25.3172C107.099 25.2777 112.544 25.0319 117.813 24.7947C122.003 24.6061 126.334 24.411 130.593 24.3216C136.432 24.1978 142.471 24.0707 148.391 24.6871C157.072 25.59 161.069 29.6318 162.186 38.6365C162.87 43.5527 163.297 48.5014 163.468 53.4623C163.515 55.978 163.561 58.5003 163.602 61.0289C163.354 61.038 163.107 61.0555 162.865 61.0711H162.861Z" fill="black"/>
</g>
<defs>
<clipPath id="clip0_8_2654">
<rect width="174" height="140" fill="white"/>
</clipPath>
</defs>
</svg>
