<svg width="116" height="110" viewBox="0 0 116 110" fill="none" xmlns="http://www.w3.org/2000/svg">
<g clip-path="url(#clip0_8_2666)">
<path d="M113.286 44.6482C113.773 44.5397 114.225 44.3141 114.602 43.9914C114.978 43.6686 115.268 43.2589 115.444 42.7988C115.614 42.2782 115.651 41.7243 115.551 41.1864C115.451 40.6484 115.218 40.1432 114.873 39.7156C114.187 38.8663 113.399 38.1023 112.527 37.4403L112.433 37.3631C109.175 34.6723 108.171 31.5093 109.378 27.6497C109.6 26.9356 109.834 26.1971 109.995 25.4503C110.326 23.945 110.133 22.7016 109.438 21.8525C108.742 21.0033 107.594 20.5659 106.036 20.5659H106.006C105.254 20.5813 104.502 20.6349 103.754 20.7267C103.067 20.8001 102.358 20.8753 101.668 20.8843C96.4931 20.9641 92.2839 17.6615 91.4823 12.8833C91.4087 12.4478 91.3572 12.0084 91.3057 11.5697C91.2542 11.131 91.2028 10.6981 91.1317 10.2658C90.8254 8.40802 90.2539 7.30673 89.3331 6.81013C88.4122 6.31352 87.1278 6.42416 85.3193 7.19223C83.3363 8.10825 81.26 8.81251 79.1251 9.29317C77.9683 9.4929 76.7823 9.45405 75.6412 9.17905C74.5007 8.90405 73.43 8.39882 72.4961 7.69527C71.8073 7.21462 71.2273 6.59739 70.7933 5.88297C70.3593 5.16855 70.081 4.37267 69.9761 3.54615C69.8601 2.07305 69.4352 1.13645 68.6779 0.682939C67.9435 0.242937 66.9594 0.291827 65.6697 0.832822C64.665 1.36991 63.7926 2.11962 63.1154 3.02831C58.5855 8.21182 53.2508 8.68913 48.0979 4.36953C48.0373 4.31872 47.9787 4.26533 47.92 4.21194C47.8108 4.10791 47.6953 4.0106 47.574 3.92054C46.2706 2.99358 44.9307 2.69316 43.7942 3.07462C43.1905 3.32198 42.6563 3.70979 42.2373 4.20499C41.8182 4.70019 41.5267 5.28808 41.3875 5.91853C41.2526 6.36883 41.1392 6.82299 41.0258 7.27843C40.8779 7.87796 40.7241 8.49744 40.5195 9.0796C39.4325 12.1815 37.4566 13.6231 34.3819 13.5716C33.2084 13.4928 32.0519 13.252 30.9462 12.8563C30.4249 12.6974 29.8846 12.5346 29.3496 12.4015L24.3675 11.167L24.4268 11.6456C24.5004 12.2349 24.5571 12.7334 24.6001 13.1728C24.6586 13.8604 24.7549 14.5443 24.8888 15.2216C25.6532 18.6683 24.4007 21.2529 21.2661 22.6958C18.5559 23.8862 15.5638 24.3094 12.6241 23.918C11.3809 23.7459 10.1146 23.8456 8.9147 24.2101C8.49971 24.3136 8.11814 24.5194 7.80573 24.8083C7.49337 25.097 7.26033 25.4594 7.12843 25.8614C7.03993 26.308 7.06326 26.7693 7.19653 27.2052C7.32974 27.6409 7.56877 28.0379 7.89286 28.3618C8.12381 28.6207 8.37458 28.8618 8.64295 29.0829C8.88759 29.2825 9.11594 29.5009 9.32591 29.7358C11.4165 32.2124 12.1718 34.9804 11.4524 37.5291C10.7329 40.0777 8.63708 42.0609 5.55202 43.1127C5.27701 43.206 4.99677 43.2922 4.7159 43.3777C3.9005 43.5911 3.11526 43.904 2.37832 44.3092C1.92756 44.5835 1.55149 44.9624 1.28278 45.4129C1.01407 45.8633 0.860839 46.3717 0.836414 46.8939C0.804149 47.3635 0.890152 47.8336 1.08676 48.2624C1.28337 48.6911 1.58448 49.0652 1.96318 49.3512C2.80483 49.8814 3.74541 50.2401 4.72958 50.4062L4.85014 50.4351C8.12616 51.2186 9.11933 52.6718 8.6436 55.9904C8.44783 57.3722 7.97328 58.7012 7.24795 59.8988C6.52256 61.0963 5.56119 62.138 4.42068 62.9622C2.13978 64.6947 1.4425 67.1186 0.766052 69.4594L0.629182 69.9335C0.474169 70.3066 0.427424 70.7145 0.494183 71.112C0.560943 71.5096 0.738583 71.8814 1.00717 72.185C1.60737 72.7549 2.65461 72.8527 3.88304 72.452C4.53435 72.1992 5.24118 72.1175 5.93391 72.2165C9.13432 72.9454 11.1565 74.136 12.1145 75.8555C12.9916 77.4303 12.9767 79.4347 12.0682 81.9834C11.6284 83.1297 11.114 84.247 10.5283 85.3284C10.1464 86.0727 9.75081 86.8427 9.40737 87.6229C8.57452 89.5174 8.86322 91.1089 10.2454 92.2249C11.64 93.3539 13.266 93.2966 14.946 92.059C15.1194 91.9303 15.2914 91.8017 15.4628 91.6666C15.9593 91.2542 16.4991 90.8959 17.0731 90.5975C18.8184 89.7792 20.2625 89.6055 21.3652 90.079C22.4476 90.5441 23.2811 91.6692 23.8416 93.424C24.8745 96.6494 25.2479 99.3582 23.7158 102.091C23.3743 102.701 23.5503 103.52 23.7216 104.311C23.7977 104.629 23.8556 104.951 23.895 105.276L23.9289 105.626L24.2808 105.571C24.5747 105.525 24.8738 105.493 25.1723 105.462C25.8953 105.419 26.6087 105.277 27.2916 105.039C27.7603 104.818 28.1853 104.515 28.5467 104.147C28.8178 103.88 29.1199 103.646 29.4467 103.449C29.972 103.165 30.494 102.867 31.0166 102.568C32.5483 101.612 34.1853 100.832 35.8958 100.242C41.9871 98.4222 45.7062 100.317 47.952 106.38C47.9898 106.484 48.0237 106.589 48.0569 106.694C48.2609 107.408 48.6564 108.053 49.2016 108.563C49.747 109.072 50.4216 109.427 51.1543 109.589C51.3661 109.627 51.5809 109.646 51.7963 109.646C52.8735 109.618 53.9005 109.19 54.6728 108.448C55.011 108.129 55.3238 107.785 55.6087 107.419C55.8094 107.172 56.0107 106.926 56.2303 106.697C59.9847 102.786 63.1284 102.423 67.8301 105.361C69.9624 106.693 71.3426 107.116 72.4368 106.767C73.6861 106.37 74.4681 104.992 75.3264 102.897C76.4714 99.9725 78.6024 97.5262 81.3597 95.9707C84.3933 94.1889 87.2861 94.1863 90.4644 95.9591C90.9264 96.2505 91.4563 96.421 92.0037 96.4551C92.5504 96.4886 93.0979 96.3844 93.5925 96.1521C94.1868 95.8022 94.6828 95.312 95.0373 94.726C95.3911 94.1393 95.5925 93.4755 95.6218 92.7936C95.6635 92.3562 95.6785 91.9168 95.6674 91.4781C95.6674 91.2472 95.6675 91.0162 95.6727 90.7866C95.6316 89.4537 95.8903 88.1292 96.4319 86.9076C96.9728 85.6861 97.7822 84.5983 98.8008 83.7234C99.82 82.8486 101.024 82.2085 102.324 81.8489C103.625 81.49 104.99 81.4198 106.321 81.6456C106.936 81.7576 107.568 81.7363 108.174 81.582C108.779 81.4276 109.343 81.1445 109.826 80.7528C110.201 80.3842 110.488 79.9377 110.667 79.4469C110.847 78.9561 110.914 78.4318 110.864 77.9121C110.723 75.6034 110.287 73.3217 109.568 71.1204C108.324 67.0195 109.26 64.2134 112.602 62.0218C114.572 60.7301 115.511 59.4931 115.47 58.24C115.431 56.9972 114.435 55.8341 112.425 54.6839C110.444 53.5505 108.826 52.4363 109.101 50.2672C109.398 47.9501 110.125 45.4626 113.286 44.6482ZM106.276 57.3606C101.052 62.7339 100.056 68.4251 103.239 74.7382C95.4648 75.5982 90.596 80.1095 88.3757 88.5126C80.8937 88.2058 75.2906 91.5167 71.2195 98.6159C64.2226 93.3147 57.3603 96.2924 52.706 99.1376C48.9158 94.6848 44.6512 93.2381 40.4902 93.2381C37.3752 93.332 34.2999 93.9541 31.3985 95.0772C31.0485 94.2834 30.7142 93.4652 30.3884 92.6707C29.5962 90.5698 28.6259 88.539 27.4877 86.5995C25.6083 83.5993 22.1674 83.2545 18.7506 83.0049C19.9888 74.9048 17.0112 69.8448 9.64654 67.5566C14.2207 61.9086 17.934 55.0911 12.2481 47.0933C17.6518 42.1613 19.0165 36.3043 16.3081 29.6753C22.4704 28.529 28.7813 26.1631 29.9635 17.9137C33.7882 18.7467 36.9802 18.6213 39.9805 17.5329C43.774 16.1524 45.4684 13.03 46.4974 10.3449C49.2143 11.8457 52.8077 13.2654 57.0045 11.8489C60.4905 10.7505 63.6232 8.76813 66.0894 6.09995C70.5978 14.1486 76.8683 14.8073 85.4601 13.1445C87.0789 21.9059 92.9193 26.6243 102.829 27.1743C101.916 33.4456 103.481 38.2733 107.489 41.5328C107.114 42.335 106.733 43.1063 106.361 43.8608C105.455 45.5965 104.665 47.3894 103.998 49.2277C102.956 52.3141 104.444 54.9605 106.276 57.3606Z" fill="black"/>
<path d="M74.4107 22.5838C70.5769 21.381 66.6218 20.5923 62.6154 20.2314C53.4058 19.17 42.4601 23.3879 34.7415 30.9805C30.9289 34.6706 28.0292 39.1786 26.2678 44.1543C24.5064 49.13 23.9305 54.4396 24.585 59.6706C25.8564 70.731 31.8187 78.3975 42.3109 82.4585C48.9291 84.9628 55.9653 86.2159 63.0527 86.1528C63.4893 86.1528 63.9273 86.1483 64.3665 86.14C69.3328 86.0435 73.4984 85.1011 77.1015 83.2574C87.7892 77.7896 93.5286 68.5046 95.1734 54.0277V54.0033V53.9782C94.5139 36.9797 88.1079 27.2977 74.4107 22.5838ZM84.2799 62.1703C82.5607 66.6391 80.7933 70.188 77.7571 72.985C73.5583 76.8524 68.2927 78.7571 61.6606 78.8066C60.2921 78.5796 58.917 78.3711 57.5433 78.1634C54.5899 77.7131 51.5361 77.2512 48.5833 76.5976C32.662 73.0744 29.3951 59.9587 31.6454 48.8597C33.5183 39.6229 40.7879 28.7972 55.5727 26.1167C56.8905 25.8708 58.2282 25.744 59.5694 25.7378C62.4829 25.728 65.3517 26.4435 67.9108 27.8182C68.7991 28.3064 69.7193 28.7362 70.6649 29.1047C73.5414 30.1256 76.1794 31.7095 78.4206 33.7612C80.6617 35.8131 82.4604 38.2905 83.7077 41.0452C86.637 47.7536 86.8423 55.3169 84.2799 62.1703Z" fill="black"/>
</g>
<defs>
<clipPath id="clip0_8_2666">
<rect width="116" height="110" fill="white"/>
</clipPath>
</defs>
</svg>
