<svg width="106" height="96" viewBox="0 0 106 96" fill="none" xmlns="http://www.w3.org/2000/svg">
<g clip-path="url(#clip0_8_2669)">
<path d="M59.1054 28.2028C57.4171 27.7517 55.7005 27.414 53.9669 27.1919C53.179 27.0734 52.3918 26.9548 51.6097 26.8144L51.5774 26.8086H51.5451C40.1404 27.0019 31.25 34.7547 29.9321 45.6678C28.7984 55.0332 32.8012 62.1269 40.9141 65.1297C44.6324 66.5452 48.5747 67.2855 52.5547 67.3158C53.9447 67.3171 55.3329 67.2185 56.7087 67.0207C61.9609 66.2663 65.943 63.7202 68.5451 59.4537C70.0084 57.0871 71.1389 54.5316 71.9061 51.8588C74.8017 41.3497 69.2988 31.1795 59.1054 28.2028ZM63.1475 57.7032C60.6442 61.0651 57.0002 62.6256 52.0137 62.4665C51.3027 62.3608 50.5833 62.2667 49.8665 62.172C48.3263 61.969 46.7338 61.7597 45.1987 61.4362C37.9939 59.9183 35.1487 55.9597 35.3788 47.7726C35.5152 42.9146 37.3314 38.8724 40.6304 36.0826C44.3791 32.9126 49.9092 31.4688 55.4258 32.2213C61.9305 33.1085 66.1905 37.9709 66.8226 45.2289C67.215 49.6998 65.9029 54.1538 63.1475 57.7032Z" fill="black"/>
<path d="M26.0311 68.6506C25.4863 68.1642 23.8801 68.6055 23.2932 69.128C19.5696 72.4475 15.7252 76.0078 11.8665 79.7106C11.3497 80.2615 10.9303 80.8955 10.6263 81.5861C10.5293 81.7794 10.4446 81.9527 10.3677 82.0823L10.3276 82.1467L10.3211 82.2246C10.2003 83.6775 10.4504 84.642 11.0754 85.1749C11.4595 85.4803 11.9418 85.6368 12.4327 85.6149C12.7867 85.6098 13.1387 85.5621 13.4812 85.4725C14.0863 85.3759 14.6549 85.1214 15.1293 84.7348C19.2523 80.6223 22.8944 76.926 26.2657 73.4339C26.7944 72.8836 27.0852 72.1479 27.0756 71.3863C26.9877 70.4869 26.7369 69.2788 26.0311 68.6506Z" fill="black"/>
<path d="M53.0693 75.09C52.8337 74.9347 52.5657 74.8348 52.2858 74.7981C52.0058 74.7614 51.7212 74.7885 51.4534 74.878C50.5375 75.1357 49.6384 76.5107 49.5046 77.4726C49.2196 79.524 49.0987 81.6264 48.9804 83.6578C48.9352 84.4477 48.8893 85.2376 48.8337 86.0263L48.8253 86.3632L49.0044 86.3722C49.0011 86.8703 48.9908 87.3683 48.9804 87.867C48.9272 89.2477 48.9487 90.6304 49.0451 92.0092C49.0604 92.5762 49.1904 93.1341 49.4273 93.6502C49.6642 94.1656 50.0031 94.6289 50.4237 95.0109C50.8766 95.375 51.4416 95.5721 52.0234 95.5702C52.1558 95.5702 52.288 95.5605 52.419 95.5418C54.2759 95.2803 55.1982 93.9872 55.0897 91.8049C54.846 86.9405 54.528 82.0729 54.1441 77.3373C54.1391 76.9069 54.0405 76.4836 53.8548 76.0957C53.6692 75.7072 53.4012 75.3644 53.0693 75.09Z" fill="black"/>
<path d="M83.5538 76.3072C81.0564 73.5406 78.4736 70.6799 75.876 67.9172C75.4694 67.5429 74.9834 67.2652 74.454 67.1047C74.2969 67.0448 74.1535 66.9907 74.0416 66.9347L73.9634 66.896L73.8775 66.8999C73.3869 66.9024 72.9067 67.0377 72.4878 67.2916C72.069 67.5454 71.7277 67.9088 71.5009 68.3418C71.294 68.807 71.2178 69.3185 71.2805 69.8237C71.3432 70.3282 71.5429 70.8062 71.8577 71.2063C73.7753 73.9001 75.9018 76.5076 77.9585 79.0294C78.6423 79.8669 79.3268 80.7077 80.0041 81.5511C80.315 81.9867 80.7746 82.2946 81.2968 82.4184C81.5024 82.4364 81.726 82.4647 81.9567 82.4931C82.4137 82.5601 82.8752 82.6 83.3373 82.6116C83.5655 82.6368 83.7962 82.6149 84.0153 82.5459C84.2344 82.477 84.4367 82.3629 84.6093 82.2115C85.1703 81.5821 85.2169 80.5744 85.2628 79.6002C85.2763 79.3128 85.2893 79.0287 85.3158 78.7626C85.3061 78.5513 85.2531 78.3438 85.16 78.1531C85.0669 77.9631 84.9357 77.7936 84.7748 77.6557L83.5538 76.3072Z" fill="black"/>
<path d="M20.6066 49.4005C20.8128 49.1346 20.9614 48.8288 21.0427 48.5026C21.124 48.1764 21.1364 47.8368 21.0791 47.5056C20.8206 45.3215 18.8983 45.3447 17.5093 45.3608H17.4039C15.9645 45.3763 14.5387 45.4806 12.886 45.6011C12.1337 45.6565 11.3348 45.7151 10.4739 45.7692C9.92252 45.7692 9.32466 45.7571 8.69254 45.7448C6.74873 45.6703 4.80228 45.7105 2.86324 45.8652C1.82909 45.9664 0.219035 47.1248 0.0464612 48.1254C-0.00751605 48.3546 -0.0110724 48.5928 0.0361254 48.8235C0.0833229 49.0542 0.180137 49.2719 0.319846 49.4617C0.850493 50.1356 1.91181 50.2606 2.86387 50.3251C3.67309 50.3798 4.47968 50.4616 5.28954 50.5428C6.65333 50.6801 8.06494 50.8219 9.46104 50.8302H9.85602C12.2236 50.8302 14.8373 50.7136 18.038 50.4655C18.516 50.4699 18.9901 50.3778 19.4315 50.1948C19.873 50.0117 20.2726 49.7415 20.6066 49.4005Z" fill="black"/>
<path d="M49.4578 3.28613C49.4694 6.1017 49.5223 8.96235 49.5708 11.7264L49.6238 14.7178C49.6238 14.8396 49.6148 14.9691 49.6044 15.0993C49.5317 15.4679 49.5821 15.8501 49.7479 16.1875C49.8998 16.4181 50.0491 16.6733 50.2003 16.9323C50.7484 17.8665 51.3153 18.833 52.1678 19.0952C52.4059 19.1711 52.6541 19.2108 52.9041 19.2131C53.2506 19.2147 53.5912 19.1242 53.891 18.9509C54.803 18.4277 55.2386 17.266 55.4422 16.384C55.6402 15.4002 55.756 14.4018 55.7886 13.399C55.8099 13.042 55.8313 12.6851 55.8598 12.3307L56.2798 12.2019L56.2152 11.9048C56.0265 11.035 55.8481 10.1614 55.6697 9.28836C55.203 6.99854 54.719 4.63141 54.0384 2.35576C53.7885 1.78094 53.3966 1.27856 52.8993 0.895501C52.402 0.512445 51.8155 0.261187 51.1945 0.165165C50.9689 0.152842 50.7432 0.184966 50.5301 0.259702C50.3171 0.334438 50.1209 0.450313 49.9528 0.600706C49.4015 1.15802 49.4274 2.07743 49.45 2.8886C49.4532 3.02841 49.4571 3.16242 49.4578 3.28613Z" fill="black"/>
<path d="M73.3526 27.6854C74.2083 27.6879 75.0544 27.5015 75.8294 27.1393C76.6043 26.7771 77.2894 26.2483 77.835 25.5908C80.4811 22.8061 83.0703 19.8842 85.5755 17.0584L87.3155 15.0984C87.8138 14.5914 88.19 13.9777 88.4143 13.3041C88.517 12.9323 88.6935 11.5187 88.0969 11.2107C87.3756 10.9227 86.5767 10.8914 85.8347 11.1218C85.3855 11.2974 84.9932 11.593 84.701 11.9762C84.6144 12.0702 84.5285 12.163 84.4425 12.2481C83.5648 13.1191 82.6838 13.9878 81.8003 14.8542C79.2795 17.3328 76.6741 19.8958 74.2019 22.5065C73.4754 23.3574 72.8665 24.3015 72.3921 25.3137C72.1038 25.8562 71.8059 26.4167 71.4504 27.0134L71.21 27.4154L71.6708 27.5069C72.2241 27.6211 72.7877 27.6809 73.3526 27.6854Z" fill="black"/>
<path d="M103.802 45.4788C102.885 45.2234 101.938 45.0856 100.986 45.0684C97.6596 45.1644 94.2825 45.3576 91.0165 45.5445C89.8298 45.6124 88.6438 45.6787 87.4577 45.7436C87.3776 45.7474 87.2916 45.7436 87.205 45.7436C86.8838 45.6967 86.5574 45.7704 86.2879 45.9504C86.1127 46.107 85.9156 46.2642 85.7152 46.424C85.0139 46.9838 84.2887 47.5631 84.173 48.3059C84.1213 48.5414 84.1239 48.7856 84.1808 49.0199C84.237 49.2543 84.3463 49.4728 84.5001 49.659C84.7922 49.9243 85.138 50.1247 85.5136 50.2468C85.8897 50.369 86.2872 50.4102 86.6802 50.3677H86.7675C88.0666 50.3509 89.3657 50.3496 90.6655 50.3477C93.6135 50.3432 96.6629 50.3393 99.6555 50.1609C101.731 50.0378 104.058 49.4798 105.59 46.2777L105.776 45.8866L105.348 45.8093C104.795 45.7075 104.285 45.5902 103.802 45.4788Z" fill="black"/>
<path d="M29.9355 30.712L30.3155 30.9336L30.4248 30.5084C31.2728 27.2051 31.2353 26.3714 28.8884 24.2355C25.9799 21.5875 22.7527 18.8576 19.0285 15.8906C18.4385 15.5379 17.7537 15.3752 17.0675 15.4248C16.777 15.419 16.487 15.3975 16.1989 15.3604L15.8014 15.2998L15.8162 15.6999C15.8197 15.9857 15.8066 16.2713 15.7768 16.5555C15.7173 17.2765 15.6559 18.022 16.0502 18.4884C19.269 22.2872 23.7558 27.111 29.9355 30.712Z" fill="black"/>
</g>
<defs>
<clipPath id="clip0_8_2669">
<rect width="106" height="96" fill="white"/>
</clipPath>
</defs>
</svg>
