<svg width="77" height="77" viewBox="0 0 77 77" fill="none" xmlns="http://www.w3.org/2000/svg">
<g clip-path="url(#clip0_8_2679)">
<path d="M75.8146 40.446L75.7719 40.3677C75.4445 39.8353 75.0375 39.3565 74.5664 38.9478C74.2765 38.6814 74.0041 38.3956 73.7518 38.0923C73.3363 37.6591 73.0924 37.088 73.0646 36.4862C73.0374 35.8843 73.2283 35.293 73.6023 34.8231C74.8265 32.9614 75.5163 31.5799 75.1721 30.451C74.8278 29.3221 73.5628 28.6089 71.489 27.7489C69.8513 27.0702 69.0509 26.4712 68.8115 25.7462C68.5721 25.0212 68.8542 24.0705 69.7504 22.5546C70.4731 21.3318 70.6323 20.18 70.2117 19.2267C69.7911 18.2733 68.8458 17.6292 67.4721 17.3532C66.8451 17.2273 66.2045 17.1333 65.5839 17.0432C64.5931 16.9219 63.6118 16.7322 62.6465 16.4755C61.9468 16.3415 61.3278 15.9339 60.9248 15.3417C60.5217 14.7496 60.3669 14.0207 60.4943 13.314C60.7182 10.9133 60.8035 9.6258 60.1312 8.87342C59.4428 8.10342 58.1391 8.05709 55.4894 8.03033C51.9422 7.99575 49.8728 6.71154 48.7793 3.86844C48.076 2.03676 47.3338 1.11079 46.3735 0.86674C45.3874 0.614209 44.2324 1.11406 42.6412 2.4844C40.4794 4.34415 39.8163 4.29781 37.9043 2.16595C36.6477 0.765596 35.8615 0.0778113 35.0656 0.182218C34.284 0.286625 33.7177 1.13558 32.9464 2.66579C31.9758 4.58362 31.1347 5.34122 28.9638 4.44985C27.7285 3.94478 26.7385 3.87234 25.9394 4.22929C25.1403 4.58623 24.5418 5.35688 24.0727 6.64368C22.7326 10.3325 22.0584 10.8199 18.1404 10.7834C16.7421 10.7834 14.9698 11.1018 14.0769 12.0232C12.6915 13.449 13.7327 14.8944 14.568 16.0592C14.6942 16.2334 14.8185 16.4064 14.9317 16.5741C14.9561 16.6834 14.9699 16.7949 14.9731 16.9069C14.9834 17.0322 14.9957 17.1855 15.0171 17.376C14.7984 17.4994 14.5745 17.6331 14.3454 17.7676C13.6381 18.2218 12.8871 18.6031 12.1041 18.9056C11.3854 19.124 10.6461 19.2664 9.89819 19.3304C9.45884 19.3846 9.00395 19.4407 8.56007 19.5262C7.17084 19.7918 6.29152 20.2909 5.87287 21.0505C5.43935 21.8336 5.48982 22.8613 6.03076 24.2747C7.08484 27.0278 6.86031 27.6843 4.31541 29.2915C4.12129 29.4141 3.92262 29.529 3.72333 29.6438C3.33238 29.8568 2.95641 30.0967 2.59808 30.3616C1.53367 31.1878 0.968189 32.1046 0.961718 33.0129C0.98573 33.4711 1.11586 33.9173 1.34172 34.3157C1.56758 34.714 1.88282 35.0534 2.26223 35.3066C3.85141 36.5797 3.49169 37.7146 2.75922 39.3015C2.53632 39.7398 2.27146 40.155 1.96848 40.5413C1.73537 40.8498 1.51812 41.1702 1.31756 41.5012C0.533318 42.8454 0.295193 43.9157 0.566311 44.8651C0.837431 45.8146 1.62105 46.6113 3.02517 47.3448C3.34029 47.5092 3.65217 47.6808 3.99576 47.8667L4.33476 48.0534C4.23965 48.5643 4.11993 49.0805 4.00476 49.5823C3.45476 51.9699 2.88537 54.4391 4.67125 56.787L4.75797 56.9012L4.89968 56.9169C9.45819 57.407 10.4184 58.6135 10.0373 63.377C10.0308 63.4547 10.0218 63.5323 10.0127 63.61C9.9924 63.7615 9.98011 63.9139 9.97583 64.0668C9.92349 64.5666 9.9869 65.0719 10.1611 65.5425C10.3352 66.0136 10.6154 66.4378 10.9794 66.781C11.3814 67.059 11.842 67.2391 12.3249 67.307C12.8078 67.3748 13.2996 67.3285 13.7618 67.1725C17.2598 66.3464 18.055 66.6636 19.839 69.5993C21.6882 72.6415 22.1528 72.9645 25.15 71.2692C27.0465 70.1977 28.6584 70.3622 30.2211 71.7854C31.171 72.6924 32.0604 73.6627 32.8837 74.6885C33.8776 75.8703 34.5861 76.3545 35.327 76.3545H35.3432C36.0938 76.3473 36.8042 75.8461 37.7935 74.6233C39.6331 72.3478 41.5278 71.7645 44.1244 72.6754C45.1253 73.0656 46.0877 73.5498 46.9992 74.1215L47.5951 74.468C49.2296 75.4031 50.4798 75.6223 51.4212 75.1414C52.3349 74.6729 52.8778 73.5838 53.0803 71.8134C53.2744 70.1018 53.598 68.3465 55.1852 67.3056C55.2577 67.3109 55.3256 67.3128 55.391 67.3148C55.4973 67.3102 55.6036 67.3226 55.7061 67.3513C57.7347 68.3106 59.0132 68.7406 59.9462 68.2649C60.8683 67.7957 61.2734 66.5513 61.6991 64.4185C61.9832 62.9927 62.4756 62.0732 63.2042 61.6125C63.9548 61.1342 65.0391 61.0846 66.5248 61.4585C68.0673 61.8501 69.3013 61.6491 69.9949 60.898C70.4479 60.408 70.873 59.4624 70.3185 57.756C69.1712 54.2029 70.5682 52.0521 73.1946 49.733C74.9339 48.1976 76.0449 45.8262 76.8182 43.9326C77.209 42.989 76.4358 41.5788 75.8146 40.446ZM13.9068 24.9977C15.0756 24.6617 16.1759 24.1189 17.1562 23.3944C18.6229 22.1714 19.7603 20.5956 20.464 18.8123L20.5378 18.6133C21.0308 17.2847 21.3279 16.4827 22.8174 16.1121C24.7269 15.637 25.9828 14.2464 27.1987 12.9022C27.6199 12.4356 28.056 11.9528 28.5108 11.5195C29.4258 10.649 30.7717 10.2353 32.1991 9.79742C33.0068 9.56798 33.7993 9.287 34.5718 8.95629C35.0809 8.66356 35.5156 8.25539 35.8414 7.76409C35.9708 7.59704 36.1118 7.42281 36.262 7.24859C39.0883 9.05352 41.6811 9.35499 44.3748 8.18955C46.7806 11.9743 50.7108 13.0895 54.3071 13.6428C54.7762 18.0801 57.2552 20.9892 61.872 22.5266C61.8985 25.8421 62.4498 29.514 65.9832 31.9662C66.1249 32.1005 66.2362 32.2637 66.3099 32.4449C66.3837 32.626 66.4186 32.8211 66.4115 33.0168C65.0242 38.4094 67.8008 42.3841 70.5262 45.2794C66.3365 47.4126 64.1987 50.7908 64.1664 55.3286C62.4143 55.5868 60.7616 56.3094 59.3773 57.4228C57.9929 58.5361 56.9265 60.0002 56.2871 61.6654C52.3401 61.7959 49.6768 64.1111 48.164 68.7399C43.7323 67.5869 39.1232 67.1353 35.2098 70.9977C33.081 68.6793 30.5892 66.4345 27.2439 66.4345C26.0947 66.4489 24.9591 66.6864 23.8993 67.1353C22.217 64.5177 19.8299 61.5936 16.1798 61.2843L10.7976 52.4097C11.4724 50.7917 11.6187 48.999 11.2156 47.2914C10.8125 45.5838 9.88085 44.0499 8.55561 42.912C8.55561 42.0774 8.55554 41.2721 8.55037 40.4904C8.54389 38.2783 8.53742 36.1882 8.58466 34.1346C8.65855 33.5652 8.85752 33.0194 9.16701 32.5372C10.049 30.9117 10.9535 29.2999 11.9843 27.4624L13.2273 25.2437C13.4124 25.1661 13.6447 25.0865 13.9068 24.9977Z" fill="black"/>
<path d="M39.0076 60.3521C39.137 60.3521 39.2613 60.3521 39.3875 60.3521C47.4699 60.3521 53.2837 56.5673 56.6711 49.1016C59.4127 43.0545 59.0522 36.8945 58.433 32.2008C58.1844 29.7991 57.3106 27.5062 55.9003 25.5547C54.49 23.6031 52.5934 22.0622 50.4024 21.088C48.2325 20.1647 45.9764 19.4627 43.6678 18.9927C42.6648 18.7532 41.6262 18.5052 40.6265 18.224L40.3029 18.1333L40.1149 18.823L39.7388 18.8191C39.2788 18.8139 38.8188 18.808 38.3626 18.8276C26.7951 19.3144 17.3486 26.6913 14.8568 37.1842C13.4772 42.9918 14.4104 47.6106 17.7104 51.3001C23.0415 57.2624 30.007 60.2216 39.0076 60.3521ZM21.0401 40.6871C21.3817 34.916 24.3291 30.3894 29.5658 27.5958C32.4808 26.0415 35.8423 24.5661 39.5376 24.5661C40.7028 24.565 41.8633 24.7156 42.9902 25.0144C48.786 26.5465 52.5564 31.3962 53.0747 37.9882C53.4061 42.4001 52.1747 46.7874 49.5994 50.3696C47.2506 53.783 43.8405 55.3432 38.2111 55.5821C37.28 55.3948 36.3404 55.2329 35.4015 55.0705C33.3247 54.76 31.2711 54.3085 29.2545 53.7191C23.0725 51.7529 20.6169 47.8553 21.0401 40.6871Z" fill="black"/>
</g>
<defs>
<clipPath id="clip0_8_2679">
<rect width="77" height="77" fill="white"/>
</clipPath>
</defs>
</svg>
