<svg width="144" height="134" viewBox="0 0 144 134" fill="none" xmlns="http://www.w3.org/2000/svg">
<g clip-path="url(#clip0_8_2656)">
<path d="M58.7355 95.0604C64.2981 96.6018 70.2728 97.2122 75.9005 97.6421C76.6212 97.6971 77.3366 97.7243 78.0469 97.7243C82.3213 97.732 86.5331 96.6956 90.309 94.7057C100.961 89.1385 106.658 79.7786 108.233 65.2432V65.2179V65.1933C107.504 48.1485 101.142 38.4675 87.6095 33.8015C83.4609 32.4872 79.1721 31.6551 74.8306 31.3221C67.6059 30.6159 59.0522 33.3645 51.9558 38.6747C43.925 44.6846 38.8427 53.1551 37.6457 62.5254C35.6167 78.4289 43.697 90.8941 58.7355 95.0604ZM44.1544 64.3153C45.0145 48.6774 57.0095 39.6256 67.9486 36.3682C68.6751 36.1628 69.4284 36.0635 70.1848 36.0736C72.5468 36.0736 75.2151 36.8634 77.437 37.6273C81.4814 39.1231 85.3791 40.9832 89.0834 43.1841C92.3387 45.0492 94.8916 47.9196 96.3551 51.3587C101.202 62.4425 99.8156 73.0359 92.2364 82.8431C88.4025 87.8031 82.6314 90.2656 74.5941 90.3698C73.0987 90.0998 71.5721 89.8571 70.0982 89.6228C66.7914 89.1567 63.5112 88.5197 60.2713 87.7144C46.0968 83.9087 43.6833 72.8902 44.1544 64.3153Z" fill="black"/>
<path d="M79.0514 111.93C78.7041 110.847 77.5938 109.498 76.5564 109.294C75.7309 109.134 74.6388 109.592 73.2164 110.698C72.643 111.143 72.4632 112.033 72.3042 112.819L72.2677 112.998C71.0805 118.764 71.7341 124.552 72.617 129.949C72.7349 130.524 72.9356 131.079 73.2132 131.597C73.9377 133.091 74.9966 133.903 76.1538 133.903C76.4587 133.902 76.761 133.849 77.0477 133.745C77.6713 133.481 78.2362 133.097 78.7099 132.616C79.183 132.133 79.5557 131.564 79.8066 130.938C80.2972 129.618 80.1884 128.032 80.0919 126.633L80.0861 126.544C79.9121 124.016 79.6684 121.475 79.4345 119.019C79.3407 118.04 79.2488 117.069 79.1589 116.106C79.1589 115.666 79.1869 115.231 79.2143 114.805C79.3387 113.845 79.2833 112.87 79.0514 111.93Z" fill="black"/>
<path d="M118.763 65.0159C118.828 66.9308 120.117 67.9736 122.597 68.1173C124.486 68.2267 126.38 68.3193 127.791 68.3886L129.082 68.4533H129.099C130.45 68.4533 131.68 68.4708 132.825 68.487C133.818 68.5012 134.755 68.5148 135.657 68.5148C136.922 68.5148 138.119 68.4883 139.306 68.4015C141.92 68.2106 143.574 66.7832 143.518 64.7602C143.468 62.8865 141.916 61.6488 139.149 61.2753C138.91 61.2367 138.669 61.2185 138.427 61.2209L136.636 61.2818C131.897 61.4432 127.159 61.6087 122.421 61.7783C119.996 61.867 118.697 63.0167 118.763 65.0159Z" fill="black"/>
<path d="M116.408 108.429C113.189 105.694 109.675 102.767 105.664 99.4781C104.077 98.1776 102.562 98.0449 101.288 99.0897C99.73 100.364 100.202 102.081 100.789 103.434C101.023 103.989 101.367 104.491 101.801 104.911L102.878 105.904C105.806 108.605 108.833 111.397 111.896 114.052C112.509 114.52 113.206 114.868 113.95 115.076C114.166 115.15 114.357 115.214 114.505 115.28L114.639 115.31H114.729C116.362 115.31 117.6 114.763 118.221 113.763C118.494 113.273 118.632 112.72 118.619 112.16C118.606 111.6 118.444 111.054 118.149 110.577C117.71 109.759 117.12 109.03 116.408 108.429Z" fill="black"/>
<path d="M71.9135 4.20727C72.1506 7.4705 72.2555 10.8011 72.3565 14.0223L72.3663 14.3459C72.3885 15.0405 72.3624 15.754 72.337 16.4434C72.3109 17.1606 72.2836 17.9018 72.309 18.6352C72.3859 20.8213 73.5678 22.1801 75.5493 22.3639C75.6874 22.3765 75.8223 22.3827 75.9546 22.3827C77.7139 22.3827 79.0327 21.2713 79.5174 19.3402C79.7455 18.3072 79.8706 17.2542 79.8895 16.1967C79.9051 15.8627 79.9195 15.5611 79.9429 15.3054V15.2736V15.2419C79.866 14.4735 79.8126 13.7666 79.7605 13.1056C79.6921 11.8494 79.5442 10.5987 79.3187 9.36074C78.8535 6.9835 78.2149 4.64297 77.4083 2.35782C76.7515 0.554317 75.245 -0.254867 73.5639 0.297964C71.6522 0.926534 71.7786 2.49505 71.89 3.87907L71.9135 4.20727Z" fill="black"/>
<path d="M20.0123 114.171C20.6189 114.898 21.6933 115.28 23.1301 115.28C23.2206 115.28 23.3132 115.28 23.407 115.274H23.4891L23.5614 115.234C23.7067 115.152 23.9009 115.067 24.1211 114.968C24.9016 114.67 25.617 114.226 26.2284 113.659C28.993 110.764 31.8222 107.625 34.8788 104.065C36.2289 102.492 36.2471 100.715 34.9309 99.4268C34.0291 98.5458 32.4966 97.9088 30.3177 99.8748C27.1464 102.737 24.0716 105.651 21.1786 108.539C20.3734 109.376 19.812 110.414 19.5542 111.543C19.4197 111.987 19.3911 112.455 19.4706 112.911C19.5501 113.367 19.7356 113.799 20.0123 114.171Z" fill="black"/>
<path d="M32.4106 38.3164C33.0383 38.9307 33.8843 39.2748 34.7654 39.2744C35.0068 39.2837 35.247 39.2355 35.4659 39.134C36.1104 38.6703 36.597 38.0221 36.8603 37.2761C37.0179 36.9563 37.1808 36.6287 37.3646 36.3238L37.4571 36.173L37.3822 36.0124C37.1685 35.5534 36.9834 35.0952 36.8029 34.6485C36.4702 33.7025 36.0146 32.8037 35.4476 31.9749C33.0133 28.7531 30.4115 25.576 27.8951 22.5037L27.3778 21.8719C26.9466 21.2477 26.2884 20.8142 25.5419 20.6627C24.7954 20.5111 24.0188 20.6533 23.3757 21.0594C23.0529 21.2368 22.7715 21.4799 22.5498 21.7729C22.3281 22.0659 22.1713 22.402 22.0895 22.7594C22.0117 23.1541 22.0151 23.5603 22.0994 23.9537C22.1837 24.3471 22.3473 24.7194 22.5802 25.0484C25.5533 29.3183 28.7689 33.6613 32.4106 38.3164Z" fill="black"/>
<path d="M109.559 30.1877C110.12 30.4825 110.75 30.6227 111.384 30.5936C112.093 30.5776 112.8 30.5013 113.495 30.3657C114.238 30.2362 114.893 29.475 115.436 28.7473C117.835 25.5378 120.337 22.1108 122.875 18.5627C123.175 18.1114 123.42 17.6261 123.605 17.1172C123.671 16.9553 123.73 16.8071 123.789 16.6835L123.82 16.554C123.856 16.1427 123.79 15.7288 123.626 15.3492C123.463 14.9696 123.208 14.6358 122.883 14.3777C122.595 14.1811 122.263 14.0586 121.916 14.0211C121.569 13.9836 121.218 14.0323 120.895 14.1627C120.146 14.4956 119.479 14.986 118.94 15.5999C116.495 18.1245 113.869 20.8789 110.679 24.2742C110.129 24.8534 109.642 25.488 109.225 26.1677C108.672 26.9748 108.445 27.9583 108.586 28.9241C108.653 29.1895 108.774 29.4384 108.942 29.6558C109.108 29.8731 109.319 30.0541 109.559 30.1877Z" fill="black"/>
<path d="M2.96331 71.3985C4.58054 71.7014 6.23816 71.9163 7.8404 72.1196C8.52391 72.207 9.20872 72.2944 9.88767 72.3889L10.233 72.4368L10.2682 72.0801L10.9628 72.0853C11.7343 72.0924 12.5311 72.0995 13.3163 72.0685C14.1115 72.0335 14.9033 71.9442 15.6861 71.8011C17.5861 71.4587 19.0672 70.6579 19.6471 69.6597C19.7889 69.4299 19.8769 69.171 19.9048 68.903C19.9326 68.6343 19.8996 68.3631 19.808 68.1093C18.961 65.7621 16.6804 65.819 15.0287 65.8572L11.2984 65.9433C8.7676 66.0003 6.23751 66.0566 3.70741 66.1317C2.69941 66.1615 0.601961 66.2236 0.319174 68.3327C0.102196 69.9018 1.09196 71.0489 2.96331 71.3985Z" fill="black"/>
</g>
<defs>
<clipPath id="clip0_8_2656">
<rect width="144" height="134" fill="white"/>
</clipPath>
</defs>
</svg>
