<svg width="159" height="155" viewBox="0 0 159 155" fill="none" xmlns="http://www.w3.org/2000/svg">
<path d="M95.9846 97.77C95.3237 100.005 94.3988 104.534 92.6477 108.717C90.1971 114.573 85.5437 118.103 79.0262 118.057C72.4477 118.011 67.6677 114.568 65.016 108.617C61.4819 100.684 61.807 92.7787 66.6235 85.4486C71.3345 78.279 83.9375 76.4507 90.7753 81.6946C95.3359 85.19 95.6312 90.2909 95.9846 97.77ZM89.5606 95.9958C89.9797 91.2944 88.7622 87.5112 85.4428 86.3804C81.7862 85.1378 78.1242 81.3444 73.9029 84.651C69.0355 88.464 68.0178 93.8276 68.4369 100.183C74.9816 94.9693 82.0266 94.7905 89.5606 95.9938V95.9958ZM80.0006 100.98L79.6153 100.137C76.8471 101.419 74.0085 102.574 71.3629 104.075C70.7413 104.427 70.293 106.106 70.5788 106.87C72.3807 111.693 79.1907 114.183 83.2644 111.121C85.4076 109.51 86.529 106.542 88.1115 104.186C85.7462 103.118 83.3863 102.036 81.0082 100.997C80.6763 100.929 80.3346 100.923 80.0006 100.98Z" fill="black"/>
<path d="M49.5549 63.8998C50.2016 61.3801 50.3737 59.6426 51.1043 58.1854C51.7347 56.9272 52.9678 55.1436 53.9916 55.105C55.7036 55.1603 57.3252 55.8868 58.5061 57.1277C60.9141 59.8037 60.2742 65.3212 57.3334 67.4095C56.1511 68.2485 53.7905 68.8457 52.808 68.2221C51.26 67.2436 50.423 65.141 49.5549 63.8998Z" fill="black"/>
<path d="M109.067 58.496C108.398 60.8443 108.322 62.4511 107.525 63.5271C106.751 64.5733 105.135 65.7943 104.08 65.6392C103.301 65.4878 102.562 65.1724 101.914 64.7141C101.265 64.2558 100.721 63.665 100.319 62.9807C98.9642 60.0873 98.4448 56.7009 100.81 54.1358C101.751 53.1167 104.738 52.5107 105.593 53.198C107.279 54.5557 108.129 56.9521 109.067 58.496Z" fill="black"/>
<path d="M54.6195 39.38C52.0341 40.4994 49.4597 41.6437 46.8581 42.7244C46.0106 43.0269 45.147 43.2822 44.2713 43.489C44.0939 42.3765 43.4507 41.0647 43.8251 40.1871C45.1117 37.1637 47.7437 35.6062 50.9236 35.2487C52.9074 34.9324 54.9337 35.0044 56.89 35.4606C58.0614 35.8067 58.8463 37.461 59.8051 38.5281C58.7454 39.0936 57.7154 39.7295 56.6117 40.1899C56.0638 40.301 55.5005 40.3123 54.9486 40.2232L54.6195 39.38Z" fill="black"/>
<path d="M113.964 38.2187C112.203 37.5625 110.861 36.729 109.466 36.6221C107.201 36.557 104.934 36.6497 102.682 36.8996C101.714 36.9673 100.756 37.159 99.793 37.2951C99.9541 36.0539 99.7333 34.0042 100.345 33.7157C102.682 32.612 105.344 31.3404 107.777 31.5266C110.373 31.7257 112.9 33.403 115.338 34.6652C115.884 34.9482 116.384 36.4521 116.107 36.9261C115.703 37.6174 114.574 37.8849 113.964 38.2187Z" fill="black"/>
<path d="M2.80592 55.9067C-4.20391 83.4578 1.93441 107.763 21.0631 128.158C21.5615 128.685 22.0687 129.211 22.5766 129.716C32.8516 139.991 45.6504 146.336 55.792 150.75C60.144 152.651 82.4784 154.96 88.5206 154.059C124.432 148.697 148.064 128.442 156.295 94.5562C157.867 87.9185 158.65 81.1185 158.627 74.2973C158.666 58.2286 151.899 39.5475 137.947 25.5563C136.511 24.3692 135.079 23.1381 133.695 21.9464C130.693 19.3651 127.59 16.6939 124.344 14.4146C99.5459 -3.0382 73.7811 -3.13639 47.7664 6.11954C24.2159 14.4945 9.08984 31.2477 2.80592 55.9067ZM47.8674 14.3698C70.6926 4.88431 93.5944 3.2104 115.931 17.4169C120.015 20.0172 130.903 28.8181 132.618 30.1392L132.728 30.2212L132.819 30.3214C141.533 39.5625 151.511 56.4593 151.291 73.8288C151.219 81.256 150.214 88.6446 148.299 95.8212C142.625 116.444 129.06 131.474 106.829 141.754C84.2288 152.575 51.8178 141.636 43.1944 135.942C33.6628 129.426 25.3227 121.319 18.5388 111.976C7.89943 96.9127 5.51182 75.261 11.229 55.4666C13.9048 46.3272 18.581 37.8978 24.9184 30.7896C31.2558 23.6814 39.0956 18.0725 47.8693 14.3698H47.8674Z" fill="black"/>
</svg>
