<svg width="115" height="136" viewBox="0 0 115 136" fill="none" xmlns="http://www.w3.org/2000/svg">
<g clip-path="url(#clip0_6_2150)">
<path d="M110.309 84.7988C108.849 83.7086 107.246 82.8239 105.545 82.1702C99.4706 79.8074 93.7907 79.3853 88.177 80.8792C87.8318 80.9533 87.48 80.9927 87.1269 80.9966L86.7987 81.015C87.243 80.1578 87.6788 79.3302 88.1055 78.5209C89.1858 76.4725 90.2057 74.5383 91.1285 72.5588L92.474 69.6794C97.8278 58.2204 103.365 46.371 107.555 34.1828C108.75 30.7088 109.251 27.7736 109.086 25.2086C108.877 21.9374 107.293 19.3278 104.74 18.0499C102.146 16.751 98.9206 17.0714 96.1095 18.9065C94.617 19.7731 93.284 20.8882 92.1675 22.2039L91.2795 23.3754C88.4527 26.9537 85.8444 30.6992 83.4691 34.5916C81.015 38.804 78.7579 43.2205 76.5775 47.4913C75.5274 49.5457 74.4773 51.6 73.4028 53.6405C73.2433 53.8966 73.0464 54.1273 72.8187 54.3251C72.7885 54.3553 72.757 54.3848 72.7268 54.4143C68.0622 47.9166 65.0055 47.1986 57.033 50.6811C55.6061 46.8271 52.6925 44.4866 48.3692 43.72C44.1739 42.9757 40.4381 44.0822 36.9595 47.1007C36.888 47.0272 36.8225 46.9616 36.7628 46.9006C36.6047 46.7541 36.4598 46.5937 36.3301 46.4215C33.7763 42.6804 30.3083 40.5072 26.5652 40.3057C22.9107 40.1128 19.3578 41.8251 16.5349 45.135C14.2173 47.9054 12.2446 50.9468 10.6596 54.1925C6.43211 62.6592 4.12753 71.9221 2.09354 80.0922C0.691157 85.9185 0.198277 91.926 0.632487 97.9026C1.20744 107.314 5.18837 115.55 12.4639 122.384C21.3658 130.742 31.8389 134.963 43.6438 134.963C44.9236 134.963 46.2194 134.913 47.5312 134.814C53.2072 134.383 59.7667 133.352 65.3712 128.972C67.9126 126.986 70.5228 124.997 73.0464 123.074C77.3684 119.781 81.8361 116.379 86.1076 112.87C91.4095 108.59 97.4858 105.372 104.006 103.39C106.193 102.773 108.273 101.823 110.171 100.573C111.428 99.6983 112.461 98.5392 113.183 97.1892C113.906 95.8391 114.299 94.3367 114.329 92.8055C114.34 91.248 113.981 89.7102 113.282 88.3188C112.584 86.9267 111.564 85.7203 110.309 84.7988ZM6.40717 93.3312C6.57911 92.0467 6.72928 90.757 6.87958 89.468C7.19108 86.336 7.662 83.2223 8.29064 80.1382C10.3115 71.0603 12.616 63.861 15.544 57.4742C17.1552 53.9244 19.4934 50.7523 22.4074 48.1627C24.1329 46.6341 25.9108 46.044 27.4157 46.5022C28.9345 46.9655 30.0943 48.4712 30.6811 50.7375C30.9745 51.994 31.181 53.2693 31.2993 54.5542C31.3557 55.0425 31.4115 55.5308 31.4778 56.0172C31.6688 57.4368 32.1091 58.9417 33.9291 59.3375C35.5581 59.6906 36.8173 58.9739 37.7742 57.1434C38.0695 56.5796 38.3562 56.0099 38.6417 55.4369C39.1996 54.3257 39.7767 53.1771 40.414 52.0974C40.9053 51.2596 41.567 50.5345 42.3567 49.9691C43.1465 49.4038 44.0464 49.0108 44.9978 48.8157C47.0626 48.3353 48.775 48.5532 49.9485 49.4524C51.0978 50.3299 51.7463 51.873 51.8224 53.9155C51.838 55.1661 51.7654 56.4162 51.6051 57.6566C51.5618 58.0708 51.5178 58.4843 51.4804 58.8971C51.4489 59.2482 51.3839 59.5948 51.315 59.9617C51.2281 60.3797 51.1662 60.8024 51.1298 61.2277C51.0675 61.8944 51.2443 62.5616 51.6284 63.1099C52.0126 63.6583 52.5791 64.0523 53.227 64.2214C53.8748 64.3906 54.5617 64.3238 55.1649 64.0332C55.7682 63.7426 56.2481 63.247 56.5196 62.635C56.7559 62.104 56.962 61.5507 57.1615 61.0158C57.4725 60.0915 57.8705 59.1988 58.3502 58.3497C59.1812 56.8235 60.2786 55.4583 61.5905 54.3186C62.0056 53.9584 62.5028 53.7057 63.0384 53.5827C63.574 53.4597 64.1317 53.4701 64.6623 53.613C65.1685 53.7966 65.6217 54.1016 65.9823 54.5015C66.3433 54.9014 66.5999 55.3837 66.7305 55.9062C67.2004 57.637 67.4879 59.4123 67.5883 61.2029C67.6363 61.7279 67.6842 62.2478 67.7406 62.7656C67.7669 63.1713 67.7518 63.5787 67.694 63.9812C67.5818 64.5961 67.6061 65.2283 67.7669 65.8326C68.1364 66.888 68.9667 68.1521 69.919 68.4343C70.8713 68.7166 72.1722 68.0359 73.1035 67.417C73.6083 66.9943 73.9863 66.4397 74.197 65.8156C74.2751 65.6429 74.3526 65.4724 74.4333 65.3116C75.8694 62.4858 77.2989 59.6569 78.7231 56.825C81.8388 50.6456 85.0601 44.2556 88.3201 38.0184C90.1985 34.4592 92.2962 31.0199 94.6012 27.7204C95.8325 26.0284 97.3323 24.5484 99.04 23.3387C100.141 22.5255 101.25 22.2932 102.084 22.6982C102.941 23.1136 103.459 24.167 103.502 25.586C103.506 27.1123 103.226 28.6259 102.674 30.0491C102.249 31.2165 101.827 32.3863 101.409 33.5585C99.7725 38.1201 98.0798 42.8366 96.0701 47.3128C92.4603 55.347 88.6653 63.4587 84.9944 71.3038C82.8292 75.9304 80.6724 80.5602 78.5236 85.1933C77.7708 86.6123 77.3205 88.1724 77.2011 89.7745C77.1919 90.8969 78.1908 92.2883 79.1215 92.9335C80.2373 93.7066 81.699 93.3489 82.8495 92.0271C83.0976 91.7422 83.3155 91.4364 83.5268 91.139C83.7034 90.8909 83.8793 90.6435 84.0723 90.4105C86.3242 87.69 90.4532 85.8595 95.1171 85.5142C99.6288 85.1801 103.814 86.3202 106.313 88.5636C107.551 89.6793 108.141 90.7761 108.019 91.7455C107.897 92.7149 107.101 93.578 105.657 94.3275C104.78 94.7797 103.855 95.1322 102.9 95.3777C95.146 97.3893 87.9847 101.235 81.0072 107.134C76.7817 110.707 72.2181 114.523 67.4754 118.226C64.6965 120.392 61.6734 122.358 58.7501 124.256L58.6411 124.326C55.6725 126.254 52.1537 126.539 48.7506 126.814L48.4323 126.84C33.9929 128.015 22.0744 122.998 13.0202 111.934C8.47508 106.379 6.46994 100.245 7.06001 93.7007L7.09302 93.3358L6.40717 93.3312Z" fill="black"/>
<path d="M34.2172 29.6403C34.8613 29.6253 35.4887 29.4319 36.0295 29.0817C37.2777 28.3033 38.4657 27.4323 39.5836 26.4761C48.2952 19.1599 58.2237 15.2081 69.1012 14.7276C69.5613 14.7308 70.02 14.7824 70.4696 14.8812L70.5727 14.8997C70.2806 15.0801 69.9997 15.252 69.7267 15.4181C68.6857 16.0528 67.7865 16.5996 66.9385 17.2421C65.5068 18.3211 64.5277 19.773 64.4443 20.9399C64.4164 21.1726 64.44 21.4086 64.5132 21.6312C64.5865 21.8538 64.7076 22.0576 64.8683 22.2283C66.1115 23.4838 67.9572 23.6598 69.9314 22.7114L70.973 22.2119C74.2967 20.7178 77.5095 18.9869 80.5858 17.0328C82.3717 15.8349 83.3161 14.4198 83.3181 12.9398C83.3181 11.358 82.262 9.8091 80.2582 8.45967C77.1282 6.35216 73.7986 4.07657 69.4621 1.0817C68.5098 0.425366 67.0718 -0.568325 65.7407 0.872995C64.7496 1.94611 64.876 3.21289 66.1174 4.6378C66.9818 5.62887 67.9047 6.58648 68.8813 7.60118C69.2154 7.94773 69.5586 8.30405 69.9111 8.67423C69.8868 8.68604 69.8619 8.69635 69.8369 8.70507C69.3985 8.73461 68.9587 8.76283 68.519 8.76283H68.515C56.8283 8.76283 46.0025 12.9096 35.4151 21.4387C34.2104 22.4779 33.1248 23.6479 32.1787 24.9271C31.162 26.2168 31.174 27.6431 32.2116 28.7418C32.4648 29.0232 32.7738 29.2485 33.1193 29.4033C33.4647 29.558 33.8387 29.6388 34.2172 29.6403Z" fill="black"/>
</g>
<defs>
<clipPath id="clip0_6_2150">
<rect width="114.859" height="135.206" fill="white"/>
</clipPath>
</defs>
</svg>
