<svg width="115" height="136" viewBox="0 0 115 136" fill="none" xmlns="http://www.w3.org/2000/svg">
<g clip-path="url(#clip0_6_2147)">
<path d="M7.25458 102.244C8.29094 102.681 9.37908 103.023 10.4319 103.355C10.76 103.459 11.0882 103.562 11.4164 103.669C17.4929 105.562 23.1693 108.558 28.1616 112.506C36.2766 119.008 44.488 125.127 51.4491 130.254C53.3926 131.667 55.5921 132.689 57.9256 133.264C62.3186 134.365 66.8276 134.938 71.3563 134.97C81.0498 135.019 90.4774 131.805 98.1238 125.847C108.808 117.774 114.211 107.475 114.178 95.2248C114.179 90.3856 113.693 85.5589 112.728 80.8169C110.913 71.529 107.992 62.4913 104.03 53.8972C101.923 49.442 99.4739 46.0284 96.5427 43.4615C95.3055 42.3435 93.8444 41.5018 92.2574 40.9926C90.6697 40.4833 88.9915 40.3181 87.3349 40.5079C85.6553 40.7181 84.0401 41.2833 82.5961 42.166C81.1522 43.0487 79.9124 44.2286 78.9594 45.6273C78.7067 45.9844 78.4625 46.3493 78.1829 46.7654L77.9335 47.1349C74.3204 44.2103 70.6442 43.0899 66.7101 43.7049C62.9074 44.3008 61.2317 45.5427 57.486 50.6228C49.6302 46.543 45.6438 49.0633 41.9466 54.5805C41.3428 53.4378 40.758 52.316 40.1824 51.2121C38.7385 48.4391 37.3704 45.8197 35.8976 43.2278C32.5122 37.2683 29.182 31.453 25.6679 25.8269C23.6435 22.6239 20.8125 20.0097 17.4586 18.2463C13.7595 16.2812 10.496 16.9453 7.75839 20.2205C6.71737 21.4114 5.99052 22.8436 5.6439 24.3869C5.29727 25.9303 5.3419 27.5357 5.77369 29.0574C6.34798 31.2187 7.12765 33.3565 7.88112 35.4239C8.26836 36.4833 8.65436 37.5425 9.01534 38.6091C13.2697 51.1661 19.199 63.2119 24.9334 74.8606L25.882 76.7863C26.3651 77.7708 26.8081 78.7553 27.3207 79.8954C27.4913 80.2747 27.6679 80.6672 27.8536 81.0768L27.3331 80.9842C26.6689 80.868 26.1201 80.7722 25.5747 80.66C19.1669 79.3552 12.5052 80.3003 6.71363 83.3372C2.30437 85.5497 0.270912 88.5728 0.497348 92.5784C0.755947 97.2089 3.03043 100.461 7.25458 102.244ZM31.4253 91.5454C33.0334 93.3011 34.4996 93.769 35.912 92.9781C37.3848 92.1518 37.9559 90.7177 37.5641 88.8307C37.312 87.7143 36.9314 86.6314 36.4299 85.6029C34.7072 81.9182 32.971 78.2394 31.2212 74.5659C27.6875 67.1125 24.0331 59.4045 20.6169 51.7483C18.1983 46.3283 16.0651 40.6674 14.0023 35.1923C13.3704 33.5151 12.7361 31.8397 12.0989 30.166C11.5164 28.8871 11.2377 27.4907 11.285 26.0862C11.4502 24.7769 12.0875 23.573 13.0774 22.7002C13.4095 22.4475 14.9973 22.8681 15.9267 23.5698C17.5401 24.72 18.9574 26.1229 20.1241 27.7244C22.4218 31.0295 24.5217 34.4681 26.4124 38.0217C29.614 44.146 32.7788 50.4219 35.8393 56.491C37.3231 59.4336 38.8106 62.3742 40.3022 65.3128L40.4074 65.5216C40.7537 66.2987 41.211 67.0213 41.7652 67.6671C42.1191 68.12 42.5988 68.4587 43.1439 68.6405C43.6891 68.8229 44.2759 68.84 44.8309 68.691C45.3859 68.5414 45.8846 68.2316 46.2647 67.8004C46.6448 67.3692 46.8895 66.8362 46.9682 66.2665C47.0772 65.6686 47.1023 65.0586 47.0428 64.4538C47.0113 64.0426 47.0097 63.6298 47.0377 63.2185C47.0942 62.6212 47.1368 62.0174 47.1788 61.4143C47.2393 59.699 47.4763 57.9944 47.8857 56.3276C47.9781 55.7025 48.2492 55.1175 48.6664 54.643C49.0836 54.1684 49.6289 53.8247 50.237 53.6531C50.8451 53.4815 51.4899 53.4893 52.0936 53.6758C52.6973 53.8622 53.2344 54.2193 53.6399 54.7039C54.7335 55.8385 55.6557 57.1267 56.3774 58.5276C56.5789 58.8729 56.779 59.2175 56.9831 59.5549C57.2953 60.1248 57.5438 60.7274 57.7238 61.3518C57.8307 61.68 57.9381 62.003 58.0615 62.32C58.727 64.0265 60.0016 64.7077 61.647 64.2437C63.1297 63.8249 63.8293 62.6685 63.616 60.9942C63.53 60.3169 63.4193 59.6421 63.3077 58.968C63.2001 58.3117 63.0924 57.6619 63.0084 57.0056C62.9078 56.2443 62.8704 55.4759 62.8962 54.7084L62.9093 54.3554C62.9881 52.2223 63.0629 50.2072 65.2938 49.2805C68.0944 48.1155 70.7505 48.5356 72.776 50.462C73.7677 51.5057 74.6183 52.6751 75.3062 53.9405C75.528 54.308 75.7486 54.6743 75.975 55.0327C76.1968 55.4105 76.3878 55.8055 76.546 56.214C76.7751 56.8833 77.1347 57.5003 77.6047 58.0295C78.3988 58.8085 79.7883 59.4931 80.7459 59.289C81.7035 59.0849 82.6841 57.8845 83.0726 56.8435C83.3365 56.0163 83.4848 55.1563 83.5124 54.2883C83.5511 53.7954 83.5905 53.2862 83.6751 52.8064C83.8287 51.7194 84.0965 50.6516 84.4733 49.6205C85.1729 47.8858 86.311 46.7516 87.6854 46.4267C88.364 46.3025 89.063 46.3451 89.7213 46.5509C90.3803 46.7567 90.9789 47.1196 91.4659 47.6081C93.6646 49.5404 96.3805 52.1421 97.8658 55.1337C103.749 66.9753 107.153 79.0612 107.983 91.057C108.024 91.6517 108.012 92.2673 108.001 92.8626C107.995 93.1507 107.99 93.4382 107.99 93.7257V93.7395C108.759 112.689 88.4257 126.076 74.0893 126.967C63.1284 127.651 54.1037 124.639 46.5105 117.765C41.1404 112.905 35.3319 108.332 30.3581 104.501C25.3476 100.603 19.6452 97.688 13.5514 95.9093L13.394 95.8641C11.8381 95.4703 10.3242 94.9248 8.8743 94.2363C7.54915 93.5465 6.76686 92.6441 6.67169 91.695C6.58046 90.7814 7.10363 89.8363 8.18593 88.9627C9.69236 87.7228 11.4414 86.8118 13.3209 86.2881C15.2477 85.7683 17.2325 85.4946 19.228 85.4729C22.2161 85.425 25.1509 86.2684 27.6575 87.8961C28.8406 88.7533 29.9089 89.7588 30.8366 90.8877C31.0315 91.1089 31.2278 91.3281 31.4253 91.544V91.5454Z" fill="black"/>
<path d="M44.9403 14.7282C55.7123 15.0668 66.0644 18.9834 74.3632 25.8597C74.6835 26.1183 75.0011 26.3848 75.3181 26.6474C76.2009 27.3798 77.1132 28.1372 78.0813 28.7923C78.7961 29.3343 79.6559 29.6518 80.5511 29.7046C80.918 29.7014 81.281 29.6225 81.6163 29.4729C81.9511 29.3232 82.2523 29.1061 82.4998 28.8349C84.2719 27.0366 82.7538 25.0997 82.255 24.4631C81.5606 23.5542 80.7749 22.7185 79.9112 21.969C72.1329 15.3656 63.5388 11.1978 54.3691 9.58191C52.1598 9.1927 49.9538 9.00171 47.6173 8.79956C46.764 8.72539 45.9049 8.65122 45.0326 8.56524C45.335 8.24193 45.633 7.92486 45.9261 7.61414C46.9388 6.53778 47.8949 5.52181 48.8079 4.4638C49.8665 3.23776 49.9605 1.96379 49.0639 0.970752C47.7145 -0.52898 46.2299 0.49621 45.3425 1.10791C41.6874 3.63153 38.1105 6.09611 34.5485 8.48714C32.5191 9.85101 31.4454 11.4124 31.4447 13.0034C31.4447 14.4716 32.3732 15.8742 34.1354 17.0589C37.0818 18.9391 40.1591 20.606 43.3434 22.047L44.7871 22.744C45.888 23.1596 47.0766 23.2883 48.2409 23.1182C48.6134 23.1199 48.9804 23.0282 49.3084 22.8517C49.6364 22.6751 49.9148 22.4192 50.1186 22.1075C50.2728 21.7844 50.3437 21.4278 50.3243 21.0704C50.305 20.7129 50.1959 20.3661 50.0077 20.0617C49.4037 18.9447 48.5852 17.9579 47.599 17.158C46.7565 16.5039 45.8639 15.9173 44.9291 15.4036C44.6469 15.2376 44.3503 15.0629 44.0385 14.8785L44.1125 14.8628C44.3824 14.7867 44.6602 14.7415 44.9403 14.7282Z" fill="black"/>
</g>
<defs>
<clipPath id="clip0_6_2147">
<rect width="114.203" height="135.206" fill="white"/>
</clipPath>
</defs>
</svg>
