<svg width="174" height="143" viewBox="0 0 174 143" fill="none" xmlns="http://www.w3.org/2000/svg">
<g clip-path="url(#clip0_8_2682)">
<path d="M173.695 73.5416C173.695 71.7457 173.642 69.9146 173.589 68.1921C173.426 62.8544 173.261 57.5166 173.093 52.1784C172.855 44.5279 172.62 36.8766 172.386 29.2253L172.292 26.1181C172.093 19.607 171.888 12.8746 171.774 6.25369C171.806 5.2993 171.571 4.35513 171.096 3.52801C170.622 2.70088 169.926 2.02373 169.087 1.57356C167.739 0.871322 166.257 0.463063 164.74 0.375127C161.659 0.168427 158.513 0.100426 155.391 0.175176C139.858 0.545026 124.559 0.955341 109.918 1.38694C107.093 1.47079 104.241 1.78233 101.483 2.08328L101.289 2.10487C99.1935 2.33302 97.9852 3.59992 97.7963 5.75857C97.6605 7.29841 97.5163 8.83794 97.372 10.3771C96.9742 14.6249 96.5628 19.0181 96.3332 23.3556C95.8326 32.8144 95.4018 42.4344 94.9852 51.7378C94.7937 56.0322 94.5997 60.3271 94.403 64.6223C94.3798 64.9691 94.3383 65.3146 94.2801 65.6571C94.2724 65.7097 94.264 65.7617 94.2562 65.8157L78.2146 66.7042C78.1932 66.6393 78.1732 66.5827 78.1538 66.5275C78.0878 66.3675 78.0399 66.2011 78.0108 66.0308C77.7217 60.0075 77.4358 53.9843 77.1537 47.961C76.7954 40.3399 76.4325 32.7194 76.0658 25.0992C75.6945 17.4409 75.3542 11.0977 74.9914 5.13524C74.8251 2.39874 73.8626 1.25849 71.1789 0.618242C70.054 0.349701 68.9026 0.211171 67.7461 0.20501C66.3813 0.19786 65.0164 0.180015 63.6511 0.163115C59.6504 0.113715 55.5125 0.0639344 51.4446 0.260234C45.4471 0.549484 39.3538 0.90973 33.4624 1.25618C25.3471 1.73588 16.9551 2.23135 8.69884 2.5492C3.58877 2.7442 1.08105 5.08402 0.320366 10.3568C0.171591 11.2659 0.0876004 12.1849 0.0692728 13.106C0.0692728 16.0527 0.0600218 18.9991 0.041479 21.9457C0.0084902 29.3226 -0.0263987 36.9497 0.147601 44.452C0.282791 50.3078 0.543467 56.2546 0.794444 62.0064C1.10622 69.1287 1.42834 76.4933 1.51566 83.7343C1.65797 95.4486 1.55001 107.366 1.44586 118.89C1.40274 123.607 1.36538 128.322 1.3339 133.038C1.30738 137.645 2.47298 138.953 7.00088 139.399C7.41486 139.441 7.83136 139.453 8.24793 139.464C8.50666 139.472 8.76087 139.479 9.01637 139.494C10.6982 139.593 12.38 139.677 14.0618 139.76C17.7281 139.942 21.5185 140.13 25.2223 140.492C37.1125 141.654 49.2201 141.896 60.9337 142.129C64.5191 142.2 68.1045 142.271 71.6879 142.368C71.915 142.374 72.155 142.379 72.4027 142.379C72.8639 142.383 73.3251 142.357 73.7824 142.301C74.3911 142.261 74.9849 142.096 75.5282 141.819C76.0716 141.541 76.5528 141.156 76.9435 140.685C77.2682 140.219 77.4946 139.691 77.6091 139.134C77.7236 138.577 77.7236 138.002 77.6098 137.445C76.5535 130.204 76.95 122.811 77.3329 115.661C77.4565 113.356 77.5839 110.973 77.6615 108.628C77.7521 105.873 77.8789 103.071 78.0017 100.361C78.3633 92.3662 78.7372 84.106 78.2424 75.9395C78.2411 75.4961 78.2948 75.0541 78.4034 74.6245C78.4203 74.54 78.4371 74.4536 78.4539 74.3678L94.0673 73.6749C94.0841 73.7568 94.1003 73.8335 94.1158 73.9062C94.1812 74.1702 94.2245 74.4392 94.2452 74.7103C94.3409 77.8355 94.4289 80.9607 94.5078 84.0872C94.6766 90.4039 94.8513 96.9357 95.1275 103.358C95.5001 112.035 96.1249 121.062 96.6275 128.318C96.8047 130.788 97.1702 133.241 97.7194 135.654C98.4632 138.952 99.819 139.506 102.776 139.554C109.791 139.675 116.806 139.806 123.819 139.951C127.534 140.026 131.248 140.099 134.963 140.171C135.63 140.183 136.298 140.198 136.968 140.213C139.038 140.26 141.176 140.309 143.286 140.272C148.945 140.17 154.696 140.026 160.257 139.886L166.156 139.743C166.964 139.743 167.771 139.701 168.574 139.616C171.992 139.194 172.982 138.232 173.388 134.936C173.627 132.923 173.743 130.898 173.735 128.871C173.748 110.521 173.728 91.8644 173.71 73.8224L173.695 73.5416ZM117.851 73.0132C117.678 73.3557 117.468 73.6774 117.225 73.9745C116.191 75.1341 115.116 76.293 114.073 77.4137C113.397 78.1404 112.724 78.869 112.053 79.5996C110.048 81.7934 109.767 84.1788 111.319 85.824C111.642 86.1815 112.034 86.4682 112.471 86.6677C112.907 86.8673 113.38 86.9752 113.86 86.9843H113.914C115.184 86.9843 116.519 86.3206 117.778 85.0622C118.813 84.0287 119.777 82.9094 120.711 81.8271L120.933 81.5671C122.176 80.128 123.413 78.6837 124.645 77.2336C125.713 75.9817 126.783 74.7311 127.855 73.4831C129.189 71.9335 129.751 70.6316 129.623 69.3842C129.494 68.1531 128.71 67.0188 127.144 65.815C123.251 62.825 119.276 59.8049 115.432 56.887L112.864 54.937C110.907 53.4498 109.319 53.3776 108.146 54.7263C106.974 56.0751 107.124 57.9147 108.529 59.5416C109.454 60.563 110.448 61.5189 111.504 62.4019C111.739 62.6073 111.973 62.8128 112.205 63.0182L112.579 63.3432C113.197 63.8512 113.765 64.4168 114.276 65.0331L103.174 65.4647C102.569 59.4885 103.478 16.1604 104.354 9.6624L164.506 8.51346L164.537 8.70898C164.636 9.24022 164.698 9.77751 164.723 10.3175C165.054 27.3089 165.371 44.3008 165.676 61.2936C165.767 66.3714 165.854 71.4492 165.935 76.5264C166.055 83.8896 166.185 91.2522 166.323 98.6141C166.407 102.904 166.527 107.269 166.643 111.488C166.744 115.193 166.845 118.893 166.925 122.596C166.973 124.771 166.961 126.934 166.949 129.223C166.944 130.072 166.939 130.933 166.938 131.811H104.932L102.573 73.6521C107.649 73.1236 112.753 72.9105 117.854 73.0132H117.851ZM9.70273 103.923L9.68786 99.9771C9.65875 91.6499 9.62899 83.0387 9.33727 74.5738C9.13481 68.714 8.81456 62.764 8.50537 57.0096C7.95297 46.7396 7.38187 36.1252 7.46337 25.6673C7.49054 22.1255 7.53776 18.5822 7.58627 14.9227L7.64455 10.3784C16.5949 10.4213 25.5904 9.98395 34.2943 9.5621C45.4284 9.02455 56.9337 8.46796 68.2817 8.92101L69.2519 66.7465C68.3897 66.8037 67.5359 66.8635 66.6898 66.9252C64.3614 67.0923 62.1621 67.2502 59.9331 67.3152C57.1019 67.3971 54.2189 67.4309 51.431 67.4634C48.9963 67.4921 46.4794 67.5213 44.002 67.5824C42.6078 67.5752 41.222 67.7982 39.8992 68.2409C39.4261 68.4742 39.0159 68.8187 38.7036 69.2451C38.3913 69.6715 38.1861 70.1674 38.1054 70.6907C38 71.6163 39.0627 72.746 39.8027 73.0275C41.01 73.4675 42.2803 73.7093 43.5642 73.7424C50.129 73.9654 56.8036 74.1403 63.2585 74.3086L65.7939 74.3736C66.684 74.397 67.5637 74.3912 68.5812 74.3853L69.5773 74.3801C69.6012 74.7051 69.6265 75.0203 69.651 75.333C69.7351 76.3847 69.814 77.3773 69.814 78.3607C69.814 84.5273 69.8095 90.6932 69.7998 96.8591C69.7882 105.691 69.7856 114.525 69.7921 123.358C69.7972 125.932 69.9059 128.474 70.021 131.165C70.065 132.198 70.1096 133.245 70.1504 134.313C49.5357 134.447 28.9423 133.066 9.58113 131.637V131.15C9.58113 130.389 9.58113 129.655 9.58113 128.918C9.59536 126.318 9.61386 123.717 9.63669 121.114C9.67938 115.478 9.72537 109.655 9.70273 103.923Z" fill="black"/>
</g>
<defs>
<clipPath id="clip0_8_2682">
<rect width="174" height="143" fill="white"/>
</clipPath>
</defs>
</svg>
