<svg width="161" height="145" viewBox="0 0 161 145" fill="none" xmlns="http://www.w3.org/2000/svg">
<g clip-path="url(#clip0_8_2684)">
<path d="M114.443 1.45875C114.331 1.56552 114.259 1.70783 114.241 1.86143C114.222 2.01503 114.259 2.17018 114.343 2.30015C121.867 14.0167 131.942 24.3131 146.001 34.6469C144.034 34.6508 142.066 34.6677 140.099 34.6846C135.258 34.7253 130.252 34.7672 125.341 34.6137C91.2676 33.5508 55.3997 34.9647 12.4614 39.0622C10.778 39.2003 9.10249 39.4251 7.44224 39.7354C5.38625 40.1491 4.13129 41.6204 4.30722 43.3927C4.49094 45.18 5.63962 46.2799 7.54241 46.4896C7.92089 46.5311 8.29937 46.5783 8.6785 46.6249C9.86445 46.7978 11.0601 46.8936 12.2585 46.9116C19.2887 46.8676 26.4676 46.7763 33.5964 46.6404C60.6632 46.1225 84.7523 45.6449 107.235 45.1827C112.686 45.0701 118.136 44.9395 123.586 44.7911C127.683 44.6862 131.781 44.5853 135.878 44.4882C137.427 44.4533 138.994 44.4614 140.65 44.4712C141.087 44.4712 141.531 44.4765 141.985 44.4778L141.967 44.5057C141.608 45.1077 141.287 45.6447 140.971 46.184L136.637 53.5637C131.444 62.4087 126.073 71.5548 120.849 80.5855C120.087 81.9313 119.669 83.4448 119.635 84.9906C119.61 85.7058 119.783 86.414 120.135 87.0374C120.487 87.6614 121.005 88.176 121.63 88.5262C122.304 88.8648 123.058 89.0098 123.809 88.9444C124.56 88.879 125.278 88.6065 125.882 88.1566C126.753 87.5222 127.502 86.7383 128.096 85.8411C129.518 83.8118 130.969 81.6336 132.532 79.1789C134.216 76.5352 135.878 73.8786 137.541 71.222C143.41 61.8441 149.479 52.1466 156.408 43.2634C157.445 41.9334 158.412 40.5507 159.306 39.1207C160.091 37.9544 160.53 36.5916 160.574 35.188C160.547 34.2842 160.326 33.3966 159.926 32.5852C159.525 31.7738 158.954 31.0575 158.253 30.4845C157.041 29.4287 155.759 28.4574 154.414 27.577C153.801 27.1556 153.187 26.7355 152.59 26.2959C151.18 25.2602 149.767 24.2296 148.352 23.2047C144.81 20.6277 141.146 17.9615 137.615 15.2576C136.281 14.2355 134.994 13.086 133.75 11.9739C132.469 10.8301 131.145 9.64792 129.75 8.58372C126.249 5.91287 122.557 3.43382 119.372 1.32031C118.599 0.806989 116.547 -0.556358 114.443 1.45875Z" fill="black"/>
<path d="M39.079 69.9356L39.5076 69.5764C40.3892 68.8339 41.7233 67.7114 40.6969 65.552C40.6531 65.4594 40.5884 65.3785 40.508 65.315C40.4276 65.2516 40.3331 65.2076 40.2328 65.1862C40.055 65.1487 39.8671 65.0988 39.6717 65.0477C39.1351 64.8872 38.5823 64.7862 38.0234 64.7461C35.1523 64.6268 32.3444 65.6076 30.1761 67.4881L30.0746 67.5736C26.7546 70.3888 23.323 73.2991 20.4464 76.6361C19.2778 77.9954 18.1158 79.3645 16.957 80.7336C12.832 85.6112 8.56595 90.6551 3.76578 95.0504C2.82445 95.9172 2.00114 96.9024 1.3161 97.9815C-0.529564 100.899 -0.132516 103.763 2.46296 106.267L3.54389 107.307C5.69532 109.378 7.9213 111.514 9.95847 113.743C12.5312 116.555 15.1107 119.45 17.6043 122.25C20.5497 125.555 23.5941 128.973 26.6518 132.283C29.6446 135.52 32.9012 138.597 36.0498 141.573L36.3884 141.893C37.4971 142.909 38.7533 143.754 40.1143 144.396C41.464 145.057 42.8752 144.549 43.7965 143.073C44.8761 141.343 43.5337 140.11 43.0299 139.646C42.6781 139.323 42.323 139.001 41.9655 138.682C40.6799 137.576 39.4711 136.384 38.3461 135.116C31.54 127.056 24.6815 118.808 18.0487 110.831L15.7588 108.076C15.6481 107.929 15.5583 107.767 15.4919 107.595L19.9905 107.843C23.8532 108.057 27.6098 108.265 31.366 108.467C34.5133 108.636 37.6605 108.814 40.8078 109.001C48.0684 109.422 55.5761 109.857 62.9711 110.117C74.9709 110.54 86.9693 110.746 100.286 110.952C117.966 111.226 132.364 111.369 145.6 111.4C147.898 111.353 150.159 110.815 152.231 109.824C152.791 109.588 153.28 109.213 153.652 108.734C154.025 108.255 154.267 107.69 154.356 107.091C154.376 106.948 154.385 106.803 154.385 106.659C154.371 106.099 154.236 105.549 153.986 105.047C153.737 104.545 153.381 104.104 152.942 103.754C151.592 102.607 149.961 101.84 148.214 101.531C145.103 101.129 141.968 100.941 138.831 100.968C125.594 100.878 112.356 100.801 99.1183 100.736C85.7047 100.664 72.2917 100.586 58.8788 100.501C50.1367 100.441 41.2477 100.331 32.6511 100.223C28.2916 100.169 23.9323 100.117 19.5728 100.066C18.5146 100.055 17.4554 100.057 16.2894 100.061H16.0256C23.3996 92.0611 29.8659 83.275 35.3068 73.861C36.1702 72.3689 37.6495 71.1319 39.079 69.9356Z" fill="black"/>
</g>
<defs>
<clipPath id="clip0_8_2684">
<rect width="161" height="145" fill="white"/>
</clipPath>
</defs>
</svg>
