<svg width="178" height="151" viewBox="0 0 178 151" fill="none" xmlns="http://www.w3.org/2000/svg">
<g clip-path="url(#clip0_8_2687)">
<path d="M149.846 103.636C148.081 103.225 145.725 103.451 144.529 106.835C142.827 111.644 139.752 115.536 136.969 118.709C129.044 127.745 118.703 134.093 106.241 137.576C96.8255 140.207 85.629 142.551 73.9752 139.977C56.5956 136.137 42.4505 126.557 31.9342 111.499C27.2621 104.808 24.5803 98.4163 23.7358 91.9506C22.2356 80.9426 22.7382 69.7536 25.219 58.9252C25.8414 56.2632 26.6744 53.5879 27.5644 50.7319C27.6974 50.3071 27.8315 49.8765 27.9666 49.44C28.5604 50.5601 29.071 51.4998 29.6452 52.4416L29.7918 52.6794C30.8912 54.5713 32.1166 56.3867 33.4606 58.1129C35.34 60.4195 38.0385 61.116 40.1777 59.8468C41.8668 58.8432 43.1906 56.448 41.3476 53.0003C39.2622 49.1023 36.4706 43.9922 33.3699 39.0294C31.0682 35.3442 28.1895 34.3466 24.0371 35.7973C17.034 38.2446 10.3183 40.874 4.67238 43.1208C3.07033 43.7529 1.69163 44.8481 0.712393 46.267C-0.118488 47.5688 0.0473715 49.7167 0.676871 50.9534C1.52529 52.6274 3.35904 53.0919 5.58339 52.197C9.94571 50.4396 14.3779 48.7847 18.9117 47.1042C19.5847 46.8542 20.3063 46.6486 21.03 46.4533C17.0893 55.5888 14.9115 65.892 14.3801 77.8952C13.7487 92.1361 15.9059 102.696 21.3719 112.134C30.8235 128.45 44.8709 140.213 63.125 147.096C68.5677 149.134 74.2903 150.324 80.0928 150.628C81.5688 150.71 83.0701 150.751 84.5552 150.751C93.1232 150.706 101.639 149.416 109.838 146.922C123.75 142.821 134.834 136.141 143.723 126.489C148.054 121.787 150.804 117.339 152.372 112.489C152.829 111.221 153.102 109.894 153.185 108.549C153.271 105.143 151.418 103.997 149.846 103.636Z" fill="black"/>
<path d="M177.015 69.6636C176.095 68.453 174.499 67.9323 172.636 68.2349C170.605 68.5604 168.689 69.8738 167.439 70.9165C165.333 72.6738 163.32 74.5665 161.19 76.5679L161.118 76.6337C160.963 76.7788 160.807 76.9233 160.651 77.0704C161.471 70.0606 161.403 62.9755 160.449 55.9828C158.535 41.5989 151.771 28.3021 141.28 18.2977C130.806 8.35446 117.251 2.27283 102.08 0.708808C86.4683 -0.89752 70.818 1.70918 55.5666 8.46511C50.7593 10.596 45.2102 13.378 40.538 17.8559C39.2748 19.1485 38.2727 20.6734 37.5868 22.3468C37.0873 23.4826 37.7346 25.7965 38.9793 26.368C39.6102 26.5925 40.2827 26.6758 40.9491 26.6124C41.6157 26.5489 42.2604 26.3404 42.8378 26.0009C43.5785 25.5452 44.271 25.0154 44.9054 24.4198C45.3438 24.014 45.8104 23.6394 46.301 23.2989C65.53 10.7223 86.0454 6.45397 107.274 10.6071C120.276 13.1539 130.886 19.4434 138.81 29.2994C147.949 40.666 152.181 54.1844 151.391 69.4787C151.195 72.2859 150.853 75.0814 150.367 77.8527C150.267 78.4906 150.168 79.1284 150.07 79.7669C149.272 78.8765 148.453 77.9569 147.681 77.0196C146.009 74.9889 144.347 72.9498 142.693 70.9015L142.592 70.7779C141.411 69.3206 140.23 67.8633 139.023 66.3865C138.503 65.7076 137.916 65.0819 137.272 64.5194C135.557 63.1044 133.565 63.0029 131.945 64.2473C131.188 64.8024 130.661 65.6185 130.467 66.5388C130.273 67.4591 130.425 68.4185 130.893 69.2334C131.532 70.4915 132.281 71.6897 133.134 72.8131C137.969 79.0438 142.718 85.0767 146.725 90.156C148.414 92.296 150.003 93.2508 151.879 93.2508C153.185 93.1942 154.46 92.8356 155.604 92.2023C162.791 88.549 169.305 83.6975 174.868 77.856C175.835 76.8758 176.629 75.7381 177.216 74.4923C178.044 72.6797 177.97 70.9165 177.015 69.6636Z" fill="black"/>
</g>
<defs>
<clipPath id="clip0_8_2687">
<rect width="178" height="151" fill="white"/>
</clipPath>
</defs>
</svg>
