<svg width="137" height="170" viewBox="0 0 137 170" fill="none" xmlns="http://www.w3.org/2000/svg">
<g clip-path="url(#clip0_8_2690)">
<path d="M1.18789 89.0914C1.06518 73.1224 0.863229 57.1527 0.854139 41.1837C0.850243 33.4176 1.14437 25.6389 2.72929 17.9954C3.96293 12.0337 6.9016 7.08742 12.3485 4.07222C14.3238 2.98159 16.4915 2.28318 18.7323 2.0154C28.3953 0.894481 38.1208 0.399856 47.8477 0.534249C65.7785 0.87425 83.7119 0.622926 101.642 0.232316C108.024 0.148267 114.385 0.985528 120.527 2.71811C121.255 2.91277 121.982 3.12371 122.691 3.37806C130.58 6.20188 134.731 11.1577 134.81 19.4695C134.835 22.0474 135.015 24.6234 135.122 27.2007C135.55 37.5454 136.196 47.8868 136.359 58.2361C136.693 79.2775 136.964 100.324 136.851 121.37C136.805 129.974 135.818 138.583 135.027 147.169C134.556 152.285 132.536 156.958 129.82 161.307C128.938 162.715 127.74 163.899 126.321 164.765C124.903 165.632 123.302 166.156 121.646 166.297C118.634 166.557 115.632 166.974 112.616 167.126C101.501 167.686 90.3625 167.905 79.2694 168.732C61.0108 170.094 42.756 168.899 24.5019 169.056C20.2107 169.094 15.8741 168.64 11.8713 166.656C9.17191 165.282 6.90108 163.195 5.30567 160.621C1.52551 154.888 0.207457 148.534 0.290566 141.851C0.428864 130.737 0.810007 119.626 0.988561 108.512C1.0931 102.04 1.00738 95.565 1.00738 89.0914H1.18789ZM126.536 136.652C126.796 132.616 127.273 128.76 127.255 124.908C127.125 97.2722 127.001 69.6355 126.619 42.003C126.577 34.9812 125.747 27.9866 124.146 21.1497C123.631 18.9332 122.441 16.9309 120.74 15.4196C118.688 13.4588 116.044 12.2331 113.221 11.9345C105.586 11.2208 97.9456 10.4368 90.2892 10.1293C84.1475 9.88269 77.9793 10.328 71.8221 10.4046C60.2537 10.548 48.6808 10.5169 37.117 10.8218C31.7279 10.9633 26.3387 11.6075 20.9788 12.2317C16.7266 12.7267 14.3256 15.5279 13.1497 19.449C12.7373 20.7913 12.4759 22.1753 12.3706 23.5755C11.8784 30.8972 11.1402 38.2217 11.0973 45.5486C11.0291 57.2026 11.6297 68.8595 11.6077 80.5148C11.5758 97.3546 11.2376 114.19 11.0363 131.033C11.0136 132.944 11.0363 134.856 11.0363 137.052C14.8671 137.188 18.4161 137.462 21.958 137.412C36.0118 137.213 50.0637 136.772 64.1176 136.684C84.7656 136.558 105.414 136.654 126.536 136.654V136.652ZM125.483 144.278C120.938 144.166 116.638 144.007 112.335 143.964C99.5772 143.837 86.8194 143.737 74.0602 143.665C63.4645 143.612 52.868 143.714 42.2742 143.6C33.7413 143.508 25.2103 143.215 16.6799 142.961C14.7846 142.905 12.8959 142.637 10.8156 142.45C10.4659 145.653 10.747 148.893 11.6427 151.988C12.9835 156.31 15.6923 158.943 20.5081 159.085C30.6643 159.385 40.8173 159.777 50.9702 160.16C54.3173 160.287 57.6578 160.59 61.0056 160.659C65.5415 160.752 70.0787 160.761 74.6173 160.685C78.3968 160.615 82.1756 160.159 85.9493 160.217C96.56 160.379 107.108 160.015 117.485 157.525C119.595 157.019 121.72 156.632 122.934 154.475C124.651 151.354 125.529 147.841 125.483 144.28V144.278Z" fill="black"/>
<path d="M72.7288 151.428C72.4224 153.338 71.5958 155.164 69.5713 156.177C68.7032 156.637 67.717 156.828 66.7398 156.727C65.762 156.626 64.8363 156.236 64.0806 155.608C62.3327 154.294 61.938 152.437 62.384 150.382C62.5387 149.527 62.9703 148.747 63.6124 148.161C64.2544 147.576 65.0711 147.219 65.9366 147.143C66.6807 147.043 67.43 146.953 68.1773 146.904C70.8193 146.733 72.7782 148.594 72.7288 151.428Z" fill="black"/>
</g>
<defs>
<clipPath id="clip0_8_2690">
<rect width="137" height="170" fill="white"/>
</clipPath>
</defs>
</svg>
