<svg width="154" height="155" viewBox="0 0 154 155" fill="none" xmlns="http://www.w3.org/2000/svg">
<g clip-path="url(#clip0_6_2241)">
<path d="M53.0684 153.858C50.7143 153.721 48.4884 152.741 46.7992 151.095C42.3295 146.672 37.7488 142.361 33.2312 137.986C27.3425 132.283 21.3389 126.691 15.6341 120.81C11.2694 116.31 7.27513 111.449 3.15725 106.713C2.54983 105.906 2.00469 105.054 1.52634 104.164C-0.220832 101.39 -0.184789 98.6291 1.74747 95.9919C5.06328 91.4632 8.12043 86.6955 11.855 82.5409C25.744 67.0953 39.7702 51.7752 53.934 36.581C63.2789 26.5646 72.9589 16.8599 82.5027 7.02932C83.5968 5.90237 84.7441 4.81876 85.936 3.79552C90.0551 0.261142 95.0538 -0.536202 99.6593 2.28015C103.945 4.9055 108.263 7.72773 111.836 11.2109C123.816 22.8885 135.493 34.8784 147.222 46.8113C148.935 48.5927 150.472 50.5347 151.813 52.6107C153.873 55.7362 153.716 57.7085 151.203 60.5058C146.173 66.099 141.129 71.6844 135.935 77.1242C117.241 96.7008 98.3768 116.111 78.5804 134.589C73.0015 139.797 67.4318 145.016 61.778 150.14C59.6265 152.09 57.3773 154.056 53.0684 153.858ZM93.1373 6.34348C91.8844 7.66137 91.1217 8.47267 90.3492 9.27406C73.2844 26.9663 56.1256 44.5693 39.1908 62.3843C30.6125 71.4088 22.3887 80.7714 14.107 90.0744C11.4469 93.0633 9.11891 96.3496 6.61105 99.5388C7.25859 100.571 7.97013 101.562 8.74191 102.505C12.424 106.43 16.0472 110.422 19.9044 114.171C26.7435 120.819 33.7208 127.325 40.6714 133.857C45.4626 138.362 50.3113 142.81 55.155 147.304C86.2353 118.741 114.984 88.1959 144.553 57.9671C142.211 55.387 140.09 52.9488 137.859 50.6161C129.561 41.9354 121.243 33.2741 112.905 24.6323C108.547 20.1108 104.241 15.5315 99.7276 11.1721C97.8314 9.33897 95.4502 8.00989 93.1373 6.34348Z" fill="black"/>
<path d="M35.9672 119.938C33.8341 120.106 32.6298 118.601 33.189 116.984C33.6198 115.836 34.2831 114.788 35.1372 113.906C41.3796 107.291 47.542 100.593 53.9918 94.1813C71.913 76.3624 89.9059 58.6161 107.972 40.9426C108.971 39.8872 110.139 39.0052 111.427 38.3325C111.864 38.188 112.329 38.1533 112.781 38.2317C113.234 38.3101 113.661 38.4991 114.023 38.7819C114.509 39.328 114.554 40.6855 114.224 41.4423C113.657 42.5365 112.895 43.5177 111.976 44.3379C102.18 54.0819 92.3225 63.7656 82.549 73.5283C68.1706 87.8949 53.8188 102.288 39.4931 116.708C38.25 117.951 36.8966 119.091 35.9672 119.938Z" fill="black"/>
<path d="M70.1927 100.888C69.6355 94.0369 78.3543 87.6304 84.7713 91.831C87.6776 93.7343 90.0161 95.683 91.5795 98.9024C94.6282 105.18 90.1657 111.74 83.6641 112.498C78.0307 113.153 70.0037 108.165 70.1927 100.888ZM76.9793 99.9696C76.8907 102.546 80.1133 105.389 82.6238 104.857C83.263 104.693 83.836 104.336 84.2646 103.834C85.3725 102.533 83.9483 96.7023 82.3927 95.9711C82.0829 95.8458 81.7515 95.7828 81.4168 95.7847C79.3099 95.7125 77.0541 97.8542 76.9793 99.9722V99.9696Z" fill="black"/>
<path d="M63.2712 131.841C57.7802 131.892 51.5496 126.586 50.7876 121.497C50.4491 119.373 50.8729 117.198 51.9839 115.356C53.0949 113.515 54.8214 112.126 56.8581 111.435C64.173 108.849 71.18 113.995 73.2008 119.553C74.9789 124.437 70.6582 130.638 64.9463 131.665C64.2867 131.784 63.6098 131.807 63.2712 131.841ZM66.5009 121.757C66.5495 120.046 63.432 116.267 61.8732 116.15C59.8977 116.001 57.5885 117.892 57.6515 119.605C57.7244 121.582 61.0831 124.774 63.1269 124.809C64.7684 124.836 66.455 123.311 66.4996 121.757H66.5009Z" fill="black"/>
<path d="M110.382 82.4224C110.407 83.8834 110.113 85.332 109.521 86.6683C108.929 88.0039 108.053 89.1945 106.954 90.1574C105.855 91.1195 104.559 91.831 103.157 92.2419C101.754 92.6521 100.279 92.7525 98.8346 92.5346C96.5329 92.2898 94.3473 91.4011 92.5279 89.9703C90.7079 88.5395 89.3289 86.6256 88.5479 84.4466C88.0464 83.1916 87.8561 81.8337 87.9933 80.4895C88.1304 79.1447 88.5905 77.853 89.3355 76.7254C92.2424 71.8646 100.887 68.0099 106.512 74.2628C109.396 77.4717 110.35 78.8027 110.382 82.4224ZM103.701 81.4563C103.72 78.2127 102.651 76.3775 100.743 76.3749C97.9118 76.3749 94.6886 78.9714 94.7522 81.2062C94.8087 83.2094 97.6401 85.6765 99.9255 85.7172C102.064 85.7546 103.688 83.9228 103.701 81.4563Z" fill="black"/>
<path d="M120.179 71.0678C116.562 70.7416 113.184 69.1231 110.663 66.5089C107.705 63.5554 107.315 59.662 109.385 56.0206C111.546 52.2231 117.25 49.3575 121.351 50.0092C125.772 50.7115 130.614 55.0979 131.561 59.2591C132.998 65.5553 128.143 71.0888 120.179 71.0678ZM120.159 64.8233C123.396 64.7281 124.605 62.8714 123.788 60.4056C122.935 57.8321 120.694 56.7032 118.646 55.3643C117.416 54.5603 116.4 54.8772 115.333 55.7921C112.49 58.2324 112.595 61.27 115.844 63.1649C117.227 63.8536 118.672 64.4088 120.159 64.8233Z" fill="black"/>
<path d="M102.167 36.0939C102.298 38.6478 100.925 40.6602 98.9764 42.2978C95.887 44.8943 92.3559 46.163 88.3812 44.7787C84.1189 43.2948 81.0472 40.4174 79.9308 35.9451C79.6099 34.6272 79.6223 33.2498 79.9682 31.9382C80.3148 30.6265 80.9823 29.422 81.9116 28.4339C84.111 25.835 87.2411 24.2008 90.6311 23.8815C91.8525 23.7654 93.0845 23.9177 94.2409 24.3278C97.734 25.5702 102.206 32.2465 102.167 36.0939ZM91.4975 38.5921C93.9325 38.6046 95.9743 36.7189 95.9021 34.5228C95.8148 31.8869 94.2048 29.4637 92.478 29.3686C90.0266 29.2373 86.0945 32.0128 86.0558 33.907C86.019 35.7336 89.3276 38.5809 91.4975 38.5928V38.5921Z" fill="black"/>
<path d="M70.9863 64.235C65.2938 64.304 60.2879 59.6958 60.4034 54.2456C60.5248 48.3668 65.9469 44.5673 72.2255 44.0146C76.7732 43.6143 81.2173 49.9473 81.6183 55.131C81.98 59.77 76.6971 64.1655 70.9863 64.235ZM72.8798 49.3178C71.8934 49.281 70.9102 49.4599 69.9992 49.8418C69.0888 50.2236 68.2724 50.7994 67.6068 51.5291C65.8019 53.3812 66.3939 56.1536 68.8801 56.8277C70.2597 57.0867 71.686 56.8868 72.9409 56.2587C74.2536 55.6398 74.5069 54.1892 74.0166 52.7459C73.6281 51.6052 73.2572 50.4579 72.8798 49.3178Z" fill="black"/>
<path d="M52.0274 86.6688C47.5269 86.6209 42.6751 83.0379 41.2974 78.8151C40.8192 77.4893 40.7114 76.0578 40.9856 74.6749C41.2598 73.292 41.9056 72.0102 42.8537 70.9672C43.9796 69.5574 45.4351 68.4462 47.092 67.7321C48.7489 67.0181 50.5562 66.7234 52.3542 66.873C57.1094 67.1598 62.2452 72.8457 62.1035 77.6035C61.9453 82.9244 57.7158 86.7292 52.0274 86.6688ZM56.1012 75.8963C56.1465 73.3872 55.0472 72.3311 52.3673 72.3088C49.4795 72.2852 46.8154 74.1813 46.8962 76.2074C46.969 78.0222 49.8372 80.5622 51.8364 80.5819C54.2084 80.6049 56.0514 78.5781 56.1012 75.8963Z" fill="black"/>
<path d="M40.9154 96.5173C40.8537 101.889 35.6399 105.529 30.2173 103.822C28.4343 103.293 26.8063 102.34 25.4732 101.044C24.14 99.7472 23.1415 98.1463 22.5636 96.3788C22.2298 95.4239 22.0919 94.4118 22.1579 93.4017C22.2238 92.3922 22.4921 91.4064 22.9472 90.5033C23.4023 89.5995 24.0347 88.7968 24.8066 88.1431C25.5785 87.4887 26.4742 86.9971 27.4403 86.6965C28.9879 86.1879 30.6345 86.054 32.2439 86.3067C33.8534 86.56 35.3794 87.1921 36.696 88.1516C38.0126 89.1112 39.0821 90.3707 39.8159 91.8252C40.5495 93.2803 40.9263 94.8883 40.9154 96.5173ZM34.4309 95.6129C34.4762 93.743 32.612 91.1006 31.2501 91.1032C29.3632 91.1065 27.8466 92.2249 27.8374 93.6183C27.8275 95.3904 30.1504 97.7473 32.0314 97.8687C32.3395 97.8884 32.6481 97.8444 32.9384 97.7394C33.2287 97.6351 33.4945 97.4716 33.7194 97.2603C33.9443 97.049 34.1233 96.7936 34.2457 96.5108C34.368 96.2272 34.4311 95.922 34.4309 95.6129Z" fill="black"/>
</g>
<defs>
<clipPath id="clip0_6_2241">
<rect width="153.583" height="154.239" fill="white"/>
</clipPath>
</defs>
</svg>
