<svg width="151" height="134" viewBox="0 0 151 134" fill="none" xmlns="http://www.w3.org/2000/svg">
<path d="M123.491 12.8458C127.402 12.8458 131.312 12.8212 135.221 12.8586C136.561 12.7944 137.903 12.9024 139.215 13.1797C139.761 13.3189 140.272 13.5677 140.718 13.9114C141.165 14.255 141.536 14.6861 141.81 15.1783C142.084 15.6703 142.255 16.2132 142.312 16.7736C142.369 17.3339 142.311 17.8997 142.142 18.4369C140.038 26.4494 137.875 34.4517 135.898 42.4938C133.999 50.2182 132.372 58.0096 130.45 65.7278C130.01 67.2217 129.179 68.5698 128.043 69.635C126.01 71.5706 123.839 73.3551 121.545 74.9737C102.187 88.8093 82.8109 102.618 63.4152 116.4C57.8396 120.375 52.3421 124.46 46.7265 128.377C44.4147 129.964 41.9996 131.396 39.4975 132.663C35.9454 134.49 33.7651 133.955 31.3321 130.756C29.6341 128.525 28.0011 126.233 26.5 123.865C18.5098 111.263 10.5477 98.6432 2.61388 86.0047C2.43167 85.7219 2.26589 85.4285 2.11714 85.1266C-1.09367 78.4319 0.203264 76.4032 3.97655 73.279C16.3426 63.0403 28.6063 52.6703 41.2172 42.7412C52.9466 33.5066 65.0993 24.8107 77.0004 15.7914C80.265 13.3176 83.6871 11.9681 87.8726 12.1158C94.7182 12.3514 101.576 12.1775 108.427 12.3061C110.371 12.3422 111.736 11.9289 112.99 10.2624C117.735 3.95635 124.317 0.775526 132.056 0.316748C136.044 0.0804666 140.092 0.631142 144.094 1.01379C145.313 1.21189 146.471 1.67823 147.487 2.37902C148.368 2.84871 149.058 3.61016 149.438 4.53295C149.819 5.45573 149.866 6.48248 149.573 7.4365C149.28 8.39049 148.663 9.21249 147.829 9.76151C146.996 10.3106 145.997 10.5523 145.004 10.4454C143.672 10.3023 142.36 10.0122 141.091 9.5805C134.856 7.81823 128.959 8.36666 123.453 11.7914C123.465 12.1415 123.478 12.4931 123.491 12.8458ZM7.4938 81.14C17.3211 96.0106 27.6309 109.836 37.9787 123.883C39.4122 122.928 40.5384 122.226 41.6168 121.454C58.7249 109.122 75.8964 96.8744 92.9028 84.4026C102.218 77.5714 111.28 70.3951 120.375 63.2681C121.465 62.3432 122.25 61.1101 122.626 59.731C125.846 47.7246 128.937 35.6837 132.056 23.6504C132.244 22.9225 132.353 22.1742 132.595 20.9449L116.205 20.337C115.808 22.1091 115.502 23.4756 115.213 24.7653C116.312 25.5326 117.182 26.0459 117.947 26.6898C121.117 29.3676 122.108 33.2577 120.441 37.0034C119.691 38.7701 118.541 40.339 117.082 41.5872C115.624 42.8353 113.896 43.7286 112.035 44.1975C105.634 45.9138 100.311 41.5881 100.357 34.9866C100.384 31.3059 101.885 28.368 104.867 26.4337C107.286 24.8638 107.874 22.8377 107.59 20.253C107.399 20.133 107.189 20.0467 106.969 19.9973C100.461 19.8043 93.9542 19.5738 87.4453 19.4996C86.3433 19.5528 85.2834 19.9384 84.4045 20.6055C63.9855 35.6435 43.383 50.4461 23.9646 66.7905C18.4763 71.4032 13.1468 76.203 7.4938 81.14ZM106.907 31.1556C106.734 32.3249 106.633 33.5037 106.604 34.6854C106.67 36.3263 107.487 37.4053 109.286 37.4066C110.802 37.4066 113.203 35.6758 113.291 34.3874C113.407 32.6875 112.002 32.1722 110.766 31.7771C109.497 31.4753 108.207 31.2676 106.907 31.1556Z" fill="black"/>
</svg>
