<svg width="167" height="165" viewBox="0 0 167 165" fill="none" xmlns="http://www.w3.org/2000/svg">
<path d="M165.816 33.0442C165.605 27.9359 165.1 22.7639 164.611 17.7626C164.369 15.2928 164.119 12.7383 163.908 10.2272C163.383 3.96438 160.48 0.798162 155.033 0.548096H155.003L147.52 0.5513C146.922 0.61037 146.326 0.677599 145.729 0.744545C144.476 0.883689 143.18 1.02843 141.911 1.09932C138.036 1.31372 134.161 1.51986 130.285 1.7172C121.644 2.16613 112.708 2.63079 103.927 3.24972C101.9 3.39215 98.1441 3.92951 95.7642 5.92346L92.384 8.75105C83.3102 16.3337 73.9278 24.1751 65.3887 32.6071C52.0709 45.7601 38.8136 59.4163 25.9927 72.6226C20.574 78.2047 15.1482 83.7796 9.71546 89.3474C9.56778 89.4983 9.42601 89.6624 9.2849 89.8271C9.05735 90.135 8.77532 90.3988 8.45273 90.6056C5.02139 92.2943 3.37398 95.3844 1.78039 98.3733L1.42466 99.0382C0.55199 100.517 0.1609 102.23 0.305549 103.941C0.450198 105.651 1.12341 107.275 2.23194 108.586C14.5619 124.496 26.8524 139.857 41.624 152.904C46.1153 156.869 51.3595 160 55.8974 162.54C57.3156 163.427 58.9384 163.934 60.6092 164.01C62.9195 164.01 64.8098 162.723 66.9608 160.632C68.7893 158.852 70.61 157.062 72.4215 155.263C76.4449 151.289 80.6054 147.179 84.8375 143.299C94.8138 134.149 105.003 124.891 114.856 115.939C123.874 107.745 133.199 99.2719 142.339 90.9029C147.649 86.0407 152.913 80.9561 158.003 76.0381C159.45 74.6415 160.897 73.2454 162.346 71.8494C165.064 69.2359 166.357 66.3493 166.298 63.0242C166.233 59.5049 166.209 55.9226 166.182 52.4571C166.135 46.0939 166.084 39.5105 165.816 33.0442ZM157.415 59.5025C157.472 60.6392 157.269 61.7737 156.822 62.8201C156.374 63.8664 155.694 64.7968 154.833 65.5406C134.298 84.5088 118.594 99.0533 103.913 112.707C95.0402 120.959 86.0477 129.378 77.3513 137.523C72.669 141.906 67.9873 146.287 63.3055 150.667C62.6104 151.316 61.897 151.946 61.0254 152.716C60.6815 153.019 60.3126 153.346 59.9096 153.701C58.8811 152.985 57.8218 152.286 56.7927 151.608C54.1913 149.984 51.7166 148.166 49.3898 146.169C34.5139 132.685 21.718 117.172 11.1634 103.776C10.0726 102.391 9.93599 101.205 10.721 99.9275L11.0164 99.4464C11.8802 97.8995 12.9181 96.4562 14.1097 95.1448C17.8613 91.3669 21.6116 87.5871 25.3607 83.8052C42.2804 66.7451 59.7763 49.1034 77.1924 31.9671C81.1508 28.0724 85.5509 24.4735 89.8066 20.9936C92.5632 18.7417 95.4071 16.413 98.1191 14.0193C101.054 11.4261 104.505 11.2459 108.158 11.0556C108.595 11.0326 109.031 11.0094 109.465 10.9825C120.382 10.2993 131.498 9.80112 142.246 9.31412C145.559 9.16533 148.87 9.01463 152.182 8.8619C152.291 8.85665 152.4 8.85488 152.51 8.85488C153.001 8.85488 153.525 8.90063 154.203 8.9597C154.508 8.98661 154.84 9.01634 155.206 9.04456C155.42 12.0533 155.64 15.0378 155.866 17.9987C156.433 25.5545 156.97 32.6908 157.327 39.986C157.524 43.9372 157.478 47.9757 157.435 51.8816C157.41 54.3789 157.381 56.9605 157.415 59.5025Z" fill="black"/>
<path d="M123.933 23.6936H123.67C119.606 23.7445 115.724 25.3897 112.861 28.2748C109.493 31.5573 107.565 36.0425 107.502 40.7453C107.424 50.123 115.187 57.6287 125.175 57.8322C125.33 57.8356 125.483 57.8374 125.635 57.837C130.496 57.9478 135.208 56.1559 138.766 52.8429C140.371 51.2647 141.645 49.3825 142.514 47.3064C143.383 45.2303 143.83 43.0017 143.828 40.751C143.959 30.9204 135.776 23.9063 123.933 23.6936ZM116.848 35.8949C117.431 34.4398 117.948 33.2976 118.846 32.9451C119.06 32.8628 119.288 32.8223 119.517 32.8253C120.141 32.8588 120.75 33.0273 121.303 33.3195C121.406 33.3681 121.52 33.3897 121.634 33.3823C121.749 33.3748 121.858 33.3385 121.955 33.2769C122.051 33.2152 122.13 33.1302 122.184 33.0297C122.239 32.9293 122.267 32.8168 122.266 32.7026V32.6558C122.841 32.8395 123.419 33.0169 123.997 33.1935C125.94 33.7331 127.839 34.422 129.676 35.2542C133.169 36.9554 133.384 40.0848 132.948 42.4082C132.378 45.4582 130.62 47.1306 127.416 47.6695C123.013 48.4112 119.921 47.4759 117.686 44.7265C115.712 42.304 115.441 39.4141 116.848 35.8929V35.8949Z" fill="black"/>
</svg>
