<svg width="112" height="157" viewBox="0 0 112 157" fill="none" xmlns="http://www.w3.org/2000/svg">
<g clip-path="url(#clip0_6_2159)">
<path d="M70.3129 70.0195C68.3235 66.6446 66.0513 64.8869 62.994 64.3422C59.8528 63.7836 57.2904 65.0051 54.4872 67.0751C54.396 65.7572 54.3125 64.4695 54.2298 63.2028C54.0224 59.9998 53.8268 56.9748 53.5236 53.9359C53.4015 52.7033 53.2827 51.4699 53.1672 50.2355C52.6552 44.8535 52.1258 39.2884 51.1498 33.8927C50.6319 31.0304 49.3118 27.8813 47.1223 24.2649C44.7509 20.3564 40.7559 19.5064 36.4405 21.9893C32.5162 24.2458 31.5875 28.1313 31.2173 31.2634C30.9312 33.6741 30.8861 36.1452 30.8421 38.5356L30.8197 39.6954C30.7794 41.5541 30.7377 43.4124 30.6944 45.2703C30.546 51.7129 30.3924 58.3741 30.395 64.9276C30.395 69.795 30.5511 74.7412 30.7007 79.5246C30.7664 81.5553 30.828 83.5866 30.8805 85.6173C30.7151 85.4861 30.5524 85.3548 30.3876 85.2235C30.1054 84.9932 29.8221 84.7641 29.5288 84.5482C22.8801 79.6558 15.7526 77.9093 8.3471 79.3631C6.72227 79.6381 5.19488 80.324 3.90978 81.3557C2.62468 82.3875 1.62452 83.7304 1.00465 85.2577C0.397816 86.8775 0.208949 88.6234 0.455354 90.3358C0.701757 92.0475 1.37578 93.6693 2.41475 95.0522C3.48188 96.4259 4.69562 97.6789 6.03486 98.7894L6.45693 99.1668C11.3461 103.411 15.4148 108.516 18.4607 114.229C22.6193 122.248 27.3035 130.72 32.7819 140.129C34.2081 142.58 36.4931 144.589 38.323 146.064C41.7747 148.848 45.9054 151.128 51.3222 153.237C56.1156 155.124 61.2216 156.093 66.3735 156.092C72.2163 156.021 78.0025 154.937 83.4744 152.887C87.5116 151.373 91.2494 149.157 94.5153 146.342C100.426 141.428 104.545 134.717 107.108 125.828C110.531 114.02 111.984 101.729 111.408 89.4484C111.16 85.9488 110.386 82.5063 109.111 79.2371C108.307 76.8414 106.688 74.8029 104.536 73.4771C102.385 72.1513 99.8363 71.6216 97.335 71.9806C95.5937 72.2563 93.8964 72.7571 92.2844 73.4692C91.5927 73.7376 90.8805 74.0146 90.1481 74.2666C88.7429 70.6725 85.7303 68.0866 81.6288 66.9655C77.0351 65.71 73.229 66.7378 70.3129 70.0195ZM42.3607 139.543C41.193 138.738 40.1772 137.733 39.3601 136.573C37.5945 133.948 35.5453 130.809 33.7318 127.445C31.2161 122.779 28.7141 117.836 26.2954 112.754C22.0293 103.783 16.7253 96.928 10.0838 91.7948C10.0074 91.7383 9.9359 91.6767 9.86941 91.6091C9.65873 91.3866 9.43754 91.1667 9.21307 90.9468C7.94569 89.6906 6.74826 88.5033 7.39016 86.5257C8.08588 84.3861 10.1036 84.0395 12.0615 84.0395C12.1592 84.0395 12.2585 84.0395 12.3544 84.0395C19.5085 84.1537 24.8495 86.806 28.2238 91.9228C28.8611 93.0287 29.3311 94.2232 29.6185 95.467C29.7189 95.8168 29.8153 96.164 29.9242 96.506C30.3679 97.9388 31.0926 99.4293 33.095 99.617C34.7359 99.7732 36.138 98.5433 36.684 96.4909C36.9124 95.5937 37.0172 94.6689 36.9953 93.7435C36.8437 85.404 36.6721 77.2497 36.4857 69.5069C36.443 67.742 36.3664 65.9495 36.2889 64.2161C36.1504 60.9883 36.0068 57.6528 36.0816 54.3776C36.247 47.1349 36.6788 39.7735 37.0962 32.6529L37.1619 31.5285C37.3037 29.1165 37.9034 26.5489 41.2566 25.72C43.4311 27.3746 44.7418 29.7335 45.2603 32.9252C46.1333 38.2928 46.7173 43.1917 47.0435 47.9022C47.4957 54.4124 47.8385 61.0408 48.1713 67.4512C48.338 70.6784 48.5098 73.905 48.6865 77.1322C48.7686 78.5972 49.1525 80.5806 51.5193 80.8878C53.7679 81.1812 54.6158 79.4563 55.2951 78.0714C55.5728 77.5044 55.841 76.9281 56.1095 76.3518C56.8931 74.4983 57.8706 72.7334 59.0252 71.0854C60.0097 69.7937 61.2783 69.1656 62.5168 69.3638C63.8019 69.5692 64.8604 70.6187 65.4216 72.2418C65.8445 73.6989 66.0756 75.2052 66.1097 76.722C66.1405 77.1867 66.172 77.6501 66.2127 78.1088C66.2449 78.6339 66.2344 79.1609 66.1819 79.6841C66.1386 80.1599 66.1228 80.6377 66.1346 81.1149C66.13 81.766 66.3762 82.3934 66.8212 82.8679C67.2668 83.3425 67.8779 83.6273 68.5276 83.6641C70.0372 83.8643 71.1143 83.2473 71.5547 81.9254C71.6859 81.5284 71.7837 81.1201 71.8776 80.725C71.9767 80.261 72.106 79.8042 72.2648 79.3572C72.4394 78.8978 72.6081 78.4337 72.7768 77.9697C73.2835 76.4417 73.9162 74.9584 74.6677 73.5348C75.8583 71.4345 77.2747 70.9016 79.7215 71.6367C82.6881 72.5267 84.4615 74.3802 84.9912 77.146C85.2583 78.7501 85.4113 80.3706 85.4507 81.9963C85.4677 82.3704 85.4854 82.7439 85.5058 83.1167C85.5957 84.753 85.9363 86.3439 87.8076 86.9005C89.9997 87.5568 91.0669 86.0643 91.8959 84.6197L92.1427 84.1885C92.8535 82.868 93.6634 81.6025 94.5652 80.4041C96.0702 78.5092 97.8673 77.5634 99.4917 77.8128C101.022 78.0458 102.302 79.3027 103.096 81.3525C104.523 84.8402 105.373 88.5374 105.613 92.2982C106.035 102.413 104.185 112.256 102.32 120.551C101.073 125.883 98.7986 130.922 95.6252 135.384C92.1939 140.311 86.934 143.926 79.9912 146.13C66.9649 150.274 54.3034 148.055 42.3607 139.543Z" fill="black"/>
<path d="M18.7056 19.9678C19.5844 20.2474 20.4648 20.5264 21.3384 20.8211L21.6665 20.9313L21.8252 20.4128C21.9105 20.4194 21.9966 20.428 22.0819 20.4365C22.5159 20.5227 22.9656 20.4844 23.3789 20.3262L23.5651 20.233C24.4387 19.7972 25.5263 19.2544 25.7311 18.453C25.8965 17.3177 25.6306 16.1617 24.986 15.2126C24.366 14.4614 23.5191 13.9317 22.5722 13.7031C19.5655 12.7973 17.095 12.1429 14.7965 11.6428C12.7677 11.2018 11.1133 11.9303 10.4812 13.5462C9.91679 14.9901 10.4371 16.9139 12.5249 17.7953C14.5379 18.6453 16.6565 19.3174 18.7056 19.9678Z" fill="black"/>
<path d="M60.9116 23.8356C61.5413 23.8255 62.1559 23.6418 62.6877 23.3047C65.0511 21.8013 67.3159 20.1483 69.4681 18.3558C69.9281 17.9008 70.2589 17.3319 70.427 16.7072C70.4768 16.5555 70.5339 16.4067 70.6002 16.2615L70.637 16.188V16.106C70.6744 15.4937 70.5451 14.8828 70.2616 14.3386C69.9787 13.7944 69.5527 13.3374 69.0303 13.0165C68.4967 12.7686 67.906 12.6708 67.3212 12.7336C66.7364 12.7964 66.1798 13.0174 65.7105 13.373C63.6101 14.8278 61.637 16.4591 59.8133 18.2489L59.2477 18.774C58.0217 19.9055 57.7894 21.3212 58.6263 22.5597C58.8671 22.9493 59.2032 23.271 59.6031 23.4943C60.003 23.7175 60.4536 23.835 60.9116 23.8356Z" fill="black"/>
<path d="M67.0233 36.2214C66.0663 36.539 65.1497 37.9521 64.9994 38.9557C64.7841 40.3904 65.7867 41.581 67.4414 41.8501C68.3563 41.9991 69.2752 42.0942 70.2479 42.194C70.687 42.2393 71.1372 42.2859 71.6039 42.339L71.6419 42.3437L71.6807 42.339C72.1401 42.2859 72.6205 42.2492 73.1088 42.2124C74.3795 42.1635 75.641 41.9707 76.8677 41.6375C77.3954 41.3932 77.8634 41.0381 78.2408 40.5963C78.6181 40.1546 78.8951 39.6366 79.054 39.0778C79.1353 38.8054 79.1603 38.5191 79.1268 38.2368C79.0927 37.9545 79.0008 37.6822 78.8571 37.4369C78.6588 37.1201 78.3996 36.846 78.0944 36.6307C77.7892 36.4153 77.444 36.263 77.079 36.1826C73.2355 35.2375 69.9473 35.25 67.0233 36.2214Z" fill="black"/>
<path d="M6.28099 37.855C6.1681 38.6255 7.38966 39.7491 8.13592 39.9394C9.32979 40.2077 10.5432 40.3793 11.7647 40.4527C12.3055 40.5013 12.8662 40.5505 13.4517 40.6168L13.4882 40.6208L13.525 40.6168C13.9333 40.5728 14.368 40.5413 14.8169 40.5091C16.0851 40.4582 17.3444 40.277 18.5755 39.9683C19.061 39.7299 19.4752 39.3678 19.7763 38.9184C20.0774 38.4691 20.2549 37.9483 20.2906 37.4086C20.2421 36.5606 19.0798 35.1469 18.2239 35.1232C14.8726 35.0333 11.5188 35.1491 8.18173 35.4698C7.32915 35.5499 6.40832 36.9926 6.28099 37.855Z" fill="black"/>
<path d="M38.5593 8.75556C38.8592 10.9832 39.9573 12.2545 41.5785 12.2545H41.6442C43.4032 12.2191 44.6305 10.7305 44.6291 8.63413C44.5893 6.28368 44.3066 3.94363 43.7856 1.65131C43.6235 0.879456 42.3267 0.0419922 41.5541 0.0419922H41.5346C41.0599 0.109028 40.6096 0.294439 40.2255 0.581195C39.8413 0.867951 39.5356 1.24683 39.3364 1.68283C38.9871 2.81171 38.7352 3.96844 38.5836 5.14039C38.5219 5.52763 38.4646 5.89388 38.4023 6.22861L38.3945 6.27063V6.31261C38.4188 6.68606 38.4352 7.01094 38.4497 7.30236C38.4766 7.86615 38.4989 8.30925 38.5593 8.75556Z" fill="black"/>
</g>
<defs>
<clipPath id="clip0_6_2159">
<rect width="111.577" height="156.208" fill="white"/>
</clipPath>
</defs>
</svg>
