<svg width="113" height="155" viewBox="0 0 113 155" fill="none" xmlns="http://www.w3.org/2000/svg">
<g clip-path="url(#clip0_6_2156)">
<path d="M5.63657 97.2536C6.096 97.6592 6.55542 98.0648 7.00498 98.4829C10.6595 101.902 14.7754 106.148 17.5884 111.715C20.5039 117.486 24.133 124.669 27.8617 131.415C31.0279 137.145 34.8292 142.99 41.1563 146.931C49.4078 152.07 57.9205 154.644 66.6033 154.644C72.0857 154.613 77.5215 153.638 82.6731 151.763C86.3853 150.378 89.8691 148.445 93.011 146.031C100.913 140.083 105.934 131.344 108.359 119.318C109.786 111.946 110.843 104.508 111.525 97.0305C112.176 91.0532 111.578 85.0057 109.769 79.2719C108.128 74.1689 104.664 71.1255 99.4792 70.2243C95.6594 69.5621 92.5608 71.306 90.2393 73.0144C89.4511 71.1307 88.2401 69.4544 86.699 68.1148C85.158 66.7753 83.3287 65.8085 81.3538 65.2907C77.0962 64.0686 73.3248 65.0616 70.1455 68.2441C65.6325 61.8738 61.8861 61.0901 54.5475 65.0196C54.4163 63.2889 54.2911 61.5791 54.169 59.8851C53.8619 55.6189 53.5723 51.5923 53.1483 47.5052C52.5431 41.6638 51.9557 36.4 50.897 31.1979C50.2096 28.3294 49.0216 25.6047 47.3871 23.1492C45.89 20.7391 43.9236 19.2932 41.6993 18.967C39.3712 18.6264 36.9248 19.5197 34.6256 21.5517C32.4433 23.48 31.2234 26.1697 30.9963 29.5459C30.9123 30.8052 30.8258 32.0651 30.737 33.3257C30.3025 39.5714 29.8524 46.0298 29.8438 52.3877C29.8333 59.891 30.0812 67.5438 30.3207 74.9453C30.4166 77.9277 30.514 80.918 30.5953 83.9195C25.0388 79.1584 18.2698 76.957 10.4456 77.3751C7.43239 77.5366 3.19117 78.2841 1.14668 82.8988C-0.737667 87.1539 -0.175894 91.0709 2.81701 94.5423C3.69361 95.5097 4.63564 96.4155 5.63657 97.2536ZM27.3358 89.5882C28.3462 91.2711 29.1141 93.0878 29.6166 94.9846C30.1016 96.5225 30.8027 98.1699 33.0021 98.2512C34.7946 98.3169 35.9929 97.3245 36.6472 95.2157C36.8557 94.5416 36.9613 93.8393 36.9604 93.1338L36.9453 88.7527C36.9282 83.2303 36.911 77.5195 36.8008 71.9039C36.7443 69.0048 36.6284 66.0585 36.5175 63.2101C36.3527 59.0095 36.1819 54.6659 36.1976 50.3977C36.2219 43.8009 36.6178 37.1062 37.0555 30.256C37.2282 27.565 37.847 24.9922 41.1483 24.3634C44.2069 26.9402 45.1962 30.5094 45.7338 35.065C46.1026 38.1879 46.2588 41.3941 46.417 44.4946C46.4938 46.0403 46.571 47.586 46.6727 49.1297C47.2713 58.1871 47.8805 67.2445 48.5001 76.302C48.6189 78.0577 49.5573 79.1846 51.1444 79.4754C51.885 79.6546 52.6659 79.5535 53.3365 79.1919C54.007 78.8296 54.5198 78.2323 54.776 77.5143C54.946 77.1257 55.085 76.7227 55.2189 76.3328C55.389 75.7855 55.6059 75.2538 55.8669 74.7432C56.0487 74.415 56.2271 74.0777 56.4063 73.7429C57.1117 72.3049 57.9625 70.943 58.9451 69.6782C60.0412 68.3734 61.2929 67.7749 62.4716 67.9836C63.6662 68.1982 64.6881 69.2674 65.2762 70.9174C65.6851 72.1605 65.9187 73.4548 65.9719 74.7622C66.0224 75.9318 66.0001 77.104 65.9062 78.271L65.859 79.0927C65.7619 80.922 66.6052 82.0463 68.2979 82.3482C69.4216 82.5484 70.9233 82.3141 71.6715 80.0667C71.7627 79.7747 71.8369 79.478 71.8934 79.1774C71.9459 78.93 71.9964 78.6825 72.0699 78.4417C72.1979 78.0269 72.3167 77.6068 72.4342 77.1867C72.7059 76.1097 73.0643 75.0556 73.506 74.0363L73.6228 73.7849C74.5528 71.7831 75.5262 69.7104 78.1233 69.9834C80.3391 70.2118 83.2014 71.1648 84.2522 74.3921C84.6007 75.6266 84.8206 76.8934 84.9085 78.1732C84.9578 78.6464 85.0076 79.119 85.0687 79.5876C85.1264 80.0241 85.1488 80.4842 85.1711 80.9285C85.179 81.726 85.2827 82.5188 85.4802 83.2913C85.6108 83.8656 85.897 84.3933 86.3065 84.8167C86.7168 85.2394 87.2353 85.5419 87.8056 85.6903C88.3989 85.7874 89.008 85.7204 89.5659 85.496C90.1245 85.2715 90.6102 84.898 90.9711 84.417C91.3236 83.9779 91.6294 83.5033 91.8834 83.0006C92.0495 82.6993 92.2202 82.3876 92.4085 82.1067C92.6382 81.7634 92.8614 81.4142 93.0852 81.0644C93.6707 80.0878 94.3382 79.1636 95.0818 78.3012C96.3616 76.9058 97.9145 76.2403 99.3322 76.4759C100.038 76.6321 100.693 76.9642 101.235 77.4421C101.777 77.9205 102.189 78.5283 102.433 79.2089C103.528 81.6945 104.996 85.4159 105.097 89.0153C105.141 94.2495 104.889 99.4825 104.344 104.689L104.141 107.081C103.95 108.958 103.662 110.823 103.279 112.67C103.072 113.759 102.859 114.885 102.688 116.001C101.797 121.842 99.3545 127.006 95.9593 132.956C94.008 136.377 90.813 139.261 86.4621 141.531C73.1509 148.477 59.5364 148.121 45.9981 140.475C40.1147 137.152 36.8015 131.889 34.3363 127.179C32.5576 123.781 30.8106 120.293 29.1205 116.92C27.502 113.688 25.8277 110.348 24.1278 107.088C21.085 101.265 16.9646 96.0735 11.9855 91.7883L11.3507 91.2435C10.1847 90.3069 9.10467 89.2673 8.12345 88.1384C7.30434 87.1303 6.98555 86.1694 7.20149 85.3503C7.42792 84.497 8.23706 83.7751 9.54317 83.2644C10.6841 82.8234 11.8978 82.6009 13.121 82.6081C14.6254 82.6422 16.1174 82.8877 17.5538 83.336C22.3156 84.6998 25.3346 86.6288 27.3358 89.5902V89.5882Z" fill="black"/>
<path d="M12.258 50.7711C15.0207 53.3606 18.4424 55.1405 22.1486 55.9161C22.6231 56.0212 23.1066 56.0792 23.5924 56.0894C24.1131 56.139 24.6358 56.0168 25.0807 55.7417C25.5255 55.4665 25.8683 55.0534 26.0565 54.5654C26.7785 52.708 25.1965 51.8088 24.0433 51.1492L23.9468 51.094C23.3088 50.7291 22.6552 50.3891 22.0021 50.0491C21.2749 49.6704 20.5229 49.2792 19.8088 48.8592C13.0656 44.889 10.0694 38.4306 11.3729 30.6734C13.8453 15.9583 26.7824 5.31646 41.441 5.89666C46.5926 6.10406 51.12 8.08952 54.189 11.4874C55.6976 13.2193 56.8432 15.2365 57.5575 17.4195C58.2719 19.6024 58.5404 21.9066 58.3475 24.1954C58.2739 25.0353 58.1398 25.8689 57.946 26.6894C57.8449 27.1692 57.7437 27.6497 57.6649 28.1334C57.2422 30.7135 58.116 32.5308 59.9432 32.8669C60.3479 32.9483 60.7652 32.9452 61.1686 32.8577C61.5722 32.7701 61.9529 32.6001 62.2874 32.3582C62.7801 31.9563 63.1873 31.4598 63.4848 30.898C63.7822 30.3361 63.9641 29.7204 64.0196 29.087C64.1437 28.0774 64.2093 27.0615 64.2164 26.0442C64.2289 25.5933 64.2416 25.1424 64.2639 24.6935C64.584 18.792 62.5565 13.0033 58.6244 8.5909C56.4697 6.17496 53.856 4.21185 50.9352 2.81585C48.0144 1.41985 44.8449 0.61887 41.6115 0.459558C24.4411 -0.611585 8.50731 11.6704 5.31619 28.4313C3.55917 37.6516 5.82987 44.9592 12.258 50.7711Z" fill="black"/>
</g>
<defs>
<clipPath id="clip0_6_2156">
<rect width="112.234" height="154.896" fill="white"/>
</clipPath>
</defs>
</svg>
