<svg width="140" height="135" viewBox="0 0 140 135" fill="none" xmlns="http://www.w3.org/2000/svg">
<g clip-path="url(#clip0_8_2698)">
<path d="M67.4721 121.509C60.8631 121.556 54.2804 120.675 47.9181 118.892C27.7218 113.083 14.6427 95.8168 14.6233 74.9035C14.6233 73.8164 14.6233 72.7299 14.6233 71.3754C11.9011 71.0912 9.38105 70.8586 6.87402 70.5551C5.44808 70.3813 4.02813 70.1371 2.62813 69.8239C1.95865 69.7231 1.35216 69.373 0.930219 68.8453C0.508273 68.3175 0.301847 67.6503 0.352328 66.9772C0.329187 66.6142 0.378639 66.2499 0.497591 65.9056C0.616544 65.5607 0.802683 65.2435 1.04541 64.971C1.28815 64.699 1.58247 64.4774 1.91162 64.3191C2.24076 64.161 2.59807 64.0694 2.96296 64.0495C4.61539 63.9244 6.27518 63.9267 7.92726 64.0566C10.455 64.1431 12.9868 64.2814 15.6468 64.4042C16.199 62.4741 16.6461 60.7837 17.1659 59.1159C21.3724 45.6256 28.3516 33.9077 39.527 24.9796C46.5918 19.338 54.5286 15.6368 63.7161 15.0212C64.5898 14.9624 65.4525 14.7449 66.7345 14.5317C66.8129 12.2406 66.8518 9.95911 66.9821 7.68478C67.0113 6.1453 67.1804 4.61163 67.487 3.10251C67.9621 1.16471 69.1975 0.290102 70.7433 0.398618C71.5295 0.465391 72.2658 0.811706 72.818 1.3743C73.3696 1.9369 73.7008 2.67839 73.7501 3.46365C74.0093 5.65336 74.0236 7.87274 74.139 10.0799C74.2038 11.2813 74.2602 12.4833 74.3334 13.978C78.5729 14.4573 82.7165 14.9469 86.8647 15.3913C97.1314 16.4894 106.1 20.3263 113.425 27.7223C120.606 34.9722 124.562 43.7995 126.337 53.71C126.512 54.688 126.676 55.6692 126.818 56.653C126.942 57.5056 127.028 58.3634 127.15 59.3659C129.029 59.3659 130.788 59.2774 132.529 59.3924C134.068 59.441 135.594 59.6808 137.073 60.1061C137.832 60.3213 138.499 60.7827 138.965 61.4174C139.432 62.0521 139.673 62.8238 139.651 63.6103C139.671 64.3954 139.424 65.1641 138.952 65.7926C138.479 66.4211 137.807 66.8719 137.046 67.0722C135.79 67.4836 134.478 67.6987 133.157 67.7091C131.282 67.7284 129.404 67.4882 127.329 67.3448C126.776 70.7346 126.502 74.14 125.627 77.3845C124.312 82.2639 122.962 87.1975 120.948 91.8147C114.885 105.718 103.86 114.026 89.5091 118.19C85.2728 119.417 80.9043 120.199 76.0925 121.3C76.0102 123.173 75.9628 125.341 75.8014 127.497C75.7554 128.92 75.5409 130.332 75.1624 131.705C74.953 132.521 74.4585 133.234 73.7676 133.718C73.076 134.201 72.234 134.422 71.394 134.341C70.5502 134.324 69.7374 134.02 69.0892 133.481C68.4411 132.942 67.9971 132.199 67.8292 131.374C67.5849 129.964 67.4877 128.532 67.5382 127.101C67.5272 125.667 67.6678 124.232 67.7087 122.797C67.6672 122.361 67.5881 121.931 67.4721 121.509ZM68.5895 111.943C68.714 108.924 68.841 105.862 68.9661 102.8C68.9447 101.807 68.9901 100.813 69.1009 99.8255C69.4548 97.8199 70.6837 96.7612 72.4356 96.769C74.2226 96.7767 75.4171 97.7902 75.7768 99.8042C76.0037 101.224 76.1502 102.655 76.215 104.091C76.3647 106.493 76.4535 108.9 76.5851 111.661C87.8428 110.213 98.0887 107.075 105.876 98.7494C114.124 89.9292 116.829 78.9192 117.737 66.9914C115.079 66.8306 112.765 66.7809 110.473 66.5193C108.94 66.3733 107.434 66.0238 105.993 65.48C104.641 64.9341 104.128 63.6322 104.38 62.1659C104.449 61.5529 104.725 60.9817 105.163 60.5457C105.601 60.1099 106.175 59.8353 106.79 59.7671C107.997 59.6168 109.212 59.5467 110.429 59.5577C112.709 59.5279 114.989 59.5493 117.276 59.5493C116.929 49.5089 112.155 39.5959 105.155 33.4453C99.2657 28.2714 92.1892 25.9918 84.6785 24.6799C81.3477 24.0986 77.9915 23.6588 74.1273 23.0761C74.1273 25.5791 74.1772 27.5446 74.1117 29.5057C74.1221 31.0489 73.9808 32.5895 73.6911 34.1054C73.4876 35.0331 72.9652 35.8608 72.214 36.445C71.4627 37.0293 70.5301 37.3336 69.5779 37.3048C68.6252 37.2761 67.7132 36.9161 66.999 36.2877C66.2847 35.6591 65.8135 34.8015 65.667 33.8632C65.5115 32.8881 65.4862 31.8968 65.5925 30.9152C65.7921 27.993 66.054 25.0752 66.3236 21.759C65.094 21.8095 63.8677 21.9281 62.6511 22.1143C57.1076 23.3362 51.9134 25.7921 47.4573 29.2983C36.1795 38.0759 29.5364 49.8105 25.8738 63.3926C25.8572 63.8809 25.9185 64.3688 26.0548 64.8379C28.1658 64.8379 30.1523 64.8095 32.1375 64.845C34.3529 64.8851 36.5735 64.9057 38.7792 65.084C40.3431 65.2132 41.6459 66.0942 41.7905 67.6903C41.8896 68.7781 41.6245 70.2689 40.9148 70.9646C39.9069 71.8023 38.6567 72.2965 37.3468 72.3759C35.2434 72.4857 33.1349 72.4599 31.0349 72.2978C28.9608 72.217 26.8869 72.0691 24.6423 71.9412C24.0722 76.2832 24.3669 80.6956 25.5095 84.9245C30.0738 102.484 46.595 113.278 68.5882 111.941L68.5895 111.943Z" fill="black"/>
<path d="M58.0283 65.3645C58.3361 63.5271 58.7598 61.7108 59.2967 59.9267C61.1991 54.7153 67.9979 51.8527 72.6938 54.6199C75.6364 56.415 77.9587 59.0625 79.3503 62.2083C82.0077 67.996 79.4086 73.9754 73.3432 76.0521C65.9991 78.5667 58.3012 73.1351 58.0283 65.3645Z" fill="black"/>
</g>
<defs>
<clipPath id="clip0_8_2698">
<rect width="140" height="135" fill="white"/>
</clipPath>
</defs>
</svg>
