<svg width="171" height="139" viewBox="0 0 171 139" fill="none" xmlns="http://www.w3.org/2000/svg">
<g clip-path="url(#clip0_8_2701)">
<path d="M2.06496 126.816C2.19559 129.178 2.63654 131.511 3.37664 133.756C4.55686 137.492 5.96698 138.127 9.60702 138.143L13.0423 138.157C23.7443 138.201 34.8129 138.243 45.6937 138.23C46.7639 138.208 47.832 138.127 48.893 137.984C50.0061 137.826 51.1289 137.747 52.2531 137.75C54.014 137.793 55.813 137.934 57.5521 138.07C59.675 138.236 61.8647 138.408 64.038 138.408C64.1774 138.408 64.3163 138.408 64.4548 138.408C91.6355 138.121 113.618 137.808 133.636 137.42C140.63 137.283 145.711 134.39 149.17 128.572C156.757 115.809 162.649 101.399 168.271 81.8478C169.111 78.6768 169.757 75.457 170.206 72.2061C170.436 70.7538 170.674 69.2527 170.944 67.7893C170.951 67.7497 170.955 67.7087 170.955 67.6678V63.005C170.955 62.9299 170.943 62.8555 170.918 62.7848C170.609 61.8982 170.337 60.9628 170.072 60.0567C169.555 57.961 168.776 55.9399 167.754 54.0415C164.463 48.5309 158.917 45.3501 151.716 44.8428C144.929 44.3647 138.012 44.238 131.326 44.1139C129.63 44.0828 127.936 44.05 126.242 44.0154C122.836 43.942 119.371 43.9607 116.021 43.9782C114.731 43.9851 113.44 43.9905 112.15 43.9944C114.321 38.3434 115.672 32.056 116.524 23.6582C117.025 18.7165 117.351 12.2316 115.41 5.90191C114.038 1.42663 111.877 -0.0666955 107.16 0.180127C103.982 0.271514 100.953 1.55243 98.6639 3.77222C98.1348 4.29184 97.6024 4.80827 97.0675 5.32184C94.2572 7.9101 91.6413 10.7039 89.2408 13.6802C86.2261 17.6196 83.41 21.8043 80.6863 25.8522C79.4951 27.6228 78.3039 29.3937 77.0934 31.1493C71.4149 39.3802 64.6826 45.3739 56.5035 49.466C55.8667 49.8144 55.1677 50.0324 54.4466 50.1066C53.7256 50.1808 52.9971 50.11 52.3035 49.8986C46.321 48.354 41.2534 47.9793 36.3557 48.7171C32.5801 49.2868 28.6975 49.6388 24.9432 49.9779C23.4945 50.1078 22.0472 50.2409 20.6011 50.3844C19.0614 50.5364 17.5195 50.6724 15.978 50.8082C13.493 51.0264 10.9233 51.2522 8.39898 51.549C3.78846 52.0914 1.93385 53.8414 1.04852 58.4849L0.966599 58.9032C0.793386 59.6672 0.687624 60.4452 0.650888 61.228C0.619912 62.944 0.57628 64.6593 0.533046 66.3753C0.418186 70.9148 0.298559 75.6084 0.422453 80.2285C0.866406 96.7019 1.50227 113.023 2.06496 126.816ZM47.1554 55.725C47.0141 67.9017 47.8698 80.1207 48.699 91.9422C49.5249 103.729 50.3765 115.91 50.2242 127.933H12.461L12.4532 127.857C12.4009 127.373 12.3468 126.873 12.3242 126.383C11.9371 117.275 11.5498 108.166 11.1626 99.0591C10.7965 90.4339 10.431 81.8094 10.0657 73.185C10.0309 72.3665 9.9987 71.5475 9.96902 70.7278C9.86642 68.0355 9.76124 65.2509 9.5128 62.5178C9.33858 60.6017 9.91217 59.8393 11.7067 59.6041C13.868 59.3205 16.0273 59.0287 18.1848 58.7291C22.2901 58.1659 26.5347 57.5847 30.7167 57.1014C34.6072 56.6526 38.582 56.3221 42.4266 56.0025C43.783 55.8904 45.1395 55.7759 46.4959 55.6593C46.718 55.6542 46.9398 55.6763 47.1566 55.725H47.1554ZM108.879 22.7339C108.472 28.5661 106.987 34.7563 104.206 42.2136C103.312 44.611 102.606 47.2682 103.488 50.4587C103.525 50.5926 103.603 50.7115 103.71 50.7989C103.818 50.8864 103.949 50.9379 104.087 50.9465C104.604 50.9776 105.128 51.0153 105.656 51.053C106.81 51.1355 108.003 51.2211 109.196 51.2477C112.593 51.3127 115.99 51.3583 119.391 51.4018C126.895 51.4986 134.654 51.5966 142.269 51.9486C146.369 52.1765 150.412 53.0173 154.267 54.4434C158.989 56.1614 161.267 59.7916 161.037 65.2308C160.681 73.6143 158.615 82.3414 154.536 92.6943C151.837 99.5456 148.788 106.796 144.647 116.207C143.692 118.24 142.601 120.205 141.382 122.09C141.008 122.697 140.634 123.304 140.269 123.915C138.439 126.98 135.582 128.714 131.777 129.069C126.619 129.55 120.614 130.067 114.659 130.116C101.435 130.224 87.9883 130.207 74.9826 130.189C70.8845 130.183 66.7863 130.18 62.6872 130.177C61.9619 130.177 61.2168 130.112 60.5579 130.05L60.2854 130.026L54.5424 56.1284C55.5071 55.6965 56.4621 55.2839 57.4055 54.8747C59.7679 53.8523 61.9986 52.8871 64.181 51.725C72.9345 47.0575 80.2888 39.6652 87.3275 28.4601C91.1296 22.4085 95.8705 15.4383 102.197 9.6237C103.399 8.47338 104.803 7.55799 106.338 6.92379C107.447 6.50029 107.915 6.56369 108.111 6.69165C108.377 6.86442 108.547 7.4062 108.602 8.25838C109.015 13.0719 109.108 17.908 108.879 22.7339Z" fill="black"/>
<path d="M30.8933 58.2715C30.8579 58.2714 30.8225 58.274 30.7874 58.2788C22.9479 59.4479 18.1729 63.8756 18.0109 70.1281C17.8529 76.2987 22.8847 81.2962 29.4666 81.5066C29.5957 81.5112 29.7201 81.5131 29.846 81.5131C32.9202 81.517 35.8801 80.3401 38.1225 78.2232C39.1517 77.2639 39.98 76.1071 40.5589 74.821C41.138 73.5349 41.456 72.1449 41.4942 70.7335C41.46 67.3124 40.1032 64.0398 37.7119 61.6089C35.678 59.4888 33.2556 58.3033 30.8933 58.2715ZM31.3328 71.4843C30.4462 72.5093 29.1909 72.6139 27.6022 71.7961C26.2362 71.0927 25.7749 70.0807 26.2298 68.7862C26.5029 68.1165 26.8455 67.4774 27.2519 66.8805C27.4029 66.6362 27.5642 66.3751 27.7352 66.0906C28.034 66.2796 28.3233 66.455 28.6014 66.6239C29.4107 67.0649 30.1636 67.6034 30.8441 68.2276C31.4998 68.8979 32.435 70.2145 31.3328 71.4843Z" fill="black"/>
</g>
<defs>
<clipPath id="clip0_8_2701">
<rect width="171" height="139" fill="white"/>
</clipPath>
</defs>
</svg>
