<svg width="152" height="144" viewBox="0 0 152 144" fill="none" xmlns="http://www.w3.org/2000/svg">
<g clip-path="url(#clip0_6_2169)">
<path d="M5.77491 87.9736C6.32361 88.347 6.87692 88.7132 7.46238 89.1012L7.97563 89.4418C4.08158 93.326 1.69121 97.4668 0.673229 102.089C-0.280431 106.421 0.966579 110.072 4.38019 112.949C4.82847 113.327 5.28264 113.696 5.74799 114.075L6.17134 114.419C3.58405 117.842 2.18073 121.279 1.88079 124.921C1.50667 129.476 3.08974 132.752 6.58538 134.66C9.16347 136.067 11.6976 137.375 14.3663 137.931C19.6567 139.016 25.0032 139.807 30.381 140.303C37.8856 141.01 46.0215 141.592 55.2562 142.081C60.3999 142.354 66.3759 142.621 72.5894 142.621C73.5477 142.621 74.5105 142.614 75.4773 142.601C82.5231 142.501 88.8009 142.084 94.3286 137.971C94.962 137.433 95.7535 137.117 96.5838 137.072C97.4134 137.026 98.2351 137.254 98.923 137.721C99.9456 138.225 101.049 138.546 102.183 138.668C102.427 138.709 102.67 138.75 102.91 138.795C112.562 140.596 122.442 140.377 131.997 140.164C133.412 140.132 134.826 140.103 136.24 140.076C141.486 139.982 145.126 137.04 146.765 131.567C147.335 129.726 147.731 127.837 147.946 125.922L148.261 122.894C148.957 116.199 149.678 109.282 150.156 102.457C151.246 86.8978 151.605 70.916 151.221 54.9558C151.145 51.8172 150.963 48.758 150.682 45.8616C150.316 42.0962 148.504 39.2805 145.441 37.7178C142.909 36.4261 140.041 34.9611 137.022 34.2759C127.859 32.194 118.421 32.7007 110.093 33.1437C109.245 33.189 108.368 33.1923 107.521 33.1949C104.699 33.2054 101.785 33.2166 98.9552 34.7091C96.1171 27.7237 91.3482 22.4251 87.0406 18.1543C85.3558 16.4841 83.6612 14.8227 81.958 13.1701C79.2808 10.5592 76.5104 7.85965 73.8489 5.14963C69.4186 0.644529 63.719 -0.878837 56.4245 0.489629C55.2287 0.713413 54.0899 1.17392 53.0746 1.84411C52.0595 2.51429 51.1884 3.38063 50.5128 4.39221C49.0587 6.57368 48.5307 9.24334 49.0447 11.8141C49.3472 13.499 49.8477 15.1422 50.5359 16.7097C52.1189 20.1588 53.8364 23.5356 55.7556 27.2767C55.9971 27.7473 56.2506 28.2114 56.5046 28.6774C57.4508 30.2336 58.1656 31.9192 58.6265 33.6813C58.511 33.7121 58.4034 33.743 58.3023 33.7725C58.0453 33.8606 57.7783 33.9159 57.5075 33.9373C54.2914 33.9705 51.0752 33.9983 47.8592 34.0206C42.852 34.06 37.6749 34.1 32.5836 34.1742C27.162 34.2578 21.7774 35.0839 16.5802 36.6296C12.3801 37.8106 8.61005 40.1784 5.72235 43.4489C-0.00157152 50.0051 0.220367 57.4374 6.31315 63.3261C6.34616 63.4055 6.37008 63.4882 6.38462 63.5729C6.39643 63.6234 6.40897 63.6766 6.42276 63.7337C3.44147 66.7647 1.4024 70.5944 0.552408 74.7602C-0.689381 80.3266 1.06831 84.7693 5.77491 87.9736ZM16.9982 66.6203C19.2337 66.1037 20.7716 64.6033 20.9173 62.7977C21.1142 60.3811 18.6621 59.4399 17.1978 58.8781C16.4101 58.5953 15.6048 58.364 14.787 58.1857C14.1852 58.0413 13.563 57.8916 12.973 57.7006C10.1993 56.8041 9.34075 55.2722 10.0096 52.4132C10.4904 50.1568 11.6728 48.1105 13.3877 46.5672C17.0947 43.2901 20.8523 41.6361 25.213 41.3611L25.6474 41.3335C34.9674 40.7474 44.5986 40.1403 54.0925 41.0283C56.6899 41.2437 59.302 41.2099 61.8931 40.9273C63.6593 40.754 64.8183 40.2296 65.4372 39.3238C66.028 38.4555 66.1061 37.2761 65.6677 35.714C64.4943 31.7318 63.1049 27.8164 61.5058 23.9852C60.7536 22.1199 59.8984 20.2631 59.0721 18.4674C58.0534 16.2562 57.0007 13.9688 56.1383 11.6618C55.4386 9.7919 55.377 8.48448 55.9487 7.66603C56.5348 6.82526 57.8474 6.41111 59.9523 6.43671C63.759 6.45968 66.559 7.58595 68.7741 9.98093C70.9026 12.2821 73.1237 14.5681 75.2719 16.7786C78.6645 20.269 82.1719 23.8782 85.3873 27.6239C91.7453 35.0301 94.6417 42.5714 94.2479 50.6791C94.0681 54.844 94.1186 59.0158 94.3995 63.1751C94.5104 66.4115 94.3549 69.6519 93.9355 72.8633C93.7314 74.8376 93.5207 76.8788 93.4419 78.9016C93.1459 86.4613 92.9661 94.151 92.7921 101.588C92.6878 106.033 92.5841 110.477 92.4561 114.921L92.4502 115.105C92.3504 118.573 92.2474 122.158 91.828 125.639C91.1211 131.504 88.988 133.652 83.3737 134.151C79.015 134.538 74.5453 134.583 70.2233 134.625C68.5621 134.642 66.9009 134.658 65.2418 134.691C63.4697 134.728 61.6693 134.718 59.9254 134.709C59.2253 134.705 58.5236 134.702 57.8204 134.7L57.8133 134.589L57.5205 134.568C54.2528 134.327 50.9841 134.093 47.7142 133.867C39.2625 133.273 30.5227 132.658 21.947 131.858C18.4829 131.534 15.0095 130.32 12.0691 129.176C9.55071 128.196 9.02761 127.116 9.63538 124.155C9.98553 122.435 10.5774 120.772 11.3932 119.218C12.4886 117.162 13.8676 116.281 15.8852 116.376C17.409 116.378 18.9033 115.957 20.2018 115.159C21.252 114.548 22.3941 113.229 22.4085 112.163C22.4229 111.097 21.275 109.727 20.2354 109.162C18.6987 108.416 17.0607 107.901 15.3739 107.632C12.7807 107.102 11.0598 106.562 10.4986 105.513C10.0063 104.594 10.2564 103.187 11.4207 100.328C13.1673 96.0439 15.5227 93.3581 18.8372 91.8755C19.8603 91.5079 20.7252 90.7984 21.2862 89.8671C21.8471 88.9357 22.07 87.8397 21.9169 86.7633C21.7581 84.3545 19.961 83.4159 18.2243 82.8187C17.3396 82.5135 16.4234 82.2713 15.5373 82.0376C14.6112 81.7928 13.6529 81.5401 12.7445 81.2172C9.96755 80.2327 9.27059 79.1077 9.63748 76.2107C10.3509 70.5911 12.6218 67.6323 17.0015 66.6183L16.9982 66.6203ZM112.7 132.601C109.355 132.467 106.022 132.11 102.724 131.53C99.5347 131.005 99.5524 130.808 99.8517 127.456C100.408 121.233 100.862 114.752 101.242 107.644L101.421 104.308C101.868 96.0386 102.331 87.48 102.503 79.0572C102.669 70.9101 102.595 62.6232 102.524 54.6099C102.506 52.6593 102.49 50.7089 102.474 48.7587C102.438 47.2808 102.327 45.8057 102.143 44.3389C102.077 43.7147 102.006 43.0741 101.946 42.4086C104.615 42.3318 107.285 42.2038 109.871 42.0804C117.891 41.6952 125.466 41.3316 133.171 42.3692C133.393 42.3994 133.614 42.4211 133.836 42.4421C134.179 42.4756 134.502 42.5077 134.823 42.5681C141.93 43.9175 142.982 45.1935 142.86 52.2944L142.805 55.4448C142.514 72.3934 142.214 89.9189 141.666 107.147C141.473 113.235 140.73 119.415 140.011 125.393L139.793 127.21C139.26 131.673 138.373 132.547 134.208 132.696C127.029 132.95 119.94 132.797 112.703 132.601H112.7Z" fill="black"/>
<path d="M125.886 48.5104C121.882 46.6129 116.452 47.5456 112.973 50.7282C110.175 53.2879 109.332 56.4888 110.469 60.2392C112.053 65.4623 116.595 68.5635 122.931 68.7479C123.08 68.7525 123.228 68.7545 123.374 68.7545C126.041 68.7545 128.147 68.0325 129.638 66.603C131.355 64.9576 132.251 62.3808 132.297 58.9462V58.9206C131.989 53.8851 129.83 50.379 125.886 48.5104ZM126.017 59.3275C126.011 59.7871 125.91 60.2407 125.721 60.6599C125.533 61.0791 125.259 61.4548 124.919 61.7638C124.37 62.2515 123.73 62.6251 123.035 62.8629C122.34 63.1007 121.605 63.1978 120.872 63.1487C118.92 63.0712 116.532 60.1158 116.467 57.6965C116.467 57.2834 116.549 56.8744 116.709 56.4933C116.868 56.1122 117.101 55.7664 117.395 55.4761C118.355 54.5286 119.647 53.9924 120.996 53.981H121.09C122.328 53.9925 123.512 54.4936 124.383 55.375C124.903 55.8927 125.316 56.5087 125.597 57.1872C125.877 57.8657 126.02 58.5933 126.017 59.3275Z" fill="black"/>
</g>
<defs>
<clipPath id="clip0_6_2169">
<rect width="151.614" height="143.082" fill="white"/>
</clipPath>
</defs>
</svg>
