<svg width="160" height="157" viewBox="0 0 160 157" fill="none" xmlns="http://www.w3.org/2000/svg">
<g clip-path="url(#clip0_8_2966)">
<path d="M63.8437 156.25C62.7988 154.748 62.2907 153.28 62.8775 151.319C64.3437 146.42 65.5451 141.443 66.8319 136.491C67.0537 135.638 67.1758 134.762 67.4082 133.568C66.4657 133.617 65.7457 133.625 65.0317 133.696C63.4912 133.947 61.9372 134.106 60.3777 134.172C57.6657 134.115 56.3615 132.119 57.2771 129.578C57.6491 128.645 58.1107 127.75 58.6554 126.906C63.5997 118.523 69.3201 110.621 75.741 103.306C77.0183 101.875 78.4044 100.609 80.401 100.453C83.0874 102.041 83.2292 104.416 82.6181 106.945C81.9434 109.738 81.1086 112.494 80.2553 115.6C82.7199 115.122 84.9974 114.724 87.2525 114.227C88.6006 113.93 90.0092 113.524 90.9937 114.769C92.0924 116.157 91.7996 117.728 90.9641 119.171C89.173 122.265 87.3484 125.34 85.5257 128.416C81.8824 134.564 78.2712 140.732 74.5649 146.842C73.0815 149.325 71.4538 151.717 69.6889 154.008C68.9302 154.98 67.6083 155.517 66.5424 156.249L63.8437 156.25Z" fill="black"/>
<path d="M99.141 37.353C101.619 35.7653 103.707 34.2494 105.953 33.0214C116.681 27.1413 127.937 26.3414 139.453 30.1672C154.548 35.1836 160.532 50.2724 159.22 62.1784C158.088 72.441 153.005 80.7108 145.667 87.7094C143.022 90.233 139.587 91.4636 136.151 92.5394C128.841 94.8287 121.245 95.5585 113.688 96.3862C95.7044 98.3552 77.623 98.3204 59.5611 98.6079C50.9054 98.7457 42.2731 98.6078 33.8207 96.4419C31.3313 95.8033 28.8512 95.0807 26.4385 94.1999C15.8295 90.3275 8.38385 83.1806 4.36116 72.6097C-1.96528 55.9817 -1.05689 39.755 8.59913 24.7505C16.6504 12.2387 28.2177 3.54107 43.087 1.00826C61.9403 -2.2032 77.787 4.00268 89.9089 18.9665C94.2592 24.3294 97.1477 30.489 99.141 37.353ZM60.3703 88.7182C65.7524 88.5213 71.1462 88.4307 76.5243 88.1163C91.0891 87.2631 105.642 86.1755 120.215 85.4877C125.593 85.2369 130.844 83.7694 135.573 81.1959C143.974 76.721 148.109 69.6082 148.493 60.2819C148.912 50.1743 143.439 42.1671 134.375 39.4643C128.953 37.8996 123.221 37.7466 117.724 39.0195C111.718 40.3138 106.81 43.5895 102.528 47.8511C100.625 49.7473 98.9139 51.8391 97.0059 53.7326C95.6808 55.0453 94.0977 55.7302 92.1142 55.0542C90.1511 54.3854 89.2723 52.9 88.9579 51.0694C88.8811 50.1846 89.0203 49.2948 89.3629 48.4755C90.7011 44.6766 90.1505 40.9927 88.8805 37.3119C87.0558 32 84.1607 27.1191 80.375 22.9706C70.5857 12.2014 58.2459 8.73144 44.0946 10.6315C27.144 15.7995 15.1574 25.998 10.838 43.7106C9.45217 49.6225 9.35601 55.764 10.5563 61.7163C12.8404 73.7504 18.9573 82.5328 31.3588 85.9346C32.7608 86.3199 34.1602 86.7222 35.5772 87.0504C43.7526 88.9151 52.0507 88.9321 60.3703 88.7182Z" fill="black"/>
</g>
<defs>
<clipPath id="clip0_8_2966">
<rect width="159.49" height="156.865" fill="white"/>
</clipPath>
</defs>
</svg>
