<svg width="158" height="163" viewBox="0 0 158 163" fill="none" xmlns="http://www.w3.org/2000/svg">
<g clip-path="url(#clip0_8_2309)">
<path d="M123.639 53.4111C131.838 56.1021 138.644 57.128 145.069 56.6483C153.153 56.0418 157.439 51.4138 157.466 43.2661C157.477 39.5683 157.302 35.816 157.133 32.1878C157.084 31.1644 157.038 30.1413 156.994 29.1182C156.998 27.9556 156.614 26.8246 155.904 25.9045C155.193 24.9844 154.195 24.3276 153.07 24.0381C151.54 23.5786 149.985 23.2059 148.414 22.9221C131.735 19.9063 118.898 13.4599 109.168 3.21375C107.516 1.50697 105.287 0.477395 102.916 0.325928H102.846C97.8289 0.391562 92.7514 0.924974 87.84 1.44151L85.346 1.69949C82.4856 1.99156 80.7641 3.86546 80.6243 6.83866C80.5586 8.20843 80.5311 9.2568 80.5317 10.2367C80.535 17.1427 80.5442 24.0486 80.5593 30.9546C80.5888 47.348 80.6197 64.2997 80.5186 80.9675C80.4713 88.7937 80.0546 96.6835 79.2781 104.417C79.1062 106.39 78.5371 108.308 77.6064 110.056C76.6757 111.804 75.4011 113.346 73.8607 114.59C72.1838 115.89 70.2627 116.838 68.2116 117.379C66.1606 117.92 64.021 118.042 61.9217 117.737C53.4963 116.673 48.8973 111.668 47.4468 101.985C46.6415 96.6126 47.7094 91.7642 50.5421 87.9621C53.3263 84.2209 57.5609 81.8476 62.786 81.0994C67.657 80.4017 69.1443 78.5049 68.6783 73.5811C68.2805 69.3857 67.6439 65.151 67.0282 61.0568C66.6272 58.3901 66.2124 55.6315 65.8685 52.9182C65.519 50.155 63.842 48.5143 60.8839 48.0424C59.0443 47.7567 57.1731 47.7379 55.3282 47.987C32.9011 51.0108 16.4072 62.638 6.30488 82.546C-0.98047 96.8968 -1.85533 113.37 3.89681 127.742C9.48159 141.699 20.676 152.256 35.4167 157.468C44.4782 160.732 54.0334 162.415 63.6649 162.443C73.9828 162.443 84.4337 160.478 95.172 156.549C107.86 151.904 115.307 142.42 117.302 128.362C120.085 108.757 120.526 92.2782 118.689 76.5011C118.024 70.7844 117.787 65.0264 117.537 58.9304C117.434 56.4146 117.327 53.8226 117.188 51.1697C117.903 51.4204 118.561 51.6527 119.178 51.8699C120.893 52.4764 122.247 52.9549 123.639 53.4111ZM106.049 58.6061C106.172 70.0821 106.3 81.95 106.15 93.6151L106.141 94.2767C106.01 104.825 105.869 115.732 103.844 126.328C101.991 136.03 96.9828 142.137 88.5331 144.997C70.6552 151.046 54.2202 151.087 38.2863 145.119C16.0555 136.791 9.3536 116.291 12.5736 99.6679C16.8011 77.8486 29.1134 63.9506 49.169 58.3586C51.2694 57.7738 53.7635 57.0892 56.2989 56.4473C56.9052 56.3112 57.5187 56.2096 58.1365 56.1428C58.3879 56.1093 58.6617 56.0727 58.9649 56.0307L59.8575 72.1673C59.6225 72.2854 59.4039 72.4016 59.1965 72.5112C58.7362 72.7889 58.2415 73.0041 57.725 73.1525C43.4608 76.255 35.2913 89.849 37.8583 106.21C38.5845 110.946 40.5634 115.404 43.59 119.119C46.6167 122.835 50.5811 125.675 55.0734 127.344C59.7698 129.141 64.8571 129.671 69.8229 128.878C74.7888 128.085 79.4586 125.998 83.3619 122.827C88.904 118.291 91.6035 112.627 91.169 106.448C90.6689 99.3207 90.9983 92.0944 91.318 85.1057C91.5201 80.6649 91.7302 76.0738 91.7256 71.5444C91.7151 59.8963 91.6691 48.0542 91.6245 36.6017C91.6028 31.1944 91.5831 25.7876 91.5648 20.3811C91.5582 18.4121 91.5602 16.443 91.5648 14.4221V11.9765C94.1402 11.0032 96.6684 11.1718 99.1179 11.3372C100.037 11.3989 100.981 11.4619 101.909 11.4619H101.924L102.661 12.1932C112.385 21.8414 114.451 23.8885 145.679 34.1805L145.231 42.8821C145.034 42.9799 144.855 43.0789 144.686 43.1721C144.421 43.3418 144.13 43.4664 143.824 43.541C134.56 42.8479 123.879 41.6536 114.355 36.229C113.007 35.5351 111.584 34.9967 110.115 34.6247C109.307 34.3838 108.47 34.1344 107.556 33.82C107.461 33.7873 107.361 33.776 107.261 33.787C107.162 33.7979 107.066 33.8309 106.981 33.8834C106.896 33.936 106.824 34.0068 106.769 34.0908C106.715 34.1747 106.68 34.2699 106.668 34.3689C106.548 35.2707 106.42 36.0597 106.303 36.7757C106.067 37.9876 105.931 39.2167 105.899 40.451C105.917 46.5031 105.983 52.6557 106.048 58.6061H106.049Z" fill="black"/>
</g>
<defs>
<clipPath id="clip0_8_2309">
<rect width="157.521" height="162.772" fill="white"/>
</clipPath>
</defs>
</svg>
