<svg width="156" height="159" viewBox="0 0 156 159" fill="none" xmlns="http://www.w3.org/2000/svg">
<g clip-path="url(#clip0_6_2254)">
<path d="M155.511 46.2778C154.707 61.5049 153.013 76.6413 147.82 91.1504C142.916 104.849 138.832 118.883 131.669 131.684C130.684 133.444 129.562 135.145 128.759 136.985C125.304 144.906 119.229 150.351 112.34 155.231C101.695 162.779 88.0413 156.392 86.0959 145.477C85.2328 140.633 84.7963 135.708 84.2732 130.809C83.5001 123.561 82.9986 116.28 82.0285 109.061C81.4556 105.522 80.5498 102.046 79.3231 98.6772C78.252 95.4822 75.8944 95.0332 73.4332 97.3816C71.262 99.5318 69.8069 102.3 69.2667 105.307C67.8969 111.888 66.9413 118.571 65.2631 125.069C63.5875 131.553 61.371 137.909 59.125 144.228C57.9082 147.652 55.4456 150.327 52.7185 152.756C46.6461 158.163 37.63 156.71 32.7265 151.436C23.4393 141.449 16.8352 130.105 13.6389 116.766C11.1047 106.195 7.84347 95.7834 5.65784 85.1468C2.35974 69.0948 -0.201388 52.8885 0.534366 36.3981C0.764246 32.4823 1.3112 28.5916 2.16992 24.7644C4.14288 15.388 10.3087 9.48427 18.7984 5.82913C26.2524 2.62029 33.8573 1.77289 41.7202 4.71788C47.4907 6.87854 53.3413 8.90538 59.2904 10.4858C65.2551 12.0238 71.2948 13.2547 77.3856 14.1737C81.7037 14.857 85.811 13.5396 89.7346 11.6455C94.5797 9.30627 99.4583 7.03646 104.371 4.83597C110.054 2.28085 116.054 1.08971 122.253 0.469465C134.824 -0.788076 146.105 8.62959 150.19 16.971C153.157 23.031 154.275 29.5255 154.938 36.1276C155.271 39.4775 155.325 42.8524 155.511 46.2778ZM8.02652 41.7208C8.03768 51.3946 9.7987 68.8651 12.4746 81.2521C14.8886 92.4263 17.8631 103.478 20.5311 114.598C23.3292 126.211 28.7755 137.02 36.444 146.179C39.5498 149.943 43.8973 150.428 47.1422 146.844C49.0732 144.682 50.6101 142.198 51.6829 139.505C55.1405 130.827 56.9505 121.692 58.5599 112.516C59.4302 107.552 60.2663 102.56 62.6009 97.994C64.4295 94.4156 66.8612 91.3985 70.5052 89.518C76.4044 86.474 82.574 88.185 85.9114 93.8991C86.8421 95.5616 87.6205 97.3055 88.2368 99.1085C90.7309 106 92.0049 113.169 92.8896 120.419C93.7737 127.658 94.4977 134.924 95.6279 142.124C96.6124 148.379 100.944 150.775 106.974 148.655C110.836 147.316 114.107 144.667 116.219 141.168C122.276 131.316 127.901 121.233 131.886 110.329C134.31 103.7 136.747 97.0712 139.053 90.4015C145.315 72.2865 148.489 53.7233 146.777 34.5064C146.306 29.2288 145.488 23.9303 142.642 19.374C138.195 12.2632 132.301 7.3471 123.184 7.83016C118.463 8.01217 113.81 9.02175 109.439 10.8127C103.866 13.1755 98.3812 15.7562 92.9375 18.4058C87.9638 20.8264 82.7722 22.0243 77.2865 21.4578C72.9429 21.0089 68.5139 20.6459 64.3363 19.4789C56.0284 17.1568 47.779 14.5518 39.6713 11.6088C31.4546 8.62571 24.263 10.6368 17.3314 15.0448C13.6918 17.3683 11.0794 20.9965 10.0303 25.1852C8.54588 30.5672 7.87057 36.14 8.02652 41.7208Z" fill="black"/>
<path d="M143.705 41.7688C143.405 45.1129 143.273 48.4851 142.735 51.7905C142.439 53.5448 141.739 55.2062 140.689 56.6428C140.264 57.1218 139.743 57.5066 139.16 57.773C138.578 58.0394 137.946 58.1814 137.305 58.1898C135.7 58.1359 134.868 56.608 134.779 55.0728C134.7 53.1764 134.755 51.2769 134.944 49.3883C135.169 46.7131 135.557 44.0517 135.815 41.3811C136.567 33.5818 133.367 27.4567 127.684 22.4128C126.847 21.6698 125.781 21.1145 125.141 20.239C124.473 19.4215 124.112 18.3963 124.12 17.3406C124.321 15.9045 125.794 15.4372 127.02 15.7339C128.646 16.0598 130.193 16.7024 131.571 17.6249C139.612 23.6185 144.268 31.3731 143.705 41.7688Z" fill="black"/>
<path d="M140.638 69.5422C140.685 71.6327 140.431 73.5846 138.223 74.6033C137.569 74.9439 136.818 75.0542 136.093 74.917C135.368 74.7798 134.71 74.4024 134.225 73.8458C132.65 72.1715 132.879 70.2124 133.696 68.225C134.829 65.4681 136.124 64.2769 137.841 64.5165C139.775 64.7856 140.582 66.2402 140.638 69.5422Z" fill="black"/>
</g>
<defs>
<clipPath id="clip0_6_2254">
<rect width="155.552" height="158.834" fill="white"/>
</clipPath>
</defs>
</svg>
