<svg width="101" height="149" viewBox="0 0 101 149" fill="none" xmlns="http://www.w3.org/2000/svg">
<g clip-path="url(#clip0_8_2969)">
<path d="M45.0722 34.792C36.0699 34.8984 27.0905 33.8655 18.3476 31.7174C13.7493 30.5359 9.37265 28.7634 5.70703 25.6353C-2.1559 18.9276 -1.68661 8.64649 6.71842 2.67315C8.41112 1.47008 10.2407 0.638073 12.3816 1.21434C14.4957 1.78469 14.9227 3.46275 13.3068 4.94213C11.9075 6.22265 10.2128 7.22466 8.98613 8.64235C4.94967 13.3069 5.68236 18.0537 10.8642 21.4371C14.8915 24.0625 19.4621 25.2776 24.1181 26.1013C33.8768 27.7318 43.8047 28.0989 53.6572 27.1935C61.3889 26.5661 69.1081 25.7633 76.5503 23.5298C80.0847 22.4804 83.4759 20.9961 86.6441 19.1104C87.3464 18.7352 87.966 18.2228 88.4661 17.6035C88.9662 16.9843 89.3364 16.2709 89.5556 15.5057C89.7748 14.7405 89.8385 13.9391 89.742 13.1489C89.6455 12.3588 89.3909 11.5962 88.9944 10.9062C88.409 9.96337 87.6549 9.13684 86.7688 8.46803C85.4863 7.38836 84.066 6.47351 82.752 5.42862C81.2247 4.21373 81.2595 3.08882 82.9378 1.98092C83.9636 1.28244 85.1404 0.838497 86.3717 0.685551C87.603 0.532605 88.8533 0.675168 90.0183 1.10153C97.624 3.61793 100.972 10.9884 97.8196 18.3682C96.1032 22.387 93.0145 25.0771 89.2123 27.0166C83.5449 29.9084 77.3897 31.2212 71.2024 32.3436C67.6713 32.9842 64.1001 33.474 60.5257 33.7871C55.3846 34.2386 50.2238 34.4678 45.0722 34.792Z" fill="black"/>
<path d="M42.178 51.9728C39.6019 51.7955 36.0082 51.6871 32.4528 51.2388C30.9114 51.0046 29.4461 50.4125 28.1741 49.5108C26.1605 48.1056 26.2664 46.3047 28.3273 44.9107C29.2499 44.2828 30.3059 43.8784 31.4119 43.7294C33.9694 43.4227 36.5429 43.2671 39.1187 43.2635C51.0411 43.3258 62.8696 42.4942 74.5099 39.7632C82.0519 37.9911 89.4895 35.9139 96.2649 31.989C96.555 31.821 96.8681 31.6914 97.1667 31.5378C98.2949 30.9589 99.5951 30.9233 100.133 32.0377C100.337 32.5281 100.432 33.0567 100.41 33.5876C100.389 34.1185 100.251 34.6385 100.007 35.1105C99.1442 36.4225 97.9904 37.5184 96.6364 38.3134C93.0869 40.4422 89.3956 42.3245 85.5889 43.9467C71.9843 49.3018 57.7503 51.5363 42.178 51.9728Z" fill="black"/>
<path d="M49.6646 78.5854C42.9601 78.103 36.2519 77.6718 29.5559 77.0975C28.1132 76.9 26.7063 76.4957 25.3788 75.8977C24.7205 75.693 24.1697 75.2375 23.8466 74.6284C23.5235 74.0193 23.4543 73.3072 23.6541 72.6469C24.0544 70.9837 25.3606 70.7435 26.821 70.8964C30.1683 71.2482 33.5154 71.9328 36.8522 71.8974C44.1376 71.8206 51.4231 71.4018 58.7085 71.0802C67.0216 70.7133 75.2049 69.3691 83.3572 67.7742C86.3915 67.1835 88.2279 67.9482 88.7392 69.7853C89.2406 71.581 87.9864 73.105 85.0047 74.1565C77.9365 76.6506 70.539 77.2367 63.1484 77.6587C58.6761 77.9134 54.1782 77.7053 49.6935 77.7053L49.6646 78.5854Z" fill="black"/>
<path d="M54.2209 65.5028C39.9193 64.5026 26.2367 63.7674 12.9655 60.0138C10.7235 59.3132 8.53256 58.4598 6.40761 57.4589C5.49702 57.0224 4.65852 56.4492 3.92135 55.7591C1.99893 54.0559 1.45819 52.1021 2.4276 50.7487C3.2874 49.5476 4.77645 49.9259 7.26202 50.9852C10.634 52.4676 14.133 53.6428 17.7163 54.4957C27.7077 56.7457 37.9314 57.1639 48.1046 57.9364C51.2353 58.174 54.3621 58.4753 57.4843 58.81C58.3764 58.9196 59.2524 59.1348 60.094 59.4504C61.4841 59.9518 62.3486 60.9237 62.2521 62.4904C62.2413 63.1213 61.9972 63.7261 61.5669 64.1876C61.1366 64.6492 60.5505 64.9345 59.9219 64.9895C57.8308 65.294 55.7042 65.3775 54.2209 65.5028Z" fill="black"/>
<path d="M47.3583 104.105C46.1953 104.052 44.1778 104.01 42.1695 103.849C41.167 103.764 40.1772 103.566 39.2191 103.259C37.7752 102.799 36.3937 102.065 36.5624 100.278C36.7271 98.5331 38.1843 97.9811 39.6748 97.7409C40.6759 97.6136 41.6851 97.5657 42.6937 97.5965C51.5576 97.5847 60.3833 97.2191 69.0715 95.1996C70.6401 94.8346 72.5343 94.2866 73.4657 96.377C74.1023 97.8039 73.1001 99.257 70.5889 100.258C63.411 103.116 55.8874 104.083 47.3583 104.105Z" fill="black"/>
<path d="M42.2641 90.2409C36.0329 89.5971 29.7937 89.0129 23.5749 88.2719C21.9175 88.0114 20.2991 87.546 18.7562 86.887C17.8012 86.5661 16.9608 85.9734 16.3381 85.1812C16.0975 84.7822 15.9448 84.3359 15.8904 83.8731C15.8361 83.4111 15.8815 82.9425 16.0232 82.4988C16.2437 81.9888 17.6461 81.5294 18.3005 81.7381C28.4474 84.9653 38.9411 83.8764 49.3053 84.3726C50.5316 84.3601 51.7515 84.5518 52.9152 84.9384C53.6962 85.2567 54.7739 86.2924 54.7095 86.9002C54.6107 87.4088 54.4034 87.8899 54.1019 88.3113C53.8005 88.7327 53.4118 89.0845 52.9623 89.3417C51.9227 89.8609 50.5739 89.857 49.3525 89.8963C47.0021 89.9718 44.6472 89.918 42.2936 89.918L42.2641 90.2409Z" fill="black"/>
<path d="M47.3879 114.083C40.6224 113.498 34.6799 113.057 29.1246 110.678C27.8659 110.231 26.7224 109.51 25.7772 108.567C25.4832 108.128 25.2913 107.629 25.2154 107.106C25.1395 106.584 25.1817 106.051 25.3388 105.547C25.5679 104.942 26.9376 104.732 27.827 104.432C28.1638 104.382 28.5079 104.438 28.8115 104.592C35.4215 107.156 42.4181 107.181 49.3333 107.752C50.2127 107.824 51.3022 107.811 51.8929 108.311C52.7161 108.987 53.2548 109.948 53.4024 111.002C53.3405 111.476 53.1634 111.927 52.8867 112.316C52.61 112.705 52.2422 113.02 51.8153 113.234C50.3691 113.654 48.887 113.938 47.3879 114.083Z" fill="black"/>
<path d="M48.3772 125.224C46.9142 125.128 44.9991 125.088 43.1108 124.843C42.1145 124.711 41.1546 124.381 40.2884 123.871C37.9912 122.493 37.9914 120.806 40.4435 119.709C42.1064 119.071 43.8575 118.693 45.6355 118.588C51.6456 117.944 57.6688 117.42 63.6848 116.831C64.924 116.71 66.2448 116.384 66.8486 117.914C67.3973 119.31 66.5952 120.299 65.5666 121.084C62.3165 123.568 58.4303 124.245 54.5336 124.793C52.6493 125.058 50.7282 125.068 48.3772 125.224Z" fill="black"/>
<path d="M51.8051 140.976C49.7456 140.549 48.3113 140.523 47.1778 139.926C46.3476 139.489 45.4248 138.295 45.4366 137.451C45.4484 136.607 46.4612 135.2 47.2297 135.053C50.5164 134.439 53.8403 134.044 57.1792 133.871C57.6422 133.94 58.0795 134.128 58.449 134.415C58.8185 134.703 59.1076 135.08 59.2886 135.512C59.4291 136.424 58.9604 137.997 58.2667 138.365C56.1685 139.368 54.0107 140.24 51.8051 140.976Z" fill="black"/>
<path d="M17.5454 47.3622C15.0973 46.8214 12.2193 46.1309 10.0632 44.026C9.73001 43.6131 9.48572 43.1356 9.34599 42.6236C9.20625 42.1117 9.17422 41.5764 9.25148 41.0514C9.31252 40.7421 9.43755 40.4492 9.61876 40.1912C9.79991 39.9332 10.0331 39.7159 10.3033 39.5535C10.5735 39.391 10.8747 39.2867 11.1875 39.2477C11.5003 39.2088 11.8176 39.236 12.1194 39.3272C14.6385 39.8498 17.1172 40.5518 19.5362 41.4276C20.2462 41.6581 20.8462 42.1419 21.2216 42.7871C21.597 43.4322 21.7214 44.1935 21.5709 44.9247C21.3255 46.3778 19.8524 47.3399 17.5454 47.3622Z" fill="black"/>
<path d="M45.8124 127.96C47.4874 127.96 49.1639 127.918 50.8369 127.974C52.1614 128.018 53.2967 128.451 53.4122 130.023C53.5258 131.564 52.4185 132.195 51.2128 132.577C50.4621 132.798 49.6764 132.874 48.8973 132.802C46.4531 132.601 44.011 132.35 41.5806 132.027C40.7965 131.975 40.0442 131.696 39.4144 131.226C38.8058 130.653 38.4338 129.872 38.3716 129.039C38.3716 128.657 39.4769 127.999 40.1201 127.949C42.0064 127.802 43.9117 127.896 45.8099 127.896L45.8124 127.96Z" fill="black"/>
<path d="M74.866 62.6292C73.4371 62.4192 72.641 62.5186 72.1448 62.1793C71.3933 61.6667 70.5092 60.9261 70.3287 60.1346C70.3248 59.7147 70.4291 59.3007 70.6313 58.9328C70.8341 58.5649 71.1281 58.2553 71.4852 58.0342C74.0062 57.1565 76.6 56.504 79.2359 56.0838C79.9913 55.9729 81.2554 56.9539 81.7149 57.7599C81.8658 58.0359 81.9551 58.3414 81.9761 58.6553C81.9964 58.9692 81.9485 59.2841 81.8356 59.5776C81.7227 59.8712 81.5468 60.137 81.3211 60.3558C81.0953 60.5746 80.8242 60.7413 80.5269 60.8448C78.6714 61.5346 76.7818 62.1301 74.866 62.6292Z" fill="black"/>
<path d="M47.4592 142.338C48.9432 142.666 51.0257 143.084 53.082 143.602C54.3225 143.914 55.1626 144.905 54.7655 146.077C54.585 146.57 54.3032 147.019 53.938 147.397C53.5729 147.774 53.1324 148.071 52.6455 148.268C50.1593 148.946 47.7886 148.071 45.5387 146.982C44.3172 146.391 43.6138 145.43 43.9334 143.999C44.2005 142.803 45.1378 142.294 47.4592 142.338Z" fill="black"/>
<path d="M65.5198 89.3973C63.8664 89.2706 62.8976 89.3973 62.1067 89.0777C61.3709 88.783 60.3537 88.0525 60.3084 87.4506C60.2481 86.642 60.8432 85.1921 61.4352 85.0294C63.8882 84.3553 66.4017 83.9267 68.9391 83.7482C69.5692 83.7049 70.7801 84.9165 70.8425 85.6306C70.9238 86.5317 70.3443 88.0032 69.6217 88.359C68.1764 89.0704 66.4384 89.1906 65.5198 89.3973Z" fill="black"/>
<path d="M61.3223 112.851C59.371 112.815 58.1936 111.909 58.2579 110.493C58.3235 109.049 60.0897 107.882 62.0876 108.012C63.5388 108.106 64.7975 108.571 64.9498 110.258C65.0928 111.84 63.5552 112.89 61.3223 112.851Z" fill="black"/>
<path d="M29.9253 101.207C27.999 101.095 26.4218 99.714 26.5367 98.2392C26.6338 97.5743 26.9739 96.9692 27.4913 96.5406C28.0088 96.112 28.6667 95.8902 29.3379 95.9184C31.2242 95.9394 33.121 97.6256 32.8414 99.1483C32.5546 100.71 31.4546 101.31 29.9253 101.207Z" fill="black"/>
</g>
<defs>
<clipPath id="clip0_8_2969">
<rect width="100.42" height="148.989" fill="white"/>
</clipPath>
</defs>
</svg>
