<svg width="128" height="153" viewBox="0 0 128 153" fill="none" xmlns="http://www.w3.org/2000/svg">
<g clip-path="url(#clip0_6_2172)">
<path d="M109.369 76.0911C107.173 70.4262 101.946 67.5226 96.061 68.6863C94.642 69.0367 93.2755 69.5743 91.9982 70.2844C91.4732 70.5437 90.9376 70.8095 90.3863 71.0596C89.64 69.21 88.4658 67.5646 86.9595 66.2571C85.4539 64.9504 83.6588 64.0196 81.7226 63.5412C77.0981 62.3191 73.3103 63.3443 70.4592 66.5801C68.3182 63.1356 66.0939 61.4344 63.0854 60.9205C59.9291 60.3796 57.3783 61.5985 54.6052 63.6548C54.5127 62.3296 54.4297 61.0347 54.347 59.7628C54.1409 56.5585 53.9457 53.5327 53.6457 50.4939C53.5282 49.3125 53.4167 48.1311 53.3038 46.9497C52.7977 41.6261 52.2748 36.1201 51.3165 30.7808C50.5958 27.3523 49.2716 24.0792 47.4054 21.1143C46.1951 19.0639 44.6381 17.7925 42.778 17.3357C40.7965 16.8493 38.5354 17.3469 36.2415 18.7725C32.5772 21.0506 31.6947 24.8344 31.3357 27.8759C31.0495 30.2991 31.0028 32.7839 30.9582 35.1868L30.9364 36.3078C30.8974 38.1679 30.8563 40.0275 30.813 41.8867C30.6673 48.3273 30.5159 54.9865 30.5191 61.5381C30.5191 66.395 30.6702 71.1705 30.8277 76.2256C30.8899 78.2117 30.9494 80.2194 31.0063 82.2482C30.957 82.2068 30.909 82.1648 30.8617 82.1241C30.4194 81.7434 30.0375 81.4146 29.626 81.112C22.9609 76.223 15.8335 74.483 8.43986 75.9493C6.81766 76.2269 5.29369 76.9148 4.01244 77.9478C2.73119 78.9809 1.73537 80.3244 1.11981 81.8504C0.515868 83.4735 0.330671 85.2227 0.581086 86.9364C0.831501 88.6494 1.50952 90.2726 2.55266 91.6548C3.61268 93.0147 4.81665 94.2559 6.14393 95.3565L6.60349 95.7648C11.4881 100.014 15.5534 105.121 18.5987 110.834C22.7618 118.859 27.4469 127.33 32.9234 136.731C34.3476 139.176 36.6363 141.184 38.4715 142.66C41.8227 145.356 45.8543 147.593 51.1589 149.701C56.0345 151.661 61.2409 152.668 66.4956 152.667C72.3488 152.596 78.1449 151.51 83.626 149.456C88.5118 147.602 92.9525 144.74 96.6595 141.057C100.366 137.373 103.256 132.951 105.141 128.077C110.326 114.724 112.343 100.191 111.311 83.6481C111.049 81.0458 110.394 78.4972 109.369 76.0911ZM37.1062 90.2424C36.9559 81.4409 36.7669 72.8809 36.6015 65.6684C36.5582 63.7611 36.4865 61.8525 36.4156 59.9445C36.2758 56.1961 36.1314 52.3198 36.2089 48.517C36.3329 42.329 36.7538 36.0394 37.1594 29.9571L37.2873 28.0307C37.5131 24.627 38.7248 22.9113 41.3298 22.3285C43.4419 23.7068 44.7511 25.9824 45.3293 29.2805C46.1984 34.2336 46.8101 39.2284 47.1618 44.2449C47.616 50.7912 47.9578 57.4563 48.288 63.9029C48.4573 67.2056 48.6325 70.5089 48.8132 73.8136C48.9288 75.8692 49.7622 77.0578 51.363 77.4477C52.9815 77.8448 54.3198 76.9817 55.3286 74.888L55.7946 73.9146C56.7253 71.9686 57.6876 69.9563 58.7817 68.0732C59.4446 66.9299 60.6445 65.6481 62.6201 66.0386C64.3088 66.3753 65.4317 67.6046 65.7828 69.5001C66.0381 71.0674 66.1982 72.6486 66.2639 74.2349L66.3197 75.119C66.3302 75.4597 66.3111 75.8003 66.2619 76.1377C66.1484 76.7165 66.174 77.3138 66.3361 77.8809C66.7056 78.8549 67.4203 79.6583 68.3451 80.138C68.6451 80.2732 68.97 80.3454 69.2988 80.3494C69.6276 80.354 69.9538 80.2903 70.2577 80.163C70.5609 80.0363 70.8353 79.8479 71.0624 79.6097C71.2901 79.3721 71.466 79.0899 71.5796 78.7814C71.7902 78.2806 71.9596 77.7634 72.0863 77.2351C72.1519 76.9896 72.2175 76.7441 72.293 76.5026C72.4341 76.0464 72.5634 75.5837 72.6914 75.1243C72.952 74.0846 73.2913 73.066 73.7068 72.0776L73.7376 72.0119C74.7096 69.8657 75.6279 67.8343 78.3477 68.0293C80.5419 68.1822 83.4015 69.0512 84.5652 72.3204C85.0975 74.0623 85.4184 75.8613 85.5215 77.6794L85.6009 78.4795C85.6364 78.8181 85.6482 79.1673 85.6606 79.5165C85.7171 81.1022 85.7814 82.8993 88.028 83.5064C90.3633 84.1365 91.2625 82.533 92.054 81.1166C92.2142 80.8298 92.3737 80.543 92.5456 80.2752C92.7064 80.0238 92.8659 79.7705 93.0254 79.5165C93.71 78.3416 94.5074 77.237 95.4079 76.2184C96.6786 74.8814 98.1146 74.2422 99.4667 74.4233C100.796 74.6012 102 75.5752 102.858 77.1661C104.964 80.8443 105.976 85.0474 105.773 89.2808C105.244 97.1569 104.314 105.137 103.485 112.001C102.763 117.969 100.344 123.469 98.074 128.062C94.5593 135.172 88.5452 139.997 79.6886 142.812C66.9996 146.846 54.551 144.644 42.6844 136.267C41.4214 135.405 40.3177 134.33 39.4229 133.089C37.4384 130.249 35.6116 127.303 33.9505 124.263C31.2372 119.209 28.5789 113.958 26.0514 108.673C22.0523 100.302 16.9377 93.7085 10.4143 88.5234C9.30905 87.64 8.37725 86.5596 7.66617 85.3362C7.46664 85.0251 7.33603 84.6746 7.28293 84.3084C7.22984 83.9428 7.25537 83.5694 7.35822 83.2143C7.5162 82.8126 7.75668 82.4477 8.06391 82.1445C8.37114 81.8412 8.7385 81.6049 9.14234 81.452C10.4322 80.8758 11.83 80.5811 13.2428 80.5876C14.0052 80.5909 14.7659 80.6644 15.5147 80.8075C21.2465 81.8767 25.0892 84.0091 27.6089 87.5179C28.4954 88.9113 29.1792 90.4235 29.6391 92.0092C29.7789 92.4129 29.9171 92.8152 30.0609 93.2116C30.622 94.7521 31.4072 96.1796 33.3329 96.196H33.3675C35.0536 96.196 36.2784 95.1459 36.73 93.3166C36.9885 92.3124 37.1161 91.2794 37.1094 90.2424H37.1062Z" fill="black"/>
<path d="M108.978 3.97656C105.924 2.86078 102.634 1.90322 99.2771 2.4506C87.6271 4.34873 80.0615 9.07504 75.4678 17.3246C73.7167 20.4449 72.6855 23.9172 72.4499 27.4875C72.2143 31.0578 72.7801 34.6356 74.1052 37.9591C75.368 41.1692 77.3324 44.0564 79.8547 46.4094C82.377 48.7623 85.3936 50.5217 88.6838 51.5585C90.9928 52.2285 93.3503 52.7159 95.7355 53.0162C96.4332 53.1193 97.0403 53.2085 97.5174 53.2991L97.5535 53.3063H97.5896C106.104 53.0707 111.61 51.7587 116.595 48.7776C122.935 44.9872 126.499 39.2888 127.19 31.8407C128.415 18.6345 117.199 6.98257 108.978 3.97656ZM112.767 42.5121C108.792 44.9524 104.139 46.1877 98.1272 46.3898C97.8141 46.3517 97.4708 46.3136 97.1039 46.2729C96.2133 46.1738 95.2045 46.0616 94.2023 45.9034C87.6185 44.8677 82.7492 41.1844 80.4914 35.5333C79.3231 32.4577 78.9582 29.1349 79.4307 25.8789C79.904 22.623 81.1996 19.5414 83.1948 16.9254C86.6353 12.4459 91.0361 9.9374 96.275 9.47009C96.55 9.44581 96.8342 9.4334 97.1249 9.4334C98.3497 9.44423 99.5659 9.62801 100.739 9.97941C106.898 11.6833 112.245 15.5316 115.817 20.8301C118.948 25.4704 119.916 29.6249 118.864 33.9082C118.489 35.6826 117.754 37.3614 116.706 38.8411C115.657 40.3209 114.317 41.5702 112.767 42.5121Z" fill="black"/>
<path d="M56.6295 35.4216C58.3793 36.7651 60.1816 35.8594 61.3854 35.0606C63.9451 33.3627 65.534 30.841 66.2423 27.3519C67.3961 21.693 65.9922 15.4775 62.3903 10.3003C60.653 7.72606 58.4144 5.52872 55.8084 3.83961C53.2023 2.15049 50.2824 1.00428 47.2231 0.469627C34.5361 -1.49939 21.7517 7.19055 17.1764 16.3714C13.7556 23.2334 15.0446 31.5945 20.3098 36.7041C21.4577 37.8199 23.2685 39.2895 25.7934 39.2895H25.8953C27.4705 39.2645 29.1586 38.977 29.7238 37.0323C30.2849 35.098 28.8481 34.1444 27.7993 33.4421C22.3419 29.8027 20.9043 23.8898 24.1388 18.3778C28.0611 11.693 34.3627 7.51084 41.4295 6.9011C46.5293 6.87223 51.1131 8.63383 54.3252 11.8276C55.7515 13.2443 56.882 14.9303 57.6514 16.7875C58.4209 18.6448 58.814 20.6364 58.8074 22.6466C58.8133 25.656 57.6108 28.1901 56.2712 30.736C55.7369 31.7553 54.6191 33.8779 56.6295 35.4216Z" fill="black"/>
<path d="M107.631 24.2728H107.605C106.785 24.276 105.96 24.3449 105.162 24.4118C104.742 24.4473 104.324 24.4821 103.904 24.5077C103.164 24.5543 102.423 24.5924 101.594 24.639L100.72 24.6849C100.664 23.8106 100.613 22.9562 100.561 22.116C100.43 19.9186 100.303 17.8426 100.123 15.7574C99.8722 12.8374 98.3942 12.1627 97.1983 12.1108C95.4761 12.0452 94.3327 13.3132 94.1043 15.6183C93.7762 18.9656 93.4309 22.945 93.3725 27.0386C93.3246 27.6874 93.4171 28.339 93.6436 28.9488C93.87 29.5588 94.2258 30.1127 94.6852 30.573C95.543 31.303 96.645 31.681 97.77 31.6309C98.0266 31.6302 98.2826 31.6162 98.5372 31.589C100.495 31.3816 102.475 31.0875 104.388 30.8013C105.103 30.695 105.818 30.59 106.534 30.4863L106.653 30.4692C107.189 30.4081 107.719 30.3025 108.237 30.1536C110.226 29.5195 111.23 28.2199 110.921 26.6749C110.701 25.5782 109.952 24.2728 107.631 24.2728Z" fill="black"/>
</g>
<defs>
<clipPath id="clip0_6_2172">
<rect width="127.33" height="152.927" fill="white"/>
</clipPath>
</defs>
</svg>
