<svg width="158" height="159" viewBox="0 0 158 159" fill="none" xmlns="http://www.w3.org/2000/svg">
<g clip-path="url(#clip0_8_2704)">
<path d="M8.07165 158.908C8.37082 158.908 8.6804 158.901 9.00029 158.887C14.3593 158.655 19.7936 158.206 25.0478 157.771C27.3226 157.583 29.598 157.394 31.8735 157.222C37.8697 156.768 40.1352 154.132 39.6942 148.122C39.5958 146.781 39.5279 145.446 39.4625 144.156C39.4466 143.839 39.4308 143.527 39.4148 143.22H118.864C118.913 143.482 118.942 143.748 118.951 144.015V144.61C118.974 145.38 118.942 146.15 118.853 146.916C118.241 151.227 118.601 153.893 120.02 155.561C121.722 157.563 124.788 158.011 129.183 158.086C130.271 158.106 131.104 158.099 131.881 158.066C133.838 157.985 135.793 157.892 137.75 157.8C141.692 157.615 145.767 157.422 149.775 157.324C155.199 157.191 157.552 154.899 157.64 149.66C157.769 141.946 157.811 134.249 157.842 127.026C157.863 121.995 156.093 120.184 151.085 120.11C149 120.08 146.899 120.087 144.674 120.094C143.832 120.094 142.966 120.1 142.07 120.101V38.3293C142.588 38.2929 143.108 38.257 143.63 38.2215C145.266 38.1092 146.957 37.9931 148.633 37.8425C153.593 37.3947 156.565 35.9604 157.082 29.9729C157.701 22.8011 157.653 15.4689 157.605 8.37819L157.6 7.67333C157.603 6.09905 157.049 4.57477 156.037 3.3707C155.025 2.16663 153.621 1.36056 152.072 1.09531C148.999 0.479474 145.863 0.231518 142.731 0.35673C138.48 0.472898 134.168 0.715005 129.996 0.949935C127.381 1.0966 124.765 1.24328 122.149 1.36204C117.754 1.56063 116.511 2.82156 116.363 7.22813C116.308 8.87914 116.233 10.5296 116.155 12.1475L116.085 13.7186C101.821 15.341 45.1899 15.8407 36.5919 14.4376C36.5459 13.8536 36.5019 13.2663 36.4565 12.6751C36.327 10.9702 36.1931 9.20823 36.0241 7.45923C35.5345 2.38874 33.8574 0.832451 28.8454 0.798704C22.6336 0.75652 15.8702 0.755248 7.56353 0.794187C5.27189 0.804571 3.74289 1.31336 2.75409 2.38677C1.73875 3.49004 1.35343 5.13975 1.54121 7.57475L1.59117 8.21523C1.74961 9.85202 1.82239 11.496 1.80934 13.1403C1.71803 16.6611 1.58781 20.2408 1.46153 23.7025C1.35663 26.6112 1.25044 29.5199 1.16496 32.43C1.10539 34.4619 1.52585 35.915 2.45118 36.8748C3.36486 37.8217 4.76474 38.2871 6.73195 38.2962C8.61695 38.2962 10.5414 38.1592 12.5772 38.0048C13.3368 37.9477 14.1236 37.8879 14.9499 37.8334L13.2302 121.209L13.2023 122.535L11.5835 122.745C9.71077 122.987 7.69297 123.247 5.67846 123.528C3.10837 123.885 1.85804 125.374 1.7363 128.214C1.39181 136.425 0.95905 143.168 0.382092 149.436C0.0492561 153.042 0.56223 155.425 1.99589 156.935C3.26312 158.273 5.20821 158.908 8.07165 158.908ZM8.63378 29.3986L7.58787 8.71235H27.9149V27.7618L8.63378 29.3986ZM36.9314 23.6227C36.8913 23.1295 36.8528 22.6414 36.8161 22.1586H116.197C116.266 23.0769 116.331 23.9932 116.395 24.9089C116.569 27.3828 116.749 29.9405 117.038 32.4462C117.608 37.3784 119.776 39.2209 124.762 39.0912C126.701 39.0321 128.64 38.9399 130.694 38.8425C131.428 38.8075 132.179 38.7722 132.946 38.7367C131.279 70.2054 131.244 96.2502 132.836 120.577L130.554 120.791C128.412 120.993 126.366 121.185 124.319 121.375C121.337 121.649 119.744 123.298 119.584 126.275C119.493 127.994 119.325 129.734 119.148 131.576C119.083 132.251 119.019 132.944 118.951 133.661L39.0825 135.688C38.973 134.751 38.8726 133.864 38.7755 133.013C38.5274 130.83 38.3139 128.946 38.053 127.029C37.4916 122.899 35.8156 121.242 32.0003 121.242C31.6381 121.242 31.2569 121.257 30.8567 121.287C30.2363 121.331 29.616 121.356 28.9956 121.381C28.2833 121.411 27.5771 121.439 26.87 121.496C25.9809 121.567 25.1042 121.671 23.9936 121.803C23.644 121.843 23.2714 121.888 22.8693 121.932V37.0338C23.3873 36.9864 23.9222 36.9359 24.4739 36.8833C26.2754 36.7139 28.3184 36.5205 30.3245 36.3784C35.0606 36.0435 37.3226 33.5793 37.241 28.8443C37.21 27.0772 37.0681 25.3211 36.9309 23.6234L36.9314 23.6227ZM147.743 28.5751L127.179 29.4258L125.265 8.93047H130.904C136.307 8.93047 141.533 8.93041 146.757 8.9343C148.433 8.9343 149.037 9.55472 149.064 11.2979C149.154 17.1199 149.118 22.8258 147.743 28.5751H147.743ZM8.48297 149.661V130.782L29.787 129.411V147.845L8.48297 149.661ZM126.424 128.642H149.855L148.414 148.137H127.426L126.424 128.642Z" fill="black"/>
</g>
<defs>
<clipPath id="clip0_8_2704">
<rect width="158" height="159" fill="white"/>
</clipPath>
</defs>
</svg>
