<svg width="149" height="134" viewBox="0 0 149 134" fill="none" xmlns="http://www.w3.org/2000/svg">
<g clip-path="url(#clip0_8_2706)">
<path d="M140.693 95.8079C138.709 94.5458 136.591 93.5028 134.379 92.6975C133.364 92.2839 132.318 91.8568 131.269 91.3801L131.047 88.1847C130.858 85.4789 130.655 82.5844 130.464 79.686C130.334 77.7224 130.218 75.7562 130.101 73.7926C129.862 69.7784 129.614 65.6269 129.265 61.5524C128.998 58.433 128.599 58.0876 125.411 58.1553C120.621 58.2635 115.752 58.4091 111.043 58.5495C105.846 58.7054 100.473 58.8659 95.1877 58.9767C91.2612 59.0586 87.3846 59.0411 83.2787 59.0179C81.5296 59.0089 79.7629 58.9999 77.962 58.9986L78.5943 38.5314C88.9161 36.9389 95.0685 30.8329 96.885 20.3783C98.2551 12.491 94.4744 5.93463 87.0186 3.26751C84.0937 2.19239 81.0845 1.3604 78.0209 0.780119C72.7943 -0.16561 68.6508 0.615182 65.7045 3.09934C60.9657 7.09806 57.9955 11.3275 56.6201 16.0297C54.4123 23.5891 56.7393 30.1969 63.1722 34.6363C64.4166 35.4397 65.7304 36.1309 67.0986 36.7017C67.6713 36.9594 68.2439 37.2172 68.8043 37.4961C69.3874 37.7815 69.9769 38.0457 70.2865 38.1823V59.8761C67.4361 60.0797 64.6268 60.2763 61.8584 60.4661C55.2195 60.9261 48.9492 61.3603 42.5863 61.8834C36.8854 62.3499 31.1003 62.9239 25.5057 63.4792C23.3696 63.6914 21.2339 63.9016 19.0987 64.1099C16.6136 64.3508 15.2953 65.71 15.2869 68.0396C15.2778 70.5907 15.3206 72.6916 15.4229 74.652C15.6607 79.2189 15.9243 83.7846 16.1867 88.3264L16.4815 93.4545C8.89801 97.4287 4.062 102.838 1.70067 109.986C0.00790346 115.11 0.256008 120.229 2.39966 124.394C3.42583 126.348 4.83859 128.075 6.55301 129.472C8.26748 130.869 10.2482 131.907 12.3762 132.523C14.8156 133.31 17.3628 133.716 19.9273 133.729C25.0607 133.692 30.041 131.986 34.1082 128.871C42.8538 122.415 43.3928 111.622 40.9835 103.674C39.0167 97.1839 34.3608 93.3984 27.1466 92.4224C26.4172 92.3239 25.6858 92.2362 24.9071 92.1435L24.0384 92.0385L23.1767 70.5147C29.4205 69.0175 66.0912 66.6145 70.8424 67.3799L69.6251 91.6274L69.0369 91.8465C68.4687 92.0584 67.9129 92.2659 67.3525 92.4682C62.0203 94.3854 57.5139 98.0697 54.5905 102.901C52.6483 106.093 51.7294 109.798 51.9561 113.522C52.1828 117.247 53.5443 120.814 55.8596 123.749C61.3978 130.836 71.9566 133.887 81.5367 131.173C89.514 128.912 95.3308 121.615 96.3564 112.583C97.433 103.098 93.6322 96.7806 84.7369 93.2689C83.6713 92.8483 82.5544 92.5248 81.4745 92.2118C80.9718 92.0668 80.4684 91.9212 79.9702 91.7653L77.7029 91.0566L76.8607 66.8394C87.016 65.6559 118.953 65.4272 122.9 66.2415V71.0617C122.9 77.0382 122.9 82.9555 122.891 88.8721C122.879 89.3894 122.839 89.9054 122.77 90.4182C122.746 90.6385 122.719 90.8692 122.695 91.1088L122.076 91.315C121.53 91.4979 120.983 91.6796 120.437 91.8594C116.247 93.2065 112.505 95.661 109.61 98.9614C107.531 101.42 106.061 104.329 105.32 107.456C104.579 110.583 104.588 113.839 105.344 116.961C106.37 120.832 109.166 125.992 116.647 128.593C126.219 131.919 135.194 130.035 142.6 123.141C144.597 121.313 146.163 119.067 147.185 116.566C148.207 114.065 148.66 111.371 148.512 108.674C148.259 105.096 146.691 99.9593 140.693 95.8079ZM137.459 117.538C134.281 120.827 130.139 122.452 124.032 122.806C123.79 122.776 123.533 122.75 123.265 122.721C122.625 122.657 121.963 122.587 121.303 122.46C117.172 121.668 114.015 119.539 112.414 116.468C110.813 113.397 110.885 109.611 112.614 105.804C114.742 101.118 118.358 98.0156 123.071 96.8315C123.654 96.6911 124.252 96.6222 124.852 96.6273C126.893 96.7149 128.898 97.1891 130.759 98.0247C133.312 99.2365 135.618 100.906 137.561 102.951C141.694 107.062 141.653 113.198 137.459 117.538ZM74.3698 98.33C75.4063 98.7166 76.4843 99.0509 77.5247 99.3756C79.2026 99.8581 80.8461 100.453 82.443 101.156C86.4673 103.045 88.2618 105.969 88.2618 110.637C88.2618 118.625 83.5929 123.878 75.4484 125.053C67.9045 126.139 60.7338 121.969 58.7709 115.351C58.2572 113.825 58.087 112.205 58.2723 110.607C58.4576 109.008 58.9938 107.47 59.8431 106.1C61.0362 104.284 62.4066 102.589 63.9347 101.04C66.077 98.7778 68.3683 97.6549 70.8709 97.6549C72.0687 97.6697 73.2536 97.8984 74.3698 98.33ZM70.1531 7.27973C71.0037 6.8383 71.9417 6.5895 72.9005 6.55117C73.1525 6.54885 73.4039 6.57784 73.6481 6.63743C77.1639 7.52724 80.622 8.62946 84.0023 9.93789C87.9301 11.4667 89.8204 14.5989 89.47 18.9977C88.8118 27.2342 82.8038 32.4112 73.7861 32.5162C73.4836 32.4325 73.1046 32.3449 72.6731 32.245C71.1909 31.9439 69.7417 31.5012 68.345 30.9231C61.9349 28.0446 59.7841 22.6441 62.4434 16.1058C64.1051 12.011 66.6995 9.0417 70.1531 7.27973ZM14.5697 101.692C16.2742 100.633 18.2507 100.088 20.2602 100.122C22.2077 100.136 24.1305 100.556 25.9047 101.355C29.8565 103.106 32.5404 106.259 33.0917 109.785C33.2362 110.706 33.2964 111.633 33.3444 112.379C33.3632 112.662 33.38 112.914 33.3981 113.124C33.3334 119.103 30.5477 123.307 25.3308 125.28C20.7759 127.003 16.9615 127.076 13.3291 125.509C9.09366 123.683 6.98887 120.385 7.24411 115.975C7.53304 110.968 9.68901 106.472 13.8344 102.233C14.0289 102.051 14.2429 101.892 14.4726 101.757L14.5697 101.692Z" fill="black"/>
</g>
<defs>
<clipPath id="clip0_8_2706">
<rect width="149" height="134" fill="white"/>
</clipPath>
</defs>
</svg>
