<svg width="159" height="142" viewBox="0 0 159 142" fill="none" xmlns="http://www.w3.org/2000/svg">
<g clip-path="url(#clip0_8_2708)">
<path d="M150.978 101.493C149.651 101.534 148.29 101.522 146.976 101.513C146.464 101.509 145.95 101.505 145.436 101.504C145.404 101.018 145.371 100.568 145.34 100.14C145.268 99.1299 145.204 98.2571 145.179 97.3856C145.115 95.1513 145.045 92.9178 144.968 90.6842C144.772 84.6713 144.565 78.4546 144.555 72.3421C144.548 68.015 144.379 67.4568 140.009 67.2614C139.448 67.2366 138.884 67.2262 138.322 67.2138C136.013 67.2177 133.703 67.2177 131.393 67.2138C116.561 67.2099 101.214 67.2047 86.1488 68.5394C85.4946 68.585 84.8377 68.5934 84.1828 68.5648C83.9606 68.5595 83.7365 68.5543 83.509 68.5511L81.7724 38.8572C82.0422 38.8384 82.3061 38.8182 82.5661 38.7986C83.339 38.74 84.0649 38.6853 84.7941 38.6749C85.8367 38.6599 86.8708 38.6631 87.9082 38.6657C89.4135 38.6703 90.9664 38.6749 92.4964 38.6221C96.5829 38.4821 98.066 37.1187 98.1657 33.415C98.4394 22.993 98.4668 14.3916 98.2543 6.35551C98.1963 4.18513 97.6639 2.66677 96.6252 1.71446C95.4796 0.663788 93.6889 0.24886 90.9977 0.411704C83.3298 0.867669 75.7584 1.38879 68.6595 1.88839L67.9674 1.93658C65.8587 2.03784 63.7588 2.26908 61.679 2.62898C59.8062 2.99375 58.7864 4.29782 58.8066 6.2995C58.845 10.0436 58.847 13.8522 58.8489 17.5344C58.8489 22.3937 58.8541 27.4191 58.9414 32.3611C59.0268 37.1813 59.9059 37.744 64.354 38.4638C65.1381 38.5817 65.9285 38.6556 66.7208 38.6853C69.0485 38.7921 71.3762 38.8885 73.7631 38.9875L76.1559 39.0872V68.9152C75.9389 68.9471 75.7232 68.9803 75.5043 69.0155C74.8624 69.1308 74.214 69.2096 73.5631 69.2513C58.2012 69.9405 42.8396 70.6159 27.4783 71.2777C26.2037 71.3331 24.9285 71.3637 23.6532 71.395C22.5897 71.421 21.5256 71.4464 20.4602 71.4868C18.0765 71.5761 16.7335 72.0164 15.973 72.9609C15.234 73.8774 15.0829 75.2798 15.4817 77.5075C15.5735 78.0221 15.6772 78.536 15.7821 79.0487C15.9626 79.9365 16.1489 80.8543 16.2643 81.7603C17.1465 88.4851 17.3762 95.279 16.9505 102.048C15.9352 102.048 14.9349 102.046 13.9497 102.043C11.5099 102.038 9.14382 102.032 6.77706 102.055C3.1357 102.092 1.6239 103.437 1.20034 107.02C0.141783 116.238 0.102859 125.546 1.08433 134.773C1.35606 137.411 2.52317 138.645 5.11344 139.033C6.46124 139.207 7.82275 139.251 9.179 139.163C13.5346 138.962 17.8899 138.753 22.245 138.534C26.9082 138.303 31.571 138.08 36.2338 137.862C38.8201 137.744 40.6402 137.049 41.7975 135.737C42.9548 134.425 43.4116 132.546 43.2063 129.986C42.9997 127.408 42.6928 124.02 42.152 120.668C41.2566 115.115 40.3541 110.166 39.3936 105.537C38.7615 102.486 37.395 101.354 34.5024 101.508C32.1239 101.633 29.7102 101.605 27.3734 101.577C26.4703 101.566 25.5716 101.555 24.6815 101.553L21.8755 77.3421L77.235 75.7312V99.9624C76.7522 99.9943 76.2967 100.028 75.8614 100.056C74.7842 100.13 73.8296 100.196 72.8736 100.236C71.3677 100.301 69.8611 100.356 68.3545 100.412C65.6743 100.512 62.9028 100.614 60.1776 100.768C58.8372 100.844 57.7952 101.388 57.3892 102.225C57.2414 102.552 57.1876 102.914 57.2336 103.271C57.2796 103.628 57.4237 103.964 57.6499 104.244C58.6834 105.721 58.6521 107.225 58.6189 108.818C58.6117 109.144 58.6045 109.478 58.6072 109.809C58.6241 112.088 58.6169 114.368 58.6072 116.648C58.5948 120.656 58.5817 124.8 58.7062 128.875C58.8224 130.634 59.1164 132.377 59.584 134.077C59.743 134.74 59.902 135.403 60.0401 136.066C60.7191 139.343 63.4606 140.046 65.4625 140.29C66.2158 140.365 66.9737 140.391 67.7309 140.368C67.9915 140.368 68.2483 140.364 68.5096 140.368L69.5437 140.374C78.3396 140.434 87.1367 140.489 95.9351 140.539C96.8468 140.559 97.7591 140.5 98.6609 140.36C100.4 140.059 101.632 139.344 102.324 138.235C103.03 137.108 103.13 135.649 102.622 133.898C102.371 132.875 102.256 131.824 102.279 130.772C102.231 128.115 102.21 125.457 102.189 122.799C102.144 117.313 102.098 111.641 101.813 106.07C101.543 100.813 99.5172 99.9715 94.7524 100.008C92.4997 100.022 90.2483 100.019 87.8359 100.015H84.6429L83.1936 75.0166L139.235 73.5791L137.997 101.388H135.868C134.229 101.384 132.728 101.38 131.229 101.395C130.217 101.407 129.203 101.405 128.195 101.406C125.553 101.401 122.843 101.406 120.175 101.608C116.711 101.874 115.646 103.123 115.794 106.748C115.916 109.723 116.036 111.989 116.182 114.096C116.293 115.698 116.402 117.301 116.507 118.905C116.821 123.668 117.145 128.593 117.622 133.424C118.108 138.364 120.254 140.376 125.273 140.6L130.835 140.849C137.665 141.156 144.497 141.454 151.328 141.743C151.494 141.749 151.659 141.753 151.824 141.753C152.689 141.757 153.552 141.658 154.394 141.46C156.521 140.939 157.681 139.831 157.839 138.156C158.176 134.574 158.407 131.006 158.52 127.554C158.601 125.087 158.59 122.579 158.579 120.154C158.575 119.054 158.57 117.953 158.573 116.853C158.577 115.951 158.597 115.049 158.618 114.145C158.663 112.176 158.709 110.141 158.566 108.144C158.222 103.391 155.879 101.347 150.978 101.493ZM63.5811 106.127H94.5107V133.871L65.2859 134.79L63.5811 106.127ZM6.29418 107.238H32.2946C32.6015 109.452 32.9834 111.71 33.3529 113.898C34.2697 119.325 35.2172 124.935 35.2563 130.899L7.41828 132.577C6.0531 125.276 5.71487 117.66 6.29418 107.238ZM92.067 8.41583C91.8839 14.5765 91.6858 20.7373 91.4805 27.0452L91.33 31.7351L91.1345 31.7488C82.4996 32.3552 73.5709 32.9864 64.6615 32.8959L63.4443 6.5568H91.8911C91.9132 6.747 91.9367 6.92743 91.9562 7.0994C92.0279 7.53458 92.065 7.97478 92.067 8.41583ZM151.118 107.936V134.023H124.169L121.081 106.527C131.114 106.289 141.151 106.76 151.118 107.936Z" fill="black"/>
</g>
<defs>
<clipPath id="clip0_8_2708">
<rect width="159" height="142" fill="white"/>
</clipPath>
</defs>
</svg>
