<svg width="154" height="75" viewBox="0 0 154 75" fill="none" xmlns="http://www.w3.org/2000/svg">
<g clip-path="url(#clip0_6_1931)">
<path d="M4.50194 74.8024C5.1491 74.7945 5.7845 74.6291 6.35334 74.3207L6.86996 74.0529C7.75188 73.642 8.58504 73.134 9.35413 72.538L11.2392 70.9622C15.5389 67.3733 19.9855 63.664 24.251 59.8861C32.513 52.5692 40.8925 45.0687 48.995 37.8148C52.1926 34.9519 55.3983 32.0842 58.6117 29.2116C58.8467 29.3888 59.0633 29.5489 59.268 29.6992C59.7669 30.0526 60.2464 30.4325 60.7047 30.8372L65.6453 35.4112C72.1253 41.4089 78.8252 47.6107 85.359 53.7691C88.772 56.9852 91.2392 57.1978 94.7991 54.5862C95.399 54.1452 95.9806 53.6725 96.5404 53.2144C96.9296 52.8981 97.3175 52.5805 97.7146 52.2727C110.748 42.1651 123.786 32.0607 136.827 21.9597C137.63 21.3381 138.455 20.7651 139.412 20.1022L139.872 19.7806C139.876 19.894 139.866 20.0077 139.842 20.1187C138.855 23.9561 137.863 27.7925 136.867 31.6282C135.81 35.7054 134.756 39.7829 133.705 43.8609L133.595 44.2817C133.257 45.3706 133.068 46.5001 133.031 47.6395C133.058 48.8259 133.461 49.973 134.184 50.9142C134.907 51.8553 135.911 52.5415 137.05 52.8729C138.19 53.2044 139.405 53.164 140.52 52.7574C141.635 52.3508 142.591 51.5993 143.25 50.6121C143.959 49.5085 144.466 48.2874 144.748 47.0061C147.056 36.3262 150.09 22.2275 153.075 7.87531C153.534 5.68777 153.202 3.83563 152.124 2.51968C151.014 1.165 149.178 0.450195 146.807 0.450195H146.725C145.665 0.458071 144.605 0.476349 143.546 0.495383C142.178 0.519011 140.808 0.543294 139.44 0.543294C139.312 0.543294 139.184 0.543294 139.053 0.543294C125.975 0.604643 112.915 1.50354 99.9521 3.23434C98.2843 3.44765 96.0547 4.05209 95.9412 6.82576C95.8513 9.035 97.3989 10.5985 99.9803 10.905C101.357 11.0445 102.742 11.0742 104.124 10.9936C109.485 10.7639 114.844 10.5269 120.204 10.2828C124.375 10.0959 128.546 9.91068 132.717 9.72691C133.354 9.69869 134.009 9.69934 134.742 9.70722L89.9698 44.2194L88.7937 43.1476C86.3902 40.9475 83.9886 38.7454 81.589 36.5409C75.7358 31.1701 69.6831 25.6162 63.6911 20.1935C60.2394 17.0694 57.3903 16.9524 54.1604 19.8094L52.2919 21.4641C44.4716 28.3858 36.3848 35.5432 28.5028 42.6638C19.9048 50.4283 11.3941 58.3155 4.94035 64.3229C3.52213 65.6636 2.26634 67.1659 1.1991 68.7995C0.69501 69.5484 0.482321 70.4555 0.600926 71.3501C0.719531 72.2453 1.16136 73.0657 1.8431 73.6571C2.54301 74.3751 3.49906 74.7873 4.50194 74.8024Z" fill="black"/>
</g>
<defs>
<clipPath id="clip0_6_1931">
<rect width="153.583" height="74.8225" fill="white"/>
</clipPath>
</defs>
</svg>
