<svg width="153" height="75" viewBox="0 0 153 75" fill="none" xmlns="http://www.w3.org/2000/svg">
<g clip-path="url(#clip0_6_1926)">
<path d="M4.51321 11.0752C9.93586 16.1139 16.3581 22.0564 22.8814 27.9326C27.7127 32.2848 32.6451 36.6869 37.4154 40.9439C42.4462 45.4339 47.649 50.0767 52.7416 54.6685C56.8719 58.3945 59.4928 58.4174 63.5234 54.7597C69.2571 49.5588 75.0492 44.2334 80.6537 39.0832C83.3854 36.572 86.1171 34.0619 88.8507 31.5529C89.041 31.3826 89.2393 31.2223 89.446 31.0725L134.169 65.561H134.047C130.728 65.4337 127.41 65.3025 124.093 65.1673C118.998 64.9639 113.903 64.7668 108.807 64.5765L108.512 64.5661C105.398 64.4539 102.178 64.337 99.0082 64.4729C98.5251 64.4809 98.0486 64.5842 97.6056 64.7771C97.1626 64.97 96.7622 65.2486 96.4268 65.5968C96.0921 65.9448 95.8296 66.3557 95.6543 66.8059C95.4784 67.2562 95.3937 67.736 95.4042 68.219C95.3051 70.274 96.6513 71.7127 98.9117 71.9753C100.306 72.1361 101.7 72.3034 103.094 72.4747C107.873 73.0549 112.814 73.6561 117.701 73.9187C124.47 74.2882 131.356 74.4497 138.018 74.6052C140.565 74.6656 143.112 74.7293 145.659 74.7962C145.802 74.8001 145.942 74.8021 146.081 74.8021C148.611 74.8021 150.444 74.1418 151.535 72.8377C152.662 71.4902 152.96 69.5002 152.422 66.9247C149.812 54.4191 147.082 41.5858 144.309 28.7806C143.999 27.2804 143.423 25.8476 142.609 24.5505C141.943 23.6101 141.002 22.8996 139.915 22.5171C138.829 22.1345 137.65 22.0987 136.542 22.4147C135.434 22.7306 134.452 23.3827 133.73 24.281C133.009 25.1792 132.584 26.2792 132.515 27.4292C132.486 28.6171 132.64 29.8025 132.97 30.9438C133.904 34.4977 134.85 38.0487 135.807 41.5969C136.77 45.1848 137.726 48.7741 138.674 52.3647C138.891 53.2709 139.06 54.1881 139.18 55.1122C139.194 55.2041 139.208 55.2979 139.222 55.3924C138.873 55.1647 138.598 54.981 138.34 54.7893C135.842 52.9301 133.339 51.0755 130.833 49.2255C124.691 44.6836 118.341 39.9881 112.185 35.2539C108.636 32.5229 105.121 29.6096 101.723 26.7978C99.4263 24.8944 97.0536 22.93 94.6862 21.0339C90.9044 18.0042 88.3854 18.1531 84.7099 21.6212C77.8958 28.0533 70.8926 34.5143 64.1204 40.7639L60.0382 44.5321C59.5679 44.9402 59.0656 45.3099 58.5364 45.6379C58.4091 45.7213 58.2817 45.8046 58.1544 45.8906C56.5765 44.5237 55.0082 43.1693 53.4492 41.8272C49.6273 38.5324 46.0175 35.4201 42.3834 32.1791C38.6705 28.8712 34.9179 25.4844 31.291 22.2027C26.3179 17.7087 21.1749 13.0626 16.0561 8.55754C13.1803 6.11774 10.1767 3.83273 7.05782 1.71246L6.35499 1.21572C5.58446 0.631137 4.6205 0.361376 3.6585 0.461319C2.69648 0.561262 1.80838 1.02347 1.17447 1.75396C0.503387 2.43494 0.10208 3.33617 0.0451088 4.29055C-0.0118619 5.24492 0.279263 6.18764 0.86457 6.9436C1.92994 8.44701 3.15314 9.83208 4.51321 11.0752Z" fill="black"/>
</g>
<defs>
<clipPath id="clip0_6_1926">
<rect width="152.927" height="74.8225" fill="white"/>
</clipPath>
</defs>
</svg>
