<svg width="165" height="149" viewBox="0 0 165 149" fill="none" xmlns="http://www.w3.org/2000/svg">
<g clip-path="url(#clip0_6_1933)">
<path d="M135.831 46.4756H135.765C134.927 46.4821 134.09 46.4966 133.253 46.5117H133.145C132.103 46.5294 131.061 46.5479 130.015 46.5479H129.713C119.377 46.5951 109.055 47.3044 98.8098 48.6717C97.9834 48.7774 95.4703 49.0976 95.3581 51.8181C95.28 53.7497 96.6124 55.1131 98.8367 55.3769C99.9406 55.4901 101.052 55.5142 102.16 55.449C106.391 55.2683 110.623 55.0812 114.854 54.8878L115.983 54.8373C118.898 54.7061 121.814 54.5768 124.73 54.4494C124.933 54.4402 125.141 54.4351 125.353 54.4324L90.9941 80.9172L84.5561 75.0174C79.9447 70.786 75.177 66.4109 70.4573 62.1385C67.6173 59.5689 65.1624 59.4743 62.497 61.8338L60.8857 63.2595C54.7568 68.6844 48.4199 74.2941 42.2457 79.8743C35.4461 86.0163 28.733 92.2371 23.6437 96.97C22.5048 98.045 21.4966 99.2507 20.6397 100.562C20.1971 101.216 20.0089 102.009 20.1108 102.792C20.2127 103.575 20.5977 104.293 21.1931 104.812C21.8057 105.439 22.642 105.799 23.5191 105.812C24.0824 105.806 24.6357 105.663 25.1311 105.395L25.5373 105.185C26.2554 104.849 26.9335 104.435 27.5588 103.948L29.0547 102.702C32.448 99.871 35.9561 96.9417 39.3238 93.9593C45.8071 88.2183 52.3848 82.3323 58.7434 76.6392L58.8549 76.5388C61.3123 74.3381 63.7753 72.1348 66.2443 69.9282L66.5475 70.1533C66.9308 70.4257 67.3003 70.7178 67.6534 71.0282L71.6269 74.7076C76.7168 79.4188 81.9799 84.2908 87.1099 89.1254C89.9124 91.7685 92.0469 91.947 94.9787 89.7955C95.4493 89.4503 95.9022 89.0814 96.3662 88.7034L96.4686 88.62C96.7403 88.3995 97.0107 88.179 97.2877 87.9637C107.574 79.9852 117.864 72.0107 128.157 64.0393C128.704 63.6159 129.277 63.2123 129.879 62.7923C129.165 65.5664 128.448 68.3398 127.727 71.1135L127.49 72.0271C126.716 75.0122 125.945 77.9965 125.177 80.9809L125.088 81.3209C124.815 82.2056 124.662 83.1239 124.635 84.0499C124.657 85.0561 125 86.0295 125.613 86.8276C126.226 87.6263 127.078 88.2078 128.044 88.4894C129.011 88.7703 130.042 88.7362 130.987 88.391C131.933 88.0457 132.744 87.4084 133.303 86.5703C133.884 85.6665 134.299 84.6662 134.53 83.6168C136.486 74.5698 138.797 63.8252 141.103 52.7318C141.484 50.9032 141.201 49.3463 140.285 48.2293C139.341 47.082 137.801 46.4756 135.831 46.4756Z" fill="black"/>
<path d="M164.102 90.4353C163.529 76.7087 162.947 64.7201 162.323 53.7881C161.895 46.2901 161.286 36.4241 160.354 26.5961C159.001 12.2551 147.466 1.87642 132.303 1.35528C121.08 0.9687 109.659 0.807241 98.6105 0.651035C95.4601 0.60706 92.2617 0.634075 89.1671 0.660327C84.0903 0.703645 78.8403 0.748932 73.7038 0.475894C62.0352 -0.137782 49.664 0.376132 33.6014 2.15087C23.1525 3.30602 15.2895 6.37767 8.85283 11.8187C3.54767 16.3028 0.961719 21.5035 0.948592 27.719C0.943997 29.7202 0.903895 31.7484 0.828416 33.7476C0.762783 35.5079 0.6414 37.3069 0.525885 39.0462C0.195975 42.7696 0.107165 46.5104 0.260049 50.2453C0.358937 51.8021 0.459753 53.3593 0.562579 54.9166C1.35937 67.1143 2.18378 79.7259 1.34695 92.1733C1.00172 97.3072 1.09614 102.543 1.18671 107.603L1.20642 108.724C1.36 117.409 2.63 125.043 5.09061 132.062C7.74487 139.634 12.8978 144.239 20.407 145.748C25.053 146.714 29.7681 147.312 34.5084 147.533C43.3308 147.893 52.3044 148.093 60.9832 148.287C64.5112 148.366 68.0396 148.449 71.5681 148.534H71.5805C71.6987 148.533 71.8135 148.494 71.9087 148.424H74.7034C77.0334 148.424 79.366 148.424 81.7006 148.424L85.4024 148.43C100.017 148.46 115.125 148.49 129.876 146.177C135.021 145.371 141.03 144.245 146.599 142.007C157.771 137.517 163.799 129.237 164.517 117.399C164.976 109.789 164.63 102.131 164.292 94.7239C164.227 93.295 164.164 91.8655 164.102 90.4353ZM10.8422 82.1373C10.6584 74.1923 10.258 65.6468 9.58064 55.246C9.04638 47.0326 8.72091 36.2042 10.9794 25.229C11.0318 25.079 11.054 24.9203 11.0449 24.7617C10.5199 18.5967 14.9245 16.182 19.5832 13.6262L19.7454 13.5376C24.265 11.0566 29.2701 10.1942 34.0095 9.52279C44.7972 8.10385 55.6714 7.44587 66.5517 7.55377C71.085 7.55377 75.556 7.62853 79.941 7.72107C87.9142 7.88844 96.0213 7.99746 103.86 8.10313C110.702 8.19436 117.774 8.29018 124.731 8.42342C127.955 8.4628 131.173 8.7382 134.357 9.24719C145.801 11.1539 152.131 18.5947 152.661 30.7658C153.096 40.7566 153.497 50.9155 153.883 60.7428C154.175 68.1205 154.471 75.4984 154.773 82.8756C154.883 85.5358 155.035 88.2379 155.182 90.8495C155.413 94.9516 155.652 99.1929 155.736 103.362C155.836 108.298 155.563 113.344 155.277 118.089C154.857 125.008 150.831 129.923 143.314 132.696C138.709 134.313 133.951 135.449 129.113 136.086C112.819 138.515 96.0948 138.406 79.9239 138.304L77.7869 138.29C76.9487 138.285 76.1106 138.287 75.2718 138.29H74.0779C73.9722 138.29 73.8685 138.315 73.774 138.362C73.6802 138.41 73.5981 138.479 73.5358 138.563C69.9916 138.473 66.4473 138.385 62.9028 138.301C52.555 138.046 41.8561 137.783 31.3369 137.438C28.627 137.274 25.934 136.901 23.2817 136.322L22.7967 136.229C18.3506 135.376 15.3755 132.631 13.9552 128.064C11.7977 120.925 10.7187 113.503 10.7536 106.045C10.73 102.632 10.7785 99.1646 10.8251 95.8061C10.8822 91.326 10.9472 86.6949 10.8422 82.1373Z" fill="black"/>
</g>
<defs>
<clipPath id="clip0_6_1933">
<rect width="164.741" height="148.989" fill="white"/>
</clipPath>
</defs>
</svg>
