<svg width="195" height="124" viewBox="0 0 195 124" fill="none" xmlns="http://www.w3.org/2000/svg">
<path d="M145.463 69.1353C142.003 68.605 141.092 67.209 140.782 63.763C140.369 59.1896 139.654 54.64 139.07 50.0851C138.892 49.0921 138.772 48.0897 138.711 47.0828C138.693 45.3107 139.998 43.1678 141.564 42.9518C145.115 42.4629 148.82 41.8815 151.577 45.1074C154.345 48.3444 157.051 51.6352 159.734 54.9438C161.102 56.5804 162.38 58.2895 163.564 60.0634C166.335 64.3513 163.999 69.1675 158.897 69.6702C154.412 69.7667 149.926 69.5882 145.463 69.1353ZM145.601 48.1266L144.849 48.557C145.948 53.2787 147.046 58.0006 148.197 62.9356L156.259 62.5606C152.539 57.2141 149.576 52.2957 145.601 48.1266Z" fill="black"/>
<path d="M193.914 87.4121C192.934 79.8216 196.408 72.8841 190.906 67.4155C184.639 61.9092 177.705 54.4817 171.853 48.1401C165.273 41.0379 158.708 33.9126 151.33 27.4824C145.922 22.7233 137.587 27.1632 130.956 26.9572C123.77 0.80802 120.783 0.120254 94.4215 0.317812C69.7576 0.528497 48.3294 3.11966 24.5516 5.17465C2.96792 7.6412 -0.175916 5.76556 0.542774 29.7514C0.626129 52.9523 0.61562 72.8972 1.17548 95.4267C1.1059 112.986 21.8501 108.798 33.8854 110.379C35.7573 127.07 60.1606 127.055 65.0614 112.497C91.9589 110.416 118.356 111.655 145.21 107.209C148.229 123.133 173.052 123.158 175.256 106.804C194.36 105.556 194.522 107.906 193.914 87.4121ZM8.0348 78.8469C7.85168 59.4072 6.35987 38.9691 7.07662 19.3289C7.43432 14.81 7.8255 14.3786 12.3713 13.6186C21.3172 12.0631 28.2008 11.7199 36.7385 10.8666C62.4381 8.83199 85.7014 5.2162 112.546 7.75034C126.759 9.32555 128.107 67.0295 128.617 77.0754C87.4052 76.9816 49.1636 80.9104 8.55534 82.5513C8.15386 81.3594 7.97737 80.1031 8.0348 78.8469ZM55.7506 113.54C46.0624 123.708 32.4158 108.964 42.8483 102.228C44.7747 101.777 46.993 101.617 49.1209 101.319C54.8954 102.172 61.1011 108.099 55.7506 113.54ZM127.292 101.191C117.819 102.394 77.4046 104.21 65.5347 105.063C60.6824 89.6574 39.7215 91.6626 35.246 103.809C28.2264 103.258 21.1629 103.476 14.2176 102.339C6.44388 101.617 8.10444 93.2739 8.46411 87.6497C49.3382 86.8733 87.7859 83.5397 129.058 83.9086C128.469 88.2667 133.391 99.9016 127.293 101.191H127.292ZM165.884 108.393C160.122 116.16 146.604 107.498 154.514 99.1389C156.132 97.5138 160.563 98.134 162.337 99.0076C165.053 101.114 167.657 105.397 165.884 108.393ZM174.193 100.55C171.126 92.1371 158.465 88.1223 151.688 93.6099C150.674 94.4067 147.966 96.3665 146.7 99.6482C145.991 101.08 136.848 102.413 136.975 98.8934C136.14 76.1185 135.087 54.4981 132.598 32.3335C137.415 32.5239 145.211 30.4476 148.613 34.5451C153.361 39.4079 158.446 44.7566 164.603 51.3862C171.223 59.3358 179.875 66.3509 185.356 75.0802C185.888 81.4565 186.233 91.8378 186.697 98.6046L174.193 100.55Z" fill="black"/>
</svg>
