<svg width="161" height="159" viewBox="0 0 161 159" fill="none" xmlns="http://www.w3.org/2000/svg">
<g clip-path="url(#clip0_8_2311)">
<path d="M159.73 96.8093C159.746 90.494 159.765 83.3353 159.726 76.4903C159.691 70.2906 159.471 63.9998 159.258 57.9162L159.122 53.9884C159.072 52.5267 159.032 51.0633 158.99 49.5911C158.859 44.7624 158.722 39.769 158.243 34.8524C157.737 30.0039 156.83 25.2057 155.533 20.5068C151.857 6.90554 138.493 0.468196 127.628 0.242416C123.411 0.157748 119.057 0.423472 115.213 0.656474C112.679 0.810057 110.056 0.969488 107.456 1.04168C103.775 1.14407 100.024 1.17303 96.3508 1.20257C93.1892 1.22685 89.9187 1.25179 86.6521 1.32595C83.4702 1.39946 80.2889 1.4713 77.1077 1.54131L75.176 1.58393C60.2365 1.91538 44.7875 2.25737 29.5966 2.77194C15.2983 3.25632 3.73689 12.5907 1.48368 25.4714C0.597622 30.5409 0.570095 35.7581 0.620633 41.1033C0.776181 57.4842 1.00983 74.1413 1.23627 90.2498L1.24284 90.7421C1.35398 98.5853 1.46179 106.429 1.56636 114.271L1.59793 116.526C1.65569 120.498 1.7141 124.606 1.59793 128.626C1.20413 142.398 13.3746 155.784 27.1334 156.71C29.67 156.835 32.2116 156.823 34.7469 156.673L35.0048 156.663C36.5085 156.601 38.0548 156.539 39.588 156.55C49.7757 156.604 58.8844 156.703 67.4299 156.854C81.5944 157.102 95.9301 157.405 110.041 157.753C111.169 157.817 112.289 157.974 113.391 158.225C113.952 158.335 114.514 158.445 115.07 158.534C115.142 158.546 115.215 158.552 115.288 158.552H122.004C122.07 158.552 122.136 158.546 122.201 158.537C123.544 158.34 124.892 158.161 126.265 157.981C129.189 157.595 132.214 157.197 135.165 156.574C148.948 153.662 160.001 139.561 159.806 125.141C159.681 115.646 159.706 106.071 159.73 96.8093ZM149.581 114.488V114.659C149.596 118.368 149.609 122.077 149.622 125.787C149.649 134.401 142.708 143.832 134.466 146.38C128.179 148.281 121.614 149.094 115.053 148.783C105.894 148.406 96.7413 147.972 87.8959 147.553C84.1679 147.377 80.4537 147.201 76.7742 147.028L51.456 147.019C45.3433 147.019 39.2432 147.024 33.1559 147.033H33.0247C26.6214 147.033 21.8171 145.422 17.9145 141.969C13.1232 137.727 10.8687 131.89 10.826 123.595C10.6947 98.794 10.5726 69.394 10.6179 39.3772C10.5362 33.6622 11.8884 28.0178 14.5508 22.9601C16.93 18.5626 20.4184 15.8264 24.6387 15.0427C31.6208 13.7444 38.4558 12.5649 45.3172 12.3799C62.8565 11.9053 80.7004 11.6273 97.9556 11.3582H98.1183C106.794 11.2238 115.47 11.0808 124.145 10.9293C128.674 10.8368 133.186 12.1878 138.351 15.1446C143.87 18.3088 145.644 24.0813 146.65 29.311C148.816 40.5639 149.774 49.9928 149.663 58.9853C149.441 77.486 149.513 96.296 149.579 114.486L149.581 114.488Z" fill="black"/>
<path d="M122.735 45.0342C121.426 44.8657 120.105 44.8217 118.789 44.9028C114.641 45.1076 110.494 45.3237 106.348 45.5512L105.114 45.6169C102.41 45.7613 99.7056 45.9036 97.0008 46.0441C93.8996 46.2036 90.7977 46.3486 87.6342 46.4957L84.5002 46.6427L84.4936 46.5706C84.4188 45.7705 84.3551 45.0793 84.3558 44.4145C84.3597 41.7016 84.3722 38.9856 84.3938 36.2666C84.4116 33.3873 84.4293 30.5088 84.4319 27.632V27.3039C84.512 26.1305 84.361 24.9527 83.9869 23.8376C83.6955 23.2324 83.2597 22.7083 82.7182 22.3108C82.1767 21.9134 81.546 21.655 80.8811 21.5584C80.2228 21.5482 79.5717 21.6927 78.9797 21.9801C78.3877 22.2675 77.8718 22.6897 77.4728 23.213C76.8059 24.2575 76.4161 25.4546 76.3406 26.6914C75.6941 32.8216 75.2471 37.5656 74.8881 42.074C74.7765 43.4884 74.8048 44.9174 74.833 46.3101L74.8363 46.4636C74.8402 46.6592 74.8435 46.856 74.8468 47.0543L74.7358 47.0699C74.174 47.1643 73.6076 47.2302 73.0392 47.267C65.1692 47.5733 57.2982 47.871 49.4261 48.1602L45.874 48.2916C45.6114 48.3008 45.3174 48.2855 45.0043 48.2691L44.9052 48.264C43.9365 48.133 42.9504 48.2493 42.039 48.6024C40.5707 49.2636 39.4019 50.4491 38.7612 51.9265C38.5875 52.412 38.516 52.9282 38.5513 53.4427C38.5865 53.9571 38.7277 54.4585 38.966 54.9159C39.2507 55.4342 39.6392 55.8883 40.1073 56.2497C40.5754 56.6111 41.113 56.8722 41.6865 57.0163C43.3094 57.4694 44.9846 57.7073 46.6695 57.7239C49.4077 57.7416 52.2752 57.6804 54.5777 57.6357C56.4226 57.5996 58.2664 57.5643 60.1113 57.5511C63.6181 57.5255 67.2116 57.5314 70.6856 57.5373L74.2994 57.5419C74.2994 57.9167 74.2994 58.2776 74.3053 58.6386C74.3722 62.4847 74.426 66.3334 74.4674 70.1841C74.5829 79.6078 74.703 89.3492 75.1237 98.9317C75.4624 105.039 76.3806 111.1 77.8672 117.033C79.4989 123.956 83.0477 129.149 88.4146 132.469C94.9327 136.678 102.708 138.5 110.418 137.625C116.342 136.958 120.684 134.848 123.689 131.173C125.991 128.357 126.351 125.187 124.583 123.284C121.947 120.446 119.129 122.089 117.265 123.175L117.169 123.23C112.903 125.715 108.997 126.716 104.871 126.38C95.8135 125.649 90.7144 121.482 88.3358 112.868C87.8403 111.212 87.455 109.526 87.182 107.819C84.8119 90.5989 84.6734 72.7123 84.5566 56.9067C85.0955 56.8139 85.6389 56.7504 86.1843 56.7163C98.1408 56.2306 110.098 55.7579 122.056 55.2985C125.215 55.1791 127.293 53.3598 127.48 50.5506C127.664 47.6975 125.758 45.4786 122.735 45.0342Z" fill="black"/>
</g>
<defs>
<clipPath id="clip0_8_2311">
<rect width="160.146" height="158.834" fill="white"/>
</clipPath>
</defs>
</svg>
