<svg width="165" height="154" viewBox="0 0 165 154" fill="none" xmlns="http://www.w3.org/2000/svg">
<g clip-path="url(#clip0_8_2856)">
<path d="M163.604 103.478C163.328 92.0052 163.112 80.329 162.908 69.0406L162.685 57.3443C162.593 52.5399 161.523 47.6566 159.318 41.9668C157.923 38.2484 155.327 35.1022 151.941 33.0269C143.645 27.914 135.572 25.2953 127.249 25.0196C119.511 24.7571 111.635 24.744 104.015 24.7381C100.51 24.7309 97.0447 24.7243 93.5793 24.698C93.2576 24.6915 92.9295 24.6717 92.5422 24.6323L91.5052 24.5405L92.0303 23.6478C92.2206 23.3328 92.3716 23.0768 92.5422 22.8274C93.3889 21.6204 94.2356 20.4055 95.0823 19.1979L95.2726 18.9288C97.3598 15.9556 99.5126 12.8904 101.554 9.8253C102.41 8.51663 103.026 7.06553 103.372 5.54022C103.548 4.64667 103.431 3.7199 103.037 2.89868C102.643 2.07747 101.994 1.40586 101.186 0.984474C100.424 0.591422 99.5559 0.456357 98.7105 0.599578C97.8651 0.742797 97.09 1.15653 96.5 1.77862C95.5752 2.75227 94.7751 3.83707 94.1175 5.0079L93.809 5.54599C90.5273 11.1708 87.1406 16.9794 83.918 22.8077C82.7825 24.8555 81.3189 25.5316 79.1661 25L78.8379 24.9211L78.7132 24.6061C78.4441 23.9301 78.175 23.2475 77.9125 22.5649C77.1839 20.6944 76.4423 18.7778 75.5693 16.9401C74.747 15.2254 73.7198 13.6167 72.5108 12.1488C72.1748 11.7159 71.7449 11.3647 71.2539 11.1215C70.763 10.8783 70.2235 10.7494 69.6754 10.7443C69.1714 10.7473 68.6725 10.8452 68.2052 11.033C66.3675 11.7353 65.4158 13.1661 65.593 14.9514C65.784 16.7214 66.1942 18.461 66.8138 20.1299C67.3198 21.3864 67.9053 22.6096 68.5662 23.7922C68.7566 24.1401 68.9469 24.5077 69.1504 24.8884L69.6098 25.7744L67.6408 25.9188C66.4069 26.0041 65.3042 26.0764 64.2016 26.1748C61.0774 26.4373 57.9467 26.6888 54.8094 26.9295L54.5337 26.9558C46.6052 27.5727 38.4009 28.2159 30.3345 29.1807C25.1035 29.8108 19.9053 31.4321 15.0681 33.0926C11.4648 34.3265 6.82452 36.906 5.21648 42.1501C3.3656 48.1819 1.65912 54.0953 1.10779 60.1074C0.477712 67.0447 0.503962 74.1666 0.530215 81.0516C0.536779 82.7187 0.543355 84.3654 0.543355 86.0129C0.530229 92.8191 0.628698 99.7369 0.727151 106.425V106.589C0.773095 109.385 0.812429 112.181 0.845246 114.977C0.858373 116.113 0.845311 117.241 0.832185 118.377C0.752295 120.95 0.826796 123.525 1.05532 126.089C2.59771 140.102 8.49818 147.302 21.4149 150.952C27.8273 152.77 34.5285 152.835 41.0197 152.894L46.1063 152.947C54.3171 153.032 62.8036 153.117 71.29 153.117C90.9408 153.117 105.938 152.638 119.938 151.568C125.261 151.161 130.643 150.295 135.847 149.461C137.876 149.133 139.89 148.805 141.899 148.509C148.941 147.466 154.087 143.344 157.198 136.262C157.852 134.836 158.433 133.377 158.937 131.891C162.291 121.665 163.814 112.371 163.604 103.478ZM149.873 126.699C149.814 126.896 149.755 127.086 149.69 127.283C149.571 127.638 149.466 127.967 149.381 128.308C147.543 135.6 143.573 139.268 136.891 139.852C133.071 140.187 129.199 140.679 125.464 141.152C120.332 141.795 115.035 142.472 109.791 142.747C100.792 143.233 91.7349 143.377 82.1524 143.528C77.8665 143.593 73.4756 143.666 68.9206 143.771C66.1115 143.712 63.228 143.653 60.2701 143.594L59.5219 143.581C50.0772 143.397 40.3109 143.207 30.2887 142.871C27.2696 142.699 24.2884 142.114 21.4281 141.133C15.1535 139.151 11.5501 134.471 10.4147 126.831C10.0102 123.94 9.7932 121.027 9.76491 118.108C9.69271 114.964 9.61828 111.816 9.54169 108.663C9.29228 98.398 9.03638 87.7915 9.08888 77.3558C9.02528 67.6964 10.2773 58.0742 12.8104 48.7529C13.9721 44.6245 16.2758 42.2286 20.0497 41.2179C20.7783 41.0275 21.5134 40.8241 22.2419 40.6272C26.3309 39.5115 30.5511 38.3629 34.7845 37.9297C62.948 35.0681 86.6483 33.7358 109.371 33.7358C112.869 33.7358 116.394 33.7686 119.859 33.8342C126.16 33.9523 133.537 34.5167 140.514 37.8246C141.137 38.12 141.886 38.4678 142.66 38.796C147.419 40.7978 150.051 44.0402 150.694 48.7199C150.864 49.9997 151.074 51.2994 151.278 52.5464C151.83 55.5678 152.185 58.6219 152.341 61.6893C152.525 68.0496 152.591 74.5138 152.656 80.7622C152.715 86.8661 152.781 93.1866 152.958 99.4087C153.254 109.969 152.276 118.639 149.873 126.699Z" fill="black"/>
<path d="M140.364 68.2939C139.629 57.4642 133.768 50.2446 123.417 47.4224C119.625 46.3944 115.758 45.6636 111.852 45.2367C104.401 44.4093 96.9096 44.0018 89.4122 44.016C83.1245 44.016 76.6071 44.2785 69.8008 44.8102C56.4641 45.8472 45.6607 47.8688 35.8025 51.1768C26.5613 54.2812 21.9145 60.2996 21.1728 70.1251C20.8184 74.8442 20.6805 79.6551 20.5492 84.3086C20.4902 86.2448 20.1424 95.9651 20.2408 98.538C20.464 104.327 20.6936 110.313 21.2778 116.187C22.3673 127.213 27.559 132.628 38.6314 134.302C43.7362 135.105 48.9022 135.451 54.0685 135.339L54.7314 135.319C69.0789 134.879 83.9187 134.427 98.4565 133.225C107.179 132.503 115.876 130.528 123.233 128.69C131.91 126.524 137.423 120.407 139.176 111.015C139.514 109.364 139.727 107.69 139.812 106.007C140.075 97.2187 140.285 88.496 140.436 80.0817L140.462 78.71C140.528 75.278 140.6 71.7463 140.364 68.2939ZM130.177 77.8961C130.118 85.7262 130.04 93.3923 129.731 101.137C129.576 104.604 129.113 108.05 128.346 111.435C127.25 116.344 124.113 119.37 119.276 120.191C117.497 120.492 115.718 120.808 113.94 121.116C107.639 122.219 101.134 123.355 94.6892 124.03C88.4408 124.68 82.0678 125.015 74.6906 125.408L74.6315 124.752L74.6643 125.408L74.5265 125.415C70.9232 125.605 67.1952 125.802 63.0078 126.058H62.9356C61.6361 125.993 60.0805 125.927 58.3412 125.855H58.2428C53.0971 125.645 46.7109 125.382 40.2198 124.837C33.9255 124.306 31.8711 122.324 30.6635 115.596C29.0598 106.638 28.3846 97.5397 28.6485 88.4435L28.7207 85.956C28.8454 81.4863 28.9701 76.8657 29.3442 72.3435C29.8168 66.6531 33.256 62.7544 39.5634 60.7526C48.1286 58.0354 57.5865 56.3354 69.3151 55.4099C75.8982 54.8849 82.3434 54.6225 88.4671 54.6225C96.3418 54.6061 104.21 55.0618 112.03 55.9875C115.364 56.4147 118.659 57.1129 121.881 58.0747C126.745 59.4793 129.403 62.7543 129.784 67.8148C130.072 71.72 130.197 74.9229 130.177 77.8961Z" fill="black"/>
</g>
<defs>
<clipPath id="clip0_8_2856">
<rect width="164.084" height="153.583" fill="white"/>
</clipPath>
</defs>
</svg>
