<svg width="159" height="160" viewBox="0 0 159 160" fill="none" xmlns="http://www.w3.org/2000/svg">
<g clip-path="url(#clip0_8_2314)">
<path d="M30.322 137.289C30.341 138.37 30.3501 139.452 30.36 140.535C30.3889 143.677 30.4184 146.927 30.675 150.117C31.2657 157.456 33.3004 159.361 40.5798 159.378H41.3255C44.9931 159.378 48.704 159.317 52.3008 159.259C55.8975 159.2 59.5973 159.138 63.2551 159.138C63.5668 159.138 63.8726 159.128 64.1889 159.138C67.7433 159.138 70.3155 157.756 72.0541 154.913C73.6037 152.418 75.0155 149.84 76.2829 147.191C77.8161 143.931 79.2535 140.649 80.7762 137.174C81.3754 135.805 81.9898 134.407 82.6185 132.981L89.9813 132.438C95.7151 132.015 101.285 131.603 106.854 131.196C108.456 131.08 110.056 130.959 111.656 130.834C116.02 130.499 120.531 130.154 124.97 129.943C128.017 129.797 130.228 128.773 131.927 126.72C134.517 123.588 137.11 120.459 139.705 117.335C144.759 111.237 149.991 104.929 155.099 98.7005C157.649 95.6124 158.966 91.6901 158.799 87.6884C158.585 75.0297 158.437 62.1566 158.294 49.7071C158.187 40.3727 158.07 31.0385 157.944 21.7045C157.879 17.0635 157.62 12.296 157.182 7.53423C156.743 2.77252 155.057 1.08956 150.239 0.619626C148.782 0.507263 147.319 0.4808 145.859 0.539827C145.278 0.552297 144.698 0.564473 144.119 0.565786C134.946 0.58285 125.775 0.604792 116.603 0.631483C89.8619 0.703026 62.2107 0.775906 35.016 0.657765C28.3332 0.611819 24.4457 2.59676 21.5342 7.44641C20.2343 9.43866 18.7371 11.2949 17.0653 12.9872C16.2777 13.8404 15.4683 14.7178 14.7109 15.6176C12.85 17.8295 10.9943 20.0464 9.14386 22.2679C7.68811 24.0102 6.23083 25.7521 4.772 27.4936C2.01204 30.7126 0.623543 34.8851 0.904244 39.116C1.16678 45.1707 1.10111 51.3527 1.03548 57.3307L1.0066 59.9391C0.913833 69.181 0.804448 78.4229 0.678431 87.6655C0.576039 95.6984 0.479368 103.732 0.388356 111.766C0.347663 115.615 0.333872 119.086 0.585249 122.591C0.969865 127.96 2.17817 129.145 7.39013 129.256C10.3312 129.317 13.3071 129.185 16.1851 129.055C18.3812 128.956 20.6528 128.854 22.8798 128.841C23.4619 128.838 24.0545 128.794 24.6275 128.752C26.5887 128.608 28.4422 128.473 30.3095 129.726C30.3095 130.394 30.3055 131.072 30.3022 131.754C30.3009 133.561 30.2931 135.428 30.322 137.289ZM12.7623 119.191C12.3835 119.167 11.9812 119.143 11.548 119.119C11.4535 118.141 11.3439 117.173 11.2356 116.216C10.9258 113.857 10.7399 111.483 10.679 109.104C10.5924 97.928 10.5412 86.5635 10.492 75.5731C10.4388 63.8297 10.3844 51.6875 10.2866 39.7448C10.1889 37.1947 11.0417 34.6993 12.6796 32.7424C14.9859 29.942 17.3031 27.1508 19.6309 24.3692C23.1371 20.1614 26.7627 15.8114 30.2708 11.4828C31.6786 9.74287 33.4461 9.7455 35.4775 9.74747L45.7971 9.72758C57.3218 9.70329 69.2404 9.68059 80.958 9.7029C98.985 9.73966 117.313 9.8234 135.037 9.90479L142.245 9.9378C143.41 9.94371 144.608 10.0086 145.87 10.0775C146.342 10.1031 146.828 10.1295 147.335 10.1551C147.383 10.4977 147.435 10.8351 147.487 11.1665C147.665 12.1455 147.771 13.1359 147.803 14.1303C147.847 22.1241 147.882 30.1181 147.908 38.1123C147.967 53.4279 148.027 69.2663 148.185 84.8439C148.227 88.9788 147.162 92.0636 144.732 94.8438C137.878 102.68 131.073 110.576 124.507 118.31C123.113 119.954 121.571 120.682 119.185 120.822C113.898 121.132 108.528 121.502 103.335 121.861C96.2034 122.353 88.8301 122.861 81.5717 123.221C77.3409 123.432 74.9866 125.089 73.4436 128.941C71.934 132.71 70.1619 136.458 68.4475 140.083C67.5247 142.036 66.5704 144.055 65.6653 146.056C64.3846 148.891 62.5383 149.988 59.4594 149.714C55.4124 149.358 51.3208 149.196 46.989 149.025C45.2634 148.96 43.4888 148.887 41.6471 148.801L41.2349 143.272C40.8811 138.531 40.5424 133.999 40.2123 129.466C40.1683 128.86 40.1467 128.251 40.1277 127.643C40.0955 126.688 40.062 125.7 39.9373 124.726C39.3525 120.131 38.2459 119.128 33.7073 119.065C29.7424 119.01 25.7151 119.099 21.8204 119.182C19.7202 119.227 17.6146 119.272 15.5117 119.296C14.6723 119.303 13.8242 119.256 12.7623 119.191Z" fill="black"/>
<path d="M26.2719 103.422C26.3874 106.34 28.0795 108.138 31.0369 108.483C32.4888 108.652 33.9635 108.675 35.3904 108.698C36.1964 108.711 37.0017 108.723 37.8057 108.764C39.2713 108.834 40.7363 108.931 42.4001 109.041C43.0125 109.081 43.6524 109.123 44.3278 109.166C44.3278 110.113 44.3192 111.022 44.3127 111.902C44.2963 114.195 44.2806 116.361 44.3515 118.496C44.3725 119.133 44.3849 119.772 44.398 120.413C44.367 122.953 44.5868 125.489 45.0543 127.987C45.5545 130.231 46.7655 131.802 48.4634 132.408C48.9661 132.585 49.4953 132.674 50.0281 132.671C51.6068 132.605 53.1184 132.015 54.3232 130.993C55.07 130.401 55.7446 129.723 56.3329 128.974C57.3719 127.651 58.4732 126.327 59.5384 125.046C62.1743 121.877 64.9 118.6 66.9805 114.996C69.2705 111.029 72.0015 109.506 76.6569 109.606C82.3158 109.712 88.0667 109.672 93.6285 109.628C97.5599 109.599 101.625 109.568 105.621 109.591C108.861 109.61 112.588 109.391 115.458 106.526C120.408 101.582 125.191 96.6813 129.621 92.1178C132.936 88.7048 134.424 84.5213 134.172 79.3238C134.04 76.5534 134.025 73.7226 134.012 70.9883C133.999 67.9823 133.985 64.8738 133.811 61.8166C133.089 49.0941 132.342 38.6385 131.467 28.9115C131.018 23.9234 128.756 21.7662 123.398 21.2194C122.08 21.1171 120.757 21.1091 119.438 21.1957L118.594 21.2294C93.4617 22.1128 68.3286 23.0046 43.1949 23.905L42.8806 23.9162C39.8798 24.0245 36.7767 24.1354 33.7339 24.4511C29.702 24.8692 28.6302 25.9011 28.0028 29.9684C27.9134 30.6375 27.8673 31.3115 27.8649 31.9865C27.8589 32.2346 27.8531 32.4829 27.8419 32.731C27.6231 37.6802 27.3991 42.6296 27.1698 47.5793C26.5935 60.1397 25.9963 73.128 25.5762 85.9095C25.4449 89.8062 25.7016 93.7626 25.9464 97.5923C26.0685 99.5016 26.1945 101.48 26.2719 103.422ZM36.0055 98.4869L36.8797 32.7874C46.8212 31.4623 109.688 31.0847 122.289 32.2845C122.389 33.4141 122.505 34.5554 122.622 35.7053C122.918 38.628 123.225 41.6499 123.288 44.6428C123.444 51.9314 123.519 59.3445 123.592 66.516C123.645 71.7011 123.699 77.0693 123.783 82.3462C123.831 85.2801 123.015 87.1506 120.971 88.802C118.441 90.8438 116.094 93.0537 113.376 95.6121C112.198 96.7194 110.956 97.889 109.608 99.1294C106.511 99.22 103.294 99.3375 99.991 99.4576C91.2775 99.7779 82.2699 100.114 73.1258 100.035C66.4882 99.9761 62.3095 102.391 59.507 107.846C58.4824 109.841 57.3613 111.768 55.093 113.398C55.0556 112.88 55.0209 112.386 54.9861 111.91C54.8693 110.254 54.7669 108.826 54.6238 107.386C54.1263 102.374 52.8982 101.02 48.0564 100.155C45.3576 99.6703 42.605 99.3244 39.6921 98.9581C38.5055 98.8105 37.2794 98.6569 36.0055 98.4869Z" fill="black"/>
<path d="M97.6815 67.1618C97.6749 69.1623 97.8325 71.1596 98.1528 73.1338C98.2519 73.7515 98.4724 74.3441 98.8006 74.8764C99.1294 75.4087 99.5593 75.8708 100.067 76.2364C100.62 76.6065 101.271 76.8041 101.937 76.8028C102.198 76.8021 102.46 76.7739 102.716 76.7181C103.53 76.47 104.283 76.0532 104.925 75.4947C105.567 74.9355 106.085 74.2476 106.443 73.4751C107.204 71.6951 107.2 69.5712 107.112 67.9192C106.77 61.4672 106.324 55.138 105.789 49.107C105.636 47.2406 105.147 45.4174 104.345 43.7252C104.085 43.2294 103.685 42.8205 103.195 42.5484C102.706 42.2763 102.147 42.1529 101.589 42.1933C100.986 42.1896 100.394 42.358 99.8835 42.6792C99.3735 43.0003 98.9653 43.4607 98.708 44.006C98.1948 45.3241 97.9329 46.7266 97.9349 48.141C97.8692 50.5563 97.8797 53.0089 97.8922 55.3803C97.8961 56.16 97.9001 56.9403 97.902 57.7214C97.8213 57.7843 97.7563 57.8649 97.7124 57.9566C97.6677 58.0484 97.6441 58.1491 97.6448 58.2512C97.6448 59.0631 97.6388 59.8749 97.6343 60.6861C97.6224 62.5383 97.6106 64.4531 97.6618 66.3407L97.6815 67.1618Z" fill="black"/>
<path d="M67.285 77.8424H67.2981C70.1611 77.8424 71.7986 75.6765 72.1642 71.4031C72.1911 71.1484 72.1983 70.8918 72.1865 70.6352L71.8715 65.4096C71.5276 59.6778 71.1712 53.7511 70.7911 47.9228C70.6113 45.1832 69.2711 43.6565 67.0159 43.6309C64.7445 43.5837 63.3531 45.1406 63.1293 47.8532C62.891 50.7411 62.7551 53.573 62.6245 56.3132C62.574 57.3634 62.5254 58.378 62.4729 59.3513C62.4729 59.3632 62.4729 59.3757 62.4729 59.3875C62.4729 60.7527 62.4559 62.0641 62.4388 63.3374C62.4027 66.115 62.3679 68.7377 62.5202 71.3512C62.7735 75.7139 64.333 77.8372 67.285 77.8424Z" fill="black"/>
</g>
<defs>
<clipPath id="clip0_8_2314">
<rect width="158.834" height="159.49" fill="white"/>
</clipPath>
</defs>
</svg>
