<svg width="169" height="144" viewBox="0 0 169 144" fill="none" xmlns="http://www.w3.org/2000/svg">
<g clip-path="url(#clip0_8_2319)">
<path d="M159.382 24.7962C156.778 25.4559 154.157 25.9732 151.844 26.43C151.104 26.5764 150.399 26.7147 149.749 26.8479C148.108 24.9446 146.543 23.1003 145.024 21.3091C141.519 17.1827 138.208 13.2862 134.753 9.5543C130.433 4.88842 124.529 1.94071 117.206 0.793432C95.3042 -2.63134 71.829 11.6231 64.8695 32.5787C64.5413 33.5724 64.1889 34.5582 63.8522 35.504C63.745 35.8033 63.6402 36.098 63.5378 36.3885L63.4564 36.3972C63.3553 36.4077 63.2825 36.4202 63.2595 36.4241C62.6426 36.2451 62.0372 36.0283 61.4467 35.7755C49.2473 30.2248 39.5382 21.4128 31.7665 8.8387C31.4042 8.25193 31.0609 7.65224 30.7163 7.05234C30.0693 5.8679 29.3509 4.72381 28.5648 3.62677C27.09 1.65776 25.3954 0.664921 23.6961 0.746964C22.5573 0.804065 20.889 1.38473 19.4122 3.83155C17.8245 6.58621 16.4695 9.46852 15.3613 12.4486C10.1014 25.8155 13.0569 39.0862 16.2184 49.1544C16.586 50.3234 16.9319 51.5212 17.3697 53.0387C17.5009 53.5066 17.6486 54.006 17.8061 54.5481L6.30381 49.5711C6.21892 49.5343 6.12741 49.5155 6.03493 49.5156C5.94244 49.5158 5.85092 49.5348 5.76613 49.5717C5.68133 49.6086 5.60505 49.6627 5.54195 49.7303C5.47886 49.798 5.4303 49.8778 5.39934 49.965C3.24984 56.0722 3.34372 60.9732 5.77086 69.3889C9.23238 81.3835 16.4587 90.8938 27.8488 98.4325C26.733 99.1965 25.6382 99.9611 24.5611 100.714C18.3095 105.087 12.4045 109.218 5.0791 110.538C2.97882 110.916 1.44824 111.876 0.645538 113.314C-0.212952 114.853 -0.201137 116.851 0.679669 119.095C1.83417 122.033 3.13897 124.16 4.66889 125.597C8.23218 128.944 11.4948 131.883 15.3443 133.915C27.2975 140.227 41.0602 143.413 56.3299 143.413C58.2013 143.413 60.0957 143.365 62.0132 143.27C81.9149 142.274 100.04 134.06 115.886 118.857C132.182 103.221 143.175 82.8806 148.558 58.397C149.56 53.8407 150.684 50.1384 155.187 47.4014C160.33 44.274 164.253 39.2957 166.531 33.0033C167.239 31.0455 168.21 28.3654 166.256 25.9717C164.282 23.5551 161.706 24.2068 159.382 24.7962ZM14.0998 118.618C15.5838 118.033 16.9877 117.48 18.3476 116.908C25.7657 113.883 32.327 109.082 37.4542 102.927C39.1607 100.849 39.802 99.3796 39.59 98.0111C39.3747 96.6197 38.2812 95.3772 35.9329 93.8559C27.407 88.3288 21.708 82.5012 17.9984 75.5217C15.906 71.5837 13.9199 67.24 13.4736 62.1392C15.2597 61.9814 17.0597 62.1286 18.7965 62.5745C21.6404 63.1212 24.5815 63.6904 27.5573 61.9918C27.6642 61.9311 27.7525 61.8423 27.8126 61.7351C29.3222 59.0317 28.2065 56.6302 27.2135 54.5122C26.989 54.0311 26.7632 53.5484 26.5656 53.0601C21.8098 41.3182 20.3003 31.4142 21.8151 21.8908C22.1102 20.266 22.5023 18.6603 22.9892 17.0824C23.1559 16.4969 23.3279 15.8931 23.4998 15.263C24.7803 16.261 25.8467 17.5069 26.6352 18.926C26.9372 19.3992 27.2502 19.8882 27.5836 20.349C35.3592 31.067 43.9999 38.578 53.9986 43.3109C56.2437 44.408 58.5619 45.3489 60.9367 46.1266C63.8036 47.033 65.4996 47.1045 66.7903 46.3734C68.059 45.6514 68.8833 44.1551 69.5469 41.3617C71.1746 34.5161 73.9634 28.9682 78.074 24.4027C87.6808 13.7333 99.3518 8.73375 112.748 9.5463C118.825 9.9145 123.737 12.0752 127.374 16.0001C131.124 20.0484 135.003 24.2346 137.777 28.9301C141.357 34.9933 145.644 37.1619 151.684 35.9707C152.236 35.8943 152.795 35.8795 153.35 35.9271L153.664 35.9383C151.827 38.6024 149.743 40.2564 147.321 40.9797C142.109 42.5339 140.495 46.4969 139.178 50.7684C138.44 53.162 137.719 55.607 137.022 57.9704C135.034 64.7045 132.979 71.6683 130.311 78.235C121.167 100.747 106.459 117.094 86.5933 126.817C71.3006 134.299 55.8179 136.141 40.5705 132.285C33.8464 130.585 27.3683 128.646 21.3149 126.522C17.1006 125.043 14.3309 122.794 12.4288 119.278C13.0084 119.049 13.563 118.831 14.0998 118.618Z" fill="black"/>
</g>
<defs>
<clipPath id="clip0_8_2319">
<rect width="168.022" height="143.738" fill="white"/>
</clipPath>
</defs>
</svg>
