<?xml version="1.0" encoding="UTF-8"?>
<svg id="Layer_1" data-name="Layer 1" xmlns="http://www.w3.org/2000/svg" xmlns:xlink="http://www.w3.org/1999/xlink" viewBox="0 0 24 24">
  <defs>
    <style>
      .cls-1 {
        fill: none;
      }

      .cls-2 {
        clip-path: url(#clippath);
      }
    </style>
    <clipPath id="clippath">
      <rect class="cls-1" x=".67" y="3.89" width="22.66" height="16.21"/>
    </clipPath>
  </defs>
  <g class="cls-2">
    <g>
      <path d="M.69,18.94c-.06.37.25.79.66.92.22.07.44.11.67.12.19,0,.38.02.57.02.44.02.9.04,1.35.04.18,0,.37,0,.55-.01.88-.04,1.78-.09,2.65-.15,1.04-.07,2.12-.13,3.18-.17,2.76-.1,5.52-.47,8.2-.84l.35-.05c.63-.09,1.28-.17,1.91-.3.03,0,.06-.01.09-.02.25-.04.64-.11.74-.69,0-.03,0-.06-.02-.09-.02-.03-.04-.05-.07-.06-.07-.02-.13-.04-.19-.06-.12-.05-.24-.08-.37-.09l-.4-.02c-.93-.05-1.89-.11-2.84-.14-2.69-.07-5.37,0-8.05.21-1.73.14-3.48.25-5.18.36-.86.06-1.72.11-2.58.17-.18,0-.37.04-.54.09-.17.05-.32.15-.44.28-.12.13-.19.3-.22.47Z"/>
      <path d="M1.15,12.32c0,.14.03.27.1.39.07.12.17.22.3.28.21.1.44.16.67.18.31.02.63.04.96.04.16,0,.32,0,.48-.01.96-.06,1.94-.12,2.88-.18,1.77-.12,3.6-.24,5.4-.3,2.45-.08,4.91-.39,7.3-.68.62-.08,1.25-.15,1.87-.23.05,0,.1-.01.15-.02.37-.03.82-.08,1.28-.57.01-.02.02-.03.03-.05,0-.02,0-.04,0-.06,0-.02-.01-.04-.03-.06s-.03-.03-.05-.04c-.85-.35-1.58-.4-2.32-.42l-.64-.02c-2.04-.06-4.15-.12-6.24-.04-3.5.14-6.93.48-10.73.88-.36.04-.71.14-1.03.29-.12.06-.21.15-.28.26-.07.11-.1.24-.1.37Z"/>
      <path d="M1.87,5.71c.25.12.51.19.79.22.15.01.3.02.45.03.69.05,1.41.11,2.12.11.05,0,.11,0,.16,0,1.34-.02,2.7-.05,4.02-.08,1.75-.04,3.56-.08,5.33-.09,2.54-.01,5.1-.3,7.57-.58h.08c.16-.04.3-.1.44-.18.09-.05.19-.1.32-.16.02-.01.04-.03.05-.05.01-.02.02-.04.02-.07s0-.05-.02-.07c-.01-.02-.03-.04-.05-.05-.13-.06-.24-.12-.33-.18-.15-.1-.32-.17-.5-.21l-.49-.06c-.94-.11-1.92-.23-2.88-.27-5.2-.22-10.48-.01-15.59.18l-.92.04c-.14,0-.28.03-.41.06-.15.03-.29.11-.4.22-.11.11-.17.26-.19.42-.02.16,0,.32.08.46.08.14.2.25.35.31Z"/>
    </g>
  </g>
</svg>