<svg width="154" height="146" viewBox="0 0 154 146" fill="none" xmlns="http://www.w3.org/2000/svg">
<g clip-path="url(#clip0_8_2916)">
<path d="M121.377 103.1C125.301 102.865 129.257 102.86 133.14 102.325C136.335 101.885 139.445 100.827 142.591 100.028C144.111 99.6414 145.602 99.0921 147.142 98.8459C149.398 98.4843 151.422 99.0973 152.745 101.084C153.992 102.956 153.684 104.891 152.753 106.842C147.933 116.95 140.269 124.592 131.407 131.078C120.555 139.02 108.119 143.05 94.9011 144.664C82.6932 146.157 70.4643 146.209 58.3733 143.518C40.8615 139.622 25.7676 131.582 14.5646 117.213C3.5552 103.092 -0.678806 86.9564 0.876058 69.2352C2.2467 52.9325 7.94951 37.2922 17.3941 23.9336C22.8417 16.1521 29.3257 9.32407 37.4932 4.27746C40.5694 2.37408 43.7729 0.799128 47.4943 0.602225C51.349 0.401385 52.6915 2.32012 50.9837 5.78755C48.548 10.7337 46.4593 15.7874 45.4387 21.2436C44.0316 28.7639 44.5147 36.1917 46.2021 43.6142C49.8382 59.6032 56.8078 73.8178 68.4008 85.5748C77.5633 95.026 89.7908 100.907 102.894 102.164C109.024 102.82 115.198 103.069 121.352 103.503C121.359 103.374 121.368 103.236 121.377 103.1ZM134.587 114.46L134.096 113.654C132.315 113.74 130.526 113.747 128.756 113.927C120.926 114.649 113.044 114.605 105.221 113.795C84.9162 111.897 68.4067 103.004 55.6921 87.1191C46.1591 75.1272 39.6531 61.0161 36.724 45.9793C34.4662 34.8432 34.558 23.9265 38.6976 13.2111C38.7809 12.9958 38.5868 12.6733 38.4575 12.1272C37.028 13.3861 35.7079 14.4282 34.5265 15.6063C18.2631 31.852 10.0128 51.5539 9.61641 74.461C9.35059 89.7826 14.2417 103.295 24.7779 114.648C34.1379 124.734 45.9015 130.401 59.0847 133.362C71.968 136.257 84.9668 135.998 97.9183 133.855C108.354 132.128 118.052 128.413 126.451 121.832C129.325 119.585 131.884 116.929 134.587 114.46Z" fill="black"/>
</g>
<defs>
<clipPath id="clip0_8_2916">
<rect width="153.583" height="145.707" fill="white"/>
</clipPath>
</defs>
</svg>
