<?xml version="1.0" encoding="UTF-8"?>
<svg id="Layer_1" data-name="Layer 1" xmlns="http://www.w3.org/2000/svg" viewBox="0 0 24 24">
  <path d="M10.04,7.33c.39.14.71.45.85.84.21.63-.02,1.33-.57,1.72-.8.61-1.42,1.43-1.79,2.36.09.2.31.28.46.42,1.01.78,1.54,2.02,1.41,3.28-.07.86-.65,1.59-1.46,1.85-.85.22-1.75-.04-2.35-.68-.78-.84-1.21-1.95-1.21-3.09-.01-2.63,1.29-5.09,3.46-6.57.36-.21.8-.25,1.19-.11ZM15.92,11.79c1.45.57,2.31,2.06,2.09,3.6-.15.89-.79,1.61-1.65,1.87-.98.28-2.03-.01-2.73-.75-.73-.79-1.14-1.82-1.14-2.89,0-1.72.71-3.36,1.96-4.53.65-.62,1.4-1.12,2.21-1.5.36-.15.77-.14,1.13.02.36.16.63.47.76.84.2.67-.09,1.38-.7,1.72-.78.36-1.44.92-1.92,1.63Z"/>
</svg>