<?xml version="1.0" encoding="UTF-8"?>
<svg id="Layer_1" data-name="Layer 1" xmlns="http://www.w3.org/2000/svg" xmlns:xlink="http://www.w3.org/1999/xlink" viewBox="0 0 24 24">
  <defs>
    <style>
      .cls-1 {
        fill: none;
      }

      .cls-2 {
        clip-path: url(#clippath);
      }
    </style>
    <clipPath id="clippath">
      <rect class="cls-1" x="1.25" y="1.18" width="21.51" height="21.64"/>
    </clipPath>
  </defs>
  <g class="cls-2">
    <g>
      <path d="M12.95,22.74c-1.97-.03-3.94-.03-5.9-.11-1.33-.05-2.66-.15-3.97-.42-.76-.16-1.22-.58-1.34-1.34-.07-.45-.11-.9-.12-1.35-.04-2.52-.04-5.05-.11-7.57-.05-1.9-.17-3.8-.24-5.71-.03-.83-.04-1.65.17-2.47.29-1.17,1.05-1.8,2.16-2.07.44-.1.89-.16,1.35-.17,1.65-.06,3.3-.08,4.95-.13,1.23-.04,2.45-.13,3.68-.14.98-.01,1.97.06,2.95.1.37.02.72.14,1.02.35,1,.69,1.89,1.51,2.78,2.33.58.53,1.16,1.06,1.78,1.55.4.32.61.7.6,1.2-.01,1.13-.02,2.27-.05,3.4-.04,1.89-.12,3.78-.14,5.67,0,1.66-.22,3.32-.63,4.93-.06.22-.13.43-.19.65-.18.6-.6.93-1.2,1.03-.54.1-1.08.16-1.62.18-1.7.04-3.39.04-5.09.05-.27,0-.55,0-.82,0,0,.02,0,.04,0,.06ZM4.86,2.83c-.43.07-.81.1-1.17.19-.56.14-.94.46-1.03,1.07-.04.22-.1.44-.18.65-.18.53-.18,1.07-.13,1.61.13,1.57.32,3.13.4,4.69.1,2.04.12,4.08.16,6.12.02,1,.02,1.99.04,2.99.02.82.08.92.88,1.01,1.29.15,2.59.33,3.89.35,3.24.05,6.48.01,9.72,0,.82,0,1.63-.09,2.45-.16.54-.05.58-.09.69-.6.12-.55.22-1.1.31-1.65.22-1.39.23-2.8.26-4.2.02-1.06.05-2.11.08-3.17.04-1.47.07-2.93.11-4.4.01-.15-.01-.3-.08-.43-.06-.13-.16-.25-.28-.34-.58-.46-1.12-.97-1.68-1.46-.77-.68-1.55-1.35-2.31-2.04-.34-.31-.74-.36-1.21-.35.02.33.05.62.05.92,0,.68.02,1.36-.04,2.04-.08.92-.49,1.34-1.38,1.56-.13.04-.26.07-.4.08-1.01.11-2.01.25-3.02.31-1.33.09-2.66.17-3.99.05-.96-.09-1.48-.49-1.76-1.43-.23-.75-.35-1.53-.35-2.32,0-.34,0-.69,0-1.1h0ZM14.3,2.62c-.7,0-1.35-.02-1.99,0-1.48.04-2.96.1-4.45.15-.56.02-1.12.01-1.68.02-.12,0-.24.02-.35.05.06,1.06.2,2.07.5,3.06.15.49.24.56.77.6.2.01.39.02.59.02,1.16-.04,2.33-.05,3.49-.13.89-.06,1.77-.21,2.65-.34.42-.06.48-.14.49-.56.02-.78,0-1.57,0-2.36,0-.15-.02-.3-.03-.51h0Z"/>
      <path d="M14.01,10.3c.79.02,2.26.07,3.73.11.18,0,.36.03.54.07.51.1.86.38.97.89.09.4.16.8.21,1.2.17,1.34.27,2.68.15,4.02-.02.18-.05.36-.1.53-.17.63-.59,1.01-1.22,1.14-.27.06-.54.1-.81.1-2.18,0-4.36-.01-6.54-.06-1.16-.02-2.33-.13-3.49-.21-.32-.03-.63-.08-.94-.16-.95-.23-1.38-.74-1.45-1.71-.02-.42-.02-.85,0-1.27.04-.88.1-1.75.16-2.62.01-.15.04-.3.07-.45.15-.67.56-1.05,1.25-1.13.81-.09,1.62-.21,2.44-.25,1.45-.08,2.9-.13,5.03-.22ZM18.04,11.76c-.63-.04-1.19-.1-1.74-.1-1.95.02-3.91.03-5.86.11-1.27.05-2.53.22-3.8.34-.34.03-.37.08-.42.42-.01.1-.02.21-.02.32,0,1.1.02,2.2.03,3.31,0,.14,0,.27.02.41,0,.08.04.16.09.23.05.06.13.11.21.13.13.04.26.08.4.1,1.18.09,2.35.23,3.53.26,1.97.04,3.94.02,5.91.02.44,0,.88-.03,1.31-.08.53-.06.62-.15.64-.68.03-1.22.05-2.45-.14-3.66-.06-.35-.1-.71-.16-1.1Z"/>
    </g>
  </g>
</svg>