<?xml version="1.0" encoding="UTF-8"?>
<svg id="Layer_1" data-name="Layer 1" xmlns="http://www.w3.org/2000/svg" viewBox="0 0 24 24">
  <path d="M7.1,2.22c1.74-.27,3.52-.3,5.28-.1,1.62.17,3.13.71,4.33,1.54.95.72,1.5,1.68,1.54,2.69.02,1.19-.47,2.35-1.41,3.31-.56.58-1.27,1.09-2.07,1.48,1.11.27,2.03.87,2.56,1.66.77,1.18.85,2.54.67,3.83-.15,1.24-.68,2.44-1.56,3.5-.8.91-1.95,1.6-3.3,1.99-1.55.44-3.23.5-4.87.49-.59.02-1.18-.02-1.76-.11-.43-.06-.71-.37-.66-.69.19-3.24.14-6.49.08-9.73-.04-2.51-.1-5.02-.15-7.53,0-.58.04-1.16.08-1.74,0-.19.11-.36.31-.48.27-.16.63-.06.94-.13h0ZM7.33,3.31c.03.73.08,1.45.08,2.18.05,1.9.09,3.81.12,5.71.12-.03.23-.05.35-.07,1.15-.13,2.31-.23,3.47-.27,1.47-.19,2.82-.74,3.83-1.56.93-.8,1.45-1.82,1.45-2.88-.01-.68-.37-1.34-.99-1.84-.92-.67-2.09-1.1-3.35-1.24-1.64-.25-3.31-.09-4.96-.03h0ZM10.67,12.18c-.85.09-1.71.13-2.56.16-.19,0-.38,0-.56-.04.05,3.03.09,6.07-.06,9.1,1.24.04,2.49,0,3.72-.13,1.2-.12,2.31-.53,3.18-1.16,1-.82,1.65-1.84,1.86-2.94.27-.99.27-2.01.01-3-.14-.66-.63-1.25-1.35-1.64-.88-.4-1.95-.44-2.95-.46-.43,0-.87.04-1.29.11h0Z"/>
</svg>