<?xml version="1.0" encoding="UTF-8"?>
<svg id="Layer_1" data-name="Layer 1" xmlns="http://www.w3.org/2000/svg" viewBox="0 0 24 24">
  <path d="M12.48,2.8c1.46,6.42,4.58,12.21,6.17,18.55.14,1.9-1.65,2.04-1.98.47-.39-1.71-1.05-3.28-1.6-4.74-2.92-.39-4.11-.55-6.95-.85-.66,1.79-1.08,4.35-1.68,6.17-.96,1.16-2.43.03-2.29-1.24,1.68-6.17,4.46-12.07,6.28-18.49l2.04.14ZM8.37,14.92c2.26.03,4.38-.08,6.45.14-1.38-2.95-2.87-6.45-3.44-9.67-.5,2.89-1.93,6.75-3,9.54Z"/>
  <path d="M16.82,3.59c1.05-1.05,3.21-1.34,4.15-.2,1.61,1.91.83,5.84.9,7.97-.32,1.12-1.47.2-1.3-.61-.86.83-2.01,1.27-3.01.83-2.67-1.22-.83-4.87,1.13-5.72.44-.19,1.29-.3,1.86-.27-.05-.68-.15-1.17-.3-1.32-.74-.93-1.89-.71-3.1.17l-.32-.85ZM20.59,6.47c-1.61-.07-2.98,1.13-3.21,2.69-.19,1.13.81,1.68,1.57,1.32.44-.19,1.24-.58,1.64-.86.03-1.05.05-2.18,0-3.15Z"/>
</svg>