<?xml version="1.0" encoding="UTF-8"?>
<svg id="Layer_1" data-name="Layer 1" xmlns="http://www.w3.org/2000/svg" viewBox="0 0 24 24">
  <path d="M14.97,10.51c-1.01.05-2.02.06-3.02.03-.14-.61-.27-1.21-.5-1.79-.16-.4-.69-.33-.74.1-.05.39-.13.86-.22,1.28-.02.11-.05.22-.08.34-.52-.03-1.03-.08-1.54-.13-.16-.02-.32.13-.36.28-.05.17.03.33.17.42.47.31.92.64,1.36.98-.2.77-.41,1.53-.61,2.3,0,.03,0,.05,0,.08,0,.02,0,.05,0,.07,0,.02.01.04.02.06,0,.03.01.05.03.08.09.15.31.23.47.15.02,0,.04-.02.06-.03.56-.42,1.14-.82,1.71-1.22.42.42.83.85,1.21,1.31.12.14.36.14.49.03.15-.12.19-.32.1-.48-.28-.51-.56-1.02-.81-1.55.81-.55,1.63-1.08,2.46-1.59.3-.19.2-.72-.19-.7ZM11.53,11.9c.07.2.14.4.22.6-.28-.26-.57-.51-.87-.76.04-.17.08-.34.12-.5.11,0,.23.01.34.02.05.22.11.44.18.65ZM10.24,11.21s-.02-.01-.02-.02c0,0,.02,0,.03,0,0,0,0,0,0,.01ZM10.43,13.49c.09-.32.17-.64.25-.95.16.14.32.28.48.43-.25.17-.49.35-.74.53ZM12.24,11.65c-.04-.12-.07-.24-.1-.37.5.01,1.01.02,1.51,0-.41.27-.83.53-1.24.8-.06-.15-.12-.29-.17-.45Z"/>
  <path d="M8.57,12.43c.48.02.48-.73,0-.75-2.5-.09-5,.05-7.47.42-.2.03-.31.28-.26.46.06.21.26.29.46.26,2.4-.36,4.84-.48,7.27-.39Z"/>
  <path d="M22.8,12.05c-2.76-.11-5.51-.11-8.27.02-.48.02-.48.77,0,.75,2.75-.13,5.51-.14,8.27-.02.48.02.48-.73,0-.75Z"/>
  <path d="M2.5,6.2c5.13.29,10.26.15,15.4.22,1.45.02,2.9.06,4.34.12.48.02.48-.73,0-.75-5.13-.24-10.27-.09-15.4-.19-1.45-.03-2.9-.08-4.34-.16-.48-.03-.48.72,0,.75Z"/>
  <path d="M22.13,17.42c-2.57,0-5.14,0-7.71,0-2.55,0-5.1-.04-7.65.02-1.41.03-2.82.13-4.21.36-.48.08-.27.8.2.72,2.45-.41,4.95-.36,7.43-.36,2.53,0,5.06,0,7.58,0,1.45,0,2.9,0,4.35,0,.48,0,.48-.75,0-.75Z"/>
</svg>