<?xml version="1.0" encoding="UTF-8"?>
<svg id="Layer_1" data-name="Layer 1" xmlns="http://www.w3.org/2000/svg" xmlns:xlink="http://www.w3.org/1999/xlink" viewBox="0 0 24 24">
  <defs>
    <style>
      .cls-1 {
        fill: none;
      }

      .cls-2 {
        clip-path: url(#clippath);
      }
    </style>
    <clipPath id="clippath">
      <rect class="cls-1" x="1.67" y="4.41" width="20.66" height="16.81"/>
    </clipPath>
  </defs>
  <g class="cls-2">
    <path d="M22.19,12.36c-.05-.85-.08-1.71-.12-2.55-.03-.81-.07-1.65-.11-2.48-.06-1.2-.68-2.07-1.79-2.53-.39-.16-.87-.24-1.47-.26-1.58-.04-3.19-.05-4.74-.07-.55,0-1.11-.01-1.66-.02-.01-.01-.03-.02-.05-.02h-1.29c-1.05,0-2.09,0-3.14,0-.19,0-.38,0-.58,0-.58,0-1.17,0-1.76.02-.8.03-1.41.19-1.94.49-1.06.62-1.62,1.51-1.68,2.64-.03.59-.04,1.2-.05,1.78v.37c-.01.49-.02.98-.03,1.47-.03,1.61-.06,3.28-.07,4.93,0,.65.03,1.43.31,2.21.42,1.15,1.18,1.9,2.35,2.28,1.08.35,2.21.52,3.35.53,2.82.04,5.78.05,9.27.05h.68c.64.01,1.28-.06,1.9-.21,1.43-.37,2.28-1.25,2.52-2.62.08-.46.13-.93.16-1.4.1-1.43.03-2.87-.05-4.27l-.02-.35ZM8.99,19.9c-1.22,0-2.53-.05-3.8-.36-.51-.13-.88-.27-1.17-.47l6.3-5.82.18.19c.18.19.36.39.54.58.53.56,1.05.61,1.63.14.24-.19.47-.4.69-.61.08-.08.17-.16.25-.24l6.16,6.25c-.21.18-.47.21-.74.25h-.08c-.29.05-.59.07-.88.07h-1.72c-2.41.02-4.91.02-7.36.02ZM18.62,6.9c-.92.84-1.88,1.7-2.79,2.58-.91.88-1.8,1.8-2.66,2.69-.36.37-.72.75-1.09,1.12l-7.66-7.55c.05-.01.11-.03.16-.04.21-.06.41-.11.61-.15,1-.2,2.03-.17,3.03-.14.22,0,.45.01.67.02.34,0,.68.02,1.02.03.29,0,.59.02.88.03.83.02,1.66.03,2.49.05,1.79.03,3.65.07,5.47.11.26.01.51.05.76.11.1.02.2.04.3.06h0c-.4.37-.81.74-1.2,1.1h0ZM5.71,16.09c-.77.73-1.56,1.49-2.33,2.27-.32-.76-.48-1.38-.53-2-.14-1.73-.08-3.44,0-5.05.03-.73.04-1.48.06-2.2,0-.49.02-1,.03-1.5.02-.53.19-.9.58-1.23l5.99,5.91c-1.22,1.35-2.52,2.6-3.79,3.81h0ZM20.8,18.23c-.03.15-.07.3-.11.45-.02.06-.03.11-.05.17h-.02s-6.34-6.21-6.34-6.21c2.19-2.27,4.27-4.21,6.35-5.92,0,.04.02.08.03.12.04.14.06.28.07.42.07,1.44.13,2.86.17,3.94.04,1.01.07,2.01.1,2.96.03,1.21.04,2.64-.19,4.07h0Z"/>
  </g>
</svg>