<?xml version="1.0" encoding="UTF-8"?>
<svg id="Layer_1" data-name="Layer 1" xmlns="http://www.w3.org/2000/svg" viewBox="0 0 24 24">
  <path d="M19.63,12.19c-.13-.43-.4-.73-.74-.93,0-.09-.08-.2-.19-.22-.12-.02-.24-.05-.37-.06-.1,0-.2-.01-.3-.02,0,0,0,0,0,0-.07,0-.13,0-.2-.01-.62-.04-1.23-.08-1.85-.1-1.59-.03-3.17-.04-4.76-.04-1.83-.19-3.65-.26-5.49-.2,0,0,0-.01,0-.02.47-.26.94-.53,1.42-.76,1.13-.53,2.19-1.19,3.25-1.84.17-.11.36-.22.43-.43.01-.04.03-.11.02-.12-.06-.05-.13-.09-.21-.11-.08,0-.16,0-.24.04-.26.12-.53.24-.78.38-1.84.96-3.67,1.93-5.51,2.88-.69.36-1.02.71-.19,1.5.24.23.48.46.74.66,1.21.94,2.42,1.88,3.64,2.82.17.12.34.23.53.32.12.07.24.03.34-.05.11-.09.19-.34.15-.45-.09-.24-.26-.42-.45-.59-.72-.63-1.45-1.25-2.17-1.86-.47-.4-.95-.8-1.42-1.2-.02-.02-.02-.08-.02-.12,0-.01.01-.02.02-.03.64-.03,1.27-.07,1.91-.07.03,0,.07,0,.1,0,.9,0,1.8.04,2.7.11,1.8.14,3.55.35,5.36.3.82-.02,1.68-.13,2.5-.05.89.09,1.05.95.82,1.71-.27.91-1.53.91-2.29.97-.99.08-1.97.1-2.96.09-.64-.01-.64.99,0,1,1.19.02,2.38-.02,3.56-.14.87-.09,1.8-.28,2.35-1.03.46-.62.52-1.63.31-2.36Z"/>
</svg>