<?xml version="1.0" encoding="UTF-8"?>
<svg id="Layer_1" data-name="Layer 1" xmlns="http://www.w3.org/2000/svg" xmlns:xlink="http://www.w3.org/1999/xlink" viewBox="0 0 24 24">
  <defs>
    <style>
      .cls-1 {
        fill: none;
      }

      .cls-2 {
        clip-path: url(#clippath);
      }
    </style>
    <clipPath id="clippath">
      <rect class="cls-1" x="2.41" y="1.51" width="19.18" height="20.99"/>
    </clipPath>
  </defs>
  <g class="cls-2">
    <path d="M9.98,12.91c1.79-1.78,3.74-3.47,5.43-4.92.77-.66,1.47-1.39,2.1-2.19.06-.07.13-.17.2-.27.07-.09.11-.2.1-.32,0-.11-.05-.22-.13-.31-.07-.08-.17-.14-.27-.15-.11-.02-.22,0-.31.07-.18.1-.35.21-.51.34-.52.42-1.03.86-1.46,1.22-2.34,1.98-4.57,4.09-6.69,6.31-.36.38-.69.8-1.01,1.21-.14.18-.29.37-.44.55-.44.54-.62,1.21-.55,2.03.07.81.48,1.55,1.09,1.97.57.39,1.26.48,2.02.27.61-.16,1.18-.45,1.69-.84.15-.12.29-.23.44-.35.7-.55,1.42-1.11,2.05-1.75,1.65-1.65,3.29-3.36,4.88-5.01.43-.45.87-.9,1.3-1.35.48-.5.88-1.07,1.17-1.7.52-1.14.63-2.21.33-3.26-.31-1.1-1.04-2.05-1.96-2.53-.88-.46-1.91-.5-2.99-.12-.93.33-1.8.79-2.6,1.38-1.72,1.24-3.04,2.34-4.15,3.44-1.8,1.79-3.62,3.62-5.38,5.4l-.35.36c-.67.67-1.06,1.36-1.2,2.11-.08.42-.14.85-.19,1.27-.02.19-.05.38-.08.56,0,.02,0,.04.01.06,0,.02.03.03.04.04,0,.02,0,.05,0,.07,0,.12,0,.24,0,.36,0,.1.02.19.04.28,0,.06.02.12.03.18.24,1.95,1.29,3.48,3.12,4.56.6.35,1.28.53,1.97.52.17,0,.33,0,.5-.03,1.06-.11,2-.54,2.79-.94,1.39-.7,2.69-1.57,3.87-2.58,1.24-1.07,2.46-2.19,3.65-3.27.3-.28.61-.55.91-.83.46-.42.89-.85,1.36-1.34.15-.15.27-.32.36-.51.15-.34.12-.65-.1-.88-.26-.27-.57-.34-.87-.19-.26.12-.5.27-.72.45-1.2,1.09-2.38,2.19-3.38,3.11-1.15,1.07-2.28,2.1-3.52,3-1.08.78-2.26,1.58-3.62,2.11-1.34.53-2.5.27-3.54-.79-.81-.83-1.25-1.77-1.33-2.86-.13-1.64.2-2.72,1.1-3.59,1.09-1.06,2.18-2.15,3.23-3.21.65-.66,1.33-1.33,2-2,1.11-1.1,2.37-2.16,3.96-3.34.67-.5,1.58-1.11,2.64-1.46.59-.19,1.05-.21,1.49-.06.94.34,1.7,1.64,1.57,2.67-.11.88-.5,1.67-1.17,2.41-.41.45-.84.9-1.24,1.31-.42.43-.83.86-1.25,1.29-1.14,1.17-2.31,2.39-3.49,3.56-.65.64-1.37,1.24-2.06,1.82-.14.11-.27.23-.41.34-.41.34-.88.6-1.39.75-.51.15-.89.01-1.12-.42-.3-.56-.31-1.06-.03-1.54.57-.96,1.33-1.78,2.08-2.52Z"/>
  </g>
</svg>