<?xml version="1.0" encoding="UTF-8"?>
<svg id="Layer_1" data-name="Layer 1" xmlns="http://www.w3.org/2000/svg" viewBox="0 0 24 24">
  <defs>
    <style>
      .cls-1 {
        fill: red;
      }
    </style>
  </defs>
  <path class="cls-1" d="M21.45,19.37c-.46-.78-.91-1.57-1.36-2.37-.64-1.14-1.24-2.29-1.84-3.45.45-.11.82-.44.82-.95s-.46-1.06-1-1c-.26.03-.52.05-.78.07-1.46-2.91-2.82-5.87-4.05-8.88-.26-.63-1.13-1.07-1.67-.44-2.46,2.86-3.94,6.27-5.41,9.68-.32-.01-.65-.01-.97-.03-1.29-.07-1.28,1.93,0,2,.04,0,.07,0,.11,0-.95,2.14-1.97,4.23-3.31,6.16-.74,1.06,1,2.06,1.73,1.01,1.53-2.2,2.62-4.64,3.68-7.1,2.92.07,5.83-.03,8.74-.29.57,1.11,1.14,2.23,1.74,3.33.69,1.26,1.55,2.49,2.19,3.78v.02c.04.55.43.98,1,1,.02,0,.05,0,.07,0,.4.01.89-.32.96-.73.12-.73-.29-1.21-.64-1.82ZM8.23,12.11c1.07-2.49,2.2-4.93,3.79-7.11.99,2.32,2.02,4.62,3.14,6.89-2.31.18-4.62.26-6.93.23Z"/>
</svg>