<?xml version="1.0" encoding="UTF-8"?>
<svg id="Layer_1" data-name="Layer 1" xmlns="http://www.w3.org/2000/svg" viewBox="0 0 24 24">
  <path d="M2,12.29c.15-.5.47-.85.87-1.09,0-.11.09-.23.23-.26.14-.02.29-.06.43-.07.12,0,.24-.02.36-.02,0,0,0,0,0,0,.08,0,.16,0,.24-.01.72-.05,1.45-.1,2.18-.11,1.87-.03,3.73-.04,5.6-.04,2.15-.23,4.3-.31,6.46-.23,0,0,0-.02-.01-.02-.56-.3-1.1-.62-1.67-.89-1.33-.63-2.57-1.39-3.82-2.17-.2-.13-.42-.26-.5-.51-.02-.05-.04-.12-.02-.14.07-.06.15-.11.24-.13.1-.01.19,0,.28.04.31.14.62.29.92.45,2.16,1.13,4.32,2.27,6.49,3.39.82.42,1.2.84.22,1.77-.28.27-.57.54-.87.78-1.42,1.11-2.85,2.22-4.29,3.31-.2.14-.41.27-.62.38-.14.08-.28.03-.41-.06-.13-.1-.22-.4-.17-.53.1-.29.31-.5.53-.69.85-.74,1.7-1.47,2.56-2.19.56-.47,1.12-.94,1.68-1.42.03-.02.03-.1.02-.14,0-.01-.01-.02-.02-.03-.75-.04-1.5-.08-2.25-.08-.04,0-.08,0-.12,0-1.06,0-2.12.04-3.17.13-2.12.17-4.18.41-6.31.36-.97-.02-1.98-.15-2.94-.06-1.05.1-1.23,1.11-.97,2.01.32,1.07,1.8,1.08,2.69,1.15,1.16.09,2.32.12,3.49.1.76-.01.76,1.16,0,1.18-1.4.02-2.8-.02-4.19-.17-1.02-.11-2.11-.33-2.76-1.21-.54-.73-.62-1.92-.36-2.78Z"/>
</svg>