<?xml version="1.0" encoding="UTF-8"?>
<svg id="Layer_1" data-name="Layer 1" xmlns="http://www.w3.org/2000/svg" viewBox="0 0 24 24">
  <path d="M9.46,2.68c-.12,0-.23.03-.33.09-.1.06-.18.15-.24.25-.09.18-.14.37-.15.57-.02.26-.03.54-.03.81,0,.14,0,.27.01.41.05.82.1,1.65.16,2.45.1,1.5.2,3.06.26,4.59.07,2.08.33,4.18.58,6.2.06.53.13,1.06.19,1.59,0,.04,0,.09.01.13.03.31.06.7.49,1.09.01.01.03.02.05.03.02,0,.04,0,.05,0,.02,0,.03-.01.05-.02s.02-.03.03-.04c.3-.72.34-1.34.36-1.97l.02-.55c.05-1.74.1-3.53.03-5.3-.11-2.98-.4-5.9-.74-9.13-.03-.3-.12-.6-.25-.88-.05-.1-.12-.18-.22-.24-.09-.06-.2-.09-.31-.09Z"/>
  <path d="M1.36,4.19c.21.1.44.17.67.18.13,0,.26.02.38.03.59.05,1.2.09,1.8.09.05,0,.09,0,.14,0,1.14-.01,2.3-.04,3.42-.07,1.49-.03,3.02-.07,4.54-.08,2.16-.01,4.34-.26,6.44-.5h.07c.13-.03.26-.08.37-.15.08-.04.16-.09.27-.14.02,0,.04-.02.05-.04.01-.02.02-.04.02-.06s0-.04-.02-.06c-.01-.02-.03-.03-.05-.04-.11-.05-.2-.11-.28-.15-.13-.09-.27-.15-.42-.18l-.41-.05c-.8-.1-1.63-.2-2.45-.23-4.42-.18-8.92-.01-13.26.16l-.78.03c-.12,0-.24.02-.35.05-.13.02-.25.09-.34.19-.09.1-.15.22-.16.35-.02.13,0,.27.07.39.07.12.17.21.29.27Z"/>
  <path d="M17.97,12.42c.01-1.78.02-3.56.04-5.33,0-.35.03-.71.06-1.06,0-.06.03-.11.07-.16.04-.04.08-.08.14-.09.09-.03.21.07.23.19.02.12.04.23.05.35.04.75.1,1.5.12,2.25.03,1.54.03,3.08.03,4.62,0,1.46-.02,2.92-.02,4.39,0,.23.03.47.05.7,0,.02.01.03.02.04.01.01.02.02.04.03.03,0,.09,0,.1-.03.23-.45.48-.89.68-1.35.48-1.07,1.07-2.08,1.67-3.09.1-.17.2-.34.39-.41.04-.01.1-.03.11-.02.05.06.08.12.1.2,0,.08,0,.16-.03.23-.11.25-.22.5-.34.75-.87,1.75-1.75,3.5-2.61,5.25-.33.66-.64.97-1.36.18-.21-.23-.41-.46-.6-.71-.86-1.15-1.71-2.31-2.55-3.47-.11-.16-.21-.33-.29-.5-.06-.11-.02-.23.05-.33.08-.11.31-.18.41-.14.22.08.38.25.53.43.57.69,1.13,1.38,1.69,2.07.37.45.73.91,1.09,1.36.02.02.07.02.11.01.01,0,.03-.02.04-.03.01-.01.02-.03.02-.04.01-.24.03-.47.03-.71,0-1.86-.02-3.71-.03-5.57h-.02Z"/>
</svg>