<?xml version="1.0" encoding="UTF-8"?>
<svg id="Layer_1" data-name="Layer 1" xmlns="http://www.w3.org/2000/svg" xmlns:xlink="http://www.w3.org/1999/xlink" viewBox="0 0 24 24">
  <defs>
    <style>
      .cls-1 {
        fill: none;
      }

      .cls-2 {
        clip-path: url(#clippath);
      }
    </style>
    <clipPath id="clippath">
      <rect class="cls-1" x="1.6" y="3.83" width="20.81" height="17.15"/>
    </clipPath>
  </defs>
  <g class="cls-2">
    <g>
      <path d="M11.82,18.95c.66,0,1.32-.01,1.98,0,2.31.05,4.62.1,6.93.17.4.02.8.1,1.17.26.4.17.53.64.38,1.03-.13.34-.38.48-.77.46-1.11-.06-2.23-.14-3.34-.15-4.12-.04-8.23-.04-12.35-.07-.91,0-1.83-.08-2.74-.15-.28-.03-.55-.09-.81-.19-.44-.16-.64-.46-.62-.85.02-.4.31-.69.8-.78.25-.04.51-.06.76-.05,2.87.1,5.74.19,8.61.29v.03Z"/>
      <path d="M11.82,4.91c.66,0,1.32-.01,1.98,0,2.31.05,4.62.1,6.93.17.4.02.8.1,1.17.26.4.17.53.64.38,1.03-.13.34-.38.48-.77.46-1.11-.06-2.23-.14-3.34-.15-4.12-.04-8.23-.04-12.35-.07-.91,0-1.83-.08-2.74-.15-.28-.03-.55-.09-.81-.19-.44-.16-.64-.46-.62-.85.02-.4.31-.69.8-.78.25-.04.51-.06.76-.05,2.87.1,5.74.19,8.61.29v.03Z"/>
      <path d="M5.46,11.09c-.51,0-1.02,0-1.53-.04-.38-.02-.76-.08-1.13-.17-.47-.13-.67-.42-.66-.82.02-.38.26-.67.72-.76.37-.08.75-.11,1.14-.1,4.93.11,9.87.05,14.79.52.78.07,1.57.14,2.34.26.47.08.72.42.71.77-.01.4-.3.67-.84.7-.56.04-1.12,0-1.72,0-4.57-.4-9.2-.35-13.83-.37Z"/>
      <path d="M5.46,15.38c-.51,0-1.02,0-1.53-.04-.38-.02-.76-.08-1.13-.17-.47-.13-.67-.42-.66-.82.02-.38.26-.67.72-.76.37-.08.75-.11,1.14-.1,4.93.11,9.87.05,14.79.52.78.07,1.57.14,2.34.26.47.08.72.42.71.77-.01.4-.3.67-.84.7-.56.04-1.12,0-1.72,0-4.57-.4-9.2-.35-13.83-.37Z"/>
    </g>
  </g>
</svg>