<?xml version="1.0" encoding="UTF-8"?>
<svg id="Layer_1" data-name="Layer 1" xmlns="http://www.w3.org/2000/svg" xmlns:xlink="http://www.w3.org/1999/xlink" viewBox="0 0 24 24">
  <defs>
    <style>
      .cls-1 {
        fill: none;
      }

      .cls-2 {
        clip-path: url(#clippath);
      }
    </style>
    <clipPath id="clippath">
      <rect class="cls-1" x="10.58" y="11.46" width="12.24" height="11.27"/>
    </clipPath>
  </defs>
  <g class="cls-2">
    <path d="M16.74,22.66c-.99.06-1.62-.06-2.61-.1-.19-.02-.38-.1-.52-.22-1.09-1.07-1.93-2.34-2.77-3.6-.32-.47-.23-.85.21-1.22,1.8-1.52,4.64-3.98,6.47-5.5.04-.03.1-.08.14-.11.84-.6,1.09-.58,1.7.23.58.76,1.11,1.55,1.68,2.32.39.53.81,1.04,1.21,1.56.09.12.2.22.28.34.38.57.32.97-.2,1.43-1.04.91-3.14,2.79-4.18,3.7-.13.11-1.06,1.14-1.41,1.16ZM21.57,17.29c-1.05-1.67-2.19-3.25-3.22-4.88-1.12.88-3.07,2.7-4.13,3.54l4.04,4.28c.78-.68,2.57-2.31,3.31-2.95ZM17.32,21.08c-1.29-1.48-2.36-3.15-3.81-4.52l-1.92,1.68c.64.93,1.19,1.85,1.86,2.68.95,1.19.49.93,2.02,1.06.42.04,1.09-.06,1.09-.06,0,0,.56-.45.76-.84Z"/>
  </g>
  <path d="M13.74,14.49c.27-.19.54-.38.8-.57.04-.03.08-.06.11-.1.04-.03.08-.06.11-.09-.14-.31-.28-.62-.42-.93.39,0,.79-.02,1.18-.02.81,0,.81-1.26,0-1.26-.59,0-1.17.02-1.76.03-1.21-2.52-2.49-5.02-3.84-7.47-.23-.42-.85-.39-1.08,0-1.47,2.45-2.4,5.21-3.49,7.86-.4.03-.81.06-1.21.09-.8.07-.81,1.32,0,1.26.22-.02.44-.03.66-.05-.81,1.8-1.75,3.52-3.07,5.02-.53.6.35,1.5.89.89,1.58-1.79,2.63-3.86,3.55-6.01,2.27-.16,4.54-.27,6.81-.32.26.55.5,1.1.75,1.65ZM6.71,11.87c.84-2.07,1.62-4.18,2.67-6.14,1.05,1.94,2.06,3.89,3.01,5.87-1.9.05-3.79.14-5.69.27Z"/>
</svg>