<?xml version="1.0" encoding="UTF-8"?>
<svg id="Layer_1" data-name="Layer 1" xmlns="http://www.w3.org/2000/svg" viewBox="0 0 24 24">
  <path d="M12.17,3.94c.03-.15.13-.27.27-.33.14-.06.3-.04.42.05.23.17.18.48.19.73.04,1.07-.02,2.13-.02,3.2-.06,4.01-.07,8.02,0,12.04.02.16,0,.33-.07.48-.11.2-.35.3-.57.23-.22-.08-.36-.28-.35-.51-.02-1.24-.03-2.48-.04-3.71-1.23-.03-2.45,0-3.68.05-.32,0-.65,0-.97,0,0,1.25.02,2.51.06,3.76.01.18-.07.35-.23.45-.15.1-.34.11-.5.02-.16-.08-.26-.25-.26-.43-.04-.57-.03-1.14-.05-1.71-.03-3.55-.12-7.1-.13-10.65,0-1-.04-2.01.05-3.01.03-.23-.01-.5.17-.67.09-.08.21-.13.33-.12.12,0,.23.06.31.16.1.18.14.38.11.58.05,1.29.01,2.58.04,3.87.01,2.28.06,4.55.09,6.83.84-.09,1.68-.11,2.52-.13.71-.02,1.43-.02,2.15,0-.02-2.49.01-4.98.04-7.47.02-1.23,0-2.47.14-3.7Z"/>
  <path d="M16.69,4.22c.02-.25.22-.45.47-.47.27-.02.51.19.53.47-.11,2.66,0,5.32-.01,7.98.01,2.53-.04,5.06.05,7.59.03.18-.03.37-.15.5-.1.09-.22.14-.36.14-.13,0-.26-.06-.35-.16-.18-.2-.13-.48-.15-.73-.08-2.51-.02-5.03-.03-7.54-.01-1.49-.01-2.98-.05-4.48-.4.69-.75,1.43-1.33,2-.2.18-.38.47-.68.45-.15-.01-.28-.1-.35-.23-.07-.13-.07-.29,0-.42.15-.22.34-.4.48-.62.46-.68.86-1.39,1.21-2.13.36-.74.61-1.53.72-2.35Z"/>
</svg>