<?xml version="1.0" encoding="UTF-8"?>
<svg id="Layer_1" data-name="Layer 1" xmlns="http://www.w3.org/2000/svg" xmlns:xlink="http://www.w3.org/1999/xlink" viewBox="0 0 24 24">
  <defs>
    <style>
      .cls-1 {
        fill: none;
      }

      .cls-2 {
        clip-path: url(#clippath);
      }
    </style>
    <clipPath id="clippath">
      <rect class="cls-1" x="1.51" y="4.1" width="20.98" height="15.81"/>
    </clipPath>
  </defs>
  <g class="cls-2">
    <g>
      <path d="M8.24,6.26c.17.12.37.2.58.23.36.05.73.07,1.09.07.59.01,1.18.02,1.77.04,1.5.03,3.06.07,4.59.07.11,0,.23,0,.34,0,1.21,0,2.44-.07,3.62-.14.37-.02.73-.04,1.1-.06.16-.02.32-.05.47-.11.09-.03.17-.06.27-.08.01,0,.03-.01.04-.02.01-.01.02-.02.03-.04,0-.01,0-.03,0-.04,0-.01,0-.03-.01-.04-.25-.42-.57-.47-.83-.5-.04,0-.07,0-.11-.02-1.52-.26-2.9-.47-4.32-.47-.48,0-.95,0-1.43-.01-.73,0-1.48-.01-2.22-.01-1.35,0-2.71.02-4.04.06-.3,0-.6.06-.88.17-.08.04-.15.09-.2.17-.05.07-.08.16-.09.25-.01.09,0,.19.04.28.04.09.1.16.18.22Z"/>
      <path d="M22.41,12.63c-.03-.09-.06-.18-.14-.21-.19-.08-.39-.13-.59-.16-.42-.04-.83-.09-1.25-.13-1.07-.12-2.17-.24-3.26-.28-2.04-.08-4.11-.12-6.11-.16-.66-.01-1.31-.02-1.97-.04-.24-.01-.48.02-.71.1-.08.04-.16.1-.22.17-.06.07-.11.15-.13.24-.03.12-.02.25.03.36.06.11.15.2.27.24.28.11.57.19.88.22,1.12.09,2.26.16,3.36.22l.37.02c1.22.07,2.4.11,3.55.11,1.52,0,2.99-.06,4.44-.19.07,0,.15-.01.23-.02.41-.03.84-.06,1.26-.26.02-.01.04-.03.05-.06,0-.02,0-.05,0-.07-.02-.04-.03-.07-.04-.11Z"/>
      <path d="M21.94,17.99s-.07-.02-.1-.03c-.07-.03-.14-.05-.22-.06-.36-.02-.72-.05-1.08-.08-.9-.07-1.83-.13-2.75-.16-2.67-.07-5.38-.1-8-.13h-.37c-.27,0-.55.05-.8.16-.09.04-.16.1-.22.18-.05.08-.09.17-.09.27,0,.1.01.21.06.3.05.09.12.17.2.23.15.09.32.16.49.18l.2.03c.46.07.91.11,1.37.14.82.02,1.64.03,2.45.04.55,0,1.13.01,1.69.02.17,0,.35,0,.52,0,1.9,0,3.78-.18,5.39-.36l.18-.02c.26-.03.53-.06.8-.1.27-.05.39-.22.35-.52,0-.02-.01-.04-.02-.05-.01-.01-.03-.03-.05-.03Z"/>
    </g>
  </g>
  <path d="M3.24,9.08c.32-.01.64-.08.95-.12l-.13.02c.2-.03.4-.04.61-.02l-.13-.02c.06,0,.11.02.17.03.25.06.55-.08.62-.35s-.08-.55-.35-.62c-.51-.13-1.01-.02-1.51.05l.13-.02c-.12.02-.23.03-.35.03-.26,0-.51.22-.5.5s.22.51.5.5h0Z"/>
  <g>
    <path d="M3.01,5.74c.33-.11.64-.24.95-.39-.13.93-.26,1.85-.39,2.78-.04.27.07.54.35.62.23.06.58-.08.62-.35.18-1.29.37-2.58.55-3.88.03-.2,0-.39-.18-.53-.15-.11-.39-.16-.56-.04-.49.35-1.03.63-1.6.83-.26.09-.42.34-.35.62.07.25.36.44.62.35Z"/>
    <path d="M5.04,14.73c.27.05.54-.07.62-.35.07-.24-.08-.57-.35-.62-.35-.07-.71-.1-1.06-.16.09-.06.19-.11.28-.18.53-.4,1.02-.89,1.2-1.55.19-.68,0-1.73-.85-1.81-.64-.06-1.33.35-1.77.78-.46.45.25,1.16.71.71.15-.15.29-.25.5-.35.08-.04.29-.13.42-.14.01.03.03.05.02.03.04.1.04.17.04.26,0,.19-.05.36-.15.54-.2.34-.54.63-.88.86-.38.26-.8.49-1.22.64-.23.09-.4.29-.36.55.04.26.24.4.49.43.79.09,1.58.21,2.36.36Z"/>
    <path d="M5.71,18.06c-.1-.1-.21-.17-.33-.24.1-.09.19-.19.26-.3.32-.49.16-1.14-.17-1.58-.35-.47-.98-.39-1.5-.3-.48.08-.93.28-1.28.61-.2.18-.19.52,0,.71.2.2.51.18.71,0,.18-.17.4-.26.67-.32.15-.03.21-.04.38-.05.08,0,.15,0,.23,0,0,0,.02,0,.02,0,.03.07.11.28.12.31,0,.03-.01.08-.02.1-.01.02-.02.03-.07.08-.08.08-.21.15-.34.23-.17.1-.35.19-.53.27-.2.09-.28.37-.23.56.06.22.26.36.48.37.18,0,.36.03.54.08.07.02.12.04.17.07.04.02.08.05.12.07.01,0,.02.01.02.01,0,0,0,0,.01,0,.04.03.07.06.1.1,0,0,.05.07.02.03.06.08.05.07.07.15,0,.02,0,.02,0,.02,0,0,0,0,0,0,0,.04,0,.09,0,.14,0-.04-.03.06-.02.05-.15.2-.53.27-.78.28-.37.01-.69-.06-1.05-.17-.26-.08-.55.09-.62.35-.07.27.09.53.35.62.5.16,1.03.25,1.56.18.58-.07,1.22-.32,1.46-.9.22-.53.05-1.14-.36-1.52Z"/>
  </g>
</svg>