<?xml version="1.0" encoding="UTF-8"?>
<svg id="Layer_1" data-name="Layer 1" xmlns="http://www.w3.org/2000/svg" xmlns:xlink="http://www.w3.org/1999/xlink" viewBox="0 0 24 24">
  <defs>
    <style>
      .cls-1 {
        fill: none;
      }

      .cls-2 {
        clip-path: url(#clippath);
      }
    </style>
    <clipPath id="clippath">
      <rect class="cls-1" x="1.34" y=".33" width="21.32" height="23.33"/>
    </clipPath>
  </defs>
  <g class="cls-2">
    <g>
      <path d="M22.47,13.91l-.03-1.06c0-.38-.04-.77-.07-1.14l-.02-.24c-.03-.34-.21-.53-.53-.53h-.05c-.48,0-.99,0-1.48.02-.52.02-1.05.04-1.56.07-.99.05-2.01.09-3.02.09-1.55,0-3.13-.02-4.66-.04-1.08-.02-2.19-.03-3.28-.04-.57,0-1.14.02-1.69.05-.17,0-.34.02-.5.02.07-.03.15-.07.22-.1,1.08-.47,2.16-.94,3.24-1.41,2.89-1.26,5.88-2.55,8.82-3.82,1.58-.68,2.91-1.11,4.18-1.35.28-.05.43-.25.4-.52-.03-.19-.09-.37-.19-.54-.16-.29-.33-.57-.52-.85-.45-.65-.91-1.29-1.25-1.77-.22-.31-.5-.41-.83-.31-.22.07-.45.14-.67.2-.42.12-.85.25-1.26.4-3.17,1.16-7.34,2.73-11.43,4.57-1.3.59-2.62,1.21-3.88,1.81l-.49.23c-.27.13-.44.3-.51.51-.07.21-.03.44.12.7.43.78.76,1.62.97,2.49.02.09.05.17.08.26.02.07.05.14.07.21.01.05.03.1.04.15.05.12.07.26.08.39,0,.23-.01.46-.03.68-.02.28-.03.57-.03.85.04,1.44.1,2.99.18,4.87.02.44.05.89.08,1.33.04.6.08,1.21.09,1.82.03,1,.2,1.19,1.17,1.29.07,0,.14.01.2.01.71.03,1.43.07,2.13.1,1.58.08,3.21.16,4.81.18,2.11.02,4.25,0,6.33-.01,1.06,0,2.16-.02,3.24-.02.22,0,.43.04.64.1.08.02.17.04.25.04.27,0,.47-.14.58-.42.06-.13.09-.27.1-.41,0-.26.02-.52.03-.78.03-.75.06-1.52.05-2.27-.03-1.93-.08-3.89-.13-5.79ZM3.5,11.03l-1.13-2.55,3.08-1.34-.25,3.03-1.7.86ZM21.27,11.9l-.1,10.33c-1.74.09-3.48.09-5.16.1h-.48c-1.78,0-3.55-.02-5.66-.06-1.32-.02-2.61-.06-3.97-.09-.57-.02-1.14-.03-1.71-.04l-.07-.7c-.31-3-.63-6.1-.54-9.19.05,0,.09-.01.14-.02.16-.02.32-.05.48-.06,2.48-.16,5.01-.1,7.38-.03,1.67.05,3.49.05,5.72.02.79-.01,1.58-.08,2.35-.14.34-.03.69-.06,1.04-.08.14,0,.28-.02.44-.03h.13ZM12.91,6.69l-2.85,1.26.06-.63c.06-.69.12-1.34.18-1.99,0-.07.02-.14.07-.2.04-.06.1-.1.17-.12.71-.27,1.4-.55,2.14-.85.21-.09.43-.17.65-.26-.05.24-.1.47-.15.7-.16.7-.31,1.36-.27,2.1h0ZM13.93,6.22c.02-.17.05-.34.07-.5.1-.71.2-1.38.3-2.05.01-.04.04-.08.07-.12.03-.03.07-.06.11-.08.7-.28,1.4-.55,2.14-.83l.51-.2c0,.06-.02.12-.03.19l-.07.29c-.16.67-.33,1.36-.51,2.04-.03.09-.09.17-.17.22-.63.28-1.26.55-1.93.83l-.49.21ZM17.9,4.51l.38-2.49c.38-.21.9-.33,1.36-.43.06,0,.12,0,.17.03l.1.12c.42.53.86,1.08,1.15,1.74l-3.16,1.01ZM6.19,9.42c.01-.34.02-.67.04-1.01.02-.44.04-.87.05-1.31,0-.22.02-.34.22-.42.63-.26,1.27-.53,1.89-.79.29-.12.59-.25.88-.37,0,0,.01,0,.02,0l-.41,2.96-2.67,1.21s0-.02,0-.02c0-.08-.01-.16-.01-.24h0Z"/>
      <path d="M19.01,17.86c0-.1,0-.2-.01-.3-.02-.18-.03-.36-.04-.53-.04-.55-.09-1.12-.16-1.68-.07-.55-.31-.76-.88-.78-.18,0-.36-.01-.54-.02-.44-.02-.89-.04-1.34-.04-2.12-.02-4.31-.03-6.5-.03-.45,0-.9.03-1.34.05-.3.02-.61.03-.92.04-.37.01-.61.19-.71.52-.06.18-.09.37-.09.56.02.61.04,1.27.09,2.02.02.35.05.72.1,1.09.09.54.39.86.93.96.34.07.69.11,1.04.13,1.2.04,2.42.07,3.6.1.43.01.85.02,1.28.03h.09s0-.03,0-.03c.32,0,.65,0,.97,0,1.07,0,2.18,0,3.28,0,.14,0,.5-.03.69-.21.43-.42.6-.91.5-1.45-.02-.14-.03-.28-.03-.43ZM17.86,18.78c-1.06.19-9.16.17-10.14-.04l-.35-3.19c3.02-.13,6.6-.23,10.33.02.08.58.11,1.16.1,1.74,0,.49.02.98.06,1.47Z"/>
      <path d="M16.8,17.5c-.12-.06-.26-.08-.4-.06-.03,0-.06,0-.09,0-.26,0-.52,0-.78.01-.28,0-.57,0-.85.01-.6,0-1.2,0-1.8,0-.91,0-1.85,0-2.78.01-.24,0-.47.02-.71.05-.06,0-.12.01-.18.02-.06,0-.11.02-.16.05-.05.03-.09.07-.13.11-.03.04-.04.08-.05.12,0,.04,0,.09,0,.13.04.14.18.25.31.34.07.04.15.05.23.04.02,0,.04,0,.06,0h3.25l.98.05c.88.04,1.7.08,2.52.12.04,0,.08,0,.12,0,.17,0,.34-.02.5-.09.15-.07.32-.31.3-.47-.03-.18-.2-.36-.35-.45Z"/>
      <path d="M9.47,16.96l.37.05c.47.06.95.13,1.43.18.05,0,.09,0,.14,0,.16,0,.32-.02.48-.07.13-.04.23-.21.26-.32.02-.12-.09-.27-.19-.33-.11-.07-.24-.1-.36-.11-.31-.03-.62-.06-.92-.08-.12,0-.23-.02-.35-.03h-.09s0,.01,0,.01c-.06,0-.11,0-.17,0-.22,0-.46,0-.69,0-.1,0-.31.12-.31.25.01.13.07.25.16.34.07.06.15.1.24.1Z"/>
    </g>
  </g>
</svg>