<?xml version="1.0" encoding="UTF-8"?>
<svg id="Layer_1" data-name="Layer 1" xmlns="http://www.w3.org/2000/svg" xmlns:xlink="http://www.w3.org/1999/xlink" viewBox="0 0 24 24">
  <defs>
    <style>
      .cls-1 {
        fill: none;
      }

      .cls-2 {
        clip-path: url(#clippath);
      }
    </style>
    <clipPath id="clippath">
      <rect class="cls-1" x="1.05" y="1.3" width="21.9" height="21.9"/>
    </clipPath>
  </defs>
  <g class="cls-2">
    <g>
      <path d="M8.29,8.78c.39.36.86.52,1.54.52,0,0,0,0,0,0,.02,0,.05,0,.08,0,.08,0,.18-.01.28-.03.3-.04.58-.14.84-.29.26-.15.48-.36.66-.6.17-.24.29-.51.35-.8.06-.29.07-.58.01-.87-.11-.66-.43-1.08-.93-1.25-.34-.12-.71-.16-1.07-.13-.36.03-.71.14-1.03.32-.31.17-.57.4-.78.67-.21.28-.36.6-.44.94-.14.59.02,1.11.48,1.53ZM10.16,6.46h.05c.31,0,.55.04.66.34.06.17.07.35.02.52-.04.17-.14.33-.27.44-.33.3-1.04.38-1.43.16-.25-.14-.33-.31-.26-.6.13-.59.52-.86,1.22-.87Z"/>
      <path d="M5.7,22.93c.22,0,.46-.02.68-.02,1.38,0,2.64.02,3.86.04,1.94.03,3.93.08,5.9.13.16,0,.32.03.48.07.08.02.15.03.23.04,0,0,0,0,.01,0h.93s0,0,.01,0c.19-.03.37-.05.56-.08.4-.05.82-.11,1.23-.19,1.87-.4,3.36-2.31,3.34-4.28-.02-1.31-.01-2.65-.01-3.94,0-.93,0-1.88,0-2.83,0-.86-.04-1.74-.06-2.58l-.02-.54c0-.2-.01-.41-.02-.61-.02-.67-.04-1.36-.1-2.04-.07-.67-.19-1.33-.37-1.98-.5-1.84-2.25-2.71-3.77-2.75-.43-.01-.87.02-1.3.05-.32.02-.65.05-.98.05-.88.01-1.78.02-2.65.02-1.14,0-2.32.01-3.49.04h-.17c-1.67.04-3.39.07-5.08.21-1.82.14-3.03,1.02-3.59,2.6-.09.24-.15.5-.16.75v.76c-.04,2.23-.07,4.53-.06,6.8,0,1.02.04,2.05.07,3.05.02.56.04,1.14.05,1.71.01.62.02,1.14,0,1.67-.08,1.92,1.58,3.76,3.5,3.86.33.02.66,0,.99,0ZM2.28,6.72c-.01-.81.18-1.61.56-2.33.34-.64.85-1.03,1.46-1.15.97-.18,1.92-.35,2.88-.37,2.43-.07,4.9-.1,7.3-.14,1.21-.02,2.41-.04,3.62-.06.65-.01,1.28.18,2.01.6.8.46,1.05,1.28,1.19,2.03.3,1.57.43,2.89.42,4.14,0,.5-.01.99-.01,1.49-.03-.03-.07-.06-.1-.09-.47-.39-.96-.79-1.43-1.17-.57-.46-1.15-.93-1.71-1.41-.74-.62-1.17-.61-1.84.07-1.6,1.6-3.24,3.24-4.83,4.82l-1.79,1.79-.03-.03c-.06-.05-.11-.09-.15-.13-.25-.2-.5-.41-.75-.61-.61-.5-1.24-1.01-1.87-1.5-.46-.36-.78-.35-1.2.02-1.24,1.09-2.48,2.19-3.7,3.27-.01-2.86-.02-6.02-.02-9.25ZM2.42,17.12c.24-.2.47-.4.71-.6.44-.38.9-.77,1.36-1.15.49-.4,1-.81,1.48-1.2.2-.16.4-.33.61-.49.27.22.54.44.81.65.7.56,1.36,1.1,2.03,1.65.53.44.85.42,1.32-.07.16-.16.31-.33.47-.49.2-.22.41-.44.63-.65,1.61-1.61,3.25-3.24,4.84-4.82l.69-.69c.07-.07.14-.13.2-.18h0c.3.23.59.46.88.69.87.69,1.69,1.34,2.55,1.98.22.15.45.27.7.35,0,1.71,0,3.43,0,5.1,0,.51,0,1.02,0,1.53,0,1.24-.99,2.59-2.16,2.95-.88.27-1.8.38-2.72.34-1.25-.05-2.52-.11-3.75-.17-.51-.02-1.02-.05-1.54-.07h-1.39c-.74,0-1.49,0-2.23,0-.81,0-1.62,0-2.42,0h0c-.92,0-1.6-.23-2.16-.73-.69-.61-1.01-1.44-1.01-2.62,0-.4,0-.8,0-1.21.04-.03.08-.07.12-.1Z"/>
    </g>
  </g>
</svg>