<?xml version="1.0" encoding="UTF-8"?>
<svg id="Layer_1" data-name="Layer 1" xmlns="http://www.w3.org/2000/svg" xmlns:xlink="http://www.w3.org/1999/xlink" viewBox="0 0 24 24">
  <defs>
    <style>
      .cls-1 {
        fill: none;
      }

      .cls-2 {
        clip-path: url(#clippath);
      }
    </style>
    <clipPath id="clippath">
      <rect class="cls-1" x="1.74" y="4.1" width="20.98" height="15.81"/>
    </clipPath>
  </defs>
  <g class="cls-2">
    <g>
      <path d="M8.47,6.26c.17.12.37.2.58.23.36.05.73.07,1.09.07.59.01,1.18.02,1.77.04,1.5.03,3.06.07,4.59.07.11,0,.23,0,.34,0,1.21,0,2.44-.07,3.62-.14.37-.02.73-.04,1.1-.06.16-.02.32-.05.47-.11.09-.03.17-.06.27-.08.01,0,.03-.01.04-.02.01-.01.02-.02.03-.04,0-.01,0-.03,0-.04,0-.01,0-.03-.01-.04-.25-.42-.57-.47-.83-.5-.04,0-.07,0-.11-.02-1.52-.26-2.9-.47-4.32-.47-.48,0-.95,0-1.43-.01-.73,0-1.48-.01-2.22-.01-1.35,0-2.71.02-4.04.06-.3,0-.6.06-.88.17-.08.04-.15.09-.2.17-.05.07-.08.16-.09.25-.01.09,0,.19.04.28.04.09.1.16.18.22Z"/>
      <path d="M22.64,12.63c-.03-.09-.06-.18-.14-.21-.19-.08-.39-.13-.59-.16-.42-.04-.83-.09-1.25-.13-1.07-.12-2.17-.24-3.26-.28-2.04-.08-4.11-.12-6.11-.16-.66-.01-1.31-.02-1.97-.04-.24-.01-.48.02-.71.1-.08.04-.16.1-.22.17-.06.07-.11.15-.13.24-.03.12-.02.25.03.36.06.11.15.2.27.24.28.11.57.19.88.22,1.12.09,2.26.16,3.36.22l.37.02c1.22.07,2.4.11,3.55.11,1.52,0,2.99-.06,4.44-.19.07,0,.15-.01.23-.02.41-.03.84-.06,1.26-.26.02-.01.04-.03.05-.06,0-.02,0-.05,0-.07-.02-.04-.03-.07-.04-.11Z"/>
      <path d="M22.17,17.99s-.07-.02-.1-.03c-.07-.03-.14-.05-.22-.06-.36-.02-.72-.05-1.08-.08-.9-.07-1.83-.13-2.75-.16-2.67-.07-5.38-.1-8-.13h-.37c-.27,0-.55.05-.8.16-.09.04-.16.1-.22.18-.05.08-.09.17-.09.27,0,.1.01.21.06.3.05.09.12.17.2.23.15.09.32.16.49.18l.2.03c.46.07.91.11,1.37.14.82.02,1.64.03,2.45.04.55,0,1.13.01,1.69.02.17,0,.35,0,.52,0,1.9,0,3.78-.18,5.39-.36l.18-.02c.26-.03.53-.06.8-.1.27-.05.39-.22.35-.52,0-.02-.01-.04-.02-.05-.01-.01-.03-.03-.05-.03Z"/>
      <path d="M3.39,16.73c-.77-.07-1.23.42-1.58.9,0,.01-.01.02-.02.04,0,.01,0,.03,0,.04.02.08.03.16.04.23.03.14.05.27.07.39.04.28.14.55.3.79.16.24.38.43.63.57.24.13.52.19.79.19.28,0,.57-.07.82-.19.19-.08.36-.2.5-.36.14-.15.24-.33.3-.53.05-.19.05-.39.01-.59-.04-.19-.12-.38-.24-.54-.18-.27-.42-.5-.7-.66-.28-.16-.6-.26-.93-.28Z"/>
      <path d="M3.54,7.81s.09,0,.14,0c.37,0,.72-.11,1.01-.33.29-.22.49-.54.57-.89.17-.75-.05-1.42-.63-1.95-.56-.5-1.23-.6-1.94-.28-.15.07-.29.15-.42.24-.07.04-.15.09-.23.14-.01,0-.03.02-.03.03,0,.01-.01.03-.02.04-.01.16-.03.32-.05.48-.04.32-.06.64-.06.96.04.84.74,1.49,1.66,1.56ZM3.27,5.22c.14.04.28.12.39.22.11.1.2.22.26.36.12.25.11.45-.04.62-.12.14-.29.17-.53.11-.11-.02-.21-.08-.29-.16-.08-.08-.13-.19-.14-.3-.06-.34.05-.62.35-.85Z"/>
      <path d="M3.98,10.82h-.01c-1.18.01-1.87.64-1.91,1.71,0,.19.02.38.09.55.07.18.17.34.3.47.16.16.36.29.57.37.21.08.44.13.67.12h.01c.23,0,.46-.04.67-.12.21-.09.41-.21.57-.37.14-.14.26-.32.33-.51.08-.19.11-.39.11-.59-.02-.9-.65-1.63-1.41-1.63ZM3.82,12.55h-.45c-.11-.28-.06-.47.19-.66.22.12.34.29.26.66Z"/>
    </g>
  </g>
</svg>