<?xml version="1.0" encoding="UTF-8"?>
<svg id="Layer_1" data-name="Layer 1" xmlns="http://www.w3.org/2000/svg" xmlns:xlink="http://www.w3.org/1999/xlink" viewBox="0 0 24 24">
  <defs>
    <style>
      .cls-1 {
        fill: none;
      }

      .cls-2 {
        clip-path: url(#clippath);
      }
    </style>
    <clipPath id="clippath">
      <rect class="cls-1" x=".89" y="7.04" width="22.22" height="10.41" transform="translate(-5.15 12.07) rotate(-45)"/>
    </clipPath>
  </defs>
  <g class="cls-2">
    <g>
      <path d="M12.88,18.59c.32-.38.6-.79.85-1.21.05-.09.11-.17.16-.26.05-.1.07-.22.05-.34,0-.06,0-.12,0-.19,0-.01,0-.03,0-.04,0-.01-.02-.03-.03-.03-.01,0-.03-.02-.04-.02-.01,0-.03,0-.04,0-.09.02-.16.04-.24.06-.13.03-.26.07-.38.12-.77.35-1.41.9-1.99,1.44-.91.86-1.78,1.41-2.72,1.72-1.61.54-3.03-.06-3.79-1.61-.6-1.23-.62-2.41-.04-3.52.34-.65.74-1.28,1.13-1.9.12-.19.24-.39.37-.58.12-.19.26-.38.4-.56.06-.09.13-.17.19-.26,0-.01.02-.03.02-.04,0-.02,0-.03,0-.05-.08-.21-.19-.34-.32-.39-.05-.02-.1-.03-.16-.02-.05,0-.11.02-.15.04-.2.1-.39.23-.55.39-.72.67-1.24,1.51-1.73,2.32l-.11.18c-1.06,1.72-1.09,3.55-.07,5.44.72,1.34,1.89,2.08,3.48,2.2.93.07,1.79-.19,2.51-.46,1.08-.4,1.94-1.09,2.62-1.77.22-.22.42-.44.61-.65Z"/>
      <path d="M18.27,3.35c-1.49-.73-2.83-.68-4.1.13-1.03.66-2,1.4-2.91,2.23-.29.29-.56.6-.8.93-.06.08-.12.15-.18.23-.17.22-.13.46.1.64.01.01.03.02.05.02.33.05.53-.17.71-.35.04-.04.07-.08.11-.11,1.14-1.09,2.43-1.91,3.54-2.56.92-.54,1.88-.52,2.92.07.2.11.4.25.54.35.83.58,1.35,1.32,1.48,2.14.13.8-.11,1.67-.67,2.45l-.15.21c-.37.5-.75,1.02-1.09,1.56-.04.06-.08.13-.12.19-.35.54-.71,1.1-.9,1.94,0,.02,0,.03,0,.05,0,.02.01.03.03.04.01.01.03.02.05.02.02,0,.03,0,.05,0,.13-.05.24-.09.33-.12.15-.04.29-.1.42-.18.5-.32.97-.7,1.39-1.12.67-.68,1.24-1.44,1.71-2.27.99-1.69.56-4.12-.95-5.42-.48-.42-1-.77-1.57-1.05Z"/>
      <path d="M7.89,15.38s-.06.06-.09.09c-.1.08-.18.18-.24.29-.05.12-.07.25-.08.38,0,.07-.02.14-.03.21,0,.01,0,.03,0,.04,0,.01.01.03.02.04,0,.01.02.02.03.02.01,0,.03,0,.04,0,.08,0,.15,0,.21,0,.12,0,.23,0,.34-.05.2-.11.38-.24.55-.4.92-.83,1.76-1.62,2.54-2.41,1.4-1.38,2.7-2.86,3.91-4.41.06-.09.11-.2.15-.31.03-.08.07-.17.12-.29,0-.02,0-.04,0-.06,0-.02-.01-.04-.03-.05-.01-.01-.03-.02-.05-.02-.02,0-.04,0-.06,0-.12.06-.21.1-.28.14-.08.03-.15.07-.21.12-.29.25-.58.5-.87.74-.7.59-1.42,1.21-2.09,1.86-.94.93-1.87,1.91-2.76,2.85-.38.4-.76.8-1.14,1.2Z"/>
    </g>
  </g>
</svg>