<?xml version="1.0" encoding="UTF-8"?>
<svg id="Layer_1" data-name="Layer 1" xmlns="http://www.w3.org/2000/svg" viewBox="0 0 24 24">
  <path d="M16.84,18.51c.01.3-.21.55-.5.58-.16,0-.31-.05-.42-.16s-.17-.26-.16-.42c.01-.63.02-1.25.01-1.88-.4.58-.89,1.08-1.46,1.49-.77.57-1.7.9-2.66.93-.87.02-1.71-.3-2.35-.88-.6-.61-1.01-1.38-1.18-2.21-.25-1.17-.38-2.37-.4-3.56-.08-2.6-.1-5.21-.11-7.81,0-.72.03-1.45.12-2.16.02-.25.24-.45.5-.43.26.01.45.23.45.48.01,2.34,0,4.67.05,7.01.03,1.55.03,3.1.18,4.65.05.85.24,1.68.57,2.47.24.54.67.98,1.22,1.2.72.25,1.51.21,2.2-.11.76-.34,1.41-.88,1.9-1.56.38-.56.7-1.17.94-1.81-.04-2.2-.14-4.4-.18-6.6-.03-1.32-.07-2.65-.07-3.97.01-.43.03-.85.06-1.28.01-.25.22-.46.47-.46.25,0,.46.2.48.45.1,1.37.07,2.75.11,4.12.05,2.66.15,5.33.22,7.99.03,1.31.04,2.62.02,3.92Z"/>
  <path d="M6.3,21.83c3.8-.1,7.6-.04,11.4.18.74.04.74-1.11,0-1.15-3.8-.23-7.6-.29-11.4-.18-.74.02-.74,1.17,0,1.15h0Z"/>
</svg>