<?xml version="1.0" encoding="UTF-8"?>
<svg id="Layer_1" data-name="Layer 1" xmlns="http://www.w3.org/2000/svg" viewBox="0 0 24 24">
  <path d="M21.59,12.99c.48,0,.48-.76,0-.75-1.55.02-3.11.03-4.66.05,0-.71.03-1.43.16-2.13.12-.67.33-1.31.62-1.92.23-.48.57-.9.99-1.22.29-.22.66-.3,1.01-.23.37.12.7.36.92.69.42.55.67,1.21.72,1.9.01.18.16.32.34.32.19,0,.34-.15.35-.33.03-.49-.05-.99-.25-1.44-.24-.59-.63-1.12-1.13-1.52-.41-.33-.94-.47-1.46-.4-.77.12-1.4.67-1.83,1.3-.43.66-.74,1.39-.92,2.15-.22.94-.33,1.89-.33,2.85-.67,0-1.34.01-2.01.02-.27-.11-.56-.2-.85-.23,1.09-.91,1.64-2.33,1.44-3.74-.11-.67-.43-1.29-.92-1.77-.56-.52-1.28-.83-2.04-.88-.55-.05-1.1.06-1.58.31-.09.03-.17.08-.23.15-.06.1-.09.22-.08.34-.02.39-.06.78-.05,1.18-.02,1.56,0,3.12.04,4.68-.39,0-.78,0-1.17.01,0-.5,0-1-.01-1.5-.01-.85-.11-1.7-.29-2.53-.12-.59-.4-1.14-.82-1.58-.41-.38-.97-.56-1.53-.5-.63.06-1.22.34-1.67.78-.55.55-.91,1.27-1.02,2.04-.08.5-.03,1.01.15,1.48.07.16.11.37.29.46.09.04.19.04.28,0,.09-.04.16-.11.19-.2.05-.17-.04-.33-.08-.49-.23-.9-.01-1.85.58-2.56.38-.46.94-.73,1.54-.73.33,0,.63.16.84.41.28.38.46.81.53,1.27.15.83.22,1.68.23,2.52,0,.38,0,.76,0,1.13-.31,0-.62,0-.92,0-.22-.32-.48-.61-.8-.83-.38-.26-.85-.34-1.3-.23-.56.18-1.04.56-1.34,1.07-.4,0-.8,0-1.2,0-.48,0-.48.75,0,.75,5.02,0,10.03-.04,15.05-.1,1.41-.02,2.82-.04,4.23-.06ZM11.5,6.46c.69,0,1.35.28,1.83.78.41.46.64,1.06.63,1.68,0,1.12-.57,2.16-1.49,2.78-.31.2-.65.35-1.01.43-.29.06-.58.09-.87.09,0-.89-.03-1.78-.03-2.68,0-.99.02-1.98,0-2.97.31-.09.63-.13.95-.12ZM5.08,12.07c.29-.05.59.05.81.26.02.02.03.04.05.06-.47,0-.95,0-1.42,0,.16-.16.35-.27.57-.32Z"/>
  <path d="M21.69,15.39c-.1-.02-.2,0-.29.05-.12.09-.2.24-.2.4-.03.35-.15.69-.33.98-.27.4-.71.66-1.2.69-.48,0-.94-.17-1.3-.49-.46-.4-.81-.92-1-1.5-.22-.65-.35-1.32-.41-2.01h-.79c.01.13.02.26.03.39.08.79.28,1.56.6,2.29.26.6.68,1.13,1.2,1.53.48.37,1.07.57,1.67.57.57-.02,1.12-.26,1.53-.66.4-.4.66-.91.74-1.47.03-.2.11-.42-.01-.6-.05-.09-.14-.15-.24-.17Z"/>
  <path d="M15.34,13.51h-.89c.16.21.28.46.33.73.23,1.14-.31,2.3-1.32,2.88h0c-.5.26-1.06.4-1.62.4-.37.01-.75,0-1.12-.03.01-.93-.05-1.85-.07-2.78-.01-.4-.02-.8-.03-1.2h-.77c.03,1.02.05,2.05.09,3.07.02.4.01.79-.03,1.19-.02.16.06.32.21.4.13.03.25.06.38.07.84.07,1.71.11,2.54-.12.71-.19,1.34-.59,1.81-1.16.74-.89.97-2.09.62-3.19-.03-.09-.07-.17-.11-.25Z"/>
  <path d="M7.87,14.39c-.09-.3-.2-.59-.31-.87h-.84c.24.53.42,1.08.55,1.65-.18.52-.44,1.01-.75,1.47-.25.38-.61.67-1.03.85-.33.11-.69.06-.96-.15-.41-.34-.69-.81-.8-1.33-.18-.75-.17-1.54.05-2.29.02-.07.06-.13.08-.2h-.82c-.16.54-.24,1.11-.21,1.69.02.78.25,1.53.68,2.18.3.46.78.79,1.32.91.52.08,1.04-.04,1.47-.35.52-.38.95-.89,1.24-1.47.05.37.1.74.15,1.11,0,.15.06.3.17.42.15.13.37.14.53,0,.11-.11.17-.26.17-.41.03-.34.05-.68.06-1.02.03-1.02.06-2.04.07-3.06h-.79c0,.29,0,.58,0,.87Z"/>
</svg>