<?xml version="1.0" encoding="UTF-8"?>
<svg id="Layer_1" data-name="Layer 1" xmlns="http://www.w3.org/2000/svg" xmlns:xlink="http://www.w3.org/1999/xlink" viewBox="0 0 24 24">
  <defs>
    <style>
      .cls-1 {
        fill: none;
      }

      .cls-2 {
        clip-path: url(#clippath);
      }
    </style>
    <clipPath id="clippath">
      <rect class="cls-1" x="1.67" y="1.61" width="20.66" height="20.79"/>
    </clipPath>
  </defs>
  <g class="cls-2">
    <g>
      <path d="M3.39,17.7c.08-.51.29-.97.49-1.35.33-.64.81-1.18,1.28-1.71.08-.09.15-.17.23-.26.9-1.04,1.84-2.1,2.9-3.07.77-.69,1.66-.96,2.72-.81.07.01.15.02.22.03.42.05.81.1,1.17.31.08.05.18.08.27.09.06.01.11,0,.17,0,.06-.01.11-.04.16-.07.05-.04.1-.09.14-.14.04-.06.06-.12.07-.18.02-.13,0-.26-.04-.38-.05-.12-.12-.23-.22-.31-.31-.28-.7-.47-1.11-.55-.45-.1-.91-.16-1.38-.21-1.02-.09-1.91.17-2.65.79-.71.59-1.39,1.22-2.04,1.87-.68.71-1.33,1.47-1.96,2.2l-.28.32c-.55.64-1,1.36-1.35,2.13-.28.62-.43,1.28-.45,1.96h0c0,1.42.53,2.48,1.6,3.18.83.54,1.68.81,2.56.81.54,0,1.07-.1,1.57-.28.33-.12.62-.23.89-.34.96-.4,1.81-1.05,2.75-2.11.55-.62,1.09-1.26,1.62-1.88.27-.32.53-.63.8-.94.09-.1.18-.21.28-.31.16-.17.32-.35.47-.54.15-.19.26-.41.31-.64.02-.09.01-.18-.02-.26-.03-.08-.08-.16-.15-.22-.07-.07-.16-.11-.26-.13-.1-.02-.2-.01-.29.02-.17.06-.34.15-.47.27-.17.16-.32.33-.47.5l-.07.08c-.34.4-.68.79-1.01,1.19-.57.67-1.15,1.36-1.74,2.03-.92,1.06-2.06,1.71-3.41,1.94-.47.09-.96.07-1.42-.05-1.38-.38-1.93-1.12-1.93-2.55,0-.12.02-.24.04-.36v-.06Z"/>
      <path d="M19.9,1.75c-.62-.15-1.25-.14-1.86-.14h-.14c-.7,0-1.35.21-1.99.65-1.04.69-2,1.49-2.86,2.39-.58.62-1.18,1.29-1.85,2.07-.33.38-.63.87-.38,1.6,0,.01,0,.02.02.03,0,0,.02.02.03.02.01,0,.02,0,.03,0,.01,0,.02,0,.03,0,.58-.21,1-.45,1.35-.79l.02-.02c.44-.43.9-.87,1.33-1.33,1.04-1.12,1.98-1.96,2.95-2.63.48-.35,1.05-.53,1.65-.53.46,0,.91.03,1.36.11.66.13,1.38.62,1.41,1.58.02.79-.14,1.4-.5,1.91-.15.21-.3.42-.45.63-.47.67-.96,1.37-1.5,2-.69.79-1.63,1.77-2.86,2.43-1.01.54-2.16.76-3.3.65-.47-.03-.92-.23-1.27-.55-.15-.14-.31-.27-.48-.39-.23-.16-.5-.15-.67.02-.09.08-.15.19-.17.31-.02.12,0,.24.05.35.09.19.19.37.31.53.39.52.94.87,1.7,1.06.35.09.7.13,1.06.13.55-.01,1.1-.09,1.63-.23,1.09-.26,2.09-.84,3.07-1.77,1.66-1.57,2.98-3.4,3.94-4.83.43-.64.67-1.39.69-2.16.02-.61-.03-1.39-.58-2.01-.53-.59-1.11-.95-1.78-1.11Z"/>
    </g>
  </g>
</svg>