<?xml version="1.0" encoding="UTF-8"?>
<svg id="Layer_1" data-name="Layer 1" xmlns="http://www.w3.org/2000/svg" viewBox="0 0 24 24">
  <path d="M20.6,17.69c-1.15-.86-2.31-1.71-3.47-2.55-.16-.11-.33-.21-.5-.29-.11-.06-.23-.02-.33.05-.11.08-.18.31-.14.41.08.22.25.38.43.53.69.57,1.38,1.13,2.07,1.69.45.37.91.73,1.36,1.09.02.02.02.07.01.11,0,.01-.02.03-.03.04-.01.01-.03.02-.04.02-.24.01-.47.03-.71.03-1.86,0-3.71-.02-5.57-.03v-.02c-.51,0-1.01,0-1.52.01-.51,0-1.01,0-1.52-.01v.02c-1.86.01-3.71.03-5.57.03-.24,0-.47-.02-.71-.03-.02,0-.03-.01-.04-.02-.01-.01-.02-.02-.03-.04,0-.03,0-.09.01-.11.45-.37.91-.73,1.36-1.09.69-.56,1.38-1.12,2.07-1.69.18-.15.34-.31.43-.53.04-.1-.03-.33-.14-.41-.1-.07-.21-.11-.33-.05-.18.08-.34.18-.5.29-1.16.85-2.32,1.7-3.47,2.55-.25.18-.48.39-.71.6-.79.72-.48,1.04.18,1.36,1.75.87,3.5,1.74,5.25,2.61.24.12.49.24.75.34.07.03.15.04.23.03.07-.02.14-.05.2-.1.02-.01,0-.07-.02-.11-.07-.19-.24-.29-.41-.39-1.01-.59-2.02-1.19-3.09-1.67-.46-.21-.91-.45-1.35-.68-.02-.01-.03-.07-.03-.1,0-.01.01-.03.03-.04.01-.01.03-.02.04-.02.23-.02.47-.05.7-.05,1.46,0,2.92.02,4.39.02.76,0,1.52-.01,2.28-.02.76,0,1.52.02,2.28.02,1.46,0,2.92-.02,4.39-.02.23,0,.47.03.7.05.02,0,.03.01.04.02.01.01.02.02.03.04,0,.03,0,.09-.03.1-.45.23-.89.48-1.35.68-1.07.48-2.08,1.07-3.09,1.67-.17.1-.34.2-.41.39-.01.04-.03.1-.02.11.06.05.12.08.2.1.08,0,.16,0,.23-.03.25-.11.5-.22.75-.34,1.75-.87,3.5-1.75,5.25-2.61.66-.33.97-.64.18-1.36-.23-.21-.46-.41-.71-.6Z"/>
  <path d="M4.46,13.6c1,.44,2.15,0,3.01-.83-.17.81.98,1.73,1.3.61-.07-2.13.71-6.06-.9-7.97-.93-1.13-3.1-.85-4.15.2l.32.85c1.2-.88,2.35-1.1,3.1-.17.15.15.25.64.3,1.32-.58-.03-1.42.08-1.86.27-1.96.85-3.81,4.5-1.13,5.72ZM7.51,8.49c.05.96.03,2.1,0,3.15-.41.29-1.2.68-1.64.86-.76.36-1.76-.19-1.57-1.32.24-1.56,1.61-2.76,3.21-2.69Z"/>
  <path d="M10.59,13.92c0-.17,0-.34.02-.51,1.84,1.15,3.5.47,4.4-1,.98-1.54.66-4.28.03-5.91-.64-1.69-2.83-1.93-4.2-1.12-.12-1.46-.17-3.3-.12-4.74-.44.08-.79.15-1.25.39.12,4.23.25,8.82.37,13.05l.75-.17ZM10.79,7c.54-1.1,2.55-1.34,3.13.3.51,1.42.88,4.3-.32,5.4-.47.46-2.62.32-2.86-.37l.05-5.33Z"/>
  <path d="M22.07,13.5c-.1-1.12-.39-1.02-1.03-.8-1.79.44-2.91.42-3.28-.47-.71-1.86-.19-3.91.74-5.42.56-.61,1.4-1,3.28-.69l.08-.71c-1-.61-3.45-.46-4.15.19-1.59,1.47-1.66,5.28-1.13,6.94.56,1.79,3.6,1.59,5.48.96Z"/>
</svg>