<?xml version="1.0" encoding="UTF-8"?>
<svg id="Layer_1" data-name="Layer 1" xmlns="http://www.w3.org/2000/svg" viewBox="0 0 24 24">
  <path d="M11.06,3.66c-.12-.11-.18-.27-.17-.43.01-.25.05-.5.09-.75.02-.19.14-.37.31-.45.16-.07.34-.06.49.03.15.09.25.25.26.42,0,.27,0,.54-.02.82-.02.28-.24.5-.52.53-.16,0-.32-.05-.43-.16ZM12.22,7.98c-.02,3.09-.03,6.18-.04,9.27-.02,1.22,0,2.44-.03,3.65,0,.22-.11.43-.29.54s-.42.11-.61,0c-.19-.11-.3-.32-.29-.54.04-4.65.02-9.31.07-13.96,0-.7.04-1.39.09-2.09,0-.22.15-.42.37-.49.21-.07.44,0,.58.18.16.2.12.48.14.72.05.91.04,1.81.03,2.72Z"/>
</svg>