<?xml version="1.0" encoding="UTF-8"?>
<svg id="Layer_1" data-name="Layer 1" xmlns="http://www.w3.org/2000/svg" viewBox="0 0 24 24">
  <defs>
    <style>
      .cls-1 {
        fill: #ff0;
      }
    </style>
  </defs>
  <path class="cls-1" d="M17.91,17.05c1.55-.11,3.17-.11,4.63-.71.5-.21.47-1.04-.13-1.05-.92,0-1.83,0-2.75-.01.66-.06,1.32-.13,1.96-.29.55-.13.43-1.05-.13-1.05-2.98,0-5.96.01-8.94.02-.51,0-1.01,0-1.52,0,.53-.03,1.06-.07,1.59-.1,1.51-.07,3.03-.11,4.54-.13,1.38-.02,2.77-.04,4.1-.49.52-.17.45-1.07-.13-1.05-2.16.1-4.31.16-6.47.21.74-.04,1.49-.09,2.23-.12,1.59-.06,3.19-.11,4.73-.59.4-.13.51-.75.12-.97-.6-.34-1.25-.27-1.91-.25-.82.02-1.64.04-2.46.08-1.64.06-3.27.15-4.91.22-2.09.08-4.19.12-6.29.05.41-.04.81-.07,1.21-.1,1.67-.14,3.33-.29,4.99-.45,1.62-.16,3.24-.32,4.85-.53.98-.12,3.05-.16,3.13-1.59.01-.29-.24-.53-.5-.53-.46,0-.91,0-1.37,0,.11-.03.22-.05.33-.08.55-.16.43-1.04-.13-1.05-.47,0-.94,0-1.41-.01,1.35-.12,2.7-.29,4.03-.58.56-.12.42-1.05-.13-1.05-1.98,0-3.96-.01-5.94-.03.52-.07,1.05-.14,1.57-.2,1.06-.01,2.13-.02,3.19-.04.66-.01.62-.98,0-1.07-1.07-.15-2.14-.08-3.21.05-4.05.05-8.11.14-12.1.87-.59.11-.4,1.01.13,1.05,2.17.17,4.35.26,6.52.33-2.34.15-4.67.38-6.95,1.02-.53.15-.44,1.08.13,1.05.48-.03.96-.05,1.43-.08-1.04.11-2.07.29-3.04.71-.5.21-.47,1.04.13,1.05,4.59.05,9.15-.64,13.73-.83-.57.07-1.14.13-1.71.2-1.5.16-3,.32-4.5.46-1.44.13-2.87.24-4.31.37-1.33.12-2.62.33-3.84.93-.5.24-.19.95.25.99,1.41.15,2.82.22,4.23.24-1.67.16-3.35.34-5.02.55-.62.08-.66,1.05,0,1.07.48,0,.97,0,1.45.01-.43.16-.58.92-.02,1.01.04,0,.09,0,.13.02,0,0,0,0,0,0,0,0,0,0,0,0,1.06.17,2.12.27,3.18.34-1.83.1-3.66.2-5.49.3-.64.03-.65,1.06,0,1.07,3.94.02,7.87.03,11.81.05-.17.01-.34.02-.51.03-1.65.11-3.31.23-4.96.34-1.65.11-3.3.23-4.92.65-.29.08-.38.35-.33.6-.18,0-.35,0-.53.01-.54.01-.71.96-.13,1.05.04,0,.09.01.13.02,0,0,0,0,0,0h.02c1.12.16,2.25.28,3.37.38-.6.02-1.2.03-1.8.07-.64.04-.64,1.03,0,1.07,6.11.32,12.24.22,18.34-.3.64-.05.64-1.12,0-1.07-.25.02-.51.03-.76.05.15-.23.13-.55-.05-.73.49-.05.98-.11,1.45-.23.54-.14.44-1.08-.13-1.05-3.29.18-6.58.32-9.88.41-1.31.04-2.62.06-3.93.08,1.53-.1,3.07-.21,4.6-.31,1.65-.11,3.31-.23,4.96-.34Z"/>
  <path d="M19.76,17.6c-.38-.64-.75-1.29-1.11-1.94-.52-.93-1.01-1.87-1.5-2.82.37-.09.67-.36.67-.78s-.38-.87-.82-.82c-.21.02-.43.04-.64.06-1.19-2.38-2.3-4.8-3.31-7.26-.21-.51-.92-.88-1.37-.36-2.01,2.34-3.22,5.12-4.42,7.91-.27-.01-.53-.01-.8-.03-1.05-.06-1.05,1.58,0,1.64.03,0,.06,0,.09,0-.78,1.75-1.61,3.46-2.71,5.04-.6.87.81,1.68,1.41.83,1.25-1.8,2.15-3.79,3.01-5.81,2.39.06,4.77-.02,7.15-.24.47.91.93,1.82,1.42,2.72.56,1.03,1.27,2.04,1.79,3.09v.02c.03.45.35.8.82.82.02,0,.04,0,.06,0,.33.01.73-.26.79-.6.1-.59-.24-.99-.53-1.48ZM8.95,11.66c.87-2.03,1.8-4.03,3.1-5.81.81,1.9,1.66,3.78,2.57,5.63-1.89.15-3.78.21-5.67.19Z"/>
</svg>