<?xml version="1.0" encoding="UTF-8"?>
<svg id="Layer_1" data-name="Layer 1" xmlns="http://www.w3.org/2000/svg" xmlns:xlink="http://www.w3.org/1999/xlink" viewBox="0 0 24 24">
  <defs>
    <style>
      .cls-1 {
        fill: none;
      }

      .cls-2 {
        clip-path: url(#clippath);
      }
    </style>
    <clipPath id="clippath">
      <rect class="cls-1" x="1.98" y="3.83" width="20.81" height="17.15"/>
    </clipPath>
  </defs>
  <g class="cls-2">
    <g>
      <path d="M12.21,18.95c.66,0,1.32-.01,1.98,0,2.31.05,4.62.1,6.93.17.4.02.8.1,1.17.26.4.17.53.64.38,1.03-.13.34-.38.48-.77.46-1.11-.06-2.23-.14-3.34-.15-4.12-.04-8.23-.04-12.35-.07-.91,0-1.83-.08-2.74-.15-.28-.03-.55-.09-.81-.19-.44-.16-.64-.46-.62-.85.02-.4.31-.69.8-.78.25-.04.51-.06.76-.05,2.87.1,5.74.19,8.61.29v.03Z"/>
      <path d="M5.85,10.32c-.51,0-1.02,0-1.53-.04-.38-.02-.76-.08-1.13-.17-.47-.13-.67-.42-.66-.82.02-.38.26-.67.72-.76.37-.08.75-.11,1.14-.1,4.93.11,9.87.05,14.79.52.78.07,1.57.14,2.34.26.47.08.72.42.71.77-.01.4-.3.67-.84.7-.56.04-1.12,0-1.72,0-4.57-.4-9.2-.35-13.83-.37Z"/>
      <path d="M12.67,15.55c-1.17,0-2.34.02-3.51-.01-.4-.02-.8-.1-1.17-.25-.15-.06-.28-.16-.37-.3-.09-.13-.13-.29-.13-.45,0-.16.06-.31.15-.44.1-.13.23-.22.38-.28.36-.11.74-.17,1.11-.17,2.26.03,4.52.09,6.79.15.2,0,.41.02.6.06.54.13.79.45.74.9-.04.43-.25.59-.87.62-1.24.06-2.49.09-3.73.14v.02Z"/>
      <path d="M13.14,5.71c-1.29-.07-2.59-.14-3.88-.22-.25-.02-.5-.07-.74-.15-.15-.04-.27-.14-.36-.26s-.13-.28-.12-.43c0-.15.07-.3.17-.41s.24-.2.39-.23c.32-.07.65-.09.98-.07,2.02.15,4.05.31,6.07.47.25.02.5.08.73.18.12.04.23.12.29.24.06.11.08.25.05.37-.06.21-.21.39-.4.49-.24.08-.49.11-.74.08-.81-.03-1.62-.08-2.43-.12v.04Z"/>
    </g>
  </g>
</svg>