<svg width="145" height="140" viewBox="0 0 145 140" fill="none" xmlns="http://www.w3.org/2000/svg">
<g clip-path="url(#clip0_8_2956)">
<path d="M69.8643 110.04C63.1073 109.963 56.4099 108.767 50.0431 106.503C38.2999 102.213 31.7752 93.6029 29.5482 81.5276C28.2401 74.4358 28.9856 67.4321 30.866 60.5297C32.5996 54.2124 36.0753 48.5104 40.8957 44.0744C41.9239 43.0909 42.7257 41.8955 43.2454 40.571C43.9214 38.812 45.2348 37.8967 46.7319 37.1137C52.5365 34.0768 58.7519 32.2934 65.1026 30.7471C77.9668 27.6124 89.3714 30.6669 99.6122 38.5449C110.406 46.8482 115.213 57.9793 114.09 71.5466C113.424 79.6117 111.321 87.2141 106.031 93.6442C99.1055 102.062 90.1426 106.997 79.5604 109.048C76.3838 109.664 73.0994 109.725 69.8643 110.04ZM38.4258 73.0628C38.5708 75.2326 38.6227 76.9194 38.8059 78.5918C39.8494 88.0542 44.5653 94.6911 53.7856 97.7437C61.8022 100.471 70.3881 101.079 78.7085 99.5053C86.0477 98.1027 92.4824 94.6766 97.3419 88.8628C103.744 81.2033 104.365 72.1262 103.154 62.748C102.623 59.1727 101.185 55.7928 98.9782 52.9299C88.992 39.3778 73.2714 36.3902 59.2456 41.6875C48.6785 45.6787 41.0059 53.5069 39.1616 65.5054C38.754 68.1612 38.6338 70.8608 38.4258 73.0628Z" fill="black"/>
<path d="M74.4318 133.806C74.378 134.175 74.3294 134.621 74.2474 135.06C73.7295 137.834 72.1635 139.44 69.9562 139.472C67.6217 139.504 65.887 137.75 65.559 134.831C65.5069 133.715 65.5521 132.596 65.6947 131.488C65.9237 128.017 66.1226 124.543 66.4278 121.078C66.4901 119.963 66.7573 118.868 67.2154 117.849C67.4576 117.373 67.8245 116.972 68.2773 116.689C68.7302 116.405 69.252 116.251 69.7856 116.243C70.3199 116.234 70.8462 116.371 71.3083 116.639C71.7704 116.907 72.1504 117.295 72.4077 117.763C72.8061 118.445 73.0588 119.202 73.15 119.986C73.6173 124.561 74.0085 129.144 74.4318 133.806Z" fill="black"/>
<path d="M29.9508 33.1783C29.3207 32.814 27.9714 32.3592 27.0736 31.4548C24.2417 28.6011 21.5103 25.6487 18.8793 22.5981C17.5259 21.0327 17.5758 19.2161 18.6168 17.9954C19.1664 17.3407 19.9428 16.9178 20.7909 16.8109C21.639 16.7039 22.4963 16.9207 23.1913 17.4185C27.0151 19.7511 30.5667 22.4723 33.3299 26.0618C33.9271 26.8737 34.3514 27.7991 34.5769 28.7813C35.1794 31.303 33.1635 33.5025 29.9508 33.1783Z" fill="black"/>
<path d="M120.68 118.106C120.583 121.589 118.214 123.479 115.56 122.621C114.202 122.135 112.995 121.305 112.055 120.21C110.152 118.011 108.47 115.611 106.765 113.245C106.242 112.52 105.844 111.713 105.588 110.855C105.115 109.228 105.383 107.685 106.836 106.63C107.466 106.143 108.236 105.872 109.032 105.858C109.829 105.844 110.608 106.088 111.255 106.553C112.002 107.051 112.679 107.645 113.269 108.321C115.222 110.487 117.207 112.637 119.008 114.93C119.68 115.924 120.241 116.989 120.68 118.106Z" fill="black"/>
<path d="M122.924 15.96C126.064 16.0394 127.519 18.6581 126.135 21.1036C125.35 22.3233 124.372 23.4072 123.24 24.3135C120.56 26.6848 117.804 28.9734 115.056 31.2666C114.374 31.8363 113.655 32.6448 112.875 32.7478C111.718 32.9473 110.528 32.763 109.485 32.2229C108.405 31.518 108.374 30.0766 108.955 28.8624C109.279 28.151 109.725 27.5011 110.271 26.9415C113.633 23.6598 116.999 20.3839 120.461 17.2111C121.21 16.6657 122.042 16.2436 122.924 15.96Z" fill="black"/>
<path d="M71.0618 13.7335C71.6118 10.2549 72.1178 6.83017 72.723 3.41984C72.8752 2.64971 73.2054 1.92591 73.6865 1.30533C73.9753 0.888034 74.3704 0.555801 74.8318 0.343254C75.2925 0.130707 75.8018 0.0452831 76.3066 0.0964864C76.8119 0.147689 77.2937 0.333508 77.7026 0.634248C78.1115 0.934988 78.4324 1.33976 78.6313 1.80655C79.0376 2.72699 79.2699 3.71478 79.3178 4.71969C79.5239 7.73099 79.6841 10.7483 79.7208 13.7655C79.7143 14.8835 79.5082 15.9915 79.1118 17.0369C78.84 17.8406 78.3117 18.5329 77.6081 19.0079C76.9051 19.4828 76.0657 19.7139 75.2184 19.6661C74.4248 19.661 73.6556 19.3954 73.0282 18.9098C72.4007 18.4242 71.9505 17.7459 71.7463 16.9793C71.4201 15.9285 71.2836 14.819 71.0618 13.7335Z" fill="black"/>
<path d="M18.9918 118.252C19.2852 117.342 19.7153 116.483 20.2676 115.703C22.6495 113.02 25.1628 110.452 27.6713 107.887C28.1787 107.445 28.753 107.087 29.373 106.826C29.9231 106.527 30.5544 106.411 31.1747 106.496C31.7952 106.58 32.3721 106.861 32.822 107.296C33.3645 107.709 33.7543 108.291 33.9302 108.949C34.1062 109.608 34.0583 110.306 33.794 110.935C33.5717 111.569 33.2594 112.169 32.8662 112.715C30.9858 115.089 29.1597 117.522 27.0903 119.727C26.0149 120.86 24.6975 121.737 23.2362 122.29C20.8241 123.179 18.7135 121.3 18.9918 118.252Z" fill="black"/>
<path d="M9.98999 74.9889C7.86148 74.9889 5.72371 75.1077 3.60636 74.9568C1.28818 74.792 0.17247 73.776 0.0484227 72.1083C-0.0723438 70.4923 1.08065 68.9677 3.13302 68.717C7.35525 68.2017 11.6057 67.9129 15.8489 67.5861C16.5232 67.5815 17.1938 67.6852 17.8356 67.8919C19.7016 68.3658 20.6618 69.4665 20.7058 71.1073C20.7528 71.847 20.5411 72.5802 20.1068 73.1807C19.6724 73.7813 19.0425 74.2131 18.3253 74.4002C17.0324 74.748 15.701 74.9318 14.3622 74.9489C12.9098 75.0362 11.4484 74.9679 9.98999 74.9679V74.9889Z" fill="black"/>
<path d="M133.654 67.923C135.547 67.7438 137.448 67.6703 139.349 67.7012C140.665 67.7333 141.948 68.1179 143.063 68.8169C143.434 69.1221 143.726 69.514 143.913 69.957C144.099 70.4 144.175 70.8811 144.134 71.3609C144.093 71.84 143.936 72.3014 143.677 72.7064C143.417 73.1114 143.063 73.4474 142.645 73.685C141.284 74.4168 139.756 74.7824 138.21 74.747C134.413 74.6544 130.623 74.2547 126.832 73.9528C126.167 73.8812 125.507 73.7625 124.857 73.5977C123.399 73.2695 122.415 72.4819 122.429 70.8568C122.41 70.1683 122.664 69.5002 123.136 68.9987C123.608 68.4973 124.259 68.2026 124.947 68.1796C127.269 67.9046 129.629 67.9361 131.97 67.8482C132.529 67.8272 133.09 67.8482 133.65 67.8482L133.654 67.923Z" fill="black"/>
</g>
<defs>
<clipPath id="clip0_8_2956">
<rect width="144.394" height="139.8" fill="white"/>
</clipPath>
</defs>
</svg>
