<?xml version="1.0" encoding="UTF-8"?>
<svg id="Layer_1" data-name="Layer 1" xmlns="http://www.w3.org/2000/svg" xmlns:xlink="http://www.w3.org/1999/xlink" viewBox="0 0 24 24">
  <defs>
    <style>
      .cls-1 {
        fill: none;
      }

      .cls-2 {
        clip-path: url(#clippath);
      }
    </style>
    <clipPath id="clippath">
      <rect class="cls-1" x="1.07" y="1.42" width="21.86" height="21.73"/>
    </clipPath>
  </defs>
  <g class="cls-2">
    <path d="M1.13,13.03s0,.03,0,.04c0,.01.02.02.03.03l.02,1.33c.03,1.54.05,3.14.08,4.7,0,.25.03.51.08.75.5,2.01,2.24,3.18,4.43,3.01.64-.05,1.21-.07,1.74-.06,1.82.03,3.67.07,5.45.11.81.02,1.63.04,2.44.05.13,0,.25,0,.38,0,.22,0,.45,0,.67.02.33.04.67.06,1,.06.69,0,1.38-.08,2.05-.23,1.89-.41,3.39-2.33,3.32-4.28-.03-.97-.05-2.02-.05-3.23,0-.84,0-1.69,0-2.51,0-1.6.01-3.26-.02-4.88-.02-1.13-.19-2.24-.36-3.18-.2-1.13-.72-1.98-1.55-2.51-.88-.56-1.67-.81-2.48-.78-.25,0-.5.03-.75.05-.3.02-.61.05-.91.05-1.16.02-2.34.03-3.48.04-2.6.02-5.29.05-7.93.21-.56.03-1.11.13-1.65.29-1.35.42-2.41,1.74-2.48,3.07,0,.11-.01.22-.02.33-.02.44-.05.89-.05,1.33,0,1.5,0,3.03,0,4.5,0,.57,0,1.13,0,1.7ZM10.22,2.85c.41,0,.82-.02,1.23-.03h.01s.08,0,.13,0h.02c-.23,3.06-.24,6.13-.23,8.78l-8.99.19s0-.08-.01-.12c-.01-.13-.02-.25-.02-.36,0-.5,0-1.01,0-1.51,0-.9,0-1.83-.02-2.75-.02-.74.1-1.48.35-2.18.3-.83.86-1.36,1.71-1.61.88-.26,1.81-.3,2.71-.34h.01c1.03-.05,2.09-.07,3.11-.09h0ZM2.37,18.15v-.06c0-1.09,0-2.19.01-3.26,0-.42,0-.85,0-1.27,0-.04,0-.08,0-.12,0-.07,0-.13,0-.2.01-.22.07-.29.26-.29.01,0,.03,0,.04,0,.11,0,.23.02.34.03.15.02.29.03.44.03.83,0,1.71,0,2.86-.01.96-.01,1.92-.02,2.89-.04.62,0,1.25-.02,1.87-.02.06,0,.12,0,.18,0h.05s-.08,8.73-.08,8.73h-.04c-.08.01-.14.02-.21.02h-.85c-1.55,0-3.16,0-4.74,0-.76,0-1.39-.2-1.93-.61-.57-.43-.91-1.06-1.06-1.91-.05-.34-.07-.68-.06-1.03h0ZM12.94,12.94c.13,0,.25,0,.37,0,.58,0,1.15,0,1.73-.01,1.52,0,3.1-.02,4.65-.04.45,0,.89-.04,1.36-.07.19-.01.37-.03.57-.04h0v1.95c0,1.32.01,2.64.02,3.97,0,1.18-.99,2.53-2.13,2.9-.83.26-1.7.37-2.56.35-.97-.02-1.96-.07-2.92-.12-.36-.02-.73-.04-1.09-.05-.12,0-.24-.02-.37-.03h-.09c.29-3.11.33-6.19.33-8.8h.13ZM21.63,10.44c0,.39-.01.79,0,1.18h-8.78l-.29-8.79h.05c.07-.02.15-.03.22-.04.47,0,.93-.01,1.4-.02,1.3-.02,2.64-.04,3.95-.02.85,0,1.66.33,2.27.93.24.24.42.53.52.85.18.6.33,1.21.44,1.82.26,1.35.24,2.74.23,4.08h0Z"/>
  </g>
</svg>