<?xml version="1.0" encoding="UTF-8"?>
<svg id="Layer_1" data-name="Layer 1" xmlns="http://www.w3.org/2000/svg" xmlns:xlink="http://www.w3.org/1999/xlink" viewBox="0 0 24 24">
  <defs>
    <style>
      .cls-1 {
        fill: none;
      }

      .cls-2 {
        clip-path: url(#clippath);
      }
    </style>
    <clipPath id="clippath">
      <rect class="cls-1" x="1.6" y="3.43" width="20.81" height="17.15"/>
    </clipPath>
  </defs>
  <g class="cls-2">
    <g>
      <path d="M12.2,18.52c2.87-.1,5.74-.2,8.61-.29.25,0,.51,0,.76.05.49.08.78.37.8.78.02.39-.18.69-.62.85-.26.1-.53.16-.81.19-.91.07-1.83.14-2.74.15-4.12.03-8.23.03-12.35.07-1.11,0-2.23.09-3.34.15-.39.02-.64-.11-.77-.46-.15-.4-.02-.87.38-1.03.37-.15.77-.24,1.17-.26,2.31-.07,4.62-.12,6.93-.17.66-.01,1.32,0,1.98,0v-.03Z"/>
      <path d="M4.49,10.3c-.6,0-1.16.03-1.72,0-.54-.04-.82-.31-.84-.7-.01-.35.24-.69.71-.77.77-.13,1.56-.19,2.34-.26,4.92-.47,9.86-.41,14.79-.52.38,0,.76.03,1.14.1.47.1.71.39.72.76.01.39-.18.68-.66.82-.37.1-.75.15-1.13.17-.51.04-1.02.04-1.53.04-4.63.02-9.26-.03-13.83.37Z"/>
      <path d="M6.62,15.13c-1.24-.05-2.49-.09-3.73-.14-.63-.03-.83-.19-.87-.62-.04-.45.21-.77.74-.9.2-.04.4-.06.6-.06,2.26-.06,4.52-.11,6.79-.15.38,0,.75.06,1.11.17.15.05.29.15.38.28.1.13.15.28.15.44,0,.16-.04.32-.13.45-.09.13-.22.24-.37.3-.38.15-.77.23-1.17.25-1.17.03-2.34.01-3.51.01v-.02Z"/>
      <path d="M5.82,5.27c-.81.04-1.62.09-2.43.12-.25.03-.5,0-.74-.08-.19-.11-.33-.28-.4-.49-.03-.13-.01-.26.05-.37.06-.11.17-.2.29-.24.23-.1.48-.16.73-.18,2.02-.17,4.05-.33,6.07-.47.33-.02.66,0,.98.07.15.03.29.11.39.23s.16.26.17.41c0,.15-.04.3-.12.43s-.22.22-.36.26c-.24.08-.49.13-.74.15-1.29.08-2.58.15-3.88.22v-.04Z"/>
    </g>
  </g>
</svg>