<svg width="159" height="151" viewBox="0 0 159 151" fill="none" xmlns="http://www.w3.org/2000/svg">
<path d="M137.33 97.2033C138.241 104.93 139.103 112.044 139.899 119.164C140.035 120.377 139.83 121.626 139.916 122.848C140.22 127.139 137.838 129.548 134.177 130.952C125.392 134.32 116.653 137.832 107.753 140.871C98.0067 144.2 88.1202 147.128 78.245 150.064C76.5339 150.54 74.7283 150.562 73.0054 150.129C55.7439 145.643 38.7094 140.45 22.2708 133.451C19.6626 132.442 17.1353 131.235 14.7111 129.841C13.3829 128.889 12.3361 127.596 11.6813 126.099C11.1313 124.955 11.1689 123.467 11.1663 122.132C11.1459 113.484 11.126 104.835 11.2592 96.188C11.3403 95.5342 11.2137 94.8714 10.8967 94.2938C10.5798 93.7169 10.0887 93.2541 9.49365 92.9713C7.53612 91.8745 5.67664 90.6111 3.93532 89.1953C0.376 86.1919 -0.150516 82.6398 2.35473 78.711C3.37705 77.2382 4.53964 75.8677 5.82614 74.6187C9.15183 71.1401 12.5325 67.72 16.0026 64.1628C12.1144 60.6777 8.43773 57.3903 4.77145 54.0915C3.73223 53.2342 2.75003 52.3102 1.83106 51.3251C-0.650548 48.4195 -0.322972 45.5493 2.71718 43.1924C4.3134 41.9552 5.99879 40.8295 7.616 39.6225C20.114 30.2796 32.5845 20.9006 45.1167 11.6035C47.5773 9.83576 50.13 8.19984 52.7642 6.70313C55.9238 4.84436 58.9055 5.15099 61.752 7.58728C65.2496 10.5808 68.8587 13.4432 72.439 16.3383C73.3894 17.1069 74.408 17.7881 75.6065 18.6611C77.2053 16.8476 78.7359 15.0926 80.2875 13.3566C83.3559 9.92345 86.4308 6.49545 89.5123 3.07242C92.4002 -0.139037 94.3489 -0.777826 98.0999 1.20628C104.932 4.82074 111.798 8.43474 118.294 12.6018C130.287 20.2948 142.025 28.3847 153.864 36.3178C154.516 36.7566 155.139 37.2375 155.728 37.7577C158.619 40.3049 158.944 42.9745 156.454 45.9962C152.451 50.863 148.13 55.4277 142.854 58.9778C142.491 59.222 142.169 59.5267 141.575 60.0085C145.197 63.8205 148.719 67.5513 152.273 71.2537C153.52 72.5493 154.92 73.6992 156.104 75.0447C159.23 78.5975 159.181 82.0951 155.993 85.5717C153.538 88.3592 150.533 90.6078 147.166 92.1771C143.706 93.7372 140.39 95.6281 137.33 97.2033ZM128.647 61.5974C127.256 60.7665 126.334 60.198 125.395 59.6578C113.839 53.0026 102.302 46.3138 90.7108 39.7209C86.6238 37.3968 82.3379 35.42 78.2647 33.0729C76.0705 31.8082 74.431 32.2241 72.4515 33.5322C60.389 41.5152 48.2597 49.398 36.1404 57.2917C33.0701 59.2923 29.9537 61.2218 26.6104 63.3411C27.4203 63.8661 27.8614 64.1997 28.3451 64.457C42.8193 72.084 57.3396 79.624 71.7426 87.3819C74.9515 89.11 77.6418 89.555 80.5028 87.0137C81.316 86.4164 82.1974 85.9176 83.1281 85.5284C96.5246 78.5029 109.923 71.4795 123.322 64.4595C124.981 63.5899 126.622 62.6869 128.647 61.5974ZM80.8362 25.1706C99.3449 35.0584 116.59 46.1956 135.185 54.7949L146.874 42.9808C146.484 42.5659 146.067 42.1769 145.627 41.8159C134.65 34.4314 123.724 26.9688 112.657 19.7235C107.977 16.6597 103.001 14.0471 98.1517 11.2471C96.6421 10.3749 95.3583 10.3939 93.9977 11.8221C89.7466 16.2767 85.363 20.5986 80.8362 25.17V25.1706ZM18.9785 98.9144C19.7806 107.455 20.5138 115.149 21.2148 122.846C21.2311 123.409 21.433 123.95 21.7891 124.386C22.1453 124.821 22.6358 125.127 23.1838 125.255C24.1421 125.563 25.0589 125.996 26.006 126.349C39.986 131.578 54.3881 135.4 68.8141 139.137C69.643 139.28 70.4799 139.366 71.32 139.393V105.315C69.154 107.692 67.5257 109.697 65.6702 111.468C63.7962 113.393 61.7203 115.111 59.4786 116.593C56.4765 118.412 53.1317 118.742 49.896 116.911C41.4073 112.109 32.9296 107.287 24.4629 102.443C22.8273 101.508 21.2895 100.41 18.9785 98.9137V98.9144ZM130.452 100.883C128.785 101.629 127.963 101.953 127.18 102.352C118.901 106.578 110.575 110.723 102.378 115.1C99.534 116.619 97.0018 116.641 94.5405 114.768C90.5277 111.713 86.6245 108.517 82.6785 105.375C81.8588 104.722 81.058 104.046 80.0919 103.251C80.7384 115.707 81.3639 127.753 81.9959 139.962C82.8098 139.748 83.5712 139.599 84.2931 139.348C88.9479 137.737 93.623 136.178 98.239 134.461C107.785 130.91 117.298 127.275 126.821 123.662C128.079 123.184 129.249 122.737 129.328 120.965C129.617 114.478 130.042 107.999 130.452 100.879V100.883ZM8.92546 83.0999L55.9815 109.376L69.8445 96.4472L21.0296 68.5404L8.92546 83.0999ZM85.0079 94.7867C89.1231 97.983 92.9981 100.856 96.7058 103.931C98.5796 105.484 100.123 105.752 102.384 104.548C116.129 97.223 129.959 90.0571 143.755 82.8269C144.714 82.3248 145.625 81.7315 146.486 81.2235L135.525 66.3548L85.0079 94.7867ZM55.679 15.2973C40.1841 24.8142 26.6688 36.7693 12.4145 46.6702L23.4408 58.1869L69.217 27.2329L55.679 15.2973Z" fill="black"/>
</svg>
