<svg width="149" height="87" viewBox="0 0 149 87" fill="none" xmlns="http://www.w3.org/2000/svg">
<g clip-path="url(#clip0_8_2712)">
<path d="M77.3525 0.119289C90.8276 0.498033 103.722 3.4745 115.705 9.72082C124.511 14.2758 132.585 20.1342 139.66 27.1005C141.763 29.2994 143.748 31.6107 145.604 34.0244C147.896 36.8431 148.281 40.3272 148.436 43.7496C148.413 45.2771 147.969 46.7682 147.152 48.0564C139.344 61.1215 129.123 71.5656 115.131 78.0245C95.3399 87.1602 75.0505 89.2652 54.1174 82.7271C38.7619 77.929 24.4139 71.0835 11.7886 60.8833C8.20091 57.9842 4.95671 54.7881 2.69308 50.7305C1.8158 49.045 1.04644 47.305 0.389742 45.521C-0.383887 43.59 0.0911551 41.7158 1.10553 40.053C1.93516 38.7733 2.88978 37.5801 3.95532 36.4912C11.4635 28.368 19.8343 21.0965 28.9182 14.8067C37.4009 8.94946 46.957 4.8455 57.0311 2.73327C63.6931 1.30857 70.4211 -0.177689 77.3525 0.119289ZM9.09861 44.5037C11.3655 48.4148 14.8036 50.8116 18.2488 53.1835C30.2703 61.4602 43.4456 67.179 57.4835 70.9612C72.2533 74.9409 86.763 73.7739 101.142 68.8771C115.642 63.9368 126.962 54.6605 136.684 43.1111C136.964 42.8492 137.161 42.5113 137.254 42.1384C137.29 41.4188 137.431 40.4547 137.047 40.0099C132.571 34.8226 127.998 29.7138 122.277 25.844C95.9697 8.05736 68.4425 6.98778 40.2071 20.4224C29.1843 25.6666 19.612 33.3089 10.6674 41.6465C9.89378 42.3621 9.58732 43.5761 9.09543 44.5037H9.09861Z" fill="black"/>
<path d="M95.4569 41.4864C95.5141 45.182 94.2082 48.7679 91.7911 51.5528C86.8292 57.2994 80.7124 60.6452 72.8869 60.1487C70.3253 60.0289 67.8242 59.3276 65.571 58.0972C63.3177 56.8668 61.3707 55.1393 59.8762 53.0445C58.3817 50.9495 57.3785 48.5417 56.9419 46.0013C56.5053 43.461 56.6466 40.8541 57.3552 38.3765C58.1904 35.451 59.5002 32.684 61.2318 30.1874C68.9661 19.2915 83.2512 21.0132 90.3063 27.5918C94.177 31.202 95.5362 35.8366 95.4569 41.4864ZM75.5995 35.0143C72.1322 34.8286 68.9758 36.5882 68.2224 38.8037C67.3284 41.434 67.3882 44.0498 69.2901 46.3079C69.7735 46.8834 70.3637 47.359 71.0274 47.7078C72.3658 48.4384 73.8824 48.772 75.4017 48.6701C76.9216 48.5681 78.3804 48.0349 79.6102 47.1321C84.1133 44.1002 83.7919 38.5493 78.9771 36.2081C77.882 35.7269 76.7531 35.328 75.5995 35.0143Z" fill="black"/>
</g>
<defs>
<clipPath id="clip0_8_2712">
<rect width="149" height="87" fill="white"/>
</clipPath>
</defs>
</svg>
