<svg width="158" height="74" viewBox="0 0 158 74" fill="none" xmlns="http://www.w3.org/2000/svg">
<g clip-path="url(#clip0_8_2715)">
<path d="M51.5394 73.2867C55.0451 72.9725 58.5189 72.3721 61.9264 71.4919C62.6344 71.3289 63.3419 71.1673 64.0487 71.0102C64.8243 70.7363 65.498 70.2332 65.9791 69.5672C66.2723 69.2485 66.5767 68.9181 66.9304 68.5981C67.009 68.5267 67.0695 68.4378 67.1066 68.3391C67.1436 68.2398 67.1573 68.134 67.1449 68.0288C67.1332 67.9236 67.0962 67.823 67.0376 67.7347C66.9791 67.6465 66.8998 67.5738 66.8075 67.5225C66.2509 67.2109 65.7613 66.9162 65.312 66.6455C64.5182 66.1314 63.6797 65.69 62.8068 65.3259C57.1682 63.1874 51.1811 62.7291 45.5517 62.559C36.6302 62.2858 29.539 60.6915 23.2346 57.5426C12.4204 52.1413 8.32926 41.9968 12.2923 30.4093C15.4406 21.2002 21.3302 15.1763 29.7991 12.5045C34.7712 10.9362 39.9735 9.75737 45.0042 8.61752C46.5946 8.2566 48.185 7.89647 49.7715 7.52387C51.358 7.15128 53.001 6.91175 54.596 6.68001C55.343 6.57096 56.0914 6.46193 56.8274 6.3399C56.9377 6.32183 57.0418 6.27634 57.13 6.20772C57.2181 6.13911 57.2876 6.04942 57.3321 5.94703C57.9777 4.45794 58.0999 3.289 57.7052 2.37179C57.5493 2.02643 57.3219 1.71783 57.0383 1.46625C56.7545 1.21467 56.4209 1.02578 56.0589 0.911896C54.5332 0.387517 52.9336 0.108626 51.3202 0.0855921C44.3168 -0.145496 37.5092 1.47524 30.9259 3.03897L29.4583 3.38636C15.4541 6.68975 6.13881 15.7742 1.77073 30.386C-1.32295 40.7336 0.833697 50.3426 8.18166 58.9474C12.4834 63.9852 18.1429 66.9831 23.1125 69.2505C30.5775 72.6564 38.3707 73.5042 45.1953 73.5042C47.4287 73.4996 49.5589 73.4087 51.5394 73.2867Z" fill="black"/>
<path d="M155.236 23.7791C151.4 12.6434 144.453 6.12294 133.994 3.84062C125.503 1.94898 116.861 0.812498 108.17 0.444454C105.265 0.413073 102.362 0.624074 99.492 1.07535C98.8158 1.16299 98.1402 1.25001 97.4666 1.3305C95.5095 1.56418 94.4822 2.9578 94.7195 5.05836C94.7331 5.17618 94.778 5.28823 94.8495 5.38292C96.2722 7.27577 98.3606 7.22442 100.199 7.18353C100.571 7.17444 100.943 7.16542 101.309 7.17321C112.531 7.39066 123.107 9.78723 131.972 12.1026C139.346 14.0292 144.041 18.9392 146.323 27.1136C146.768 28.7053 147.078 30.3449 147.298 31.5925C148.557 38.7238 147.417 45.0138 144.001 49.781C140.623 54.4949 135.048 57.6691 128.301 58.7188L126.499 58.9985C122.114 59.6749 117.58 60.3747 113.177 61.3626C112.652 61.4808 112.125 61.595 111.596 61.7099C107.125 62.6835 102.501 63.6884 97.3327 66.9417C97.2299 67.0059 97.1473 67.0974 97.0921 67.2052C97.0375 67.313 97.0134 67.4337 97.0225 67.5544C97.031 67.6745 97.0726 67.7907 97.1421 67.8894C97.2117 67.9887 97.3073 68.0666 97.4178 68.1153C98.3106 68.5099 99.0433 68.867 99.6877 69.1824C100.649 69.7095 101.669 70.1198 102.727 70.4054C106.869 71.3083 111.097 71.7581 115.336 71.7465C122.099 71.6783 128.825 70.7416 135.35 68.9598C148.843 65.4286 158.919 51.0675 157.812 36.9459C157.51 32.4665 156.644 28.0428 155.236 23.7791Z" fill="black"/>
<path d="M42.5828 32.0497C42.2934 32.0581 41.9977 32.0496 41.6999 32.0392C40.811 31.9582 39.9149 32.0484 39.06 32.3048C38.2094 32.6806 37.4238 33.1888 36.7329 33.8107C36.3655 34.1041 35.9677 34.4222 35.5145 34.7493C35.4324 34.8086 35.3649 34.8857 35.3171 34.9748C35.2692 35.0639 35.2422 35.1627 35.2381 35.2637C35.2342 35.3647 35.2532 35.4654 35.2938 35.5581C35.3345 35.6506 35.3957 35.7327 35.4728 35.7983C35.8824 36.1469 36.2394 36.4934 36.5541 36.7998C37.0988 37.4312 37.7806 37.9303 38.5476 38.2591C40.0976 38.714 41.7005 38.9645 43.3156 39.0043C52.0712 39.4586 60.3224 39.6911 68.2022 39.6911C82.1842 39.7494 96.1552 38.9038 110.028 37.1596C110.823 37.0071 111.592 36.7402 112.311 36.3675C112.85 36.1286 113.52 35.8321 114.378 35.4926C114.506 35.4419 114.615 35.353 114.691 35.238C114.766 35.1231 114.804 34.9876 114.799 34.8503C114.795 34.7129 114.748 34.5803 114.665 34.4706C114.582 34.3608 114.468 34.2793 114.336 34.2371C113.41 33.9411 112.757 33.7108 112.267 33.5375C111.73 33.3078 111.164 33.1528 110.585 33.0766C107.878 32.8864 105.123 32.6593 102.458 32.4392C95.9614 31.9024 89.2442 31.3479 82.6212 31.2882C73.2068 31.2019 63.6351 31.4759 54.3834 31.7387C50.4516 31.8517 46.5172 31.9633 42.5828 32.0497Z" fill="black"/>
</g>
<defs>
<clipPath id="clip0_8_2715">
<rect width="158" height="74" fill="white"/>
</clipPath>
</defs>
</svg>
