<svg width="156" height="142" viewBox="0 0 156 142" fill="none" xmlns="http://www.w3.org/2000/svg">
<g clip-path="url(#clip0_8_2719)">
<path d="M79.1353 18.8898C79.771 19.5158 80.382 20.1197 80.975 20.7046C83.0075 22.7128 84.7636 24.4464 86.5929 26.1758C88.3232 27.8153 90.111 29.4491 91.8393 31.0287C93.031 32.1178 94.2194 33.2101 95.4053 34.3053C97.3077 36.0738 99.1985 37.8547 101.074 39.6232L103.554 41.9577C103.657 42.0546 103.788 42.1163 103.927 42.1333C104.067 42.1502 104.209 42.1214 104.331 42.0519L106.442 40.8559C106.58 40.7785 106.685 40.6547 106.74 40.5061C106.795 40.3575 106.795 40.1938 106.742 40.0449C106.663 39.8273 106.6 39.6116 106.54 39.4006C106.421 38.8971 106.222 38.4159 105.952 37.9757C97.8651 26.2414 89.096 14.9982 79.6914 4.30383C78.7871 3.25301 77.7553 2.32026 76.6199 1.52848C74.0715 -0.214604 71.312 0.192318 69.2445 2.62195C68.7416 3.2441 68.2891 3.90591 67.891 4.60089L65.4533 8.57783C60.706 16.3168 55.797 24.3198 51.0024 32.2125C50.1898 33.3811 49.6247 34.7052 49.3421 36.103C49.2974 36.7508 49.4043 37.4004 49.6542 37.9992C49.9041 38.5979 50.29 39.1292 50.7809 39.5506C51.6975 40.187 53.6291 40.3542 54.5735 39.6429C56.227 38.4132 57.6643 36.9133 58.8257 35.206C60.6919 32.4149 62.5153 29.5343 64.2798 26.7477C65.788 24.3656 67.3479 21.9012 68.9241 19.51C69.2258 19.054 69.4912 18.5632 69.7475 18.0896C70.2647 16.9235 71.0512 15.898 72.0409 15.0992C71.971 15.8711 71.894 16.6337 71.8189 17.388C71.5302 19.8093 71.3735 22.2443 71.3483 24.6828L71.3638 26.6853C71.4829 42.0135 71.6066 57.8647 72.0351 73.4492C72.2908 82.7398 72.7775 92.1743 73.2488 101.299C73.4585 105.362 73.6624 109.425 73.8592 113.488C73.8702 113.72 73.876 113.954 73.8818 114.187C73.8812 114.875 73.9375 115.563 74.0495 116.243C74.4236 118.197 75.4412 119.281 76.8763 119.281C77.0335 119.281 77.1902 119.269 77.3449 119.245C78.356 119.09 80.0111 118.225 80.3587 117.065C81.1129 114.69 81.5569 112.226 81.6805 109.737C81.8249 105.359 81.8055 100.675 81.6158 94.9974C81.098 79.3084 80.562 63.6192 80.0073 47.9301C79.7173 39.5869 79.4286 31.244 79.1412 22.9011C79.1082 21.9241 79.1153 20.9281 79.1243 19.6697C79.1321 19.4176 79.134 19.1588 79.1353 18.8898Z" fill="black"/>
<path d="M150.225 73.4097C149.214 73.4279 148.247 73.8318 147.519 74.5385C146.791 75.2459 146.356 76.2034 146.302 77.2202C146.05 81.5506 145.416 92.2898 144.983 98.4557C144.595 103.996 144.352 109.637 144.118 115.091C143.983 118.228 143.849 121.364 143.687 124.499C143.616 125.51 143.491 126.516 143.313 127.512C143.259 127.85 143.205 128.192 143.153 128.538C142.876 128.583 142.61 128.629 142.353 128.672C141.638 128.811 140.914 128.91 140.186 128.967C136.266 129.185 132.282 129.438 128.429 129.683C119.252 130.269 109.762 130.873 100.428 131.043C84.6089 131.331 68.5163 131.301 52.9527 131.271C48.0043 131.261 43.0561 131.254 38.1081 131.251H37.9981C30.5114 131.251 23.0609 131.097 16.76 130.945C15.1826 130.907 13.6161 130.74 11.801 130.546C11.0728 130.468 10.3122 130.386 9.50182 130.308C9.34906 128.036 9.23843 123.338 9.1012 117.52C8.75037 102.625 8.26936 82.2247 6.54106 78.4474C6.50073 78.3588 6.44172 78.2807 6.36803 78.2175C6.29434 78.1543 6.20783 78.108 6.11454 78.0826C5.63627 77.9035 5.12523 77.8312 4.61655 77.8696C4.10787 77.9087 3.61349 78.0572 3.16731 78.3061C2.84929 78.5301 2.58353 78.8206 2.38836 79.1581C2.1932 79.4955 2.07331 79.872 2.03714 80.2602C1.7588 82.2143 0.312747 107.127 0.235718 121.721C0.34317 123.784 0.516026 126.084 0.683031 128.306C0.806666 129.944 0.928294 131.564 1.0228 133.062C1.2636 136.909 3.43663 139.31 7.30559 140.006C9.73466 140.396 12.1864 140.626 14.6453 140.696C25.9847 141.233 37.4304 141.392 48.7989 141.392C57.2333 141.392 65.6287 141.303 73.8973 141.217C78.5113 141.169 83.1259 141.125 87.7405 141.087C98.0579 141.012 108.925 140.787 120.963 140.4C126.426 140.224 131.973 139.927 137.339 139.64C140.72 139.459 144.101 139.278 147.483 139.124C151.732 138.929 153.956 137.254 154.916 133.513C155.379 131.402 155.625 129.247 155.648 127.084L155.693 126.116C156.391 112.097 154.981 87.2325 154.342 77.1929C154.271 76.1507 153.804 75.1762 153.037 74.4721C152.27 73.7673 151.264 73.3869 150.225 73.4097Z" fill="black"/>
</g>
<defs>
<clipPath id="clip0_8_2719">
<rect width="156" height="142" fill="white"/>
</clipPath>
</defs>
</svg>
