<svg width="156" height="151" viewBox="0 0 156 151" fill="none" xmlns="http://www.w3.org/2000/svg">
<g clip-path="url(#clip0_8_2744)">
<path d="M111.073 80.0366C115.323 79.8137 119.326 79.0917 123.215 79.489C140.787 81.2841 153.91 94.7186 155.696 112.327C157.302 128.174 149.421 141.213 134.599 146.976C123.558 151.27 112.42 151.95 101.289 147.243C93.5566 143.972 87.549 138.836 84.1125 130.993C83.9409 130.604 83.6988 130.241 83.4419 129.78C80.1859 129.955 76.9947 130.134 73.8029 130.298C56.2241 131.194 38.6471 132.145 21.0638 132.941C16.3152 133.156 11.5453 132.925 6.78695 132.829C5.68281 132.799 4.58796 132.617 3.53353 132.288C0.41612 131.327 -0.619598 129.17 0.473696 126.123C5.16799 112.821 12.3907 100.555 21.7429 90.0026C33.1535 77.1708 47.0763 69.0784 64.3353 67.3066C76.1429 66.0947 87.4823 68.0797 98.3836 72.6856C100.752 73.6078 103.062 74.6758 105.298 75.8838C107.296 77.1637 109.224 78.5499 111.073 80.0366ZM102.317 84.6534C93.1164 80.5175 84.2199 77.1073 74.368 76.6524C60.6605 76.0192 48.257 79.4715 37.4218 87.9236C25.7775 97.0069 17.2473 108.674 10.3503 121.617C10.0517 122.281 9.79795 122.964 9.59094 123.662C15.8465 124.229 78.1586 119.974 82.0942 118.721C82.1919 118.26 82.3382 117.733 82.4107 117.198C83.3771 110.606 85.5521 104.25 88.8268 98.4495C89.9259 96.5332 91.2949 94.7853 92.8918 93.2598C95.7885 90.4057 98.8917 87.7564 102.317 84.6534ZM117.684 138.891C123.015 138.857 128.275 137.678 133.111 135.432C136.782 133.798 139.856 131.066 141.911 127.609C146.669 119.564 145.753 106.553 139.732 99.4009C134.934 93.7024 128.939 89.7661 121.374 89.1426C112.6 88.42 105.143 91.5281 100.074 98.8027C94.9975 106.09 93.7735 114.526 94.7062 123.249C95.1412 126.818 96.9193 130.086 99.6788 132.387C104.811 136.957 110.913 138.853 117.684 138.891Z" fill="black"/>
<path d="M66.4223 59.5951C58.8972 59.286 51.5264 57.7227 45.0475 53.1201C37.7291 47.9213 31.9512 38.2483 36.4875 26.1696C37.6306 23.0565 39.1796 20.1084 41.0938 17.4013C43.7109 13.8236 46.5994 10.453 49.734 7.31989C56.7896 0.191128 68.8296 -1.57614 77.3326 3.64665C88.485 10.4948 94.9664 20.7795 96.2403 33.7597C96.997 41.4639 93.5702 48.029 87.4551 52.9277C81.3905 57.7863 74.2534 59.4221 66.4223 59.5951ZM65.4131 49.7722C70.121 49.6536 74.6974 49.0888 78.7987 46.5606C84.3785 43.122 86.6311 37.4636 84.9559 31.1443C83.649 26.2047 80.9614 22.0557 77.5054 18.3908C74.0624 14.7396 70.0342 12.273 64.793 12.1142C59.0221 11.9393 54.6548 15.0403 50.6344 18.4181C47.6899 20.893 45.9052 24.4827 44.7038 28.2473C42.0395 36.5951 44.9542 43.3844 52.8772 47.1711C56.8517 49.0744 61.1051 49.5914 65.4131 49.7716V49.7722Z" fill="black"/>
<path d="M119.812 117.762C115.5 117.762 111.188 117.805 106.877 117.736C105.557 117.69 104.246 117.5 102.966 117.172C102.414 117.069 101.917 116.769 101.568 116.329C101.219 115.888 101.041 115.336 101.067 114.774C101.004 114.218 101.133 113.657 101.432 113.184C101.731 112.712 102.183 112.357 102.713 112.177C103.418 111.867 104.167 111.663 104.932 111.573C114.533 111.075 124.135 110.606 133.737 110.165C134.29 110.138 134.844 110.182 135.386 110.294C136.207 110.445 136.949 110.882 137.481 111.526C138.012 112.171 138.3 112.982 138.294 113.818C138.252 114.601 137.936 115.345 137.402 115.92C136.868 116.493 136.148 116.861 135.371 116.957C132.74 117.264 130.084 117.399 127.434 117.487C124.896 117.572 122.351 117.505 119.81 117.505L119.812 117.762Z" fill="black"/>
</g>
<defs>
<clipPath id="clip0_8_2744">
<rect width="156" height="151" fill="white"/>
</clipPath>
</defs>
</svg>
