<svg width="157" height="151" viewBox="0 0 157 151" fill="none" xmlns="http://www.w3.org/2000/svg">
<g clip-path="url(#clip0_8_2734)">
<path d="M120.548 108.081C123.11 105.437 125.634 102.787 128.215 100.192C129.21 99.1471 130.298 98.1955 131.466 97.35C133.023 96.2761 134.686 96.3887 135.758 97.3949C136.327 97.9449 136.672 98.6875 136.725 99.4783C136.778 100.27 136.535 101.052 136.044 101.673C134.069 104.487 131.881 107.155 129.722 109.834C128.69 111.114 127.516 112.281 126.226 113.703C129.267 116.387 132.105 118.852 134.892 121.375C135.91 122.232 136.823 123.209 137.609 124.285C138.28 125.189 138.605 126.304 138.527 127.428C138.449 128.552 137.971 129.611 137.182 130.412C135.646 131.942 133.17 132.056 131.076 130.559C130.205 129.874 129.399 129.108 128.668 128.274C126.062 125.556 123.478 122.817 120.636 119.825C118.61 121.964 116.722 123.951 114.843 125.943C113.759 127.21 112.609 128.419 111.399 129.564C110.426 130.459 109.279 131.141 108.03 131.568C104.844 132.489 102.382 129.974 103.466 126.831C104.087 125.29 105.005 123.887 106.165 122.7C108.4 120.227 110.825 117.932 113.153 115.544C113.689 114.995 114.151 114.373 114.946 113.431C112.015 110.665 109.121 107.953 106.252 105.216C105.176 104.264 104.174 103.232 103.254 102.129C102.845 101.657 102.619 101.053 102.618 100.427C102.618 99.8018 102.842 99.1972 103.25 98.724C104.183 97.5772 105.448 97.1014 106.808 97.7815C108.411 98.5359 109.936 99.4471 111.362 100.501C114.411 102.88 117.338 105.417 120.548 108.081Z" fill="black"/>
<path d="M111.634 80.1008C115.893 79.8775 119.905 79.1518 123.802 79.5508C141.414 81.3537 154.568 94.8461 156.356 112.53C157.967 128.446 150.067 141.541 135.213 147.329C124.146 151.642 112.983 152.324 101.828 147.596C94.0774 144.312 88.0569 139.154 84.6126 131.277C84.4407 130.886 84.1981 130.522 83.9399 130.058C80.6766 130.234 77.4789 130.414 74.2798 130.579C56.6611 131.479 39.0446 132.434 21.4217 133.233C16.6631 133.449 11.885 133.218 7.11272 133.121C6.00616 133.09 4.90889 132.908 3.85198 132.578C0.727547 131.612 -0.310502 129.446 0.785254 126.386C5.49012 113.027 12.7291 100.708 22.1023 90.1097C33.5387 77.2227 47.4934 69.0954 64.7906 67.3159C76.6238 66.0988 87.9888 68.0924 98.9152 72.7181C101.29 73.6436 103.604 74.7169 105.845 75.9301C107.848 77.2155 109.78 78.6077 111.634 80.1008ZM102.858 84.7375C93.6363 80.5837 84.7203 77.1589 74.8462 76.702C61.1076 76.0661 48.6761 79.5339 37.8165 88.0218C26.146 97.1443 17.5966 108.862 10.6847 121.86C10.3851 122.527 10.1306 123.213 9.92302 123.915C16.1926 124.484 78.6447 120.21 82.5892 118.952C82.6871 118.489 82.8337 117.96 82.9064 117.423C83.875 110.802 86.0555 104.418 89.3369 98.5931C90.4392 96.6685 91.8113 94.9131 93.4118 93.381C96.315 90.512 99.4251 87.8539 102.858 84.7375ZM118.259 139.209C123.602 139.174 128.874 137.99 133.721 135.736C137.4 134.094 140.481 131.35 142.54 127.879C147.31 119.799 146.391 106.731 140.357 99.5485C135.549 93.8255 129.539 89.8722 121.958 89.2467C113.163 88.5203 105.69 91.6419 100.61 98.9445C95.5216 106.263 94.2948 114.736 95.2296 123.496C95.6656 127.081 97.4484 130.363 100.214 132.674C105.358 137.266 111.473 139.17 118.259 139.209Z" fill="black"/>
<path d="M66.882 59.5718C59.3403 59.2613 51.9528 57.6917 45.4594 53.0692C38.1245 47.848 32.3336 38.1333 36.8801 26.0025C38.0258 22.876 39.5783 19.9148 41.4968 17.1962C44.1198 13.603 47.0148 10.2182 50.1564 7.07157C57.2279 -0.0878936 69.2947 -1.86309 77.8168 3.38221C88.9943 10.2605 95.4904 20.5893 96.7671 33.6254C97.5255 41.3635 94.091 47.9561 87.9628 52.876C81.8839 57.7555 74.7307 59.398 66.882 59.5718ZM65.8706 49.7069C70.589 49.5878 75.1757 49.0202 79.2863 46.4811C84.8786 43.0277 87.133 37.3449 85.4573 30.9984C84.1474 26.0375 81.4538 21.8709 77.9901 18.1902C74.5393 14.5233 70.5021 12.0461 65.2491 11.8867C59.4654 11.7109 55.0884 14.8259 51.0596 18.2176C48.1077 20.7032 46.319 24.309 45.1149 28.0892C42.4446 36.473 45.366 43.2912 53.3068 47.0942C57.2908 49.0058 61.5525 49.5253 65.8706 49.7069Z" fill="black"/>
</g>
<defs>
<clipPath id="clip0_8_2734">
<rect width="157" height="151" fill="white"/>
</clipPath>
</defs>
</svg>
