<svg width="156" height="151" viewBox="0 0 156 151" fill="none" xmlns="http://www.w3.org/2000/svg">
<g clip-path="url(#clip0_8_2725)">
<path d="M111.077 80.0366C115.328 79.8137 119.33 79.0917 123.219 79.489C140.791 81.2841 153.915 94.7186 155.7 112.327C157.306 128.174 149.425 141.213 134.604 146.976C123.562 151.27 112.424 151.95 101.293 147.243C93.5607 143.972 87.5531 138.836 84.1165 130.993C83.945 130.604 83.7029 130.241 83.4459 129.78C80.19 129.955 76.9988 130.134 73.8069 130.298C56.2279 131.194 38.6511 132.145 21.0677 132.941C16.3198 133.156 11.5523 132.925 6.79075 132.829C5.68664 132.799 4.59187 132.617 3.53743 132.288C0.420021 131.327 -0.615618 129.17 0.477677 126.123C5.17197 112.821 12.3946 100.555 21.7467 90.0026C33.1573 77.1708 47.0802 69.0784 64.3393 67.3066C76.1469 66.0947 87.4864 68.0797 98.3876 72.6856C100.756 73.6078 103.065 74.6758 105.302 75.8838C107.3 77.1637 109.227 78.5499 111.077 80.0366ZM102.321 84.6534C93.1205 80.5175 84.2246 77.1073 74.372 76.6524C60.6645 76.0192 48.2609 79.4715 37.4257 87.9236C25.7814 97.0069 17.2512 108.674 10.3542 121.617C10.0556 122.281 9.80194 122.964 9.59494 123.662C15.8505 124.229 78.1626 119.974 82.0982 118.721C82.196 118.26 82.3423 117.733 82.4148 117.198C83.3805 110.606 85.5561 104.25 88.8308 98.4495C89.9299 96.5332 91.299 94.7853 92.8959 93.2598C95.7939 90.4057 98.8977 87.7564 102.323 84.6534H102.321ZM117.688 138.891C123.018 138.857 128.279 137.678 133.115 135.432C136.786 133.798 139.86 131.066 141.915 127.609C146.674 119.564 145.757 106.553 139.736 99.4009C134.938 93.7024 128.943 89.7661 121.379 89.1426C112.604 88.42 105.147 91.5281 100.078 98.8027C95.0016 106.09 93.7775 114.526 94.7103 123.249C95.1446 126.818 96.9234 130.086 99.6829 132.387C104.817 136.957 110.918 138.853 117.69 138.891H117.688Z" fill="black"/>
<path d="M66.4269 59.5951C58.9022 59.286 51.5314 57.7227 45.0525 53.1201C37.7341 47.9213 31.9563 38.2483 36.4926 26.1696C37.6358 23.0565 39.1846 20.1084 41.0989 17.4013C43.7159 13.8236 46.6045 10.453 49.739 7.31989C56.7946 0.191128 68.8348 -1.57614 77.3378 3.64665C88.4902 10.4948 94.971 20.7795 96.2449 33.7597C97.0016 41.4639 93.5748 48.029 87.4603 52.9277C81.3951 57.7863 74.2579 59.4221 66.4269 59.5951ZM65.4177 49.7722C70.1256 49.6536 74.702 49.0888 78.8033 46.5606C84.3831 43.122 86.6357 37.4636 84.9605 31.1443C83.6535 26.2047 80.9659 22.0557 77.51 18.3908C74.067 14.7396 70.0388 12.273 64.7976 12.1142C59.0272 11.9393 54.6599 15.0403 50.6401 18.4181C47.6949 20.893 45.9102 24.4827 44.7088 28.2473C42.0445 36.5951 44.9594 43.3844 52.8824 47.1711C56.8568 49.0744 61.1095 49.5914 65.4177 49.7716V49.7722Z" fill="black"/>
<path d="M124.008 118.038C124.008 121.184 124.058 123.73 123.985 126.273C123.968 127.377 123.792 128.472 123.461 129.525C123.252 130.227 122.819 130.84 122.227 131.271C121.635 131.702 120.918 131.926 120.187 131.909C119.455 131.951 118.73 131.742 118.132 131.318C117.534 130.893 117.099 130.277 116.897 129.571C116.559 128.295 116.388 126.981 116.388 125.662C116.313 123.253 116.367 120.839 116.367 118.065C113.423 118.065 110.68 118.139 107.944 118.038C106.178 117.997 104.42 117.782 102.697 117.395C101.94 117.225 101.262 116.805 100.772 116.202C100.282 115.6 100.008 114.85 99.9962 114.073C99.9839 113.296 100.232 112.538 100.703 111.919C101.174 111.301 101.838 110.86 102.589 110.665C103.971 110.287 105.395 110.085 106.827 110.064C109.896 109.978 112.97 110.037 116.163 110.037C116.163 106.91 116.149 104.168 116.17 101.428C116.121 100.437 116.182 99.4433 116.351 98.4654C116.675 97.0876 117.486 96.0383 119.088 96.0221C119.765 95.9729 120.436 96.1679 120.981 96.571C121.527 96.9748 121.909 97.5607 122.061 98.2223C122.478 100.054 122.773 101.912 122.946 103.784C123.176 105.737 123.294 107.702 123.464 109.739C125.397 109.739 127.036 109.786 128.67 109.726C130.551 109.658 132.429 109.405 134.308 109.394C137.309 109.376 139.203 110.825 139.368 113.097C139.523 115.225 137.972 116.966 135.187 117.425C132.998 117.737 130.794 117.937 128.585 118.023C127.173 118.108 125.753 118.038 124.008 118.038Z" fill="black"/>
</g>
<defs>
<clipPath id="clip0_8_2725">
<rect width="156" height="151" fill="white"/>
</clipPath>
</defs>
</svg>
