<svg width="153" height="139" viewBox="0 0 153 139" fill="none" xmlns="http://www.w3.org/2000/svg">
<g clip-path="url(#clip0_8_2741)">
<path d="M75.9081 71.5615C64.9084 70.9757 55.1087 69.1054 46.9342 62.3051C40.9912 57.3606 37.469 50.9588 36.0213 43.4632C32.8543 27.0857 41.869 12.8772 55.412 5.89224C64.8455 1.0266 74.7807 -0.855128 85.3403 0.77602C94.3518 2.16731 100.943 7.2487 106.281 14.2679C108.088 16.6451 110.209 18.9033 111.467 21.5559C114.063 27.0416 116.272 32.6689 114.773 39.0629C113.371 45.0425 111.635 50.8119 107.729 55.6989C100.87 64.2794 92.2052 69.7286 81.0985 70.9402C79.116 71.1555 77.1438 71.4128 75.9081 71.5615ZM45.6429 39.9973C46.8338 48.8674 51.2287 55.2204 59.4466 58.5021C62.7714 59.7191 66.2296 60.538 69.748 60.941C81.1114 62.547 90.8652 59.6001 98.0912 50.236C101.343 46.2124 102.927 41.0997 102.517 35.9481C93.3216 34.2445 85.0019 31.1639 78.2608 24.457C69.5736 34.3228 58.0669 37.9304 45.6408 39.9973H45.6429Z" fill="black"/>
<path d="M94.9566 137.907C81.0964 137.907 67.2357 137.836 53.3771 137.928C41.4139 138.007 29.4546 138.35 17.4895 138.403C14.1695 138.425 10.8563 138.098 7.60477 137.429C1.52625 136.153 -0.434238 132.725 1.09511 126.697C2.30939 121.913 4.79041 117.71 7.40438 113.601C18.021 96.8872 33.218 85.9476 51.5145 78.9375C61.4453 75.0506 71.9994 72.9883 82.6666 72.8493C98.119 72.7342 112.469 76.4697 124.792 86.4402C133.559 93.4348 140.747 102.193 145.89 112.145C147.408 115.095 149.034 118.012 150.262 121.082C151.349 123.729 152.128 126.492 152.582 129.317C153.235 133.713 150.85 136.648 146.469 137.176C143.395 137.575 140.302 137.797 137.202 137.84C123.12 137.91 109.038 137.871 94.9566 137.871V137.907ZM141.62 127.433C141.67 126.851 141.766 126.609 141.697 126.426C137.175 114.457 130.764 103.723 120.893 95.3336C115.105 90.4143 108.716 86.4861 101.257 84.5505C91.3312 82.062 80.9895 81.6935 70.9103 83.4695C45.9208 87.5845 25.9576 99.7092 12.3303 121.389C10.8807 123.695 9.72609 126.188 8.35752 128.735C12.9047 130.051 17.0448 129.526 21.2497 129.272C29.4242 128.779 37.6265 128.6 45.8204 128.555C71.543 128.416 97.2671 128.432 122.99 128.31C128.744 128.283 134.498 127.94 140.251 127.725C140.715 127.664 141.172 127.566 141.62 127.431V127.433Z" fill="black"/>
</g>
<defs>
<clipPath id="clip0_8_2741">
<rect width="153" height="139" fill="white"/>
</clipPath>
</defs>
</svg>
