<svg width="157" height="151" viewBox="0 0 157 151" fill="none" xmlns="http://www.w3.org/2000/svg">
<g clip-path="url(#clip0_8_2729)">
<path d="M111.451 80.0366C115.711 79.8137 119.723 79.0917 123.62 79.489C141.232 81.2841 154.385 94.7186 156.174 112.327C157.784 128.174 149.886 141.213 135.031 146.976C123.964 151.27 112.801 151.95 101.646 147.243C93.895 143.972 87.8745 138.836 84.4303 130.993C84.2584 130.604 84.0157 130.241 83.7575 129.78C80.4943 129.955 77.2965 130.134 74.0975 130.298C56.4786 131.194 38.8628 132.145 21.2392 132.941C16.4806 133.156 11.7023 132.925 6.93004 132.829C5.82363 132.799 4.72668 132.617 3.67009 132.288C0.545663 131.327 -0.492387 129.17 0.603369 126.123C5.30771 112.82 12.5467 100.555 21.9204 90.0026C33.3568 77.1708 47.3108 69.0784 64.6087 67.3066C76.4421 66.0947 87.8077 68.0797 98.7335 72.6856C101.108 73.6078 103.422 74.6751 105.664 75.8838C107.666 77.1637 109.598 78.5499 111.451 80.0366ZM102.675 84.6534C93.4539 80.5175 84.538 77.1073 74.6638 76.6524C60.9251 76.0192 48.4942 79.4715 37.6346 87.9236C25.9634 97.0069 17.4141 108.674 10.5022 121.617C10.2027 122.281 9.9482 122.964 9.74053 123.662C16.0108 124.229 78.463 119.974 82.4074 118.721C82.5048 118.26 82.6514 117.733 82.7247 117.198C83.6926 110.606 85.8731 104.25 89.1552 98.4495C90.2568 96.5338 91.6289 94.7853 93.2288 93.2598C96.132 90.4057 99.2428 87.7564 102.675 84.6534ZM118.077 138.891C123.419 138.857 128.693 137.678 133.539 135.432C137.219 133.798 140.3 131.066 142.359 127.609C147.128 119.564 146.209 106.553 140.175 99.4009C135.366 93.7024 129.357 89.7661 121.776 89.1426C112.982 88.42 105.507 91.5281 100.428 98.8027C95.3392 106.09 94.1124 114.526 95.0472 123.249C95.4832 126.818 97.266 130.086 100.032 132.387C105.176 136.957 111.291 138.853 118.074 138.891H118.077Z" fill="black"/>
<path d="M66.7003 59.5951C59.1585 59.286 51.7711 57.7227 45.277 53.1201C37.9421 47.9213 32.1518 38.2483 36.6983 26.1696C37.8438 23.0565 39.3958 20.1084 41.3143 17.4013C43.9376 13.8237 46.833 10.4532 49.9746 7.31989C57.0461 0.191128 69.113 -1.57614 77.6351 3.64665C88.812 10.4948 95.308 20.7795 96.5854 33.7597C97.3432 41.4639 93.9093 48.029 87.7804 52.9277C81.7015 57.7863 74.5483 59.4221 66.7003 59.5951ZM65.6882 49.7722C70.4066 49.6536 74.994 49.0888 79.1046 46.5606C84.6962 43.122 86.9546 37.4636 85.2756 31.1443C83.9657 26.2047 81.2714 22.0557 77.8083 18.3908C74.3576 14.7396 70.3197 12.273 65.0667 12.1142C59.283 11.9393 54.9066 15.0403 50.8771 18.4181C47.9253 20.893 46.1366 24.4827 44.9325 28.2473C42.2622 36.5951 45.1835 43.3844 53.125 47.1711C57.1083 49.0744 61.3726 49.5914 65.6882 49.7716V49.7722Z" fill="black"/>
<path d="M115.54 108.997C115.764 105.023 115.87 101.037 116.283 97.0822C116.48 95.7971 117.095 94.6124 118.035 93.7122C119.328 92.49 121.136 93.129 121.692 94.8554C122.025 96.0258 122.245 97.2254 122.347 98.4373C123.105 104.926 123.867 111.414 124.538 117.911C124.728 119.212 124.64 120.538 124.278 121.803C123.21 124.86 119.546 125.354 117.745 122.645C116.933 121.426 116.766 119.776 116.323 118.316C116.284 118.097 116.27 117.875 116.282 117.654L115.837 109.016L115.54 108.997Z" fill="black"/>
<path d="M116.155 131.475C116.164 130.953 116.275 130.438 116.484 129.961C116.693 129.482 116.995 129.05 117.372 128.69C117.749 128.329 118.194 128.046 118.682 127.858C119.169 127.67 119.688 127.581 120.211 127.596C120.678 127.613 121.138 127.722 121.563 127.917C121.988 128.112 122.37 128.39 122.687 128.733C123.004 129.077 123.25 129.479 123.411 129.918C123.572 130.357 123.645 130.822 123.625 131.29C123.519 132.335 123.042 133.308 122.278 134.03C121.515 134.753 120.516 135.177 119.466 135.225C118.997 135.212 118.536 135.102 118.111 134.903C117.686 134.704 117.306 134.419 116.996 134.067C116.685 133.716 116.451 133.305 116.306 132.859C116.162 132.412 116.111 131.942 116.155 131.475Z" fill="black"/>
</g>
<defs>
<clipPath id="clip0_8_2729">
<rect width="157" height="151" fill="white"/>
</clipPath>
</defs>
</svg>
