<svg width="153" height="139" viewBox="0 0 153 139" fill="none" xmlns="http://www.w3.org/2000/svg">
<g clip-path="url(#clip0_8_2722)">
<path d="M94.7664 138.156C80.5737 138.156 66.3803 138.087 52.1885 138.178C40.7784 138.251 29.3733 138.581 17.9645 138.66C14.7547 138.66 11.5493 138.419 8.37538 137.943C1.53837 136.962 -1.18191 132.922 1.09494 126.404C2.65189 122.038 4.68655 117.857 7.16188 113.936C17.6495 97.1419 32.9092 86.2365 51.1972 79.2109C61.1255 75.3176 71.6776 73.2462 82.3449 73.0962C98.2932 72.9578 112.975 76.996 125.512 87.4914C134.071 94.5585 141.066 103.321 146.054 113.223C147.443 115.99 149.007 118.693 150.12 121.569C151.188 124.224 151.934 126.997 152.344 129.828C152.891 134.07 150.523 136.882 146.278 137.416C143.317 137.817 140.333 138.04 137.344 138.084C123.152 138.149 108.958 138.115 94.7664 138.115V138.156ZM141.393 127.803C141.448 127.352 141.444 126.896 141.38 126.446C136.859 114.734 130.612 104.149 120.962 95.8573C113.517 89.4607 105.165 84.8575 95.2448 83.6091C83.8133 82.1713 72.4861 82.4726 61.3128 85.6133C40.1742 91.5548 23.3084 103.251 11.7589 122.106C10.4448 124.251 9.40164 126.56 8.1932 128.862C8.56047 129.063 8.94368 129.233 9.33882 129.371C13.2935 130.238 17.2371 129.728 21.2255 129.506C29.5141 129.042 37.8254 128.843 46.1283 128.8C73.2919 128.661 100.456 128.671 127.62 128.542C132.141 128.518 136.655 128.068 141.395 127.803H141.393Z" fill="black"/>
<path d="M79.2766 0.453541C90.2116 0.187825 99.3475 5.39469 106.284 14.8577C107.919 17.0888 109.892 19.1602 111.086 21.6072C113.754 27.0767 115.965 32.6955 114.546 39.0792C113.215 45.0736 111.479 50.8459 107.61 55.7593C100.729 64.4873 91.9568 69.8834 80.7457 71.2249C70.6542 72.4332 61.0588 70.9417 52.0998 66.2047C42.8725 61.3263 37.6225 53.4318 35.7165 43.2887C32.8478 28.0194 40.8551 14.325 53.4892 7.04399C61.1347 2.63671 69.3906 0.415397 79.2766 0.453541ZM103.237 31.4757C103.738 27.6263 102.194 24.5522 99.8007 21.7508C98.8671 20.6576 98.023 19.4847 97.0512 18.4277C93.5335 14.6016 89.5225 11.5747 84.1869 10.7737C76.7068 9.53875 69.0276 10.543 62.1201 13.6597C53.486 17.6209 47.0451 23.6599 45.5611 33.7015C43.8301 45.4157 49.8897 55.8989 60.6665 59.3596C67.1242 61.3733 73.943 61.965 80.6524 61.0937C89.8239 60.0463 100.62 50.6408 102.078 40.9871C102.555 37.8295 102.855 34.6449 103.237 31.4725V31.4757Z" fill="black"/>
</g>
<defs>
<clipPath id="clip0_8_2722">
<rect width="153" height="139" fill="white"/>
</clipPath>
</defs>
</svg>
