<svg width="153" height="143" viewBox="0 0 153 143" fill="none" xmlns="http://www.w3.org/2000/svg">
<g clip-path="url(#clip0_8_2738)">
<path d="M83.5665 0.117188C99.9595 0.465588 112.027 7.69993 119.405 22.427C123.332 30.2634 126.958 38.2519 130.895 46.0831C132.493 49.2395 134.336 52.2658 136.405 55.1339C139.538 59.4974 137.555 65.8714 132.359 67.0356C129.218 67.6862 126.042 68.1484 122.845 68.4188C115.695 69.1338 108.533 69.7331 101.376 70.3792C101.158 70.4221 100.936 70.4377 100.714 70.426C96.473 69.7162 92.8049 71.4692 88.952 72.8537C83.0764 74.9025 76.8138 75.5883 70.6361 74.8583C63.1157 74.0868 56.0926 72.1283 49.6205 68.1549C48.6675 67.5699 47.3138 67.5991 46.1326 67.436C39.9867 66.591 34.0353 68.1783 28.0106 68.8939C26.0277 69.1136 24.0318 69.1942 22.0377 69.1364C18.0681 69.0506 15.2558 64.971 17.5301 61.3362C22.8617 52.8153 25.8854 43.1972 30.3892 34.2851C35.6625 23.8493 43.0694 15.3084 52.9574 9.02678C59.7401 4.7492 67.3712 2.00604 75.3201 0.98872C78.0559 0.616271 80.8164 0.403188 83.5665 0.117188ZM45.8999 39.0639C44.2791 48.4362 50.3881 58.9025 59.5998 62.2877C65.3362 64.3794 71.4406 65.2656 77.5334 64.8921C87.2476 64.3598 94.4457 59.4925 99.614 51.4618C101.464 48.533 102.441 45.1347 102.429 41.6677C91.9141 38.1577 82.4903 33.5479 77.9645 21.9369C69.8762 33.3295 58.1846 36.8415 45.8999 39.0639Z" fill="black"/>
<path d="M94.9948 141.958C80.6913 141.958 66.3871 141.89 52.084 141.981C40.5649 142.055 29.0471 142.381 17.5293 142.466C14.5408 142.452 11.5574 142.213 8.60468 141.751C1.76893 140.76 -0.974694 136.706 1.29113 130.165C2.84552 125.776 4.87721 121.571 7.34949 117.626C17.7574 100.834 32.8928 89.8349 51.0733 82.8442C60.1692 79.2666 69.7933 77.2256 79.5555 76.8031C92.0548 76.3279 104.07 77.8483 115.215 83.957C125.121 89.3864 133.115 96.9199 139.759 106.019C144.514 112.534 147.793 119.827 151.13 127.084C151.911 129.046 152.392 131.115 152.557 133.221C153.123 137.788 150.754 140.773 146.182 141.25C142.773 141.606 139.339 141.881 135.915 141.9C122.277 141.972 108.638 141.929 95 141.929L94.9948 141.958ZM8.54834 132.743C8.89479 132.894 9.24974 133.024 9.61149 133.132C13.5662 134.023 17.5131 133.475 21.4995 133.251C29.567 132.796 37.6553 132.59 45.7371 132.548C72.4578 132.41 99.1796 132.419 125.9 132.299C130.768 132.277 135.634 131.919 140.499 131.684C140.873 131.608 141.231 131.471 141.559 131.277C141.606 130.864 141.712 130.617 141.644 130.436C137.101 118.281 130.6 107.418 120.61 98.9453C114.803 94.0203 108.396 90.0514 100.906 88.2353C89.6476 85.5436 77.9282 85.4422 66.6256 87.9382C46.1637 92.2932 29.1008 102.334 16.3992 119.258C13.2808 123.412 10.3727 127.729 8.54834 132.739V132.743Z" fill="black"/>
</g>
<defs>
<clipPath id="clip0_8_2738">
<rect width="153" height="143" fill="white"/>
</clipPath>
</defs>
</svg>
