<svg width="112" height="146" viewBox="0 0 112 146" fill="none" xmlns="http://www.w3.org/2000/svg">
<g clip-path="url(#clip0_6_2177)">
<path d="M28.9106 123.902C31.0418 127.758 33.2465 131.744 36.8937 134.535C46.4205 141.82 56.0804 145.422 66.2137 145.422C69.141 145.415 72.061 145.126 74.9332 144.56C89.0346 141.815 98.6099 134.56 104.206 122.379C106.339 117.769 107.868 112.903 108.755 107.902C110.452 98.1805 111.811 89.402 111.267 80.401C111.034 76.463 110.266 72.5755 108.987 68.8442C107.022 63.207 101.271 60.1484 95.3131 61.57C93.9906 61.9476 92.7206 62.4917 91.5352 63.1892C91.0699 63.4353 90.5908 63.6893 90.1044 63.9263C87.7101 58.583 83.3632 55.9242 76.8352 55.81C76.8641 55.6656 76.8917 55.5271 76.9186 55.3945C77.0151 54.9121 77.0984 54.496 77.2074 54.0963C77.7187 52.2172 78.2444 50.342 78.7701 48.4669C79.8603 44.5787 80.9872 40.5587 81.9665 36.5707C83.4846 30.3926 85.1097 23.1933 85.1825 15.9224C85.2141 12.6623 85.2482 8.96517 83.7425 5.53449C82.5985 2.92686 80.8671 1.21187 78.736 0.575224C76.6357 -0.0509223 74.3031 0.414432 71.981 1.92335C68.8607 3.87019 66.3089 6.6057 64.584 9.85385C62.5901 13.6278 60.8115 17.5114 59.256 21.4861C57.0415 27.3525 54.9181 33.3658 52.8651 39.1764C51.9291 41.8272 50.9885 44.477 50.0429 47.126C49.8099 47.7764 49.5485 48.4196 49.2452 49.1646L49.0485 49.6535L49.0446 49.6443C48.9078 49.3924 48.8032 49.1243 48.7335 48.8462C47.4005 41.4198 44.714 34.3182 42.1162 27.4496C40.8521 24.1069 39.5447 20.6506 38.4118 17.2055C36.8005 12.302 32.6021 9.85779 27.4512 10.818C25.7757 11.1329 24.1841 11.7935 22.778 12.7575C21.3719 13.7215 20.1819 14.9679 19.2841 16.4172C18.2914 18.013 17.637 19.7956 17.3616 21.6546C17.0861 23.5137 17.1954 25.4095 17.6827 27.2245C19.338 33.5089 21.0656 39.8872 22.7367 46.0548C24.2626 51.6908 25.8411 57.5191 27.3598 63.2588C28.0083 65.7076 28.5458 68.2194 29.1142 70.8782C29.3386 71.9283 29.5705 73.0106 29.8173 74.133L29.1247 73.6735C28.3916 73.1891 27.862 72.8387 27.3035 72.5059C21.0092 68.7576 14.6399 67.4731 8.37126 68.6919C6.6865 68.9623 5.10099 69.6659 3.76982 70.7331C2.43864 71.801 1.40754 73.1957 0.777512 74.7814C0.182589 76.463 0.0280998 78.2692 0.328526 80.0275C0.628951 81.7859 1.37413 83.4385 2.49367 84.8273C3.56627 86.1518 4.77335 87.3615 6.09519 88.4372C11.636 93.2501 15.6777 98.3531 18.4547 104.038C21.4739 110.222 24.735 116.442 28.1453 122.523C28.4018 122.983 28.6568 123.442 28.9106 123.902ZM33.473 89.0194C35.2319 88.7804 36.2231 87.389 36.1916 85.2008C36.1212 76.0803 34.8886 67.0058 32.5234 58.1971C30.4533 50.5973 28.6239 42.7922 26.8557 35.2443C26.3529 33.1002 25.8482 30.9562 25.3415 28.8122C24.8604 26.9965 24.62 25.1255 24.6262 23.2471C24.6686 21.7785 25.1136 20.3497 25.9125 19.1167C26.7093 17.9957 27.5868 17.4273 28.4446 17.4516C29.3169 17.4838 30.1623 18.1349 30.8896 19.336C31.9526 21.1608 32.8841 23.0592 33.6771 25.0166C37.4676 34.1121 40.3637 43.5549 42.3249 53.2115C42.8014 55.4641 43.3639 57.7337 43.9074 59.9291C44.3668 61.7945 44.8474 63.7228 45.2687 65.6281C45.42 66.4308 45.4983 67.2453 45.503 68.0625C45.5214 68.5593 45.5403 69.0739 45.5915 69.5786C45.7936 71.6008 46.8105 72.7875 48.4546 72.92C50.1913 73.0579 51.5834 71.7911 51.9286 69.7657C52.0176 69.2977 52.0498 68.8199 52.0244 68.3441C51.6496 62.9844 53.2471 58.1282 55.2135 52.7889L56.4448 49.4415C59.504 41.1264 62.6669 32.527 65.9308 24.1312C67.4969 20.1878 69.2972 16.3413 71.322 12.6124C72.7239 9.97593 74.3917 8.31146 76.553 7.39718C77.8388 9.59919 77.7292 11.7743 77.6137 14.0728L77.5999 14.3485C77.2645 21.1297 75.8094 27.6761 73.7275 35.4169C72.0991 41.471 70.3145 47.5939 68.5903 53.5154C67.5868 56.9599 66.5826 60.407 65.6027 63.8554C65.0712 65.5884 64.6997 67.3661 64.4929 69.1671C64.279 71.4807 65.0449 72.8065 66.834 73.2206C69.1416 73.7556 70.8672 72.817 71.7033 70.5822C72.0446 69.6712 72.3649 68.751 72.6846 67.8315C73.1289 66.5536 73.5883 65.2324 74.1003 63.9591C75.3624 60.8264 77.1161 60.0998 80.3617 61.3659C81.4874 61.7435 82.4916 62.4152 83.2706 63.3112C84.0497 64.2072 84.5748 65.2951 84.7927 66.4623C85.0736 68.0953 85.2331 69.746 85.2705 71.4026L85.321 72.4258C85.409 74.0667 85.6853 75.8644 87.8657 76.3737C89.8557 76.839 90.8303 75.5251 91.6599 74.1422C91.8568 73.814 92.0472 73.4858 92.2395 73.1576C92.9109 71.9342 93.6762 70.7653 94.5288 69.6607C95.9616 67.9102 97.5939 67.0504 99.1337 67.2421C100.655 67.4311 102.014 68.6447 102.959 70.655C105.312 75.8526 106.18 81.6001 105.468 87.2604C104.641 95.0754 103.41 102.74 102.429 108.544C101.498 114.057 99.1067 119.578 95.321 124.961C91.8588 129.884 86.723 133.365 79.6227 135.604C66.5996 139.71 54.3912 137.561 42.3014 129.041C41.1227 128.254 40.0953 127.262 39.2685 126.11C37.1768 123.073 35.2424 119.932 33.473 116.696C31.7941 113.537 30.1669 110.279 28.5943 107.129C27.1136 104.164 25.5825 101.098 24.0092 98.1156C20.8594 92.093 16.5627 86.7445 11.3609 82.37C9.97147 81.2877 8.72384 80.0341 7.64791 78.6394C7.35734 78.304 7.14732 77.9069 7.03357 77.4777C6.91983 77.0491 6.90532 76.5995 6.99157 76.1643C7.22129 75.357 7.99065 74.658 9.21537 74.1422C10.3933 73.6479 11.6592 73.3972 12.9367 73.4064C13.7217 73.4103 14.5045 73.4878 15.2746 73.6394C21.2709 74.7827 25.2321 77.093 27.7387 80.911C28.4542 82.135 29.0026 83.4497 29.3695 84.8195C29.5008 85.2421 29.638 85.6642 29.7804 86.0783C30.5024 88.1674 31.8466 89.2373 33.473 89.0194Z" fill="black"/>
</g>
<defs>
<clipPath id="clip0_6_2177">
<rect width="111.577" height="145.707" fill="white"/>
</clipPath>
</defs>
</svg>
