<svg width="160" height="100" viewBox="0 0 160 100" fill="none" xmlns="http://www.w3.org/2000/svg">
<g clip-path="url(#clip0_8_2986)">
<path d="M99.0037 37.3757C100.375 36.4174 101.453 35.6336 102.561 34.8945C113.754 27.4326 125.837 25.9327 138.577 29.8406C154.028 34.5793 160.379 49.8196 159.055 62.1056C157.935 72.5213 152.814 80.9336 145.29 87.9472C142.363 90.6756 138.599 92.1852 134.756 92.9577C127.745 94.3669 120.682 95.6356 113.582 96.4501C95.4904 98.5261 77.2862 98.425 59.1128 98.7164C50.5686 98.8536 42.0481 98.6954 33.7047 96.5498C31.2106 95.9099 28.7344 95.1879 26.3145 94.3222C12.8543 89.5054 5.29128 79.4536 1.95052 66.0275C-1.18546 53.4259 -0.445184 40.8715 5.71389 29.3541C14.6723 12.6017 28.5799 1.75583 47.8192 0.198995C65.1314 -1.20163 79.609 5.4841 90.2981 19.577C94.282 24.827 97.0058 30.6817 99.0037 37.3757ZM63.2989 88.7381C67.6741 88.5609 72.0532 88.4559 76.4257 88.1933C90.9918 87.3184 105.548 86.2355 120.123 85.5536C125.503 85.2917 130.754 83.8064 135.474 81.2106C143.753 76.7855 147.851 69.7529 148.324 60.5359C148.849 50.2833 143.376 41.9277 134.129 39.4139C123.528 36.5319 113.618 38.1015 105.063 45.3915C102.512 47.5659 100.318 50.1584 97.9333 52.5317C97.1968 53.3692 96.3508 54.1029 95.4169 54.7122C93.0219 56.0334 90.4202 55.0401 89.2512 52.565C88.9401 51.9071 88.7727 51.1909 88.7596 50.4633C88.7465 49.7358 88.8876 49.0137 89.1744 48.345C90.5311 44.6898 90.0086 41.0821 88.7918 37.4834C86.9928 32.3981 84.2972 27.6764 80.8317 23.5426C70.0271 10.1848 48.7296 5.94531 34.1005 14.143C13.6136 25.6289 6.0748 43.9664 11.1456 65.0598C13.5531 75.0791 19.4811 82.3578 29.6465 85.5188C32.7478 86.481 35.9071 87.2456 39.1051 87.8074C47.117 89.2205 55.2102 88.9462 63.2982 88.7374L63.2989 88.7381Z" fill="black"/>
</g>
<defs>
<clipPath id="clip0_8_2986">
<rect width="159.49" height="99.107" fill="white"/>
</clipPath>
</defs>
</svg>
