<svg width="159" height="145" viewBox="0 0 159 145" fill="none" xmlns="http://www.w3.org/2000/svg">
<g clip-path="url(#clip0_6_2179)">
<path d="M139.654 98.0346L139.412 97.4439C136.955 91.3924 134.414 85.1342 131.419 79.22C122.566 61.7384 113.441 44.0278 104.617 26.9007C102.026 21.871 99.4351 16.8412 96.8465 11.8115C95.992 10.0888 95.0337 8.41997 93.9764 6.81411C91.3976 3.03033 88.0142 1.19262 83.9095 1.35671C80.3088 1.20444 77.1971 2.55908 74.321 3.96299L71.8926 5.149C60.1886 10.8591 48.0864 16.7662 36.2579 22.7251C32.1171 24.8116 27.8161 27.2748 24.4137 31.1354C22.8988 32.7324 21.8294 34.6989 21.3122 36.8386C20.7949 38.9783 20.848 41.2161 21.4661 43.3288L21.5855 43.8007C21.7723 44.6454 22.0279 45.4734 22.3495 46.2764C23.4469 48.8112 24.5562 51.3405 25.6772 53.8644C27.0719 57.026 28.5139 60.2965 29.8948 63.5244C33.9296 73.1646 38.4868 82.5771 43.5465 91.7212C46.7888 97.4891 49.4129 102.268 51.8052 106.763C53.4868 109.923 55.1428 113.098 56.7988 116.272C59.6099 121.661 62.5161 127.232 65.5097 132.642C67.2083 135.572 69.2548 138.287 71.6051 140.727C72.6146 141.86 73.8563 142.761 75.2458 143.37C76.6353 143.98 78.1403 144.282 79.6571 144.256C80.57 144.254 81.481 144.166 82.3782 143.994C87.5968 143.009 92.3388 140.802 96.2887 138.769C105.578 133.989 114.675 129.126 123.33 124.314C127.155 122.186 130.897 119.77 134.518 117.433C135.46 116.824 136.404 116.217 137.348 115.611C140.801 113.403 142.198 110.042 141.501 105.621C141.174 103.03 140.555 100.485 139.654 98.0346ZM135.638 108.101C135.713 109.457 135.083 110.536 133.713 111.401C132.471 112.188 131.233 112.981 129.996 113.776C126.671 115.914 123.235 118.123 119.736 120.077C110.064 125.489 102.146 129.719 94.825 133.388C91.5151 134.943 88.0976 136.259 84.5999 137.326C83.9436 137.545 83.2873 137.764 82.6309 137.983C79.9196 138.896 77.4524 138.105 75.4959 135.695C74.3998 134.346 73.3405 132.947 72.2194 131.466C71.7718 130.876 71.3117 130.268 70.8319 129.641C77.1242 126.069 83.3739 122.383 89.4207 118.816C103.806 110.331 117.398 102.313 132.157 95.3042C133.827 99.2383 135.385 103.504 135.638 108.099V108.101ZM129.711 89.7542C115.173 96.716 101.257 105.113 87.7976 113.229C81.5329 117.009 75.0574 120.915 68.58 124.642C68.3674 124.27 68.1679 123.925 67.9782 123.599C67.5141 122.798 67.1131 122.106 66.7521 121.4L64.8697 117.718C61.1653 110.478 57.3363 102.991 53.6057 95.6107L51.0427 90.5398C44.667 77.929 38.0748 64.8889 31.6932 52.0128C30.693 49.8715 29.8354 47.6665 29.1262 45.412C28.8453 44.5844 28.5643 43.7567 28.2729 42.9363C27.081 39.6152 27.9304 36.7412 30.7284 34.6239C33.5416 32.4304 36.5365 30.4806 39.6808 28.7956C49.0132 23.9584 58.5768 19.1815 67.8259 14.5622L72.1321 12.4108C75.5339 10.7102 78.1652 9.49722 80.6645 8.47792C81.7928 7.9795 83.0077 7.7041 84.2409 7.66676C86.5066 7.66676 88.2708 8.88485 89.7463 11.3881C93.1546 17.1718 96.3097 22.9193 99.1208 28.4693C106.253 42.5484 113.429 56.9025 120.367 70.7834L126.438 82.9217C127.209 84.4628 127.943 86.0144 128.72 87.6572C129.04 88.3431 129.37 89.0395 129.711 89.7542Z" fill="black"/>
<path d="M45.274 117.172C44.158 116.964 43.023 116.879 41.8886 116.916C40.6849 116.947 39.4602 117.036 38.2787 117.122C36.0442 117.346 33.7947 117.384 31.5538 117.234C20.6882 116.175 13.4849 111.16 10.1442 102.326C4.95912 88.6084 7.06522 75.8754 16.4115 64.4853C16.5342 64.3357 16.6629 64.1887 16.7916 64.041C17.216 63.5972 17.5775 63.0972 17.8659 62.555C18.063 62.2077 18.1572 61.8115 18.1375 61.4127C18.1179 61.0138 17.9853 60.6288 17.7551 60.3026C17.5248 59.9763 17.2064 59.7223 16.8372 59.5702C16.468 59.418 16.0631 59.374 15.6699 59.4434C14.8181 59.5127 14.0062 59.8341 13.3379 60.3668C12.9494 60.7114 12.5504 61.0513 12.1526 61.3926C10.6096 62.6042 9.2228 64.0026 8.02426 65.5558C0.99354 75.5519 -1.34183 86.6151 1.08268 98.4384C3.71985 111.303 11.2966 119.649 23.6017 123.254C26.5098 124.029 29.4696 124.593 32.4584 124.945C33.7927 125.134 35.1723 125.33 36.5152 125.561L36.8349 125.616L36.9116 125.253C37.2969 125.257 37.6834 125.268 38.0693 125.279C39.1768 125.34 40.2873 125.315 41.391 125.207C42.9731 125.023 44.5229 124.625 45.9986 124.026C46.7567 123.724 47.3883 123.17 47.788 122.459C48.1876 121.748 48.3311 120.921 48.1946 120.116C48.0325 118.531 47.0225 117.513 45.274 117.172Z" fill="black"/>
<path d="M119.662 0.668946C118.486 0.576685 117.305 0.782551 116.23 1.26752C115.35 1.72105 114.383 2.88999 114.406 3.7767C114.429 4.62994 115.781 5.62491 116.646 5.85331C117.713 6.11028 118.795 6.30017 119.886 6.42176C120.789 6.54187 121.723 6.66521 122.616 6.86867C129.613 8.4662 136.933 10.6137 143.065 15.4667C146.982 18.4291 149.656 22.7417 150.571 27.5663C151.783 33.7208 151.233 39.0227 148.888 43.7778C147.722 46.1406 146.405 48.4832 145.132 50.7489C144.452 51.9578 143.771 53.1668 143.109 54.3856C142.918 54.7387 142.716 55.0898 142.519 55.441C141.842 56.5437 141.278 57.7115 140.834 58.9268C140.36 60.3799 139.712 62.3706 141.844 64.3173L142.046 64.5024L142.269 64.3422C142.794 63.9655 143.335 63.617 143.86 63.2803C145.006 62.6237 146.055 61.8093 146.975 60.8611C150.53 56.8128 154.878 51.2916 156.96 44.4749C160.926 31.4892 158.485 20.6209 149.703 12.1699C142.402 5.14317 132.576 1.38239 119.662 0.668946Z" fill="black"/>
<path d="M125.462 46.3887C125.258 46.6173 125.135 46.9062 125.112 47.2111C125.12 47.4638 125.112 47.7395 125.105 48.0191C125.079 48.976 125.053 49.9658 125.595 50.4902C126.15 50.911 126.839 51.1177 127.534 51.0723C128.03 51.0775 128.523 50.9955 128.99 50.8302C131.356 49.931 132.962 48.0289 133.762 45.1771C135.009 40.7409 134.228 35.485 131.678 31.1165C130.296 28.7796 128.455 26.7473 126.266 25.1426C124.076 23.5378 121.584 22.3939 118.94 21.78C117.249 21.4614 115.517 21.4253 113.814 21.673C113.424 21.6771 113.041 21.7697 112.693 21.944C112.345 22.1182 112.04 22.3693 111.803 22.6785C111.357 23.3394 111.31 24.28 111.665 25.4745L111.724 25.6715L111.927 25.7089C112.393 25.7942 112.838 25.8696 113.268 25.9425C114.135 26.0895 114.954 26.2293 115.748 26.4177C120.779 27.6135 124.683 30.6589 126.458 34.7715C127.234 36.5981 127.563 38.5836 127.417 40.5629C127.272 42.5422 126.655 44.4581 125.62 46.1512C125.575 46.2306 125.518 46.3093 125.462 46.3887Z" fill="black"/>
<path d="M27.9805 79.8666C28.478 78.9517 29.0963 77.8123 27.6884 76.8081C26.9179 76.258 25.6976 75.9358 24.2662 77.5235C23.3132 78.5204 22.5364 79.6723 21.969 80.9292C18.9498 88.2395 19.7579 95.2144 24.3779 101.66C27.1535 105.532 30.9313 107.48 35.9293 107.613H35.9681L36.0069 107.605C36.1841 107.568 36.4099 107.531 36.6698 107.487C37.6503 107.344 38.6179 107.124 39.5636 106.828C39.9231 106.718 40.2562 106.536 40.5423 106.292C40.8284 106.049 41.0614 105.749 41.2266 105.411C41.3441 105.147 41.404 104.861 41.4024 104.572C41.4008 104.283 41.3378 103.998 41.2175 103.734C40.6881 102.847 39.8509 102.185 38.8652 101.874C38.3723 101.732 37.8553 101.692 37.3463 101.757C36.956 101.803 36.561 101.787 36.1755 101.711L35.5914 101.553C33.9885 101.194 32.4354 100.641 30.9667 99.9052C28.4995 98.5217 27.3838 95.9377 26.6178 93.5919C25.8809 91.3932 25.6072 89.0652 25.8137 86.7555C26.0203 84.4459 26.7029 82.2038 27.8183 80.1705L27.9805 79.8666Z" fill="black"/>
<path d="M107.187 113.153C105.845 113.123 104.544 113.622 103.567 114.543C103.201 114.853 102.901 115.232 102.683 115.659C102.465 116.085 102.334 116.551 102.297 117.029C102.28 117.475 102.353 117.92 102.511 118.338C102.67 118.755 102.911 119.136 103.221 119.458C103.642 119.869 104.14 120.192 104.686 120.409C105.233 120.627 105.817 120.733 106.405 120.722H106.495C107.612 120.744 108.691 120.323 109.497 119.55C109.867 119.18 110.158 118.74 110.355 118.255C110.55 117.77 110.647 117.25 110.637 116.727C110.639 115.8 110.28 114.909 109.636 114.241C108.992 113.574 108.114 113.184 107.187 113.153Z" fill="black"/>
</g>
<defs>
<clipPath id="clip0_6_2179">
<rect width="158.834" height="144.394" fill="white"/>
</clipPath>
</defs>
</svg>
