<svg width="178" height="96" viewBox="0 0 178 96" fill="none" xmlns="http://www.w3.org/2000/svg">
<g clip-path="url(#clip0_8_2750)">
<path d="M176.375 27.2275C176.284 25.8082 176.193 24.389 176.104 22.9698C175.932 19.4826 174.684 16.1336 172.531 13.3832C170.44 10.727 167.781 9.6919 164.841 10.3905L164.05 10.5767C161.684 11.1313 159.238 11.7047 157.116 12.8755C153.378 14.9388 149.699 17.2351 146.141 19.4548C144.582 20.4278 143.022 21.4007 141.451 22.3594C141.284 22.4589 141.112 22.549 140.935 22.6293C140.762 21.8419 140.597 21.0601 140.434 20.2856C139.94 17.9465 139.473 15.7379 138.822 13.5292C138.179 11.2214 136.979 9.10663 135.326 7.37052C133.673 5.63444 131.619 4.3301 129.343 3.5724C126.378 2.51186 123.224 1.46636 120.127 1.33728C106.323 0.763229 93.6722 0.432337 81.4539 0.327256C65.9029 0.197526 50.0542 0.339626 36.4196 0.487518C30.1467 0.552383 22.7448 0.707406 15.4104 1.32557C8.82963 1.87887 4.60177 5.56062 3.18361 11.9731C3.12515 12.2391 3.04068 12.4998 2.95753 12.7612C2.87437 13.0226 2.78998 13.2886 2.72502 13.5565C0.646185 22.1576 0.0211867 31.6332 0.822184 42.5227C1.48351 51.5175 2.44628 60.6362 3.37981 69.4555C3.59635 71.5072 3.8129 73.5595 4.02944 75.6132C4.45561 79.7048 4.97796 83.3639 7.06587 86.7051C10.8337 92.7323 16.0958 95.7861 22.7221 95.7861C22.8448 95.7861 22.9683 95.7861 23.0917 95.7829C27.2377 95.7128 31.4506 95.5935 35.5251 95.478C39.9705 95.3528 44.5679 95.2231 49.0881 95.1537C59.1791 95.0039 69.27 94.8728 79.3614 94.7593C89.3918 94.6387 99.4234 94.5083 109.455 94.3701C113.727 94.3053 118.278 94.2028 122.834 93.7014C127.446 93.1935 132.235 92.382 135.676 88.59C138.14 85.8748 141.171 82.5336 142.108 77.6674L143.013 78.1118C144.074 78.6307 144.999 79.0847 145.937 79.52L147.074 80.0486C151.202 81.968 155.47 83.9535 160.154 84.6397C165.786 85.4661 169.867 84.7617 172.633 82.4908C175.214 80.371 176.588 76.8955 176.834 71.8666C177.202 64.3236 177.525 56.2401 177.396 48.2332C177.276 41.2226 176.818 34.1083 176.375 27.2275ZM168.053 71.7342C167.971 72.5593 167.801 73.3727 167.549 74.1621C167.477 74.4216 167.406 74.6733 167.34 74.9288C163.335 75.5879 160.017 74.273 157.023 72.7422C153.574 70.9779 150.198 69.0378 146.933 67.1639C145.673 66.44 144.427 65.7245 143.196 65.0298L141.995 30.911C149.913 25.9436 157.167 21.5879 165.289 18.5866C166.822 19.8444 167.067 21.4915 167.182 23.0787C168.152 36.4324 169.127 54.0327 168.053 71.7342ZM14.5801 77.5468C14.1761 74.6746 13.759 71.7057 13.4835 68.7803C13.2172 65.947 13.0185 63.0549 12.8262 60.2579C12.7333 58.9074 12.6403 57.5562 12.5396 56.2064C12.4617 55.1595 12.3929 54.1127 12.324 53.0651C12.1623 50.6126 11.9946 48.0755 11.7114 45.5866C10.666 37.0557 10.7407 28.4251 11.9335 19.9134C12.0595 19.0513 12.2466 18.1736 12.4279 17.3239C12.6091 16.4742 12.7982 15.5875 12.9295 14.7008C13.2731 12.3877 14.6276 11.159 17.323 10.7192C20.1372 10.258 22.9007 9.82488 25.5376 9.42985C31.451 8.61781 37.417 8.24769 43.3857 8.32261C44.2748 8.32261 45.1566 8.32676 46.031 8.335C54.6887 8.40764 63.4906 8.36289 72.0023 8.31878C80.1007 8.27727 88.4738 8.23446 96.7067 8.29348C104.112 8.34602 111.722 8.92254 118.269 9.46092C120.63 9.75839 122.949 10.3243 125.182 11.1475L125.832 11.3591C127.071 11.6984 128.188 12.3795 129.057 13.3246C129.925 14.2697 130.509 15.4403 130.742 16.7019C131.417 19.9237 131.923 23.1789 132.257 26.4538C132.849 33.0583 133.353 39.6781 133.797 45.5192C133.959 47.6539 134.114 49.6876 134.263 51.5797L133.947 57.867C133.683 63.136 133.458 67.6341 133.206 72.1312C133.17 73.3001 133.001 74.4605 132.704 75.5911C131.384 80.0337 128.945 82.4726 125.25 83.0473C121.987 83.5422 118.694 83.8205 115.395 83.8802C103.421 84.1345 91.2458 84.3628 79.4699 84.5833C68.8899 84.7812 58.3108 84.9861 47.7317 85.1989C43.6221 85.2839 39.4495 85.4473 35.414 85.6056C32.7453 85.7094 30.0772 85.8145 27.4079 85.8981C26.4438 85.9273 25.446 85.8878 24.4845 85.8475C23.9154 85.8242 23.347 85.8002 22.7785 85.7898C17.9257 85.7022 15.1817 81.8532 14.6847 78.3135L14.5801 77.5468Z" fill="black"/>
</g>
<defs>
<clipPath id="clip0_8_2750">
<rect width="178" height="96" fill="white"/>
</clipPath>
</defs>
</svg>
