<svg width="153" height="128" viewBox="0 0 153 128" fill="none" xmlns="http://www.w3.org/2000/svg">
<g clip-path="url(#clip0_8_2755)">
<path d="M0.628479 94.0292C0.548428 97.532 2.30309 100.064 5.44314 100.975C6.76115 101.344 8.1235 101.528 9.49152 101.521H9.53923C15.1557 101.506 22.5005 101.191 29.6618 98.8886C30.5281 99.4383 31.3889 99.9887 32.244 100.54C34.2524 101.829 36.3284 103.162 38.4091 104.402C52.529 112.821 67.8079 119.389 82.5843 125.743L85.4132 126.959C85.6075 127.049 85.8077 127.125 86.0123 127.188C86.3641 127.296 86.7295 127.353 87.0982 127.357C87.581 127.37 88.0562 127.234 88.4603 126.967C88.7979 126.713 89.0723 126.384 89.264 126.006C89.4558 125.628 89.5591 125.211 89.5668 124.786C89.5946 124.498 89.6062 124.201 89.6172 123.911C89.6146 123.401 89.674 122.892 89.7947 122.396C92.7985 112.603 94.9096 102.556 96.1019 92.3775L96.5403 88.4992C97.7294 78.0448 98.9586 67.235 99.0812 56.4767C99.2407 42.4857 98.3433 28.3264 97.4757 14.633C97.3253 12.2601 97.1761 9.88647 97.029 7.51185C96.947 6.13207 96.7178 4.76517 96.3459 3.43466C96.2278 2.86363 95.987 2.32548 95.641 1.85789C95.2943 1.3903 94.8508 1.00457 94.3408 0.727814C93.7876 0.501868 93.1923 0.39816 92.5958 0.423719C91.9993 0.449277 91.4151 0.603522 90.8825 0.875969C89.9574 1.27231 88.9961 1.64069 88.0665 1.99741C87.2712 2.30149 86.4758 2.6062 85.6902 2.93173C84.4436 3.44828 83.1931 3.9545 81.942 4.46195C78.6496 5.79653 75.239 7.17723 71.9621 8.71713C68.1623 10.502 64.2227 12.596 59.9194 15.1203C49.2319 21.3871 38.7977 27.5357 28.6332 33.8565C26.9484 34.9896 24.972 35.6038 22.9457 35.6238C18.8012 35.6959 14.6695 35.9837 10.6741 36.2618C2.94271 36.8005 1.64068 39.5944 1.51157 46.073C1.49026 47.134 1.49736 48.1957 1.50511 49.2567C1.51285 50.3054 1.51995 51.3554 1.49864 52.4041C1.24429 65.1961 0.955138 79.6964 0.628479 94.0292ZM27.6457 66.3422C27.6644 67.2142 27.679 68.0861 27.6951 68.96C27.8087 75.4374 27.9271 82.1284 29.3661 89.1398H11.0796C11.0738 89.1035 11.0679 89.0664 11.0615 89.03C10.9625 88.5018 10.9009 87.9671 10.8769 87.4297C10.7878 82.8971 10.7038 78.3638 10.625 73.8299C10.5179 67.8171 10.404 61.8044 10.2835 55.7912C10.2506 54.2539 10.1487 52.7017 10.0493 51.1995C9.98474 50.1774 9.91437 49.1547 9.86789 48.1314C9.83174 47.3393 9.84071 46.542 9.8504 45.6993C9.8504 45.5044 9.85492 45.3095 9.85621 45.1146L28.0245 44.0185C27.9787 46.0866 27.916 48.1626 27.8533 50.2437C27.6939 55.5131 27.5314 60.9625 27.6457 66.3422ZM84.0917 116.831C84.1563 117.537 84.2209 118.242 84.3009 119.156L84.3074 119.23C72.558 109.041 59.2429 102.098 46.3476 95.3774C43.4935 93.8895 40.5459 92.3535 37.6835 90.8142C37.7293 88.1717 37.7927 85.5714 37.8553 83.0011C38.0044 76.8467 38.1456 71.0334 38.0526 65.133C37.9597 59.2089 37.6364 53.3982 37.2942 47.2464C37.1509 44.6805 37.0069 42.0906 36.879 39.4656C37.2393 39.1987 37.6133 38.9512 37.9996 38.7243C42.1222 36.3735 46.2477 34.0273 50.3755 31.6856C59.9177 26.2648 69.7846 20.6601 79.443 15.0645C81.7406 13.6722 83.96 12.1538 86.0924 10.5163C86.8244 9.97633 87.5772 9.42334 88.3519 8.8639C88.3015 9.63905 88.2505 10.3954 88.2014 11.138C88.0355 13.6116 87.8787 15.9462 87.7909 18.2807C87.7153 20.2694 87.6379 22.2587 87.5591 24.2487C87.2473 32.2262 86.9251 40.4754 86.7592 48.5946C86.4429 64.0723 85.4358 80.8069 83.6799 99.7567C83.1395 105.594 83.5869 111.392 84.0917 116.831Z" fill="black"/>
<path d="M135.045 11.7037C133.337 9.10471 131.311 8.98841 129.985 9.75446C128.913 10.3704 127.956 11.7999 129.49 15.1123C130.276 16.8077 131.065 18.5013 131.859 20.1933C132.712 22.0165 133.562 23.8405 134.409 25.6654C138.349 34.0427 140.772 43.0599 141.564 52.2934C142.438 62.8678 140.838 73.501 136.892 83.3408C132.653 94.1311 127.558 104.561 121.656 114.529C121.204 115.283 120.878 116.817 121.463 117.619C121.745 117.914 122.087 118.144 122.464 118.295C122.842 118.447 123.248 118.515 123.654 118.497C123.954 118.504 124.254 118.452 124.535 118.344C126.484 117.517 128.208 116.73 129.566 115.463C132.377 112.913 134.982 110.143 137.359 107.181C141.454 101.892 144.345 95.7639 146.954 89.9396C150.456 82.0666 152.407 73.5842 152.7 64.9635V64.9504C152.816 51.0859 149.539 37.4058 143.159 25.1171C140.647 20.3603 137.775 15.8601 135.045 11.7037Z" fill="black"/>
<path d="M106.165 102.399C106.715 102.714 107.34 102.871 107.973 102.854C108.499 102.86 109.023 102.763 109.514 102.568C112.9 101.18 115.903 98.9907 118.269 96.1845C122.631 90.8858 125.688 85.7002 127.615 80.3307C129.075 76.2847 129.782 72.0022 129.7 67.6976C129.468 55.7086 125.326 44.5668 117.038 33.6283C116.4 32.7957 115.669 32.0395 114.86 31.3744C113.144 29.9495 110.818 29.7169 109.451 30.8364C108.133 31.9162 107.832 33.9623 108.701 35.9291C109.115 36.8654 109.613 37.7672 110.094 38.6392C110.306 39.0238 110.518 39.4085 110.724 39.797C115.792 49.3671 118.041 57.6084 117.803 65.7334V65.7614C117.86 72.6877 116.109 79.5074 112.724 85.5384C111.052 88.6416 109.448 91.8409 107.896 94.9389C107.243 96.2436 106.588 97.5457 105.931 98.8465C105.472 99.7503 104.618 101.433 106.165 102.399Z" fill="black"/>
</g>
<defs>
<clipPath id="clip0_8_2755">
<rect width="153" height="128" fill="white"/>
</clipPath>
</defs>
</svg>
