<svg width="131" height="127" viewBox="0 0 131 127" fill="none" xmlns="http://www.w3.org/2000/svg">
<g clip-path="url(#clip0_8_2752)">
<path d="M97.6096 7.10114C97.5268 5.72541 97.2954 4.36255 96.92 3.03588C96.8008 2.46633 96.5577 1.92951 96.2077 1.46312C95.8577 0.996729 95.4099 0.611966 94.8951 0.335756C94.3365 0.11014 93.7356 0.00661411 93.1334 0.0321041C92.5312 0.057594 91.9414 0.211522 91.4043 0.483509C90.471 0.878761 89.5 1.24614 88.5608 1.60122C87.7585 1.90576 86.9562 2.20907 86.1624 2.53369C84.9039 3.04882 83.6408 3.55357 82.3771 4.05963C79.0499 5.39118 75.61 6.76809 72.3025 8.3031C68.4696 10.0818 64.493 12.1701 60.1453 14.6887C49.3655 20.9324 38.8386 27.0596 28.5593 33.3733C26.8584 34.5037 24.8627 35.1162 22.8169 35.1357C18.6346 35.2083 14.4628 35.4947 10.4285 35.772C2.62325 36.3098 1.30943 39.0954 1.17778 45.553C1.15693 46.6117 1.16408 47.6699 1.1719 48.728C1.17907 49.7744 1.18753 50.8209 1.16537 51.8667C0.904676 64.6315 0.615877 79.0969 0.286096 93.3805C0.20528 96.8723 1.97737 99.3968 5.14679 100.305C6.49322 100.676 7.88487 100.861 9.28207 100.851C14.9522 100.836 22.3671 100.52 29.5976 98.2246C30.4748 98.7741 31.3468 99.3249 32.2136 99.8769C34.2379 101.161 36.3306 102.488 38.4279 103.724C52.6848 112.119 68.1105 118.67 83.0288 125.005L85.8821 126.218C86.0783 126.308 86.2803 126.384 86.4876 126.446C86.8428 126.554 87.2123 126.611 87.5838 126.616C88.0713 126.627 88.551 126.492 88.959 126.227C89.2992 125.972 89.5762 125.644 89.7698 125.267C89.9633 124.891 90.0676 124.475 90.0754 124.052C90.1035 123.764 90.1152 123.472 90.1269 123.18C90.1237 122.671 90.1836 122.163 90.3055 121.668C93.3381 111.902 95.4699 101.882 96.6737 91.7314L97.1175 87.8514C98.3174 77.4297 99.5563 66.6547 99.6808 55.9294C99.8424 41.9788 98.9365 27.8592 98.0599 14.2047C97.9087 11.8379 97.7582 9.47008 97.6096 7.10114ZM84.5474 116.119C84.6125 116.837 84.6777 117.555 84.7637 118.493V118.51C72.906 108.35 59.4597 101.426 46.4412 94.7237C43.5598 93.2399 40.5846 91.7087 37.6947 90.1744C37.741 87.5339 37.8043 84.9369 37.8682 82.3691C38.0181 76.2355 38.1607 70.4427 38.0675 64.5602C37.973 58.6515 37.6466 52.8567 37.3019 46.7218C37.1572 44.1637 37.0118 41.581 36.8821 38.9632C37.2461 38.6969 37.6239 38.4499 38.014 38.2233C42.1852 35.8746 46.3581 33.5303 50.5327 31.1903C60.1576 25.7889 70.1106 20.2042 79.8535 14.6291C82.1731 13.2409 84.4138 11.7267 86.5665 10.0934C87.3062 9.55561 88.0655 9.00484 88.8443 8.44695C88.7941 9.2245 88.7433 9.98521 88.6924 10.7291C88.5256 13.1913 88.3666 15.5155 88.2786 17.8371C88.2023 19.8221 88.1248 21.8076 88.0453 23.7938C87.7305 31.7469 87.4053 39.9721 87.2371 48.0671C86.9178 63.5066 85.901 80.1958 84.1276 99.0883C83.5861 104.914 84.0377 110.697 84.5474 116.119ZM27.5615 65.7677C27.5804 66.6353 27.5954 67.5036 27.611 68.3731C27.727 74.8352 27.8457 81.5086 29.2991 88.5033H10.8378C10.8319 88.4664 10.8261 88.4294 10.8196 88.3925C10.7194 87.8657 10.657 87.3324 10.6331 86.7966C10.5419 82.2427 10.4564 77.6875 10.3765 73.1317C10.2691 67.1705 10.155 61.209 10.0342 55.2477C10.0009 53.716 9.89732 52.1667 9.79695 50.6693C9.73178 49.6494 9.66139 48.6295 9.61381 47.609C9.57796 46.8191 9.58657 46.024 9.59634 45.1829C9.59634 44.9885 9.60077 44.7942 9.60208 44.5998L27.9447 43.5067C27.8984 45.5705 27.8346 47.6414 27.772 49.7181C27.6117 54.9711 27.4462 60.4049 27.5615 65.7677Z" fill="black"/>
<path d="M115.611 30.8967C113.877 29.4751 111.53 29.2425 110.149 30.3595C108.819 31.4371 108.514 33.4769 109.393 35.4383C109.811 36.372 110.314 37.2714 110.799 38.141C111.013 38.5245 111.227 38.9081 111.435 39.2962C116.551 48.84 118.821 57.0581 118.58 65.1608V65.1887C118.638 72.0959 116.87 78.8969 113.453 84.9112C111.768 88.0014 110.151 91.1887 108.587 94.2717C107.924 95.5766 107.261 96.8803 106.595 98.1827C106.131 99.084 105.27 100.762 106.831 101.727C107.387 102.041 108.018 102.197 108.656 102.181C109.188 102.187 109.716 102.09 110.211 101.896C113.63 100.511 116.662 98.3272 119.05 95.5293C123.453 90.2452 126.541 85.0739 128.485 79.7191C129.96 75.6836 130.673 71.4129 130.59 67.1202C130.356 55.1648 126.175 44.0529 117.807 33.1452C117.163 32.3149 116.427 31.5604 115.611 30.8967Z" fill="black"/>
</g>
<defs>
<clipPath id="clip0_8_2752">
<rect width="131" height="127" fill="white"/>
</clipPath>
</defs>
</svg>
