<svg width="161" height="117" viewBox="0 0 161 117" fill="none" xmlns="http://www.w3.org/2000/svg">
<g clip-path="url(#clip0_6_1879)">
<path d="M83.3421 116.315C66.0923 115.958 52.6137 115.847 39.1509 115.336C31.4258 115.043 23.708 114.253 16.0236 113.372C13.1454 112.931 10.3366 112.119 7.66711 110.956C3.57619 109.34 1.32211 106.099 0.70253 101.768C0.456066 100.216 0.336081 98.6466 0.343594 97.0754C0.575062 85.9642 0.841503 74.8537 1.14255 63.7434C1.39458 54.2046 1.67305 44.6678 1.97803 35.1329C2.1559 29.7621 2.29631 24.3835 2.71833 19.0297C3.29 11.7785 6.69442 6.50407 13.9726 4.32765C15.9843 3.62926 18.0613 3.13588 20.1722 2.8549C28.3278 2.14737 36.4922 1.28483 44.6669 1.10237C65.77 0.63112 86.8772 0.351834 107.988 0.264323C118.658 0.105855 129.325 0.745612 139.9 2.17821C143.226 2.67078 146.517 3.36819 149.757 4.26661C151.739 4.74234 153.55 5.76038 154.986 7.20664C156.423 8.65295 157.428 10.4705 157.89 12.4558C158.532 14.6015 158.928 16.813 159.072 19.048C159.418 30.9421 159.757 42.8402 159.815 54.7383C159.881 68.2175 159.244 81.6797 156.46 94.9154C155.541 99.2734 153.925 103.489 152.547 107.744C151.672 110.448 149.477 111.771 146.959 112.673C142.044 114.434 136.917 115.058 131.754 115.251C114.365 115.901 96.9776 116.788 83.3421 116.315ZM150.009 73.3934C149.533 73.2982 149.05 73.2359 148.565 73.205C140.605 73.6257 132.648 74.3352 124.685 74.412C116.612 74.4895 108.519 74.2066 100.472 73.5916C93.6565 73.0711 90.5435 69.9161 88.8987 63.3154C87.5965 58.0857 87.8118 52.8048 88.671 47.5961C89.7782 40.8804 92.5788 38.1756 99.3995 36.88C107.663 35.2355 116.072 34.4288 124.498 34.4719C131.91 34.571 139.323 34.6898 146.735 34.7725C147.913 34.7856 149.092 34.6511 150.695 34.5606C150.339 28.4796 150.073 22.7787 149.645 17.0908C149.457 14.6158 148.143 12.9795 145.465 12.6093C140.249 11.8873 135.065 10.5977 129.833 10.3778C116.374 9.81007 102.895 9.46622 89.4244 9.4649C73.8134 9.4649 58.2018 9.88089 42.5928 10.2084C37.8888 10.3069 33.1829 10.6121 28.494 11.0098C25.0345 11.3032 21.5906 11.8363 18.158 12.3777C13.1698 13.1653 10.6042 16.6137 9.59996 21.1312C8.8413 24.6417 8.45426 28.2222 8.44494 31.8137C8.29464 53.4886 8.29195 75.1642 8.24404 96.8398C8.24404 97.6274 8.24404 98.415 8.30967 99.1967C8.52298 101.649 9.56721 103.471 12.1263 104.128C13.5354 104.489 14.9117 105.026 16.3399 105.255C25.4518 106.72 34.6437 107.099 43.8567 107.296C73.6172 107.932 103.376 108.754 133.119 106.657C136.933 106.389 140.676 105.954 144.028 104.413C148.016 94.3483 149.448 84.0825 150.009 73.3934ZM150.434 41.8526C140.052 42.1269 129.956 42.1906 119.88 42.7347C113.514 43.0792 107.167 44.0217 100.847 44.9314C97.6418 45.3908 96.8601 46.2093 96.675 49.2455C96.4098 53.2703 96.4059 57.3079 96.6632 61.3332C96.9106 64.9195 97.8118 65.5798 101.489 66.2203C102.813 66.4506 104.151 66.6233 105.489 66.7558C116.712 67.8716 127.925 67.0374 139.139 66.6246C142.911 66.4841 146.674 66.0995 150.329 65.837C151.391 61.3254 151.4 45.7912 150.432 41.8526H150.434Z" fill="black"/>
<path d="M112.003 47.8812C116.317 47.028 119.026 51.0002 119.007 54.5398C118.985 58.5507 116.074 61.4761 111.984 61.5575C107.676 61.6428 103.898 58.3551 103.998 54.6075C104.102 50.6688 107.424 47.8786 112.003 47.8812Z" fill="black"/>
</g>
<defs>
<clipPath id="clip0_6_1879">
<rect width="160.146" height="116.828" fill="white"/>
</clipPath>
</defs>
</svg>
