<svg width="160" height="145" viewBox="0 0 160 145" fill="none" xmlns="http://www.w3.org/2000/svg">
<path d="M146.161 122.484C146.901 122.528 147.674 122.597 148.449 122.616C151.486 122.681 153.943 123.311 154.514 127.016C154.796 128.845 155.987 130.515 156.531 132.327C157.45 135.378 156.233 137.639 153.25 138.663C152.4 138.957 151.51 139.123 150.612 139.159C133.447 139.743 116.281 140.261 99.117 140.871C86.5514 141.318 73.9897 141.89 61.4255 142.387C54.5818 142.657 47.7362 142.887 40.8919 143.135C33.1472 143.416 25.4096 143.769 17.6648 143.943C14.1875 144.05 10.7068 143.926 7.24609 143.569C2.69375 143.06 1.27341 141.229 1.25963 136.657C1.25569 135.646 1.27868 134.635 1.27737 133.624C1.27015 129.814 2.37738 128.472 6.28391 128.078C8.38418 127.866 10.5179 128.04 12.9943 128.04C13.4098 109.089 13.8167 90.5214 14.2348 71.4122C12.7908 72.4361 11.5799 73.3379 10.3263 74.1754C5.63676 77.3113 1.58257 75.4224 1.08573 69.8376C0.837629 67.0423 0.975454 64.1983 0.552772 61.4364C-0.300467 55.8438 2.25923 52.0507 6.4657 48.8852C15.0795 42.4052 23.5305 35.7048 32.2598 29.3784C46.1004 19.3936 60.4555 10.1415 75.2657 1.66096C77.9566 0.112658 79.6756 0.129367 82.2117 1.60744C96.8605 10.1444 111.391 18.8468 125.422 28.3945C134.883 34.8326 144.702 40.7514 154.424 46.7996C156.911 48.3465 158.502 50.0155 158.281 53.2466C158.113 55.6751 158.653 58.1568 158.889 60.6134C159.126 63.08 159.359 65.5117 158.089 67.8463C156.529 70.7119 154.524 71.8014 151.433 70.7624C149.145 69.9938 147.016 68.752 144.948 67.7833C145.349 85.8549 145.752 103.992 146.161 122.484ZM138.047 123.141C138.047 121.051 138.061 119.278 138.047 117.505C137.886 99.8802 137.69 82.2555 137.605 64.6296C137.596 62.8857 136.887 62.092 135.541 61.2217C124.989 54.3997 114.496 47.4872 103.98 40.6127C95.9232 35.3428 87.8542 30.0729 79.7727 24.803C77.6403 26.3933 75.7034 27.9127 73.6905 29.3317C56.7132 41.2879 39.7189 53.22 22.7074 65.1277C20.5737 66.615 19.5445 68.1364 19.6227 70.8707C20.088 87.1479 20.3577 103.425 20.7128 119.702C20.766 122.131 20.9255 124.562 21.0508 127.316L27.6753 126.851C27.6753 124.034 27.6549 121.686 27.6792 119.339C27.8334 104.19 27.1417 89.0237 28.669 73.9023C29.0365 70.2623 29.3634 69.7976 32.9627 69.0454C33.8396 68.8623 34.7348 68.7533 35.6268 68.6569C40.6458 68.1141 45.6576 67.4663 50.6891 67.0764C62.2118 66.1831 73.7357 65.2603 85.2748 64.6479C96.2593 64.0651 107.262 63.9136 118.258 63.4667C124.565 63.2114 127.492 65.4894 127.932 71.7554C128.545 80.4847 129.07 89.2278 129.366 97.9742C129.608 105.153 129.448 112.348 129.497 119.531C129.506 120.821 129.663 122.11 129.767 123.628L138.047 123.141ZM121.184 71.1155C109.041 69.8737 43.7949 72.6638 34.0096 74.8822C33.9531 75.7965 33.8311 76.7777 33.8429 77.7563C34.0341 93.3588 34.2406 108.961 34.4625 124.563C34.5511 125.273 34.7048 125.973 34.9219 126.655L44.1717 126.099C44.1717 120.6 44.2373 115.549 44.1454 110.5C44.1008 107.958 45.3183 106.483 47.5918 105.775C48.7736 105.433 49.9807 105.186 51.2017 105.036C53.1746 104.753 55.1588 104.555 57.1895 104.314C57.1895 103.277 57.1665 102.513 57.1934 101.754C57.3535 97.1596 57.3942 92.5607 57.7441 87.9827C57.9357 85.4788 58.8664 84.533 61.3717 84.3473C68.7495 83.7992 76.1366 83.3851 83.5329 83.1048C86.1103 83.0097 87.1487 84.1116 87.6645 86.6326C87.9789 88.1685 88.1496 89.7358 88.3498 91.2926C88.7869 94.6958 89.203 98.1008 89.6263 101.517C90.1764 101.577 90.7303 101.598 91.2836 101.583C97.0738 100.865 98.8426 102.926 99.8337 108.127C100.854 113.485 101.687 118.879 102.676 124.694L122.029 123.955C121.742 106.099 121.465 88.7224 121.184 71.1142V71.1155ZM79.4446 7.23276C78.2678 7.99673 77.3509 8.63916 76.39 9.20886C54.1447 22.4013 33.222 37.5208 12.42 52.8351C9.34571 55.0988 8.1794 57.4408 8.78651 60.9797C9.01229 62.2924 9.16916 63.6228 9.42053 65.3831C12.529 63.1437 15.3276 61.1167 18.1367 59.1043C36.4704 45.9526 54.8078 32.8042 73.149 19.6587C73.9674 19.0719 74.8489 18.5703 75.7159 18.0537C76.4694 17.5507 77.3653 17.306 78.2704 17.356C79.1748 17.4061 80.0386 17.7485 80.7316 18.3316C82.4486 19.5944 84.1755 20.8558 85.9824 21.9828C106.549 34.807 126.539 48.5532 147.642 60.5183C148.569 61.0433 149.526 61.5172 150.719 62.1466C150.949 59.8842 151.004 58.0772 151.341 56.328C151.786 54.0197 150.941 52.6433 148.986 51.3766C133.162 41.1187 117.458 30.672 101.592 20.4784C94.4261 15.8736 86.9734 11.715 79.4446 7.23151V7.23276ZM6.44535 138.172C8.31881 138.439 10.206 138.599 12.0977 138.649C22.7475 138.301 33.3939 137.851 44.0424 137.454C52.5623 137.137 61.0855 136.884 69.6041 136.535C78.4581 136.172 87.3055 135.624 96.1615 135.344C110.848 134.879 125.56 135.049 140.187 133.304C142.524 133.025 144.878 132.887 147.215 132.605C148.143 132.492 149.446 132.645 149.413 131.146C149.375 129.562 148.141 129.938 147.168 129.969C146.944 129.977 146.721 130.018 146.497 130.027C138.872 130.324 131.249 130.72 123.621 130.893C105.105 131.315 86.5855 131.594 68.0696 132.001C47.9856 132.443 27.9017 132.964 7.81776 133.456C7.28284 133.469 6.74858 133.54 6.00101 133.601C6.14737 135.093 6.27339 136.392 6.44535 138.173V138.172ZM67.1494 125.519V109.228C61.2423 109.543 55.5978 109.228 49.9665 110.449C50.592 115.765 51.1761 120.731 51.7386 125.519H67.1494ZM92.8851 124.641C92.3908 119.21 91.9229 114.064 91.4602 108.972H74.8161C75.5709 114.551 76.281 119.797 77.0207 125.261L92.8851 124.641ZM81.8435 88.3188C75.6903 88.2059 69.6507 87.9506 63.2796 88.7533C63.8881 93.8917 64.461 98.7171 65.0334 103.567L81.8435 101.873V88.3188Z" fill="black"/>
</svg>
