<svg width="112" height="158" viewBox="0 0 112 158" fill="none" xmlns="http://www.w3.org/2000/svg">
<g clip-path="url(#clip0_6_1937)">
<path d="M55.1809 156.339C45.8695 155.967 36.5539 155.67 27.249 155.18C24.3534 154.926 21.4757 154.498 18.6314 153.899C16.7136 153.563 15.8164 152.036 15.4042 150.375C14.8369 147.975 14.3918 145.548 14.071 143.103C12.2891 130.555 10.4869 118.01 8.81454 105.447C7.06737 92.3267 5.5084 79.1816 3.77632 66.0594C2.06984 53.1394 0.709466 40.2031 1.00547 27.1387C0.983717 26.1309 0.84649 25.1288 0.596548 24.1523C-0.139207 20.6802 0.904864 17.7482 3.17382 15.1327C5.96392 11.9167 9.48342 9.76462 13.3525 8.14281C19.3768 5.66147 25.6761 3.90936 32.1164 2.9237C46.1155 0.681646 60.2076 -0.525339 74.3846 0.283925C83.4657 0.802432 92.4464 2.15697 101.042 5.36974C101.881 5.68413 102.728 5.99065 103.54 6.36739C110.038 9.38329 112.044 14.086 110.727 21.1928C108.582 32.7654 106.663 44.3793 104.969 56.0345C102.667 71.7965 100.677 87.6044 98.5168 103.385C97.1162 113.614 95.7654 123.851 94.164 134.048C93.3304 139.352 92.0591 144.592 90.8587 149.832C90.4439 151.225 89.8781 152.567 89.1725 153.836C87.9609 156.364 85.8909 157.294 83.1342 157.183C73.8201 156.813 64.5027 156.527 55.1873 156.205L55.1809 156.339ZM91.0825 85.0204C87.0637 85.5008 83.0784 86.2254 79.0715 86.4033C71.689 86.7315 64.5979 84.9167 57.6178 82.7435C51.0623 80.703 44.4541 78.9624 37.5508 78.7773C30.1197 78.5804 23.0575 80.0014 16.5919 83.8679C15.3238 84.6259 14.7003 85.3925 14.9366 87.0839C17.4346 104.954 19.8168 122.841 22.2544 140.719C22.5826 143.127 23.042 145.517 23.4443 147.939C24.4163 148.056 25.072 148.201 25.729 148.206C43.7941 148.408 61.8592 148.595 79.9247 148.768C80.7386 148.721 81.5472 148.61 82.3433 148.433C85.2805 127.099 88.1861 106.019 91.0805 85.0224L91.0825 85.0204ZM100.117 32.0538C95.3191 33.0823 90.2397 34.5408 85.058 35.2136C67.5127 37.4917 49.8867 37.4765 32.26 36.324C24.7509 35.833 17.2602 35.0829 10.1192 32.4195C9.45106 32.1707 8.74077 32.0355 7.69063 31.75C8.86416 47.7411 11.5122 63.123 13.8861 78.7314C23.3499 73.3724 33.0223 71.6042 43.2297 73.2641C48.3091 74.0897 53.3567 75.2213 58.3363 76.5274C64.6529 78.184 70.9592 80.09 77.5389 79.408C82.6236 78.883 87.6354 77.6497 92.4555 76.7722C95.0678 61.5123 97.6032 46.7165 100.115 32.0552L100.117 32.0538ZM52.27 30.8823C57.7655 30.8823 63.2846 31.2065 68.7499 30.8002C75.6658 30.2863 82.5612 29.3314 89.4193 28.2642C93.2254 27.7576 96.834 26.2678 99.8892 23.9416C104.661 20.1644 104.271 15.3094 98.7269 13.0325C93.3265 10.8673 87.8159 8.9887 82.218 7.40443C78.616 6.35432 75.0134 5.25173 71.116 5.23466C56.5196 5.10156 41.9623 6.7647 27.7721 10.1867C22.6992 11.4305 17.7852 13.4684 12.967 15.5378C10.8864 16.4305 9.08673 18.1684 7.42816 19.7968C5.94484 21.2526 6.11554 23.1363 7.61725 24.55C8.42592 25.3277 9.38667 25.9294 10.4394 26.3175C13.3722 27.4172 16.3765 28.3163 19.4313 29.0085C30.2734 31.1213 41.2836 31.0359 52.2713 30.8836L52.27 30.8823Z" fill="black"/>
</g>
<defs>
<clipPath id="clip0_6_1937">
<rect width="111.577" height="157.521" fill="white"/>
</clipPath>
</defs>
</svg>
