<svg width="118" height="151" viewBox="0 0 118 151" fill="none" xmlns="http://www.w3.org/2000/svg">
<g clip-path="url(#clip0_6_2189)">
<path d="M107.679 59.5338C107.589 59.4772 107.506 59.4085 107.434 59.3297C107.381 59.2792 107.322 59.2234 107.254 59.1623C107.385 58.8604 107.525 58.5552 107.665 58.2435C108.105 57.3474 108.47 56.4166 108.758 55.4606C108.921 54.862 109.095 54.2634 109.269 53.6629C109.995 51.4786 110.47 49.2187 110.683 46.9269C110.767 45.6633 110.577 44.3966 110.128 43.2125C109.68 42.0284 108.982 40.9545 108.082 40.0636C107.097 39.119 105.924 38.3937 104.639 37.935C103.354 37.4764 101.986 37.2951 100.626 37.4028C100.128 37.4362 99.6288 37.4867 99.0821 37.5419L98.6751 37.5826L98.8858 35.8912C99.0939 34.2195 99.2888 32.6535 99.4811 31.0868C99.9406 27.3398 98.4927 25.0328 97.1971 23.7569C96.1108 22.7573 94.8139 22.0143 93.4028 21.5826C91.991 21.1509 90.5005 21.0417 89.0408 21.2628C86.3288 21.6375 83.7717 22.7933 80.9954 24.9014C80.4152 25.3418 79.8501 25.8204 79.1957 26.3737L78.6326 26.8502C78.6326 26.5168 78.6371 26.2011 78.6404 25.8998C78.6503 24.8969 78.6581 24.0305 78.6214 23.1707C78.4101 18.3631 75.7335 15.678 70.8766 15.4069C69.5344 15.2717 68.1791 15.4397 66.9104 15.8986C65.6417 16.3574 64.4923 17.0953 63.5471 18.0578C61.8853 19.7728 60.3405 21.648 58.8467 23.4608C58.3683 24.041 57.8902 24.6213 57.4071 25.1975C48.454 35.8893 40.8152 47.7755 33.4268 59.2615L31.9243 61.5974C31.4951 62.2649 31.0448 62.9192 30.5985 63.5697C30.4476 63.7902 30.296 64.0094 30.1464 64.226L30.1194 64.2109C30.0945 64.1965 30.0721 64.1846 30.0537 64.1735C29.9546 63.8899 29.8633 63.6037 29.7714 63.3169C29.6671 62.9887 29.5622 62.6639 29.4487 62.3403C26.8082 54.864 22.0976 49.4951 15.4508 46.3834C13.9444 45.6245 12.2669 45.2691 10.5821 45.3521C8.89738 45.435 7.26277 45.9534 5.83813 46.8567C4.38614 47.8376 3.20875 49.1733 2.418 50.737C1.62724 52.3007 1.24948 54.0405 1.32004 55.7914C1.41631 57.5907 1.70625 59.3745 2.18501 61.1117L2.34781 61.8048C3.85739 68.2841 4.29371 73.2907 3.76208 78.0406C3.37484 81.4982 2.89454 85.007 2.42986 88.3989C1.98158 91.674 1.51739 95.0601 1.13737 98.4008C0.621776 102.644 0.332693 106.911 0.271118 111.185C0.294668 113.577 0.709331 115.949 1.49854 118.208C6.64883 133.536 16.7151 143.791 31.4177 148.687C35.4376 150.059 39.6528 150.771 43.8999 150.796C48.171 150.795 52.4065 150.02 56.4011 148.508C63.0962 145.981 69.1609 142.027 74.174 136.921C80.7427 130.292 87.6769 123.159 93.8858 115.267C99.2343 108.47 105.89 100.011 110.598 90.8037C113.172 85.9285 115.25 80.8064 116.797 75.515C118.877 68.0459 115.384 61.9203 107.679 59.5338ZM9.96045 59.1774C9.50357 57.6997 9.20677 56.1773 9.07465 54.6362C9.00902 53.3236 9.32596 52.3344 9.99346 51.7699C10.6925 51.1792 11.7893 51.0343 13.1617 51.3414C15.1825 51.8423 17.0016 52.9492 18.3756 54.5135C22.647 59.0337 24.4486 63.1115 24.2169 67.7249C24.0822 69.1131 23.7796 70.4789 23.3157 71.7942C23.2087 72.1427 23.1024 72.4899 23.0019 72.8365C22.5701 74.3257 22.3563 76.0007 24.0457 77.1322C25.4824 78.0944 27.0976 77.9074 28.4786 76.619C29.3739 75.7395 30.1667 74.7609 30.8414 73.7022C33.3631 69.9506 35.8749 66.1917 38.3769 62.4257C43.5022 54.7327 48.802 46.7779 54.1472 39.0476C57.1309 34.7328 60.5184 30.5808 63.7955 26.5686C64.5109 25.6934 65.2246 24.8166 65.937 23.938C66.8782 22.75 68.0714 21.786 69.4307 21.1158C70.5957 20.5821 71.6248 20.5631 72.3324 21.06C73.0399 21.5568 73.3608 22.5183 73.2558 23.7779C73.1475 25.8665 72.6717 27.9196 71.8506 29.8431C69.9 33.9936 67.7373 38.0414 65.372 41.9702C61.8501 47.8064 58.1803 53.6885 54.6328 59.377C52.9543 62.0666 51.2795 64.7576 49.608 67.4499C49.2936 67.9474 49.0402 68.4804 48.8533 69.0383C48.5853 69.6913 48.571 70.4212 48.8132 71.0847C49.0554 71.7476 49.5368 72.297 50.1627 72.6238C50.4546 72.8247 50.7847 72.9638 51.1325 73.0314C51.4803 73.0997 51.8382 73.0951 52.1843 73.0189C52.5304 72.9428 52.8571 72.7965 53.1441 72.5884C53.4311 72.3803 53.672 72.1158 53.8524 71.8106C54.2895 71.1884 54.7386 70.5728 55.1875 69.9578C56.2961 68.4974 57.3223 66.9767 58.2612 65.4021C63.2494 56.6531 69.5501 48.6275 75.108 41.5462C77.2083 38.8723 79.579 35.9804 82.5732 32.4454C84.3282 30.306 86.693 28.7511 89.3525 27.987C90.7715 27.5879 91.7199 27.6115 92.2476 28.0618C92.7753 28.512 92.9499 29.4486 92.7786 30.9234C92.203 35.8873 89.9826 40.2972 87.8876 43.9556C82.0291 54.1879 74.942 64.348 65.5819 75.9318C65.1145 76.5107 64.6066 77.0791 64.1157 77.6284C63.4272 78.3996 62.7145 79.1964 62.0903 80.047C61.2502 81.1904 60.9744 82.3015 61.2888 83.2631C61.611 84.2476 62.528 84.9965 63.9391 85.4355C66.1247 86.1162 68.0616 85.473 69.6932 83.5249L70.5084 82.5542C72.3816 80.3266 74.3152 78.0255 75.9914 75.5885C80.0378 69.6966 84.0342 63.6281 87.8994 57.7584L89.6249 55.1383C90.2602 54.1755 90.8378 53.1588 91.397 52.1762C91.7731 51.5133 92.1498 50.8505 92.5449 50.2001C94.2344 47.4717 96.7757 45.376 99.7758 44.2372C101.341 43.6058 102.523 43.7443 103.498 44.6724C104.473 45.6004 104.385 46.707 103.969 48.1076C102.455 53.3742 100.068 58.3496 96.9083 62.8267C93.6509 67.3469 90.2622 71.8887 86.9838 76.2816C84.8107 79.1944 82.6447 82.1125 80.486 85.0352C79.5153 86.3564 78.5886 87.7393 77.6927 89.0769C76.9911 90.1271 76.2651 91.2094 75.5235 92.2529C74.2567 94.0388 74.2968 95.788 75.6469 97.6021C76.4312 98.6555 77.2746 99.193 78.1547 99.2003H78.1738C78.6581 99.1615 79.1261 99.0099 79.5416 98.7579C79.957 98.5052 80.3075 98.1593 80.5648 97.7478C81.5421 96.4837 82.4636 95.15 83.3562 93.8603C83.9837 92.9526 84.6124 92.0449 85.2596 91.1536C86.441 89.5383 87.6165 87.9198 88.7861 86.2967C92.4865 81.1877 96.313 75.9042 100.279 70.8727C101.413 69.434 103.537 68.5677 105.41 67.803L105.824 67.6337C106.105 67.511 106.411 67.4552 106.717 67.4722C107.024 67.4886 107.322 67.5773 107.588 67.7302C107.919 67.9435 108.197 68.231 108.401 68.569C108.604 68.907 108.727 69.2877 108.76 69.6808C109.103 72.3167 108.986 74.2995 108.4 75.7441C105.868 81.9944 103.317 87.5877 100.603 92.843C96.9726 99.8743 92.1262 106.14 87.4308 111.863C86.126 113.453 84.9531 115.187 83.8209 116.864C82.6211 118.707 81.3229 120.484 79.9328 122.188C76.7003 126.004 72.9802 129.644 69.6991 132.855C65.3418 137.052 60.1297 140.258 54.419 142.254C48.7647 144.297 42.377 144.217 35.4336 142.013C22.4033 137.878 13.3841 128.857 8.62565 115.202C8.11469 113.505 7.81836 111.751 7.74399 109.981C7.6882 109.298 7.63465 108.653 7.55523 108.073C7.68059 106.929 7.79059 105.862 7.89626 104.847C8.11614 102.718 8.3072 100.878 8.5612 99.0178C8.913 96.4476 9.29046 93.8813 9.66785 91.315C10.2448 87.3941 10.8408 83.3392 11.3317 79.3382C12.1973 72.593 11.7312 65.7434 9.96045 59.1774Z" fill="black"/>
<path d="M51.775 16.6867C51.5781 16.9781 51.3766 17.2682 51.1731 17.5583C50.4246 18.5377 49.8013 19.6066 49.3173 20.7402C49.1706 21.2671 49.1555 21.822 49.2737 22.356C49.3917 22.89 49.6392 23.3868 49.9944 23.8027C50.8129 24.5325 52.5495 24.2903 53.0601 24.1965C53.892 23.9614 54.6314 23.4757 55.1775 22.8057C55.6558 22.2609 56.1372 21.7175 56.6216 21.1753C58.6365 18.9038 60.719 16.5547 62.5613 14.0816C63.5858 12.7033 63.9949 11.4911 63.8137 10.3675C63.6247 9.20118 62.7892 8.11429 61.2541 7.0438C58.804 5.33011 56.1272 3.5842 53.0726 1.70642C52.8468 1.56727 52.6132 1.39267 52.3749 1.21481C51.3346 0.439013 49.9125 -0.622878 48.5789 1.13348C47.2301 2.9115 48.71 4.1316 49.7871 5.0216C49.9439 5.15286 50.0975 5.27826 50.2393 5.40296C51.3203 6.35596 52.4708 7.25245 53.687 8.20151C53.9998 8.44659 54.3203 8.69731 54.648 8.95368C54.077 8.94974 53.5261 8.94318 52.9912 8.93727C51.3234 8.91692 49.7498 8.89861 48.208 8.97343C37.2846 9.50375 27.0739 13.2357 17.8688 20.0655C13.6721 23.1951 10.2759 27.2736 7.95799 31.9676C7.76897 32.345 7.61224 32.7374 7.46128 33.1181C7.36611 33.357 7.27081 33.5959 7.16711 33.8316C6.97795 34.1832 6.86513 34.5707 6.83572 34.9689C6.80632 35.367 6.86112 35.7669 6.99659 36.1425C7.11191 36.376 7.27777 36.5808 7.48208 36.7423C7.68647 36.9037 7.92406 37.0176 8.17787 37.0758C8.29095 37.1069 8.40765 37.1221 8.52494 37.1211C9.42215 36.9802 10.262 36.5902 10.9484 35.9955C11.2961 35.6924 11.5604 35.3053 11.7163 34.8712C11.8132 34.6427 11.9296 34.4231 12.0646 34.2149C12.4847 33.617 12.8859 32.9993 13.2869 32.3803C14.1648 30.9133 15.1967 29.5442 16.3651 28.296C26.665 18.1228 38.8478 13.5329 53.5898 14.2726C53.4001 14.5188 53.2245 14.7426 53.0611 14.952C52.5491 15.6208 52.1399 16.1412 51.775 16.6867Z" fill="black"/>
</g>
<defs>
<clipPath id="clip0_6_2189">
<rect width="117.484" height="150.958" fill="white"/>
</clipPath>
</defs>
</svg>
