<svg width="118" height="151" viewBox="0 0 118 151" fill="none" xmlns="http://www.w3.org/2000/svg">
<g clip-path="url(#clip0_6_2186)">
<path d="M116.237 100.546C116.022 98.488 115.798 96.3615 115.626 94.2678C115.403 91.5531 115.009 88.8077 114.628 86.1528C113.76 80.0981 112.861 73.8373 113.956 67.5883C114.404 65.0286 114.96 62.5063 115.588 59.7076C116.113 57.3691 116.507 54.6112 115.45 51.8887C114.96 50.4787 114.162 49.1955 113.115 48.132C112.068 47.0684 110.796 46.2511 109.394 45.7395C106.542 44.7733 103.3 45.259 100.267 47.1099C94.1635 50.8366 89.9958 55.9823 87.883 62.4026C87.7334 62.8562 87.5778 63.3077 87.3888 63.8584L87.2496 64.2646L87.1098 64.0737C86.8473 63.712 86.6465 63.4416 86.4633 63.1613C85.0693 61.0335 83.6864 58.8982 82.3146 56.7555C79.308 52.087 76.1989 47.2595 72.9638 42.6323C67.9303 35.433 62.5739 28.3991 57.5181 21.8121C56.0413 19.9347 54.2939 18.2871 52.3331 16.923C49.3796 14.8372 45.8533 14.6717 42.3957 16.4576C39.0044 18.21 38.6624 21.556 38.7746 24.5962C38.7943 25.1213 38.7902 25.6463 38.7849 26.3158C38.7849 26.4759 38.785 26.644 38.7817 26.8232C38.5553 26.6263 38.346 26.4333 38.1484 26.2535C37.5781 25.6776 36.9334 25.1805 36.2313 24.7754C35.7003 24.5044 35.1692 24.2208 34.6369 23.936C32.7355 22.8083 30.6944 21.9347 28.5658 21.3375C27.1496 21.0105 25.6758 21.0252 24.2663 21.3805C22.8569 21.7358 21.5521 22.4214 20.46 23.3807C18.4037 25.2441 17.4941 28.0007 17.9003 31.1419C18.0907 32.6233 18.2718 34.1066 18.4615 35.6608L18.6933 37.5504L18.4116 37.5294C18.004 37.4998 17.6588 37.4749 17.3142 37.4421C15.8621 37.2476 14.3849 37.379 12.99 37.8268C11.5951 38.2745 10.3173 39.0274 9.24973 40.0306C8.28373 41.0331 7.55389 42.2385 7.11276 43.5588C6.67164 44.8793 6.53053 46.2815 6.69999 47.6632C6.96758 49.7787 7.46357 51.8589 8.17931 53.8676C8.3854 54.52 8.59149 55.1717 8.78117 55.8234C9.05355 56.6885 9.38244 57.5349 9.76568 58.3569C9.88382 58.6266 10.0006 58.8911 10.1095 59.1504C10.0524 59.2075 10.0073 59.2548 9.96855 59.2941C9.93744 59.3241 9.90883 59.3564 9.88264 59.3907C9.58552 59.5103 9.28091 59.6107 8.97092 59.6913C4.65613 60.7257 1.94022 63.4737 0.670208 68.0924C-0.193532 71.231 -0.0207994 74.5415 1.19868 78.2144C3.51625 85.0528 6.69435 91.5689 10.6569 97.6046C19.1719 110.712 29.053 122.878 40.1344 133.9C46.0526 139.862 51.6203 144.027 57.6514 147.004C62.5321 149.444 67.9139 150.713 73.3707 150.712C77.4551 150.685 81.5119 150.041 85.404 148.803C97.2772 145.119 106.235 137.803 112.029 127.06C114.858 121.812 117.377 116.611 117.105 110.687C116.944 107.297 116.585 103.865 116.237 100.546ZM18.3481 72.2502C20.178 74.8638 22.1463 77.4393 24.0503 79.9294C25.4339 81.7396 26.8639 83.6108 28.2277 85.4794C29.8876 87.7523 31.5155 90.1099 33.0888 92.3893C34.1015 93.8569 35.1148 95.3245 36.1432 96.7809C37.5216 98.7302 38.8115 99.7954 40.6334 98.6672C41.1424 98.3443 41.5809 97.9222 41.923 97.4261C42.2652 96.9299 42.5038 96.37 42.6246 95.7793C42.7477 95.2378 42.7588 94.6767 42.6573 94.1306C42.5557 93.5839 42.3436 93.0647 42.0339 92.6033C38.0959 86.8275 34.8102 82.1997 31.7011 78.0326C30.5262 76.4574 29.3062 74.8822 28.1261 73.3542C23.9801 67.9913 19.6927 62.4465 16.6749 56.2028C15.5988 53.8719 14.6419 51.4879 13.8075 49.0599L13.348 47.7944C12.8314 46.3859 13.0579 45.2662 14.0194 44.4681C14.9645 43.6805 16.07 43.5795 17.4982 44.144C20.498 45.2828 23.0519 47.3559 24.7833 50.0575L26.1539 52.1677C30.3919 58.6937 34.7734 65.4421 39.1545 72.033C41.1694 75.0646 43.3813 78.0313 45.521 80.9001L45.6393 81.0596C46.5191 82.2502 47.5122 83.3535 48.6047 84.3525C49.2662 84.9826 50.0959 85.4072 50.9938 85.5752C51.8917 85.7432 52.8191 85.6474 53.6637 85.2996C54.9869 84.8158 55.8367 84.0525 56.1202 83.0864C56.2372 82.5561 56.2263 82.0054 56.0878 81.4803C55.9494 80.9553 55.6875 80.4709 55.3241 80.0672C54.1775 78.5531 52.9396 77.0743 51.7418 75.6442C50.884 74.6196 49.9968 73.5596 49.1527 72.4983C42.3754 63.9765 33.7824 52.5556 27.433 39.78C26.0547 37.0135 25.3145 33.8513 24.6109 30.584C24.3542 29.3888 24.4559 28.5546 24.9134 28.1031C25.3879 27.6357 26.3166 27.5458 27.5971 27.8405C30.5089 28.5328 33.0966 30.2004 34.9299 32.5662C35.8877 33.7476 36.8503 34.925 37.8177 36.0986C41.2759 40.3221 44.8523 44.6887 48.1025 49.1714C51.5155 53.8741 54.7878 58.8006 57.9546 63.5643C59.3887 65.721 60.8222 67.8771 62.2734 70.022C62.7748 70.763 63.231 71.395 63.6681 71.9523C63.8834 72.2502 64.1569 72.501 64.4718 72.69C64.7868 72.879 65.1366 73.0024 65.5006 73.0523C65.7913 73.0812 66.0854 73.0497 66.363 72.9591C66.6413 72.8692 66.8973 72.7222 67.1158 72.5272C67.9152 71.7212 68.4239 70.6711 68.5598 69.5435C68.6654 68.8452 68.1896 68.095 67.7722 67.4321L67.6232 67.1964C65.815 64.2784 63.9993 61.3654 62.1756 58.4574C58.6412 52.8043 54.9861 46.9596 51.4813 41.1576C49.2473 37.4107 47.2248 33.5417 45.4233 29.5687C44.6555 27.7431 44.2113 25.7977 44.1106 23.8198C44.0023 22.5012 44.3528 21.4964 45.0951 20.9916C45.8505 20.479 46.9328 20.5269 48.149 21.1274C49.394 21.7904 50.4902 22.7013 51.3698 23.804C54.0391 27.0319 56.6321 30.2098 59.0198 33.6005C62.6264 38.7199 66.2212 43.9792 69.6979 49.0639C71.4168 51.579 73.1384 54.0922 74.8639 56.6038C76.1221 58.4306 77.3855 60.2537 78.6549 62.0731C80.1454 64.2171 81.632 66.3642 83.1141 68.5144C83.668 69.3217 84.199 70.1454 84.7293 70.9691C85.4053 72.0192 86.1037 73.0989 86.8414 74.1326C87.5516 75.1723 88.4048 76.1062 89.3762 76.907C89.9531 77.4064 90.6895 77.6834 91.4522 77.6874C92.2155 77.6919 92.9545 77.4228 93.5367 76.9293C94.6361 76.0655 94.961 74.7745 94.4759 73.1947C94.3322 72.7267 94.1635 72.2634 93.9948 71.8007C93.687 71.0196 93.4415 70.2156 93.261 69.3958C91.9221 62.333 97.3159 54.9164 101.724 52.278C103.526 51.1996 105.289 50.3338 107.04 51.5507C108.892 52.8377 108.53 54.816 108 56.7319C106.929 60.6115 105.706 65.7492 105.768 71.0846C105.776 71.7245 105.774 72.3651 105.773 73.0064C105.729 74.955 105.806 76.9043 106.003 78.8438C106.514 83.0293 107.132 87.2712 107.729 91.374C108.042 93.5353 108.357 95.6966 108.659 97.8592C108.809 98.9389 108.933 100.025 109.057 101.106C109.188 102.234 109.32 103.399 109.482 104.543C110.584 112.31 108.262 119.547 101.955 128.008C95.3364 136.886 85.2898 142.673 75.0779 143.49H74.7707C62.4506 143.49 55.2546 139.398 48.2678 133.26C42.9121 128.554 36.1533 122.094 31.3889 113.845C30.4945 112.399 29.4735 111.035 28.3387 109.769C27.8379 109.178 27.3202 108.563 26.8398 107.948C18.6854 97.5015 12.9097 87.199 9.18436 76.4521C8.517 74.4923 8.25735 72.4163 8.42163 70.3528C8.53058 69.1248 8.96055 68.2525 9.66283 67.8226C10.0409 67.6027 10.4726 67.4918 10.9098 67.503C11.5434 67.5226 12.1672 67.6638 12.7474 67.9191C15.0042 68.7717 16.9544 70.2799 18.3468 72.2502H18.3481Z" fill="black"/>
<path d="M60.733 21.3998L61.115 21.8495C61.8514 22.7817 62.8125 23.5113 63.9083 23.9701C64.8416 24.2982 66.5173 24.4512 67.3173 23.7784C68.082 23.1339 68.3202 21.3644 67.9737 20.4219C67.5149 19.3509 66.9084 18.3494 66.172 17.4468C65.9174 17.1022 65.6634 16.7582 65.4251 16.4084C65.0641 15.8833 64.6854 15.3655 64.2528 14.7781C64.1465 14.633 64.0356 14.4834 63.9247 14.3278C69.1945 13.7204 74.5331 14.1909 79.6158 15.7108C92.648 19.7906 101.012 25.9955 105.94 35.2381C105.985 35.3227 106.03 35.4127 106.076 35.5045C106.255 36.0134 106.602 36.446 107.061 36.7306C107.55 36.9337 108.073 37.0424 108.603 37.0509C108.898 37.0561 109.191 37.0051 109.467 36.9006C110.097 36.6473 110.483 35.5637 110.474 34.9316C110.439 34.083 110.182 33.2584 109.729 32.5405C109.274 31.8186 108.831 31.0632 108.403 30.33C107.33 28.2976 106.005 26.4087 104.459 24.7084C93.284 13.4956 79.839 8.27578 64.4877 9.19859C64.0283 9.2255 63.5532 9.22018 62.8956 9.21296L62.436 9.20778L64.9854 7.08518C65.3024 6.82265 65.6234 6.56405 65.9436 6.3061C66.6656 5.72721 67.4073 5.12862 68.0925 4.48081C68.6589 3.94524 69.9867 2.69097 68.8801 1.10394C67.7164 -0.567092 66.0716 0.483018 65.4527 0.876166L65.3476 0.941866C62.2175 2.93516 58.981 4.99601 55.8903 7.16585C53.2105 9.04888 52.7986 11.1236 54.5943 13.6958C56.474 16.3848 58.6393 18.9346 60.733 21.3998Z" fill="black"/>
</g>
<defs>
<clipPath id="clip0_6_2186">
<rect width="117.484" height="150.958" fill="white"/>
</clipPath>
</defs>
</svg>
