<svg width="124" height="104" viewBox="0 0 124 104" fill="none" xmlns="http://www.w3.org/2000/svg">
<g clip-path="url(#clip0_8_2323)">
<path d="M57.9013 20.6005C55.826 22.628 54.0755 24.1644 52.5272 25.8833C47.955 30.9996 44.2646 36.84 41.6071 43.166C34.65 59.4839 29.5469 76.4266 24.9958 93.5432C24.5948 95.0528 24.5082 96.6523 24.0448 98.1376C23.7463 99.2304 23.0987 100.196 22.2008 100.886C21.3029 101.577 20.2038 101.956 19.071 101.963C17.9393 101.999 16.8261 101.67 15.8965 101.024C14.9668 100.378 14.2705 99.4483 13.9103 98.3752C13.5988 97.5338 13.3649 96.6661 13.2119 95.7827C11.0866 84.0834 8.97349 72.3822 6.87236 60.6792C4.81865 49.2005 2.7014 37.7322 0.817715 26.2253C0.222413 22.5885 0.263642 18.8442 0.0706787 15.1457C0.0725906 14.2478 0.14424 13.3514 0.284758 12.4646C0.314646 11.7247 0.604149 11.0186 1.10262 10.4709C1.60108 9.92323 2.27654 9.56894 3.01042 9.46977C4.46749 9.18557 5.9055 10.1601 6.5323 11.9637C6.9185 13.2513 7.22547 14.5614 7.45125 15.8867C9.92958 27.3865 12.4067 38.8869 14.8824 50.3876C16.3289 57.0709 17.7971 63.7495 19.287 70.4237C19.5252 71.4968 19.8409 72.5529 20.305 74.3165C22.3488 68.1265 24.1269 62.5903 26.0053 57.0882C29.0475 48.1738 32.2944 39.3449 37.0318 31.1453C40.8387 24.5032 45.8462 18.6259 51.7994 13.8126C53.5459 12.4014 55.2313 10.9141 56.991 9.51939C60.3304 6.87238 63.8391 7.55622 65.4577 11.5054C66.5194 14.3353 67.2952 17.2648 67.773 20.2493C70.8171 36.346 73.7686 52.4605 76.7595 68.5676C76.9433 69.5521 77.1901 70.5314 77.5806 72.2917C78.0985 70.5465 78.4188 69.5291 78.7036 68.502C83.1214 52.5799 88.2678 36.9512 96.7372 22.6135C100.582 16.1046 104.845 9.91713 110.403 4.76096C112.253 3.1447 114.286 1.75231 116.461 0.612385C118.44 -0.494201 120.411 0.0754517 122.012 1.6126C123.439 2.98303 123.757 5.14027 122.61 7.22477C121.69 9.02248 120.513 10.6764 119.116 12.1348C107.63 23.3195 100.808 37.2392 95.4842 52.0436C90.3891 66.2107 86.9275 80.8385 83.3748 95.4387C83.0768 96.7488 82.6974 98.0385 82.2387 99.3013C81.8435 100.487 81.0874 101.52 80.0767 102.254C79.0653 102.989 77.8497 103.389 76.6001 103.397C75.288 103.442 73.999 103.046 72.9383 102.273C71.8777 101.5 71.1065 100.394 70.7481 99.1313C69.7866 96.1404 69.0397 93.0845 68.5113 89.9879C64.6865 67.5247 60.232 45.1555 58.3083 22.4049C58.2827 22.0688 58.1652 21.7465 57.9013 20.6005Z" fill="black"/>
</g>
<defs>
<clipPath id="clip0_8_2323">
<rect width="123.392" height="103.701" fill="white"/>
</clipPath>
</defs>
</svg>
