<svg width="186" height="186" viewBox="0 0 186 186" fill="none" xmlns="http://www.w3.org/2000/svg">
<g clip-path="url(#clip0_8_2325)">
<path d="M8.28066 182.06C10.8439 181.72 13.3775 181.186 15.8595 180.461C16.4278 180.311 16.9949 180.161 17.562 180.016C23.7828 178.422 30.453 176.695 37.0859 174.852C40.8153 173.817 43.3869 174.212 45.9715 176.218C47.7371 177.591 49.9502 178.36 52.0899 179.106C52.5598 179.269 53.0271 179.434 53.4866 179.6C67.161 184.598 81.3025 185.182 94.5632 185.055C96.1384 185.153 97.7195 185.203 99.3052 185.202C115.093 185.202 131.275 180.36 146.398 171.07C163.532 160.544 175.105 145.283 180.794 125.71C185.423 109.783 185.662 92.2338 181.527 72.0606C176.482 47.448 163.078 28.4602 141.688 15.6156C131.409 9.45788 120.239 4.92728 108.575 2.18445C100.599 0.356029 92.3638 -0.0441556 84.2488 1.00285C74.3453 2.15669 65.1247 5.11151 54.3279 9.19391C32.3019 17.5215 16.7895 33.6629 6.90241 58.5414C-1.43306 79.5185 -1.0728 102.713 8.04044 131.533C9.78761 137.059 10.0049 141.22 8.76635 145.448C7.13141 151.027 5.56146 156.72 4.04073 162.228C3.32007 164.842 2.59587 167.456 1.86822 170.07C1.73695 170.529 1.59063 170.988 1.4423 171.448C1.2454 172.05 1.04463 172.675 0.885792 173.309C0.195324 176.076 0.583084 178.483 1.97846 180.088C3.33511 181.647 5.5785 182.348 8.28066 182.06ZM18.2728 134.52C14.7535 124.983 13.477 114.612 12.2424 104.583C12.098 103.411 11.9527 102.24 11.8066 101.069C10.1533 87.9656 11.4494 75.5831 15.6591 64.2673C24.0754 41.6388 37.8671 26.7406 57.8204 18.7176C65.6006 15.5908 74.8802 12.2264 84.7214 10.9787C99.6649 9.08384 114.731 12.4738 132.135 21.6461C146.246 29.083 156.474 38.9208 163.398 51.7194C167.799 59.9743 170.685 68.9515 171.919 78.2249C173.663 90.2844 174.954 104.61 171.308 119.404C166.883 137.367 156.984 150.855 141.044 160.635C127.906 168.787 112.687 172.961 97.2279 172.65C87.7766 172.511 79.4418 172.063 71.7534 171.278C64.6616 170.665 57.7929 168.494 51.6371 164.92C49.4748 163.538 46.9713 162.784 44.4055 162.74C43.2062 162.746 42.013 162.911 40.8567 163.229C35.9217 164.551 30.8606 165.75 25.9663 166.911C23.7505 167.436 21.5354 167.965 19.3209 168.5C17.8113 168.867 16.3018 169.247 14.472 169.708L12.4084 170.226C12.9945 168.069 13.5459 165.99 14.0814 163.968C15.467 158.74 16.7763 153.803 18.3042 149.004C19.7817 144.368 20.3416 140.127 18.2728 134.52Z" fill="black"/>
<path d="M33.8475 66.0827C35.1477 69.2876 36.6906 72.3888 38.4628 75.3594C51.6552 96.2099 66.3945 114.864 82.2759 130.801C87.415 135.851 92.8902 140.548 98.664 144.859C103.441 148.663 109.36 150.748 115.466 150.776C118.616 150.753 121.745 150.256 124.747 149.303C133.744 146.528 141.483 141.502 148.506 136.485C151.428 134.399 153.089 131.799 153.314 128.967C153.54 126.107 152.238 123.191 149.546 120.538C141.13 112.239 132.108 104.316 123.612 96.9903C118.576 92.6499 115.145 92.5843 109.497 96.7192C108.783 97.2443 108.091 97.8035 107.421 98.3463C106.881 98.7841 106.342 99.2219 105.789 99.6413C100.456 103.688 99.5993 103.669 94.3571 99.3886C92.6381 98.0424 91.1063 96.4725 89.8028 94.7207L88.8839 93.4284C85.7545 89.1884 82.841 84.7929 80.1546 80.2589C74.6164 70.5228 74.9932 69.0415 84.6288 62.6475C84.7667 62.5563 84.8658 62.4173 84.9078 62.2574C86.1109 57.6887 84.1491 54.6592 81.8499 52.066C79.2856 49.1728 76.7246 46.276 74.1662 43.3759C71.231 40.0535 68.2926 36.7331 65.3523 33.4141C64.4125 32.3535 63.3833 31.348 62.4972 30.4882C60.5722 28.6268 58.4562 28.246 56.2043 29.3598C48.6485 33.1009 40.2251 38.1194 35.0302 46.9925C31.4131 53.1725 30.9484 59.445 33.6472 65.6364L33.8475 66.0827ZM73.5381 60.2622C72.3973 60.8742 71.3387 61.6289 70.3876 62.5081C67.0403 65.9002 65.7079 70.3122 66.8185 74.3086C71.8545 92.4314 79.2068 104.018 90.6599 111.879C97.0862 116.289 103.671 116.262 110.235 111.799C112.255 110.426 114.198 108.929 116.256 107.345C117.081 106.709 117.928 106.057 118.812 105.388L138.957 126.956C131.334 132.986 124.753 136.334 117.696 137.786C115.482 138.299 113.176 138.271 110.975 137.706C108.774 137.139 106.742 136.052 105.049 134.533C103.629 133.284 102.205 132.037 100.776 130.792C94.7148 125.502 88.4468 120.028 82.7721 114.195C70.8103 101.892 59.6331 87.8134 48.6007 71.1536C47.4685 69.4438 46.4846 67.5726 45.5323 65.7644C45.149 65.0353 44.7657 64.3065 44.3712 63.5846C41.5076 58.3371 42.1312 53.2342 46.1736 48.8282C48.6294 46.2566 51.2222 43.8193 53.9406 41.5271C55.1076 40.5038 56.3086 39.4516 57.5471 38.3325L74.6204 59.6077C74.2541 59.8361 73.8918 60.0541 73.5381 60.2622Z" fill="black"/>
</g>
<defs>
<clipPath id="clip0_8_2325">
<rect width="185.087" height="185.744" fill="white"/>
</clipPath>
</defs>
</svg>
