<svg width="157" height="156" viewBox="0 0 157 156" fill="none" xmlns="http://www.w3.org/2000/svg">
<g clip-path="url(#clip0_6_2197)">
<path d="M43.1356 38.1607C55.1886 38.3819 66.8574 38.5229 78.5225 38.8288C91.7674 39.176 105.009 39.6552 118.251 40.1101C122.67 40.2623 124.289 41.5691 124.465 45.92C124.866 56.0118 125.281 66.118 125.149 76.2118C125.031 85.2929 124.192 94.3654 123.673 103.441C123.66 103.662 123.668 103.886 123.673 104.107C123.738 106.571 123.087 109.386 124.076 111.393C124.976 113.217 127.804 114.001 129.524 115.535C132.867 118.521 136.07 121.667 139.25 124.829C141.884 127.449 141.801 127.428 145.233 125.927C147.272 125.014 149.385 124.276 151.548 123.719C153.126 123.326 154.782 123.668 155.542 125.406C156.302 127.144 155.968 128.983 154.381 129.911C150.735 132.078 146.966 134.031 143.092 135.761C141.215 136.584 139.379 135.407 137.954 133.996C135.163 131.231 132.42 128.417 129.615 125.667C128.035 124.119 126.37 122.658 124.14 120.603C124.454 124.852 124.705 128.238 124.965 131.756C125.9 132.292 126.894 132.795 127.819 133.404C133.398 137.071 134.569 143.039 130.766 148.53C127.858 152.731 123.772 154.457 118.8 153.597C114.514 152.856 111.31 150.487 110.25 146.053C109.185 141.594 110.871 137.914 114.033 134.819C114.716 134.212 115.436 133.647 116.189 133.128V120.6H88.0493C87.4586 122.974 86.9932 125.383 86.2503 127.703C83.0591 137.661 77.6168 145.902 68.0887 150.908C62.6019 153.791 56.6366 154.812 50.5425 154.998C37.1971 155.406 24.6098 152.762 14.856 143.047C2.53787 130.778 -3.3803 116.203 2.01545 98.692C4.32116 91.2098 8.98104 85.1373 14.9957 80.203C20.2228 75.9151 25.8798 72.2803 32.4773 70.3684C33.0947 70.1275 33.6941 69.842 34.2705 69.5152C34.2705 66.0077 34.2587 62.4216 34.2705 58.836C34.3211 45.809 34.3171 32.7794 34.497 19.7551C34.5278 17.5005 33.662 16.4556 31.7186 15.8787C25.0624 13.9023 18.4082 11.9203 11.756 9.93289C10.8982 9.67692 10.0102 9.49905 9.18326 9.16695C6.38266 8.0433 5.00889 5.96069 5.60288 3.844C6.26316 1.49366 8.64244 0.180977 11.5546 0.753957C13.6391 1.16482 15.6823 1.79571 17.7347 2.36147C22.7019 3.73125 27.6926 5.02548 32.6151 6.54162C35.0728 7.31201 37.4567 8.30045 39.7383 9.49512C42.6079 10.983 43.6541 13.4751 43.4894 16.7647C43.1533 23.4896 43.0825 30.2288 42.9217 36.9621C42.9501 37.3681 43.0217 37.77 43.1356 38.1607ZM117.098 64.1471C91.8462 66.0208 66.9808 64.2166 41.9102 64.3289C41.821 65.8784 41.741 67.2639 41.6609 68.6547C45.5576 69.3301 49.0578 70.2568 52.6046 70.4971C69.5937 71.6496 84.1428 85.6204 87.5551 101.772C88.2665 105.139 88.5848 108.59 89.0712 111.913H116.204C116.504 95.8763 116.798 80.2194 117.098 64.1471ZM50.257 145.378C51.842 145.201 54.8736 145.011 57.8474 144.493C61.8885 143.788 65.6309 142.241 68.5324 139.229C72.4809 135.129 75.4693 130.415 76.7537 124.8C78.237 118.794 78.5731 112.562 77.7428 106.432C76.0147 94.8872 69.574 86.8976 58.9782 82.5034C54.8059 80.7733 50.1053 80.3336 45.6632 79.2323C36.015 76.8406 28.1218 80.0632 21.0951 86.5832C16.2172 91.1087 12.2681 96.1999 10.7618 102.756C7.75245 115.853 12.5405 126.588 21.6163 135.654C29.0651 143.092 38.7028 145.033 50.257 145.378ZM42.7937 56.3932C67.4869 56.0774 91.9466 57.0206 116.569 55.3693C116.638 54.1373 116.733 53.1514 116.736 52.165C116.74 51.1896 116.65 50.2136 116.605 49.2882C108.356 47.9551 48.4283 46.1103 42.7956 47.0489L42.7937 56.3932ZM120.077 138.567C117.976 140.448 117.075 142.439 118.035 143.826C118.388 144.278 118.831 144.651 119.336 144.92C119.842 145.19 120.398 145.35 120.969 145.39C121.769 145.386 123.004 144.344 123.278 143.509C124.158 140.864 122.079 139.79 120.079 138.567H120.077Z" fill="black"/>
<path d="M48.533 133.63C44.49 132.798 40.2913 132.408 36.4334 131.05C24.3115 126.784 18.6945 113.854 23.6164 102.001C26.4734 95.1224 31.7826 91.4686 39.0804 89.98C44.3293 88.8025 49.7759 88.8222 55.0163 90.0371C59.9091 91.2061 64.213 94.1077 67.1315 98.2053C70.0502 102.303 71.3865 107.318 70.8929 112.324C70.7374 114.338 70.4191 116.335 69.9406 118.297C67.7373 126.501 62.3161 131.244 53.9852 132.676C52.2216 132.979 50.4246 133.088 48.6433 133.286L48.533 133.63ZM47.5078 125.114L47.614 124.713C49.1787 124.607 50.7533 124.581 52.3042 124.379C55.471 123.962 58.256 122.503 59.7412 119.735C63.9208 111.944 61.9117 102.492 52.9809 99.5599C49.0216 98.3706 44.9871 97.4478 40.9043 96.7981C39.6333 96.5401 38.3183 96.5998 37.0759 96.972C35.8335 97.3441 34.7022 98.0175 33.7824 98.9318C27.7776 104.851 27.5243 118.585 38.1196 122.903C41.0626 124.1 44.3686 124.4 47.5078 125.112V125.114Z" fill="black"/>
</g>
<defs>
<clipPath id="clip0_6_2197">
<rect width="156.208" height="155.552" fill="white"/>
</clipPath>
</defs>
</svg>
