<svg width="151" height="118" viewBox="0 0 151 118" fill="none" xmlns="http://www.w3.org/2000/svg">
<g clip-path="url(#clip0_8_2901)">
<path d="M58.4668 49.087C41.9717 49.6061 25.4774 50.1477 8.97901 50.613C7.08626 50.6207 5.19719 50.4415 3.33956 50.0785C3.02756 50.0441 2.72621 49.9451 2.45472 49.7875C2.18324 49.6299 1.94751 49.4171 1.76281 49.1632C1.57811 48.9094 1.44851 48.6201 1.38208 48.3133C1.31566 48.0065 1.31411 47.6895 1.37728 47.382C1.54202 45.921 2.54664 45.2505 3.90264 45.1271C6.36062 44.9033 8.82516 44.6933 11.2871 44.5823C23.0611 44.0533 34.834 43.4562 46.6133 43.0729C63.8979 42.5157 81.1957 42.3123 98.4724 41.5897C108.883 41.1539 119.358 40.7033 129.461 37.6959C131.83 37.0197 134.121 36.0984 136.298 34.9462C139.637 33.1242 141.476 30.1736 142.098 26.3478C144.192 13.4665 129.89 4.7363 120.846 8.8286C117.005 10.5659 113.255 12.1881 111.185 16.1989C109.162 20.1186 109.868 23.2765 113.482 25.8671C115.883 27.588 116.484 28.8439 115.688 30.4755C114.814 32.2654 112.645 32.8704 110.08 32.0388C103.731 29.9805 100.593 23.1291 102.83 16.0951C104.015 12.3087 106.36 8.99045 109.534 6.60958C114.179 3.09686 119.419 0.850278 125.325 0.563458C135.494 0.0698921 142.929 4.95338 147.78 13.3479C154.522 25.0143 149.143 38.7131 136.452 43.3344C129.881 45.6736 122.995 47.0088 116.026 47.2961C102.012 47.9793 87.9802 48.287 73.9543 48.7549C68.7909 48.9274 63.6293 49.108 58.4687 49.2966L58.4668 49.087Z" fill="black"/>
<path d="M41.7059 80.2699C28.2464 80.2699 16.2439 80.2791 4.24081 80.2627C1.52029 80.2588 0.315233 79.6287 0.153118 78.276C-0.0254062 76.7841 1.29908 75.7353 4.09114 75.5456C12.0328 75.0061 19.983 74.3222 27.9392 74.1489C43.1977 73.8168 58.463 73.6993 73.7255 73.6895C81.8588 73.6842 89.8347 74.9726 97.3432 78.2838C103.434 80.9715 107.478 85.5036 107.885 92.3104C108.388 100.715 105.215 107.677 98.3067 112.696C91.908 117.345 84.9259 118.776 77.3216 116.086C66.3174 112.192 66.6751 100.399 71.9396 94.7422C73.4748 93.1184 75.2449 91.7335 77.1903 90.6341C79.1258 89.5308 81.4303 90.0887 82.441 91.3889C83.4078 92.636 83.3428 94.5886 82.042 96.3994C81.1316 97.5355 80.153 98.6159 79.1114 99.6332C75.9098 103.099 76.8346 106.709 81.2668 108.1C90.0263 110.851 101.351 103.056 99.7513 91.5924C99.3319 88.5831 97.1653 86.7027 94.4835 85.4747C88.7642 82.8231 82.5736 81.3378 76.2734 81.1067C64.2708 80.6919 52.2612 80.5114 41.7059 80.2699Z" fill="black"/>
<path d="M44.1137 102.357C47.7104 102.506 50.0287 104.512 49.9756 107.429C49.9185 110.612 47.3539 112.943 44.0066 112.854C40.7085 112.768 38.5972 110.524 38.737 107.254C38.8808 103.898 40.7296 102.216 44.1137 102.357Z" fill="black"/>
<path d="M83.6306 13.037C84.8756 13.0132 86.0794 13.4797 86.9831 14.3362C87.8869 15.1927 88.4179 16.3703 88.4606 17.6147C88.6575 20.8465 86.1778 23.7295 83.16 23.7794C81.8001 23.7923 80.4893 23.2717 79.5088 22.3296C78.5275 21.3875 77.9552 20.0983 77.9132 18.7389C77.7006 15.6207 80.1546 13.1748 83.6306 13.037Z" fill="black"/>
<path d="M137.121 66.585C137.344 63.8051 140.656 61.1072 143.449 61.4308C144.668 61.6208 145.772 62.2578 146.548 63.2171C147.324 64.1764 147.715 65.3895 147.646 66.6211C147.346 69.3232 144.345 71.5036 141.24 71.2765C140.653 71.2634 140.075 71.1288 139.543 70.8807C139.011 70.6326 138.536 70.2769 138.149 69.8358C137.762 69.3948 137.471 68.8776 137.294 68.3177C137.117 67.7579 137.058 67.1685 137.121 66.585Z" fill="black"/>
</g>
<defs>
<clipPath id="clip0_8_2901">
<rect width="150.958" height="117.484" fill="white"/>
</clipPath>
</defs>
</svg>
