<svg width="167" height="161" viewBox="0 0 167 161" fill="none" xmlns="http://www.w3.org/2000/svg">
<g clip-path="url(#clip0_8_2328)">
<path d="M163.625 65.7872C162.957 48.7634 162.283 31.7393 161.605 14.7152C161.552 11.7679 161.293 8.82794 160.831 5.91651C160.126 1.99949 158.039 0.301322 154.048 0.456217C151.54 0.614981 149.052 1.01886 146.621 1.66153C138.708 3.53275 131.573 5.23567 124.376 7.12921C91.4085 15.7994 56.5428 26.8292 17.7867 40.8473C13.9229 42.2439 10.2106 43.9164 6.27979 45.6865C4.44992 46.5102 2.55833 47.3622 0.620163 48.199C0.499311 48.2512 0.396435 48.3377 0.324121 48.4477C0.251808 48.5577 0.213225 48.6862 0.213236 48.8179C0.213236 49.4939 0.208697 50.0651 0.204103 50.577C0.196227 51.5123 0.190336 52.2507 0.220527 52.9818C0.322916 55.47 0.447547 57.9569 0.572251 60.4451C0.825595 65.4897 1.0882 70.7064 1.14398 75.8324C1.24244 84.8531 1.20958 94.0294 1.17282 102.903C1.15707 106.903 1.14549 110.904 1.13805 114.905C1.1328 121.044 2.40216 122.606 8.28623 123.7C9.49651 123.926 10.7088 124.145 11.9223 124.363C16.5882 125.204 21.4136 126.074 26.0375 127.321C37.4197 130.391 48.9595 133.638 60.1199 136.777C66.2655 138.507 72.4134 140.23 78.5627 141.946C102.224 148.521 127.745 155.183 154.042 159.364C155.398 159.605 156.77 159.744 158.147 159.777C159.418 159.867 160.681 159.524 161.731 158.804C163.271 157.611 163.771 155.364 164.08 152.124C165.522 135.981 165.869 119.758 165.117 103.567C164.615 90.9741 164.118 78.381 163.625 65.7872ZM151.804 74.1332C151.317 74.183 150.82 74.2395 150.321 74.2966C148.749 74.5033 147.167 74.6287 145.581 74.6733C128.635 74.8532 111.403 74.991 94.7394 75.1249L85.004 75.203C83.3802 75.2168 81.7584 75.2122 79.9699 75.2089L77.7974 75.2063L75.025 31.9698C103.992 23.0436 128.429 16.6048 151.804 11.7374V74.1332ZM151.726 86.3102C154.329 95.3467 154.435 132.853 151.892 148.268C132.005 145.442 112.243 140.256 93.1268 135.238C88.7228 134.082 84.3083 132.932 79.8832 131.79L78.4938 86.9324C85.6308 85.3093 131.584 84.8925 151.726 86.3082V86.3102ZM31.6853 118.611C27.471 117.657 23.2553 116.844 18.7922 115.986C16.9354 115.628 15.0445 115.265 13.107 114.881C12.3883 109.335 11.9823 103.754 11.8908 98.163C11.7523 94.2972 11.6099 90.3086 11.2647 86.2492H66.0608C67.5835 92.145 68.1387 115.007 67.0453 127.533C63.3234 127.181 59.7096 126.063 56.2081 124.98C54.1701 124.35 52.0626 123.697 49.9479 123.2C47.1295 122.535 44.2765 121.79 41.5166 121.069C38.3051 120.227 34.9828 119.358 31.6853 118.611ZM65.9072 74.6451C59.541 76.2755 20.8118 77.6452 11.0783 76.112L9.0968 52.7607C22.3489 48.1394 35.4632 43.9999 49.3375 39.6208C54.7425 37.9143 60.322 36.1533 65.9072 34.3621V74.6451Z" fill="black"/>
</g>
<defs>
<clipPath id="clip0_8_2328">
<rect width="166.053" height="160.146" fill="white"/>
</clipPath>
</defs>
</svg>
