<svg width="159" height="155" viewBox="0 0 159 155" fill="none" xmlns="http://www.w3.org/2000/svg">
<path d="M117.152 80.2217C117.718 92.7964 110.083 105.659 94.7381 109.929C93.4509 110.291 92.3457 111.122 91.6394 112.257C88.832 117.839 84.182 120.281 78.2224 120.289C72.0604 120.299 67.1897 117.84 63.978 112.253C62.9868 110.735 61.5171 109.591 59.802 109.003C44.1761 103.713 39.7977 87.1788 42.9377 77.3561C43.9656 74.1396 45.3951 73.1205 48.3806 74.4308C61.5267 80.1974 75.4021 80.3071 89.2281 79.2454C96.0619 78.7206 102.928 76.7276 109.439 74.4314C115.524 72.2856 116.787 72.5795 117.045 78.9995C117.066 79.5609 117.142 80.1195 117.152 80.2217ZM67.1193 86.3202C67.0474 87.7896 67.0553 89.2618 67.1429 90.7304C67.7436 96.4239 68.091 102.178 69.2205 107.77C70.0628 111.932 73.6788 113.95 78.1987 113.917C82.2535 113.888 84.4786 112.304 85.7882 108.05C87.9307 101.092 87.8603 93.9367 87.6544 86.3202H67.1193ZM46.106 80.5496C47.2572 83.2026 47.6438 86.3269 49.0293 86.8605C52.8619 88.338 57.1117 88.7342 61.4157 89.6016L61.6865 85.4419L46.106 80.5496ZM111.887 82.2628L94.9676 86.1061C95.0753 87.3927 95.183 88.6793 95.3367 90.5218L110.998 86.5077C111.253 85.2888 111.542 83.9103 111.887 82.2634V82.2628ZM49.3259 92.1022C52.2972 97.6217 55.945 101.002 61.6303 102.937C61.4427 99.817 61.2863 97.208 61.1367 94.7168L49.3259 92.1022ZM107.372 92.7794L94.9277 94.7113C94.7611 97.0034 94.5891 99.3539 94.392 102.086C99.7821 100.005 104.404 97.9054 107.372 92.7787V92.7794Z" fill="black"/>
<path d="M59.2473 43.8013C61.5862 44.5177 66.1095 45.7392 70.5028 47.3224C72.5478 48.0585 73.8832 49.8759 72.8112 52.1849C71.7955 54.3809 69.779 54.0296 67.8186 53.5075C63.9251 52.4714 60.0605 51.0326 56.0952 50.6344C51.2454 50.1469 46.7289 51.4679 43.6851 55.8788C43.2538 56.5038 42.066 57.2216 41.5501 57.0299C40.7781 56.7435 39.6662 55.5451 39.7949 54.9864C40.2689 52.9265 40.6799 50.4685 42.0464 49.0695C46.0335 44.9883 51.3491 43.8934 59.2473 43.8013Z" fill="black"/>
<path d="M102.458 49.4452C102.582 47.8566 102.675 47.0751 102.699 46.2883C102.789 43.4348 103.695 41.0743 106.881 40.6788C110.014 40.2867 112.351 42.0121 112.965 44.8493C113.608 47.6475 113.589 50.5572 112.91 53.3469C112.47 54.951 110.024 57.0786 108.532 57.038C106.806 56.9912 104.808 55.0804 103.552 53.4877C102.616 52.2993 102.669 50.3309 102.458 49.4452Z" fill="black"/>
<path d="M2.80592 55.9067C-4.20391 83.4578 1.93441 107.763 21.0631 128.158C21.5615 128.685 22.0687 129.211 22.5766 129.716C32.8516 139.991 45.6503 146.336 55.792 150.75C60.144 152.651 82.4783 154.96 88.5205 154.059C124.432 148.697 148.064 128.442 156.295 94.5562C157.867 87.9185 158.65 81.1185 158.627 74.2973C158.666 58.2286 151.899 39.5475 137.947 25.5563C136.511 24.3692 135.078 23.1381 133.695 21.9464C130.693 19.3651 127.59 16.6939 124.344 14.4146C99.5459 -3.0382 73.7811 -3.13639 47.7664 6.11954C24.2139 14.4945 9.08781 31.2477 2.80592 55.9067ZM47.8673 14.3698C70.6926 4.88431 93.5944 3.2104 115.931 17.4169C120.015 20.0172 130.903 28.8181 132.618 30.1392L132.727 30.2212L132.819 30.3214C141.533 39.5625 151.511 56.4593 151.291 73.8288C151.219 81.256 150.214 88.6446 148.299 95.8212C142.625 116.444 129.06 131.474 106.829 141.754C84.2288 152.575 51.8178 141.636 43.1943 135.942C33.6637 129.426 25.3246 121.319 18.5414 111.976C7.90211 96.9127 5.5145 75.261 11.2283 55.4666C13.904 46.3273 18.5799 37.898 24.9171 30.7898C31.2543 23.6816 39.0938 18.0727 47.8673 14.3698Z" fill="black"/>
</svg>
