<svg width="81" height="115" viewBox="0 0 81 115" fill="none" xmlns="http://www.w3.org/2000/svg">
<g clip-path="url(#clip0_8_2330)">
<path d="M78.0661 0.840326C77.4833 0.426266 76.802 0.173342 76.0905 0.107076C75.3784 0.0408099 74.6623 0.163742 74.0132 0.463126C72.9939 0.935771 72.1217 1.67654 71.4903 2.60616C63.9699 13.164 56.1188 24.2521 48.1548 35.5641C46.3557 38.1185 44.6105 40.6985 42.7551 43.4295C42.0397 44.4858 41.3063 45.5659 40.555 46.6699C40.0876 46.1113 39.6328 45.5752 39.1898 45.0534C37.9427 43.5832 36.7613 42.1943 35.7046 40.7622C32.7438 36.7585 29.7602 32.6689 26.8743 28.7139C24.0395 24.829 21.1089 20.8121 18.2013 16.8786C14.8363 12.3256 11.3971 7.82131 7.9796 3.48555C6.28884 1.34195 3.9878 0.732346 2.11723 1.93476C0.299834 3.10238 0.0241077 5.40407 1.3952 7.94149C2.35801 9.75173 3.44827 11.491 4.65782 13.1466C8.14165 17.8388 11.5829 22.6892 14.9105 27.3794C21.2862 36.3647 27.8791 45.6573 35.0798 54.2803C35.9492 55.2483 36.4322 56.5022 36.4365 57.8033C36.4742 59.5316 36.5075 61.2603 36.5369 62.9886C36.6583 69.6833 36.7844 76.603 37.2313 83.3961C37.7367 91.0838 38.6753 98.5575 39.7674 106.831C40.0772 108.931 40.8975 110.922 42.1564 112.631C42.5804 113.231 43.1396 113.724 43.7889 114.068C44.4382 114.412 45.1595 114.598 45.8943 114.613C46.1038 114.613 46.313 114.598 46.5203 114.567C47.3765 114.423 48.1769 114.047 48.8345 113.48C49.4921 112.913 49.9818 112.177 50.2504 111.351C50.8115 109.778 50.995 108.097 50.7859 106.441C48.3968 88.574 47.4222 70.5627 46.8394 56.8675C46.7539 55.3254 47.1901 53.7994 48.0778 52.5356C49.5406 50.3329 50.9932 48.1232 52.4354 45.9065C54.7529 42.3623 57.1492 38.6967 59.5731 35.1426C62.6454 30.6375 65.8083 26.0851 68.8649 21.6778C71.781 17.4772 74.7962 13.1323 77.7301 8.83719C78.6325 7.57387 79.2298 6.11887 79.4766 4.58607C79.5973 3.89266 79.5297 3.1799 79.2816 2.52123C79.0335 1.86257 78.6142 1.28199 78.0661 0.840326Z" fill="black"/>
</g>
<defs>
<clipPath id="clip0_8_2330">
<rect width="80.0732" height="114.859" fill="white"/>
</clipPath>
</defs>
</svg>
