<svg width="163" height="160" viewBox="0 0 163 160" fill="none" xmlns="http://www.w3.org/2000/svg">
<g clip-path="url(#clip0_6_1744)">
<path d="M88.7889 81.0617C92.2419 80.828 94.9067 80.555 97.5753 80.4998C99.3382 80.4637 101.282 80.3403 102.818 81.0072C104.03 81.5323 105.378 83.1449 105.499 84.3867C105.621 85.6285 104.603 87.4938 103.511 88.2105C101.958 89.0749 100.208 89.5219 98.4312 89.5074C93.8532 89.6741 89.2661 89.5639 84.1145 89.5639C84.5661 93.5675 84.8804 97.2004 85.4797 100.783C85.5722 101.338 86.9551 102.021 87.7657 102.054C91.9151 102.221 96.0749 102.13 100.226 102.269C101.676 102.255 103.114 102.544 104.446 103.118C105.394 103.591 106.566 104.89 106.519 105.758C106.438 106.388 106.213 106.991 105.862 107.52C105.511 108.049 105.044 108.491 104.495 108.81C102.718 109.48 100.833 109.822 98.9339 109.819C94.9217 109.958 90.9023 109.862 86.5705 109.862C86.8166 113.865 87.0851 117.517 87.2479 121.173C87.3509 123.189 87.3358 125.208 87.2019 127.221C87.1225 128.311 86.9171 129.608 86.2627 130.385C85.4751 131.32 84.1407 132.35 83.0644 132.326C82.4257 132.251 81.814 132.025 81.2804 131.666C80.7462 131.308 80.3058 130.827 79.9953 130.263C79.1926 127.941 78.6853 125.527 78.4857 123.078C78.0532 118.846 77.8767 114.587 77.5662 109.952C76.4307 109.868 75.3668 109.719 74.3029 109.721C69.3626 109.736 64.4221 109.843 59.4831 109.799C58.1458 109.772 56.8219 109.528 55.5624 109.077C54.8587 108.846 54.254 108.383 53.846 107.765C53.438 107.146 53.2508 106.408 53.3146 105.67C53.2664 104.931 53.4755 104.198 53.9075 103.596C54.3395 102.993 54.9671 102.56 55.6829 102.369C56.9668 101.996 58.295 101.794 59.6319 101.77C65.2225 101.704 70.8138 101.743 76.4117 101.743V89.9091C75.1903 89.8185 74.2314 89.6846 73.2731 89.6866C68.6702 89.6951 64.0669 89.7647 59.4633 89.7555C58.2298 89.8015 56.9959 89.6807 55.7944 89.3972C53.9423 88.8721 52.5578 87.7406 52.7173 85.5556C52.723 84.638 53.0887 83.7599 53.7357 83.1094C54.3827 82.4584 55.259 82.0882 56.1765 82.077C59.4155 81.7902 62.6707 81.6675 65.9215 81.5434C67.8163 81.4712 69.7158 81.5303 72.4291 81.5303C71.1597 80.1257 70.4036 79.2331 69.5884 78.395C60.8106 69.3769 52.3556 60.0833 45.0053 49.8372C43.8967 48.2922 42.8298 46.7065 41.8755 45.063C41.017 43.5837 40.8418 41.9782 42.4235 40.8519C44.0394 39.6987 45.4079 40.5067 46.5256 41.8095C48.4251 44.0247 50.3324 46.2372 52.1583 48.5114C60.547 58.9471 70.0905 68.2729 79.9336 77.7019C80.67 76.8841 81.3553 76.2107 81.9394 75.4592C89.3074 65.9764 96.6236 56.4531 104.053 47.0195C105.484 45.2998 107.101 43.7443 108.875 42.3812C110.275 41.249 112.12 40.9996 113.552 42.1803C115.172 43.516 115.011 45.462 113.971 47.0897C112.286 49.7347 110.466 52.3031 108.573 54.8057C102.753 62.5026 96.8665 70.1507 91.0165 77.8259C90.4206 78.6142 89.8942 79.4543 88.7889 81.0617Z" fill="black"/>
<path d="M160.965 73.1401C159.118 56.9336 152.612 41.6104 142.236 29.0254C133.684 18.5312 124.485 11.0523 114.113 6.16911C106.019 2.26948 97.1519 0.23885 88.1673 0.227295C85.4074 0.231794 82.6501 0.411929 79.9125 0.766739C68.5211 2.24416 56.9757 5.54887 43.5884 11.1737C25.48 18.7872 12.8717 31.8713 6.12391 50.0538C1.3905 62.5396 -0.433919 75.9407 0.789239 89.2374C2.21218 104.176 5.8069 115.753 12.0992 125.664C21.1902 139.972 32.6426 149.391 47.1155 154.456C55.8894 157.531 65.5475 159.075 77.4979 159.318C84.5325 159.318 91.0841 158.469 97.4138 157.646L98.6142 157.491C112.44 155.703 124.182 150.713 134.516 142.249C144.233 134.434 151.589 124.074 155.761 112.324C160.71 98.2896 162.408 85.4687 160.965 73.1401ZM144.644 117.7C136.82 133.542 123.663 143.935 105.521 148.588C103.342 149.148 101.089 149.552 98.7087 149.978C97.5273 150.186 96.2941 150.409 94.9991 150.658C89.3546 151.508 81.7417 151.637 77.5458 151.637C75.6778 151.637 74.4833 151.609 74.4498 151.609C63.4291 151.478 53.9475 149.606 45.4702 145.891C34.1733 140.94 25.1425 132.584 17.8723 120.35C13.4814 112.972 10.6964 104.237 9.11139 92.867C7.07721 78.4032 8.85595 63.6593 14.2711 50.0945C19.9694 35.6413 30.2201 24.6758 44.7344 17.506C48.0863 15.8474 61.7095 11.8543 65.2904 11.1264C70.3333 10.1202 75.4462 9.50464 80.584 9.28536C100.905 8.79967 108.929 12.0702 121.342 21.5464C134.337 31.467 143.497 43.9367 148.569 58.6059C155.456 78.5896 154.14 98.4714 144.644 117.7Z" fill="black"/>
</g>
<defs>
<clipPath id="clip0_6_1744">
<rect width="162.115" height="159.49" fill="white"/>
</clipPath>
</defs>
</svg>
