<svg width="180" height="146" viewBox="0 0 180 146" fill="none" xmlns="http://www.w3.org/2000/svg">
<g clip-path="url(#clip0_8_2259)">
<path d="M178.025 73.041C177.897 70.5403 177.773 68.0397 177.653 65.5397C177.437 60.9546 177.227 56.3692 177.022 51.7835C176.625 43.009 176.214 33.9357 175.759 25.0141C175.561 18.9716 173.094 13.2259 168.848 8.92226C163.68 3.66042 156.94 1.05314 148.238 0.949438C129.124 0.722345 106.496 0.460069 83.5856 0.227726C79.5373 0.186376 75.4214 0.199552 71.4433 0.212022C69.2059 0.218585 66.9671 0.222246 64.7266 0.223559C61.5158 0.220497 58.305 0.207128 55.0942 0.1835C47.8745 0.142807 40.4141 0.0988215 33.0742 0.238621C26.5607 0.362669 21.1629 1.67884 16.5738 4.2635C7.1225 9.5864 2.08971 17.354 1.62174 27.3507C1.36708 32.7983 1.2792 38.3431 1.19519 43.7034L1.16699 45.4756C1.06372 51.8334 0.970302 58.1911 0.88673 64.5489C0.72724 75.9899 0.562528 87.821 0.311151 99.454C0.157568 106.573 0.515827 114.93 4.34228 122.933C7.61935 129.787 11.9132 134.238 17.8563 136.938C23.127 139.283 28.6724 140.954 34.3612 141.911C44.3507 143.698 54.6001 143.901 64.5114 144.097L65.3226 144.113C66.9848 144.146 68.6834 144.278 70.3256 144.405C71.0988 144.464 71.8726 144.524 72.6458 144.575H72.6891H140.078C140.103 144.575 140.128 144.573 140.153 144.57C141.372 144.432 142.593 144.313 143.814 144.193C146.454 143.934 149.185 143.667 151.849 143.208C166.077 140.759 175.584 131.414 177.282 118.211C178.661 107.075 179.094 95.8434 178.574 84.6345C178.421 80.7687 178.22 76.8405 178.025 73.041ZM167.359 84.33C167.25 95.2311 166.619 106.211 165.925 117.437C165.304 127.497 156.585 131.831 149.307 132.485C146.393 132.748 143.471 132.885 140.62 132.895L127.967 132.941C107.383 133.016 86.0981 133.098 65.1659 133.05C53.3045 133.023 41.7305 132.762 30.5492 129.89C27.1296 129.04 23.8189 127.801 20.6818 126.196C17.1586 124.354 14.6244 121.095 12.937 116.235C10.6373 109.41 9.48814 102.25 9.53657 95.048C9.47094 85.8592 9.63706 76.511 9.79392 67.4706L9.89887 61.2854C10.0623 51.2513 10.2317 40.8734 10.5664 30.6798C10.9504 18.9871 17.5537 11.5611 29.1598 9.76933C35.2174 8.84894 41.3365 8.39285 47.4636 8.40441C47.6861 8.40441 47.9094 8.40441 48.1319 8.40441C58.9989 8.46019 70.0493 8.73251 80.7358 8.99504C85.13 9.10308 89.5235 9.20711 93.917 9.30687C94.0955 9.30956 94.2682 9.24216 94.3981 9.11903C94.4257 9.0929 94.4506 9.06462 94.4729 9.03442C99.0949 9.14994 103.717 9.26454 108.339 9.37835C121.381 9.69995 134.867 10.0347 148.129 10.4128C152.058 10.525 156.177 11.0295 159.681 13.9397C163.144 16.8191 164.847 19.9185 165.039 23.6944L165.17 26.2729C165.639 35.4184 166.122 44.8762 166.491 54.1798C166.572 56.2503 166.66 58.3215 166.753 60.3929C167.086 68.2464 167.437 76.3627 167.359 84.3313V84.33Z" fill="black"/>
<path d="M114.393 62.4569C111.654 60.2175 108.85 58.0311 106.47 56.1881L103.642 53.9979C96.2088 48.2418 88.5231 42.2882 80.9128 36.4967C79.5818 35.5549 78.1194 34.8138 76.5731 34.2972C73.8375 33.2976 71.1255 34.1661 69.8187 36.4633C67.9961 39.6689 67.0437 42.4049 66.9072 44.8262C66.5528 51.1067 66.4819 57.5007 66.4137 63.6834C66.3887 65.9048 66.3644 68.1278 66.3264 70.3482C66.2095 70.3987 66.1091 70.4821 66.0376 70.5878C65.9654 70.6928 65.9253 70.8168 65.9207 70.9442L65.7114 77.1058C65.5119 82.984 65.3077 88.8622 65.0986 94.741C65.0067 97.26 65.8348 98.9547 67.6298 99.9221C68.3663 100.329 69.1932 100.544 70.0347 100.549C71.2397 100.513 72.4093 100.132 73.403 99.4502C77.1093 97.0926 80.817 94.7371 84.5273 92.3834C94.1754 86.2578 104.152 79.9248 113.931 73.6358C116.258 72.1387 117.547 70.3114 117.658 68.3503C117.771 66.3327 116.643 64.296 114.393 62.4569ZM103.514 68.1324L74.866 86.8256L75.6004 47.075C81.4143 51.0032 86.8586 55.2608 92.5996 59.754C96.1287 62.5113 99.7668 65.3573 103.514 68.1324Z" fill="black"/>
</g>
<defs>
<clipPath id="clip0_8_2259">
<rect width="179.18" height="145.051" fill="white"/>
</clipPath>
</defs>
</svg>
