<svg width="105" height="155" viewBox="0 0 105 155" fill="none" xmlns="http://www.w3.org/2000/svg">
<g clip-path="url(#clip0_8_2759)">
<path d="M29.2028 99.6718C25.192 111.25 20.9793 122.977 16.9057 134.318C15.3821 138.559 13.8607 142.8 12.3415 147.041C11.4814 149.449 10.7998 152.176 13.6257 154.081C14.4032 154.645 15.3346 154.958 16.2961 154.98C18.0649 154.98 19.602 153.811 20.9307 152.537C23.4584 150.122 26.0699 147.704 28.5977 145.368C34.2366 140.152 40.0701 134.759 45.335 129.006C54.4655 119.03 63.4114 108.588 72.0634 98.4899C75.5057 94.4728 78.9552 90.4616 82.4091 86.4567C87.9923 80.0075 93.6422 73.4296 99.1061 67.0675L102.55 63.0589C104.232 61.1014 105.622 58.8998 104.412 56.0614C103.233 53.2953 100.783 52.8568 98.3127 52.7948C93.204 52.6682 88.0966 52.5313 82.9892 52.3841C79.4568 52.285 75.9244 52.188 72.3927 52.0933C71.4502 52.0681 70.5169 52.0747 69.439 52.0812L68.6373 52.0856C68.7345 51.8027 68.8265 51.5303 68.916 51.2687C69.2595 50.2567 69.557 49.3827 69.8882 48.5348C71.4373 44.55 72.989 40.5662 74.5445 36.5831C77.5908 28.7685 80.7447 20.6897 83.8078 12.7285C84.6887 10.4306 85.3939 8.06956 85.9169 5.66569C86.0699 5.13061 86.1088 4.56956 86.0303 4.01871C85.9519 3.46786 85.7594 2.93951 85.4639 2.46759C85.1476 2.05423 84.7457 1.71279 84.2868 1.46612C83.8273 1.21945 83.3204 1.07315 82.8 1.03701C82.168 0.953699 81.5367 0.855545 80.9054 0.757379C79.2384 0.454569 77.5513 0.280517 75.8577 0.236816H75.8026C68.0805 0.262649 60.2304 0.350502 52.6399 0.434461C48.1625 0.483974 43.6853 0.529837 39.2079 0.572031C33.1276 0.623052 32.2954 1.22759 30.2972 7.03881C30.095 7.62845 29.8715 8.25484 29.6129 8.84707L24.6284 20.2558C19.4056 32.2244 14.0051 44.5992 8.64813 56.7499C7.6072 59.1143 6.46997 61.4897 5.37007 63.7863C4.12368 66.3894 2.83503 69.0819 1.67549 71.7808C0.0875327 75.4705 -0.145826 77.8743 0.920375 79.5773C1.98658 81.2804 4.23526 82.1167 8.22852 82.3169L13.1156 82.5585C16.2474 82.7122 19.3789 82.8704 22.5099 83.0332C25.1317 83.1733 27.7516 83.3316 30.5238 83.4982L33.7 83.6881C33.2657 85.2781 32.8574 86.8591 32.4556 88.3942C31.4341 92.317 30.468 96.0222 29.2028 99.6718ZM59.4524 53.2249C59.0149 55.4137 59.2019 56.9261 60.036 57.986C60.8702 59.0458 62.2704 59.567 64.4585 59.6574C70.6018 59.91 76.848 60.0623 82.8894 60.2102C85.285 60.2683 87.6805 60.3288 90.0761 60.3917H90.2323C90.5667 60.3919 90.8999 60.4168 91.2298 60.466C84.677 68.0221 78.2461 75.8554 72.0206 83.4413C58.4671 99.9572 44.4702 117.012 28.5692 131.918C29.1966 130.027 29.829 128.137 30.4668 126.249C32.5409 120.083 34.6802 113.708 36.5255 107.355C38.0843 101.984 39.326 96.4342 40.527 91.0673C40.9937 88.9832 41.46 86.8998 41.9442 84.8215C42.1585 83.8011 42.2637 82.7606 42.2575 81.7176C42.3223 76.6155 40.6238 74.866 35.5216 74.7904C29.9819 74.7084 24.3504 74.6832 18.904 74.6612C16.6769 74.6516 14.4502 74.6406 12.2231 74.6283C11.7727 74.6283 11.3233 74.6251 10.8255 74.6251H8.84056C10.317 71.4779 11.7958 68.3463 13.2757 65.2301C22.5715 45.5924 31.3549 27.0376 37.6192 7.27964H77.5279C77.4741 7.45078 77.4236 7.61224 77.3763 7.76466C77.1624 8.45376 77.0081 8.9517 76.8124 9.42639C75.0883 13.6213 73.361 17.8147 71.6311 22.0066C68.3255 30.0285 64.9039 38.323 61.5729 46.496C60.6523 48.6664 59.942 50.9197 59.4524 53.2249Z" fill="black"/>
</g>
<defs>
<clipPath id="clip0_8_2759">
<rect width="105" height="155" fill="white"/>
</clipPath>
</defs>
</svg>
