<svg width="158" height="154" viewBox="0 0 158 154" fill="none" xmlns="http://www.w3.org/2000/svg">
<g clip-path="url(#clip0_8_2761)">
<path d="M13.7811 89.0236C17.6907 93.6319 22.8172 97.0394 28.5708 98.8536C33.9204 100.546 39.4853 101.455 45.0936 101.552C53.3342 101.739 61.6123 100.355 70.4125 97.3279C76.4379 95.2655 82.1958 92.487 87.5639 89.0516C87.6915 89.3108 87.8476 89.5558 88.0289 89.7806C97.8715 101.542 108.613 112.293 117.825 121.262C127.142 130.332 136.747 139.404 145.785 147.919C147.205 149.195 148.714 150.368 150.301 151.428C150.754 151.749 151.213 152.069 151.665 152.396C152.405 152.982 153.312 153.318 154.255 153.359C154.95 153.357 155.625 153.119 156.169 152.684C157.663 151.526 157.955 149.642 156.912 147.883L156.383 146.983C155.327 145 154.039 143.151 152.549 141.473C146.233 134.934 139.429 128.106 132.325 121.18C124.455 113.508 116.412 105.75 108.634 98.2487C104.4 94.166 100.169 90.0815 95.9418 85.9936C95.383 85.453 94.8617 84.8598 94.3579 84.286C94.2336 84.1437 94.1099 84.0033 93.9875 83.8656L94.1883 83.6434C94.4784 83.3185 94.7711 82.9975 95.078 82.6953C102.342 75.6263 106.321 66.7872 106.903 56.4243C107.914 38.4186 101.861 23.1455 88.9108 11.0282C82.563 4.94621 74.3315 1.22828 65.5858 0.493103C57.0803 -0.323972 48.4987 0.660071 40.3963 3.38146C28.0775 7.59665 17.5977 15.6449 9.24958 27.3015C1.80284 37.6942 -1.13246 49.0752 0.516173 61.1269C1.85658 70.9822 6.19833 80.1072 13.7811 89.0236ZM52.763 12.2042C54.084 12.0795 55.405 11.9565 56.726 11.8352C76.4314 11.0633 88.1733 24.6094 92.5934 37.5369C95.6142 46.3741 96.2546 53.8414 94.6098 61.0456C93.5284 66.0536 91.0898 70.6638 87.5633 74.3696C83.4637 78.6452 78.5567 82.0585 73.1283 84.4095C61.0521 89.8287 49.3123 91.6046 37.2408 89.8365C29.5014 88.7039 23.6192 85.2938 19.258 79.4119C14.775 73.3689 11.9531 67.6261 10.6301 61.8637C8.70668 53.9318 9.48612 45.582 12.8441 38.1464C16.7041 29.5504 21.8255 23.2111 28.501 18.7672C33.8024 15.2375 38.6758 13.4045 43.838 13.0003C46.8167 12.7644 49.8394 12.4791 52.763 12.2042Z" fill="black"/>
<path d="M20.1385 50.6481C20.0537 51.3752 20.2529 52.107 20.6942 52.6899C21.1355 53.2729 21.7846 53.6617 22.5053 53.7749C23.7353 54.0906 25.0006 54.246 26.2701 54.2375C31.1318 54.0497 36.0712 53.8061 40.8482 53.5709L45.5273 53.3421C46.3296 53.3031 47.1319 53.2603 48.0385 53.2122L48.8582 53.1692L48.89 53.4513C48.9424 53.9126 48.9813 54.2519 49.0111 54.5924C49.1358 56.0219 49.2591 57.4513 49.3808 58.8808C49.689 62.4826 50.0083 66.2053 50.3683 69.8656C50.3996 71.095 50.7498 72.2945 51.3843 73.3465C52.1767 74.4213 53.3147 75.188 54.6058 75.5168C54.7692 75.5486 54.9353 75.5649 55.1018 75.5655C56.415 75.5655 57.5521 74.535 57.962 72.9014C58.3101 71.6688 58.4692 70.39 58.4334 69.1092C58.2638 66.5276 58.0035 63.9149 57.7509 61.3885C57.6538 60.4142 57.5584 59.4395 57.4647 58.4645L56.8988 52.5454L57.1403 52.5181C57.5871 52.4661 57.9277 52.4272 58.269 52.3934L63.0238 51.921C67.3198 51.4967 71.7612 51.058 76.127 50.5824C77.3392 50.5183 78.517 50.1579 79.5589 49.5324C80.0252 49.1734 80.402 48.7107 80.6591 48.1808C80.9168 47.6508 81.0489 47.0681 81.0437 46.4784C80.9214 45.4244 79.8918 44.3756 78.9865 43.8473C78.0625 43.4262 77.0406 43.2671 76.0331 43.3873C72.9955 43.5036 69.3951 43.6602 65.7275 43.9357C63.3832 44.1118 61.0864 44.3465 58.6555 44.5954C57.8155 44.682 56.9678 44.7685 56.1127 44.8552L56.081 44.3783C56.035 43.6922 55.9968 43.119 55.9644 42.5452L55.6989 37.8018C55.5214 34.6113 55.3397 31.4212 55.1536 28.2317C55.0448 26.4123 54.0943 25.2731 52.4761 25.0184C52.1448 24.9655 51.8063 24.9802 51.4808 25.0615C51.1552 25.1428 50.8494 25.289 50.5813 25.4914C50.1865 25.8099 49.858 26.2033 49.6149 26.6494C49.3717 27.0954 49.2187 27.5851 49.1645 28.0906C48.9925 29.4454 48.9191 30.8111 48.945 32.1765C48.9288 35.5372 48.9314 38.8986 48.934 42.3509V45.7571C47.9795 45.8604 47.051 45.963 46.1405 46.0631C43.7737 46.323 41.5384 46.572 39.2986 46.7779C33.8405 47.2763 28.2813 47.7331 23.0874 48.1522C20.8385 48.3348 20.2408 49.6104 20.1385 50.6481Z" fill="black"/>
</g>
<defs>
<clipPath id="clip0_8_2761">
<rect width="158" height="154" fill="white"/>
</clipPath>
</defs>
</svg>
