<svg width="158" height="154" viewBox="0 0 158 154" fill="none" xmlns="http://www.w3.org/2000/svg">
<g clip-path="url(#clip0_8_2764)">
<path d="M154.002 142.458C151.486 139.504 148.698 136.556 145.478 133.445C133.138 121.518 120.557 109.429 108.391 97.7371L98.594 88.3217C97.4919 87.2632 96.3748 86.2183 95.287 85.2027L94.2279 84.2098L94.261 84.1449C94.3104 84.0383 94.3677 83.9363 94.4333 83.8388C94.7838 83.4405 95.159 83.0474 95.5478 82.6698C102.803 75.5995 106.771 66.75 107.339 56.3616C108.322 38.3741 102.207 23.1158 89.1602 11.0102C82.8551 5.0228 74.7061 1.34732 66.0421 0.583593C57.3905 -0.273856 48.6555 0.718459 40.4173 3.49464C28.0173 7.74168 17.8656 15.4963 9.38237 27.2035C1.84649 37.6047 -1.14249 49.0865 0.499273 61.3305C1.64689 69.8859 5.21716 77.9192 11.7361 86.6121C16.2388 92.6168 21.8735 96.741 28.4822 98.8717C33.7381 100.57 39.2147 101.49 44.7374 101.601C58.7818 101.895 72.5584 98.1342 85.7232 90.4602C86.2947 90.1268 86.8701 89.798 87.4384 89.4731L87.7421 89.299C88.8221 90.503 89.8884 91.698 90.9404 92.8832C93.5042 95.7631 95.9256 98.4818 98.4601 101.2C111.438 115.117 125.513 128.354 139.125 141.155C141.657 143.538 144.187 145.921 146.715 148.303C148.291 149.708 149.982 150.976 151.772 152.095L152.698 152.714C153.371 153.178 154.163 153.439 154.98 153.464C155.362 153.474 155.739 153.395 156.084 153.233C156.429 153.071 156.731 152.83 156.966 152.531C157.716 151.578 158.201 149.711 157.706 148.553C156.777 146.35 155.529 144.296 154.002 142.458ZM52.5697 12.2655C54.0001 12.1091 55.4291 11.9506 56.8565 11.7899C76.6632 11.1141 88.4833 24.6466 92.9359 37.5332C96.0244 46.4743 96.6577 54.045 94.9301 61.3597C93.8267 66.2497 91.419 70.7501 87.9631 74.3824C83.0788 79.5586 76.9272 83.395 68.6039 86.4536C58.7833 90.1697 48.1904 91.3796 37.784 89.9741C29.5654 88.8805 23.3494 85.2144 18.7772 78.7633C14.5209 72.7586 11.9448 67.4362 10.6685 62.0121C8.89914 54.7328 9.40701 47.0861 12.1236 40.1044C16.6231 28.4225 24.4619 19.987 35.4231 15.0336C37.3789 14.1499 39.6833 13.8348 41.9115 13.5294L42.0103 13.5164C45.5182 13.0362 49.1034 12.6443 52.571 12.2655H52.5697Z" fill="black"/>
<path d="M23.3927 48.4609C21.5468 48.663 20.4421 49.8962 20.578 51.6045C20.6717 52.7741 21.3107 54.1725 23.8225 54.1738C28.0118 54.1738 32.2017 54.177 36.3715 54.177H47.031C49.5776 54.0904 52.1134 54.0081 54.6383 53.9302C61.2704 53.719 68.1333 53.5007 74.8493 53.1862C76.8122 53.0291 78.7557 52.6845 80.653 52.1569C81.0386 52.0633 81.4235 51.9692 81.8078 51.8788C82.2161 51.7938 82.603 51.6264 82.945 51.3867C83.2863 51.147 83.575 50.8402 83.7935 50.485C83.9593 50.1976 84.062 49.8784 84.0958 49.5484C84.1297 49.2183 84.0932 48.8849 83.9886 48.57C83.7727 48.0316 83.4398 47.5479 83.0132 47.1545C82.5867 46.7611 82.0776 46.4677 81.523 46.2958C80.0522 45.9733 78.5411 45.871 77.0398 45.9923C74.6991 46.0989 72.3226 46.2411 70.0247 46.3789C67.1996 46.5478 64.279 46.722 61.407 46.8337C56.2399 47.0326 50.9829 47.1983 45.8996 47.3588C41.4041 47.5011 36.9086 47.6421 32.4137 47.8078C29.3506 47.9202 26.316 48.1399 23.3927 48.4609Z" fill="black"/>
</g>
<defs>
<clipPath id="clip0_8_2764">
<rect width="158" height="154" fill="white"/>
</clipPath>
</defs>
</svg>
