<svg width="162" height="161" viewBox="0 0 162 161" fill="none" xmlns="http://www.w3.org/2000/svg">
<g clip-path="url(#clip0_8_2767)">
<path d="M11.5345 160.489C13.9827 160.454 16.4314 160.444 18.8808 160.434C24.5372 160.412 30.3861 160.388 36.1287 160.045C40.8814 159.671 45.6108 159.042 50.2965 158.162C51.5063 157.956 52.7149 157.751 53.9254 157.555C54.6479 157.438 55.1838 156.914 55.8623 156.252C56.1863 155.934 56.5556 155.574 56.9943 155.213C57.0916 155.132 57.164 155.026 57.2034 154.906C57.2427 154.786 57.2474 154.658 57.2168 154.536C57.1861 154.413 57.1213 154.302 57.0301 154.215C56.9389 154.128 56.8249 154.069 56.7014 154.044C56.0987 153.923 55.607 153.811 55.1852 153.714C54.5522 153.546 53.9061 153.433 53.2539 153.376C48.3991 153.113 43.5444 152.857 38.6896 152.606C31.8281 152.247 24.9669 151.879 18.1058 151.502C17.8657 151.491 17.6253 151.492 17.3853 151.506C16.4917 151.539 15.867 151.561 15.4328 150.639C16.8178 149.308 18.2086 147.966 19.6052 146.614C22.9191 143.411 26.3445 140.1 29.7828 136.876C42.8251 124.638 55.3852 111.869 67.1114 98.9219C68.5312 97.4456 69.7352 95.7752 70.6877 93.9614C70.9385 93.5069 71.0875 93.0038 71.1232 92.4858C71.1595 91.9677 71.0817 91.4484 70.8964 90.9641C70.6301 90.4304 70.2523 89.9611 69.7877 89.5884C69.3237 89.2151 68.7839 88.9477 68.2065 88.8035C68.0925 88.7659 67.9694 88.76 67.8521 88.788C64.2583 89.6072 61.726 92.1138 59.2772 94.5379C58.8761 94.9352 58.4756 95.3312 58.0719 95.7181C54.5558 99.0939 50.9576 102.5 47.4778 105.796C35.6025 117.043 23.3229 128.675 12.0891 140.991C11.9719 141.121 11.8585 141.26 11.7425 141.406C11.2753 141.991 10.9682 142.38 10.2327 142.222C10.1731 140.755 10.1393 139.254 10.1069 137.798C10.0942 133.971 9.8599 130.147 9.40513 126.348C9.24767 125.221 9.12397 124.052 9.00409 122.921C8.52975 118.453 8.03921 113.833 5.39735 109.743C5.30647 109.602 5.16629 109.501 5.00453 109.459C4.84277 109.417 4.67113 109.438 4.52375 109.517C4.24641 109.665 3.99045 109.776 3.77466 109.87C3.25626 110.095 2.80654 110.29 2.68796 110.784C0.105033 121.536 0.239277 132.597 0.368229 143.297C0.387021 144.852 0.406429 146.406 0.416797 147.961C0.440125 151.247 0.606013 154.431 2.3608 157.252C2.38877 157.299 2.42297 157.343 2.46252 157.382C5.27419 160.108 8.70918 160.498 11.1729 160.498C11.2934 160.492 11.414 160.491 11.5345 160.489Z" fill="black"/>
<path d="M141.742 14.6396C132.941 23.1622 124.133 31.6781 115.32 40.1874C108.655 46.6274 101.991 53.0685 95.3286 59.5111L95.2638 59.5722C93.2349 61.536 91.1367 63.566 89.251 65.7395C88.7618 66.4289 88.4533 67.23 88.3535 68.0695C88.255 68.5239 88.1539 68.9907 88.0016 69.4977C87.9731 69.5931 87.966 69.6937 87.9816 69.7924C87.9971 69.8911 88.0341 69.9846 88.0904 70.067C88.1468 70.1488 88.2213 70.217 88.3075 70.267C88.3937 70.3163 88.4896 70.3468 88.5894 70.354C89.1078 70.3936 89.6145 70.4793 90.1012 70.5624C90.6345 70.6714 91.1762 70.7363 91.7212 70.7571C92.143 70.7714 92.561 70.6753 92.9349 70.478C94.4454 69.547 95.834 68.4304 97.0691 67.1547L97.6569 66.5977C107.689 57.1723 117.716 47.7426 127.74 38.3085C135.004 31.4751 142.268 24.6426 149.532 17.8109C149.643 17.707 149.752 17.5954 149.862 17.4863C150.418 16.9176 150.781 16.5469 151.578 16.7721C151.6 18.1679 151.616 19.5774 151.631 20.9958C151.67 24.5839 151.709 28.2953 151.886 31.9743C151.921 32.7001 151.951 33.4265 151.982 34.1536C152.181 38.9174 152.388 43.8441 153.878 48.7066C153.92 48.8493 154.009 48.9736 154.131 49.0591C154.253 49.1446 154.4 49.1862 154.548 49.1773C157.419 49.0319 157.91 47.2992 158.234 46.1527L158.308 45.897C161.424 35.3489 162.446 23.6172 161.432 10.0328C160.921 3.18121 157.803 0.209917 151.009 0.0963076C143.894 -0.119858 136.772 0.0600798 129.677 0.63519C125.225 1.17109 120.815 2.01703 116.481 3.16698C115.216 3.47146 113.953 3.77533 112.687 4.06422C111.946 4.33497 111.308 4.83228 110.865 5.48592C110.606 5.7839 110.337 6.09296 110.032 6.38315C109.957 6.45539 109.899 6.54453 109.864 6.64327C109.829 6.74195 109.817 6.84757 109.831 6.95151C109.844 7.05545 109.881 7.15471 109.94 7.24137C109.999 7.32811 110.077 7.39971 110.169 7.45048C113.005 9.01958 115.604 9.17987 118.117 9.33308C118.525 9.35839 118.931 9.383 119.335 9.41481C120.539 9.507 121.742 9.61613 122.944 9.72389C124.804 9.89203 126.726 10.066 128.627 10.1783C130.655 10.2945 132.716 10.3341 134.709 10.3731C135.565 10.3893 136.423 10.4055 137.279 10.4283C138.342 10.4347 139.404 10.3855 140.462 10.2808C142.237 10.0716 144.03 10.0692 145.805 10.2737C145.447 10.6671 145.109 11.0444 144.783 11.4067C143.691 12.6168 142.746 13.6671 141.742 14.6396Z" fill="black"/>
</g>
<defs>
<clipPath id="clip0_8_2767">
<rect width="162" height="161" fill="white"/>
</clipPath>
</defs>
</svg>
