<svg width="125" height="137" viewBox="0 0 125 137" fill="none" xmlns="http://www.w3.org/2000/svg">
<g clip-path="url(#clip0_6_2022)">
<path d="M124.068 69.4713C123.821 65.9711 123.046 62.5288 121.771 59.26C120.966 56.8646 119.348 54.8271 117.196 53.5021C115.044 52.1771 112.496 51.6484 109.995 52.0081C108.256 52.2832 106.56 52.7832 104.949 53.4953C104.267 53.7612 103.562 54.0349 102.843 54.283C102.08 52.4869 100.911 50.8928 99.426 49.6268C97.9414 48.3608 96.1824 47.4575 94.2882 46.9884C89.6768 45.7538 85.8786 46.7725 82.9992 50.0148C81.4529 47.5286 79.3487 45.0102 75.6535 44.3703C72.4998 43.8209 69.9433 45.043 67.1473 47.1066C67.0555 45.7939 66.9728 44.5094 66.8907 43.2466C66.682 40.0398 66.4857 37.0114 66.1832 33.9673C66.0604 32.7356 65.9416 31.5026 65.8261 30.2682C65.3143 24.8862 64.7848 19.3205 63.8088 13.9221C63.2923 11.0611 61.9749 7.91203 59.7814 4.2943C57.4127 0.386462 53.4183 -0.4648 49.1002 2.01813C45.176 4.27527 44.2466 8.16012 43.8758 11.2928C43.5909 13.6983 43.5474 16.1642 43.5008 18.5493L43.478 19.7241C43.4386 21.5991 43.3964 23.4747 43.3518 25.3509C43.2048 31.7758 43.0521 38.4199 43.0541 44.9564C43.0541 49.8225 43.2055 54.5973 43.363 59.6518C43.4287 61.6359 43.4883 63.6358 43.5415 65.6587C43.5039 65.6271 43.4665 65.5962 43.4293 65.5661C42.9889 65.2024 42.5964 64.8782 42.1875 64.577C35.5401 59.6826 28.4116 57.9381 21.0068 59.3919C19.3818 59.6668 17.8543 60.3528 16.5692 61.3847C15.2841 62.4165 14.2839 63.7599 13.6643 65.2871C13.0574 66.9064 12.8685 68.6529 13.1147 70.3646C13.361 72.0763 14.0346 73.6982 15.0735 75.0811C16.1395 76.4541 17.3528 77.7071 18.6914 78.8163L19.116 79.1956C24.005 83.4402 28.0739 88.5452 31.1204 94.2579C35.277 102.272 39.9599 110.744 45.4403 120.158C46.8659 122.607 49.1506 124.616 50.9817 126.093C54.4347 128.878 58.5658 131.157 63.9812 133.266C68.7751 135.153 73.8807 136.122 79.0323 136.12C84.875 136.05 90.6613 134.967 96.1332 132.917C100.171 131.403 103.908 129.187 107.173 126.371C113.085 121.458 117.204 114.747 119.767 105.857C123.192 94.0479 124.645 81.754 124.068 69.4713ZM55.1826 119.676C54.0022 118.89 52.9711 117.901 52.1377 116.753C50.0955 113.817 48.2054 110.779 46.4749 107.649C43.8423 102.762 41.1841 97.518 38.5738 92.0599C34.5754 83.7007 29.4546 77.1137 22.9188 71.9221C21.8168 71.0374 20.8923 69.9524 20.1938 68.7244C20.0004 68.4173 19.875 68.0727 19.8258 67.713C19.7768 67.354 19.805 66.9877 19.9089 66.6405C20.0729 66.2343 20.3199 65.8667 20.6341 65.5618C20.9483 65.2567 21.3226 65.0204 21.7334 64.8684C23.0212 64.3004 24.4142 64.0097 25.8217 64.0151C26.5896 64.018 27.3557 64.0938 28.1092 64.2416C33.8528 65.3429 37.6917 67.4879 40.1858 70.9914C41.0503 72.3612 41.718 73.8458 42.1692 75.402C42.3182 75.8365 42.4671 76.2697 42.622 76.6943C43.1806 78.219 43.9641 79.6282 45.8957 79.6282H45.9358C47.6535 79.6104 48.8455 78.5701 49.2931 76.6983C49.5407 75.6954 49.6614 74.6649 49.6527 73.6319C49.5215 65.6744 49.3501 57.1951 49.1361 47.7104C49.0954 45.8956 49.022 44.052 48.9518 42.2687C48.8166 38.8695 48.6776 35.3542 48.7551 31.9071C48.904 25.3122 49.3553 18.6103 49.7925 12.1297L49.8412 11.4208C50.0696 8.02098 51.2852 6.32435 53.8974 5.7763C55.9852 7.1743 57.2565 9.40323 57.8925 12.7761C58.7655 17.2744 59.3684 21.8209 59.698 26.3912C60.1798 33.5315 60.5367 40.8018 60.8793 47.8325C61.029 50.8783 61.1823 53.9235 61.3389 56.968C61.4262 58.6286 61.8057 60.3941 63.9598 60.8975C66.0926 61.397 67.2412 59.5901 68.0019 57.9604C68.185 57.5666 68.3655 57.1728 68.5467 56.779C69.3507 54.8368 70.3608 52.9868 71.5612 51.2612C72.6114 49.871 73.9457 49.1944 75.2118 49.4037C76.5047 49.6164 77.5693 50.7105 78.1331 52.4045C78.5368 53.8536 78.7534 55.3485 78.7763 56.8525C78.8046 57.3316 78.8341 57.8088 78.8735 58.2814C78.8918 58.6802 78.8735 59.0798 78.8183 59.4752C78.7041 60.1015 78.7271 60.7448 78.884 61.3616C79.2574 62.342 79.9951 63.14 80.9436 63.5885C81.231 63.7142 81.5408 63.7816 81.8546 63.7867C82.1676 63.7917 82.4794 63.7344 82.7708 63.618C83.0845 63.4782 83.3674 63.2775 83.603 63.0277C83.838 62.7777 84.0218 62.4836 84.1425 62.1623C84.3145 61.7121 84.451 61.2496 84.5528 60.7787C84.6414 60.3737 84.7562 59.9746 84.8954 59.5842C85.0923 59.0755 85.2774 58.561 85.4644 58.0464C85.9901 56.4644 86.6439 54.9278 87.419 53.452C88.5256 51.4896 89.8691 50.9757 92.2063 51.6195C95.1802 52.4386 97.0494 54.2974 97.6119 56.9963C97.8974 58.5883 98.0589 60.2 98.095 61.8171C98.1186 62.3106 98.1429 62.8016 98.1737 63.2951C98.2696 64.8257 98.6332 66.4601 100.619 66.9707C102.581 67.4793 103.626 66.2395 104.465 64.8251C104.669 64.4811 104.869 64.1339 105.069 63.7854C105.676 62.6729 106.358 61.6024 107.108 60.5812C108.637 58.603 110.46 57.6053 112.108 57.8469C113.673 58.074 114.989 59.3761 115.815 61.5138C117.21 64.8956 118.041 68.4829 118.277 72.1328C118.6 80.6573 117.54 89.571 114.84 101.035C113.592 106.251 111.338 111.172 108.204 115.525C104.634 120.535 99.3965 124.057 92.1945 126.289C79.3021 130.283 67.1939 128.117 55.1826 119.676Z" fill="black"/>
<path d="M3.53094 50.3659C3.7134 50.3659 3.908 50.3611 4.11453 50.3515C8.59335 50.1388 13.1346 49.7516 17.5268 49.3768L20.2179 49.1484C21.1184 49.0729 22.1107 48.9213 22.6404 48.3661C23.0013 47.9887 24.1723 46.6596 24.1152 45.3876C24.0778 44.5422 22.7898 43.4534 21.8565 43.2584C20.6031 43.0909 19.3287 43.1886 18.1156 43.5452L17.3345 43.7225C14.7134 44.4464 11.9929 44.7458 9.27713 44.6092L34.9848 13.9523C35.08 14.6172 35.1639 15.2518 35.2473 15.8629C35.4882 17.6599 35.6954 19.2102 36.0347 20.767C36.5821 23.267 37.8889 24.6263 39.5055 24.4235C40.7125 24.268 42.0746 23.3688 41.6985 19.9716C41.2286 15.7369 40.5543 11.5297 39.9564 7.97371C39.497 5.23942 38.8288 4.70255 36.0184 4.79837C32.6107 4.91061 29.148 5.06615 25.7993 5.21645C23.9419 5.30002 22.0841 5.38119 20.2262 5.45995C19.3152 5.49802 17.62 5.5676 17.4598 7.48014C17.4154 7.83207 17.4421 8.18938 17.5384 8.53074C17.6347 8.87217 17.7986 9.19069 18.0203 9.46753C18.2604 9.73532 18.5514 9.95224 18.8767 10.1056C19.2019 10.2589 19.5545 10.3455 19.9137 10.3602C21.529 10.4914 23.1751 10.5164 24.7668 10.542C25.62 10.5551 26.4732 10.5689 27.3212 10.5971C27.9257 10.6181 28.5269 10.6719 29.2245 10.7343L29.696 10.7763L4.52282 42.5607C4.52282 42.0429 4.52786 41.5552 4.53115 41.0912C4.54034 39.6112 4.54906 38.3346 4.50968 37.0724L4.49718 36.6786C4.42039 34.262 4.34105 31.764 4.06998 29.3204C3.91632 28.7303 3.57276 28.207 3.09253 27.8312C2.91227 27.6575 2.74171 27.4741 2.58136 27.2819L2.35158 26.9931L1.61961 27.6862C1.19496 28.0846 0.755924 28.4961 0.345713 28.9293C0.160592 29.1829 0.074892 29.4955 0.104394 29.8081C0.116864 31.3938 0.118785 32.9795 0.120097 34.5652C0.124692 38.626 0.129355 42.8252 0.322318 46.9497C0.387952 48.4087 0.666084 49.2469 1.24497 49.7509C1.90459 50.2318 2.71908 50.451 3.53094 50.3659Z" fill="black"/>
</g>
<defs>
<clipPath id="clip0_6_2022">
<rect width="124.704" height="136.518" fill="white"/>
</clipPath>
</defs>
</svg>
