<svg width="133" height="146" viewBox="0 0 133 146" fill="none" xmlns="http://www.w3.org/2000/svg">
<g clip-path="url(#clip0_6_2192)">
<path d="M52.5653 18.0027C52.224 20.3425 52.0554 22.7408 51.8927 25.0603C51.8146 26.1669 51.7373 27.2735 51.6408 28.3768C50.4555 42.0037 51.0499 55.8458 51.6242 69.2319L51.6472 69.7819C51.6997 70.9994 51.6866 72.234 51.6722 73.5407C51.6683 73.9582 51.6636 74.3848 51.661 74.8232L51.4347 74.6316C50.9753 74.2424 50.5812 73.9063 50.1592 73.6038C43.4304 68.756 36.2916 67.0699 28.9433 68.59C27.3708 68.8814 25.8961 69.562 24.6534 70.5682C23.4106 71.575 22.439 72.8765 21.8271 74.354C21.2121 75.899 20.993 77.5733 21.1894 79.2253C21.3857 80.8766 21.9916 82.4532 22.9516 83.8111C24.1382 85.4198 25.5159 86.8788 27.0544 88.1554L27.3976 88.4652C32.184 92.6566 36.1767 97.6756 39.1848 103.282C43.4293 111.411 48.1707 119.975 53.6793 129.467C55.0531 131.834 57.2427 133.753 58.9957 135.159C63.0187 138.281 67.505 140.754 72.2917 142.49C77.0357 144.328 82.079 145.271 87.1663 145.27C93.0733 145.198 98.922 144.09 104.446 141.995C108.372 140.506 112.01 138.346 115.197 135.612C121.19 130.649 125.361 123.846 127.945 114.815C131.315 103.109 132.753 90.9331 132.202 78.7652C131.997 75.1448 131.192 71.5835 129.819 68.227C129.195 66.6479 128.227 65.2281 126.986 64.0701C125.745 62.9121 124.261 62.0452 122.642 61.5323C120.941 61.0094 119.144 60.872 117.383 61.1301C115.622 61.3881 113.941 62.0352 112.461 63.0242C112.12 63.248 111.785 63.4836 111.434 63.7265L111.252 63.8531C110.347 61.8542 108.99 60.0936 107.286 58.7113C105.582 57.3289 103.58 56.3628 101.438 55.8898C99.594 55.5216 97.6887 55.608 95.8864 56.1416C94.0834 56.6752 92.4387 57.6399 91.0925 58.9523C86.1792 52.4506 82.5004 51.7982 75.1704 56.1648L75.1461 55.9541C75.1028 55.578 75.07 55.2978 75.0516 55.0182C74.8934 52.658 74.7451 50.2973 74.606 47.9363C74.2843 42.6593 73.9496 37.2032 73.4593 31.8501C72.9395 26.2056 72.081 19.7144 68.4252 14.0699C66.7187 11.4328 64.2207 9.86936 61.5736 9.78403C58.8925 9.68296 56.3787 11.0514 54.4799 13.6C53.4987 14.8932 52.8421 16.4031 52.5653 18.0027ZM57.278 58.67C57.2333 56.7411 57.163 54.8114 57.0914 52.8818C56.9503 49.0442 56.8054 45.076 56.8816 41.1819C56.999 35.1961 57.4 29.1119 57.7879 23.2285L57.9539 20.695C58.1107 18.2823 58.7238 15.716 62.0573 14.9041C64.2337 16.5863 65.5432 18.9524 66.0578 22.1311C66.9301 27.5222 67.5123 32.4211 67.8378 37.1087C68.2592 43.187 68.5821 49.3763 68.8938 55.3614C69.0842 59.0212 69.2758 62.6803 69.4891 66.3388C69.6204 68.6097 70.6358 69.9421 72.3462 70.0904C74.6132 70.2938 75.4736 68.523 76.0939 67.2333C76.3564 66.6912 76.6058 66.1405 76.8578 65.5885C77.5949 63.8031 78.519 62.1007 79.6145 60.5098C80.6987 59.0612 82.0501 58.3524 83.3274 58.5624C84.6486 58.7816 85.742 59.946 86.3301 61.7575C86.7016 63.1168 86.9064 64.5164 86.9399 65.9253C86.9628 66.2764 86.9858 66.6269 87.0134 66.9754C87.0436 67.5635 87.0285 68.1535 86.9681 68.7396C86.9372 69.1512 86.9024 69.562 86.9024 69.9722C86.865 70.3227 86.8992 70.6778 87.0022 71.0152C87.1059 71.3525 87.2766 71.6656 87.5043 71.9347C87.7321 72.2044 88.0117 72.425 88.3274 72.5832C88.6424 72.7413 88.987 72.8345 89.3388 72.8562C89.6827 72.929 90.0378 72.933 90.383 72.8667C90.7289 72.8011 91.0577 72.6665 91.3504 72.4716C91.6432 72.2766 91.8932 72.0253 92.0875 71.7319C92.2818 71.4392 92.415 71.1097 92.4807 70.7644C92.5463 70.5157 92.6119 70.265 92.6776 70.0149C92.778 69.6211 92.8745 69.2234 92.9992 68.8335C93.1239 68.4436 93.2282 68.0682 93.3392 67.6829C93.6023 66.6768 93.939 65.691 94.3473 64.7339L94.4425 64.5259C95.3961 62.4387 96.2861 60.4605 98.9515 60.6194C101.148 60.7454 104.017 61.5809 105.206 64.8462C105.751 66.5914 106.081 68.3964 106.19 70.2216L106.271 70.9981C106.308 71.3473 106.32 71.7043 106.333 72.0601C106.388 73.5985 106.45 75.3417 108.602 76.0946C110.487 76.7509 111.5 75.7008 113.199 72.9264C114.11 71.2882 115.223 69.7714 116.512 68.4108C116.971 67.9107 117.54 67.5234 118.172 67.2786C118.805 67.0332 119.486 66.9373 120.162 66.9977C120.838 67.1316 121.476 67.4197 122.024 67.8385C122.572 68.2572 123.017 68.7967 123.325 69.4144C125.561 73.145 126.644 77.4545 126.437 81.7994C125.972 89.1898 125.135 96.462 124.171 104.521C123.428 110.721 120.952 116.27 118.628 120.886C115.118 127.851 109.165 132.593 100.427 135.384C87.7439 139.434 75.2892 137.251 63.4142 128.893C62.1432 128.042 61.0335 126.972 60.1376 125.733C58.1048 122.791 56.2263 119.746 54.51 116.61C51.9969 111.95 49.4953 107.005 47.0734 101.918C42.8072 92.9539 37.5004 86.1004 30.8543 80.9646C30.7783 80.9081 30.7069 80.8464 30.6406 80.7788C30.4332 80.5596 30.2153 80.3437 29.998 80.1271C28.728 78.865 27.5274 77.6724 28.1844 75.6916C28.8887 73.5663 30.8977 73.2185 32.8483 73.2185C32.9533 73.2185 33.0583 73.2185 33.1627 73.2185C40.3168 73.3412 45.6554 76.0007 49.0237 81.1221C49.6546 82.2202 50.1191 83.4055 50.4021 84.6401C50.5045 84.9997 50.6069 85.3581 50.7165 85.7093C51.1608 87.1401 51.8868 88.6267 53.9037 88.8019C55.517 88.945 56.9352 87.7071 57.4754 85.6515C57.7012 84.7536 57.8043 83.8295 57.7815 82.9041C57.6528 75.6581 57.4867 67.7302 57.278 58.67Z" fill="black"/>
<path d="M2.72622 66.1589C3.59604 66.1064 4.42003 65.75 5.0532 65.1513C5.76014 64.5749 6.43078 63.9557 7.06195 63.2972C9.86235 60.2933 12.6587 57.2854 15.4508 54.2732C17.6228 51.934 19.7958 49.5955 21.9696 47.2576C22.2879 46.9163 22.633 46.6012 23.0708 46.1969C23.1784 46.0985 23.2913 45.9946 23.4095 45.8852L24.8148 52.2261C25.4777 55.2236 26.6657 56.361 28.7785 56.0256C29.1626 55.9833 29.5329 55.859 29.8649 55.6612C30.1969 55.4634 30.4826 55.1966 30.7026 54.879C31.2933 53.9969 31.3802 52.6881 30.9654 50.9889C30.0209 47.0948 28.8557 43.0682 27.5023 39.0205C26.5835 36.2823 25.2835 35.6141 22.1324 36.2738L20.4089 36.6367C18.3933 37.0627 16.3092 37.5037 14.2509 37.8785C13.2007 38.0702 12.1217 38.2316 11.0788 38.3885C9.72347 38.5919 8.32245 38.802 6.95398 39.0809C6.5867 39.1974 6.25769 39.4107 6.00149 39.6984C5.7453 39.9861 5.57124 40.3376 5.49802 40.7159C5.55841 41.0936 5.71773 41.4486 5.95984 41.7447C6.20193 42.0409 6.51823 42.2677 6.8764 42.402C7.88559 42.6759 8.93475 42.7727 9.97701 42.6882C11.866 42.5733 13.7149 42.4072 15.8565 42.2149C16.5207 42.1552 17.2078 42.0935 17.9232 42.0305C17.7532 42.2714 17.5916 42.5011 17.4367 42.7223C16.9688 43.4208 16.4628 44.0929 15.9213 44.7359C12.19 48.9864 8.37016 53.286 4.67696 57.4439L2.52624 59.8658C2.33459 60.0818 2.13237 60.2872 1.92694 60.4926C1.65981 60.7624 1.38223 61.042 1.13216 61.3459C-0.488339 63.3083 0.147714 64.64 0.965511 65.4112C1.43167 65.8819 2.06388 66.1503 2.72622 66.1589Z" fill="black"/>
<path d="M28.5757 31.0573C31.5905 31.953 34.6614 32.6472 37.7683 33.1352C38.17 33.2008 38.5763 33.2344 38.9833 33.2357C39.9491 33.2448 40.902 33.0134 41.7561 32.5623C42.6101 32.1112 43.3387 31.4545 43.8757 30.6517L44.024 30.4495L43.8731 30.2526C42.3787 28.2731 40.275 28.0867 38.2423 27.9009C36.7328 27.7651 35.296 27.6384 34.127 26.8049L34.2812 26.6381C34.5516 26.3441 34.8062 26.0691 35.0635 25.7987L39.771 20.8834C43.7091 16.7729 47.6435 12.6588 51.5745 8.54094C52.3772 7.73161 53.1069 6.8531 53.7554 5.91558C55.0201 3.99908 55.0683 2.0432 53.8685 1.16108C52.0084 -0.20804 50.3089 1.15253 49.4917 1.8069C48.5379 2.6163 47.6538 3.50439 46.8487 4.4618L46.4058 4.95798C42.8465 8.91768 39.2962 12.8852 35.5439 17.0786L31.8273 21.2332C31.8431 21.1151 31.8574 21.0035 31.8719 20.8965C31.9677 20.1929 32.03 19.7276 32.0648 19.2465L32.1481 18.0979C32.2886 16.1676 32.4337 14.171 32.5019 12.202C32.5409 11.8342 32.5038 11.4623 32.3927 11.1095C32.2815 10.7567 32.099 10.4306 31.8562 10.1516C31.6754 9.99827 31.4619 9.88814 31.2322 9.82973C31.0025 9.77125 30.7625 9.76593 30.5304 9.81424C29.7369 9.93435 29.0437 11.2523 28.8783 11.9572C27.903 16.1105 26.9999 20.3524 26.127 24.4545L25.7876 26.0448C25.1772 28.9038 25.9327 30.2638 28.5757 31.0573Z" fill="black"/>
</g>
<defs>
<clipPath id="clip0_6_2192">
<rect width="132.58" height="145.707" fill="white"/>
</clipPath>
</defs>
</svg>
